<svg xmlns="http://www.w3.org/2000/svg" xmlns:xlink="http://www.w3.org/1999/xlink" width="1440" height="306" viewBox="0 0 1440 306"><defs><linearGradient id="a" x1="0.5" x2="0.5" y2="1" gradientUnits="objectBoundingBox"><stop offset="0" stop-color="#f2f2f2"/><stop offset="1" stop-color="#d9d9d9"/></linearGradient><filter id="b" x="981.5" y="190.5" width="297.6" height="68" filterUnits="userSpaceOnUse"><feOffset dy="3" input="SourceAlpha"/><feGaussianBlur stdDeviation="3" result="c"/><feFlood flood-opacity="0.161"/><feComposite operator="in" in2="c"/><feComposite in="SourceGraphic"/></filter><filter id="e" x="126.5" y="189.5" width="136.6" height="68" filterUnits="userSpaceOnUse"><feOffset dy="3" input="SourceAlpha"/><feGaussianBlur stdDeviation="3" result="f"/><feFlood flood-opacity="0.161"/><feComposite operator="in" in2="f"/><feComposite in="SourceGraphic"/></filter><filter id="g" x="-9" y="-7.5" width="1458" height="107" filterUnits="userSpaceOnUse"><feOffset dy="1.5" input="SourceAlpha"/><feGaussianBlur stdDeviation="3" result="h"/><feFlood flood-opacity="0.161"/><feComposite operator="in" in2="h"/><feComposite in="SourceGraphic"/></filter><clipPath id="j"><rect width="1440" height="306"/></clipPath></defs><g id="i" clip-path="url(#j)"><rect width="1440" height="306" fill="#fff"/><g transform="translate(0 -9)"><g transform="matrix(1, 0, 0, 1, 0, 9)" filter="url(#b)"><rect width="279.6" height="50" rx="4" transform="translate(990.5 196.5)" fill="url(#a)"/></g><path d="M8.594,0,7.453-3.172H3.086L1.969,0H0L4.273-11.469H6.3L10.578,0ZM6.961-4.781,5.891-7.891q-.117-.312-.324-.984t-.285-.984a17.509,17.509,0,0,1-.617,2.1L3.633-4.781ZM14.8.156a3.01,3.01,0,0,1-2.523-1.172A5.267,5.267,0,0,1,11.375-4.3a5.284,5.284,0,0,1,.918-3.309A3.038,3.038,0,0,1,14.836-8.8,2.979,2.979,0,0,1,17.43-7.539h.094a11.005,11.005,0,0,1-.133-1.469v-3.148h1.844V0H17.8l-.32-1.133h-.086A2.935,2.935,0,0,1,14.8.156ZM15.3-1.328a2,2,0,0,0,1.648-.637,3.352,3.352,0,0,0,.531-2.066v-.258a3.873,3.873,0,0,0-.531-2.32A1.971,1.971,0,0,0,15.281-7.3a1.688,1.688,0,0,0-1.492.785,4.024,4.024,0,0,0-.523,2.238,3.923,3.923,0,0,0,.508,2.191A1.714,1.714,0,0,0,15.3-1.328ZM24.773.156A3.01,3.01,0,0,1,22.25-1.016,5.267,5.267,0,0,1,21.344-4.3a5.284,5.284,0,0,1,.918-3.309A3.038,3.038,0,0,1,24.8-8.8,2.979,2.979,0,0,1,27.4-7.539h.094a11.005,11.005,0,0,1-.133-1.469v-3.148H29.2V0H27.766l-.32-1.133h-.086A2.935,2.935,0,0,1,24.773.156Zm.492-1.484a2,2,0,0,0,1.648-.637,3.352,3.352,0,0,0,.531-2.066v-.258a3.873,3.873,0,0,0-.531-2.32A1.971,1.971,0,0,0,25.25-7.3a1.688,1.688,0,0,0-1.492.785,4.024,4.024,0,0,0-.523,2.238,3.923,3.923,0,0,0,.508,2.191A1.714,1.714,0,0,0,25.266-1.328ZM45.7,0H43.406L37.789-9.1h-.062l.039.508q.109,1.453.109,2.656V0h-1.7V-11.422h2.266l5.6,9.055h.047q-.016-.18-.062-1.309t-.047-1.762v-5.984H45.7Zm6.594.156A4.18,4.18,0,0,1,49.137-1.02,4.463,4.463,0,0,1,48-4.258a4.9,4.9,0,0,1,1.055-3.328,3.643,3.643,0,0,1,2.9-1.211,3.561,3.561,0,0,1,2.7,1.039A3.97,3.97,0,0,1,55.648-4.9v.992H49.891a2.838,2.838,0,0,0,.68,1.934,2.367,2.367,0,0,0,1.8.676A6.662,6.662,0,0,0,53.8-1.441a7.474,7.474,0,0,0,1.418-.48V-.43a5.637,5.637,0,0,1-1.359.453A8.336,8.336,0,0,1,52.289.156Zm-.336-7.562a1.845,1.845,0,0,0-1.4.555,2.643,2.643,0,0,0-.629,1.617h3.922a2.392,2.392,0,0,0-.516-1.621A1.764,1.764,0,0,0,51.953-7.406ZM64.82,0,63.7-4.031q-.2-.641-.734-2.977H62.9Q62.445-4.9,62.18-4.016L61.031,0H59L56.578-8.641h1.875l1.1,4.258q.375,1.578.531,2.7h.047q.078-.57.238-1.309t.277-1.105l1.313-4.547h2.016L65.25-4.094q.117.383.293,1.172A9.017,9.017,0,0,1,65.75-1.7h.063a23.974,23.974,0,0,1,.547-2.687l1.117-4.258H69.32L66.883,0Zm15.2-9.984a3.078,3.078,0,0,0-2.531,1.141A4.876,4.876,0,0,0,76.563-5.7a4.908,4.908,0,0,0,.887,3.18,3.132,3.132,0,0,0,2.566,1.078,6.743,6.743,0,0,0,1.406-.145q.68-.145,1.414-.371v1.6a8.573,8.573,0,0,1-3.047.508,4.87,4.87,0,0,1-3.852-1.52,6.357,6.357,0,0,1-1.344-4.348,7.025,7.025,0,0,1,.652-3.117,4.656,4.656,0,0,1,1.887-2.047,5.707,5.707,0,0,1,2.9-.711,7.193,7.193,0,0,1,3.234.734L82.594-9.3a10.031,10.031,0,0,0-1.223-.48A4.405,4.405,0,0,0,80.016-9.984ZM88.875.156A4.18,4.18,0,0,1,85.723-1.02a4.463,4.463,0,0,1-1.137-3.238,4.9,4.9,0,0,1,1.055-3.328,3.643,3.643,0,0,1,2.9-1.211,3.561,3.561,0,0,1,2.7,1.039A3.97,3.97,0,0,1,92.234-4.9v.992H86.477a2.838,2.838,0,0,0,.68,1.934,2.367,2.367,0,0,0,1.8.676,6.662,6.662,0,0,0,1.426-.145,7.474,7.474,0,0,0,1.418-.48V-.43a5.637,5.637,0,0,1-1.359.453A8.336,8.336,0,0,1,88.875.156Zm-.336-7.562a1.845,1.845,0,0,0-1.4.555,2.644,2.644,0,0,0-.629,1.617H90.43a2.392,2.392,0,0,0-.516-1.621A1.764,1.764,0,0,0,88.539-7.406ZM98.7-8.8a4.42,4.42,0,0,1,.914.078l-.18,1.711a3.47,3.47,0,0,0-.812-.094,2.351,2.351,0,0,0-1.785.719,2.6,2.6,0,0,0-.684,1.867V0H94.32V-8.641h1.438L96-7.117h.094a3.423,3.423,0,0,1,1.121-1.227A2.665,2.665,0,0,1,98.7-8.8Zm5.734,7.469a4.465,4.465,0,0,0,1.344-.211V-.156A3.706,3.706,0,0,1,105,.066a5.409,5.409,0,0,1-1,.09q-2.609,0-2.609-2.75V-7.25h-1.18v-.812l1.266-.672.625-1.828h1.133v1.922H105.7V-7.25h-2.461v4.625a1.3,1.3,0,0,0,.332.98A1.21,1.21,0,0,0,104.438-1.328ZM109.344,0h-1.836V-8.641h1.836ZM107.4-10.93a1.017,1.017,0,0,1,.27-.758,1.05,1.05,0,0,1,.77-.266,1.028,1.028,0,0,1,.754.266,1.017,1.017,0,0,1,.27.758,1,1,0,0,1-.27.738,1.019,1.019,0,0,1-.754.27,1.041,1.041,0,0,1-.77-.27A1,1,0,0,1,107.4-10.93ZM116.3-7.25H114.2V0h-1.844V-7.25H110.93v-.859l1.422-.562v-.562a3.144,3.144,0,0,1,.719-2.27,2.939,2.939,0,0,1,2.2-.738,5.859,5.859,0,0,1,1.906.32l-.484,1.391a4.232,4.232,0,0,0-1.3-.219,1.056,1.056,0,0,0-.91.387A1.949,1.949,0,0,0,114.2-9.2v.563H116.3Zm3.3,7.25h-1.836V-8.641h1.836Zm-1.945-10.93a1.017,1.017,0,0,1,.27-.758,1.05,1.05,0,0,1,.77-.266,1.028,1.028,0,0,1,.754.266,1.017,1.017,0,0,1,.27.758,1,1,0,0,1-.27.738,1.019,1.019,0,0,1-.754.27,1.041,1.041,0,0,1-.77-.27A1,1,0,0,1,117.664-10.93ZM125.727.156a3.783,3.783,0,0,1-2.98-1.145,4.782,4.782,0,0,1-1.02-3.285,4.809,4.809,0,0,1,1.066-3.352A3.956,3.956,0,0,1,125.875-8.8a5.776,5.776,0,0,1,2.461.508l-.555,1.477a5.56,5.56,0,0,0-1.922-.453q-2.242,0-2.242,2.977a3.565,3.565,0,0,0,.559,2.184,1.934,1.934,0,0,0,1.637.73,4.7,4.7,0,0,0,2.32-.609v1.6a3.626,3.626,0,0,1-1.051.414A6.305,6.305,0,0,1,125.727.156ZM135.57,0,135.2-1.2h-.062a3.54,3.54,0,0,1-1.258,1.074,3.978,3.978,0,0,1-1.625.285,2.75,2.75,0,0,1-1.988-.687,2.573,2.573,0,0,1-.715-1.945,2.284,2.284,0,0,1,.992-2.016,5.721,5.721,0,0,1,3.023-.742l1.492-.047v-.461a1.747,1.747,0,0,0-.387-1.238,1.577,1.577,0,0,0-1.2-.41,4.147,4.147,0,0,0-1.273.2,9.61,9.61,0,0,0-1.172.461l-.594-1.312a6.39,6.39,0,0,1,1.539-.559,7.083,7.083,0,0,1,1.578-.191,3.738,3.738,0,0,1,2.488.719,2.814,2.814,0,0,1,.84,2.258V0Zm-2.734-1.25a2.274,2.274,0,0,0,1.605-.559,2.025,2.025,0,0,0,.605-1.566v-.75l-1.109.047a3.8,3.8,0,0,0-1.887.434,1.317,1.317,0,0,0-.59,1.184,1.155,1.155,0,0,0,.344.895A1.477,1.477,0,0,0,132.836-1.25Zm9.828-.078a4.465,4.465,0,0,0,1.344-.211V-.156a3.706,3.706,0,0,1-.785.223,5.409,5.409,0,0,1-1,.09q-2.609,0-2.609-2.75V-7.25h-1.18v-.812l1.266-.672.625-1.828h1.133v1.922h2.461V-7.25h-2.461v4.625a1.3,1.3,0,0,0,.332.98A1.21,1.21,0,0,0,142.664-1.328ZM149.508.156a4.18,4.18,0,0,1-3.152-1.176,4.463,4.463,0,0,1-1.137-3.238,4.9,4.9,0,0,1,1.055-3.328,3.643,3.643,0,0,1,2.9-1.211,3.561,3.561,0,0,1,2.7,1.039,3.97,3.97,0,0,1,.992,2.859v.992h-5.758a2.838,2.838,0,0,0,.68,1.934,2.367,2.367,0,0,0,1.8.676,6.662,6.662,0,0,0,1.426-.145,7.473,7.473,0,0,0,1.418-.48V-.43a5.637,5.637,0,0,1-1.359.453A8.336,8.336,0,0,1,149.508.156Zm-.336-7.562a1.845,1.845,0,0,0-1.4.555,2.643,2.643,0,0,0-.629,1.617h3.922a2.392,2.392,0,0,0-.516-1.621A1.764,1.764,0,0,0,149.172-7.406Zm12,1.3h1.3a2.961,2.961,0,0,0,1.891-.484,1.757,1.757,0,0,0,.586-1.437,1.547,1.547,0,0,0-.633-1.391,3.47,3.47,0,0,0-1.906-.422h-1.234Zm0,1.547V0H159.3V-11.422h3.227a5.3,5.3,0,0,1,3.273.828,2.973,2.973,0,0,1,1.063,2.5,3.125,3.125,0,0,1-2.219,3.039L167.875,0H165.75l-2.734-4.562ZM174.742,0l-.367-1.2h-.062a3.54,3.54,0,0,1-1.258,1.074,3.978,3.978,0,0,1-1.625.285,2.75,2.75,0,0,1-1.988-.687,2.573,2.573,0,0,1-.715-1.945,2.284,2.284,0,0,1,.992-2.016,5.721,5.721,0,0,1,3.023-.742l1.492-.047v-.461a1.747,1.747,0,0,0-.387-1.238,1.577,1.577,0,0,0-1.2-.41,4.147,4.147,0,0,0-1.273.2,9.61,9.61,0,0,0-1.172.461l-.594-1.312a6.39,6.39,0,0,1,1.539-.559,7.083,7.083,0,0,1,1.578-.191,3.738,3.738,0,0,1,2.488.719,2.814,2.814,0,0,1,.84,2.258V0Zm-2.734-1.25a2.274,2.274,0,0,0,1.605-.559,2.025,2.025,0,0,0,.605-1.566v-.75l-1.109.047a3.8,3.8,0,0,0-1.887.434,1.317,1.317,0,0,0-.59,1.184,1.155,1.155,0,0,0,.344.895A1.477,1.477,0,0,0,172.008-1.25ZM186.219,0h-1.844V-5.312a2.325,2.325,0,0,0-.4-1.492A1.555,1.555,0,0,0,182.7-7.3a2.031,2.031,0,0,0-1.7.688,3.8,3.8,0,0,0-.539,2.3V0h-1.836V-8.641h1.438l.258,1.133h.094a2.556,2.556,0,0,1,1.109-.953,3.718,3.718,0,0,1,1.594-.336q3.109,0,3.109,3.164Zm9.852-8.641v1.008l-1.477.273a2.383,2.383,0,0,1,.336.672,2.651,2.651,0,0,1,.133.844,2.585,2.585,0,0,1-.922,2.1,3.858,3.858,0,0,1-2.539.766,4.117,4.117,0,0,1-.75-.062,1.034,1.034,0,0,0-.594.859.478.478,0,0,0,.277.445,2.4,2.4,0,0,0,1.02.148h1.508a3.353,3.353,0,0,1,2.172.609,2.144,2.144,0,0,1,.742,1.758,2.556,2.556,0,0,1-1.211,2.266,6.376,6.376,0,0,1-3.5.8,4.83,4.83,0,0,1-2.7-.625,2.02,2.02,0,0,1-.93-1.781,1.9,1.9,0,0,1,.5-1.34,2.7,2.7,0,0,1,1.41-.754,1.38,1.38,0,0,1-.605-.5,1.272,1.272,0,0,1-.238-.73,1.257,1.257,0,0,1,.273-.82,3.155,3.155,0,0,1,.813-.664,2.407,2.407,0,0,1-1.09-.941,2.769,2.769,0,0,1-.418-1.527,2.738,2.738,0,0,1,.887-2.18A3.728,3.728,0,0,1,191.7-8.8a6.152,6.152,0,0,1,.77.051,4.845,4.845,0,0,1,.605.105Zm-6.789,9.984a1.01,1.01,0,0,0,.535.914,2.941,2.941,0,0,0,1.5.32,4.544,4.544,0,0,0,2.234-.43,1.288,1.288,0,0,0,.734-1.141.856.856,0,0,0-.4-.8,3.231,3.231,0,0,0-1.5-.238H191a1.954,1.954,0,0,0-1.254.371A1.217,1.217,0,0,0,189.281,1.344Zm.789-7.187a1.739,1.739,0,0,0,.418,1.25,1.581,1.581,0,0,0,1.2.438q1.594,0,1.594-1.7a1.932,1.932,0,0,0-.395-1.3,1.5,1.5,0,0,0-1.2-.457,1.545,1.545,0,0,0-1.207.453A1.9,1.9,0,0,0,190.07-5.844Zm11.375,6a4.18,4.18,0,0,1-3.152-1.176,4.463,4.463,0,0,1-1.137-3.238,4.9,4.9,0,0,1,1.055-3.328,3.643,3.643,0,0,1,2.9-1.211,3.561,3.561,0,0,1,2.7,1.039A3.97,3.97,0,0,1,204.8-4.9v.992h-5.758a2.838,2.838,0,0,0,.68,1.934,2.367,2.367,0,0,0,1.8.676,6.662,6.662,0,0,0,1.426-.145,7.473,7.473,0,0,0,1.418-.48V-.43a5.637,5.637,0,0,1-1.359.453A8.336,8.336,0,0,1,201.445.156Zm-.336-7.562a1.845,1.845,0,0,0-1.4.555,2.643,2.643,0,0,0-.629,1.617H203a2.392,2.392,0,0,0-.516-1.621A1.764,1.764,0,0,0,201.109-7.406Z" transform="translate(1046 237)" fill="#333"/></g><g transform="translate(785 134.586)"><path d="M7.5,17.913l5.206-5.206L7.5,7.5" transform="translate(-0.2 -7.5)" fill="none" stroke="#333" stroke-linecap="round" stroke-linejoin="round" stroke-width="1.5"/></g><path d="M-64.437-11.422h1.43L-67.125,0h-1.312l-4.094-11.422h1.406L-68.5-4.031a20.729,20.729,0,0,1,.719,2.477,20.673,20.673,0,0,1,.734-2.523ZM-60.336,0h-1.3V-8.562h1.3Zm-1.406-10.883a.861.861,0,0,1,.219-.652.764.764,0,0,1,.547-.207.764.764,0,0,1,.539.211.846.846,0,0,1,.227.648.859.859,0,0,1-.227.652.757.757,0,0,1-.539.215.749.749,0,0,1-.547-.215A.877.877,0,0,1-61.742-10.883ZM-53.969.156a3.934,3.934,0,0,1-3-1.156,4.476,4.476,0,0,1-1.1-3.211A4.964,4.964,0,0,1-57.043-7.5,3.387,3.387,0,0,1-54.3-8.719,3.229,3.229,0,0,1-51.758-7.66a4.057,4.057,0,0,1,.938,2.793v.82h-5.9a3.394,3.394,0,0,0,.762,2.289,2.634,2.634,0,0,0,2.035.781,6.9,6.9,0,0,0,2.734-.578V-.4a6.863,6.863,0,0,1-1.3.426A7.31,7.31,0,0,1-53.969.156Zm-.352-7.789a2.118,2.118,0,0,0-1.645.672A3.1,3.1,0,0,0-56.687-5.1h4.477a2.851,2.851,0,0,0-.547-1.879A1.925,1.925,0,0,0-54.32-7.633ZM-41.617,0l-1.57-5.023q-.148-.461-.555-2.094H-43.8q-.312,1.367-.547,2.109L-45.969,0h-1.5L-49.8-8.562h1.359l1.262,4.914a19.91,19.91,0,0,1,.5,2.273h.063q.086-.445.277-1.152t.332-1.121l1.57-4.914h1.406l1.531,4.914a16.586,16.586,0,0,1,.594,2.258h.063a8.281,8.281,0,0,1,.168-.867q.137-.586,1.629-6.3h1.344L-40.078,0Zm16.984,0-1.422-3.633h-4.578L-32.039,0h-1.344l4.516-11.469h1.117L-23.258,0Zm-1.836-4.828L-27.8-8.367q-.258-.672-.531-1.648a14.8,14.8,0,0,1-.492,1.648l-1.344,3.539ZM-20.586,0h-1.3V-12.156h1.3Zm4.047,0h-1.3V-12.156h1.3ZM-4.547-10.4A3.735,3.735,0,0,0-7.52-9.145a5.058,5.058,0,0,0-1.09,3.434A5.159,5.159,0,0,0-7.559-2.246a3.735,3.735,0,0,0,3,1.223,10.23,10.23,0,0,0,2.727-.43V-.289a8.4,8.4,0,0,1-2.93.445A4.956,4.956,0,0,1-8.66-1.375a6.306,6.306,0,0,1-1.371-4.352,6.868,6.868,0,0,1,.66-3.094,4.739,4.739,0,0,1,1.906-2.047,5.77,5.77,0,0,1,2.934-.719,7.078,7.078,0,0,1,3.141.656l-.562,1.141A6.053,6.053,0,0,0-4.547-10.4ZM4.078.156A3.934,3.934,0,0,1,1.082-1a4.476,4.476,0,0,1-1.1-3.211A4.964,4.964,0,0,1,1-7.5,3.387,3.387,0,0,1,3.742-8.719,3.229,3.229,0,0,1,6.289-7.66a4.057,4.057,0,0,1,.938,2.793v.82h-5.9A3.394,3.394,0,0,0,2.09-1.758a2.634,2.634,0,0,0,2.035.781,6.9,6.9,0,0,0,2.734-.578V-.4a6.863,6.863,0,0,1-1.3.426A7.31,7.31,0,0,1,4.078.156ZM3.727-7.633a2.118,2.118,0,0,0-1.645.672A3.1,3.1,0,0,0,1.359-5.1H5.836A2.851,2.851,0,0,0,5.289-6.98,1.925,1.925,0,0,0,3.727-7.633Zm9.617-1.086a5.075,5.075,0,0,1,1.023.094l-.18,1.2a4.418,4.418,0,0,0-.937-.117,2.282,2.282,0,0,0-1.777.844,3.077,3.077,0,0,0-.738,2.1V0h-1.3V-8.562h1.07l.148,1.586h.063a3.764,3.764,0,0,1,1.148-1.289A2.585,2.585,0,0,1,13.344-8.719Zm5.391,7.8A4.236,4.236,0,0,0,19.4-.965a4.3,4.3,0,0,0,.508-.105v.992a2.371,2.371,0,0,1-.621.168,4.664,4.664,0,0,1-.738.066q-2.484,0-2.484-2.617V-7.555H14.836V-8.18l1.227-.539.547-1.828h.75v1.984h2.484v1.008H17.359v5.039a1.734,1.734,0,0,0,.367,1.188A1.278,1.278,0,0,0,18.734-.914ZM22.914,0h-1.3V-8.562h1.3ZM21.508-10.883a.861.861,0,0,1,.219-.652.764.764,0,0,1,.547-.207.764.764,0,0,1,.539.211.846.846,0,0,1,.227.648.859.859,0,0,1-.227.652.757.757,0,0,1-.539.215.749.749,0,0,1-.547-.215A.877.877,0,0,1,21.508-10.883Zm8.016,3.328h-2.18V0h-1.3V-7.555H24.516v-.586l1.531-.469v-.477q0-3.156,2.758-3.156a5.675,5.675,0,0,1,1.594.273l-.336,1.039a4.29,4.29,0,0,0-1.281-.242,1.248,1.248,0,0,0-1.086.488,2.725,2.725,0,0,0-.352,1.566v.555h2.18ZM32.383,0h-1.3V-8.562h1.3ZM30.977-10.883a.861.861,0,0,1,.219-.652.764.764,0,0,1,.547-.207.764.764,0,0,1,.539.211.846.846,0,0,1,.227.648.859.859,0,0,1-.227.652.757.757,0,0,1-.539.215.749.749,0,0,1-.547-.215A.877.877,0,0,1,30.977-10.883ZM38.555.156A3.654,3.654,0,0,1,35.676-.988a4.707,4.707,0,0,1-1.02-3.238,4.853,4.853,0,0,1,1.035-3.32,3.727,3.727,0,0,1,2.949-1.172,5.852,5.852,0,0,1,1.234.133,4.066,4.066,0,0,1,.969.313l-.4,1.1a6.1,6.1,0,0,0-.937-.285,4.186,4.186,0,0,0-.9-.113Q36-7.57,36-4.242a3.963,3.963,0,0,0,.637,2.422,2.215,2.215,0,0,0,1.887.844,5.769,5.769,0,0,0,2.2-.461V-.289A4.679,4.679,0,0,1,38.555.156ZM48.016,0l-.258-1.219H47.7a3.6,3.6,0,0,1-1.277,1.09,3.893,3.893,0,0,1-1.59.285,2.86,2.86,0,0,1-2-.656,2.394,2.394,0,0,1-.723-1.867q0-2.594,4.148-2.719l1.453-.047v-.531a2.171,2.171,0,0,0-.434-1.488,1.783,1.783,0,0,0-1.387-.48,5.65,5.65,0,0,0-2.422.656l-.4-.992a6.094,6.094,0,0,1,1.387-.539,6.006,6.006,0,0,1,1.512-.2,3.262,3.262,0,0,1,2.27.68,2.837,2.837,0,0,1,.738,2.18V0Zm-2.93-.914a2.632,2.632,0,0,0,1.9-.664,2.457,2.457,0,0,0,.691-1.859v-.773l-1.3.055a4.717,4.717,0,0,0-2.23.48,1.449,1.449,0,0,0-.684,1.324,1.336,1.336,0,0,0,.426,1.07A1.767,1.767,0,0,0,45.086-.914Zm9.328,0a4.236,4.236,0,0,0,.664-.051,4.3,4.3,0,0,0,.508-.105v.992a2.371,2.371,0,0,1-.621.168,4.664,4.664,0,0,1-.738.066q-2.484,0-2.484-2.617V-7.555H50.516V-8.18l1.227-.539.547-1.828h.75v1.984h2.484v1.008H53.039v5.039a1.734,1.734,0,0,0,.367,1.188A1.278,1.278,0,0,0,54.414-.914Zm6.5,1.07a3.934,3.934,0,0,1-3-1.156,4.476,4.476,0,0,1-1.1-3.211A4.964,4.964,0,0,1,57.84-7.5a3.387,3.387,0,0,1,2.738-1.219A3.229,3.229,0,0,1,63.125-7.66a4.057,4.057,0,0,1,.938,2.793v.82h-5.9a3.394,3.394,0,0,0,.762,2.289,2.634,2.634,0,0,0,2.035.781A6.9,6.9,0,0,0,63.7-1.555V-.4a6.863,6.863,0,0,1-1.3.426A7.31,7.31,0,0,1,60.914.156Zm-.352-7.789a2.118,2.118,0,0,0-1.645.672A3.1,3.1,0,0,0,58.2-5.1h4.477a2.851,2.851,0,0,0-.547-1.879A1.925,1.925,0,0,0,60.563-7.633ZM71.8-2.336a2.145,2.145,0,0,1-.891,1.844,4.186,4.186,0,0,1-2.5.648A5.436,5.436,0,0,1,65.75-.383v-1.2a6.424,6.424,0,0,0,1.324.492,5.53,5.53,0,0,0,1.363.18A3.092,3.092,0,0,0,70-1.238a1.072,1.072,0,0,0,.547-.988,1.073,1.073,0,0,0-.434-.855,6.82,6.82,0,0,0-1.691-.84,9.172,9.172,0,0,1-1.7-.777,2.321,2.321,0,0,1-.75-.754,1.966,1.966,0,0,1-.246-1.008,1.921,1.921,0,0,1,.852-1.652,3.968,3.968,0,0,1,2.336-.605,6.835,6.835,0,0,1,2.7.563L71.156-7.1a6.2,6.2,0,0,0-2.336-.531,2.687,2.687,0,0,0-1.391.289.894.894,0,0,0-.469.8.971.971,0,0,0,.176.586A1.735,1.735,0,0,0,67.7-5.5a12.657,12.657,0,0,0,1.5.633A5.6,5.6,0,0,1,71.262-3.75,1.97,1.97,0,0,1,71.8-2.336Z" transform="translate(880.848 145.465)" fill="#333"/><path d="M17.007-14.941A6.245,6.245,0,0,1,14.81-9.8,9.68,9.68,0,0,1,8.555-8.013H6.328V0h-3.5V-21.416H8.994q4.014,0,6.013,1.641A5.889,5.889,0,0,1,17.007-14.941ZM6.328-10.957h1.86a6.666,6.666,0,0,0,3.955-.937,3.412,3.412,0,0,0,1.26-2.93,3.324,3.324,0,0,0-1.128-2.754,5.571,5.571,0,0,0-3.516-.908H6.328Zm22.808-5.537a8.287,8.287,0,0,1,1.714.146l-.337,3.208a6.506,6.506,0,0,0-1.523-.176,4.409,4.409,0,0,0-3.347,1.348,4.871,4.871,0,0,0-1.282,3.5V0H20.918V-16.2h2.7l.454,2.856h.176a6.419,6.419,0,0,1,2.1-2.3A5,5,0,0,1,29.136-16.494ZM48.223-8.13a8.843,8.843,0,0,1-2.036,6.2A7.3,7.3,0,0,1,40.518.293,7.767,7.767,0,0,1,36.5-.732a6.769,6.769,0,0,1-2.681-2.944,10.028,10.028,0,0,1-.937-4.453,8.783,8.783,0,0,1,2.021-6.152,7.329,7.329,0,0,1,5.7-2.212,7.137,7.137,0,0,1,5.566,2.263A8.742,8.742,0,0,1,48.223-8.13Zm-11.792,0q0,5.61,4.146,5.61,4.1,0,4.1-5.61,0-5.552-4.131-5.552A3.522,3.522,0,0,0,37.4-12.246,7.305,7.305,0,0,0,36.431-8.13ZM65.859-16.2v1.89l-2.769.513a4.469,4.469,0,0,1,.63,1.26,4.97,4.97,0,0,1,.249,1.582,4.847,4.847,0,0,1-1.729,3.94A7.233,7.233,0,0,1,57.48-5.581,7.719,7.719,0,0,1,56.074-5.7a1.939,1.939,0,0,0-1.113,1.611.9.9,0,0,0,.52.835,4.5,4.5,0,0,0,1.912.278H60.22a6.286,6.286,0,0,1,4.072,1.143,4.02,4.02,0,0,1,1.392,3.3,4.793,4.793,0,0,1-2.271,4.248,11.955,11.955,0,0,1-6.562,1.494A9.057,9.057,0,0,1,51.8,6.035,3.788,3.788,0,0,1,50.054,2.7,3.554,3.554,0,0,1,51,.183,5.063,5.063,0,0,1,53.643-1.23a2.587,2.587,0,0,1-1.135-.945,2.385,2.385,0,0,1-.447-1.37,2.358,2.358,0,0,1,.513-1.538A5.915,5.915,0,0,1,54.1-6.328a4.512,4.512,0,0,1-2.043-1.765,5.192,5.192,0,0,1-.784-2.864,5.134,5.134,0,0,1,1.663-4.087,6.99,6.99,0,0,1,4.739-1.45,11.535,11.535,0,0,1,1.443.1,9.083,9.083,0,0,1,1.135.2ZM53.13,2.52a1.893,1.893,0,0,0,1,1.714,5.515,5.515,0,0,0,2.82.6,8.519,8.519,0,0,0,4.189-.806A2.415,2.415,0,0,0,62.52,1.89a1.6,1.6,0,0,0-.754-1.5A6.058,6.058,0,0,0,58.96-.059H56.353A3.664,3.664,0,0,0,54,.637,2.282,2.282,0,0,0,53.13,2.52Zm1.479-13.477a3.26,3.26,0,0,0,.784,2.344,2.964,2.964,0,0,0,2.249.82q2.988,0,2.988-3.193a3.622,3.622,0,0,0-.74-2.439,2.81,2.81,0,0,0-2.249-.857,2.9,2.9,0,0,0-2.263.85A3.572,3.572,0,0,0,54.609-10.957ZM77.08-16.494a8.287,8.287,0,0,1,1.714.146l-.337,3.208a6.506,6.506,0,0,0-1.523-.176,4.409,4.409,0,0,0-3.347,1.348,4.871,4.871,0,0,0-1.282,3.5V0H68.862V-16.2h2.7l.454,2.856h.176a6.419,6.419,0,0,1,2.1-2.3A5,5,0,0,1,77.08-16.494ZM91.934,0l-.688-2.256h-.117A6.637,6.637,0,0,1,88.77-.242a7.458,7.458,0,0,1-3.047.535A5.156,5.156,0,0,1,81.995-1a4.824,4.824,0,0,1-1.34-3.647,4.283,4.283,0,0,1,1.86-3.779,10.727,10.727,0,0,1,5.669-1.392l2.8-.088v-.864a3.276,3.276,0,0,0-.725-2.322,2.957,2.957,0,0,0-2.249-.769,7.775,7.775,0,0,0-2.388.366,18.019,18.019,0,0,0-2.2.864L82.31-15.088A11.981,11.981,0,0,1,85.2-16.135a13.28,13.28,0,0,1,2.959-.359,7.008,7.008,0,0,1,4.666,1.348,5.276,5.276,0,0,1,1.575,4.233V0ZM86.807-2.344a4.264,4.264,0,0,0,3.01-1.047,3.8,3.8,0,0,0,1.135-2.937V-7.734l-2.08.088a7.117,7.117,0,0,0-3.538.813,2.47,2.47,0,0,0-1.106,2.219,2.165,2.165,0,0,0,.645,1.677A2.769,2.769,0,0,0,86.807-2.344ZM112.852,0h-3.457V-9.99a4.53,4.53,0,0,0-.7-2.776,2.6,2.6,0,0,0-2.2-.916,3.352,3.352,0,0,0-2.922,1.3,7.606,7.606,0,0,0-.93,4.314V0H99.2V-16.2h2.7l.483,2.124h.176a4.488,4.488,0,0,1,1.956-1.787,6.306,6.306,0,0,1,2.82-.63q3.735,0,4.951,2.549h.234a4.939,4.939,0,0,1,2.021-1.875,6.416,6.416,0,0,1,2.988-.674,5.442,5.442,0,0,1,4.226,1.465,6.487,6.487,0,0,1,1.326,4.468V0h-3.442V-9.99a4.5,4.5,0,0,0-.71-2.776,2.616,2.616,0,0,0-2.2-.916,3.417,3.417,0,0,0-2.937,1.252,6.456,6.456,0,0,0-.93,3.845Zm31.787,0H141.2V-13.828q0-2.476.117-3.926-.337.352-.828.776t-3.289,2.7l-1.729-2.183,6.3-4.951h2.871Zm25.43-18.721a5.771,5.771,0,0,0-4.746,2.139,9.142,9.142,0,0,0-1.729,5.9q0,3.94,1.663,5.962A5.872,5.872,0,0,0,170.068-2.7a12.644,12.644,0,0,0,2.637-.271q1.274-.271,2.651-.7v3a16.075,16.075,0,0,1-5.713.952q-4.7,0-7.222-2.849t-2.52-8.152a13.173,13.173,0,0,1,1.223-5.845,8.73,8.73,0,0,1,3.538-3.838,10.7,10.7,0,0,1,5.435-1.333,13.487,13.487,0,0,1,6.064,1.377l-1.26,2.915a18.809,18.809,0,0,0-2.292-.9A8.259,8.259,0,0,0,170.068-18.721ZM186.68.293a7.837,7.837,0,0,1-5.911-2.2,8.369,8.369,0,0,1-2.131-6.072,9.182,9.182,0,0,1,1.978-6.24,6.831,6.831,0,0,1,5.435-2.271,6.676,6.676,0,0,1,5.068,1.948,7.445,7.445,0,0,1,1.86,5.361v1.86h-10.8A5.321,5.321,0,0,0,183.457-3.7a4.439,4.439,0,0,0,3.384,1.267,12.491,12.491,0,0,0,2.673-.271,14.013,14.013,0,0,0,2.659-.9v2.8a10.569,10.569,0,0,1-2.549.85A15.629,15.629,0,0,1,186.68.293Zm-.63-14.18a3.459,3.459,0,0,0-2.629,1.04,4.957,4.957,0,0,0-1.179,3.032h7.354a4.485,4.485,0,0,0-.967-3.04A3.307,3.307,0,0,0,186.05-13.887Zm19.058-2.607a8.287,8.287,0,0,1,1.714.146l-.337,3.208a6.506,6.506,0,0,0-1.523-.176,4.409,4.409,0,0,0-3.347,1.348,4.871,4.871,0,0,0-1.282,3.5V0H196.89V-16.2h2.7l.454,2.856h.176a6.419,6.419,0,0,1,2.1-2.3A5,5,0,0,1,205.107-16.494Zm10.752,14a8.371,8.371,0,0,0,2.52-.4V-.293a6.949,6.949,0,0,1-1.472.417,10.143,10.143,0,0,1-1.868.168q-4.893,0-4.893-5.156v-8.73h-2.212v-1.523l2.373-1.26,1.172-3.428H213.6v3.6h4.614v2.607H213.6v8.672a2.433,2.433,0,0,0,.623,1.838A2.27,2.27,0,0,0,215.859-2.49Zm9.2,2.49h-3.442V-16.2h3.442Zm-3.647-20.493a1.906,1.906,0,0,1,.505-1.421,1.969,1.969,0,0,1,1.443-.5,1.927,1.927,0,0,1,1.414.5,1.906,1.906,0,0,1,.505,1.421,1.871,1.871,0,0,1-.505,1.384,1.911,1.911,0,0,1-1.414.505,1.952,1.952,0,0,1-1.443-.505A1.871,1.871,0,0,1,221.411-20.493Zm16.7,6.9h-3.955V0H230.7V-13.594h-2.666v-1.611L230.7-16.26v-1.055a5.9,5.9,0,0,1,1.348-4.255,5.51,5.51,0,0,1,4.116-1.384,10.985,10.985,0,0,1,3.574.6l-.908,2.607a7.936,7.936,0,0,0-2.432-.41,1.979,1.979,0,0,0-1.707.725,3.653,3.653,0,0,0-.535,2.175V-16.2h3.955ZM244.307,0h-3.442V-16.2h3.442Zm-3.647-20.493a1.906,1.906,0,0,1,.505-1.421,1.969,1.969,0,0,1,1.443-.5,1.927,1.927,0,0,1,1.414.5,1.906,1.906,0,0,1,.505,1.421,1.871,1.871,0,0,1-.505,1.384,1.911,1.911,0,0,1-1.414.505,1.952,1.952,0,0,1-1.443-.505A1.871,1.871,0,0,1,240.659-20.493ZM255.776.293a7.093,7.093,0,0,1-5.588-2.146,8.966,8.966,0,0,1-1.912-6.16,9.017,9.017,0,0,1,2-6.284,7.417,7.417,0,0,1,5.779-2.2,10.83,10.83,0,0,1,4.614.952l-1.04,2.769a10.426,10.426,0,0,0-3.6-.85q-4.2,0-4.2,5.581a6.684,6.684,0,0,0,1.047,4.094,3.626,3.626,0,0,0,3.069,1.37,8.8,8.8,0,0,0,4.351-1.143v3a6.8,6.8,0,0,1-1.97.776A11.822,11.822,0,0,1,255.776.293ZM274.233,0l-.688-2.256h-.117a6.637,6.637,0,0,1-2.358,2.014,7.458,7.458,0,0,1-3.047.535A5.156,5.156,0,0,1,264.294-1a4.824,4.824,0,0,1-1.34-3.647,4.283,4.283,0,0,1,1.86-3.779,10.727,10.727,0,0,1,5.669-1.392l2.8-.088v-.864a3.276,3.276,0,0,0-.725-2.322,2.957,2.957,0,0,0-2.249-.769,7.775,7.775,0,0,0-2.388.366,18.019,18.019,0,0,0-2.2.864l-1.113-2.461a11.981,11.981,0,0,1,2.886-1.047,13.28,13.28,0,0,1,2.959-.359,7.008,7.008,0,0,1,4.666,1.348,5.276,5.276,0,0,1,1.575,4.233V0Zm-5.127-2.344a4.264,4.264,0,0,0,3.01-1.047,3.8,3.8,0,0,0,1.135-2.937V-7.734l-2.08.088a7.117,7.117,0,0,0-3.538.813,2.47,2.47,0,0,0-1.106,2.219,2.165,2.165,0,0,0,.645,1.677A2.769,2.769,0,0,0,269.106-2.344Zm18.428-.146a8.371,8.371,0,0,0,2.52-.4V-.293a6.949,6.949,0,0,1-1.472.417,10.143,10.143,0,0,1-1.868.168q-4.893,0-4.893-5.156v-8.73h-2.212v-1.523l2.373-1.26,1.172-3.428h2.124v3.6h4.614v2.607h-4.614v8.672a2.433,2.433,0,0,0,.623,1.838A2.27,2.27,0,0,0,287.534-2.49ZM300.366.293a7.837,7.837,0,0,1-5.911-2.2,8.369,8.369,0,0,1-2.131-6.072,9.182,9.182,0,0,1,1.978-6.24,6.831,6.831,0,0,1,5.435-2.271,6.676,6.676,0,0,1,5.068,1.948,7.445,7.445,0,0,1,1.86,5.361v1.86h-10.8A5.321,5.321,0,0,0,297.144-3.7a4.439,4.439,0,0,0,3.384,1.267A12.491,12.491,0,0,0,303.2-2.7a14.013,14.013,0,0,0,2.659-.9v2.8a10.569,10.569,0,0,1-2.549.85A15.629,15.629,0,0,1,300.366.293Zm-.63-14.18a3.459,3.459,0,0,0-2.629,1.04,4.957,4.957,0,0,0-1.179,3.032h7.354a4.485,4.485,0,0,0-.967-3.04A3.307,3.307,0,0,0,299.736-13.887ZM321.46-4.614a4.239,4.239,0,0,1-1.729,3.64A8.277,8.277,0,0,1,314.78.293a11.7,11.7,0,0,1-5.2-.981V-3.662A12.767,12.767,0,0,0,314.9-2.344q3.179,0,3.179-1.919a1.52,1.52,0,0,0-.352-1.025,4.161,4.161,0,0,0-1.157-.85,19.914,19.914,0,0,0-2.241-1A10.367,10.367,0,0,1,310.54-9.3a4.011,4.011,0,0,1-.989-2.812,3.694,3.694,0,0,1,1.677-3.23,7.959,7.959,0,0,1,4.563-1.15,12.924,12.924,0,0,1,5.405,1.157l-1.113,2.593a12.022,12.022,0,0,0-4.409-1.084q-2.725,0-2.725,1.553a1.562,1.562,0,0,0,.71,1.289,15.624,15.624,0,0,0,3.1,1.45,14.162,14.162,0,0,1,2.915,1.421,4.246,4.246,0,0,1,1.348,1.487A4.3,4.3,0,0,1,321.46-4.614Z" transform="translate(291 233)" fill="#333"/><g transform="matrix(1, 0, 0, 1, 0, 0)" filter="url(#e)"><rect width="118.6" height="50" rx="4" transform="translate(135.5 195.5)" fill="url(#a)"/></g><path d="M-16.949-11.422h3.391a6.435,6.435,0,0,1,3.41.688A2.407,2.407,0,0,1-9.1-8.562,2.632,2.632,0,0,1-9.613-6.9a2.306,2.306,0,0,1-1.484.836v.078a2.947,2.947,0,0,1,1.77.895,2.706,2.706,0,0,1,.566,1.809A2.932,2.932,0,0,1-9.836-.871,4.621,4.621,0,0,1-12.824,0h-4.125ZM-15.082-6.7h1.8a3.077,3.077,0,0,0,1.711-.371,1.421,1.421,0,0,0,.539-1.262A1.264,1.264,0,0,0-11.617-9.5a3.635,3.635,0,0,0-1.848-.359h-1.617Zm0,1.516V-1.57H-13.1a2.921,2.921,0,0,0,1.77-.449,1.658,1.658,0,0,0,.6-1.418,1.506,1.506,0,0,0-.609-1.32,3.229,3.229,0,0,0-1.852-.43ZM-1.176,0l-.367-1.2h-.062A3.54,3.54,0,0,1-2.863-.129,3.978,3.978,0,0,1-4.488.156,2.75,2.75,0,0,1-6.477-.531a2.573,2.573,0,0,1-.715-1.945A2.284,2.284,0,0,1-6.2-4.492a5.721,5.721,0,0,1,3.023-.742l1.492-.047v-.461A1.747,1.747,0,0,0-2.07-6.98a1.577,1.577,0,0,0-1.2-.41,4.147,4.147,0,0,0-1.273.2,9.61,9.61,0,0,0-1.172.461l-.594-1.312A6.39,6.39,0,0,1-4.77-8.605,7.083,7.083,0,0,1-3.191-8.8,3.738,3.738,0,0,1-.7-8.078,2.814,2.814,0,0,1,.137-5.82V0ZM-3.91-1.25A2.274,2.274,0,0,0-2.3-1.809,2.025,2.025,0,0,0-1.7-3.375v-.75l-1.109.047A3.8,3.8,0,0,0-4.7-3.645a1.317,1.317,0,0,0-.59,1.184,1.155,1.155,0,0,0,.344.895A1.477,1.477,0,0,0-3.91-1.25ZM6.184.156A3.783,3.783,0,0,1,3.2-.988a4.782,4.782,0,0,1-1.02-3.285A4.809,4.809,0,0,1,3.25-7.625,3.956,3.956,0,0,1,6.332-8.8a5.776,5.776,0,0,1,2.461.508L8.238-6.812a5.56,5.56,0,0,0-1.922-.453q-2.242,0-2.242,2.977a3.565,3.565,0,0,0,.559,2.184,1.934,1.934,0,0,0,1.637.73,4.7,4.7,0,0,0,2.32-.609v1.6A3.626,3.626,0,0,1,7.539.031,6.305,6.305,0,0,1,6.184.156Zm6.211-4.719,1.039-1.3,2.609-2.781H18.16L14.684-4.93,18.379,0H16.223L13.449-3.789l-1.008.828V0h-1.82V-12.156h1.82v5.93l-.094,1.664Z" transform="translate(208 227)" fill="#515151"/><g transform="translate(146.5 203.5)"><path d="M27.809,18H7.5" transform="translate(0 -0.346)" fill="none" stroke="#0789b9" stroke-linecap="round" stroke-linejoin="round" stroke-width="3"/><path d="M17.654,27.809,7.5,17.654,17.654,7.5" transform="translate(0 0)" fill="none" stroke="#0789b9" stroke-linecap="round" stroke-linejoin="round" stroke-width="3"/></g><path d="M-57.828-8.094a3.2,3.2,0,0,1-1.184,2.668,5.362,5.362,0,0,1-3.387.934h-1.344V0H-65.07V-11.422h2.961Q-57.828-11.422-57.828-8.094Zm-5.914,2.461h1.2a4.442,4.442,0,0,0,2.555-.57A2.1,2.1,0,0,0-59.2-8.031a1.971,1.971,0,0,0-.742-1.687,3.877,3.877,0,0,0-2.312-.555h-1.484Zm12.016-3.086a5.075,5.075,0,0,1,1.023.094l-.18,1.2a4.418,4.418,0,0,0-.937-.117A2.282,2.282,0,0,0-53.6-6.7a3.077,3.077,0,0,0-.738,2.1V0h-1.3V-8.562h1.07l.148,1.586h.063A3.764,3.764,0,0,1-53.2-8.266,2.585,2.585,0,0,1-51.727-8.719Zm10.016,4.43a4.724,4.724,0,0,1-1.055,3.27A3.714,3.714,0,0,1-45.68.156a3.86,3.86,0,0,1-2.039-.539A3.558,3.558,0,0,1-49.094-1.93a5.391,5.391,0,0,1-.484-2.359,4.716,4.716,0,0,1,1.047-3.262,3.7,3.7,0,0,1,2.906-1.168,3.622,3.622,0,0,1,2.855,1.2A4.7,4.7,0,0,1-41.711-4.289Zm-6.523,0a4.064,4.064,0,0,0,.656,2.5,2.278,2.278,0,0,0,1.93.859,2.293,2.293,0,0,0,1.934-.855,4.043,4.043,0,0,0,.66-2.5,3.978,3.978,0,0,0-.66-2.48,2.32,2.32,0,0,0-1.949-.848,2.283,2.283,0,0,0-1.922.836A4.023,4.023,0,0,0-48.234-4.289Zm15.8-4.273v.82l-1.586.188a2.726,2.726,0,0,1,.391.715,2.727,2.727,0,0,1,.172,1,2.531,2.531,0,0,1-.859,2.008,3.467,3.467,0,0,1-2.359.75,3.929,3.929,0,0,1-.719-.062,1.276,1.276,0,0,0-.828,1.1.56.56,0,0,0,.289.52,2.112,2.112,0,0,0,.992.168h1.516a3.394,3.394,0,0,1,2.137.586,2.036,2.036,0,0,1,.746,1.7A2.431,2.431,0,0,1-33.68,3.1a6.1,6.1,0,0,1-3.328.746,4.547,4.547,0,0,1-2.59-.625,2.018,2.018,0,0,1-.91-1.766A1.983,1.983,0,0,1-40.008.1,2.546,2.546,0,0,1-38.6-.672a1.357,1.357,0,0,1-.551-.461,1.22,1.22,0,0,1-.223-.727,1.379,1.379,0,0,1,.25-.82,2.628,2.628,0,0,1,.789-.68,2.313,2.313,0,0,1-1.082-.93,2.732,2.732,0,0,1-.418-1.5,2.771,2.771,0,0,1,.844-2.168A3.445,3.445,0,0,1-36.6-8.719a4.347,4.347,0,0,1,1.211.156Zm-6.828,10a1.162,1.162,0,0,0,.586,1.055,3.234,3.234,0,0,0,1.68.359,4.687,4.687,0,0,0,2.418-.488,1.5,1.5,0,0,0,.785-1.324,1.048,1.048,0,0,0-.43-.965A3.337,3.337,0,0,0-35.836-.2h-1.555a2.048,2.048,0,0,0-1.375.422A1.507,1.507,0,0,0-39.258,1.438Zm.7-7.258a1.743,1.743,0,0,0,.508,1.359A2.028,2.028,0,0,0-36.633-4a1.654,1.654,0,0,0,1.9-1.844,1.7,1.7,0,0,0-1.922-1.93,1.9,1.9,0,0,0-1.406.492A1.982,1.982,0,0,0-38.555-5.82Zm11.789-2.9a5.075,5.075,0,0,1,1.023.094l-.18,1.2a4.418,4.418,0,0,0-.937-.117,2.282,2.282,0,0,0-1.777.844,3.077,3.077,0,0,0-.738,2.1V0h-1.3V-8.562h1.07l.148,1.586h.063a3.764,3.764,0,0,1,1.148-1.289A2.585,2.585,0,0,1-26.766-8.719ZM-18.875,0l-.258-1.219H-19.2a3.6,3.6,0,0,1-1.277,1.09,3.893,3.893,0,0,1-1.59.285,2.86,2.86,0,0,1-2-.656,2.394,2.394,0,0,1-.723-1.867q0-2.594,4.148-2.719l1.453-.047v-.531a2.171,2.171,0,0,0-.434-1.488A1.783,1.783,0,0,0-21-7.633a5.65,5.65,0,0,0-2.422.656l-.4-.992a6.094,6.094,0,0,1,1.387-.539,6.006,6.006,0,0,1,1.512-.2,3.262,3.262,0,0,1,2.27.68,2.837,2.837,0,0,1,.738,2.18V0ZM-21.8-.914a2.632,2.632,0,0,0,1.9-.664,2.457,2.457,0,0,0,.691-1.859v-.773l-1.3.055a4.717,4.717,0,0,0-2.23.48,1.449,1.449,0,0,0-.684,1.324A1.336,1.336,0,0,0-23-1.281,1.767,1.767,0,0,0-21.8-.914ZM-4.328,0V-5.57a2.312,2.312,0,0,0-.437-1.535,1.692,1.692,0,0,0-1.359-.512,2.195,2.195,0,0,0-1.789.7,3.3,3.3,0,0,0-.578,2.141V0h-1.3V-5.57a2.312,2.312,0,0,0-.437-1.535,1.7,1.7,0,0,0-1.367-.512,2.118,2.118,0,0,0-1.785.73,3.953,3.953,0,0,0-.566,2.395V0h-1.3V-8.562h1.055l.211,1.172h.063a2.549,2.549,0,0,1,1.035-.977,3.163,3.163,0,0,1,1.5-.352A2.544,2.544,0,0,1-8.758-7.266H-8.7A2.73,2.73,0,0,1-7.586-8.328,3.442,3.442,0,0,1-5.93-8.719a2.9,2.9,0,0,1,2.176.746,3.338,3.338,0,0,1,.723,2.387V0ZM8.008,0H6.742V-8.141q0-1.016.063-1.922-.164.164-.367.344T4.578-8.2l-.687-.891,3.023-2.336H8.008ZM26.414-5.82A5.767,5.767,0,0,1,24.879-1.5,6.074,6.074,0,0,1,20.461,0H17.3V-11.422h3.5a5.6,5.6,0,0,1,4.141,1.477A5.576,5.576,0,0,1,26.414-5.82Zm-1.406.047a4.6,4.6,0,0,0-1.121-3.367,4.493,4.493,0,0,0-3.332-1.133h-1.93v9.125h1.617a4.917,4.917,0,0,0,3.57-1.168A4.624,4.624,0,0,0,25.008-5.773ZM32.383.156a3.934,3.934,0,0,1-3-1.156,4.476,4.476,0,0,1-1.1-3.211A4.964,4.964,0,0,1,29.309-7.5a3.387,3.387,0,0,1,2.738-1.219A3.229,3.229,0,0,1,34.594-7.66a4.057,4.057,0,0,1,.938,2.793v.82h-5.9a3.394,3.394,0,0,0,.762,2.289,2.635,2.635,0,0,0,2.035.781,6.9,6.9,0,0,0,2.734-.578V-.4a6.863,6.863,0,0,1-1.3.426A7.31,7.31,0,0,1,32.383.156Zm-.352-7.789a2.118,2.118,0,0,0-1.645.672A3.1,3.1,0,0,0,29.664-5.1h4.477a2.851,2.851,0,0,0-.547-1.879A1.925,1.925,0,0,0,32.031-7.633ZM40.508-.914a4.236,4.236,0,0,0,.664-.051,4.3,4.3,0,0,0,.508-.105v.992a2.371,2.371,0,0,1-.621.168,4.664,4.664,0,0,1-.738.066q-2.484,0-2.484-2.617V-7.555H36.609V-8.18l1.227-.539.547-1.828h.75v1.984h2.484v1.008H39.133v5.039A1.734,1.734,0,0,0,39.5-1.328,1.278,1.278,0,0,0,40.508-.914ZM48.656,0,48.4-1.219h-.062a3.6,3.6,0,0,1-1.277,1.09,3.893,3.893,0,0,1-1.59.285,2.86,2.86,0,0,1-2-.656,2.394,2.394,0,0,1-.723-1.867q0-2.594,4.148-2.719l1.453-.047v-.531a2.171,2.171,0,0,0-.434-1.488,1.783,1.783,0,0,0-1.387-.48,5.65,5.65,0,0,0-2.422.656l-.4-.992A6.094,6.094,0,0,1,45.1-8.508a6.006,6.006,0,0,1,1.512-.2,3.262,3.262,0,0,1,2.27.68,2.837,2.837,0,0,1,.738,2.18V0Zm-2.93-.914a2.632,2.632,0,0,0,1.9-.664,2.457,2.457,0,0,0,.691-1.859v-.773l-1.3.055a4.717,4.717,0,0,0-2.23.48,1.449,1.449,0,0,0-.684,1.324,1.336,1.336,0,0,0,.426,1.07A1.767,1.767,0,0,0,45.727-.914ZM53.586,0h-1.3V-8.562h1.3ZM52.18-10.883a.861.861,0,0,1,.219-.652.764.764,0,0,1,.547-.207.764.764,0,0,1,.539.211.846.846,0,0,1,.227.648.859.859,0,0,1-.227.652.757.757,0,0,1-.539.215.749.749,0,0,1-.547-.215A.877.877,0,0,1,52.18-10.883ZM57.633,0h-1.3V-12.156h1.3Zm8.273-2.336a2.145,2.145,0,0,1-.891,1.844,4.186,4.186,0,0,1-2.5.648,5.436,5.436,0,0,1-2.656-.539v-1.2a6.424,6.424,0,0,0,1.324.492,5.53,5.53,0,0,0,1.363.18,3.092,3.092,0,0,0,1.563-.324,1.072,1.072,0,0,0,.547-.988,1.073,1.073,0,0,0-.434-.855,6.82,6.82,0,0,0-1.691-.84,9.172,9.172,0,0,1-1.7-.777,2.321,2.321,0,0,1-.75-.754,1.966,1.966,0,0,1-.246-1.008,1.921,1.921,0,0,1,.852-1.652,3.968,3.968,0,0,1,2.336-.605,6.835,6.835,0,0,1,2.7.563L65.266-7.1a6.2,6.2,0,0,0-2.336-.531,2.688,2.688,0,0,0-1.391.289.894.894,0,0,0-.469.8.971.971,0,0,0,.176.586,1.735,1.735,0,0,0,.566.461,12.658,12.658,0,0,0,1.5.633A5.6,5.6,0,0,1,65.371-3.75,1.97,1.97,0,0,1,65.906-2.336Z" transform="translate(712.848 145.465)" fill="#333"/><g transform="translate(623 134.586)"><path d="M7.5,17.913l5.206-5.206L7.5,7.5" transform="translate(-0.2 -7.5)" fill="none" stroke="#333" stroke-linecap="round" stroke-linejoin="round" stroke-width="1.5"/></g><path d="M-63.34-10.4a3.735,3.735,0,0,0-2.973,1.254A5.058,5.058,0,0,0-67.4-5.711a5.159,5.159,0,0,0,1.051,3.465,3.735,3.735,0,0,0,3,1.223,10.23,10.23,0,0,0,2.727-.43V-.289a8.4,8.4,0,0,1-2.93.445,4.956,4.956,0,0,1-3.895-1.531,6.306,6.306,0,0,1-1.371-4.352,6.868,6.868,0,0,1,.66-3.094,4.739,4.739,0,0,1,1.906-2.047,5.77,5.77,0,0,1,2.934-.719,7.078,7.078,0,0,1,3.141.656l-.562,1.141A6.053,6.053,0,0,0-63.34-10.4Zm12.4,6.109A4.724,4.724,0,0,1-52-1.02,3.714,3.714,0,0,1-54.91.156a3.86,3.86,0,0,1-2.039-.539A3.558,3.558,0,0,1-58.324-1.93a5.391,5.391,0,0,1-.484-2.359,4.716,4.716,0,0,1,1.047-3.262,3.7,3.7,0,0,1,2.906-1.168A3.622,3.622,0,0,1-52-7.523,4.7,4.7,0,0,1-50.941-4.289Zm-6.523,0a4.064,4.064,0,0,0,.656,2.5,2.278,2.278,0,0,0,1.93.859,2.293,2.293,0,0,0,1.934-.855,4.043,4.043,0,0,0,.66-2.5,3.978,3.978,0,0,0-.66-2.48,2.32,2.32,0,0,0-1.949-.848,2.283,2.283,0,0,0-1.922.836A4.023,4.023,0,0,0-57.465-4.289ZM-37.754,0V-5.57a2.312,2.312,0,0,0-.437-1.535,1.692,1.692,0,0,0-1.359-.512,2.195,2.195,0,0,0-1.789.7,3.3,3.3,0,0,0-.578,2.141V0h-1.3V-5.57a2.312,2.312,0,0,0-.437-1.535,1.7,1.7,0,0,0-1.367-.512,2.118,2.118,0,0,0-1.785.73,3.953,3.953,0,0,0-.566,2.395V0h-1.3V-8.562h1.055l.211,1.172h.063A2.549,2.549,0,0,1-46.3-8.367a3.163,3.163,0,0,1,1.5-.352,2.544,2.544,0,0,1,2.625,1.453h.063a2.73,2.73,0,0,1,1.109-1.062,3.442,3.442,0,0,1,1.656-.391,2.9,2.9,0,0,1,2.176.746,3.338,3.338,0,0,1,.723,2.387V0ZM-29.8.156a3.706,3.706,0,0,1-1.527-.309,2.872,2.872,0,0,1-1.16-.949h-.094A11.485,11.485,0,0,1-32.488.32V3.844h-1.3V-8.562h1.055l.18,1.172h.063a3.012,3.012,0,0,1,1.164-1.016A3.539,3.539,0,0,1-29.8-8.719a3.165,3.165,0,0,1,2.629,1.164,5.125,5.125,0,0,1,.926,3.266,5.1,5.1,0,0,1-.941,3.277A3.17,3.17,0,0,1-29.8.156Zm-.187-7.773a2.3,2.3,0,0,0-1.9.727,3.739,3.739,0,0,0-.6,2.313v.289a4.285,4.285,0,0,0,.6,2.582,2.288,2.288,0,0,0,1.93.777,2.007,2.007,0,0,0,1.738-.9A4.26,4.26,0,0,0-27.59-4.3a4.1,4.1,0,0,0-.629-2.457A2.069,2.069,0,0,0-29.988-7.617ZM-18.715,0l-.258-1.219h-.062a3.6,3.6,0,0,1-1.277,1.09A3.893,3.893,0,0,1-21.9.156a2.86,2.86,0,0,1-2-.656,2.394,2.394,0,0,1-.723-1.867q0-2.594,4.148-2.719l1.453-.047v-.531a2.171,2.171,0,0,0-.434-1.488,1.783,1.783,0,0,0-1.387-.48,5.65,5.65,0,0,0-2.422.656l-.4-.992a6.094,6.094,0,0,1,1.387-.539,6.006,6.006,0,0,1,1.512-.2,3.262,3.262,0,0,1,2.27.68,2.837,2.837,0,0,1,.738,2.18V0Zm-2.93-.914a2.632,2.632,0,0,0,1.9-.664,2.457,2.457,0,0,0,.691-1.859v-.773l-1.3.055a4.717,4.717,0,0,0-2.23.48,1.449,1.449,0,0,0-.684,1.324,1.336,1.336,0,0,0,.426,1.07A1.767,1.767,0,0,0-21.645-.914ZM-9.223,0V-5.539A2.235,2.235,0,0,0-9.7-7.1a1.941,1.941,0,0,0-1.492-.516,2.461,2.461,0,0,0-1.969.727,3.668,3.668,0,0,0-.625,2.4V0h-1.3V-8.562h1.055l.211,1.172h.063a2.648,2.648,0,0,1,1.117-.98,3.63,3.63,0,0,1,1.6-.348,3.252,3.252,0,0,1,2.328.746,3.175,3.175,0,0,1,.781,2.387V0Zm2.6-8.562H-5.23L-3.355-3.68A18.573,18.573,0,0,1-2.59-1.266h.063q.1-.4.426-1.363T.02-8.562H1.41l-3.68,9.75A4.864,4.864,0,0,1-3.547,3.238a2.716,2.716,0,0,1-1.793.605,5.217,5.217,0,0,1-1.172-.133V2.672a4.521,4.521,0,0,0,.961.094,1.981,1.981,0,0,0,1.906-1.5L-3.168.047ZM11.168,0H9.9V-8.141q0-1.016.063-1.922Q9.8-9.9,9.6-9.719T7.738-8.2l-.687-.891,3.023-2.336h1.094ZM29.574-5.82A5.767,5.767,0,0,1,28.039-1.5,6.074,6.074,0,0,1,23.621,0H20.457V-11.422h3.5A5.6,5.6,0,0,1,28.1-9.945,5.576,5.576,0,0,1,29.574-5.82Zm-1.406.047a4.6,4.6,0,0,0-1.121-3.367,4.493,4.493,0,0,0-3.332-1.133h-1.93v9.125H23.4a4.917,4.917,0,0,0,3.57-1.168A4.624,4.624,0,0,0,28.168-5.773ZM35.543.156a3.934,3.934,0,0,1-3-1.156,4.476,4.476,0,0,1-1.1-3.211A4.964,4.964,0,0,1,32.469-7.5a3.387,3.387,0,0,1,2.738-1.219A3.229,3.229,0,0,1,37.754-7.66a4.057,4.057,0,0,1,.938,2.793v.82h-5.9a3.394,3.394,0,0,0,.762,2.289,2.634,2.634,0,0,0,2.035.781,6.9,6.9,0,0,0,2.734-.578V-.4a6.863,6.863,0,0,1-1.3.426A7.31,7.31,0,0,1,35.543.156Zm-.352-7.789a2.118,2.118,0,0,0-1.645.672A3.1,3.1,0,0,0,32.824-5.1H37.3a2.851,2.851,0,0,0-.547-1.879A1.925,1.925,0,0,0,35.191-7.633ZM43.668-.914a4.236,4.236,0,0,0,.664-.051,4.3,4.3,0,0,0,.508-.105v.992a2.371,2.371,0,0,1-.621.168,4.664,4.664,0,0,1-.738.066Q41,.156,41-2.461V-7.555H39.77V-8.18L41-8.719l.547-1.828h.75v1.984h2.484v1.008H42.293v5.039a1.734,1.734,0,0,0,.367,1.188A1.278,1.278,0,0,0,43.668-.914ZM51.816,0l-.258-1.219H51.5a3.6,3.6,0,0,1-1.277,1.09,3.893,3.893,0,0,1-1.59.285,2.86,2.86,0,0,1-2-.656,2.394,2.394,0,0,1-.723-1.867q0-2.594,4.148-2.719l1.453-.047v-.531a2.171,2.171,0,0,0-.434-1.488,1.783,1.783,0,0,0-1.387-.48,5.65,5.65,0,0,0-2.422.656l-.4-.992a6.094,6.094,0,0,1,1.387-.539,6.006,6.006,0,0,1,1.512-.2,3.262,3.262,0,0,1,2.27.68,2.837,2.837,0,0,1,.738,2.18V0Zm-2.93-.914a2.632,2.632,0,0,0,1.9-.664,2.457,2.457,0,0,0,.691-1.859v-.773l-1.3.055a4.717,4.717,0,0,0-2.23.48,1.449,1.449,0,0,0-.684,1.324,1.336,1.336,0,0,0,.426,1.07A1.767,1.767,0,0,0,48.887-.914ZM56.746,0h-1.3V-8.562h1.3ZM55.34-10.883a.861.861,0,0,1,.219-.652.764.764,0,0,1,.547-.207.764.764,0,0,1,.539.211.846.846,0,0,1,.227.648.859.859,0,0,1-.227.652.757.757,0,0,1-.539.215.749.749,0,0,1-.547-.215A.877.877,0,0,1,55.34-10.883ZM60.793,0H59.5V-12.156h1.3Zm8.273-2.336a2.145,2.145,0,0,1-.891,1.844,4.186,4.186,0,0,1-2.5.648A5.436,5.436,0,0,1,63.02-.383v-1.2a6.424,6.424,0,0,0,1.324.492,5.53,5.53,0,0,0,1.363.18,3.092,3.092,0,0,0,1.563-.324,1.072,1.072,0,0,0,.547-.988,1.073,1.073,0,0,0-.434-.855,6.82,6.82,0,0,0-1.691-.84,9.172,9.172,0,0,1-1.7-.777,2.321,2.321,0,0,1-.75-.754A1.966,1.966,0,0,1,63-6.461a1.921,1.921,0,0,1,.852-1.652,3.968,3.968,0,0,1,2.336-.605,6.835,6.835,0,0,1,2.7.563L68.426-7.1a6.2,6.2,0,0,0-2.336-.531,2.687,2.687,0,0,0-1.391.289.894.894,0,0,0-.469.8.971.971,0,0,0,.176.586,1.735,1.735,0,0,0,.566.461,12.657,12.657,0,0,0,1.5.633A5.6,5.6,0,0,1,68.531-3.75,1.97,1.97,0,0,1,69.066-2.336Z" transform="translate(547.848 145.465)" fill="#333"/><g transform="translate(455 134.586)"><path d="M7.5,17.913l5.206-5.206L7.5,7.5" transform="translate(-0.2 -7.5)" fill="none" stroke="#333" stroke-linecap="round" stroke-linejoin="round" stroke-width="1.5"/></g><path d="M-80.8-10.4A3.735,3.735,0,0,0-83.77-9.145a5.058,5.058,0,0,0-1.09,3.434,5.159,5.159,0,0,0,1.051,3.465,3.735,3.735,0,0,0,3,1.223,10.23,10.23,0,0,0,2.727-.43V-.289a8.4,8.4,0,0,1-2.93.445A4.956,4.956,0,0,1-84.91-1.375a6.306,6.306,0,0,1-1.371-4.352,6.868,6.868,0,0,1,.66-3.094,4.739,4.739,0,0,1,1.906-2.047,5.77,5.77,0,0,1,2.934-.719,7.078,7.078,0,0,1,3.141.656L-78.2-9.789A6.053,6.053,0,0,0-80.8-10.4Zm12.4,6.109a4.724,4.724,0,0,1-1.055,3.27A3.714,3.714,0,0,1-72.367.156a3.86,3.86,0,0,1-2.039-.539A3.558,3.558,0,0,1-75.781-1.93a5.391,5.391,0,0,1-.484-2.359,4.716,4.716,0,0,1,1.047-3.262,3.7,3.7,0,0,1,2.906-1.168,3.622,3.622,0,0,1,2.855,1.2A4.7,4.7,0,0,1-68.4-4.289Zm-6.523,0a4.064,4.064,0,0,0,.656,2.5,2.278,2.278,0,0,0,1.93.859A2.293,2.293,0,0,0-70.4-1.785a4.043,4.043,0,0,0,.66-2.5,3.978,3.978,0,0,0-.66-2.48,2.32,2.32,0,0,0-1.949-.848,2.283,2.283,0,0,0-1.922.836A4.023,4.023,0,0,0-74.922-4.289ZM-55.211,0V-5.57a2.312,2.312,0,0,0-.437-1.535,1.692,1.692,0,0,0-1.359-.512,2.195,2.195,0,0,0-1.789.7,3.3,3.3,0,0,0-.578,2.141V0h-1.3V-5.57a2.312,2.312,0,0,0-.437-1.535,1.7,1.7,0,0,0-1.367-.512,2.118,2.118,0,0,0-1.785.73,3.953,3.953,0,0,0-.566,2.395V0h-1.3V-8.562h1.055l.211,1.172h.063a2.549,2.549,0,0,1,1.035-.977,3.163,3.163,0,0,1,1.5-.352,2.544,2.544,0,0,1,2.625,1.453h.063a2.73,2.73,0,0,1,1.109-1.062,3.442,3.442,0,0,1,1.656-.391,2.9,2.9,0,0,1,2.176.746,3.338,3.338,0,0,1,.723,2.387V0Zm7.953.156a3.706,3.706,0,0,1-1.527-.309,2.872,2.872,0,0,1-1.16-.949h-.094A11.485,11.485,0,0,1-49.945.32V3.844h-1.3V-8.562h1.055l.18,1.172h.063a3.012,3.012,0,0,1,1.164-1.016,3.539,3.539,0,0,1,1.523-.312,3.165,3.165,0,0,1,2.629,1.164A5.125,5.125,0,0,1-43.7-4.289a5.1,5.1,0,0,1-.941,3.277A3.17,3.17,0,0,1-47.258.156Zm-.187-7.773a2.3,2.3,0,0,0-1.9.727,3.739,3.739,0,0,0-.6,2.313v.289a4.285,4.285,0,0,0,.6,2.582,2.288,2.288,0,0,0,1.93.777,2.007,2.007,0,0,0,1.738-.9A4.26,4.26,0,0,0-45.047-4.3a4.1,4.1,0,0,0-.629-2.457A2.069,2.069,0,0,0-47.445-7.617ZM-36.172,0l-.258-1.219h-.062A3.6,3.6,0,0,1-37.77-.129a3.893,3.893,0,0,1-1.59.285,2.86,2.86,0,0,1-2-.656,2.394,2.394,0,0,1-.723-1.867q0-2.594,4.148-2.719l1.453-.047v-.531a2.171,2.171,0,0,0-.434-1.488,1.783,1.783,0,0,0-1.387-.48,5.65,5.65,0,0,0-2.422.656l-.4-.992a6.094,6.094,0,0,1,1.387-.539,6.006,6.006,0,0,1,1.512-.2,3.262,3.262,0,0,1,2.27.68,2.837,2.837,0,0,1,.738,2.18V0ZM-39.1-.914a2.632,2.632,0,0,0,1.9-.664,2.457,2.457,0,0,0,.691-1.859v-.773l-1.3.055a4.717,4.717,0,0,0-2.23.48,1.449,1.449,0,0,0-.684,1.324,1.336,1.336,0,0,0,.426,1.07A1.767,1.767,0,0,0-39.1-.914ZM-26.68,0V-5.539A2.235,2.235,0,0,0-27.156-7.1a1.941,1.941,0,0,0-1.492-.516,2.461,2.461,0,0,0-1.969.727,3.668,3.668,0,0,0-.625,2.4V0h-1.3V-8.562h1.055l.211,1.172h.063a2.648,2.648,0,0,1,1.117-.98,3.63,3.63,0,0,1,1.6-.348,3.252,3.252,0,0,1,2.328.746,3.175,3.175,0,0,1,.781,2.387V0Zm2.6-8.562h1.391l1.875,4.883a18.573,18.573,0,0,1,.766,2.414h.063q.1-.4.426-1.363t2.121-5.934h1.391l-3.68,9.75A4.864,4.864,0,0,1-21,3.238a2.716,2.716,0,0,1-1.793.605,5.217,5.217,0,0,1-1.172-.133V2.672a4.521,4.521,0,0,0,.961.094,1.981,1.981,0,0,0,1.906-1.5l.477-1.219ZM-5.25,0-9.125-10.125h-.062q.109,1.2.109,2.859V0H-10.3V-11.422h2L-4.687-2h.063l3.648-9.422H1.008V0H-.32V-7.359q0-1.266.109-2.75H-.273L-4.18,0ZM9.211,0,8.953-1.219H8.891A3.6,3.6,0,0,1,7.613-.129a3.893,3.893,0,0,1-1.59.285,2.86,2.86,0,0,1-2-.656A2.394,2.394,0,0,1,3.3-2.367q0-2.594,4.148-2.719l1.453-.047v-.531a2.171,2.171,0,0,0-.434-1.488,1.783,1.783,0,0,0-1.387-.48,5.65,5.65,0,0,0-2.422.656l-.4-.992a6.094,6.094,0,0,1,1.387-.539,6.006,6.006,0,0,1,1.512-.2,3.262,3.262,0,0,1,2.27.68,2.837,2.837,0,0,1,.738,2.18V0ZM6.281-.914a2.632,2.632,0,0,0,1.9-.664,2.457,2.457,0,0,0,.691-1.859v-.773l-1.3.055a4.717,4.717,0,0,0-2.23.48,1.449,1.449,0,0,0-.684,1.324,1.336,1.336,0,0,0,.426,1.07A1.767,1.767,0,0,0,6.281-.914ZM18.7,0V-5.539A2.235,2.235,0,0,0,18.227-7.1a1.941,1.941,0,0,0-1.492-.516,2.461,2.461,0,0,0-1.969.727,3.668,3.668,0,0,0-.625,2.4V0h-1.3V-8.562H13.9l.211,1.172h.063a2.648,2.648,0,0,1,1.117-.98,3.63,3.63,0,0,1,1.6-.348,3.252,3.252,0,0,1,2.328.746A3.175,3.175,0,0,1,20-5.586V0ZM27.93,0l-.258-1.219h-.062a3.6,3.6,0,0,1-1.277,1.09,3.893,3.893,0,0,1-1.59.285,2.86,2.86,0,0,1-2-.656,2.394,2.394,0,0,1-.723-1.867q0-2.594,4.148-2.719l1.453-.047v-.531a2.171,2.171,0,0,0-.434-1.488,1.783,1.783,0,0,0-1.387-.48,5.65,5.65,0,0,0-2.422.656l-.4-.992a6.094,6.094,0,0,1,1.387-.539,6.006,6.006,0,0,1,1.512-.2,3.262,3.262,0,0,1,2.27.68,2.837,2.837,0,0,1,.738,2.18V0ZM25-.914a2.632,2.632,0,0,0,1.9-.664,2.457,2.457,0,0,0,.691-1.859v-.773l-1.3.055a4.717,4.717,0,0,0-2.23.48,1.449,1.449,0,0,0-.684,1.324,1.336,1.336,0,0,0,.426,1.07A1.767,1.767,0,0,0,25-.914ZM38.57-8.562v.82l-1.586.188a2.726,2.726,0,0,1,.391.715,2.727,2.727,0,0,1,.172,1,2.531,2.531,0,0,1-.859,2.008,3.467,3.467,0,0,1-2.359.75,3.929,3.929,0,0,1-.719-.062,1.276,1.276,0,0,0-.828,1.1.56.56,0,0,0,.289.52,2.112,2.112,0,0,0,.992.168h1.516a3.394,3.394,0,0,1,2.137.586,2.036,2.036,0,0,1,.746,1.7A2.431,2.431,0,0,1,37.32,3.1a6.1,6.1,0,0,1-3.328.746,4.547,4.547,0,0,1-2.59-.625,2.018,2.018,0,0,1-.91-1.766A1.983,1.983,0,0,1,30.992.1,2.546,2.546,0,0,1,32.4-.672a1.357,1.357,0,0,1-.551-.461,1.22,1.22,0,0,1-.223-.727,1.379,1.379,0,0,1,.25-.82,2.628,2.628,0,0,1,.789-.68,2.313,2.313,0,0,1-1.082-.93,2.732,2.732,0,0,1-.418-1.5,2.771,2.771,0,0,1,.844-2.168A3.445,3.445,0,0,1,34.4-8.719a4.347,4.347,0,0,1,1.211.156Zm-6.828,10a1.162,1.162,0,0,0,.586,1.055,3.234,3.234,0,0,0,1.68.359,4.687,4.687,0,0,0,2.418-.488,1.5,1.5,0,0,0,.785-1.324,1.048,1.048,0,0,0-.43-.965A3.337,3.337,0,0,0,35.164-.2H33.609a2.048,2.048,0,0,0-1.375.422A1.507,1.507,0,0,0,31.742,1.438Zm.7-7.258a1.743,1.743,0,0,0,.508,1.359A2.028,2.028,0,0,0,34.367-4a1.654,1.654,0,0,0,1.9-1.844,1.7,1.7,0,0,0-1.922-1.93,1.9,1.9,0,0,0-1.406.492A1.982,1.982,0,0,0,32.445-5.82ZM43.945.156a3.934,3.934,0,0,1-3-1.156,4.476,4.476,0,0,1-1.1-3.211A4.964,4.964,0,0,1,40.871-7.5a3.387,3.387,0,0,1,2.738-1.219A3.229,3.229,0,0,1,46.156-7.66a4.057,4.057,0,0,1,.938,2.793v.82H41.2a3.394,3.394,0,0,0,.762,2.289,2.634,2.634,0,0,0,2.035.781,6.9,6.9,0,0,0,2.734-.578V-.4a6.863,6.863,0,0,1-1.3.426A7.31,7.31,0,0,1,43.945.156Zm-.352-7.789a2.118,2.118,0,0,0-1.645.672A3.1,3.1,0,0,0,41.227-5.1H45.7a2.851,2.851,0,0,0-.547-1.879A1.925,1.925,0,0,0,43.594-7.633ZM60.219,0V-5.57a2.312,2.312,0,0,0-.437-1.535,1.692,1.692,0,0,0-1.359-.512,2.195,2.195,0,0,0-1.789.7,3.3,3.3,0,0,0-.578,2.141V0h-1.3V-5.57a2.312,2.312,0,0,0-.437-1.535,1.7,1.7,0,0,0-1.367-.512,2.118,2.118,0,0,0-1.785.73A3.953,3.953,0,0,0,50.6-4.492V0H49.3V-8.562h1.055l.211,1.172h.063a2.549,2.549,0,0,1,1.035-.977,3.163,3.163,0,0,1,1.5-.352,2.544,2.544,0,0,1,2.625,1.453h.063a2.73,2.73,0,0,1,1.109-1.062,3.442,3.442,0,0,1,1.656-.391,2.9,2.9,0,0,1,2.176.746,3.338,3.338,0,0,1,.723,2.387V0ZM67.8.156a3.934,3.934,0,0,1-3-1.156,4.476,4.476,0,0,1-1.1-3.211A4.964,4.964,0,0,1,64.73-7.5a3.387,3.387,0,0,1,2.738-1.219A3.229,3.229,0,0,1,70.016-7.66a4.057,4.057,0,0,1,.938,2.793v.82h-5.9a3.394,3.394,0,0,0,.762,2.289,2.635,2.635,0,0,0,2.035.781,6.9,6.9,0,0,0,2.734-.578V-.4a6.863,6.863,0,0,1-1.3.426A7.31,7.31,0,0,1,67.8.156Zm-.352-7.789a2.118,2.118,0,0,0-1.645.672A3.1,3.1,0,0,0,65.086-5.1h4.477a2.851,2.851,0,0,0-.547-1.879A1.925,1.925,0,0,0,67.453-7.633ZM79.023,0V-5.539A2.235,2.235,0,0,0,78.547-7.1a1.941,1.941,0,0,0-1.492-.516,2.461,2.461,0,0,0-1.969.727,3.668,3.668,0,0,0-.625,2.4V0h-1.3V-8.562h1.055l.211,1.172h.063a2.648,2.648,0,0,1,1.117-.98,3.63,3.63,0,0,1,1.6-.348,3.252,3.252,0,0,1,2.328.746,3.175,3.175,0,0,1,.781,2.387V0ZM85.75-.914a4.236,4.236,0,0,0,.664-.051,4.3,4.3,0,0,0,.508-.105v.992A2.371,2.371,0,0,1,86.3.09a4.664,4.664,0,0,1-.738.066q-2.484,0-2.484-2.617V-7.555H81.852V-8.18l1.227-.539.547-1.828h.75v1.984h2.484v1.008H84.375v5.039a1.734,1.734,0,0,0,.367,1.188A1.278,1.278,0,0,0,85.75-.914Z" transform="translate(362.848 145.465)" fill="#333"/><g transform="translate(253 134.588)"><path d="M7.5,17.913l5.206-5.206L7.5,7.5" transform="translate(-0.2 -7.5)" fill="none" stroke="#333" stroke-linecap="round" stroke-linejoin="round" stroke-width="1.5"/></g><g transform="translate(135.5 127.174)"><path d="M4.5,8.889,12.072,3l7.572,5.889v9.254a1.683,1.683,0,0,1-1.683,1.683H6.183A1.683,1.683,0,0,1,4.5,18.143Z" fill="none" stroke="#333" stroke-linecap="round" stroke-linejoin="round" stroke-width="1.5"/><path d="M13.5,26.413V18h5.048v8.413" transform="translate(-3.952 -6.587)" fill="none" stroke="#333" stroke-linecap="round" stroke-linejoin="round" stroke-width="1.5"/></g><path d="M-23.551-8.094a3.2,3.2,0,0,1-1.184,2.668,5.362,5.362,0,0,1-3.387.934h-1.344V0h-1.328V-11.422h2.961Q-23.551-11.422-23.551-8.094Zm-5.914,2.461h1.2a4.442,4.442,0,0,0,2.555-.57,2.1,2.1,0,0,0,.789-1.828,1.971,1.971,0,0,0-.742-1.687,3.877,3.877,0,0,0-2.312-.555h-1.484ZM-20.059,0h-1.3V-12.156h1.3Zm8.016,0L-12.3-1.219h-.062a3.6,3.6,0,0,1-1.277,1.09,3.893,3.893,0,0,1-1.59.285,2.86,2.86,0,0,1-2-.656,2.394,2.394,0,0,1-.723-1.867q0-2.594,4.148-2.719l1.453-.047v-.531a2.171,2.171,0,0,0-.434-1.488,1.783,1.783,0,0,0-1.387-.48,5.65,5.65,0,0,0-2.422.656l-.4-.992A6.094,6.094,0,0,1-15.6-8.508a6.006,6.006,0,0,1,1.512-.2,3.262,3.262,0,0,1,2.27.68,2.837,2.837,0,0,1,.738,2.18V0Zm-2.93-.914a2.632,2.632,0,0,0,1.9-.664,2.457,2.457,0,0,0,.691-1.859v-.773l-1.3.055a4.717,4.717,0,0,0-2.23.48,1.449,1.449,0,0,0-.684,1.324,1.336,1.336,0,0,0,.426,1.07A1.767,1.767,0,0,0-14.973-.914Zm9.328,0A4.236,4.236,0,0,0-4.98-.965a4.3,4.3,0,0,0,.508-.105v.992A2.371,2.371,0,0,1-5.094.09a4.664,4.664,0,0,1-.738.066q-2.484,0-2.484-2.617V-7.555H-9.543V-8.18l1.227-.539.547-1.828h.75v1.984h2.484v1.008H-7.02v5.039a1.734,1.734,0,0,0,.367,1.188A1.278,1.278,0,0,0-5.645-.914ZM1.1-7.555h-2.18V0h-1.3V-7.555H-3.91v-.586l1.531-.469v-.477q0-3.156,2.758-3.156a5.675,5.675,0,0,1,1.594.273L1.637-10.93a4.29,4.29,0,0,0-1.281-.242,1.248,1.248,0,0,0-1.086.488,2.725,2.725,0,0,0-.352,1.566v.555H1.1Zm8.953,3.266A4.724,4.724,0,0,1,9-1.02,3.714,3.714,0,0,1,6.082.156,3.86,3.86,0,0,1,4.043-.383,3.558,3.558,0,0,1,2.668-1.93a5.391,5.391,0,0,1-.484-2.359A4.716,4.716,0,0,1,3.23-7.551,3.7,3.7,0,0,1,6.137-8.719a3.622,3.622,0,0,1,2.855,1.2A4.7,4.7,0,0,1,10.051-4.289Zm-6.523,0a4.064,4.064,0,0,0,.656,2.5,2.278,2.278,0,0,0,1.93.859,2.293,2.293,0,0,0,1.934-.855,4.043,4.043,0,0,0,.66-2.5,3.978,3.978,0,0,0-.66-2.48A2.32,2.32,0,0,0,6.1-7.617a2.283,2.283,0,0,0-1.922.836A4.023,4.023,0,0,0,3.527-4.289Zm12.7-4.43a5.075,5.075,0,0,1,1.023.094l-.18,1.2a4.418,4.418,0,0,0-.937-.117,2.282,2.282,0,0,0-1.777.844,3.077,3.077,0,0,0-.738,2.1V0h-1.3V-8.562h1.07l.148,1.586h.063a3.764,3.764,0,0,1,1.148-1.289A2.585,2.585,0,0,1,16.23-8.719ZM29.77,0V-5.57a2.312,2.312,0,0,0-.437-1.535,1.692,1.692,0,0,0-1.359-.512,2.195,2.195,0,0,0-1.789.7,3.3,3.3,0,0,0-.578,2.141V0h-1.3V-5.57a2.312,2.312,0,0,0-.437-1.535A1.7,1.7,0,0,0,22.5-7.617a2.118,2.118,0,0,0-1.785.73,3.953,3.953,0,0,0-.566,2.395V0h-1.3V-8.562H19.91l.211,1.172h.063a2.549,2.549,0,0,1,1.035-.977,3.162,3.162,0,0,1,1.5-.352A2.544,2.544,0,0,1,25.34-7.266H25.4a2.73,2.73,0,0,1,1.109-1.062,3.442,3.442,0,0,1,1.656-.391,2.9,2.9,0,0,1,2.176.746,3.338,3.338,0,0,1,.723,2.387V0Z" transform="translate(207.848 145.465)" fill="#333"/><g transform="translate(1004.061 206.928)"><path d="M18,7.5V22.2" transform="translate(-3.151)" fill="none" stroke="#333" stroke-linecap="round" stroke-linejoin="round" stroke-width="2"/><path d="M7.5,18H22.2" transform="translate(0 -3.151)" fill="none" stroke="#333" stroke-linecap="round" stroke-linejoin="round" stroke-width="2"/></g><g transform="matrix(1, 0, 0, 1, 0, 0)" filter="url(#g)"><rect width="1440" height="89" fill="#0789b9"/></g><g transform="translate(0 -3)"><line x2="25" transform="translate(135.5 57.5)" fill="none" stroke="#fff" stroke-width="2"/><line x2="25" transform="translate(135.5 47.5)" fill="none" stroke="#fff" stroke-width="2"/><line x2="25" transform="translate(135.5 37.5)" fill="none" stroke="#fff" stroke-width="2"/></g><text transform="translate(406 52)" fill="#fff" font-size="16" font-family="FiraSans-Regular, Fira Sans" letter-spacing="0.1em"><tspan x="0" y="0">A </tspan><tspan y="0" fill="#8eb3c1" font-size="18">A</tspan><tspan y="0" fill="#8eb3c1"> </tspan><tspan y="0" fill="#8eb3c1" font-size="20">A</tspan></text><path d="M1.57,0V-11.422H2.9V-1.2H7.938V0Zm15.5-4.289a4.724,4.724,0,0,1-1.055,3.27A3.714,3.714,0,0,1,13.1.156a3.86,3.86,0,0,1-2.039-.539A3.558,3.558,0,0,1,9.688-1.93,5.391,5.391,0,0,1,9.2-4.289,4.716,4.716,0,0,1,10.25-7.551a3.7,3.7,0,0,1,2.906-1.168,3.622,3.622,0,0,1,2.855,1.2A4.7,4.7,0,0,1,17.07-4.289Zm-6.523,0a4.064,4.064,0,0,0,.656,2.5,2.278,2.278,0,0,0,1.93.859,2.293,2.293,0,0,0,1.934-.855,4.043,4.043,0,0,0,.66-2.5,3.978,3.978,0,0,0-.66-2.48,2.32,2.32,0,0,0-1.949-.848,2.283,2.283,0,0,0-1.922.836A4.023,4.023,0,0,0,10.547-4.289Zm15.8-4.273v.82l-1.586.188a2.726,2.726,0,0,1,.391.715,2.727,2.727,0,0,1,.172,1,2.531,2.531,0,0,1-.859,2.008,3.467,3.467,0,0,1-2.359.75,3.929,3.929,0,0,1-.719-.062,1.276,1.276,0,0,0-.828,1.1.56.56,0,0,0,.289.52,2.112,2.112,0,0,0,.992.168h1.516A3.394,3.394,0,0,1,25.5-.773a2.036,2.036,0,0,1,.746,1.7A2.431,2.431,0,0,1,25.1,3.1a6.1,6.1,0,0,1-3.328.746,4.547,4.547,0,0,1-2.59-.625,2.018,2.018,0,0,1-.91-1.766A1.983,1.983,0,0,1,18.773.1,2.546,2.546,0,0,1,20.18-.672a1.357,1.357,0,0,1-.551-.461,1.22,1.22,0,0,1-.223-.727,1.379,1.379,0,0,1,.25-.82,2.628,2.628,0,0,1,.789-.68,2.313,2.313,0,0,1-1.082-.93,2.732,2.732,0,0,1-.418-1.5,2.771,2.771,0,0,1,.844-2.168,3.445,3.445,0,0,1,2.391-.762,4.347,4.347,0,0,1,1.211.156Zm-6.828,10a1.162,1.162,0,0,0,.586,1.055,3.234,3.234,0,0,0,1.68.359,4.687,4.687,0,0,0,2.418-.488,1.5,1.5,0,0,0,.785-1.324,1.048,1.048,0,0,0-.43-.965A3.337,3.337,0,0,0,22.945-.2H21.391a2.048,2.048,0,0,0-1.375.422A1.507,1.507,0,0,0,19.523,1.438Zm.7-7.258a1.743,1.743,0,0,0,.508,1.359A2.028,2.028,0,0,0,22.148-4a1.654,1.654,0,0,0,1.9-1.844,1.7,1.7,0,0,0-1.922-1.93,1.9,1.9,0,0,0-1.406.492A1.982,1.982,0,0,0,20.227-5.82ZM35.5-4.289a4.724,4.724,0,0,1-1.055,3.27A3.714,3.714,0,0,1,31.531.156a3.86,3.86,0,0,1-2.039-.539A3.558,3.558,0,0,1,28.117-1.93a5.391,5.391,0,0,1-.484-2.359A4.716,4.716,0,0,1,28.68-7.551a3.7,3.7,0,0,1,2.906-1.168,3.622,3.622,0,0,1,2.855,1.2A4.7,4.7,0,0,1,35.5-4.289Zm-6.523,0a4.064,4.064,0,0,0,.656,2.5,2.278,2.278,0,0,0,1.93.859A2.293,2.293,0,0,0,33.5-1.785a4.043,4.043,0,0,0,.66-2.5,3.978,3.978,0,0,0-.66-2.48,2.32,2.32,0,0,0-1.949-.848,2.283,2.283,0,0,0-1.922.836A4.023,4.023,0,0,0,28.977-4.289ZM38.992-8.562v5.555a2.235,2.235,0,0,0,.477,1.563,1.941,1.941,0,0,0,1.492.516,2.435,2.435,0,0,0,1.965-.734,3.7,3.7,0,0,0,.621-2.4v-4.5h1.3V0h-1.07l-.187-1.148h-.07A2.585,2.585,0,0,1,42.41-.18,3.716,3.716,0,0,1,40.8.156a3.273,3.273,0,0,1-2.34-.742,3.159,3.159,0,0,1-.777-2.375v-5.6ZM50.359-.914a4.236,4.236,0,0,0,.664-.051,4.3,4.3,0,0,0,.508-.105v.992A2.371,2.371,0,0,1,50.91.09a4.664,4.664,0,0,1-.738.066q-2.484,0-2.484-2.617V-7.555H46.461V-8.18l1.227-.539.547-1.828h.75v1.984h2.484v1.008H48.984v5.039a1.734,1.734,0,0,0,.367,1.188A1.278,1.278,0,0,0,50.359-.914Z" transform="translate(1288 53)" fill="#fff"/><path d="M9.5,20.5a2.909,2.909,0,0,0,2.7-2.941H6.788A2.913,2.913,0,0,0,9.5,20.5Zm9.13-5.14c-.819-.88-2.351-2.2-2.351-6.54A6.694,6.694,0,0,0,10.851,2.24V1.356a1.356,1.356,0,1,0-2.711,0V2.24A6.694,6.694,0,0,0,2.716,8.817c0,4.336-1.532,5.66-2.351,6.54a1.324,1.324,0,0,0-.365.92,1.358,1.358,0,0,0,1.361,1.356H17.63a1.357,1.357,0,0,0,1.361-1.356A1.324,1.324,0,0,0,18.625,15.357Z" transform="translate(1251 36.502)" fill="#fff"/></g></svg>