<svg width="720" height="500" viewBox="0 0 720 500" fill="none" xmlns="http://www.w3.org/2000/svg">
<rect width="720" height="500" fill="#F4F4F4"/>
<g clip-path="url(#clip0_206_2572)">
<path d="M92.5913 251.091C92.5913 255.743 90.9171 259.409 87.5685 262.088C84.2199 264.766 79.5602 266.106 73.5892 266.106C68.5526 266.206 63.5606 265.144 59 263.005V252.853C61.8529 254.175 64.8051 255.271 67.8293 256.131C69.9825 256.729 72.2036 257.049 74.4382 257.082C76.8348 257.082 78.6737 256.625 79.9548 255.711C80.5925 255.245 81.1028 254.627 81.4385 253.912C81.7742 253.198 81.9246 252.41 81.8757 251.622C81.8896 250.656 81.593 249.711 81.0297 248.926C80.344 248.025 79.5024 247.256 78.545 246.652C76.389 245.359 74.1586 244.194 71.8654 243.163C69.3279 242.056 66.9465 240.621 64.7823 238.894C63.233 237.563 61.9527 235.948 61.0104 234.136C60.0334 232.166 59.5491 229.989 59.5992 227.791C59.5992 223.232 61.1442 219.649 64.2344 217.04C67.3245 214.432 71.5954 213.128 77.0471 213.128C79.6327 213.116 82.2091 213.436 84.7134 214.079C87.322 214.775 89.8732 215.671 92.3445 216.758L88.821 225.254C86.6054 224.308 84.3264 223.519 82.0006 222.892C80.2661 222.454 78.4846 222.229 76.6955 222.223C74.6261 222.223 73.0399 222.704 71.9369 223.666C71.3961 224.131 70.9665 224.711 70.6797 225.364C70.393 226.017 70.2565 226.726 70.2801 227.438C70.2595 228.325 70.4919 229.199 70.95 229.958C71.5121 230.79 72.2383 231.498 73.0839 232.039C75.3194 233.378 77.6323 234.583 80.0104 235.648C84.8277 237.951 88.1294 240.26 89.9153 242.575C91.7459 245.028 92.6894 248.031 92.5913 251.091V251.091Z" fill="#495867"/>
<path d="M120.45 234.524H110.935V267.234H102.619V234.524H96.2009V230.646L102.619 228.108V225.571C102.619 220.965 103.7 217.552 105.862 215.331C108.024 213.11 111.325 212 115.767 212C118.694 212.002 121.6 212.49 124.367 213.444L122.182 219.72C120.295 219.088 118.321 218.755 116.331 218.733C114.452 218.733 113.083 219.315 112.225 220.478C111.368 221.641 110.937 223.386 110.935 225.711V228.252H120.45V234.524ZM135.749 247.319L122.672 228.252H132.119L140.998 241.896L149.954 228.252H159.33L146.221 247.319L160 267.234H150.624L141.002 252.641L131.414 267.234H122.038L135.749 247.319Z" fill="#FF6C5C"/>
</g>
<rect x="214" width="506" height="500" fill="#495867"/>
<g clip-path="url(#clip1_206_2572)">
<g filter="url(#filter0_d_206_2572)">
<path d="M1107 61H-23V439H1107V61Z" fill="white"/>
</g>
<path d="M1107 123H-23V185H1107V123Z" fill="white"/>
<path d="M1107 185H-23V247H1107V185Z" fill="#F5F5F5"/>
<path d="M1107 247H-23V309H1107V247Z" fill="white"/>
<path d="M1107 309H-23V371H1107V309Z" fill="#F5F5F5"/>
<path d="M323.5 61.5V439" stroke="#E1E1E1" stroke-width="2"/>
<path d="M442.5 61.5V439.5" stroke="#E1E1E1" stroke-width="2"/>
<path d="M593.5 61.5V439.5" stroke="#E1E1E1" stroke-width="2"/>
<path d="M1107 61H-23V123H1107V61Z" fill="#D9D9D9"/>
<path d="M353.52 90.031C353.551 90.5477 353.462 91.0646 353.258 91.5406C353.055 92.0165 352.743 92.4385 352.348 92.773C351.379 93.466 350.201 93.8027 349.012 93.726H347.825V98H345.958V86.578H349.247C350.385 86.4934 351.517 86.8024 352.454 87.453C352.818 87.7716 353.104 88.17 353.289 88.6172C353.474 89.0644 353.553 89.5482 353.52 90.031ZM347.82 92.156H348.812C349.55 92.213 350.287 92.0382 350.921 91.656C351.153 91.4708 351.336 91.2316 351.455 90.9594C351.573 90.6871 351.623 90.39 351.6 90.094C351.621 89.8194 351.578 89.5436 351.474 89.2887C351.369 89.0337 351.207 88.8065 351 88.625C350.447 88.2588 349.787 88.0884 349.125 88.141H347.825L347.82 92.156ZM357.664 91.89H358.964C359.631 91.9471 360.297 91.7765 360.855 91.406C361.056 91.2274 361.214 91.0049 361.315 90.7557C361.417 90.5066 361.46 90.2374 361.441 89.969C361.465 89.7022 361.419 89.4337 361.308 89.1899C361.197 88.9461 361.025 88.7352 360.808 88.578C360.226 88.2575 359.563 88.111 358.9 88.156H357.666L357.664 91.89ZM357.664 93.437V98H355.8V86.578H359.027C360.179 86.4899 361.328 86.7806 362.3 87.406C362.663 87.7083 362.949 88.0928 363.134 88.5275C363.319 88.9623 363.397 89.4348 363.363 89.906C363.373 90.5849 363.163 91.2486 362.762 91.797C362.362 92.3453 361.794 92.7483 361.144 92.945L364.371 98H362.246L359.512 93.438L357.664 93.437ZM376.164 92.273C376.262 93.8419 375.766 95.3901 374.773 96.609C374.267 97.1381 373.651 97.5506 372.969 97.8178C372.287 98.0849 371.555 98.2003 370.824 98.156C370.09 98.203 369.355 98.0901 368.669 97.8251C367.983 97.5601 367.363 97.1493 366.851 96.621C365.857 95.3927 365.362 93.835 365.464 92.258C365.359 90.6852 365.858 89.1315 366.859 87.914C367.376 87.3917 367.998 86.9863 368.685 86.7251C369.372 86.4639 370.107 86.3531 370.84 86.4C371.569 86.3556 372.298 86.4703 372.978 86.7361C373.658 87.0018 374.272 87.4123 374.778 87.939C375.77 89.1572 376.267 90.7049 376.168 92.273H376.164ZM367.445 92.273C367.367 93.4046 367.667 94.5301 368.297 95.473C368.601 95.8422 368.988 96.1336 369.427 96.3231C369.865 96.5127 370.343 96.5949 370.82 96.563C371.294 96.5952 371.769 96.5142 372.206 96.3268C372.643 96.1393 373.029 95.8508 373.332 95.485C373.963 94.5383 374.261 93.4088 374.18 92.274C374.257 91.1483 373.962 90.0284 373.34 89.087C373.04 88.7193 372.657 88.4288 372.222 88.2396C371.787 88.0505 371.313 87.9684 370.84 88C370.361 87.9669 369.881 88.048 369.439 88.2368C368.997 88.4257 368.607 88.7167 368.3 89.086C367.669 90.0239 367.37 91.1456 367.449 92.273H367.445ZM385.125 86.573H387.066L383.066 98H381.1L377.113 86.578H379.035L381.418 93.678C381.543 94.0167 381.677 94.453 381.818 94.987C381.959 95.521 382.05 95.9187 382.09 96.18C382.157 95.784 382.261 95.3257 382.403 94.805C382.545 94.2844 382.66 93.899 382.747 93.649L385.125 86.573ZM388.574 98V86.578H390.441V98H388.574ZM402.974 98H400.684L395.066 88.9H395L395.039 89.408C395.112 90.3767 395.148 91.262 395.148 92.064V98H393.448V86.578H395.714L401.314 95.633H401.361C401.35 95.513 401.33 95.0767 401.299 94.324C401.268 93.5714 401.253 92.984 401.252 92.562V86.578H402.963L402.974 98ZM410.849 88.016C410.367 87.9947 409.887 88.0868 409.448 88.285C409.008 88.4832 408.621 88.7819 408.318 89.157C407.657 90.0669 407.331 91.1773 407.395 92.3C407.315 93.4307 407.628 94.5543 408.282 95.48C408.598 95.8453 408.994 96.1327 409.439 96.3197C409.884 96.5067 410.366 96.5883 410.848 96.558C411.32 96.5591 411.792 96.5105 412.254 96.413C412.707 96.3164 413.179 96.1927 413.668 96.042V97.642C412.691 97.9945 411.659 98.1666 410.621 98.15C409.907 98.1953 409.191 98.0826 408.525 97.8198C407.86 97.5571 407.26 97.1509 406.769 96.63C405.8 95.3962 405.321 93.8476 405.425 92.282C405.401 91.2068 405.624 90.1404 406.077 89.165C406.483 88.3062 407.141 87.5919 407.964 87.118C408.85 86.6279 409.851 86.3825 410.864 86.407C411.984 86.3965 413.092 86.6478 414.098 87.141L413.426 88.7C413.029 88.5135 412.621 88.3531 412.203 88.22C411.765 88.0818 411.308 88.0129 410.848 88.016H410.849ZM422.59 98H416.129V86.578H422.59V88.156H418V91.265H422.3V92.828H418V96.414H422.59V98Z" fill="#757575"/>
<path d="M497.016 94.9C497.036 95.3574 496.947 95.8129 496.756 96.2288C496.564 96.6447 496.277 97.0089 495.916 97.291C495.03 97.9152 493.959 98.2208 492.877 98.158C491.788 98.1989 490.704 97.9939 489.705 97.558V95.789C490.237 96.0378 490.793 96.2314 491.365 96.367C491.9 96.5012 492.449 96.572 493 96.578C493.578 96.6237 494.154 96.4751 494.637 96.156C494.808 96.0222 494.945 95.8497 495.037 95.6528C495.128 95.4559 495.172 95.2401 495.164 95.023C495.167 94.8178 495.125 94.6144 495.041 94.4269C494.958 94.2395 494.834 94.0723 494.68 93.937C494.072 93.4835 493.398 93.1276 492.68 92.882C491.837 92.5934 491.08 92.0963 490.48 91.437C490.047 90.8795 489.821 90.1895 489.839 89.484C489.82 89.0556 489.902 88.6287 490.079 88.2379C490.255 87.847 490.521 87.5032 490.855 87.234C491.641 86.6525 492.605 86.3626 493.582 86.414C494.709 86.4213 495.822 86.6663 496.848 87.133L496.254 88.656C495.399 88.2653 494.475 88.0475 493.535 88.015C493.045 87.9805 492.558 88.1204 492.16 88.41C492.008 88.5366 491.886 88.6964 491.805 88.8772C491.723 89.058 491.685 89.2549 491.691 89.453C491.683 89.7194 491.748 89.9828 491.879 90.215C492.037 90.4593 492.248 90.6644 492.496 90.815C492.991 91.1044 493.508 91.3526 494.043 91.557C494.696 91.8054 495.315 92.1336 495.887 92.534C496.25 92.8028 496.544 93.1533 496.746 93.557C496.936 93.9788 497.028 94.4378 497.016 94.9ZM503.172 98H501.3V88.18H497.941V86.58H506.527V88.18H503.168L503.172 98ZM515.372 98L514.227 94.828H509.859L508.742 98H506.773L511.046 86.531H513.077L517.352 98H515.372ZM513.734 93.219L512.664 90.11C512.586 89.902 512.478 89.574 512.34 89.126C512.202 88.678 512.107 88.35 512.055 88.142C511.893 88.8542 511.687 89.5556 511.438 90.242L510.406 93.219H513.734ZM522.8 98H520.938V88.18H517.578V86.58H526.164V88.18H522.8V98ZM536.867 86.578V93.969C536.885 94.7424 536.697 95.5066 536.324 96.184C535.96 96.8185 535.413 97.3279 534.754 97.645C533.987 98.0035 533.147 98.1784 532.3 98.156C531.095 98.2286 529.91 97.8245 529 97.031C528.598 96.6267 528.285 96.1424 528.081 95.6094C527.878 95.0764 527.789 94.5066 527.82 93.937V86.578H529.695V93.8C529.632 94.5545 529.867 95.3036 530.351 95.886C530.624 96.1284 530.944 96.3128 531.29 96.4283C531.637 96.5438 532.003 96.5879 532.367 96.558C534.122 96.5614 535 95.6384 535 93.789V86.578H536.867ZM546.375 94.9C546.395 95.3574 546.306 95.8129 546.115 96.2288C545.923 96.6447 545.636 97.0089 545.275 97.291C544.389 97.9152 543.318 98.2208 542.236 98.158C541.147 98.1989 540.063 97.9939 539.064 97.558V95.789C539.596 96.0378 540.152 96.2314 540.724 96.367C541.26 96.5013 541.809 96.5722 542.361 96.578C542.939 96.6241 543.516 96.4756 544 96.156C544.171 96.0222 544.308 95.8497 544.4 95.6528C544.491 95.4559 544.535 95.2401 544.527 95.023C544.53 94.8178 544.488 94.6144 544.404 94.4269C544.321 94.2395 544.197 94.0723 544.043 93.937C543.435 93.4835 542.761 93.1276 542.043 92.882C541.2 92.5934 540.443 92.0963 539.843 91.437C539.41 90.8798 539.183 90.1897 539.2 89.484C539.181 89.0556 539.263 88.6287 539.44 88.2379C539.616 87.847 539.882 87.5032 540.216 87.234C541.002 86.6525 541.966 86.3626 542.943 86.414C544.07 86.4213 545.183 86.6663 546.209 87.133L545.615 88.656C544.76 88.2653 543.836 88.0475 542.896 88.015C542.406 87.9805 541.919 88.1204 541.521 88.41C541.369 88.5366 541.247 88.6964 541.166 88.8772C541.084 89.058 541.046 89.2549 541.052 89.453C541.044 89.7194 541.109 89.9828 541.24 90.215C541.398 90.4593 541.609 90.6644 541.857 90.815C542.352 91.1044 542.869 91.3526 543.404 91.557C544.057 91.8054 544.676 92.1336 545.248 92.534C545.608 92.803 545.9 93.1527 546.1 93.555C546.292 93.977 546.386 94.4367 546.375 94.9Z" fill="#757575"/>
<path d="M617.43 98H615.563V88.18H612.2V86.58H620.786V88.18H617.43V98ZM631.547 98H629.672V92.852H624.406V98H622.539V86.578H624.406V91.25H629.672V86.578H631.547V98ZM636.422 91.891H637.722C638.389 91.9481 639.055 91.7775 639.613 91.407C639.814 91.2283 639.972 91.0057 640.074 90.7564C640.176 90.5071 640.219 90.2377 640.2 89.969C640.224 89.7022 640.178 89.4337 640.067 89.1899C639.956 88.9461 639.784 88.7352 639.567 88.578C638.985 88.2579 638.324 88.1114 637.661 88.156H636.427L636.422 91.891ZM636.422 93.438V98H634.555V86.578H637.782C638.934 86.4899 640.083 86.7806 641.055 87.406C641.418 87.7083 641.704 88.0927 641.889 88.5275C642.074 88.9623 642.152 89.4348 642.118 89.906C642.128 90.5847 641.918 91.2484 641.518 91.7967C641.117 92.345 640.55 92.7481 639.9 92.945L643.125 98H641L638.266 93.438H636.422ZM651.242 98H644.781V86.578H651.242V88.156H646.648V91.265H650.948V92.828H646.648V96.414H651.242V98ZM660.3 94.9C660.32 95.357 660.23 95.8122 660.039 96.2277C659.848 96.6432 659.56 97.007 659.2 97.289C658.313 97.9143 657.24 98.22 656.156 98.156C655.067 98.1969 653.983 97.9918 652.984 97.556V95.789C653.516 96.0377 654.072 96.2314 654.644 96.367C655.179 96.5013 655.729 96.5721 656.281 96.578C656.858 96.6236 657.435 96.4751 657.918 96.156C658.089 96.0222 658.226 95.8497 658.317 95.6528C658.409 95.4559 658.453 95.2401 658.445 95.023C658.448 94.8178 658.406 94.6144 658.322 94.4269C658.239 94.2394 658.115 94.0723 657.961 93.937C657.353 93.4835 656.678 93.1276 655.961 92.882C655.118 92.5934 654.361 92.0963 653.761 91.437C653.328 90.8795 653.102 90.1895 653.12 89.484C653.101 89.0556 653.183 88.6287 653.36 88.2379C653.536 87.847 653.802 87.5031 654.136 87.234C654.922 86.6525 655.886 86.3626 656.863 86.414C657.99 86.4213 659.103 86.6663 660.129 87.133L659.531 88.656C658.676 88.2653 657.752 88.0474 656.812 88.015C656.321 87.9805 655.834 88.1204 655.437 88.41C655.284 88.5366 655.163 88.6964 655.082 88.8772C655 89.058 654.961 89.2549 654.968 89.453C654.96 89.7194 655.025 89.9828 655.156 90.215C655.313 90.4592 655.524 90.6644 655.773 90.815C656.267 91.1044 656.785 91.3526 657.32 91.557C657.973 91.8054 658.592 92.1335 659.164 92.534C659.527 92.8028 659.821 93.1532 660.023 93.557C660.215 93.9782 660.31 94.4372 660.3 94.9ZM671.516 98H669.641V92.852H664.375V98H662.508V86.578H664.375V91.25H669.641V86.578H671.516V98ZM684.664 92.273C684.761 93.8423 684.264 95.3906 683.27 96.609C682.763 97.1383 682.148 97.5508 681.465 97.818C680.783 98.0851 680.051 98.2005 679.32 98.156C678.586 98.203 677.851 98.0901 677.165 97.8251C676.479 97.5601 675.859 97.1492 675.347 96.621C674.353 95.3927 673.858 93.835 673.96 92.258C673.855 90.6852 674.354 89.1315 675.355 87.914C675.871 87.3915 676.494 86.9857 677.18 86.7242C677.867 86.4627 678.602 86.3515 679.335 86.398C680.064 86.3536 680.793 86.4683 681.473 86.734C682.153 86.9998 682.767 87.4103 683.273 87.937C684.266 89.1556 684.763 90.7041 684.664 92.273ZM675.945 92.273C675.867 93.4046 676.166 94.5301 676.797 95.473C677.101 95.8421 677.488 96.1336 677.927 96.3231C678.365 96.5127 678.843 96.5949 679.32 96.563C679.794 96.5952 680.269 96.5142 680.706 96.3268C681.143 96.1393 681.529 95.8508 681.832 95.485C682.463 94.5383 682.761 93.4088 682.68 92.274C682.757 91.1483 682.462 90.0284 681.84 89.087C681.54 88.7187 681.156 88.4278 680.72 88.2387C680.285 88.0495 679.81 87.9677 679.336 88C678.857 87.9675 678.378 88.049 677.937 88.2378C677.496 88.4266 677.107 88.7173 676.8 89.086C676.168 90.0234 675.867 91.1451 675.945 92.273ZM687.117 98V86.578H688.984V96.4H693.82V98H687.117ZM705.078 92.18C705.131 92.9697 705.019 93.7617 704.748 94.5055C704.478 95.2494 704.056 95.9287 703.508 96.5C702.254 97.5725 700.63 98.111 698.984 98H695.784V86.578H699.32C700.089 86.5311 700.86 86.6368 701.588 86.8889C702.316 87.141 702.987 87.5346 703.562 88.047C704.086 88.594 704.492 89.2435 704.753 89.9549C705.013 90.6662 705.124 91.4238 705.078 92.18ZM703.109 92.243C703.109 89.5097 701.83 88.143 699.273 88.143H697.656V96.43H698.984C701.734 96.43 703.109 95.034 703.109 92.242V92.243Z" fill="#757575"/>
<path d="M374.34 146.336H377.567C378.705 146.25 379.845 146.485 380.856 147.016C381.197 147.255 381.47 147.579 381.648 147.956C381.826 148.332 381.903 148.749 381.871 149.164C381.893 149.774 381.69 150.371 381.3 150.84C380.867 151.31 380.282 151.612 379.648 151.695V151.773C381.381 152.07 382.248 152.981 382.248 154.507C382.272 154.958 382.192 155.408 382.013 155.823C381.835 156.238 381.563 156.606 381.219 156.899C380.385 157.517 379.36 157.822 378.324 157.758H374.34V146.336ZM375.668 151.227H377.856C378.559 151.284 379.263 151.13 379.879 150.786C380.098 150.609 380.269 150.38 380.377 150.12C380.486 149.86 380.528 149.577 380.5 149.297C380.522 149.025 380.469 148.753 380.348 148.508C380.227 148.264 380.042 148.057 379.813 147.91C379.134 147.578 378.38 147.431 377.626 147.484H375.668V151.227ZM375.668 152.352V156.625H378.051C378.785 156.677 379.515 156.489 380.133 156.09C380.375 155.887 380.565 155.629 380.687 155.337C380.809 155.046 380.859 154.729 380.833 154.414C380.856 154.114 380.802 153.814 380.677 153.541C380.552 153.268 380.36 153.031 380.118 152.852C379.459 152.472 378.701 152.298 377.942 152.352H375.668ZM389.6 147.358C389.042 147.331 388.485 147.43 387.97 147.647C387.455 147.865 386.996 148.195 386.625 148.613C385.853 149.585 385.465 150.807 385.535 152.047C385.455 153.291 385.829 154.522 386.586 155.512C386.962 155.928 387.427 156.254 387.947 156.466C388.466 156.677 389.026 156.769 389.586 156.735C390.51 156.716 391.428 156.571 392.313 156.305V157.469C391.371 157.79 390.378 157.94 389.383 157.914C388.661 157.959 387.937 157.845 387.264 157.581C386.59 157.316 385.983 156.907 385.484 156.383C384.5 155.154 384.011 153.602 384.113 152.031C384.089 150.962 384.315 149.903 384.773 148.937C385.188 148.079 385.853 147.366 386.68 146.891C387.577 146.395 388.59 146.147 389.614 146.172C390.698 146.147 391.772 146.372 392.755 146.828L392.191 147.969C391.383 147.576 390.498 147.367 389.6 147.358Z" fill="#757575"/>
<path d="M382.223 216.031C382.313 217.591 381.818 219.129 380.836 220.344C380.349 220.874 379.751 221.29 379.084 221.561C378.417 221.833 377.699 221.953 376.98 221.914C376.257 221.958 375.534 221.843 374.861 221.576C374.188 221.309 373.582 220.898 373.086 220.371C372.104 219.14 371.615 217.588 371.715 216.016C371.616 214.453 372.107 212.911 373.09 211.692C373.59 211.167 374.199 210.757 374.875 210.492C375.55 210.227 376.276 210.113 377 210.158C377.715 210.119 378.431 210.239 379.094 210.509C379.758 210.779 380.354 211.192 380.84 211.719C381.821 212.934 382.314 214.472 382.223 216.031ZM373.123 216.031C373.035 217.283 373.384 218.528 374.111 219.551C374.465 219.959 374.908 220.279 375.406 220.487C375.904 220.695 376.443 220.785 376.982 220.751C377.519 220.788 378.058 220.7 378.556 220.493C379.053 220.286 379.495 219.966 379.848 219.558C380.563 218.528 380.905 217.285 380.817 216.035C380.904 214.792 380.564 213.557 379.852 212.535C379.502 212.129 379.061 211.81 378.566 211.603C378.071 211.396 377.535 211.308 377 211.344C376.459 211.309 375.917 211.398 375.416 211.606C374.915 211.815 374.469 212.135 374.113 212.544C373.388 213.556 373.037 214.789 373.121 216.031H373.123ZM393.691 221.758H392.176L385.934 212.172H385.871C385.957 213.296 386 214.327 386 215.266V221.758H384.77V210.336H386.27L392.5 219.883H392.563C392.552 219.742 392.529 219.291 392.493 218.528C392.457 217.765 392.442 217.22 392.449 216.891V210.336H393.691V221.758Z" fill="#757575"/>
<path d="M383.223 278.031C383.313 279.591 382.818 281.129 381.836 282.344C381.349 282.874 380.751 283.29 380.084 283.561C379.417 283.833 378.699 283.953 377.98 283.914C377.257 283.958 376.534 283.843 375.861 283.576C375.188 283.309 374.582 282.898 374.086 282.371C373.104 281.14 372.615 279.588 372.715 278.016C372.616 276.453 373.107 274.911 374.09 273.692C374.59 273.167 375.199 272.757 375.875 272.492C376.55 272.227 377.276 272.113 378 272.158C378.715 272.119 379.431 272.239 380.094 272.509C380.758 272.779 381.354 273.192 381.84 273.719C382.821 274.934 383.314 276.472 383.223 278.031ZM374.123 278.031C374.035 279.283 374.384 280.528 375.111 281.551C375.465 281.959 375.908 282.279 376.406 282.487C376.904 282.695 377.443 282.785 377.982 282.751C378.519 282.788 379.058 282.7 379.556 282.493C380.053 282.286 380.495 281.966 380.848 281.558C381.563 280.528 381.905 279.285 381.817 278.035C381.904 276.792 381.564 275.557 380.852 274.535C380.502 274.129 380.061 273.81 379.566 273.603C379.071 273.396 378.535 273.308 378 273.344C377.459 273.309 376.917 273.398 376.416 273.606C375.915 273.815 375.469 274.135 375.113 274.544C374.388 275.556 374.037 276.789 374.121 278.031H374.123ZM394.691 283.758H393.176L386.934 274.172H386.871C386.957 275.296 387 276.327 387 277.266V283.758H385.77V272.336H387.27L393.5 281.883H393.563C393.552 281.742 393.529 281.291 393.493 280.528C393.457 279.765 393.442 279.22 393.449 278.891V272.336H394.691V283.758Z" fill="#757575"/>
<path d="M378.219 345.758L374.344 335.633H374.282C374.355 336.433 374.391 337.386 374.391 338.492V345.758H373.164V334.336H375.164L378.781 343.758H378.844L382.492 334.336H384.477V345.758H383.148V338.399C383.148 337.555 383.184 336.638 383.257 335.649H383.2L379.289 345.758H378.219ZM387.609 334.336H390.836C391.974 334.25 393.114 334.485 394.125 335.016C394.466 335.255 394.739 335.579 394.918 335.955C395.096 336.332 395.173 336.749 395.141 337.164C395.165 337.773 394.963 338.37 394.575 338.84C394.142 339.31 393.557 339.612 392.923 339.695V339.773C394.656 340.07 395.523 340.981 395.523 342.507C395.546 342.958 395.465 343.409 395.285 343.824C395.106 344.239 394.833 344.607 394.488 344.899C393.655 345.517 392.63 345.821 391.594 345.758H387.609V334.336ZM388.938 339.227H391.125C391.828 339.284 392.532 339.13 393.148 338.786C393.366 338.608 393.536 338.379 393.644 338.12C393.752 337.86 393.793 337.578 393.765 337.298C393.787 337.026 393.734 336.754 393.613 336.509C393.492 336.265 393.307 336.058 393.078 335.911C392.399 335.579 391.645 335.432 390.891 335.485H388.938V339.227ZM388.938 340.352V344.625H391.32C392.053 344.677 392.783 344.489 393.4 344.09C393.642 343.887 393.832 343.629 393.954 343.337C394.076 343.046 394.126 342.729 394.1 342.414C394.123 342.114 394.069 341.814 393.944 341.541C393.819 341.268 393.627 341.031 393.385 340.852C392.726 340.472 391.968 340.298 391.209 340.352H388.938Z" fill="#757575"/>
<path d="M378.219 410.758L374.344 400.633H374.282C374.355 401.433 374.391 402.386 374.391 403.492V410.758H373.164V399.336H375.164L378.781 408.758H378.844L382.492 399.336H384.477V410.758H383.148V403.399C383.148 402.555 383.184 401.638 383.257 400.649H383.2L379.289 410.758H378.219ZM387.609 399.336H390.836C391.974 399.25 393.114 399.485 394.125 400.016C394.466 400.255 394.739 400.579 394.918 400.955C395.096 401.332 395.173 401.749 395.141 402.164C395.165 402.773 394.963 403.37 394.575 403.84C394.142 404.31 393.557 404.612 392.923 404.695V404.773C394.656 405.07 395.523 405.981 395.523 407.507C395.546 407.958 395.465 408.409 395.285 408.824C395.106 409.239 394.833 409.607 394.488 409.899C393.655 410.517 392.63 410.821 391.594 410.758H387.609V399.336ZM388.938 404.227H391.125C391.828 404.284 392.532 404.13 393.148 403.786C393.366 403.608 393.536 403.379 393.644 403.12C393.752 402.86 393.793 402.578 393.765 402.298C393.787 402.026 393.734 401.754 393.613 401.509C393.492 401.265 393.307 401.058 393.078 400.911C392.399 400.579 391.645 400.432 390.891 400.485H388.938V404.227ZM388.938 405.352V409.625H391.32C392.053 409.677 392.783 409.489 393.4 409.09C393.642 408.887 393.832 408.629 393.954 408.337C394.076 408.046 394.126 407.729 394.1 407.414C394.123 407.114 394.069 406.814 393.944 406.541C393.819 406.268 393.627 406.031 393.385 405.852C392.726 405.472 391.968 405.298 391.209 405.352H388.938Z" fill="#757575"/>
<path d="M658.141 159.758H650.633V158.641L653.641 155.618C654.285 154.994 654.89 154.331 655.453 153.633C655.722 153.278 655.942 152.889 656.109 152.477C656.257 152.091 656.331 151.68 656.328 151.266C656.341 150.999 656.299 150.732 656.203 150.483C656.108 150.233 655.961 150.007 655.773 149.817C655.564 149.631 655.321 149.488 655.057 149.396C654.793 149.304 654.513 149.265 654.234 149.282C653.774 149.279 653.318 149.359 652.886 149.516C652.372 149.725 651.894 150.012 651.468 150.368L650.781 149.485C651.732 148.648 652.953 148.183 654.219 148.173C655.134 148.119 656.035 148.414 656.742 148.997C657.047 149.277 657.287 149.62 657.445 150.003C657.602 150.386 657.675 150.798 657.656 151.212C657.646 151.969 657.436 152.709 657.047 153.358C656.406 154.349 655.64 155.253 654.766 156.047L652.266 158.492V158.558H658.141V159.758ZM667.352 154.031C667.455 155.564 667.131 157.097 666.418 158.458C666.116 158.934 665.691 159.32 665.189 159.576C664.687 159.832 664.126 159.948 663.563 159.914C663.005 159.937 662.451 159.81 661.958 159.546C661.466 159.282 661.053 158.891 660.763 158.414C660.039 157.071 659.706 155.553 659.8 154.031C659.696 152.497 660.017 150.964 660.73 149.601C661.031 149.13 661.452 148.748 661.95 148.494C662.448 148.241 663.005 148.125 663.563 148.158C664.126 148.133 664.685 148.26 665.181 148.526C665.678 148.791 666.094 149.185 666.387 149.666C667.11 151.002 667.444 152.514 667.352 154.031ZM661.11 154.031C661.035 155.269 661.237 156.508 661.7 157.658C661.863 158.011 662.127 158.308 662.458 158.511C662.79 158.714 663.175 158.813 663.563 158.797C663.955 158.815 664.344 158.715 664.679 158.51C665.014 158.304 665.279 158.003 665.441 157.645C665.897 156.498 666.096 155.264 666.023 154.032C666.097 152.802 665.898 151.571 665.441 150.427C665.278 150.07 665.012 149.77 664.677 149.566C664.342 149.362 663.954 149.263 663.562 149.282C663.175 149.265 662.792 149.363 662.46 149.564C662.129 149.765 661.864 150.059 661.7 150.41C661.236 151.558 661.034 152.795 661.109 154.031H661.11Z" fill="#757575"/>
<path d="M658.141 221.758H650.633V220.641L653.641 217.618C654.285 216.994 654.89 216.331 655.453 215.633C655.722 215.278 655.942 214.889 656.109 214.477C656.257 214.091 656.331 213.68 656.328 213.266C656.341 212.999 656.299 212.732 656.203 212.483C656.108 212.233 655.961 212.007 655.773 211.817C655.564 211.631 655.321 211.488 655.057 211.396C654.793 211.304 654.513 211.265 654.234 211.282C653.774 211.279 653.318 211.359 652.886 211.516C652.372 211.725 651.894 212.012 651.468 212.368L650.781 211.485C651.732 210.648 652.953 210.183 654.219 210.173C655.134 210.119 656.035 210.414 656.742 210.997C657.047 211.277 657.287 211.62 657.445 212.003C657.602 212.386 657.675 212.798 657.656 213.212C657.646 213.969 657.436 214.709 657.047 215.358C656.406 216.349 655.64 217.253 654.766 218.047L652.266 220.492V220.558H658.141V221.758ZM667.352 216.031C667.455 217.564 667.131 219.097 666.418 220.458C666.116 220.934 665.691 221.32 665.189 221.576C664.687 221.832 664.126 221.948 663.563 221.914C663.005 221.937 662.451 221.81 661.958 221.546C661.466 221.282 661.053 220.891 660.763 220.414C660.039 219.071 659.706 217.553 659.8 216.031C659.696 214.497 660.017 212.964 660.73 211.601C661.031 211.13 661.452 210.748 661.95 210.494C662.448 210.241 663.005 210.125 663.563 210.158C664.126 210.133 664.685 210.26 665.181 210.526C665.678 210.791 666.094 211.185 666.387 211.666C667.11 213.002 667.444 214.514 667.352 216.031ZM661.11 216.031C661.035 217.269 661.237 218.508 661.7 219.658C661.863 220.011 662.127 220.308 662.458 220.511C662.79 220.714 663.175 220.813 663.563 220.797C663.955 220.815 664.344 220.715 664.679 220.51C665.014 220.304 665.279 220.003 665.441 219.645C665.897 218.498 666.096 217.264 666.023 216.032C666.097 214.802 665.898 213.571 665.441 212.427C665.278 212.07 665.012 211.77 664.677 211.566C664.342 211.362 663.954 211.263 663.562 211.282C663.175 211.265 662.792 211.363 662.46 211.564C662.129 211.765 661.864 212.059 661.7 212.41C661.236 213.558 661.034 214.795 661.109 216.031H661.11Z" fill="#757575"/>
<path d="M658.141 283.758H650.633V282.641L653.641 279.618C654.285 278.994 654.89 278.331 655.453 277.633C655.722 277.278 655.942 276.889 656.109 276.477C656.257 276.091 656.331 275.68 656.328 275.266C656.341 274.999 656.299 274.732 656.203 274.483C656.108 274.233 655.961 274.007 655.773 273.817C655.564 273.631 655.321 273.488 655.057 273.396C654.793 273.304 654.513 273.265 654.234 273.282C653.774 273.279 653.318 273.359 652.886 273.516C652.372 273.725 651.894 274.012 651.468 274.368L650.781 273.485C651.732 272.648 652.953 272.183 654.219 272.173C655.134 272.119 656.035 272.414 656.742 272.997C657.047 273.277 657.287 273.62 657.445 274.003C657.602 274.386 657.675 274.798 657.656 275.212C657.646 275.969 657.436 276.709 657.047 277.358C656.406 278.349 655.64 279.253 654.766 280.047L652.266 282.492V282.558H658.141V283.758ZM667.352 278.031C667.455 279.564 667.131 281.097 666.418 282.458C666.116 282.934 665.691 283.32 665.189 283.576C664.687 283.832 664.126 283.948 663.563 283.914C663.005 283.937 662.451 283.81 661.958 283.546C661.466 283.282 661.053 282.891 660.763 282.414C660.039 281.071 659.706 279.553 659.8 278.031C659.696 276.497 660.017 274.964 660.73 273.601C661.031 273.13 661.452 272.748 661.95 272.494C662.448 272.241 663.005 272.125 663.563 272.158C664.126 272.133 664.685 272.26 665.181 272.526C665.678 272.791 666.094 273.185 666.387 273.666C667.11 275.002 667.444 276.514 667.352 278.031ZM661.11 278.031C661.035 279.269 661.237 280.508 661.7 281.658C661.863 282.011 662.127 282.308 662.458 282.511C662.79 282.714 663.175 282.813 663.563 282.797C663.955 282.815 664.344 282.715 664.679 282.51C665.014 282.304 665.279 282.003 665.441 281.645C665.897 280.498 666.096 279.264 666.023 278.032C666.097 276.802 665.898 275.571 665.441 274.427C665.278 274.07 665.012 273.77 664.677 273.566C664.342 273.362 663.954 273.263 663.562 273.282C663.175 273.265 662.792 273.363 662.46 273.564C662.129 273.765 661.864 274.059 661.7 274.41C661.236 275.558 661.034 276.795 661.109 278.031H661.11Z" fill="#757575"/>
<path d="M658.141 345.758H650.633V344.641L653.641 341.618C654.285 340.994 654.89 340.331 655.453 339.633C655.722 339.278 655.942 338.889 656.109 338.477C656.257 338.091 656.331 337.68 656.328 337.266C656.341 336.999 656.299 336.732 656.203 336.483C656.108 336.233 655.961 336.007 655.773 335.817C655.564 335.631 655.321 335.488 655.057 335.396C654.793 335.304 654.513 335.265 654.234 335.282C653.774 335.279 653.318 335.359 652.886 335.516C652.372 335.725 651.894 336.012 651.468 336.368L650.781 335.485C651.732 334.648 652.953 334.183 654.219 334.173C655.134 334.119 656.035 334.414 656.742 334.997C657.047 335.277 657.287 335.62 657.445 336.003C657.602 336.386 657.675 336.798 657.656 337.212C657.646 337.969 657.436 338.709 657.047 339.358C656.406 340.349 655.64 341.253 654.766 342.047L652.266 344.492V344.558H658.141V345.758ZM667.352 340.031C667.455 341.564 667.131 343.097 666.418 344.458C666.116 344.934 665.691 345.32 665.189 345.576C664.687 345.832 664.126 345.948 663.563 345.914C663.005 345.937 662.451 345.81 661.958 345.546C661.466 345.282 661.053 344.891 660.763 344.414C660.039 343.071 659.706 341.553 659.8 340.031C659.696 338.497 660.017 336.964 660.73 335.601C661.031 335.13 661.452 334.748 661.95 334.494C662.448 334.241 663.005 334.125 663.563 334.158C664.126 334.133 664.685 334.26 665.181 334.526C665.678 334.791 666.094 335.185 666.387 335.666C667.11 337.002 667.444 338.514 667.352 340.031ZM661.11 340.031C661.035 341.269 661.237 342.508 661.7 343.658C661.863 344.011 662.127 344.308 662.458 344.511C662.79 344.714 663.175 344.813 663.563 344.797C663.955 344.815 664.344 344.715 664.679 344.51C665.014 344.304 665.279 344.003 665.441 343.645C665.897 342.498 666.096 341.264 666.023 340.032C666.097 338.802 665.898 337.571 665.441 336.427C665.278 336.07 665.012 335.77 664.677 335.566C664.342 335.362 663.954 335.263 663.562 335.282C663.175 335.265 662.792 335.363 662.46 335.564C662.129 335.765 661.864 336.059 661.7 336.41C661.236 337.558 661.034 338.795 661.109 340.031H661.11Z" fill="#757575"/>
<path d="M658.141 410.758H650.633V409.641L653.641 406.618C654.285 405.994 654.89 405.331 655.453 404.633C655.722 404.278 655.942 403.889 656.109 403.477C656.257 403.091 656.331 402.68 656.328 402.266C656.341 401.999 656.299 401.732 656.203 401.483C656.108 401.233 655.961 401.007 655.773 400.817C655.564 400.631 655.321 400.488 655.057 400.396C654.793 400.304 654.513 400.265 654.234 400.282C653.774 400.279 653.318 400.359 652.886 400.516C652.372 400.725 651.894 401.012 651.468 401.368L650.781 400.485C651.732 399.648 652.953 399.183 654.219 399.173C655.134 399.119 656.035 399.414 656.742 399.997C657.047 400.277 657.287 400.62 657.445 401.003C657.602 401.386 657.675 401.798 657.656 402.212C657.646 402.969 657.436 403.709 657.047 404.358C656.406 405.349 655.64 406.253 654.766 407.047L652.266 409.492V409.558H658.141V410.758ZM667.352 405.031C667.455 406.564 667.131 408.097 666.418 409.458C666.116 409.934 665.691 410.32 665.189 410.576C664.687 410.832 664.126 410.948 663.563 410.914C663.005 410.937 662.451 410.81 661.958 410.546C661.466 410.282 661.053 409.891 660.763 409.414C660.039 408.071 659.706 406.553 659.8 405.031C659.696 403.497 660.017 401.964 660.73 400.601C661.031 400.13 661.452 399.748 661.95 399.494C662.448 399.241 663.005 399.125 663.563 399.158C664.126 399.133 664.685 399.26 665.181 399.526C665.678 399.791 666.094 400.185 666.387 400.666C667.11 402.002 667.444 403.514 667.352 405.031ZM661.11 405.031C661.035 406.269 661.237 407.508 661.7 408.658C661.863 409.011 662.127 409.308 662.458 409.511C662.79 409.714 663.175 409.813 663.563 409.797C663.955 409.815 664.344 409.715 664.679 409.51C665.014 409.304 665.279 409.003 665.441 408.645C665.897 407.498 666.096 406.264 666.023 405.032C666.097 403.802 665.898 402.571 665.441 401.427C665.278 401.07 665.012 400.77 664.677 400.566C664.342 400.362 663.954 400.263 663.562 400.282C663.175 400.265 662.792 400.363 662.46 400.564C662.129 400.765 661.864 401.059 661.7 401.41C661.236 402.558 661.034 403.795 661.109 405.031H661.11Z" fill="#757575"/>
<g filter="url(#filter1_d_206_2572)">
<path d="M560.073 202.5H476.5C469.873 202.5 464.5 207.873 464.5 214.5V216.5C464.5 223.127 469.873 228.5 476.5 228.5H560.073C566.7 228.5 572.073 223.127 572.073 216.5V214.5C572.073 207.873 566.7 202.5 560.073 202.5Z" fill="#D2D2D2" stroke="#D3D3D3" stroke-width="0.5"/>
</g>
<path d="M502.828 221.465V210.043H504.156V221.465H502.828ZM512.953 221.465V215.926C512.997 215.364 512.827 214.807 512.477 214.365C512.278 214.179 512.043 214.037 511.786 213.948C511.529 213.86 511.256 213.826 510.985 213.849C510.624 213.818 510.26 213.866 509.919 213.992C509.579 214.118 509.27 214.317 509.016 214.576C508.535 215.279 508.314 216.128 508.391 216.976V221.465H507.091V212.903H508.146L508.357 214.075H508.42C508.691 213.648 509.079 213.308 509.537 213.095C510.037 212.859 510.584 212.74 511.137 212.747C511.981 212.683 512.816 212.951 513.465 213.493C513.751 213.817 513.967 214.196 514.102 214.606C514.236 215.016 514.285 215.45 514.246 215.88V221.465H512.953ZM522.18 221.465L521.922 220.246H521.86C521.526 220.705 521.088 221.079 520.582 221.336C520.078 221.541 519.536 221.638 518.992 221.621C518.269 221.662 517.557 221.428 517 220.965C516.752 220.724 516.559 220.433 516.434 220.111C516.309 219.788 516.256 219.443 516.277 219.098C516.277 217.369 517.66 216.462 520.425 216.379L521.878 216.332V215.801C521.921 215.268 521.767 214.739 521.444 214.313C521.26 214.139 521.041 214.006 520.802 213.924C520.563 213.841 520.309 213.81 520.057 213.833C519.211 213.867 518.383 214.092 517.635 214.489L517.235 213.497C517.674 213.261 518.14 213.08 518.622 212.958C519.116 212.827 519.624 212.76 520.134 212.758C520.949 212.692 521.759 212.935 522.404 213.438C522.673 213.73 522.877 214.074 523.004 214.45C523.131 214.825 523.178 215.223 523.142 215.618V221.465H522.18ZM519.25 220.551C519.946 220.59 520.63 220.351 521.15 219.887C521.388 219.642 521.573 219.35 521.692 219.03C521.811 218.71 521.861 218.369 521.841 218.028V217.255L520.541 217.31C519.77 217.285 519.004 217.45 518.311 217.79C518.088 217.928 517.906 218.124 517.786 218.357C517.665 218.591 517.611 218.852 517.627 219.114C517.614 219.313 517.645 219.512 517.719 219.697C517.793 219.882 517.907 220.049 518.053 220.184C518.394 220.448 518.82 220.579 519.25 220.551ZM529.234 221.621C528.7 221.653 528.165 221.567 527.667 221.369C527.17 221.172 526.722 220.867 526.355 220.477C525.624 219.562 525.261 218.408 525.335 217.239C525.258 216.042 525.627 214.86 526.37 213.919C526.745 213.518 527.204 213.205 527.714 213.003C528.224 212.8 528.772 212.712 529.32 212.746C529.735 212.746 530.149 212.791 530.554 212.879C530.889 212.942 531.215 213.047 531.523 213.192L531.123 214.292C530.819 214.172 530.506 214.077 530.186 214.007C529.891 213.937 529.589 213.899 529.286 213.894C527.547 213.894 526.677 215.003 526.677 217.222C526.622 218.078 526.847 218.928 527.316 219.645C527.538 219.928 527.826 220.152 528.154 220.299C528.482 220.446 528.841 220.511 529.2 220.488C529.957 220.48 530.704 220.323 531.4 220.027V221.176C530.724 221.495 529.981 221.648 529.234 221.621ZM536.2 220.551C536.422 220.551 536.644 220.534 536.864 220.5C537.035 220.475 537.205 220.44 537.372 220.395V221.387C537.172 221.471 536.961 221.528 536.746 221.555C536.502 221.597 536.255 221.619 536.008 221.621C534.352 221.621 533.524 220.749 533.524 219.004V213.91H532.3V213.285L533.527 212.746L534.074 210.918H534.824V212.902H537.3V213.91H534.82V218.949C534.791 219.377 534.922 219.8 535.187 220.137C535.315 220.277 535.472 220.386 535.647 220.458C535.822 220.53 536.011 220.561 536.2 220.551ZM540.375 221.465H539.075V212.903H540.375V221.465ZM538.969 210.582C538.959 210.464 538.973 210.345 539.011 210.233C539.048 210.121 539.109 210.018 539.188 209.93C539.261 209.861 539.347 209.808 539.441 209.772C539.535 209.737 539.635 209.72 539.735 209.723C539.936 209.72 540.129 209.796 540.274 209.934C540.355 210.02 540.417 210.122 540.456 210.234C540.495 210.346 540.511 210.464 540.501 210.582C540.51 210.7 540.495 210.82 540.456 210.932C540.417 211.044 540.355 211.147 540.274 211.234C540.203 211.304 540.119 211.358 540.026 211.395C539.934 211.432 539.835 211.45 539.735 211.449C539.634 211.452 539.534 211.434 539.44 211.397C539.346 211.36 539.26 211.305 539.188 211.234C539.11 211.146 539.05 211.042 539.012 210.93C538.974 210.818 538.96 210.7 538.969 210.582ZM545 221.465L541.75 212.903H543.141L544.985 217.981C545.269 218.739 545.514 219.511 545.719 220.294H545.782C545.934 219.713 546.115 219.141 546.325 218.579C546.63 217.712 547.313 215.82 548.376 212.903H549.767L546.516 221.465H545ZM554.758 221.621C554.205 221.65 553.652 221.563 553.135 221.363C552.618 221.164 552.149 220.858 551.758 220.465C550.984 219.581 550.589 218.427 550.658 217.254C550.596 216.07 550.96 214.904 551.684 213.965C552.016 213.565 552.436 213.248 552.911 213.036C553.386 212.825 553.903 212.725 554.422 212.746C554.899 212.723 555.374 212.807 555.814 212.99C556.255 213.173 556.649 213.451 556.969 213.805C557.621 214.586 557.956 215.582 557.907 216.598V217.418H552.007C551.972 218.249 552.243 219.063 552.769 219.707C553.033 219.974 553.35 220.182 553.7 220.317C554.051 220.452 554.425 220.51 554.8 220.488C555.741 220.484 556.672 220.287 557.534 219.91V221.065C557.116 221.25 556.681 221.393 556.234 221.491C555.748 221.584 555.253 221.628 554.758 221.621ZM554.406 213.832C554.1 213.818 553.794 213.871 553.51 213.987C553.226 214.103 552.97 214.28 552.761 214.504C552.322 215.028 552.068 215.682 552.039 216.365H556.516C556.561 215.694 556.367 215.028 555.969 214.486C555.776 214.265 555.534 214.091 555.263 213.978C554.993 213.864 554.699 213.815 554.406 213.832Z" fill="#606060"/>
<path d="M478.5 226C484.299 226 489 221.299 489 215.5C489 209.701 484.299 205 478.5 205C472.701 205 468 209.701 468 215.5C468 221.299 472.701 226 478.5 226Z" fill="white"/>
<g filter="url(#filter2_d_206_2572)">
<path d="M560.073 327.5H476.5C469.873 327.5 464.5 332.873 464.5 339.5V341.5C464.5 348.127 469.873 353.5 476.5 353.5H560.073C566.7 353.5 572.073 348.127 572.073 341.5V339.5C572.073 332.873 566.7 327.5 560.073 327.5Z" fill="#4BBB40" stroke="#D3D3D3" stroke-width="0.5"/>
</g>
<path d="M493.108 346.465L491.686 342.832H487.108L485.702 346.465H484.358L488.873 334.996H489.99L494.483 346.465H493.108ZM491.273 341.637L489.945 338.098C489.773 337.65 489.596 337.101 489.414 336.45C489.282 337.008 489.118 337.559 488.922 338.098L487.573 341.637H491.273ZM499.28 346.621C498.746 346.653 498.211 346.567 497.713 346.369C497.216 346.172 496.768 345.867 496.401 345.477C495.67 344.562 495.306 343.408 495.381 342.239C495.304 341.042 495.673 339.86 496.416 338.919C496.791 338.518 497.25 338.205 497.76 338.003C498.27 337.8 498.818 337.712 499.366 337.746C499.781 337.746 500.194 337.791 500.6 337.879C500.936 337.942 501.263 338.047 501.573 338.192L501.173 339.292C500.869 339.172 500.555 339.077 500.236 339.007C499.941 338.937 499.639 338.899 499.336 338.894C497.597 338.894 496.727 340.003 496.727 342.222C496.671 343.077 496.894 343.927 497.362 344.645C497.584 344.929 497.872 345.154 498.201 345.301C498.53 345.448 498.889 345.512 499.249 345.489C500.005 345.481 500.753 345.324 501.449 345.028V346.176C500.772 346.496 500.028 346.648 499.28 346.621ZM506.241 345.551C506.463 345.551 506.685 345.534 506.905 345.5C507.076 345.475 507.246 345.44 507.413 345.395V346.387C507.215 346.471 507.006 346.527 506.792 346.555C506.548 346.597 506.301 346.619 506.053 346.621C504.4 346.621 503.573 345.749 503.573 344.004V338.91H502.343V338.285L503.573 337.746L504.12 335.918H504.87V337.902H507.35V338.91H504.866V343.949C504.837 344.377 504.968 344.8 505.233 345.137C505.36 345.276 505.516 345.385 505.691 345.457C505.865 345.528 506.053 345.561 506.241 345.551ZM510.421 346.465H509.121V337.903H510.421V346.465ZM509.014 335.582C509.004 335.464 509.018 335.345 509.055 335.233C509.093 335.121 509.154 335.018 509.233 334.93C509.306 334.861 509.392 334.808 509.486 334.772C509.58 334.737 509.68 334.72 509.78 334.723C509.98 334.72 510.174 334.796 510.319 334.934C510.4 335.02 510.462 335.122 510.501 335.234C510.54 335.346 510.555 335.464 510.546 335.582C510.555 335.7 510.54 335.82 510.501 335.932C510.462 336.044 510.4 336.147 510.319 336.234C510.248 336.304 510.163 336.358 510.071 336.395C509.978 336.432 509.879 336.45 509.78 336.449C509.679 336.452 509.578 336.434 509.484 336.397C509.39 336.36 509.305 336.305 509.233 336.234C509.154 336.146 509.094 336.042 509.057 335.93C509.019 335.818 509.005 335.7 509.014 335.582ZM515.046 346.465L511.796 337.903H513.186L515.03 342.981C515.313 343.739 515.558 344.511 515.764 345.294H515.827C515.979 344.713 516.162 344.14 516.373 343.578C516.678 342.711 517.361 340.819 518.424 337.902H519.815L516.561 346.465H515.046ZM524.803 346.621C524.25 346.65 523.696 346.563 523.179 346.363C522.662 346.164 522.193 345.858 521.803 345.465C521.029 344.581 520.634 343.427 520.703 342.254C520.641 341.07 521.005 339.904 521.729 338.965C522.061 338.565 522.481 338.248 522.956 338.036C523.431 337.825 523.948 337.726 524.467 337.746C524.943 337.723 525.419 337.807 525.859 337.99C526.3 338.173 526.694 338.451 527.014 338.805C527.666 339.586 528 340.582 527.952 341.598V342.418H522.052C522.017 343.249 522.288 344.063 522.814 344.707C523.078 344.975 523.396 345.183 523.747 345.318C524.098 345.453 524.474 345.511 524.849 345.488C525.79 345.484 526.721 345.287 527.583 344.91V346.065C527.165 346.25 526.729 346.393 526.283 346.491C525.795 346.585 525.299 346.628 524.803 346.621ZM524.451 338.832C524.144 338.818 523.839 338.871 523.555 338.987C523.27 339.103 523.015 339.28 522.806 339.504C522.367 340.028 522.114 340.682 522.085 341.365H526.562C526.607 340.694 526.413 340.028 526.015 339.486C525.822 339.265 525.58 339.091 525.309 338.978C525.038 338.864 524.745 338.815 524.452 338.832H524.451Z" fill="white"/>
<path d="M558.073 351C563.872 351 568.573 346.299 568.573 340.5C568.573 334.701 563.872 330 558.073 330C552.274 330 547.573 334.701 547.573 340.5C547.573 346.299 552.274 351 558.073 351Z" fill="white"/>
<g filter="url(#filter3_d_206_2572)">
<path d="M560.073 138.5H476.5C469.873 138.5 464.5 143.873 464.5 150.5V152.5C464.5 159.127 469.873 164.5 476.5 164.5H560.073C566.7 164.5 572.073 159.127 572.073 152.5V150.5C572.073 143.873 566.7 138.5 560.073 138.5Z" fill="#4BBB40" stroke="#D3D3D3" stroke-width="0.5"/>
</g>
<path d="M493.108 157.465L491.686 153.832H487.108L485.702 157.465H484.358L488.873 145.996H489.99L494.483 157.465H493.108ZM491.273 152.637L489.945 149.098C489.773 148.65 489.596 148.101 489.414 147.45C489.282 148.008 489.118 148.559 488.922 149.098L487.573 152.637H491.273ZM499.28 157.621C498.746 157.653 498.211 157.567 497.713 157.369C497.216 157.172 496.768 156.867 496.401 156.477C495.67 155.562 495.306 154.408 495.381 153.239C495.304 152.042 495.673 150.86 496.416 149.919C496.791 149.518 497.25 149.205 497.76 149.003C498.27 148.8 498.818 148.712 499.366 148.746C499.781 148.746 500.194 148.791 500.6 148.879C500.936 148.942 501.263 149.047 501.573 149.192L501.173 150.292C500.869 150.172 500.555 150.077 500.236 150.007C499.941 149.937 499.639 149.899 499.336 149.894C497.597 149.894 496.727 151.003 496.727 153.222C496.671 154.077 496.894 154.927 497.362 155.645C497.584 155.929 497.872 156.154 498.201 156.301C498.53 156.448 498.889 156.512 499.249 156.489C500.005 156.481 500.753 156.324 501.449 156.028V157.176C500.772 157.496 500.028 157.648 499.28 157.621ZM506.241 156.551C506.463 156.551 506.685 156.534 506.905 156.5C507.076 156.475 507.246 156.44 507.413 156.395V157.387C507.215 157.471 507.006 157.527 506.792 157.555C506.548 157.597 506.301 157.619 506.053 157.621C504.4 157.621 503.573 156.749 503.573 155.004V149.91H502.343V149.285L503.573 148.746L504.12 146.918H504.87V148.902H507.35V149.91H504.866V154.949C504.837 155.377 504.968 155.8 505.233 156.137C505.36 156.276 505.516 156.385 505.691 156.457C505.865 156.528 506.053 156.561 506.241 156.551ZM510.421 157.465H509.121V148.903H510.421V157.465ZM509.014 146.582C509.004 146.464 509.018 146.345 509.055 146.233C509.093 146.121 509.154 146.018 509.233 145.93C509.306 145.861 509.392 145.808 509.486 145.772C509.58 145.737 509.68 145.72 509.78 145.723C509.98 145.72 510.174 145.796 510.319 145.934C510.4 146.02 510.462 146.122 510.501 146.234C510.54 146.346 510.555 146.464 510.546 146.582C510.555 146.7 510.54 146.82 510.501 146.932C510.462 147.044 510.4 147.147 510.319 147.234C510.248 147.304 510.163 147.358 510.071 147.395C509.978 147.432 509.879 147.45 509.78 147.449C509.679 147.452 509.578 147.434 509.484 147.397C509.39 147.36 509.305 147.305 509.233 147.234C509.154 147.146 509.094 147.042 509.057 146.93C509.019 146.818 509.005 146.7 509.014 146.582ZM515.046 157.465L511.796 148.903H513.186L515.03 153.981C515.313 154.739 515.558 155.511 515.764 156.294H515.827C515.979 155.713 516.162 155.14 516.373 154.578C516.678 153.711 517.361 151.819 518.424 148.902H519.815L516.561 157.465H515.046ZM524.803 157.621C524.25 157.65 523.696 157.563 523.179 157.363C522.662 157.164 522.193 156.858 521.803 156.465C521.029 155.581 520.634 154.427 520.703 153.254C520.641 152.07 521.005 150.904 521.729 149.965C522.061 149.565 522.481 149.248 522.956 149.036C523.431 148.825 523.948 148.725 524.467 148.746C524.943 148.723 525.419 148.807 525.859 148.99C526.3 149.173 526.694 149.451 527.014 149.805C527.666 150.586 528 151.582 527.952 152.598V153.418H522.052C522.017 154.249 522.288 155.063 522.814 155.707C523.078 155.975 523.396 156.183 523.747 156.318C524.098 156.452 524.474 156.511 524.849 156.488C525.79 156.484 526.721 156.287 527.583 155.91V157.065C527.165 157.25 526.729 157.393 526.283 157.491C525.795 157.584 525.299 157.628 524.803 157.621ZM524.451 149.832C524.144 149.818 523.839 149.871 523.555 149.987C523.27 150.103 523.015 150.28 522.806 150.504C522.367 151.028 522.114 151.682 522.085 152.365H526.562C526.607 151.694 526.413 151.028 526.015 150.486C525.822 150.265 525.58 150.091 525.309 149.978C525.038 149.864 524.745 149.815 524.452 149.832H524.451Z" fill="white"/>
<path d="M558.073 162C563.872 162 568.573 157.299 568.573 151.5C568.573 145.701 563.872 141 558.073 141C552.274 141 547.573 145.701 547.573 151.5C547.573 157.299 552.274 162 558.073 162Z" fill="white"/>
<g filter="url(#filter4_d_206_2572)">
<path d="M560.073 264.5H476.5C469.873 264.5 464.5 269.873 464.5 276.5V278.5C464.5 285.127 469.873 290.5 476.5 290.5H560.073C566.7 290.5 572.073 285.127 572.073 278.5V276.5C572.073 269.873 566.7 264.5 560.073 264.5Z" fill="#D2D2D2" stroke="#D3D3D3" stroke-width="0.5"/>
</g>
<path d="M502.828 283.465V272.043H504.156V283.465H502.828ZM512.953 283.465V277.926C512.997 277.364 512.827 276.807 512.477 276.365C512.278 276.179 512.043 276.037 511.786 275.948C511.529 275.86 511.256 275.826 510.985 275.849C510.624 275.818 510.26 275.866 509.919 275.992C509.579 276.118 509.27 276.317 509.016 276.576C508.535 277.279 508.314 278.128 508.391 278.976V283.465H507.091V274.903H508.146L508.357 276.075H508.42C508.691 275.648 509.079 275.308 509.537 275.095C510.037 274.859 510.584 274.74 511.137 274.747C511.981 274.683 512.816 274.951 513.465 275.493C513.751 275.817 513.967 276.196 514.102 276.606C514.236 277.016 514.285 277.45 514.246 277.88V283.465H512.953ZM522.18 283.465L521.922 282.246H521.86C521.526 282.705 521.088 283.079 520.582 283.336C520.078 283.541 519.536 283.638 518.992 283.621C518.269 283.662 517.557 283.428 517 282.965C516.752 282.724 516.559 282.433 516.434 282.111C516.309 281.788 516.256 281.443 516.277 281.098C516.277 279.369 517.66 278.462 520.425 278.379L521.878 278.332V277.801C521.921 277.269 521.767 276.739 521.444 276.313C521.26 276.139 521.041 276.006 520.802 275.924C520.563 275.841 520.309 275.81 520.057 275.833C519.211 275.867 518.383 276.092 517.635 276.489L517.235 275.497C517.674 275.261 518.14 275.08 518.622 274.958C519.116 274.827 519.624 274.76 520.134 274.758C520.949 274.692 521.759 274.935 522.404 275.438C522.673 275.73 522.877 276.074 523.004 276.45C523.131 276.825 523.178 277.223 523.142 277.618V283.465H522.18ZM519.25 282.551C519.946 282.59 520.63 282.351 521.15 281.887C521.388 281.642 521.573 281.35 521.692 281.03C521.811 280.71 521.861 280.369 521.841 280.028V279.255L520.541 279.31C519.77 279.285 519.004 279.45 518.311 279.79C518.088 279.928 517.906 280.124 517.786 280.357C517.665 280.591 517.611 280.852 517.627 281.114C517.614 281.313 517.645 281.512 517.719 281.697C517.793 281.882 517.907 282.049 518.053 282.184C518.394 282.448 518.82 282.579 519.25 282.551ZM529.234 283.621C528.7 283.653 528.165 283.567 527.667 283.369C527.17 283.172 526.722 282.867 526.355 282.477C525.624 281.562 525.261 280.408 525.335 279.239C525.258 278.042 525.627 276.86 526.37 275.919C526.745 275.518 527.204 275.205 527.714 275.003C528.224 274.8 528.772 274.712 529.32 274.746C529.735 274.746 530.149 274.791 530.554 274.879C530.889 274.942 531.215 275.047 531.523 275.192L531.123 276.292C530.819 276.172 530.506 276.077 530.186 276.007C529.891 275.937 529.589 275.899 529.286 275.894C527.547 275.894 526.677 277.003 526.677 279.222C526.622 280.078 526.847 280.928 527.316 281.645C527.538 281.928 527.826 282.153 528.154 282.299C528.482 282.446 528.841 282.511 529.2 282.488C529.957 282.48 530.704 282.323 531.4 282.027V283.176C530.724 283.495 529.981 283.648 529.234 283.621ZM536.2 282.551C536.422 282.551 536.644 282.534 536.864 282.5C537.035 282.475 537.205 282.44 537.372 282.395V283.387C537.172 283.471 536.961 283.528 536.746 283.555C536.502 283.597 536.255 283.619 536.008 283.621C534.352 283.621 533.524 282.749 533.524 281.004V275.91H532.3V275.285L533.527 274.746L534.074 272.918H534.824V274.902H537.3V275.91H534.82V280.949C534.791 281.377 534.922 281.8 535.187 282.137C535.315 282.277 535.472 282.386 535.647 282.458C535.822 282.53 536.011 282.561 536.2 282.551ZM540.375 283.465H539.075V274.903H540.375V283.465ZM538.969 272.582C538.959 272.464 538.973 272.345 539.011 272.233C539.048 272.121 539.109 272.018 539.188 271.93C539.261 271.861 539.347 271.808 539.441 271.772C539.535 271.737 539.635 271.72 539.735 271.723C539.936 271.72 540.129 271.796 540.274 271.934C540.355 272.02 540.417 272.122 540.456 272.234C540.495 272.346 540.511 272.464 540.501 272.582C540.51 272.7 540.495 272.82 540.456 272.932C540.417 273.044 540.355 273.147 540.274 273.234C540.203 273.304 540.119 273.358 540.026 273.395C539.934 273.432 539.835 273.45 539.735 273.449C539.634 273.452 539.534 273.434 539.44 273.397C539.346 273.36 539.26 273.305 539.188 273.234C539.11 273.146 539.05 273.042 539.012 272.93C538.974 272.818 538.96 272.7 538.969 272.582ZM545 283.465L541.75 274.903H543.141L544.985 279.981C545.269 280.739 545.514 281.511 545.719 282.294H545.782C545.934 281.713 546.115 281.141 546.325 280.579C546.63 279.712 547.313 277.82 548.376 274.903H549.767L546.516 283.465H545ZM554.758 283.621C554.205 283.65 553.652 283.563 553.135 283.363C552.618 283.164 552.149 282.858 551.758 282.465C550.984 281.581 550.589 280.427 550.658 279.254C550.596 278.07 550.96 276.904 551.684 275.965C552.016 275.565 552.436 275.248 552.911 275.036C553.386 274.825 553.903 274.726 554.422 274.746C554.899 274.723 555.374 274.807 555.814 274.99C556.255 275.173 556.649 275.451 556.969 275.805C557.621 276.586 557.956 277.582 557.907 278.598V279.418H552.007C551.972 280.249 552.243 281.063 552.769 281.707C553.033 281.974 553.35 282.182 553.7 282.317C554.051 282.452 554.425 282.51 554.8 282.488C555.741 282.484 556.672 282.287 557.534 281.91V283.065C557.116 283.25 556.681 283.393 556.234 283.491C555.748 283.584 555.253 283.628 554.758 283.621ZM554.406 275.832C554.1 275.818 553.794 275.871 553.51 275.987C553.226 276.103 552.97 276.28 552.761 276.504C552.322 277.028 552.068 277.682 552.039 278.365H556.516C556.561 277.694 556.367 277.028 555.969 276.486C555.776 276.265 555.534 276.091 555.263 275.978C554.993 275.864 554.699 275.815 554.406 275.832Z" fill="#606060"/>
<path d="M478.5 288C484.299 288 489 283.299 489 277.5C489 271.701 484.299 267 478.5 267C472.701 267 468 271.701 468 277.5C468 283.299 472.701 288 478.5 288Z" fill="white"/>
<g filter="url(#filter5_d_206_2572)">
<path d="M560.073 391.5H476.5C469.873 391.5 464.5 396.873 464.5 403.5V405.5C464.5 412.127 469.873 417.5 476.5 417.5H560.073C566.7 417.5 572.073 412.127 572.073 405.5V403.5C572.073 396.873 566.7 391.5 560.073 391.5Z" fill="#D2D2D2" stroke="#D3D3D3" stroke-width="0.5"/>
</g>
<path d="M502.828 410.465V399.043H504.156V410.465H502.828ZM512.953 410.465V404.926C512.997 404.364 512.827 403.807 512.477 403.365C512.278 403.179 512.043 403.037 511.786 402.948C511.529 402.86 511.256 402.826 510.985 402.849C510.624 402.818 510.26 402.866 509.919 402.992C509.579 403.118 509.27 403.317 509.016 403.576C508.535 404.279 508.314 405.128 508.391 405.976V410.465H507.091V401.903H508.146L508.357 403.075H508.42C508.691 402.648 509.079 402.308 509.537 402.095C510.037 401.859 510.584 401.74 511.137 401.747C511.981 401.683 512.816 401.951 513.465 402.493C513.751 402.817 513.967 403.196 514.102 403.606C514.236 404.016 514.285 404.45 514.246 404.88V410.465H512.953ZM522.18 410.465L521.922 409.246H521.86C521.526 409.705 521.088 410.079 520.582 410.336C520.078 410.541 519.536 410.638 518.992 410.621C518.269 410.662 517.557 410.428 517 409.965C516.752 409.724 516.559 409.433 516.434 409.111C516.309 408.788 516.256 408.443 516.277 408.098C516.277 406.369 517.66 405.462 520.425 405.379L521.878 405.332V404.801C521.921 404.269 521.767 403.739 521.444 403.313C521.26 403.139 521.041 403.006 520.802 402.924C520.563 402.841 520.309 402.81 520.057 402.833C519.211 402.867 518.383 403.092 517.635 403.489L517.235 402.497C517.674 402.261 518.14 402.08 518.622 401.958C519.116 401.827 519.624 401.76 520.134 401.758C520.949 401.692 521.759 401.935 522.404 402.438C522.673 402.73 522.877 403.074 523.004 403.45C523.131 403.825 523.178 404.223 523.142 404.618V410.465H522.18ZM519.25 409.551C519.946 409.59 520.63 409.351 521.15 408.887C521.388 408.642 521.573 408.35 521.692 408.03C521.811 407.71 521.861 407.369 521.841 407.028V406.255L520.541 406.31C519.77 406.285 519.004 406.45 518.311 406.79C518.088 406.928 517.906 407.124 517.786 407.357C517.665 407.591 517.611 407.852 517.627 408.114C517.614 408.313 517.645 408.512 517.719 408.697C517.793 408.882 517.907 409.049 518.053 409.184C518.394 409.448 518.82 409.579 519.25 409.551ZM529.234 410.621C528.7 410.653 528.165 410.567 527.667 410.369C527.17 410.172 526.722 409.867 526.355 409.477C525.624 408.562 525.261 407.408 525.335 406.239C525.258 405.042 525.627 403.86 526.37 402.919C526.745 402.518 527.204 402.205 527.714 402.003C528.224 401.8 528.772 401.712 529.32 401.746C529.735 401.746 530.149 401.791 530.554 401.879C530.889 401.942 531.215 402.047 531.523 402.192L531.123 403.292C530.819 403.172 530.506 403.077 530.186 403.007C529.891 402.937 529.589 402.899 529.286 402.894C527.547 402.894 526.677 404.003 526.677 406.222C526.622 407.078 526.847 407.928 527.316 408.645C527.538 408.928 527.826 409.153 528.154 409.299C528.482 409.446 528.841 409.511 529.2 409.488C529.957 409.48 530.704 409.323 531.4 409.027V410.176C530.724 410.495 529.981 410.648 529.234 410.621ZM536.2 409.551C536.422 409.551 536.644 409.534 536.864 409.5C537.035 409.475 537.205 409.44 537.372 409.395V410.387C537.172 410.471 536.961 410.528 536.746 410.555C536.502 410.597 536.255 410.619 536.008 410.621C534.352 410.621 533.524 409.749 533.524 408.004V402.91H532.3V402.285L533.527 401.746L534.074 399.918H534.824V401.902H537.3V402.91H534.82V407.949C534.791 408.377 534.922 408.8 535.187 409.137C535.315 409.277 535.472 409.386 535.647 409.458C535.822 409.53 536.011 409.561 536.2 409.551ZM540.375 410.465H539.075V401.903H540.375V410.465ZM538.969 399.582C538.959 399.464 538.973 399.345 539.011 399.233C539.048 399.121 539.109 399.018 539.188 398.93C539.261 398.861 539.347 398.808 539.441 398.772C539.535 398.737 539.635 398.72 539.735 398.723C539.936 398.72 540.129 398.796 540.274 398.934C540.355 399.02 540.417 399.122 540.456 399.234C540.495 399.346 540.511 399.464 540.501 399.582C540.51 399.7 540.495 399.82 540.456 399.932C540.417 400.044 540.355 400.147 540.274 400.234C540.203 400.304 540.119 400.358 540.026 400.395C539.934 400.432 539.835 400.45 539.735 400.449C539.634 400.452 539.534 400.434 539.44 400.397C539.346 400.36 539.26 400.305 539.188 400.234C539.11 400.146 539.05 400.042 539.012 399.93C538.974 399.818 538.96 399.7 538.969 399.582ZM545 410.465L541.75 401.903H543.141L544.985 406.981C545.269 407.739 545.514 408.511 545.719 409.294H545.782C545.934 408.713 546.115 408.141 546.325 407.579C546.63 406.712 547.313 404.82 548.376 401.903H549.767L546.516 410.465H545ZM554.758 410.621C554.205 410.65 553.652 410.563 553.135 410.363C552.618 410.164 552.149 409.858 551.758 409.465C550.984 408.581 550.589 407.427 550.658 406.254C550.596 405.07 550.96 403.904 551.684 402.965C552.016 402.565 552.436 402.248 552.911 402.036C553.386 401.825 553.903 401.726 554.422 401.746C554.899 401.723 555.374 401.807 555.814 401.99C556.255 402.173 556.649 402.451 556.969 402.805C557.621 403.586 557.956 404.582 557.907 405.598V406.418H552.007C551.972 407.249 552.243 408.063 552.769 408.707C553.033 408.974 553.35 409.182 553.7 409.317C554.051 409.452 554.425 409.51 554.8 409.488C555.741 409.484 556.672 409.287 557.534 408.91V410.065C557.116 410.25 556.681 410.393 556.234 410.491C555.748 410.584 555.253 410.628 554.758 410.621ZM554.406 402.832C554.1 402.818 553.794 402.871 553.51 402.987C553.226 403.103 552.97 403.28 552.761 403.504C552.322 404.028 552.068 404.682 552.039 405.365H556.516C556.561 404.694 556.367 404.028 555.969 403.486C555.776 403.265 555.534 403.091 555.263 402.978C554.993 402.864 554.699 402.815 554.406 402.832Z" fill="#606060"/>
<path d="M478.5 415C484.299 415 489 410.299 489 404.5C489 398.701 484.299 394 478.5 394C472.701 394 468 398.701 468 404.5C468 410.299 472.701 415 478.5 415Z" fill="white"/>
</g>
<defs>
<filter id="filter0_d_206_2572" x="-29" y="58" width="1142" height="390" filterUnits="userSpaceOnUse" color-interpolation-filters="sRGB">
<feFlood flood-opacity="0" result="BackgroundImageFix"/>
<feColorMatrix in="SourceAlpha" type="matrix" values="0 0 0 0 0 0 0 0 0 0 0 0 0 0 0 0 0 0 127 0" result="hardAlpha"/>
<feOffset dy="3"/>
<feGaussianBlur stdDeviation="3"/>
<feColorMatrix type="matrix" values="0 0 0 0 0 0 0 0 0 0 0 0 0 0 0 0 0 0 0.161 0"/>
<feBlend mode="normal" in2="BackgroundImageFix" result="effect1_dropShadow_206_2572"/>
<feBlend mode="normal" in="SourceGraphic" in2="effect1_dropShadow_206_2572" result="shape"/>
</filter>
<filter id="filter1_d_206_2572" x="458.25" y="199.25" width="120.073" height="38.5" filterUnits="userSpaceOnUse" color-interpolation-filters="sRGB">
<feFlood flood-opacity="0" result="BackgroundImageFix"/>
<feColorMatrix in="SourceAlpha" type="matrix" values="0 0 0 0 0 0 0 0 0 0 0 0 0 0 0 0 0 0 127 0" result="hardAlpha"/>
<feOffset dy="3"/>
<feGaussianBlur stdDeviation="3"/>
<feColorMatrix type="matrix" values="0 0 0 0 0 0 0 0 0 0 0 0 0 0 0 0 0 0 0.161 0"/>
<feBlend mode="normal" in2="BackgroundImageFix" result="effect1_dropShadow_206_2572"/>
<feBlend mode="normal" in="SourceGraphic" in2="effect1_dropShadow_206_2572" result="shape"/>
</filter>
<filter id="filter2_d_206_2572" x="458.25" y="324.25" width="120.073" height="38.5" filterUnits="userSpaceOnUse" color-interpolation-filters="sRGB">
<feFlood flood-opacity="0" result="BackgroundImageFix"/>
<feColorMatrix in="SourceAlpha" type="matrix" values="0 0 0 0 0 0 0 0 0 0 0 0 0 0 0 0 0 0 127 0" result="hardAlpha"/>
<feOffset dy="3"/>
<feGaussianBlur stdDeviation="3"/>
<feColorMatrix type="matrix" values="0 0 0 0 0 0 0 0 0 0 0 0 0 0 0 0 0 0 0.161 0"/>
<feBlend mode="normal" in2="BackgroundImageFix" result="effect1_dropShadow_206_2572"/>
<feBlend mode="normal" in="SourceGraphic" in2="effect1_dropShadow_206_2572" result="shape"/>
</filter>
<filter id="filter3_d_206_2572" x="458.25" y="135.25" width="120.073" height="38.5" filterUnits="userSpaceOnUse" color-interpolation-filters="sRGB">
<feFlood flood-opacity="0" result="BackgroundImageFix"/>
<feColorMatrix in="SourceAlpha" type="matrix" values="0 0 0 0 0 0 0 0 0 0 0 0 0 0 0 0 0 0 127 0" result="hardAlpha"/>
<feOffset dy="3"/>
<feGaussianBlur stdDeviation="3"/>
<feColorMatrix type="matrix" values="0 0 0 0 0 0 0 0 0 0 0 0 0 0 0 0 0 0 0.161 0"/>
<feBlend mode="normal" in2="BackgroundImageFix" result="effect1_dropShadow_206_2572"/>
<feBlend mode="normal" in="SourceGraphic" in2="effect1_dropShadow_206_2572" result="shape"/>
</filter>
<filter id="filter4_d_206_2572" x="458.25" y="261.25" width="120.073" height="38.5" filterUnits="userSpaceOnUse" color-interpolation-filters="sRGB">
<feFlood flood-opacity="0" result="BackgroundImageFix"/>
<feColorMatrix in="SourceAlpha" type="matrix" values="0 0 0 0 0 0 0 0 0 0 0 0 0 0 0 0 0 0 127 0" result="hardAlpha"/>
<feOffset dy="3"/>
<feGaussianBlur stdDeviation="3"/>
<feColorMatrix type="matrix" values="0 0 0 0 0 0 0 0 0 0 0 0 0 0 0 0 0 0 0.161 0"/>
<feBlend mode="normal" in2="BackgroundImageFix" result="effect1_dropShadow_206_2572"/>
<feBlend mode="normal" in="SourceGraphic" in2="effect1_dropShadow_206_2572" result="shape"/>
</filter>
<filter id="filter5_d_206_2572" x="458.25" y="388.25" width="120.073" height="38.5" filterUnits="userSpaceOnUse" color-interpolation-filters="sRGB">
<feFlood flood-opacity="0" result="BackgroundImageFix"/>
<feColorMatrix in="SourceAlpha" type="matrix" values="0 0 0 0 0 0 0 0 0 0 0 0 0 0 0 0 0 0 127 0" result="hardAlpha"/>
<feOffset dy="3"/>
<feGaussianBlur stdDeviation="3"/>
<feColorMatrix type="matrix" values="0 0 0 0 0 0 0 0 0 0 0 0 0 0 0 0 0 0 0.161 0"/>
<feBlend mode="normal" in2="BackgroundImageFix" result="effect1_dropShadow_206_2572"/>
<feBlend mode="normal" in="SourceGraphic" in2="effect1_dropShadow_206_2572" result="shape"/>
</filter>
<clipPath id="clip0_206_2572">
<rect width="101" height="55.2341" fill="white" transform="translate(59 212)"/>
</clipPath>
<clipPath id="clip1_206_2572">
<rect width="396" height="437" fill="white" transform="translate(324 29)"/>
</clipPath>
</defs>
</svg>
