<svg xmlns="http://www.w3.org/2000/svg" xmlns:xlink="http://www.w3.org/1999/xlink" width="1440" height="306" viewBox="0 0 1440 306"><defs><filter id="a" x="136" y="157" width="1178" height="161" filterUnits="userSpaceOnUse"><feOffset dy="3" input="SourceAlpha"/><feGaussianBlur stdDeviation="3" result="b"/><feFlood flood-opacity="0.161"/><feComposite operator="in" in2="b"/><feComposite in="SourceGraphic"/></filter><linearGradient id="c" x1="0.5" x2="0.5" y2="1" gradientUnits="objectBoundingBox"><stop offset="0" stop-color="#f2f2f2"/><stop offset="1" stop-color="#d9d9d9"/></linearGradient><filter id="d" x="126.5" y="62" width="136.6" height="68" filterUnits="userSpaceOnUse"><feOffset dy="3" input="SourceAlpha"/><feGaussianBlur stdDeviation="3" result="e"/><feFlood flood-opacity="0.161"/><feComposite operator="in" in2="e"/><feComposite in="SourceGraphic"/></filter><filter id="f" x="240.25" y="201.25" width="75.1" height="44.5" filterUnits="userSpaceOnUse"><feOffset dy="3" input="SourceAlpha"/><feGaussianBlur stdDeviation="3" result="g"/><feFlood flood-opacity="0.161"/><feComposite operator="in" in2="g"/><feComposite in="SourceGraphic"/></filter><filter id="i" x="1137" y="182" width="131.6" height="68" filterUnits="userSpaceOnUse"><feOffset dy="3" input="SourceAlpha"/><feGaussianBlur stdDeviation="3" result="j"/><feFlood flood-opacity="0.161"/><feComposite operator="in" in2="j"/><feComposite in="SourceGraphic"/></filter><clipPath id="l"><rect width="1440" height="306"/></clipPath></defs><g id="k" clip-path="url(#l)"><rect width="1440" height="306" fill="#fff"/><g transform="translate(0 -140)"><g transform="matrix(1, 0, 0, 1, 0, 140)" filter="url(#a)"><rect width="1160" height="143" transform="translate(145 163)" fill="#fff"/></g><g transform="matrix(1, 0, 0, 1, 0, 140)" filter="url(#d)"><rect width="118.6" height="50" rx="4" transform="translate(135.5 68)" fill="url(#c)"/></g><path d="M-16.949-11.422h3.391a6.435,6.435,0,0,1,3.41.688A2.407,2.407,0,0,1-9.1-8.562,2.632,2.632,0,0,1-9.613-6.9a2.306,2.306,0,0,1-1.484.836v.078a2.947,2.947,0,0,1,1.77.895,2.706,2.706,0,0,1,.566,1.809A2.932,2.932,0,0,1-9.836-.871,4.621,4.621,0,0,1-12.824,0h-4.125ZM-15.082-6.7h1.8a3.077,3.077,0,0,0,1.711-.371,1.421,1.421,0,0,0,.539-1.262A1.264,1.264,0,0,0-11.617-9.5a3.635,3.635,0,0,0-1.848-.359h-1.617Zm0,1.516V-1.57H-13.1a2.921,2.921,0,0,0,1.77-.449,1.658,1.658,0,0,0,.6-1.418,1.506,1.506,0,0,0-.609-1.32,3.229,3.229,0,0,0-1.852-.43ZM-1.176,0l-.367-1.2h-.062A3.54,3.54,0,0,1-2.863-.129,3.978,3.978,0,0,1-4.488.156,2.75,2.75,0,0,1-6.477-.531a2.573,2.573,0,0,1-.715-1.945A2.284,2.284,0,0,1-6.2-4.492a5.721,5.721,0,0,1,3.023-.742l1.492-.047v-.461A1.747,1.747,0,0,0-2.07-6.98a1.577,1.577,0,0,0-1.2-.41,4.147,4.147,0,0,0-1.273.2,9.61,9.61,0,0,0-1.172.461l-.594-1.312A6.39,6.39,0,0,1-4.77-8.605,7.083,7.083,0,0,1-3.191-8.8,3.738,3.738,0,0,1-.7-8.078,2.814,2.814,0,0,1,.137-5.82V0ZM-3.91-1.25A2.274,2.274,0,0,0-2.3-1.809,2.025,2.025,0,0,0-1.7-3.375v-.75l-1.109.047A3.8,3.8,0,0,0-4.7-3.645a1.317,1.317,0,0,0-.59,1.184,1.155,1.155,0,0,0,.344.895A1.477,1.477,0,0,0-3.91-1.25ZM6.184.156A3.783,3.783,0,0,1,3.2-.988a4.782,4.782,0,0,1-1.02-3.285A4.809,4.809,0,0,1,3.25-7.625,3.956,3.956,0,0,1,6.332-8.8a5.776,5.776,0,0,1,2.461.508L8.238-6.812a5.56,5.56,0,0,0-1.922-.453q-2.242,0-2.242,2.977a3.565,3.565,0,0,0,.559,2.184,1.934,1.934,0,0,0,1.637.73,4.7,4.7,0,0,0,2.32-.609v1.6A3.626,3.626,0,0,1,7.539.031,6.305,6.305,0,0,1,6.184.156Zm6.211-4.719,1.039-1.3,2.609-2.781H18.16L14.684-4.93,18.379,0H16.223L13.449-3.789l-1.008.828V0h-1.82V-12.156h1.82v5.93l-.094,1.664Z" transform="translate(208 239)" fill="#515151"/><path d="M17.007-14.941A6.245,6.245,0,0,1,14.81-9.8,9.68,9.68,0,0,1,8.555-8.013H6.328V0h-3.5V-21.416H8.994q4.014,0,6.013,1.641A5.889,5.889,0,0,1,17.007-14.941ZM6.328-10.957h1.86a6.666,6.666,0,0,0,3.955-.937,3.412,3.412,0,0,0,1.26-2.93,3.324,3.324,0,0,0-1.128-2.754,5.571,5.571,0,0,0-3.516-.908H6.328Zm22.808-5.537a8.287,8.287,0,0,1,1.714.146l-.337,3.208a6.506,6.506,0,0,0-1.523-.176,4.409,4.409,0,0,0-3.347,1.348,4.871,4.871,0,0,0-1.282,3.5V0H20.918V-16.2h2.7l.454,2.856h.176a6.419,6.419,0,0,1,2.1-2.3A5,5,0,0,1,29.136-16.494ZM48.223-8.13a8.843,8.843,0,0,1-2.036,6.2A7.3,7.3,0,0,1,40.518.293,7.767,7.767,0,0,1,36.5-.732a6.769,6.769,0,0,1-2.681-2.944,10.028,10.028,0,0,1-.937-4.453,8.783,8.783,0,0,1,2.021-6.152,7.329,7.329,0,0,1,5.7-2.212,7.137,7.137,0,0,1,5.566,2.263A8.742,8.742,0,0,1,48.223-8.13Zm-11.792,0q0,5.61,4.146,5.61,4.1,0,4.1-5.61,0-5.552-4.131-5.552A3.522,3.522,0,0,0,37.4-12.246,7.305,7.305,0,0,0,36.431-8.13ZM65.859-16.2v1.89l-2.769.513a4.469,4.469,0,0,1,.63,1.26,4.97,4.97,0,0,1,.249,1.582,4.847,4.847,0,0,1-1.729,3.94A7.233,7.233,0,0,1,57.48-5.581,7.719,7.719,0,0,1,56.074-5.7a1.939,1.939,0,0,0-1.113,1.611.9.9,0,0,0,.52.835,4.5,4.5,0,0,0,1.912.278H60.22a6.286,6.286,0,0,1,4.072,1.143,4.02,4.02,0,0,1,1.392,3.3,4.793,4.793,0,0,1-2.271,4.248,11.955,11.955,0,0,1-6.562,1.494A9.057,9.057,0,0,1,51.8,6.035,3.788,3.788,0,0,1,50.054,2.7,3.554,3.554,0,0,1,51,.183,5.063,5.063,0,0,1,53.643-1.23a2.587,2.587,0,0,1-1.135-.945,2.385,2.385,0,0,1-.447-1.37,2.358,2.358,0,0,1,.513-1.538A5.915,5.915,0,0,1,54.1-6.328a4.512,4.512,0,0,1-2.043-1.765,5.192,5.192,0,0,1-.784-2.864,5.134,5.134,0,0,1,1.663-4.087,6.99,6.99,0,0,1,4.739-1.45,11.535,11.535,0,0,1,1.443.1,9.083,9.083,0,0,1,1.135.2ZM53.13,2.52a1.893,1.893,0,0,0,1,1.714,5.515,5.515,0,0,0,2.82.6,8.519,8.519,0,0,0,4.189-.806A2.415,2.415,0,0,0,62.52,1.89a1.6,1.6,0,0,0-.754-1.5A6.058,6.058,0,0,0,58.96-.059H56.353A3.664,3.664,0,0,0,54,.637,2.282,2.282,0,0,0,53.13,2.52Zm1.479-13.477a3.26,3.26,0,0,0,.784,2.344,2.964,2.964,0,0,0,2.249.82q2.988,0,2.988-3.193a3.622,3.622,0,0,0-.74-2.439,2.81,2.81,0,0,0-2.249-.857,2.9,2.9,0,0,0-2.263.85A3.572,3.572,0,0,0,54.609-10.957ZM77.08-16.494a8.287,8.287,0,0,1,1.714.146l-.337,3.208a6.506,6.506,0,0,0-1.523-.176,4.409,4.409,0,0,0-3.347,1.348,4.871,4.871,0,0,0-1.282,3.5V0H68.862V-16.2h2.7l.454,2.856h.176a6.419,6.419,0,0,1,2.1-2.3A5,5,0,0,1,77.08-16.494ZM91.934,0l-.688-2.256h-.117A6.637,6.637,0,0,1,88.77-.242a7.458,7.458,0,0,1-3.047.535A5.156,5.156,0,0,1,81.995-1a4.824,4.824,0,0,1-1.34-3.647,4.283,4.283,0,0,1,1.86-3.779,10.727,10.727,0,0,1,5.669-1.392l2.8-.088v-.864a3.276,3.276,0,0,0-.725-2.322,2.957,2.957,0,0,0-2.249-.769,7.775,7.775,0,0,0-2.388.366,18.019,18.019,0,0,0-2.2.864L82.31-15.088A11.981,11.981,0,0,1,85.2-16.135a13.28,13.28,0,0,1,2.959-.359,7.008,7.008,0,0,1,4.666,1.348,5.276,5.276,0,0,1,1.575,4.233V0ZM86.807-2.344a4.264,4.264,0,0,0,3.01-1.047,3.8,3.8,0,0,0,1.135-2.937V-7.734l-2.08.088a7.117,7.117,0,0,0-3.538.813,2.47,2.47,0,0,0-1.106,2.219,2.165,2.165,0,0,0,.645,1.677A2.769,2.769,0,0,0,86.807-2.344ZM112.852,0h-3.457V-9.99a4.53,4.53,0,0,0-.7-2.776,2.6,2.6,0,0,0-2.2-.916,3.352,3.352,0,0,0-2.922,1.3,7.606,7.606,0,0,0-.93,4.314V0H99.2V-16.2h2.7l.483,2.124h.176a4.488,4.488,0,0,1,1.956-1.787,6.306,6.306,0,0,1,2.82-.63q3.735,0,4.951,2.549h.234a4.939,4.939,0,0,1,2.021-1.875,6.416,6.416,0,0,1,2.988-.674,5.442,5.442,0,0,1,4.226,1.465,6.487,6.487,0,0,1,1.326,4.468V0h-3.442V-9.99a4.5,4.5,0,0,0-.71-2.776,2.616,2.616,0,0,0-2.2-.916,3.417,3.417,0,0,0-2.937,1.252,6.456,6.456,0,0,0-.93,3.845Zm31.787,0H141.2V-13.828q0-2.476.117-3.926-.337.352-.828.776t-3.289,2.7l-1.729-2.183,6.3-4.951h2.871Z" transform="translate(291 244)" fill="#333"/><g transform="translate(154 222)"><path d="M27.809,18H7.5" transform="translate(-7.5 -7.846)" fill="none" stroke="#0789b9" stroke-linecap="round" stroke-linejoin="round" stroke-width="3"/><path d="M17.654,27.809,7.5,17.654,17.654,7.5" transform="translate(-7.5 -7.5)" fill="none" stroke="#0789b9" stroke-linecap="round" stroke-linejoin="round" stroke-width="3"/></g><path d="M-27.172,0V-11.422h1.328V0Zm10.125,0V-5.539A2.235,2.235,0,0,0-17.523-7.1a1.941,1.941,0,0,0-1.492-.516,2.461,2.461,0,0,0-1.969.727,3.668,3.668,0,0,0-.625,2.4V0h-1.3V-8.562h1.055l.211,1.172h.063a2.648,2.648,0,0,1,1.117-.98,3.63,3.63,0,0,1,1.6-.348,3.252,3.252,0,0,1,2.328.746,3.175,3.175,0,0,1,.781,2.387V0ZM-7.82,0l-.258-1.219h-.062A3.6,3.6,0,0,1-9.418-.129a3.893,3.893,0,0,1-1.59.285A2.86,2.86,0,0,1-13-.5a2.394,2.394,0,0,1-.723-1.867q0-2.594,4.148-2.719l1.453-.047v-.531a2.171,2.171,0,0,0-.434-1.488,1.783,1.783,0,0,0-1.387-.48,5.65,5.65,0,0,0-2.422.656l-.4-.992a6.094,6.094,0,0,1,1.387-.539,6.006,6.006,0,0,1,1.512-.2,3.262,3.262,0,0,1,2.27.68,2.837,2.837,0,0,1,.738,2.18V0Zm-2.93-.914a2.632,2.632,0,0,0,1.9-.664,2.457,2.457,0,0,0,.691-1.859v-.773l-1.3.055a4.717,4.717,0,0,0-2.23.48,1.449,1.449,0,0,0-.684,1.324,1.336,1.336,0,0,0,.426,1.07A1.767,1.767,0,0,0-10.75-.914ZM-.766.156A3.654,3.654,0,0,1-3.645-.988a4.707,4.707,0,0,1-1.02-3.238,4.853,4.853,0,0,1,1.035-3.32A3.727,3.727,0,0,1-.68-8.719a5.852,5.852,0,0,1,1.234.133,4.066,4.066,0,0,1,.969.313l-.4,1.1a6.1,6.1,0,0,0-.937-.285,4.186,4.186,0,0,0-.9-.113q-2.609,0-2.609,3.328A3.963,3.963,0,0,0-2.684-1.82,2.215,2.215,0,0,0-.8-.977a5.769,5.769,0,0,0,2.2-.461V-.289A4.679,4.679,0,0,1-.766.156ZM6.2-.914a4.236,4.236,0,0,0,.664-.051,4.3,4.3,0,0,0,.508-.105v.992A2.371,2.371,0,0,1,6.746.09a4.664,4.664,0,0,1-.738.066q-2.484,0-2.484-2.617V-7.555H2.3V-8.18l1.227-.539.547-1.828h.75v1.984H7.3v1.008H4.82v5.039a1.734,1.734,0,0,0,.367,1.188A1.278,1.278,0,0,0,6.2-.914ZM10.375,0h-1.3V-8.562h1.3ZM8.969-10.883a.861.861,0,0,1,.219-.652.764.764,0,0,1,.547-.207.764.764,0,0,1,.539.211.846.846,0,0,1,.227.648.859.859,0,0,1-.227.652.757.757,0,0,1-.539.215.749.749,0,0,1-.547-.215A.877.877,0,0,1,8.969-10.883ZM15,0,11.75-8.562h1.391l1.844,5.078a24.035,24.035,0,0,1,.734,2.313h.063a17.467,17.467,0,0,1,.543-1.715q.457-1.3,2.051-5.676h1.391L16.516,0Zm9.758.156a3.934,3.934,0,0,1-3-1.156,4.476,4.476,0,0,1-1.1-3.211A4.964,4.964,0,0,1,21.684-7.5a3.387,3.387,0,0,1,2.738-1.219A3.229,3.229,0,0,1,26.969-7.66a4.057,4.057,0,0,1,.938,2.793v.82h-5.9a3.394,3.394,0,0,0,.762,2.289A2.635,2.635,0,0,0,24.8-.977a6.9,6.9,0,0,0,2.734-.578V-.4a6.863,6.863,0,0,1-1.3.426A7.31,7.31,0,0,1,24.758.156Zm-.352-7.789a2.118,2.118,0,0,0-1.645.672A3.1,3.1,0,0,0,22.039-5.1h4.477a2.851,2.851,0,0,0-.547-1.879A1.925,1.925,0,0,0,24.406-7.633Z" transform="translate(205.848 366.465)" fill="#888"/><path d="M-13.465,0l-1.422-3.633h-4.578L-20.871,0h-1.344L-17.7-11.469h1.117L-12.09,0ZM-15.3-4.828l-1.328-3.539q-.258-.672-.531-1.648a14.8,14.8,0,0,1-.492,1.648L-19-4.828ZM-7.293.156A3.654,3.654,0,0,1-10.172-.988a4.707,4.707,0,0,1-1.02-3.238,4.853,4.853,0,0,1,1.035-3.32A3.727,3.727,0,0,1-7.207-8.719a5.852,5.852,0,0,1,1.234.133A4.066,4.066,0,0,1-5-8.273l-.4,1.1a6.1,6.1,0,0,0-.937-.285,4.186,4.186,0,0,0-.9-.113q-2.609,0-2.609,3.328A3.963,3.963,0,0,0-9.211-1.82a2.215,2.215,0,0,0,1.887.844,5.769,5.769,0,0,0,2.2-.461V-.289A4.679,4.679,0,0,1-7.293.156ZM-.332-.914A4.236,4.236,0,0,0,.332-.965,4.3,4.3,0,0,0,.84-1.07v.992A2.371,2.371,0,0,1,.219.09,4.664,4.664,0,0,1-.52.156Q-3,.156-3-2.461V-7.555H-4.23V-8.18L-3-8.719l.547-1.828h.75v1.984H.777v1.008H-1.707v5.039A1.734,1.734,0,0,0-1.34-1.328,1.278,1.278,0,0,0-.332-.914ZM3.848,0h-1.3V-8.562h1.3ZM2.441-10.883a.861.861,0,0,1,.219-.652.764.764,0,0,1,.547-.207.764.764,0,0,1,.539.211.846.846,0,0,1,.227.648.859.859,0,0,1-.227.652.757.757,0,0,1-.539.215.749.749,0,0,1-.547-.215A.877.877,0,0,1,2.441-10.883ZM8.473,0,5.223-8.562H6.613L8.457-3.484a24.035,24.035,0,0,1,.734,2.313h.063A17.467,17.467,0,0,1,9.8-2.887q.457-1.3,2.051-5.676h1.391L9.988,0ZM18.23.156a3.934,3.934,0,0,1-3-1.156,4.476,4.476,0,0,1-1.1-3.211A4.964,4.964,0,0,1,15.156-7.5a3.387,3.387,0,0,1,2.738-1.219A3.229,3.229,0,0,1,20.441-7.66a4.057,4.057,0,0,1,.938,2.793v.82h-5.9a3.394,3.394,0,0,0,.762,2.289,2.635,2.635,0,0,0,2.035.781,6.9,6.9,0,0,0,2.734-.578V-.4a6.863,6.863,0,0,1-1.3.426A7.31,7.31,0,0,1,18.23.156Zm-.352-7.789a2.118,2.118,0,0,0-1.645.672A3.1,3.1,0,0,0,15.512-5.1h4.477a2.851,2.851,0,0,0-.547-1.879A1.925,1.925,0,0,0,17.879-7.633Z" transform="translate(346.848 366.465)" fill="#888"/><g transform="translate(249.5 347.5)"><g transform="matrix(1, 0, 0, 1, -249.5, -207.5)" filter="url(#f)"><rect width="56.6" height="26" rx="12" transform="translate(249.5 207.5)" fill="#4bbb40" stroke="#d3d3d3" stroke-width="0.5"/></g><circle cx="10.5" cy="10.5" r="10.5" transform="translate(32.5 2.5)" fill="#fff"/></g><g transform="matrix(1, 0, 0, 1, 0, 140)" filter="url(#i)"><rect width="113.6" height="50" rx="4" transform="translate(1146 188)" fill="url(#c)"/></g><path d="M-14.277-5.82A5.692,5.692,0,0,1-15.848-1.5,6.307,6.307,0,0,1-20.371,0h-3.2V-11.422h3.531a5.843,5.843,0,0,1,4.242,1.469A5.488,5.488,0,0,1-14.277-5.82Zm-1.969.063q0-4.1-3.836-4.1H-21.7V-1.57h1.328Q-16.246-1.57-16.246-5.758Zm8,5.914A4.18,4.18,0,0,1-11.4-1.02a4.463,4.463,0,0,1-1.137-3.238A4.9,4.9,0,0,1-11.48-7.586,3.643,3.643,0,0,1-8.582-8.8a3.561,3.561,0,0,1,2.7,1.039A3.97,3.97,0,0,1-4.887-4.9v.992h-5.758a2.838,2.838,0,0,0,.68,1.934,2.367,2.367,0,0,0,1.8.676,6.662,6.662,0,0,0,1.426-.145,7.474,7.474,0,0,0,1.418-.48V-.43A5.637,5.637,0,0,1-6.676.023,8.336,8.336,0,0,1-8.246.156Zm-.336-7.562a1.845,1.845,0,0,0-1.4.555,2.644,2.644,0,0,0-.629,1.617h3.922a2.392,2.392,0,0,0-.516-1.621A1.764,1.764,0,0,0-8.582-7.406ZM-.965,0H-2.8V-12.156H-.965Zm6.4.156A4.18,4.18,0,0,1,2.281-1.02,4.463,4.463,0,0,1,1.145-4.258,4.9,4.9,0,0,1,2.2-7.586,3.643,3.643,0,0,1,5.1-8.8,3.561,3.561,0,0,1,7.8-7.758,3.97,3.97,0,0,1,8.793-4.9v.992H3.035a2.838,2.838,0,0,0,.68,1.934,2.367,2.367,0,0,0,1.8.676,6.662,6.662,0,0,0,1.426-.145,7.474,7.474,0,0,0,1.418-.48V-.43A5.637,5.637,0,0,1,7,.023,8.336,8.336,0,0,1,5.434.156ZM5.1-7.406a1.845,1.845,0,0,0-1.4.555,2.644,2.644,0,0,0-.629,1.617H6.988a2.392,2.392,0,0,0-.516-1.621A1.764,1.764,0,0,0,5.1-7.406Zm9,6.078a4.465,4.465,0,0,0,1.344-.211V-.156a3.706,3.706,0,0,1-.785.223,5.409,5.409,0,0,1-1,.09q-2.609,0-2.609-2.75V-7.25H9.871v-.812l1.266-.672.625-1.828h1.133v1.922h2.461V-7.25H12.895v4.625a1.3,1.3,0,0,0,.332.98A1.21,1.21,0,0,0,14.1-1.328ZM20.941.156A4.18,4.18,0,0,1,17.789-1.02a4.463,4.463,0,0,1-1.137-3.238,4.9,4.9,0,0,1,1.055-3.328,3.643,3.643,0,0,1,2.9-1.211,3.561,3.561,0,0,1,2.7,1.039A3.97,3.97,0,0,1,24.3-4.9v.992H18.543a2.838,2.838,0,0,0,.68,1.934,2.367,2.367,0,0,0,1.8.676,6.662,6.662,0,0,0,1.426-.145,7.474,7.474,0,0,0,1.418-.48V-.43a5.637,5.637,0,0,1-1.359.453A8.336,8.336,0,0,1,20.941.156Zm-.336-7.562a1.845,1.845,0,0,0-1.4.555,2.644,2.644,0,0,0-.629,1.617H22.5a2.392,2.392,0,0,0-.516-1.621A1.764,1.764,0,0,0,20.605-7.406ZM-25.074,1H25.074V2H-25.074Z" transform="translate(1215 359)" fill="#575757"/><path d="M13.5,1H9.75L9.456.416A.75.75,0,0,0,8.784,0H5.212a.741.741,0,0,0-.669.416L4.25,1H.5a.5.5,0,0,0-.5.5v1A.5.5,0,0,0,.5,3h13a.5.5,0,0,0,.5-.5v-1A.5.5,0,0,0,13.5,1ZM1.663,14.594A1.5,1.5,0,0,0,3.159,16h7.681a1.5,1.5,0,0,0,1.5-1.406L13,4H1Z" transform="translate(1166 346)" fill="#575757"/></g></g></svg>