<svg width="1700" height="123" viewBox="0 0 1700 123" fill="none" xmlns="http://www.w3.org/2000/svg">
<mask id="path-1-inside-1_2463_69161" fill="white">
<path d="M420 1.5H810V121.5H420V1.5Z"/>
</mask>
<path d="M420 1.5H810V121.5H420V1.5Z" fill="white"/>
<path d="M420 2.5H810V0.5H420V2.5Z" fill="#E5E7EB" mask="url(#path-1-inside-1_2463_69161)"/>
<path d="M577.852 30.9545V16.4091H578.784V30.9545H577.852ZM580.324 21.2102C580.278 20.7519 580.083 20.3958 579.739 20.142C579.394 19.8883 578.926 19.7614 578.335 19.7614C577.934 19.7614 577.595 19.8182 577.318 19.9318C577.042 20.0417 576.83 20.1951 576.682 20.392C576.538 20.589 576.466 20.8125 576.466 21.0625C576.458 21.2708 576.502 21.4527 576.597 21.608C576.695 21.7633 576.83 21.8977 577 22.0114C577.17 22.1212 577.367 22.2178 577.591 22.3011C577.814 22.3807 578.053 22.4489 578.307 22.5057L579.352 22.7557C579.86 22.8693 580.326 23.0208 580.75 23.2102C581.174 23.3996 581.542 23.6326 581.852 23.9091C582.163 24.1856 582.403 24.5114 582.574 24.8864C582.748 25.2614 582.837 25.6913 582.841 26.1761C582.837 26.8883 582.655 27.5057 582.295 28.0284C581.939 28.5473 581.424 28.9508 580.75 29.2386C580.08 29.5227 579.271 29.6648 578.324 29.6648C577.384 29.6648 576.566 29.5208 575.869 29.233C575.176 28.9451 574.634 28.5189 574.244 27.9545C573.858 27.3864 573.655 26.6837 573.636 25.8466H576.017C576.044 26.2367 576.155 26.5625 576.352 26.8239C576.553 27.0814 576.82 27.2765 577.153 27.4091C577.491 27.5379 577.871 27.6023 578.295 27.6023C578.712 27.6023 579.074 27.5417 579.381 27.4205C579.691 27.2992 579.932 27.1307 580.102 26.9148C580.273 26.6989 580.358 26.4508 580.358 26.1705C580.358 25.9091 580.28 25.6894 580.125 25.5114C579.973 25.3333 579.75 25.1818 579.455 25.0568C579.163 24.9318 578.805 24.8182 578.381 24.7159L577.114 24.3977C576.133 24.1591 575.358 23.786 574.79 23.2784C574.222 22.7708 573.939 22.0871 573.943 21.2273C573.939 20.5227 574.127 19.9072 574.506 19.3807C574.888 18.8542 575.413 18.4432 576.08 18.1477C576.746 17.8523 577.504 17.7045 578.352 17.7045C579.216 17.7045 579.97 17.8523 580.614 18.1477C581.261 18.4432 581.765 18.8542 582.125 19.3807C582.485 19.9072 582.67 20.517 582.682 21.2102H580.324ZM589.49 17.8636V29.5H587.03V20.1989H586.962L584.297 21.8693V19.6875L587.178 17.8636H589.49ZM596.466 17.7045C597.064 17.7045 597.64 17.8049 598.193 18.0057C598.75 18.2064 599.246 18.5265 599.682 18.9659C600.121 19.4053 600.468 19.9886 600.722 20.7159C600.979 21.4394 601.11 22.3277 601.114 23.3807C601.114 24.3693 601.002 25.2519 600.778 26.0284C600.559 26.8011 600.242 27.4583 599.83 28C599.417 28.5417 598.919 28.9545 598.335 29.2386C597.752 29.5189 597.1 29.6591 596.381 29.6591C595.604 29.6591 594.919 29.5095 594.324 29.2102C593.729 28.9072 593.25 28.4962 592.886 27.9773C592.527 27.4545 592.309 26.8674 592.233 26.2159H594.659C594.754 26.6402 594.953 26.9697 595.256 27.2045C595.559 27.4356 595.934 27.5511 596.381 27.5511C597.138 27.5511 597.714 27.2216 598.108 26.5625C598.502 25.8996 598.701 24.9924 598.705 23.8409H598.625C598.451 24.1818 598.216 24.4754 597.92 24.7216C597.625 24.964 597.286 25.1515 596.903 25.2841C596.525 25.4167 596.121 25.483 595.693 25.483C595.008 25.483 594.396 25.322 593.858 25C593.32 24.678 592.896 24.2348 592.585 23.6705C592.275 23.1061 592.119 22.4621 592.119 21.7386C592.116 20.9583 592.295 20.2633 592.659 19.6534C593.023 19.0436 593.53 18.5663 594.182 18.2216C594.837 17.8731 595.598 17.7008 596.466 17.7045ZM596.483 19.6364C596.1 19.6364 595.759 19.7273 595.46 19.9091C595.165 20.0909 594.93 20.3352 594.756 20.642C594.585 20.9489 594.502 21.2917 594.506 21.6705C594.506 22.053 594.589 22.3977 594.756 22.7045C594.926 23.0076 595.157 23.25 595.449 23.4318C595.744 23.6098 596.081 23.6989 596.46 23.6989C596.744 23.6989 597.008 23.6458 597.25 23.5398C597.492 23.4337 597.703 23.2879 597.881 23.1023C598.063 22.9129 598.205 22.6951 598.307 22.4489C598.409 22.2027 598.46 21.9413 598.46 21.6648C598.456 21.2973 598.369 20.9602 598.199 20.6534C598.028 20.3466 597.794 20.1004 597.494 19.9148C597.195 19.7292 596.858 19.6364 596.483 19.6364ZM603.787 29.6477C603.412 29.6477 603.09 29.5152 602.821 29.25C602.556 28.9811 602.423 28.6591 602.423 28.2841C602.423 27.9129 602.556 27.5947 602.821 27.3295C603.09 27.0644 603.412 26.9318 603.787 26.9318C604.151 26.9318 604.469 27.0644 604.741 27.3295C605.014 27.5947 605.151 27.9129 605.151 28.2841C605.151 28.5341 605.086 28.7633 604.957 28.9716C604.832 29.1761 604.668 29.3409 604.463 29.4659C604.259 29.5871 604.033 29.6477 603.787 29.6477ZM611.107 17.7045C611.705 17.7045 612.281 17.8049 612.834 18.0057C613.391 18.2064 613.887 18.5265 614.322 18.9659C614.762 19.4053 615.108 19.9886 615.362 20.7159C615.62 21.4394 615.75 22.3277 615.754 23.3807C615.754 24.3693 615.643 25.2519 615.419 26.0284C615.199 26.8011 614.883 27.4583 614.47 28C614.057 28.5417 613.559 28.9545 612.976 29.2386C612.393 29.5189 611.741 29.6591 611.021 29.6591C610.245 29.6591 609.559 29.5095 608.964 29.2102C608.37 28.9072 607.891 28.4962 607.527 27.9773C607.167 27.4545 606.949 26.8674 606.874 26.2159H609.3C609.394 26.6402 609.593 26.9697 609.896 27.2045C610.199 27.4356 610.574 27.5511 611.021 27.5511C611.779 27.5511 612.355 27.2216 612.749 26.5625C613.143 25.8996 613.341 24.9924 613.345 23.8409H613.266C613.091 24.1818 612.857 24.4754 612.561 24.7216C612.266 24.964 611.927 25.1515 611.544 25.2841C611.165 25.4167 610.762 25.483 610.334 25.483C609.648 25.483 609.036 25.322 608.499 25C607.961 24.678 607.536 24.2348 607.226 23.6705C606.915 23.1061 606.76 22.4621 606.76 21.7386C606.756 20.9583 606.936 20.2633 607.3 19.6534C607.663 19.0436 608.171 18.5663 608.822 18.2216C609.478 17.8731 610.239 17.7008 611.107 17.7045ZM611.124 19.6364C610.741 19.6364 610.4 19.7273 610.101 19.9091C609.805 20.0909 609.571 20.3352 609.396 20.642C609.226 20.9489 609.143 21.2917 609.146 21.6705C609.146 22.053 609.23 22.3977 609.396 22.7045C609.567 23.0076 609.798 23.25 610.089 23.4318C610.385 23.6098 610.722 23.6989 611.101 23.6989C611.385 23.6989 611.648 23.6458 611.891 23.5398C612.133 23.4337 612.343 23.2879 612.521 23.1023C612.703 22.9129 612.845 22.6951 612.947 22.4489C613.05 22.2027 613.101 21.9413 613.101 21.6648C613.097 21.2973 613.01 20.9602 612.839 20.6534C612.669 20.3466 612.434 20.1004 612.135 19.9148C611.836 19.7292 611.499 19.6364 611.124 19.6364ZM621.669 17.7045C622.268 17.7045 622.843 17.8049 623.396 18.0057C623.953 18.2064 624.449 18.5265 624.885 18.9659C625.324 19.4053 625.671 19.9886 625.925 20.7159C626.182 21.4394 626.313 22.3277 626.317 23.3807C626.317 24.3693 626.205 25.2519 625.982 26.0284C625.762 26.8011 625.446 27.4583 625.033 28C624.62 28.5417 624.122 28.9545 623.538 29.2386C622.955 29.5189 622.304 29.6591 621.584 29.6591C620.807 29.6591 620.122 29.5095 619.527 29.2102C618.932 28.9072 618.453 28.4962 618.089 27.9773C617.73 27.4545 617.512 26.8674 617.436 26.2159H619.862C619.957 26.6402 620.156 26.9697 620.459 27.2045C620.762 27.4356 621.137 27.5511 621.584 27.5511C622.341 27.5511 622.917 27.2216 623.311 26.5625C623.705 25.8996 623.904 24.9924 623.908 23.8409H623.828C623.654 24.1818 623.419 24.4754 623.124 24.7216C622.828 24.964 622.489 25.1515 622.107 25.2841C621.728 25.4167 621.324 25.483 620.896 25.483C620.211 25.483 619.599 25.322 619.061 25C618.523 24.678 618.099 24.2348 617.788 23.6705C617.478 23.1061 617.322 22.4621 617.322 21.7386C617.319 20.9583 617.499 20.2633 617.862 19.6534C618.226 19.0436 618.733 18.5663 619.385 18.2216C620.04 17.8731 620.802 17.7008 621.669 17.7045ZM621.686 19.6364C621.304 19.6364 620.963 19.7273 620.663 19.9091C620.368 20.0909 620.133 20.3352 619.959 20.642C619.788 20.9489 619.705 21.2917 619.709 21.6705C619.709 22.053 619.792 22.3977 619.959 22.7045C620.129 23.0076 620.36 23.25 620.652 23.4318C620.947 23.6098 621.285 23.6989 621.663 23.6989C621.947 23.6989 622.211 23.6458 622.453 23.5398C622.696 23.4337 622.906 23.2879 623.084 23.1023C623.266 22.9129 623.408 22.6951 623.51 22.4489C623.612 22.2027 623.663 21.9413 623.663 21.6648C623.66 21.2973 623.572 20.9602 623.402 20.6534C623.232 20.3466 622.997 20.1004 622.697 19.9148C622.398 19.7292 622.061 19.6364 621.686 19.6364Z" fill="#111827"/>
<path d="M632.652 17.3182L628.902 31.25H627.385L631.135 17.3182H632.652ZM634.095 29.5V20.7727H635.726V22.1932H635.834C636.016 21.7121 636.313 21.3371 636.726 21.0682C637.139 20.7955 637.633 20.6591 638.209 20.6591C638.792 20.6591 639.281 20.7955 639.675 21.0682C640.072 21.3409 640.366 21.7159 640.555 22.1932H640.646C640.855 21.7273 641.186 21.3561 641.641 21.0795C642.095 20.7992 642.637 20.6591 643.266 20.6591C644.057 20.6591 644.703 20.9072 645.203 21.4034C645.707 21.8996 645.959 22.6477 645.959 23.6477V29.5H644.26V23.8068C644.26 23.2159 644.099 22.7879 643.777 22.5227C643.455 22.2576 643.071 22.125 642.624 22.125C642.071 22.125 641.641 22.2955 641.334 22.6364C641.027 22.9735 640.874 23.4072 640.874 23.9375V29.5H639.18V23.6989C639.18 23.2254 639.033 22.8447 638.737 22.5568C638.442 22.2689 638.057 22.125 637.584 22.125C637.262 22.125 636.964 22.2102 636.692 22.3807C636.423 22.5473 636.205 22.7803 636.038 23.0795C635.875 23.3788 635.794 23.7254 635.794 24.1193V29.5H634.095ZM651.912 29.6761C651.094 29.6761 650.38 29.4886 649.77 29.1136C649.16 28.7386 648.687 28.214 648.349 27.5398C648.012 26.8655 647.844 26.0777 647.844 25.1761C647.844 24.2708 648.012 23.4792 648.349 22.8011C648.687 22.1231 649.16 21.5966 649.77 21.2216C650.38 20.8466 651.094 20.6591 651.912 20.6591C652.73 20.6591 653.444 20.8466 654.054 21.2216C654.664 21.5966 655.137 22.1231 655.474 22.8011C655.812 23.4792 655.98 24.2708 655.98 25.1761C655.98 26.0777 655.812 26.8655 655.474 27.5398C655.137 28.214 654.664 28.7386 654.054 29.1136C653.444 29.4886 652.73 29.6761 651.912 29.6761ZM651.918 28.25C652.448 28.25 652.887 28.1098 653.236 27.8295C653.584 27.5492 653.842 27.1761 654.009 26.7102C654.179 26.2443 654.264 25.7311 654.264 25.1705C654.264 24.6136 654.179 24.1023 654.009 23.6364C653.842 23.1667 653.584 22.7898 653.236 22.5057C652.887 22.2216 652.448 22.0795 651.918 22.0795C651.384 22.0795 650.94 22.2216 650.588 22.5057C650.24 22.7898 649.98 23.1667 649.81 23.6364C649.643 24.1023 649.56 24.6136 649.56 25.1705C649.56 25.7311 649.643 26.2443 649.81 26.7102C649.98 27.1761 650.24 27.5492 650.588 27.8295C650.94 28.1098 651.384 28.25 651.918 28.25Z" fill="#6B7280"/>
<rect x="445" y="45.5" width="340" height="61" rx="8" fill="#455EDE"/>
<path d="M581.648 69.5V57.8636H586.102C586.943 57.8636 587.642 57.9962 588.199 58.2614C588.759 58.5227 589.178 58.8807 589.455 59.3352C589.735 59.7898 589.875 60.3049 589.875 60.8807C589.875 61.3542 589.784 61.7595 589.602 62.0966C589.42 62.4299 589.176 62.7008 588.869 62.9091C588.562 63.1174 588.22 63.267 587.841 63.358V63.4716C588.254 63.4943 588.65 63.6212 589.028 63.8523C589.411 64.0795 589.723 64.4015 589.966 64.8182C590.208 65.2348 590.33 65.7386 590.33 66.3295C590.33 66.9318 590.184 67.4735 589.892 67.9545C589.6 68.4318 589.161 68.8087 588.574 69.0852C587.987 69.3617 587.248 69.5 586.358 69.5H581.648ZM583.756 67.7386H586.023C586.788 67.7386 587.339 67.5928 587.676 67.3011C588.017 67.0057 588.188 66.6269 588.188 66.1648C588.188 65.8201 588.102 65.5095 587.932 65.233C587.761 64.9527 587.519 64.733 587.205 64.5739C586.89 64.411 586.515 64.3295 586.08 64.3295H583.756V67.7386ZM583.756 62.8125H585.841C586.205 62.8125 586.532 62.7462 586.824 62.6136C587.116 62.4773 587.345 62.286 587.511 62.0398C587.682 61.7898 587.767 61.4943 587.767 61.1534C587.767 60.7027 587.608 60.3314 587.29 60.0398C586.975 59.7481 586.508 59.6023 585.886 59.6023H583.756V62.8125ZM597.635 65.8295V60.7727H599.692V69.5H597.697V67.9489H597.607C597.41 68.4375 597.086 68.8371 596.635 69.1477C596.188 69.4583 595.637 69.6136 594.982 69.6136C594.41 69.6136 593.904 69.4867 593.464 69.233C593.029 68.9754 592.688 68.6023 592.442 68.1136C592.196 67.6212 592.072 67.0265 592.072 66.3295V60.7727H594.129V66.0114C594.129 66.5644 594.281 67.0038 594.584 67.3295C594.887 67.6553 595.285 67.8182 595.777 67.8182C596.08 67.8182 596.374 67.7443 596.658 67.5966C596.942 67.4489 597.175 67.2292 597.357 66.9375C597.542 66.642 597.635 66.2727 597.635 65.8295ZM603.085 72.7727C602.805 72.7727 602.545 72.75 602.307 72.7045C602.072 72.6629 601.884 72.6136 601.744 72.5568L602.222 70.9545C602.521 71.0417 602.788 71.0833 603.023 71.0795C603.258 71.0758 603.464 71.0019 603.642 70.858C603.824 70.7178 603.977 70.483 604.102 70.1534L604.278 69.6818L601.114 60.7727H603.295L605.307 67.3636H605.398L607.415 60.7727H609.602L606.108 70.5568C605.945 71.0189 605.729 71.4148 605.46 71.7443C605.191 72.0777 604.862 72.3314 604.472 72.5057C604.085 72.6837 603.623 72.7727 603.085 72.7727ZM624.648 57.8636V69.5H622.773L617.29 61.5739H617.193V69.5H615.085V57.8636H616.972L622.449 65.7955H622.551V57.8636H624.648ZM630.661 69.6705C629.808 69.6705 629.07 69.483 628.445 69.108C627.82 68.733 627.335 68.2083 626.99 67.5341C626.649 66.8598 626.479 66.072 626.479 65.1705C626.479 64.2689 626.649 63.4792 626.99 62.8011C627.335 62.1231 627.82 61.5966 628.445 61.2216C629.07 60.8466 629.808 60.6591 630.661 60.6591C631.513 60.6591 632.251 60.8466 632.876 61.2216C633.501 61.5966 633.984 62.1231 634.325 62.8011C634.67 63.4792 634.842 64.2689 634.842 65.1705C634.842 66.072 634.67 66.8598 634.325 67.5341C633.984 68.2083 633.501 68.733 632.876 69.108C632.251 69.483 631.513 69.6705 630.661 69.6705ZM630.672 68.0227C631.134 68.0227 631.52 67.8958 631.831 67.642C632.142 67.3845 632.373 67.0398 632.524 66.608C632.679 66.1761 632.757 65.6951 632.757 65.1648C632.757 64.6307 632.679 64.1477 632.524 63.7159C632.373 63.2803 632.142 62.9337 631.831 62.6761C631.52 62.4186 631.134 62.2898 630.672 62.2898C630.198 62.2898 629.804 62.4186 629.49 62.6761C629.179 62.9337 628.946 63.2803 628.791 63.7159C628.64 64.1477 628.564 64.6307 628.564 65.1648C628.564 65.6951 628.64 66.1761 628.791 66.608C628.946 67.0398 629.179 67.3845 629.49 67.642C629.804 67.8958 630.198 68.0227 630.672 68.0227ZM638.139 69.5L635.673 60.7727H637.77L639.304 66.9091H639.384L640.952 60.7727H643.026L644.594 66.875H644.679L646.19 60.7727H648.293L645.821 69.5H643.679L642.043 63.6023H641.923L640.287 69.5H638.139Z" fill="white"/>
<path d="M541.119 93.5V83.3182H544.748C545.54 83.3182 546.196 83.4624 546.717 83.7507C547.237 84.0391 547.626 84.4335 547.885 84.9339C548.143 85.4311 548.273 85.9912 548.273 86.6143C548.273 87.2408 548.142 87.8042 547.88 88.3047C547.621 88.8018 547.23 89.1963 546.707 89.4879C546.186 89.7763 545.532 89.9205 544.743 89.9205H542.247V88.6179H544.604C545.104 88.6179 545.51 88.5317 545.822 88.3594C546.133 88.1837 546.362 87.9451 546.508 87.6435C546.654 87.3419 546.727 86.9988 546.727 86.6143C546.727 86.2299 546.654 85.8885 546.508 85.5902C546.362 85.2919 546.132 85.0582 545.817 84.8892C545.505 84.7202 545.094 84.6357 544.584 84.6357H542.655V93.5H541.119ZM549.954 93.5V85.8636H551.391V87.0767H551.471C551.61 86.6657 551.855 86.3426 552.206 86.1072C552.561 85.8686 552.962 85.7493 553.41 85.7493C553.502 85.7493 553.612 85.7526 553.738 85.7592C553.867 85.7659 553.968 85.7741 554.041 85.7841V87.206C553.981 87.1894 553.875 87.1712 553.723 87.1513C553.57 87.1281 553.418 87.1165 553.265 87.1165C552.914 87.1165 552.601 87.1911 552.326 87.3402C552.054 87.486 551.839 87.6899 551.68 87.9517C551.52 88.2102 551.441 88.5052 551.441 88.8366V93.5H549.954ZM558.345 93.6541C557.593 93.6541 556.945 93.4934 556.401 93.1719C555.861 92.8471 555.443 92.3913 555.148 91.8047C554.857 91.2147 554.711 90.5237 554.711 89.7315C554.711 88.9493 554.857 88.2599 555.148 87.6634C555.443 87.0668 555.854 86.6011 556.381 86.2663C556.912 85.9316 557.531 85.7642 558.241 85.7642C558.672 85.7642 559.089 85.8355 559.494 85.978C559.898 86.1205 560.261 86.3442 560.582 86.6491C560.904 86.9541 561.157 87.3501 561.343 87.8374C561.529 88.3213 561.621 88.9096 561.621 89.6023V90.1293H555.551V89.0156H560.165C560.165 88.6245 560.085 88.2782 559.926 87.9766C559.767 87.6716 559.543 87.4313 559.255 87.2557C558.97 87.08 558.635 86.9922 558.251 86.9922C557.833 86.9922 557.469 87.0949 557.157 87.3004C556.849 87.5026 556.61 87.7678 556.441 88.0959C556.275 88.4207 556.192 88.7737 556.192 89.1548V90.0249C556.192 90.5353 556.282 90.9695 556.461 91.3274C556.643 91.6854 556.897 91.9588 557.222 92.1477C557.546 92.3333 557.926 92.4261 558.36 92.4261C558.642 92.4261 558.899 92.3864 559.131 92.3068C559.363 92.224 559.563 92.1013 559.732 91.9389C559.901 91.7765 560.031 91.576 560.12 91.3374L561.527 91.5909C561.414 92.0052 561.212 92.3681 560.92 92.6797C560.632 92.9879 560.269 93.2282 559.832 93.4006C559.397 93.5696 558.902 93.6541 558.345 93.6541ZM563.271 93.5V85.8636H564.698V87.1065H564.792C564.951 86.6856 565.211 86.3575 565.573 86.1222C565.934 85.8835 566.366 85.7642 566.87 85.7642C567.381 85.7642 567.808 85.8835 568.153 86.1222C568.501 86.3608 568.758 86.6889 568.923 87.1065H569.003C569.185 86.6989 569.475 86.3741 569.873 86.1321C570.271 85.8868 570.745 85.7642 571.295 85.7642C571.988 85.7642 572.553 85.9813 572.99 86.4155C573.431 86.8497 573.651 87.5043 573.651 88.3793V93.5H572.165V88.5185C572.165 88.0014 572.024 87.6269 571.742 87.3949C571.461 87.1629 571.124 87.0469 570.733 87.0469C570.249 87.0469 569.873 87.196 569.605 87.4943C569.336 87.7893 569.202 88.1688 569.202 88.6328V93.5H567.72V88.424C567.72 88.0097 567.591 87.6766 567.333 87.4247C567.074 87.1728 566.738 87.0469 566.323 87.0469C566.042 87.0469 565.781 87.1214 565.543 87.2706C565.307 87.4164 565.117 87.6203 564.971 87.8821C564.829 88.1439 564.757 88.4472 564.757 88.7919V93.5H563.271ZM575.644 93.5V85.8636H577.13V93.5H575.644ZM576.395 84.6854C576.136 84.6854 575.914 84.5992 575.728 84.4268C575.546 84.2512 575.455 84.0424 575.455 83.8004C575.455 83.5552 575.546 83.3464 575.728 83.174C575.914 82.9983 576.136 82.9105 576.395 82.9105C576.653 82.9105 576.873 82.9983 577.056 83.174C577.241 83.3464 577.334 83.5552 577.334 83.8004C577.334 84.0424 577.241 84.2512 577.056 84.4268C576.873 84.5992 576.653 84.6854 576.395 84.6854ZM583.968 90.3331V85.8636H585.459V93.5H583.997V92.1776H583.918C583.742 92.5852 583.46 92.925 583.073 93.1967C582.688 93.4652 582.209 93.5994 581.636 93.5994C581.145 93.5994 580.711 93.4917 580.333 93.2763C579.959 93.0575 579.664 92.7344 579.448 92.3068C579.236 91.8793 579.13 91.3506 579.13 90.7209V85.8636H580.617V90.5419C580.617 91.0623 580.761 91.4766 581.049 91.7848C581.338 92.093 581.712 92.2472 582.173 92.2472C582.451 92.2472 582.728 92.1776 583.003 92.0384C583.281 91.8991 583.512 91.6887 583.694 91.407C583.88 91.1252 583.971 90.7673 583.968 90.3331ZM587.456 93.5V85.8636H588.883V87.1065H588.978C589.137 86.6856 589.397 86.3575 589.758 86.1222C590.119 85.8835 590.552 85.7642 591.056 85.7642C591.566 85.7642 591.994 85.8835 592.338 86.1222C592.686 86.3608 592.943 86.6889 593.109 87.1065H593.189C593.371 86.6989 593.661 86.3741 594.059 86.1321C594.456 85.8868 594.93 85.7642 595.48 85.7642C596.173 85.7642 596.738 85.9813 597.176 86.4155C597.617 86.8497 597.837 87.5043 597.837 88.3793V93.5H596.35V88.5185C596.35 88.0014 596.21 87.6269 595.928 87.3949C595.646 87.1629 595.31 87.0469 594.919 87.0469C594.435 87.0469 594.059 87.196 593.79 87.4943C593.522 87.7893 593.387 88.1688 593.387 88.6328V93.5H591.906V88.424C591.906 88.0097 591.777 87.6766 591.518 87.4247C591.26 87.1728 590.923 87.0469 590.509 87.0469C590.227 87.0469 589.967 87.1214 589.728 87.2706C589.493 87.4164 589.302 87.6203 589.157 87.8821C589.014 88.1439 588.943 88.4472 588.943 88.7919V93.5H587.456ZM603.654 83.3182H605.518L608.76 91.233H608.879L612.12 83.3182H613.985V93.5H612.523V86.1321H612.429L609.426 93.4851H608.213L605.21 86.1271H605.115V93.5H603.654V83.3182ZM619.316 93.6541C618.6 93.6541 617.975 93.4901 617.441 93.1619C616.908 92.8338 616.493 92.3748 616.198 91.7848C615.903 91.1948 615.756 90.5054 615.756 89.7166C615.756 88.9245 615.903 88.2318 616.198 87.6385C616.493 87.0452 616.908 86.5845 617.441 86.2564C617.975 85.9283 618.6 85.7642 619.316 85.7642C620.031 85.7642 620.656 85.9283 621.19 86.2564C621.723 86.5845 622.138 87.0452 622.433 87.6385C622.728 88.2318 622.875 88.9245 622.875 89.7166C622.875 90.5054 622.728 91.1948 622.433 91.7848C622.138 92.3748 621.723 92.8338 621.19 93.1619C620.656 93.4901 620.031 93.6541 619.316 93.6541ZM619.32 92.4062C619.785 92.4062 620.169 92.2836 620.474 92.0384C620.779 91.7931 621.004 91.4666 621.15 91.0589C621.299 90.6513 621.374 90.2022 621.374 89.7116C621.374 89.2244 621.299 88.777 621.15 88.3693C621.004 87.9583 620.779 87.6286 620.474 87.38C620.169 87.1314 619.785 87.0071 619.32 87.0071C618.853 87.0071 618.465 87.1314 618.157 87.38C617.852 87.6286 617.625 87.9583 617.476 88.3693C617.33 88.777 617.257 89.2244 617.257 89.7116C617.257 90.2022 617.33 90.6513 617.476 91.0589C617.625 91.4666 617.852 91.7931 618.157 92.0384C618.465 92.2836 618.853 92.4062 619.32 92.4062ZM626.021 88.9659V93.5H624.534V85.8636H625.961V87.1065H626.056C626.231 86.7022 626.507 86.3774 626.881 86.1321C627.259 85.8868 627.734 85.7642 628.308 85.7642C628.828 85.7642 629.284 85.8736 629.675 86.0923C630.066 86.3078 630.369 86.6293 630.585 87.0568C630.8 87.4844 630.908 88.013 630.908 88.6428V93.5H629.422V88.8217C629.422 88.2682 629.277 87.8357 628.989 87.5241C628.701 87.2093 628.305 87.0518 627.801 87.0518C627.456 87.0518 627.15 87.1264 626.881 87.2756C626.616 87.4247 626.405 87.6435 626.25 87.9318C626.097 88.2169 626.021 88.5616 626.021 88.9659ZM636.466 85.8636V87.0568H632.295V85.8636H636.466ZM633.414 84.0341H634.9V91.2578C634.9 91.5462 634.943 91.7633 635.029 91.9091C635.116 92.0516 635.227 92.1494 635.363 92.2024C635.502 92.2521 635.653 92.277 635.815 92.277C635.934 92.277 636.039 92.2687 636.128 92.2521C636.218 92.2356 636.287 92.2223 636.337 92.2124L636.605 93.4403C636.519 93.4735 636.397 93.5066 636.238 93.5398C636.078 93.5762 635.88 93.5961 635.641 93.5994C635.25 93.6061 634.885 93.5365 634.547 93.3906C634.209 93.2448 633.936 93.0194 633.727 92.7145C633.518 92.4096 633.414 92.0268 633.414 91.5661V84.0341ZM639.761 88.9659V93.5H638.275V83.3182H639.741V87.1065H639.836C640.015 86.6955 640.288 86.3691 640.656 86.1271C641.024 85.8852 641.505 85.7642 642.098 85.7642C642.622 85.7642 643.079 85.8719 643.47 86.0874C643.864 86.3028 644.169 86.6243 644.385 87.0518C644.604 87.4761 644.713 88.0064 644.713 88.6428V93.5H643.226V88.8217C643.226 88.2616 643.082 87.8274 642.794 87.5192C642.506 87.2076 642.104 87.0518 641.591 87.0518C641.239 87.0518 640.925 87.1264 640.646 87.2756C640.371 87.4247 640.154 87.6435 639.995 87.9318C639.839 88.2169 639.761 88.5616 639.761 88.9659ZM648.183 83.3182V93.5H646.697V83.3182H648.183ZM651.123 96.3636C650.9 96.3636 650.698 96.3454 650.516 96.3089C650.334 96.2758 650.198 96.2393 650.108 96.1996L650.466 94.9815C650.738 95.0545 650.98 95.0859 651.192 95.076C651.404 95.0661 651.592 94.9865 651.754 94.8374C651.92 94.6882 652.065 94.4446 652.191 94.1065L652.375 93.5994L649.581 85.8636H651.172L653.106 91.7898H653.186L655.12 85.8636H656.716L653.569 94.5192C653.423 94.9169 653.237 95.2533 653.012 95.5284C652.786 95.8068 652.518 96.0156 652.206 96.1548C651.895 96.294 651.533 96.3636 651.123 96.3636ZM661.937 93.5V83.3182H665.566C666.358 83.3182 667.015 83.4624 667.535 83.7507C668.055 84.0391 668.445 84.4335 668.703 84.9339C668.962 85.4311 669.091 85.9912 669.091 86.6143C669.091 87.2408 668.96 87.8042 668.698 88.3047C668.44 88.8018 668.049 89.1963 667.525 89.4879C667.005 89.7763 666.35 89.9205 665.561 89.9205H663.066V88.6179H665.422C665.923 88.6179 666.329 88.5317 666.64 88.3594C666.952 88.1837 667.18 87.9451 667.326 87.6435C667.472 87.3419 667.545 86.9988 667.545 86.6143C667.545 86.2299 667.472 85.8885 667.326 85.5902C667.18 85.2919 666.95 85.0582 666.635 84.8892C666.324 84.7202 665.913 84.6357 665.402 84.6357H663.473V93.5H661.937ZM672.259 83.3182V93.5H670.773V83.3182H672.259ZM676.481 93.669C675.997 93.669 675.56 93.5795 675.169 93.4006C674.778 93.2183 674.468 92.9548 674.239 92.6101C674.014 92.2654 673.901 91.8428 673.901 91.3423C673.901 90.9115 673.984 90.5568 674.15 90.2784C674.315 90 674.539 89.7796 674.821 89.6172C675.103 89.4548 675.417 89.3321 675.765 89.2493C676.113 89.1664 676.468 89.1035 676.829 89.0604C677.287 89.0073 677.658 88.9643 677.943 88.9311C678.228 88.8946 678.435 88.8366 678.564 88.7571C678.694 88.6776 678.758 88.5483 678.758 88.3693V88.3345C678.758 87.9003 678.636 87.5639 678.39 87.3253C678.148 87.0866 677.787 86.9673 677.307 86.9673C676.806 86.9673 676.412 87.0784 676.123 87.3004C675.838 87.5192 675.641 87.7628 675.532 88.0312L674.135 87.7131C674.3 87.2491 674.542 86.8745 674.861 86.5895C675.182 86.3011 675.552 86.0923 675.969 85.9631C676.387 85.8305 676.826 85.7642 677.287 85.7642C677.592 85.7642 677.915 85.8007 678.256 85.8736C678.601 85.9432 678.922 86.0724 679.221 86.2614C679.522 86.4503 679.769 86.7204 679.961 87.0717C680.154 87.4197 680.25 87.8722 680.25 88.429V93.5H678.798V92.456H678.738C678.642 92.6482 678.498 92.8371 678.306 93.0227C678.114 93.2083 677.867 93.3625 677.565 93.4851C677.264 93.6077 676.902 93.669 676.481 93.669ZM676.805 92.4759C677.215 92.4759 677.567 92.3946 677.858 92.2322C678.153 92.0698 678.377 91.8577 678.53 91.5959C678.685 91.3307 678.763 91.0473 678.763 90.7457V89.7614C678.71 89.8144 678.608 89.8641 678.455 89.9105C678.306 89.9536 678.135 89.9917 677.943 90.0249C677.751 90.0547 677.564 90.0829 677.381 90.1094C677.199 90.1326 677.046 90.1525 676.924 90.169C676.635 90.2055 676.372 90.2668 676.133 90.353C675.898 90.4392 675.709 90.5634 675.567 90.7259C675.427 90.8849 675.358 91.0971 675.358 91.3622C675.358 91.7301 675.494 92.0085 675.765 92.1974C676.037 92.383 676.384 92.4759 676.805 92.4759ZM683.716 88.9659V93.5H682.23V85.8636H683.657V87.1065H683.751C683.927 86.7022 684.202 86.3774 684.576 86.1321C684.954 85.8868 685.43 85.7642 686.003 85.7642C686.524 85.7642 686.979 85.8736 687.37 86.0923C687.761 86.3078 688.065 86.6293 688.28 87.0568C688.496 87.4844 688.603 88.013 688.603 88.6428V93.5H687.117V88.8217C687.117 88.2682 686.973 87.8357 686.684 87.5241C686.396 87.2093 686 87.0518 685.496 87.0518C685.151 87.0518 684.845 87.1264 684.576 87.2756C684.311 87.4247 684.101 87.6435 683.945 87.9318C683.792 88.2169 683.716 88.5616 683.716 88.9659Z" fill="white"/>
<mask id="path-7-inside-2_2463_69161" fill="white">
<path d="M890 1.5H1280V121.5H890V1.5Z"/>
</mask>
<path d="M890 1.5H1280V121.5H890V1.5Z" fill="white"/>
<path d="M890 2.5H1280V0.5H890V2.5Z" fill="#E5E7EB" mask="url(#path-7-inside-2_2463_69161)"/>
<path d="M966.21 30.9545V16.4091H967.142V30.9545H966.21ZM969.125 20.9205C969.064 20.3826 968.814 19.9659 968.375 19.6705C967.936 19.3712 967.383 19.2216 966.716 19.2216C966.239 19.2216 965.826 19.2973 965.477 19.4489C965.129 19.5966 964.858 19.8011 964.665 20.0625C964.475 20.3201 964.381 20.6136 964.381 20.9432C964.381 21.2197 964.445 21.4583 964.574 21.6591C964.706 21.8598 964.879 22.0284 965.091 22.1648C965.307 22.2973 965.538 22.4091 965.784 22.5C966.03 22.5871 966.267 22.6591 966.494 22.7159L967.631 23.0114C968.002 23.1023 968.383 23.2254 968.773 23.3807C969.163 23.536 969.525 23.7405 969.858 23.9943C970.191 24.2481 970.46 24.5625 970.665 24.9375C970.873 25.3125 970.977 25.7614 970.977 26.2841C970.977 26.9432 970.807 27.5284 970.466 28.0398C970.129 28.5511 969.638 28.9545 968.994 29.25C968.354 29.5455 967.58 29.6932 966.67 29.6932C965.799 29.6932 965.045 29.5549 964.409 29.2784C963.773 29.0019 963.275 28.6098 962.915 28.1023C962.555 27.5909 962.356 26.9848 962.318 26.2841H964.08C964.114 26.7045 964.25 27.0549 964.489 27.3352C964.731 27.6117 965.04 27.8182 965.415 27.9545C965.794 28.0871 966.208 28.1534 966.659 28.1534C967.155 28.1534 967.597 28.0758 967.983 27.9205C968.373 27.7614 968.68 27.5417 968.903 27.2614C969.127 26.9773 969.239 26.6458 969.239 26.267C969.239 25.9223 969.14 25.6402 968.943 25.4205C968.75 25.2008 968.487 25.0189 968.153 24.875C967.824 24.7311 967.451 24.6042 967.034 24.4943L965.659 24.1193C964.727 23.8655 963.989 23.4924 963.443 23C962.902 22.5076 962.631 21.8561 962.631 21.0455C962.631 20.375 962.813 19.7898 963.176 19.2898C963.54 18.7898 964.032 18.4015 964.653 18.125C965.275 17.8447 965.975 17.7045 966.756 17.7045C967.544 17.7045 968.239 17.8428 968.841 18.1193C969.447 18.3958 969.924 18.7765 970.273 19.2614C970.621 19.7424 970.803 20.2955 970.818 20.9205H969.125ZM972.916 29.5V28.2273L976.854 24.1477C977.274 23.7045 977.621 23.3163 977.893 22.983C978.17 22.6458 978.376 22.3258 978.513 22.0227C978.649 21.7197 978.717 21.3977 978.717 21.0568C978.717 20.6705 978.626 20.3371 978.445 20.0568C978.263 19.7727 978.015 19.5549 977.7 19.4034C977.386 19.2481 977.032 19.1705 976.638 19.1705C976.221 19.1705 975.857 19.2557 975.547 19.4261C975.236 19.5966 974.998 19.8371 974.831 20.1477C974.664 20.4583 974.581 20.822 974.581 21.2386H972.905C972.905 20.5303 973.068 19.911 973.393 19.3807C973.719 18.8504 974.166 18.4394 974.734 18.1477C975.303 17.8523 975.948 17.7045 976.672 17.7045C977.403 17.7045 978.047 17.8504 978.604 18.142C979.164 18.4299 979.602 18.8239 979.916 19.3239C980.231 19.8201 980.388 20.3807 980.388 21.0057C980.388 21.4375 980.306 21.8598 980.143 22.2727C979.984 22.6856 979.706 23.1458 979.308 23.6534C978.911 24.1572 978.357 24.7689 977.649 25.4886L975.337 27.9091V27.9943H980.575V29.5H972.916ZM986.78 29.6591C986 29.6591 985.303 29.5246 984.689 29.2557C984.079 28.9867 983.596 28.6136 983.24 28.1364C982.888 27.6553 982.698 27.0985 982.672 26.4659H984.456C984.479 26.8106 984.594 27.1098 984.803 27.3636C985.015 27.6136 985.291 27.8068 985.632 27.9432C985.973 28.0795 986.352 28.1477 986.768 28.1477C987.227 28.1477 987.632 28.0682 987.984 27.9091C988.34 27.75 988.619 27.5284 988.82 27.2443C989.02 26.9564 989.121 26.625 989.121 26.25C989.121 25.8598 989.02 25.517 988.82 25.2216C988.623 24.9223 988.333 24.6875 987.95 24.517C987.571 24.3466 987.113 24.2614 986.575 24.2614H985.592V22.8295H986.575C987.007 22.8295 987.386 22.7519 987.712 22.5966C988.041 22.4413 988.299 22.2254 988.484 21.9489C988.67 21.6686 988.763 21.3409 988.763 20.9659C988.763 20.6061 988.681 20.2936 988.518 20.0284C988.359 19.7595 988.132 19.5492 987.837 19.3977C987.545 19.2462 987.2 19.1705 986.803 19.1705C986.424 19.1705 986.07 19.2405 985.74 19.3807C985.414 19.517 985.149 19.714 984.945 19.9716C984.74 20.2254 984.63 20.5303 984.615 20.8864H982.916C982.935 20.2576 983.121 19.7045 983.473 19.2273C983.829 18.75 984.299 18.3769 984.882 18.108C985.465 17.839 986.113 17.7045 986.825 17.7045C987.571 17.7045 988.215 17.8504 988.757 18.142C989.303 18.4299 989.723 18.8144 990.018 19.2955C990.318 19.7765 990.465 20.303 990.462 20.875C990.465 21.5265 990.284 22.0795 989.916 22.5341C989.553 22.9886 989.068 23.2936 988.462 23.4489V23.5398C989.234 23.6572 989.833 23.964 990.257 24.4602C990.685 24.9564 990.897 25.572 990.893 26.3068C990.897 26.947 990.719 27.5208 990.359 28.0284C990.003 28.536 989.517 28.9356 988.899 29.2273C988.282 29.5152 987.575 29.6591 986.78 29.6591ZM996.911 17.7045C997.429 17.7083 997.941 17.803 998.445 17.9886C998.948 18.1742 999.403 18.4773 999.808 18.8977C1000.22 19.3182 1000.54 19.8864 1000.79 20.6023C1001.03 21.3144 1001.16 22.2008 1001.16 23.2614C1001.16 24.2803 1001.06 25.1875 1000.85 25.983C1000.65 26.7746 1000.36 27.4432 999.973 27.9886C999.594 28.5341 999.134 28.9489 998.592 29.233C998.051 29.517 997.441 29.6591 996.763 29.6591C996.07 29.6591 995.454 29.5227 994.916 29.25C994.378 28.9773 993.941 28.6004 993.604 28.1193C993.267 27.6345 993.056 27.0777 992.973 26.4489H994.706C994.82 26.9489 995.051 27.3542 995.399 27.6648C995.751 27.9716 996.206 28.125 996.763 28.125C997.615 28.125 998.28 27.7538 998.757 27.0114C999.234 26.2652 999.475 25.2235 999.479 23.8864H999.388C999.191 24.2121 998.945 24.4924 998.649 24.7273C998.357 24.9621 998.03 25.1439 997.666 25.2727C997.303 25.4015 996.914 25.4659 996.501 25.4659C995.831 25.4659 995.221 25.3011 994.672 24.9716C994.123 24.642 993.685 24.1894 993.359 23.6136C993.034 23.0379 992.871 22.3807 992.871 21.642C992.871 20.9072 993.037 20.2405 993.371 19.642C993.708 19.0436 994.178 18.5701 994.78 18.2216C995.386 17.8693 996.096 17.697 996.911 17.7045ZM996.916 19.1818C996.473 19.1818 996.073 19.2917 995.717 19.5114C995.365 19.7273 995.087 20.0208 994.882 20.392C994.678 20.7595 994.575 21.1686 994.575 21.6193C994.575 22.0701 994.674 22.4792 994.871 22.8466C995.071 23.2102 995.344 23.5 995.689 23.7159C996.037 23.928 996.435 24.0341 996.882 24.0341C997.215 24.0341 997.526 23.9697 997.814 23.8409C998.102 23.7121 998.354 23.5341 998.57 23.3068C998.786 23.0758 998.954 22.8144 999.075 22.5227C999.196 22.2311 999.257 21.9242 999.257 21.6023C999.257 21.1742 999.155 20.7765 998.95 20.4091C998.75 20.0417 998.473 19.7462 998.121 19.5227C997.768 19.2955 997.367 19.1818 996.916 19.1818ZM1003.93 29.608C1003.62 29.608 1003.36 29.4981 1003.13 29.2784C1002.91 29.0549 1002.8 28.786 1002.8 28.4716C1002.8 28.161 1002.91 27.8958 1003.13 27.6761C1003.36 27.4527 1003.62 27.3409 1003.93 27.3409C1004.24 27.3409 1004.51 27.4527 1004.73 27.6761C1004.96 27.8958 1005.07 28.161 1005.07 28.4716C1005.07 28.6799 1005.02 28.8712 1004.91 29.0455C1004.81 29.2159 1004.67 29.3523 1004.5 29.4545C1004.33 29.5568 1004.14 29.608 1003.93 29.608ZM1010.86 29.6591C1010.05 29.6591 1009.33 29.5189 1008.7 29.2386C1008.08 28.9583 1007.6 28.572 1007.24 28.0795C1006.89 27.5871 1006.72 27.0265 1006.72 26.3977C1006.72 25.9053 1006.82 25.4527 1007.02 25.0398C1007.23 24.6231 1007.51 24.2765 1007.87 24C1008.23 23.7197 1008.62 23.5417 1009.06 23.4659V23.3977C1008.48 23.2576 1008.02 22.947 1007.67 22.4659C1007.32 21.9848 1007.15 21.4318 1007.15 20.8068C1007.15 20.2121 1007.31 19.6818 1007.62 19.2159C1007.95 18.7462 1008.39 18.3769 1008.95 18.108C1009.51 17.839 1010.15 17.7045 1010.86 17.7045C1011.57 17.7045 1012.2 17.8409 1012.76 18.1136C1013.32 18.3826 1013.76 18.7519 1014.09 19.2216C1014.41 19.6875 1014.57 20.2159 1014.57 20.8068C1014.57 21.4318 1014.39 21.9848 1014.04 22.4659C1013.69 22.947 1013.23 23.2576 1012.66 23.3977V23.4659C1013.1 23.5417 1013.49 23.7197 1013.84 24C1014.19 24.2765 1014.47 24.6231 1014.68 25.0398C1014.89 25.4527 1015 25.9053 1015.01 26.3977C1015 27.0265 1014.82 27.5871 1014.47 28.0795C1014.12 28.572 1013.63 28.9583 1013.01 29.2386C1012.38 29.5189 1011.67 29.6591 1010.86 29.6591ZM1010.86 28.2216C1011.34 28.2216 1011.76 28.142 1012.11 27.983C1012.47 27.8201 1012.74 27.5947 1012.93 27.3068C1013.13 27.0152 1013.22 26.6742 1013.23 26.2841C1013.22 25.8788 1013.12 25.5208 1012.91 25.2102C1012.7 24.8996 1012.43 24.6553 1012.07 24.4773C1011.72 24.2992 1011.32 24.2102 1010.86 24.2102C1010.41 24.2102 1010 24.2992 1009.64 24.4773C1009.29 24.6553 1009.01 24.8996 1008.8 25.2102C1008.6 25.5208 1008.5 25.8788 1008.5 26.2841C1008.5 26.6742 1008.59 27.0152 1008.78 27.3068C1008.97 27.5947 1009.25 27.8201 1009.6 27.983C1009.96 28.142 1010.38 28.2216 1010.86 28.2216ZM1010.86 22.8068C1011.25 22.8068 1011.59 22.7292 1011.89 22.5739C1012.19 22.4186 1012.43 22.2027 1012.6 21.9261C1012.77 21.6496 1012.86 21.3258 1012.86 20.9545C1012.86 20.5909 1012.77 20.2727 1012.6 20C1012.44 19.7273 1012.2 19.517 1011.9 19.3693C1011.6 19.2178 1011.26 19.142 1010.86 19.142C1010.46 19.142 1010.11 19.2178 1009.81 19.3693C1009.51 19.517 1009.27 19.7273 1009.11 20C1008.94 20.2727 1008.86 20.5909 1008.86 20.9545C1008.86 21.3258 1008.94 21.6496 1009.11 21.9261C1009.28 22.2027 1009.52 22.4186 1009.82 22.5739C1010.12 22.7292 1010.47 22.8068 1010.86 22.8068ZM1020.97 29.6591C1020.16 29.6591 1019.44 29.5189 1018.81 29.2386C1018.19 28.9583 1017.71 28.572 1017.35 28.0795C1017 27.5871 1016.83 27.0265 1016.83 26.3977C1016.83 25.9053 1016.93 25.4527 1017.13 25.0398C1017.34 24.6231 1017.62 24.2765 1017.98 24C1018.33 23.7197 1018.73 23.5417 1019.17 23.4659V23.3977C1018.59 23.2576 1018.13 22.947 1017.78 22.4659C1017.43 21.9848 1017.26 21.4318 1017.26 20.8068C1017.26 20.2121 1017.42 19.6818 1017.73 19.2159C1018.06 18.7462 1018.5 18.3769 1019.06 18.108C1019.62 17.839 1020.26 17.7045 1020.97 17.7045C1021.68 17.7045 1022.31 17.8409 1022.87 18.1136C1023.43 18.3826 1023.87 18.7519 1024.19 19.2216C1024.52 19.6875 1024.68 20.2159 1024.68 20.8068C1024.68 21.4318 1024.5 21.9848 1024.15 22.4659C1023.8 22.947 1023.34 23.2576 1022.77 23.3977V23.4659C1023.21 23.5417 1023.6 23.7197 1023.95 24C1024.3 24.2765 1024.58 24.6231 1024.79 25.0398C1025 25.4527 1025.11 25.9053 1025.12 26.3977C1025.11 27.0265 1024.93 27.5871 1024.58 28.0795C1024.23 28.572 1023.74 28.9583 1023.12 29.2386C1022.49 29.5189 1021.78 29.6591 1020.97 29.6591ZM1020.97 28.2216C1021.45 28.2216 1021.87 28.142 1022.22 27.983C1022.58 27.8201 1022.85 27.5947 1023.04 27.3068C1023.23 27.0152 1023.33 26.6742 1023.34 26.2841C1023.33 25.8788 1023.23 25.5208 1023.02 25.2102C1022.81 24.8996 1022.54 24.6553 1022.18 24.4773C1021.83 24.2992 1021.43 24.2102 1020.97 24.2102C1020.51 24.2102 1020.11 24.2992 1019.75 24.4773C1019.4 24.6553 1019.12 24.8996 1018.91 25.2102C1018.71 25.5208 1018.61 25.8788 1018.61 26.2841C1018.61 26.6742 1018.7 27.0152 1018.89 27.3068C1019.08 27.5947 1019.36 27.8201 1019.71 27.983C1020.07 28.142 1020.49 28.2216 1020.97 28.2216ZM1020.97 22.8068C1021.36 22.8068 1021.7 22.7292 1022 22.5739C1022.3 22.4186 1022.54 22.2027 1022.71 21.9261C1022.88 21.6496 1022.97 21.3258 1022.97 20.9545C1022.97 20.5909 1022.88 20.2727 1022.71 20C1022.54 19.7273 1022.31 19.517 1022.01 19.3693C1021.71 19.2178 1021.37 19.142 1020.97 19.142C1020.57 19.142 1020.22 19.2178 1019.92 19.3693C1019.62 19.517 1019.38 19.7273 1019.22 20C1019.05 20.2727 1018.97 20.5909 1018.97 20.9545C1018.97 21.3258 1019.05 21.6496 1019.22 21.9261C1019.39 22.2027 1019.63 22.4186 1019.93 22.5739C1020.23 22.7292 1020.58 22.8068 1020.97 22.8068Z" fill="#4B5563"/>
<path d="M961.5 24.2614H1026.02V25.3523H961.5V24.2614Z" fill="#4B5563"/>
<path d="M1039.35 30.9545V16.4091H1040.28V30.9545H1039.35ZM1041.82 21.2102C1041.78 20.7519 1041.58 20.3958 1041.24 20.142C1040.89 19.8883 1040.43 19.7614 1039.84 19.7614C1039.43 19.7614 1039.09 19.8182 1038.82 19.9318C1038.54 20.0417 1038.33 20.1951 1038.18 20.392C1038.04 20.589 1037.97 20.8125 1037.97 21.0625C1037.96 21.2708 1038 21.4527 1038.1 21.608C1038.2 21.7633 1038.33 21.8977 1038.5 22.0114C1038.67 22.1212 1038.87 22.2178 1039.09 22.3011C1039.31 22.3807 1039.55 22.4489 1039.81 22.5057L1040.85 22.7557C1041.36 22.8693 1041.83 23.0208 1042.25 23.2102C1042.67 23.3996 1043.04 23.6326 1043.35 23.9091C1043.66 24.1856 1043.9 24.5114 1044.07 24.8864C1044.25 25.2614 1044.34 25.6913 1044.34 26.1761C1044.34 26.8883 1044.16 27.5057 1043.8 28.0284C1043.44 28.5473 1042.92 28.9508 1042.25 29.2386C1041.58 29.5227 1040.77 29.6648 1039.82 29.6648C1038.88 29.6648 1038.07 29.5208 1037.37 29.233C1036.68 28.9451 1036.13 28.5189 1035.74 27.9545C1035.36 27.3864 1035.16 26.6837 1035.14 25.8466H1037.52C1037.54 26.2367 1037.66 26.5625 1037.85 26.8239C1038.05 27.0814 1038.32 27.2765 1038.65 27.4091C1038.99 27.5379 1039.37 27.6023 1039.8 27.6023C1040.21 27.6023 1040.57 27.5417 1040.88 27.4205C1041.19 27.2992 1041.43 27.1307 1041.6 26.9148C1041.77 26.6989 1041.86 26.4508 1041.86 26.1705C1041.86 25.9091 1041.78 25.6894 1041.62 25.5114C1041.47 25.3333 1041.25 25.1818 1040.95 25.0568C1040.66 24.9318 1040.3 24.8182 1039.88 24.7159L1038.61 24.3977C1037.63 24.1591 1036.86 23.786 1036.29 23.2784C1035.72 22.7708 1035.44 22.0871 1035.44 21.2273C1035.44 20.5227 1035.63 19.9072 1036.01 19.3807C1036.39 18.8542 1036.91 18.4432 1037.58 18.1477C1038.25 17.8523 1039 17.7045 1039.85 17.7045C1040.72 17.7045 1041.47 17.8523 1042.11 18.1477C1042.76 18.4432 1043.27 18.8542 1043.62 19.3807C1043.98 19.9072 1044.17 20.517 1044.18 21.2102H1041.82ZM1050.99 17.8636V29.5H1048.53V20.1989H1048.46L1045.8 21.8693V19.6875L1048.68 17.8636H1050.99ZM1058.82 17.8636V29.5H1056.36V20.1989H1056.29L1053.62 21.8693V19.6875L1056.51 17.8636H1058.82ZM1065.79 17.7045C1066.39 17.7045 1066.97 17.8049 1067.52 18.0057C1068.08 18.2064 1068.57 18.5265 1069.01 18.9659C1069.45 19.4053 1069.8 19.9886 1070.05 20.7159C1070.31 21.4394 1070.44 22.3277 1070.44 23.3807C1070.44 24.3693 1070.33 25.2519 1070.11 26.0284C1069.89 26.8011 1069.57 27.4583 1069.16 28C1068.74 28.5417 1068.25 28.9545 1067.66 29.2386C1067.08 29.5189 1066.43 29.6591 1065.71 29.6591C1064.93 29.6591 1064.25 29.5095 1063.65 29.2102C1063.06 28.9072 1062.58 28.4962 1062.21 27.9773C1061.85 27.4545 1061.64 26.8674 1061.56 26.2159H1063.99C1064.08 26.6402 1064.28 26.9697 1064.58 27.2045C1064.89 27.4356 1065.26 27.5511 1065.71 27.5511C1066.47 27.5511 1067.04 27.2216 1067.44 26.5625C1067.83 25.8996 1068.03 24.9924 1068.03 23.8409H1067.95C1067.78 24.1818 1067.54 24.4754 1067.25 24.7216C1066.95 24.964 1066.61 25.1515 1066.23 25.2841C1065.85 25.4167 1065.45 25.483 1065.02 25.483C1064.34 25.483 1063.72 25.322 1063.19 25C1062.65 24.678 1062.22 24.2348 1061.91 23.6705C1061.6 23.1061 1061.45 22.4621 1061.45 21.7386C1061.44 20.9583 1061.62 20.2633 1061.99 19.6534C1062.35 19.0436 1062.86 18.5663 1063.51 18.2216C1064.17 17.8731 1064.93 17.7008 1065.79 17.7045ZM1065.81 19.6364C1065.43 19.6364 1065.09 19.7273 1064.79 19.9091C1064.49 20.0909 1064.26 20.3352 1064.08 20.642C1063.91 20.9489 1063.83 21.2917 1063.83 21.6705C1063.83 22.053 1063.92 22.3977 1064.08 22.7045C1064.25 23.0076 1064.49 23.25 1064.78 23.4318C1065.07 23.6098 1065.41 23.6989 1065.79 23.6989C1066.07 23.6989 1066.34 23.6458 1066.58 23.5398C1066.82 23.4337 1067.03 23.2879 1067.21 23.1023C1067.39 22.9129 1067.53 22.6951 1067.63 22.4489C1067.74 22.2027 1067.79 21.9413 1067.79 21.6648C1067.78 21.2973 1067.7 20.9602 1067.53 20.6534C1067.36 20.3466 1067.12 20.1004 1066.82 19.9148C1066.52 19.7292 1066.19 19.6364 1065.81 19.6364ZM1073.12 29.6477C1072.74 29.6477 1072.42 29.5152 1072.15 29.25C1071.88 28.9811 1071.75 28.6591 1071.75 28.2841C1071.75 27.9129 1071.88 27.5947 1072.15 27.3295C1072.42 27.0644 1072.74 26.9318 1073.12 26.9318C1073.48 26.9318 1073.8 27.0644 1074.07 27.3295C1074.34 27.5947 1074.48 27.9129 1074.48 28.2841C1074.48 28.5341 1074.41 28.7633 1074.29 28.9716C1074.16 29.1761 1074 29.3409 1073.79 29.4659C1073.59 29.5871 1073.36 29.6477 1073.12 29.6477ZM1080.43 17.7045C1081.03 17.7045 1081.61 17.8049 1082.16 18.0057C1082.72 18.2064 1083.21 18.5265 1083.65 18.9659C1084.09 19.4053 1084.44 19.9886 1084.69 20.7159C1084.95 21.4394 1085.08 22.3277 1085.08 23.3807C1085.08 24.3693 1084.97 25.2519 1084.75 26.0284C1084.53 26.8011 1084.21 27.4583 1083.8 28C1083.39 28.5417 1082.89 28.9545 1082.3 29.2386C1081.72 29.5189 1081.07 29.6591 1080.35 29.6591C1079.57 29.6591 1078.89 29.5095 1078.29 29.2102C1077.7 28.9072 1077.22 28.4962 1076.86 27.9773C1076.5 27.4545 1076.28 26.8674 1076.2 26.2159H1078.63C1078.72 26.6402 1078.92 26.9697 1079.22 27.2045C1079.53 27.4356 1079.9 27.5511 1080.35 27.5511C1081.11 27.5511 1081.68 27.2216 1082.08 26.5625C1082.47 25.8996 1082.67 24.9924 1082.67 23.8409H1082.59C1082.42 24.1818 1082.18 24.4754 1081.89 24.7216C1081.59 24.964 1081.25 25.1515 1080.87 25.2841C1080.49 25.4167 1080.09 25.483 1079.66 25.483C1078.98 25.483 1078.36 25.322 1077.83 25C1077.29 24.678 1076.86 24.2348 1076.55 23.6705C1076.24 23.1061 1076.09 22.4621 1076.09 21.7386C1076.08 20.9583 1076.26 20.2633 1076.63 19.6534C1076.99 19.0436 1077.5 18.5663 1078.15 18.2216C1078.81 17.8731 1079.57 17.7008 1080.43 17.7045ZM1080.45 19.6364C1080.07 19.6364 1079.73 19.7273 1079.43 19.9091C1079.13 20.0909 1078.9 20.3352 1078.72 20.642C1078.55 20.9489 1078.47 21.2917 1078.47 21.6705C1078.47 22.053 1078.56 22.3977 1078.72 22.7045C1078.89 23.0076 1079.13 23.25 1079.42 23.4318C1079.71 23.6098 1080.05 23.6989 1080.43 23.6989C1080.71 23.6989 1080.98 23.6458 1081.22 23.5398C1081.46 23.4337 1081.67 23.2879 1081.85 23.1023C1082.03 22.9129 1082.17 22.6951 1082.28 22.4489C1082.38 22.2027 1082.43 21.9413 1082.43 21.6648C1082.43 21.2973 1082.34 20.9602 1082.17 20.6534C1082 20.3466 1081.76 20.1004 1081.46 19.9148C1081.16 19.7292 1080.83 19.6364 1080.45 19.6364ZM1086.61 27.4545V25.517L1091.47 17.8636H1093.14V20.5455H1092.15L1089.09 25.392V25.483H1095.99V27.4545H1086.61ZM1092.2 29.5V26.8636L1092.24 26.0057V17.8636H1094.55V29.5H1092.2Z" fill="#111827"/>
<path d="M1102.26 17.3182L1098.51 31.25H1096.99L1100.74 17.3182H1102.26ZM1104.78 32.7727C1104.52 32.7727 1104.29 32.7519 1104.09 32.7102C1103.88 32.6723 1103.72 32.6307 1103.62 32.5852L1104.03 31.1932C1104.34 31.2765 1104.62 31.3125 1104.86 31.3011C1105.1 31.2898 1105.31 31.1989 1105.5 31.0284C1105.69 30.858 1105.86 30.5795 1106 30.1932L1106.21 29.6136L1103.02 20.7727H1104.84L1107.05 27.5455H1107.14L1109.35 20.7727H1111.17L1107.57 30.6648C1107.41 31.1193 1107.2 31.5038 1106.94 31.8182C1106.68 32.1364 1106.37 32.375 1106.02 32.5341C1105.66 32.6932 1105.25 32.7727 1104.78 32.7727ZM1112.77 29.5V20.7727H1114.41V22.1591H1114.5C1114.66 21.6894 1114.94 21.3201 1115.34 21.0511C1115.75 20.7784 1116.2 20.642 1116.72 20.642C1116.82 20.642 1116.95 20.6458 1117.09 20.6534C1117.24 20.661 1117.35 20.6705 1117.44 20.6818V22.3068C1117.37 22.2879 1117.25 22.267 1117.07 22.2443C1116.9 22.2178 1116.73 22.2045 1116.55 22.2045C1116.15 22.2045 1115.79 22.2898 1115.48 22.4602C1115.17 22.6269 1114.92 22.8598 1114.74 23.1591C1114.56 23.4545 1114.47 23.7917 1114.47 24.1705V29.5H1112.77Z" fill="#6B7280"/>
<path d="M1124.07 23.6818C1124.07 22.2614 1124.26 20.9564 1124.63 19.767C1125.01 18.5739 1125.57 17.4716 1126.32 16.4602H1128.26C1127.97 16.8352 1127.7 17.2955 1127.45 17.8409C1127.2 18.3826 1126.98 18.9773 1126.8 19.625C1126.61 20.2689 1126.47 20.9375 1126.36 21.6307C1126.26 22.3239 1126.21 23.0076 1126.21 23.6818C1126.21 24.5795 1126.3 25.4886 1126.48 26.4091C1126.66 27.3295 1126.9 28.1837 1127.21 28.9716C1127.52 29.7557 1127.87 30.3977 1128.26 30.8977H1126.32C1125.57 29.8864 1125.01 28.786 1124.63 27.5966C1124.26 26.4034 1124.07 25.0985 1124.07 23.6818ZM1136.27 21.0625C1136.22 20.5663 1135.99 20.1799 1135.6 19.9034C1135.21 19.6269 1134.7 19.4886 1134.08 19.4886C1133.64 19.4886 1133.26 19.5549 1132.94 19.6875C1132.63 19.8201 1132.39 20 1132.22 20.2273C1132.06 20.4545 1131.97 20.714 1131.97 21.0057C1131.97 21.2481 1132.02 21.4583 1132.13 21.6364C1132.25 21.8144 1132.4 21.9659 1132.59 22.0909C1132.79 22.2121 1133 22.3144 1133.23 22.3977C1133.47 22.4811 1133.71 22.5511 1133.94 22.608L1135.04 22.8807C1135.47 22.983 1135.9 23.1212 1136.3 23.2955C1136.71 23.4697 1137.08 23.6894 1137.4 23.9545C1137.72 24.2197 1137.98 24.5398 1138.17 24.9148C1138.36 25.2898 1138.46 25.7292 1138.46 26.233C1138.46 26.9148 1138.28 27.5152 1137.93 28.0341C1137.58 28.5492 1137.08 28.9527 1136.42 29.2443C1135.77 29.5322 1134.97 29.6761 1134.04 29.6761C1133.14 29.6761 1132.35 29.536 1131.68 29.2557C1131.02 28.9754 1130.5 28.5663 1130.13 28.0284C1129.76 27.4905 1129.55 26.8352 1129.52 26.0625H1131.6C1131.63 26.4678 1131.75 26.8049 1131.97 27.0739C1132.19 27.3428 1132.48 27.5436 1132.83 27.6761C1133.19 27.8087 1133.58 27.875 1134.02 27.875C1134.48 27.875 1134.88 27.8068 1135.23 27.6705C1135.58 27.5303 1135.85 27.3371 1136.05 27.0909C1136.24 26.8409 1136.34 26.5492 1136.35 26.2159C1136.34 25.9129 1136.26 25.6629 1136.08 25.4659C1135.91 25.2652 1135.66 25.0985 1135.35 24.9659C1135.04 24.8295 1134.67 24.7083 1134.26 24.6023L1132.93 24.2614C1131.97 24.0152 1131.22 23.642 1130.66 23.142C1130.11 22.6383 1129.83 21.9697 1129.83 21.1364C1129.83 20.4508 1130.02 19.8504 1130.39 19.3352C1130.76 18.8201 1131.27 18.4205 1131.92 18.1364C1132.56 17.8485 1133.29 17.7045 1134.1 17.7045C1134.93 17.7045 1135.65 17.8485 1136.27 18.1364C1136.9 18.4205 1137.39 18.8163 1137.75 19.3239C1138.1 19.8277 1138.29 20.4072 1138.3 21.0625H1136.27ZM1142.76 29.6761C1142.2 29.6761 1141.7 29.5777 1141.26 29.3807C1140.82 29.1799 1140.47 28.8845 1140.22 28.4943C1139.96 28.1042 1139.84 27.6231 1139.84 27.0511C1139.84 26.5587 1139.93 26.1515 1140.11 25.8295C1140.29 25.5076 1140.54 25.25 1140.85 25.0568C1141.17 24.8636 1141.52 24.7178 1141.91 24.6193C1142.31 24.517 1142.72 24.4432 1143.15 24.3977C1143.66 24.3447 1144.07 24.2973 1144.39 24.2557C1144.71 24.2102 1144.94 24.142 1145.09 24.0511C1145.23 23.9564 1145.31 23.8106 1145.31 23.6136V23.5795C1145.31 23.1515 1145.18 22.8201 1144.93 22.5852C1144.67 22.3504 1144.31 22.233 1143.83 22.233C1143.33 22.233 1142.93 22.3428 1142.63 22.5625C1142.34 22.7822 1142.14 23.0417 1142.04 23.3409L1140.12 23.0682C1140.27 22.5379 1140.52 22.0947 1140.87 21.7386C1141.22 21.3788 1141.64 21.1098 1142.15 20.9318C1142.65 20.75 1143.21 20.6591 1143.82 20.6591C1144.24 20.6591 1144.66 20.7083 1145.07 20.8068C1145.49 20.9053 1145.87 21.0682 1146.22 21.2955C1146.56 21.5189 1146.84 21.8239 1147.05 22.2102C1147.26 22.5966 1147.36 23.0795 1147.36 23.6591V29.5H1145.39V28.3011H1145.32C1145.19 28.5436 1145.02 28.7708 1144.79 28.983C1144.57 29.1913 1144.28 29.3598 1143.94 29.4886C1143.61 29.6136 1143.21 29.6761 1142.76 29.6761ZM1143.29 28.1648C1143.7 28.1648 1144.06 28.0833 1144.36 27.9205C1144.67 27.7538 1144.9 27.5341 1145.06 27.2614C1145.23 26.9886 1145.31 26.6913 1145.31 26.3693V25.3409C1145.25 25.3939 1145.14 25.4432 1144.98 25.4886C1144.83 25.5341 1144.66 25.5739 1144.47 25.608C1144.28 25.642 1144.09 25.6723 1143.91 25.6989C1143.72 25.7254 1143.56 25.7481 1143.43 25.767C1143.12 25.8087 1142.84 25.8769 1142.6 25.9716C1142.36 26.0663 1142.17 26.1989 1142.03 26.3693C1141.89 26.536 1141.82 26.7519 1141.82 27.017C1141.82 27.3958 1141.96 27.6818 1142.23 27.875C1142.51 28.0682 1142.86 28.1648 1143.29 28.1648ZM1156.91 20.7727L1153.81 29.5H1151.53L1148.43 20.7727H1150.62L1152.62 27.2557H1152.72L1154.73 20.7727H1156.91ZM1161.9 29.6705C1161.03 29.6705 1160.27 29.4886 1159.64 29.125C1159.01 28.7576 1158.52 28.2386 1158.18 27.5682C1157.84 26.8939 1157.67 26.1004 1157.67 25.1875C1157.67 24.2898 1157.84 23.5019 1158.18 22.8239C1158.52 22.142 1159 21.6117 1159.62 21.233C1160.24 20.8504 1160.96 20.6591 1161.8 20.6591C1162.33 20.6591 1162.84 20.7462 1163.32 20.9205C1163.8 21.0909 1164.22 21.3561 1164.59 21.7159C1164.96 22.0758 1165.26 22.5341 1165.47 23.0909C1165.68 23.6439 1165.79 24.303 1165.79 25.0682V25.6989H1158.63V24.3125H1163.81C1163.81 23.9186 1163.72 23.5682 1163.56 23.2614C1163.39 22.9508 1163.16 22.7064 1162.86 22.5284C1162.56 22.3504 1162.22 22.2614 1161.83 22.2614C1161.4 22.2614 1161.04 22.3636 1160.72 22.5682C1160.4 22.7689 1160.15 23.0341 1159.97 23.3636C1159.8 23.6894 1159.71 24.0473 1159.71 24.4375V25.6477C1159.71 26.1553 1159.8 26.5909 1159.98 26.9545C1160.17 27.3144 1160.43 27.5909 1160.76 27.7841C1161.1 27.9735 1161.49 28.0682 1161.93 28.0682C1162.23 28.0682 1162.5 28.0265 1162.75 27.9432C1162.99 27.8561 1163.2 27.7292 1163.38 27.5625C1163.55 27.3958 1163.69 27.1894 1163.78 26.9432L1165.7 27.1591C1165.58 27.6667 1165.35 28.1098 1165.01 28.4886C1164.67 28.8636 1164.24 29.1553 1163.71 29.3636C1163.19 29.5682 1162.58 29.6705 1161.9 29.6705ZM1176.2 17.8636V29.5H1174.1V19.9148H1174.03L1171.31 21.6534V19.7216L1174.2 17.8636H1176.2ZM1183.42 29.6591C1182.86 29.6553 1182.32 29.5587 1181.79 29.3693C1181.26 29.1761 1180.78 28.8636 1180.36 28.4318C1179.93 27.9962 1179.6 27.4186 1179.35 26.6989C1179.1 25.9754 1178.97 25.0795 1178.98 24.0114C1178.98 23.0152 1179.08 22.1269 1179.3 21.3466C1179.51 20.5663 1179.81 19.9072 1180.21 19.3693C1180.61 18.8277 1181.09 18.4148 1181.65 18.1307C1182.21 17.8466 1182.84 17.7045 1183.54 17.7045C1184.27 17.7045 1184.92 17.8485 1185.48 18.1364C1186.05 18.4242 1186.51 18.8182 1186.86 19.3182C1187.21 19.8144 1187.42 20.375 1187.51 21H1185.43C1185.33 20.553 1185.11 20.197 1184.78 19.9318C1184.45 19.6629 1184.04 19.5284 1183.54 19.5284C1182.73 19.5284 1182.11 19.8788 1181.68 20.5795C1181.24 21.2803 1181.03 22.2424 1181.02 23.4659H1181.1C1181.29 23.1326 1181.53 22.8466 1181.82 22.608C1182.12 22.3693 1182.45 22.1856 1182.82 22.0568C1183.2 21.9242 1183.59 21.858 1184.01 21.858C1184.69 21.858 1185.3 22.0208 1185.85 22.3466C1186.39 22.6723 1186.82 23.1212 1187.14 23.6932C1187.46 24.2614 1187.62 24.9129 1187.61 25.6477C1187.62 26.4129 1187.44 27.1004 1187.09 27.7102C1186.74 28.3163 1186.25 28.7936 1185.62 29.142C1184.99 29.4905 1184.26 29.6629 1183.42 29.6591ZM1183.41 27.9545C1183.82 27.9545 1184.19 27.8542 1184.52 27.6534C1184.84 27.4527 1185.1 27.1818 1185.29 26.8409C1185.48 26.5 1185.57 26.1174 1185.57 25.6932C1185.57 25.2765 1185.48 24.8996 1185.3 24.5625C1185.11 24.2254 1184.86 23.9583 1184.54 23.7614C1184.22 23.5644 1183.85 23.4659 1183.44 23.4659C1183.13 23.4659 1182.84 23.5246 1182.58 23.642C1182.31 23.7595 1182.08 23.9223 1181.89 24.1307C1181.69 24.3352 1181.53 24.5739 1181.42 24.8466C1181.31 25.1155 1181.25 25.4034 1181.25 25.7102C1181.25 26.1155 1181.35 26.4886 1181.53 26.8295C1181.72 27.1705 1181.98 27.4432 1182.3 27.6477C1182.63 27.8523 1183 27.9545 1183.41 27.9545ZM1195.76 27.3182V26.7045C1195.76 26.2538 1195.85 25.839 1196.04 25.4602C1196.23 25.0814 1196.51 24.7765 1196.88 24.5455C1197.25 24.3144 1197.69 24.1989 1198.22 24.1989C1198.75 24.1989 1199.2 24.3144 1199.57 24.5455C1199.93 24.7727 1200.21 25.0758 1200.39 25.4545C1200.58 25.8333 1200.68 26.25 1200.68 26.7045V27.3182C1200.68 27.7689 1200.58 28.1837 1200.39 28.5625C1200.2 28.9413 1199.92 29.2462 1199.56 29.4773C1199.19 29.7083 1198.75 29.8239 1198.22 29.8239C1197.69 29.8239 1197.24 29.7083 1196.87 29.4773C1196.5 29.2462 1196.22 28.9413 1196.03 28.5625C1195.85 28.1837 1195.76 27.7689 1195.76 27.3182ZM1197.24 26.7045V27.3182C1197.24 27.6174 1197.31 27.892 1197.45 28.142C1197.6 28.392 1197.85 28.517 1198.22 28.517C1198.58 28.517 1198.84 28.3939 1198.97 28.1477C1199.11 27.8977 1199.18 27.6212 1199.18 27.3182V26.7045C1199.18 26.4015 1199.12 26.125 1198.98 25.875C1198.85 25.6212 1198.59 25.4943 1198.22 25.4943C1197.86 25.4943 1197.61 25.6212 1197.46 25.875C1197.31 26.125 1197.24 26.4015 1197.24 26.7045ZM1189.84 20.6591V20.0455C1189.84 19.5909 1189.94 19.1742 1190.13 18.7955C1190.32 18.4167 1190.6 18.1136 1190.97 17.8864C1191.34 17.6553 1191.78 17.5398 1192.31 17.5398C1192.84 17.5398 1193.29 17.6553 1193.65 17.8864C1194.02 18.1136 1194.3 18.4167 1194.48 18.7955C1194.67 19.1742 1194.76 19.5909 1194.76 20.0455V20.6591C1194.76 21.1136 1194.67 21.5303 1194.48 21.9091C1194.29 22.2841 1194.02 22.5852 1193.65 22.8125C1193.28 23.0398 1192.83 23.1534 1192.31 23.1534C1191.77 23.1534 1191.32 23.0398 1190.95 22.8125C1190.59 22.5852 1190.31 22.2822 1190.12 21.9034C1189.94 21.5246 1189.84 21.1098 1189.84 20.6591ZM1191.34 20.0455V20.6591C1191.34 20.9621 1191.41 21.2386 1191.55 21.4886C1191.69 21.7348 1191.94 21.858 1192.31 21.858C1192.67 21.858 1192.92 21.7348 1193.06 21.4886C1193.2 21.2386 1193.27 20.9621 1193.27 20.6591V20.0455C1193.27 19.7424 1193.2 19.4659 1193.07 19.2159C1192.94 18.9621 1192.68 18.8352 1192.31 18.8352C1191.95 18.8352 1191.7 18.9621 1191.55 19.2159C1191.41 19.4697 1191.34 19.7462 1191.34 20.0455ZM1190.49 29.5L1198.49 17.8636H1199.91L1191.91 29.5H1190.49ZM1206.73 23.6818C1206.73 25.0985 1206.54 26.4034 1206.16 27.5966C1205.78 28.786 1205.22 29.8864 1204.48 30.8977H1202.54C1202.83 30.5227 1203.1 30.0644 1203.35 29.5227C1203.6 28.9811 1203.81 28.3864 1203.99 27.7386C1204.18 27.0909 1204.32 26.4205 1204.43 25.7273C1204.53 25.0341 1204.59 24.3523 1204.59 23.6818C1204.59 22.7841 1204.49 21.875 1204.31 20.9545C1204.13 20.0341 1203.89 19.1799 1203.58 18.392C1203.27 17.6042 1202.93 16.9602 1202.54 16.4602H1204.48C1205.22 17.4716 1205.78 18.5739 1206.16 19.767C1206.54 20.9564 1206.73 22.2614 1206.73 23.6818Z" fill="#15803D"/>
<rect x="915" y="45.5" width="340" height="61" rx="8" fill="#455EDE"/>
<path d="M1051.65 69.5V57.8636H1056.1C1056.94 57.8636 1057.64 57.9962 1058.2 58.2614C1058.76 58.5227 1059.18 58.8807 1059.45 59.3352C1059.73 59.7898 1059.88 60.3049 1059.88 60.8807C1059.88 61.3542 1059.78 61.7595 1059.6 62.0966C1059.42 62.4299 1059.18 62.7008 1058.87 62.9091C1058.56 63.1174 1058.22 63.267 1057.84 63.358V63.4716C1058.25 63.4943 1058.65 63.6212 1059.03 63.8523C1059.41 64.0795 1059.72 64.4015 1059.97 64.8182C1060.21 65.2348 1060.33 65.7386 1060.33 66.3295C1060.33 66.9318 1060.18 67.4735 1059.89 67.9545C1059.6 68.4318 1059.16 68.8087 1058.57 69.0852C1057.99 69.3617 1057.25 69.5 1056.36 69.5H1051.65ZM1053.76 67.7386H1056.02C1056.79 67.7386 1057.34 67.5928 1057.68 67.3011C1058.02 67.0057 1058.19 66.6269 1058.19 66.1648C1058.19 65.8201 1058.1 65.5095 1057.93 65.233C1057.76 64.9527 1057.52 64.733 1057.2 64.5739C1056.89 64.411 1056.52 64.3295 1056.08 64.3295H1053.76V67.7386ZM1053.76 62.8125H1055.84C1056.2 62.8125 1056.53 62.7462 1056.82 62.6136C1057.12 62.4773 1057.34 62.286 1057.51 62.0398C1057.68 61.7898 1057.77 61.4943 1057.77 61.1534C1057.77 60.7027 1057.61 60.3314 1057.29 60.0398C1056.98 59.7481 1056.51 59.6023 1055.89 59.6023H1053.76V62.8125ZM1067.63 65.8295V60.7727H1069.69V69.5H1067.7V67.9489H1067.61C1067.41 68.4375 1067.09 68.8371 1066.63 69.1477C1066.19 69.4583 1065.64 69.6136 1064.98 69.6136C1064.41 69.6136 1063.9 69.4867 1063.46 69.233C1063.03 68.9754 1062.69 68.6023 1062.44 68.1136C1062.2 67.6212 1062.07 67.0265 1062.07 66.3295V60.7727H1064.13V66.0114C1064.13 66.5644 1064.28 67.0038 1064.58 67.3295C1064.89 67.6553 1065.28 67.8182 1065.78 67.8182C1066.08 67.8182 1066.37 67.7443 1066.66 67.5966C1066.94 67.4489 1067.17 67.2292 1067.36 66.9375C1067.54 66.642 1067.63 66.2727 1067.63 65.8295ZM1073.09 72.7727C1072.8 72.7727 1072.55 72.75 1072.31 72.7045C1072.07 72.6629 1071.88 72.6136 1071.74 72.5568L1072.22 70.9545C1072.52 71.0417 1072.79 71.0833 1073.02 71.0795C1073.26 71.0758 1073.46 71.0019 1073.64 70.858C1073.82 70.7178 1073.98 70.483 1074.1 70.1534L1074.28 69.6818L1071.11 60.7727H1073.3L1075.31 67.3636H1075.4L1077.41 60.7727H1079.6L1076.11 70.5568C1075.95 71.0189 1075.73 71.4148 1075.46 71.7443C1075.19 72.0777 1074.86 72.3314 1074.47 72.5057C1074.09 72.6837 1073.62 72.7727 1073.09 72.7727ZM1094.65 57.8636V69.5H1092.77L1087.29 61.5739H1087.19V69.5H1085.09V57.8636H1086.97L1092.45 65.7955H1092.55V57.8636H1094.65ZM1100.66 69.6705C1099.81 69.6705 1099.07 69.483 1098.44 69.108C1097.82 68.733 1097.33 68.2083 1096.99 67.5341C1096.65 66.8598 1096.48 66.072 1096.48 65.1705C1096.48 64.2689 1096.65 63.4792 1096.99 62.8011C1097.33 62.1231 1097.82 61.5966 1098.44 61.2216C1099.07 60.8466 1099.81 60.6591 1100.66 60.6591C1101.51 60.6591 1102.25 60.8466 1102.88 61.2216C1103.5 61.5966 1103.98 62.1231 1104.33 62.8011C1104.67 63.4792 1104.84 64.2689 1104.84 65.1705C1104.84 66.072 1104.67 66.8598 1104.33 67.5341C1103.98 68.2083 1103.5 68.733 1102.88 69.108C1102.25 69.483 1101.51 69.6705 1100.66 69.6705ZM1100.67 68.0227C1101.13 68.0227 1101.52 67.8958 1101.83 67.642C1102.14 67.3845 1102.37 67.0398 1102.52 66.608C1102.68 66.1761 1102.76 65.6951 1102.76 65.1648C1102.76 64.6307 1102.68 64.1477 1102.52 63.7159C1102.37 63.2803 1102.14 62.9337 1101.83 62.6761C1101.52 62.4186 1101.13 62.2898 1100.67 62.2898C1100.2 62.2898 1099.8 62.4186 1099.49 62.6761C1099.18 62.9337 1098.95 63.2803 1098.79 63.7159C1098.64 64.1477 1098.56 64.6307 1098.56 65.1648C1098.56 65.6951 1098.64 66.1761 1098.79 66.608C1098.95 67.0398 1099.18 67.3845 1099.49 67.642C1099.8 67.8958 1100.2 68.0227 1100.67 68.0227ZM1108.14 69.5L1105.67 60.7727H1107.77L1109.3 66.9091H1109.38L1110.95 60.7727H1113.03L1114.59 66.875H1114.68L1116.19 60.7727H1118.29L1115.82 69.5H1113.68L1112.04 63.6023H1111.92L1110.29 69.5H1108.14Z" fill="white"/>
<path d="M1015.12 93.5V83.3182H1018.75C1019.54 83.3182 1020.2 83.4624 1020.72 83.7507C1021.24 84.0391 1021.63 84.4335 1021.88 84.9339C1022.14 85.4311 1022.27 85.9912 1022.27 86.6143C1022.27 87.2408 1022.14 87.8042 1021.88 88.3047C1021.62 88.8018 1021.23 89.1963 1020.71 89.4879C1020.19 89.7763 1019.53 89.9205 1018.74 89.9205H1016.25V88.6179H1018.6C1019.1 88.6179 1019.51 88.5317 1019.82 88.3594C1020.13 88.1837 1020.36 87.9451 1020.51 87.6435C1020.65 87.3419 1020.73 86.9988 1020.73 86.6143C1020.73 86.2299 1020.65 85.8885 1020.51 85.5902C1020.36 85.2919 1020.13 85.0582 1019.82 84.8892C1019.51 84.7202 1019.09 84.6357 1018.58 84.6357H1016.65V93.5H1015.12ZM1023.95 93.5V85.8636H1025.39V87.0767H1025.47C1025.61 86.6657 1025.86 86.3426 1026.21 86.1072C1026.56 85.8686 1026.96 85.7493 1027.41 85.7493C1027.5 85.7493 1027.61 85.7526 1027.74 85.7592C1027.87 85.7659 1027.97 85.7741 1028.04 85.7841V87.206C1027.98 87.1894 1027.88 87.1712 1027.72 87.1513C1027.57 87.1281 1027.42 87.1165 1027.27 87.1165C1026.91 87.1165 1026.6 87.1911 1026.33 87.3402C1026.05 87.486 1025.84 87.6899 1025.68 87.9517C1025.52 88.2102 1025.44 88.5052 1025.44 88.8366V93.5H1023.95ZM1032.35 93.6541C1031.59 93.6541 1030.94 93.4934 1030.4 93.1719C1029.86 92.8471 1029.44 92.3913 1029.15 91.8047C1028.86 91.2147 1028.71 90.5237 1028.71 89.7315C1028.71 88.9493 1028.86 88.2599 1029.15 87.6634C1029.44 87.0668 1029.85 86.6011 1030.38 86.2663C1030.91 85.9316 1031.53 85.7642 1032.24 85.7642C1032.67 85.7642 1033.09 85.8355 1033.49 85.978C1033.9 86.1205 1034.26 86.3442 1034.58 86.6491C1034.9 86.9541 1035.16 87.3501 1035.34 87.8374C1035.53 88.3213 1035.62 88.9096 1035.62 89.6023V90.1293H1029.55V89.0156H1034.16C1034.16 88.6245 1034.09 88.2782 1033.93 87.9766C1033.77 87.6716 1033.54 87.4313 1033.25 87.2557C1032.97 87.08 1032.64 86.9922 1032.25 86.9922C1031.83 86.9922 1031.47 87.0949 1031.16 87.3004C1030.85 87.5026 1030.61 87.7678 1030.44 88.0959C1030.28 88.4207 1030.19 88.7737 1030.19 89.1548V90.0249C1030.19 90.5353 1030.28 90.9695 1030.46 91.3274C1030.64 91.6854 1030.9 91.9588 1031.22 92.1477C1031.55 92.3333 1031.93 92.4261 1032.36 92.4261C1032.64 92.4261 1032.9 92.3864 1033.13 92.3068C1033.36 92.224 1033.56 92.1013 1033.73 91.9389C1033.9 91.7765 1034.03 91.576 1034.12 91.3374L1035.53 91.5909C1035.41 92.0052 1035.21 92.3681 1034.92 92.6797C1034.63 92.9879 1034.27 93.2282 1033.83 93.4006C1033.4 93.5696 1032.9 93.6541 1032.35 93.6541ZM1037.27 93.5V85.8636H1038.7V87.1065H1038.79C1038.95 86.6856 1039.21 86.3575 1039.57 86.1222C1039.93 85.8835 1040.37 85.7642 1040.87 85.7642C1041.38 85.7642 1041.81 85.8835 1042.15 86.1222C1042.5 86.3608 1042.76 86.6889 1042.92 87.1065H1043C1043.19 86.6989 1043.48 86.3741 1043.87 86.1321C1044.27 85.8868 1044.74 85.7642 1045.29 85.7642C1045.99 85.7642 1046.55 85.9813 1046.99 86.4155C1047.43 86.8497 1047.65 87.5043 1047.65 88.3793V93.5H1046.16V88.5185C1046.16 88.0014 1046.02 87.6269 1045.74 87.3949C1045.46 87.1629 1045.12 87.0469 1044.73 87.0469C1044.25 87.0469 1043.87 87.196 1043.6 87.4943C1043.34 87.7893 1043.2 88.1688 1043.2 88.6328V93.5H1041.72V88.424C1041.72 88.0097 1041.59 87.6766 1041.33 87.4247C1041.07 87.1728 1040.74 87.0469 1040.32 87.0469C1040.04 87.0469 1039.78 87.1214 1039.54 87.2706C1039.31 87.4164 1039.12 87.6203 1038.97 87.8821C1038.83 88.1439 1038.76 88.4472 1038.76 88.7919V93.5H1037.27ZM1049.64 93.5V85.8636H1051.13V93.5H1049.64ZM1050.39 84.6854C1050.14 84.6854 1049.91 84.5992 1049.73 84.4268C1049.55 84.2512 1049.45 84.0424 1049.45 83.8004C1049.45 83.5552 1049.55 83.3464 1049.73 83.174C1049.91 82.9983 1050.14 82.9105 1050.39 82.9105C1050.65 82.9105 1050.87 82.9983 1051.06 83.174C1051.24 83.3464 1051.33 83.5552 1051.33 83.8004C1051.33 84.0424 1051.24 84.2512 1051.06 84.4268C1050.87 84.5992 1050.65 84.6854 1050.39 84.6854ZM1057.97 90.3331V85.8636H1059.46V93.5H1058V92.1776H1057.92C1057.74 92.5852 1057.46 92.925 1057.07 93.1967C1056.69 93.4652 1056.21 93.5994 1055.64 93.5994C1055.15 93.5994 1054.71 93.4917 1054.33 93.2763C1053.96 93.0575 1053.66 92.7344 1053.45 92.3068C1053.24 91.8793 1053.13 91.3506 1053.13 90.7209V85.8636H1054.62V90.5419C1054.62 91.0623 1054.76 91.4766 1055.05 91.7848C1055.34 92.093 1055.71 92.2472 1056.17 92.2472C1056.45 92.2472 1056.73 92.1776 1057 92.0384C1057.28 91.8991 1057.51 91.6887 1057.69 91.407C1057.88 91.1252 1057.97 90.7673 1057.97 90.3331ZM1061.46 93.5V85.8636H1062.88V87.1065H1062.98C1063.14 86.6856 1063.4 86.3575 1063.76 86.1222C1064.12 85.8835 1064.55 85.7642 1065.06 85.7642C1065.57 85.7642 1065.99 85.8835 1066.34 86.1222C1066.69 86.3608 1066.94 86.6889 1067.11 87.1065H1067.19C1067.37 86.6989 1067.66 86.3741 1068.06 86.1321C1068.46 85.8868 1068.93 85.7642 1069.48 85.7642C1070.17 85.7642 1070.74 85.9813 1071.18 86.4155C1071.62 86.8497 1071.84 87.5043 1071.84 88.3793V93.5H1070.35V88.5185C1070.35 88.0014 1070.21 87.6269 1069.93 87.3949C1069.65 87.1629 1069.31 87.0469 1068.92 87.0469C1068.43 87.0469 1068.06 87.196 1067.79 87.4943C1067.52 87.7893 1067.39 88.1688 1067.39 88.6328V93.5H1065.91V88.424C1065.91 88.0097 1065.78 87.6766 1065.52 87.4247C1065.26 87.1728 1064.92 87.0469 1064.51 87.0469C1064.23 87.0469 1063.97 87.1214 1063.73 87.2706C1063.49 87.4164 1063.3 87.6203 1063.16 87.8821C1063.01 88.1439 1062.94 88.4472 1062.94 88.7919V93.5H1061.46ZM1078.51 93.5H1076.88L1080.55 83.3182H1082.32L1085.99 93.5H1084.36L1081.48 85.1676H1081.4L1078.51 93.5ZM1078.79 89.5128H1084.08V90.8054H1078.79V89.5128ZM1088.82 88.9659V93.5H1087.34V85.8636H1088.76V87.1065H1088.86C1089.03 86.7022 1089.31 86.3774 1089.68 86.1321C1090.06 85.8868 1090.54 85.7642 1091.11 85.7642C1091.63 85.7642 1092.09 85.8736 1092.48 86.0923C1092.87 86.3078 1093.17 86.6293 1093.39 87.0568C1093.6 87.4844 1093.71 88.013 1093.71 88.6428V93.5H1092.22V88.8217C1092.22 88.2682 1092.08 87.8357 1091.79 87.5241C1091.5 87.2093 1091.11 87.0518 1090.6 87.0518C1090.26 87.0518 1089.95 87.1264 1089.68 87.2756C1089.42 87.4247 1089.21 87.6435 1089.05 87.9318C1088.9 88.2169 1088.82 88.5616 1088.82 88.9659ZM1097.19 88.9659V93.5H1095.7V85.8636H1097.13V87.1065H1097.23C1097.4 86.7022 1097.68 86.3774 1098.05 86.1321C1098.43 85.8868 1098.9 85.7642 1099.48 85.7642C1100 85.7642 1100.45 85.8736 1100.84 86.0923C1101.24 86.3078 1101.54 86.6293 1101.75 87.0568C1101.97 87.4844 1102.08 88.013 1102.08 88.6428V93.5H1100.59V88.8217C1100.59 88.2682 1100.45 87.8357 1100.16 87.5241C1099.87 87.2093 1099.47 87.0518 1098.97 87.0518C1098.63 87.0518 1098.32 87.1264 1098.05 87.2756C1097.79 87.4247 1097.58 87.6435 1097.42 87.9318C1097.27 88.2169 1097.19 88.5616 1097.19 88.9659ZM1108.91 90.3331V85.8636H1110.4V93.5H1108.94V92.1776H1108.86C1108.68 92.5852 1108.4 92.925 1108.01 93.1967C1107.63 93.4652 1107.15 93.5994 1106.58 93.5994C1106.09 93.5994 1105.65 93.4917 1105.27 93.2763C1104.9 93.0575 1104.61 92.7344 1104.39 92.3068C1104.18 91.8793 1104.07 91.3506 1104.07 90.7209V85.8636H1105.56V90.5419C1105.56 91.0623 1105.7 91.4766 1105.99 91.7848C1106.28 92.093 1106.65 92.2472 1107.11 92.2472C1107.39 92.2472 1107.67 92.1776 1107.94 92.0384C1108.22 91.8991 1108.45 91.6887 1108.64 91.407C1108.82 91.1252 1108.91 90.7673 1108.91 90.3331ZM1114.62 93.669C1114.14 93.669 1113.7 93.5795 1113.31 93.4006C1112.92 93.2183 1112.61 92.9548 1112.38 92.6101C1112.15 92.2654 1112.04 91.8428 1112.04 91.3423C1112.04 90.9115 1112.12 90.5568 1112.29 90.2784C1112.45 90 1112.68 89.7796 1112.96 89.6172C1113.24 89.4548 1113.56 89.3321 1113.9 89.2493C1114.25 89.1664 1114.61 89.1035 1114.97 89.0604C1115.43 89.0073 1115.8 88.9643 1116.08 88.9311C1116.37 88.8946 1116.57 88.8366 1116.7 88.7571C1116.83 88.6776 1116.9 88.5483 1116.9 88.3693V88.3345C1116.9 87.9003 1116.77 87.5639 1116.53 87.3253C1116.29 87.0866 1115.93 86.9673 1115.45 86.9673C1114.94 86.9673 1114.55 87.0784 1114.26 87.3004C1113.98 87.5192 1113.78 87.7628 1113.67 88.0312L1112.27 87.7131C1112.44 87.2491 1112.68 86.8745 1113 86.5895C1113.32 86.3011 1113.69 86.0923 1114.11 85.9631C1114.53 85.8305 1114.96 85.7642 1115.43 85.7642C1115.73 85.7642 1116.05 85.8007 1116.39 85.8736C1116.74 85.9432 1117.06 86.0724 1117.36 86.2614C1117.66 86.4503 1117.91 86.7204 1118.1 87.0717C1118.29 87.4197 1118.39 87.8722 1118.39 88.429V93.5H1116.94V92.456H1116.88C1116.78 92.6482 1116.64 92.8371 1116.44 93.0227C1116.25 93.2083 1116.01 93.3625 1115.7 93.4851C1115.4 93.6077 1115.04 93.669 1114.62 93.669ZM1114.94 92.4759C1115.35 92.4759 1115.71 92.3946 1116 92.2322C1116.29 92.0698 1116.52 91.8577 1116.67 91.5959C1116.82 91.3307 1116.9 91.0473 1116.9 90.7457V89.7614C1116.85 89.8144 1116.75 89.8641 1116.59 89.9105C1116.44 89.9536 1116.27 89.9917 1116.08 90.0249C1115.89 90.0547 1115.7 90.0829 1115.52 90.1094C1115.34 90.1326 1115.19 90.1525 1115.06 90.169C1114.77 90.2055 1114.51 90.2668 1114.27 90.353C1114.04 90.4392 1113.85 90.5634 1113.71 90.7259C1113.57 90.8849 1113.5 91.0971 1113.5 91.3622C1113.5 91.7301 1113.63 92.0085 1113.9 92.1974C1114.18 92.383 1114.52 92.4759 1114.94 92.4759ZM1121.85 83.3182V93.5H1120.37V83.3182H1121.85ZM1127.68 93.5V83.3182H1131.31C1132.1 83.3182 1132.76 83.4624 1133.28 83.7507C1133.8 84.0391 1134.19 84.4335 1134.45 84.9339C1134.7 85.4311 1134.83 85.9912 1134.83 86.6143C1134.83 87.2408 1134.7 87.8042 1134.44 88.3047C1134.18 88.8018 1133.79 89.1963 1133.27 89.4879C1132.75 89.7763 1132.09 89.9205 1131.3 89.9205H1128.81V88.6179H1131.16C1131.66 88.6179 1132.07 88.5317 1132.38 88.3594C1132.69 88.1837 1132.92 87.9451 1133.07 87.6435C1133.21 87.3419 1133.29 86.9988 1133.29 86.6143C1133.29 86.2299 1133.21 85.8885 1133.07 85.5902C1132.92 85.2919 1132.69 85.0582 1132.38 84.8892C1132.07 84.7202 1131.65 84.6357 1131.14 84.6357H1129.22V93.5H1127.68ZM1138 83.3182V93.5H1136.51V83.3182H1138ZM1142.22 93.669C1141.74 93.669 1141.3 93.5795 1140.91 93.4006C1140.52 93.2183 1140.21 92.9548 1139.98 92.6101C1139.76 92.2654 1139.64 91.8428 1139.64 91.3423C1139.64 90.9115 1139.73 90.5568 1139.89 90.2784C1140.06 90 1140.28 89.7796 1140.56 89.6172C1140.84 89.4548 1141.16 89.3321 1141.51 89.2493C1141.86 89.1664 1142.21 89.1035 1142.57 89.0604C1143.03 89.0073 1143.4 88.9643 1143.69 88.9311C1143.97 88.8946 1144.18 88.8366 1144.31 88.7571C1144.44 88.6776 1144.5 88.5483 1144.5 88.3693V88.3345C1144.5 87.9003 1144.38 87.5639 1144.13 87.3253C1143.89 87.0866 1143.53 86.9673 1143.05 86.9673C1142.55 86.9673 1142.15 87.0784 1141.87 87.3004C1141.58 87.5192 1141.38 87.7628 1141.27 88.0312L1139.88 87.7131C1140.04 87.2491 1140.28 86.8745 1140.6 86.5895C1140.92 86.3011 1141.29 86.0923 1141.71 85.9631C1142.13 85.8305 1142.57 85.7642 1143.03 85.7642C1143.33 85.7642 1143.66 85.8007 1144 85.8736C1144.34 85.9432 1144.66 86.0724 1144.96 86.2614C1145.26 86.4503 1145.51 86.7204 1145.7 87.0717C1145.9 87.4197 1145.99 87.8722 1145.99 88.429V93.5H1144.54V92.456H1144.48C1144.38 92.6482 1144.24 92.8371 1144.05 93.0227C1143.86 93.2083 1143.61 93.3625 1143.31 93.4851C1143.01 93.6077 1142.64 93.669 1142.22 93.669ZM1142.55 92.4759C1142.96 92.4759 1143.31 92.3946 1143.6 92.2322C1143.9 92.0698 1144.12 91.8577 1144.27 91.5959C1144.43 91.3307 1144.51 91.0473 1144.51 90.7457V89.7614C1144.45 89.8144 1144.35 89.8641 1144.2 89.9105C1144.05 89.9536 1143.88 89.9917 1143.69 90.0249C1143.49 90.0547 1143.31 90.0829 1143.12 90.1094C1142.94 90.1326 1142.79 90.1525 1142.67 90.169C1142.38 90.2055 1142.11 90.2668 1141.88 90.353C1141.64 90.4392 1141.45 90.5634 1141.31 90.7259C1141.17 90.8849 1141.1 91.0971 1141.1 91.3622C1141.1 91.7301 1141.24 92.0085 1141.51 92.1974C1141.78 92.383 1142.13 92.4759 1142.55 92.4759ZM1149.46 88.9659V93.5H1147.97V85.8636H1149.4V87.1065H1149.49C1149.67 86.7022 1149.94 86.3774 1150.32 86.1321C1150.7 85.8868 1151.17 85.7642 1151.75 85.7642C1152.27 85.7642 1152.72 85.8736 1153.11 86.0923C1153.5 86.3078 1153.81 86.6293 1154.02 87.0568C1154.24 87.4844 1154.35 88.013 1154.35 88.6428V93.5H1152.86V88.8217C1152.86 88.2682 1152.71 87.8357 1152.43 87.5241C1152.14 87.2093 1151.74 87.0518 1151.24 87.0518C1150.89 87.0518 1150.59 87.1264 1150.32 87.2756C1150.05 87.4247 1149.84 87.6435 1149.69 87.9318C1149.53 88.2169 1149.46 88.5616 1149.46 88.9659Z" fill="white"/>
</svg>
