<svg width="720" height="500" fill="none" xmlns="http://www.w3.org/2000/svg"><path fill="#F4F4F4" d="M0 0h720v500H0z"/><path fill="#495867" d="M0 0h720v500H0z"/><g clip-path="url(#soulfx-card__a)"><g filter="url(#soulfx-card__b)"><path d="M948 63H-182v378H948V63Z" fill="#fff"/></g><path d="M948 125H-182v62H948v-62Z" fill="#fff"/><path d="M948 187H-182v62H948v-62Z" fill="#F5F5F5"/><path d="M948 249H-182v62H948v-62Z" fill="#fff"/><path d="M948 311H-182v62H948v-62Z" fill="#F5F5F5"/><path d="M164.5 63.5V441m119-377.5v378m151-378v378M568 63v378" stroke="#E1E1E1" stroke-width="2"/><path d="M948 63H-182v62H948V63Z" fill="#D9D9D9"/><path d="M194.52 92.031a3.326 3.326 0 0 1-1.172 2.742 5.162 5.162 0 0 1-3.336.953h-1.187V100h-1.867V88.578h3.289a4.976 4.976 0 0 1 3.207.875 3.146 3.146 0 0 1 1.066 2.578Zm-5.7 2.125h.992a3.554 3.554 0 0 0 2.109-.5 1.822 1.822 0 0 0 .679-1.562 1.774 1.774 0 0 0-.6-1.469 2.97 2.97 0 0 0-1.875-.484h-1.3l-.005 4.015Zm9.844-.266h1.3a2.96 2.96 0 0 0 1.891-.484 1.75 1.75 0 0 0 .586-1.437 1.546 1.546 0 0 0-.633-1.391 3.47 3.47 0 0 0-1.908-.422h-1.234l-.002 3.734Zm0 1.547V100H196.8V88.578h3.227a5.301 5.301 0 0 1 3.273.828 2.977 2.977 0 0 1 1.063 2.5 3.124 3.124 0 0 1-2.219 3.039l3.227 5.055h-2.125l-2.734-4.562-1.848-.001Zm18.5-1.164a6.247 6.247 0 0 1-1.391 4.336 5.04 5.04 0 0 1-3.949 1.547 5.08 5.08 0 0 1-3.973-1.535 6.29 6.29 0 0 1-1.387-4.363 6.19 6.19 0 0 1 1.395-4.344 5.138 5.138 0 0 1 3.981-1.514 5.03 5.03 0 0 1 3.938 1.539 6.242 6.242 0 0 1 1.39 4.334h-.004Zm-8.719 0a5.126 5.126 0 0 0 .852 3.2 3.008 3.008 0 0 0 2.523 1.09 3 3 0 0 0 2.512-1.078 5.13 5.13 0 0 0 .848-3.211 5.144 5.144 0 0 0-.84-3.187 2.973 2.973 0 0 0-2.5-1.087 3.034 3.034 0 0 0-2.54 1.086 5.074 5.074 0 0 0-.851 3.187h-.004Zm17.68-5.7h1.941l-4 11.427H222.1l-3.987-11.422h1.922l2.383 7.1c.125.339.259.775.4 1.309.141.534.232.932.272 1.193.067-.396.171-.854.313-1.375.142-.52.257-.906.344-1.156l2.378-7.076ZM229.574 100V88.578h1.867V100h-1.867Zm14.4 0h-2.29l-5.618-9.1H236l.039.508c.073.969.109 1.854.109 2.656V100h-1.7V88.578h2.266l5.6 9.055h.047c-.011-.12-.031-.556-.062-1.309a47.942 47.942 0 0 1-.047-1.762v-5.984h1.711l.011 11.422Zm7.875-9.984a3.075 3.075 0 0 0-2.531 1.141 4.875 4.875 0 0 0-.923 3.143 4.91 4.91 0 0 0 .887 3.18 3.137 3.137 0 0 0 2.566 1.078c.472.001.944-.048 1.406-.145.453-.097.925-.22 1.414-.371v1.6a8.564 8.564 0 0 1-3.047.508 4.87 4.87 0 0 1-3.852-1.52 6.358 6.358 0 0 1-1.344-4.348 7.028 7.028 0 0 1 .652-3.117 4.66 4.66 0 0 1 1.887-2.047 5.706 5.706 0 0 1 2.9-.711c1.12-.01 2.228.24 3.234.734l-.672 1.559a10.038 10.038 0 0 0-1.223-.48 4.404 4.404 0 0 0-1.355-.204h.001ZM263.59 100h-6.461V88.578h6.461v1.578H259v3.109h4.3v1.563H259v3.586h4.59V100Zm74.426-3.1a2.882 2.882 0 0 1-1.1 2.391 4.793 4.793 0 0 1-3.039.867 7.249 7.249 0 0 1-3.172-.6v-1.769a8.6 8.6 0 0 0 1.66.578 7.036 7.036 0 0 0 1.635.211 2.598 2.598 0 0 0 1.637-.422 1.381 1.381 0 0 0 .527-1.133 1.418 1.418 0 0 0-.484-1.086 7.29 7.29 0 0 0-2-1.055 5.293 5.293 0 0 1-2.2-1.445 3.056 3.056 0 0 1-.641-1.953 2.727 2.727 0 0 1 1.016-2.25 4.213 4.213 0 0 1 2.727-.82 8.014 8.014 0 0 1 3.266.719l-.594 1.523a7.135 7.135 0 0 0-2.719-.641 2.088 2.088 0 0 0-1.375.395 1.302 1.302 0 0 0-.469 1.043c-.008.266.057.53.188.762.158.244.369.45.617.6.495.29 1.012.538 1.547.742a8.46 8.46 0 0 1 1.844.977c.363.269.657.62.859 1.023.19.422.282.88.27 1.343Zm6.156 3.1H342.3v-9.82h-3.359v-1.6h8.586v1.6h-3.359l.004 9.82Zm12.2 0-1.145-3.172h-4.368L349.742 100h-1.969l4.273-11.469h2.031L358.352 100h-1.98Zm-1.638-4.781-1.07-3.109a19.17 19.17 0 0 1-.324-.984 21.326 21.326 0 0 1-.285-.984 17.615 17.615 0 0 1-.617 2.1l-1.032 2.977h3.328ZM363.8 100h-1.862v-9.82h-3.36v-1.6h8.586v1.6H363.8V100Zm14.067-11.422v7.391a4.382 4.382 0 0 1-.543 2.215 3.62 3.62 0 0 1-1.57 1.461 5.466 5.466 0 0 1-2.454.511 4.598 4.598 0 0 1-3.3-1.125 4.077 4.077 0 0 1-1.18-3.094v-7.359h1.875V95.8a2.887 2.887 0 0 0 .656 2.086 2.705 2.705 0 0 0 2.016.672c1.755.003 2.633-.92 2.633-2.769v-7.211h1.867Zm9.508 8.322a2.882 2.882 0 0 1-1.1 2.391 4.793 4.793 0 0 1-3.039.867 7.249 7.249 0 0 1-3.172-.6v-1.769a8.6 8.6 0 0 0 1.66.578 7.037 7.037 0 0 0 1.637.211 2.6 2.6 0 0 0 1.639-.422 1.381 1.381 0 0 0 .527-1.133 1.418 1.418 0 0 0-.484-1.086 7.29 7.29 0 0 0-2-1.055 5.293 5.293 0 0 1-2.2-1.445 3.063 3.063 0 0 1-.643-1.953 2.727 2.727 0 0 1 1.016-2.25 4.213 4.213 0 0 1 2.727-.82 8.014 8.014 0 0 1 3.266.719l-.594 1.523a7.135 7.135 0 0 0-2.719-.641 2.088 2.088 0 0 0-1.375.395 1.302 1.302 0 0 0-.469 1.043c-.008.266.057.53.188.762.158.244.369.45.617.6.495.29 1.012.538 1.547.742a8.46 8.46 0 0 1 1.844.977c.36.269.652.619.852 1.021.192.422.286.882.275 1.345Zm71.055 3.1h-1.867v-9.82H453.2v-1.6h8.586v1.6h-3.356V100Zm14.117 0h-1.875v-5.148h-5.266V100h-1.867V88.578h1.867v4.672h5.266v-4.672h1.875V100Zm4.875-6.109h1.3a2.96 2.96 0 0 0 1.891-.484 1.766 1.766 0 0 0 .587-1.438 1.546 1.546 0 0 0-.633-1.391 3.47 3.47 0 0 0-1.906-.422h-1.234l-.005 3.735Zm0 1.547V100h-1.867V88.578h3.227a5.301 5.301 0 0 1 3.273.828 2.976 2.976 0 0 1 1.063 2.5 3.13 3.13 0 0 1-2.218 3.039l3.225 5.055H482l-2.734-4.562h-1.844Zm14.82 4.562h-6.461V88.578h6.461v1.578h-4.594v3.109h4.3v1.563h-4.3v3.586h4.594V100Zm9.058-3.1a2.878 2.878 0 0 1-1.1 2.389 4.792 4.792 0 0 1-3.044.867 7.25 7.25 0 0 1-3.172-.6v-1.767a8.608 8.608 0 0 0 1.66.578 7.036 7.036 0 0 0 1.637.211 2.6 2.6 0 0 0 1.637-.422 1.369 1.369 0 0 0 .527-1.133 1.417 1.417 0 0 0-.484-1.086 7.305 7.305 0 0 0-2-1.055 5.293 5.293 0 0 1-2.2-1.445 3.056 3.056 0 0 1-.641-1.953 2.727 2.727 0 0 1 1.016-2.25 4.213 4.213 0 0 1 2.727-.82 8.014 8.014 0 0 1 3.266.719l-.598 1.523a7.133 7.133 0 0 0-2.719-.641 2.085 2.085 0 0 0-1.375.395 1.29 1.29 0 0 0-.355.467 1.285 1.285 0 0 0-.114.576c-.008.266.057.53.188.762.157.244.368.45.617.6.494.29 1.012.538 1.547.742a8.456 8.456 0 0 1 1.844.977c.363.269.657.62.859 1.023.192.421.287.88.277 1.343Zm11.216 3.1h-1.875v-5.148h-5.266V100h-1.867V88.578h1.867v4.672h5.266v-4.672h1.875V100Zm13.148-5.727a6.248 6.248 0 0 1-1.394 4.336 5.042 5.042 0 0 1-3.95 1.547 5.08 5.08 0 0 1-3.973-1.535 6.29 6.29 0 0 1-1.387-4.363 6.19 6.19 0 0 1 1.395-4.344 5.138 5.138 0 0 1 3.98-1.516 5.032 5.032 0 0 1 3.938 1.539 6.242 6.242 0 0 1 1.391 4.336Zm-8.719 0a5.12 5.12 0 0 0 .852 3.2 3.009 3.009 0 0 0 2.523 1.09 3 3 0 0 0 2.512-1.078 5.13 5.13 0 0 0 .848-3.211 5.144 5.144 0 0 0-.84-3.187A2.967 2.967 0 0 0 520.336 90a3.032 3.032 0 0 0-2.536 1.086 5.075 5.075 0 0 0-.855 3.187ZM528.117 100V88.578h1.867V98.4h4.836v1.6h-6.703Zm17.961-5.82a5.681 5.681 0 0 1-.33 2.325 5.68 5.68 0 0 1-1.24 1.995 6.307 6.307 0 0 1-4.524 1.5h-3.2V88.578h3.536a5.845 5.845 0 0 1 4.242 1.469 5.495 5.495 0 0 1 1.516 4.133Zm-1.969.063c0-2.733-1.279-4.1-3.836-4.1h-1.617v8.287h1.328c2.75 0 4.125-1.396 4.125-4.188v.001ZM215.34 148.336h3.227a6.087 6.087 0 0 1 3.289.68 2.398 2.398 0 0 1 1.015 2.148 2.481 2.481 0 0 1-.571 1.676 2.727 2.727 0 0 1-1.652.855v.078c1.733.297 2.6 1.208 2.6 2.734a2.928 2.928 0 0 1-1.029 2.392 4.407 4.407 0 0 1-2.895.859h-3.984v-11.422Zm1.328 4.891h2.188a3.56 3.56 0 0 0 2.023-.441 1.693 1.693 0 0 0 .621-1.489 1.506 1.506 0 0 0-.687-1.387 4.292 4.292 0 0 0-2.187-.426h-1.958v3.743Zm0 1.125v4.273h2.383a3.395 3.395 0 0 0 2.082-.535 1.978 1.978 0 0 0 .7-1.676 1.77 1.77 0 0 0-.715-1.562 3.814 3.814 0 0 0-2.176-.5h-2.274Zm13.932-4.994a3.733 3.733 0 0 0-2.975 1.255 5.062 5.062 0 0 0-1.09 3.434 5.16 5.16 0 0 0 1.051 3.465 3.734 3.734 0 0 0 3 1.223 10.206 10.206 0 0 0 2.727-.43v1.164a8.406 8.406 0 0 1-2.93.445 4.96 4.96 0 0 1-3.899-1.531 6.309 6.309 0 0 1-1.371-4.352 6.861 6.861 0 0 1 .66-3.094 4.741 4.741 0 0 1 1.907-2.046 5.773 5.773 0 0 1 2.934-.719 7.075 7.075 0 0 1 3.141.656l-.564 1.141a6.063 6.063 0 0 0-2.591-.611Zm-7.377 68.673a6.287 6.287 0 0 1-1.387 4.313 4.868 4.868 0 0 1-3.856 1.57 4.932 4.932 0 0 1-3.894-1.543 6.338 6.338 0 0 1-1.371-4.355 6.257 6.257 0 0 1 1.375-4.324 4.97 4.97 0 0 1 3.91-1.534 4.854 4.854 0 0 1 3.84 1.561 6.282 6.282 0 0 1 1.383 4.312Zm-9.1 0a5.422 5.422 0 0 0 .988 3.52 3.5 3.5 0 0 0 2.871 1.2 3.478 3.478 0 0 0 2.866-1.193 5.501 5.501 0 0 0 .969-3.523 5.455 5.455 0 0 0-.965-3.5 3.461 3.461 0 0 0-2.852-1.191 3.524 3.524 0 0 0-2.887 1.2 5.367 5.367 0 0 0-.992 3.487h.002Zm20.568 5.727h-1.515l-6.242-9.586h-.063c.086 1.124.129 2.155.129 3.094v6.492h-1.23v-11.422h1.5l6.23 9.547h.063a75.948 75.948 0 0 1-.07-1.355 27.411 27.411 0 0 1-.044-1.637v-6.555h1.242v11.422Zm-10.468 56.273a6.287 6.287 0 0 1-1.387 4.313 4.868 4.868 0 0 1-3.856 1.57 4.932 4.932 0 0 1-3.894-1.543 6.338 6.338 0 0 1-1.371-4.355 6.257 6.257 0 0 1 1.375-4.324 4.97 4.97 0 0 1 3.91-1.534 4.854 4.854 0 0 1 3.84 1.561 6.282 6.282 0 0 1 1.383 4.312Zm-9.1 0a5.422 5.422 0 0 0 .988 3.52 3.5 3.5 0 0 0 2.871 1.2 3.478 3.478 0 0 0 2.866-1.193 5.501 5.501 0 0 0 .969-3.523 5.455 5.455 0 0 0-.965-3.5 3.461 3.461 0 0 0-2.852-1.191 3.524 3.524 0 0 0-2.887 1.2 5.367 5.367 0 0 0-.992 3.487h.002Zm20.568 5.727h-1.515l-6.242-9.586h-.063c.086 1.124.129 2.155.129 3.094v6.492h-1.23v-11.422h1.5l6.23 9.547h.063a75.948 75.948 0 0 1-.07-1.355 27.411 27.411 0 0 1-.044-1.637v-6.555h1.242v11.422Zm-16.472 62-3.875-10.125h-.062c.073.8.109 1.753.109 2.859v7.266h-1.227v-11.422h2l3.617 9.422h.063l3.648-9.422h1.985v11.422h-1.329v-7.359c0-.844.036-1.761.109-2.75h-.057l-3.911 10.109h-1.07Zm9.39-11.422h3.227a6.087 6.087 0 0 1 3.289.68 2.4 2.4 0 0 1 1.016 2.148 2.48 2.48 0 0 1-.566 1.676 2.727 2.727 0 0 1-1.652.855v.078c1.733.297 2.6 1.208 2.6 2.734a2.935 2.935 0 0 1-1.035 2.392 4.408 4.408 0 0 1-2.894.859h-3.985v-11.422Zm1.329 4.891h2.187a3.56 3.56 0 0 0 2.023-.441 1.708 1.708 0 0 0 .617-1.488 1.506 1.506 0 0 0-.687-1.387 4.292 4.292 0 0 0-2.187-.426h-1.953v3.742Zm0 1.125v4.273h2.382a3.389 3.389 0 0 0 2.08-.535 1.978 1.978 0 0 0 .7-1.676 1.77 1.77 0 0 0-.715-1.562 3.814 3.814 0 0 0-2.176-.5h-2.271Zm-10.719 70.406-3.875-10.125h-.062c.073.8.109 1.753.109 2.859v7.266h-1.227v-11.422h2l3.617 9.422h.063l3.648-9.422h1.985v11.422h-1.329v-7.359c0-.844.036-1.761.109-2.75h-.057l-3.911 10.109h-1.07Zm9.39-11.422h3.227a6.087 6.087 0 0 1 3.289.68 2.4 2.4 0 0 1 1.016 2.148 2.48 2.48 0 0 1-.566 1.676 2.727 2.727 0 0 1-1.652.855v.078c1.733.297 2.6 1.208 2.6 2.734a2.935 2.935 0 0 1-1.035 2.392 4.408 4.408 0 0 1-2.894.859h-3.985v-11.422Zm1.329 4.891h2.187a3.56 3.56 0 0 0 2.023-.441 1.708 1.708 0 0 0 .617-1.488 1.506 1.506 0 0 0-.687-1.387 4.292 4.292 0 0 0-2.187-.426h-1.953v3.742Zm0 1.125v4.273h2.382a3.389 3.389 0 0 0 2.08-.535 1.978 1.978 0 0 0 .7-1.676 1.77 1.77 0 0 0-.715-1.562 3.814 3.814 0 0 0-2.176-.5h-2.271Zm269.203-245.594h-7.508v-1.117l3.008-3.023a21.967 21.967 0 0 0 1.812-1.985c.269-.355.489-.744.656-1.156.148-.386.222-.797.219-1.211a1.918 1.918 0 0 0-.555-1.449 2.132 2.132 0 0 0-1.539-.535 3.872 3.872 0 0 0-1.348.234 5.357 5.357 0 0 0-1.418.852l-.687-.883a5.266 5.266 0 0 1 3.438-1.312 3.63 3.63 0 0 1 2.523.824 2.83 2.83 0 0 1 .914 2.215 4.283 4.283 0 0 1-.609 2.146 13.64 13.64 0 0 1-2.281 2.689l-2.5 2.445v.066h5.875v1.2Zm9.211-5.727a8.339 8.339 0 0 1-.934 4.427 3.15 3.15 0 0 1-2.855 1.456 3.127 3.127 0 0 1-2.8-1.5 8.174 8.174 0 0 1-.963-4.383 8.339 8.339 0 0 1 .93-4.43 3.142 3.142 0 0 1 2.833-1.443 3.146 3.146 0 0 1 2.824 1.508 8.136 8.136 0 0 1 .965 4.365Zm-6.242 0a8.359 8.359 0 0 0 .59 3.627 1.964 1.964 0 0 0 1.863 1.139 1.966 1.966 0 0 0 1.878-1.152 8.432 8.432 0 0 0 .582-3.613 8.364 8.364 0 0 0-.582-3.605 1.962 1.962 0 0 0-1.879-1.145 1.96 1.96 0 0 0-1.862 1.128 8.318 8.318 0 0 0-.591 3.621h.001Zm-2.969 67.727h-7.508v-1.117l3.008-3.023a21.967 21.967 0 0 0 1.812-1.985c.269-.355.489-.744.656-1.156.148-.386.222-.797.219-1.211a1.918 1.918 0 0 0-.555-1.449 2.132 2.132 0 0 0-1.539-.535 3.872 3.872 0 0 0-1.348.234 5.357 5.357 0 0 0-1.418.852l-.687-.883a5.266 5.266 0 0 1 3.438-1.312 3.63 3.63 0 0 1 2.523.824 2.83 2.83 0 0 1 .914 2.215 4.283 4.283 0 0 1-.609 2.146 13.64 13.64 0 0 1-2.281 2.689l-2.5 2.445v.066h5.875v1.2Zm9.211-5.727a8.339 8.339 0 0 1-.934 4.427 3.15 3.15 0 0 1-2.855 1.456 3.127 3.127 0 0 1-2.8-1.5 8.174 8.174 0 0 1-.963-4.383 8.339 8.339 0 0 1 .93-4.43 3.142 3.142 0 0 1 2.833-1.443 3.146 3.146 0 0 1 2.824 1.508 8.136 8.136 0 0 1 .965 4.365Zm-6.242 0a8.359 8.359 0 0 0 .59 3.627 1.964 1.964 0 0 0 1.863 1.139 1.966 1.966 0 0 0 1.878-1.152 8.432 8.432 0 0 0 .582-3.613 8.364 8.364 0 0 0-.582-3.605 1.962 1.962 0 0 0-1.879-1.145 1.96 1.96 0 0 0-1.862 1.128 8.318 8.318 0 0 0-.591 3.621h.001Zm-2.969 67.727h-7.508v-1.117l3.008-3.023a21.967 21.967 0 0 0 1.812-1.985c.269-.355.489-.744.656-1.156.148-.386.222-.797.219-1.211a1.918 1.918 0 0 0-.555-1.449 2.132 2.132 0 0 0-1.539-.535 3.872 3.872 0 0 0-1.348.234 5.357 5.357 0 0 0-1.418.852l-.687-.883a5.266 5.266 0 0 1 3.438-1.312 3.63 3.63 0 0 1 2.523.824 2.83 2.83 0 0 1 .914 2.215 4.283 4.283 0 0 1-.609 2.146 13.64 13.64 0 0 1-2.281 2.689l-2.5 2.445v.066h5.875v1.2Zm9.211-5.727a8.339 8.339 0 0 1-.934 4.427 3.15 3.15 0 0 1-2.855 1.456 3.127 3.127 0 0 1-2.8-1.5 8.174 8.174 0 0 1-.963-4.383 8.339 8.339 0 0 1 .93-4.43 3.142 3.142 0 0 1 2.833-1.443 3.146 3.146 0 0 1 2.824 1.508 8.136 8.136 0 0 1 .965 4.365Zm-6.242 0a8.359 8.359 0 0 0 .59 3.627 1.964 1.964 0 0 0 1.863 1.139 1.966 1.966 0 0 0 1.878-1.152 8.432 8.432 0 0 0 .582-3.613 8.364 8.364 0 0 0-.582-3.605 1.962 1.962 0 0 0-1.879-1.145 1.96 1.96 0 0 0-1.862 1.128 8.318 8.318 0 0 0-.591 3.621h.001Zm-2.969 67.727h-7.508v-1.117l3.008-3.023a21.967 21.967 0 0 0 1.812-1.985c.269-.355.489-.744.656-1.156.148-.386.222-.797.219-1.211a1.918 1.918 0 0 0-.555-1.449 2.132 2.132 0 0 0-1.539-.535 3.872 3.872 0 0 0-1.348.234 5.357 5.357 0 0 0-1.418.852l-.687-.883a5.266 5.266 0 0 1 3.438-1.312 3.63 3.63 0 0 1 2.523.824 2.83 2.83 0 0 1 .914 2.215 4.283 4.283 0 0 1-.609 2.146 13.64 13.64 0 0 1-2.281 2.689l-2.5 2.445v.066h5.875v1.2Zm9.211-5.727a8.339 8.339 0 0 1-.934 4.427 3.15 3.15 0 0 1-2.855 1.456 3.127 3.127 0 0 1-2.8-1.5 8.174 8.174 0 0 1-.963-4.383 8.339 8.339 0 0 1 .93-4.43 3.142 3.142 0 0 1 2.833-1.443 3.146 3.146 0 0 1 2.824 1.508 8.136 8.136 0 0 1 .965 4.365Zm-6.242 0a8.359 8.359 0 0 0 .59 3.627 1.964 1.964 0 0 0 1.863 1.139 1.966 1.966 0 0 0 1.878-1.152 8.432 8.432 0 0 0 .582-3.613 8.364 8.364 0 0 0-.582-3.605 1.962 1.962 0 0 0-1.879-1.145 1.96 1.96 0 0 0-1.862 1.128 8.318 8.318 0 0 0-.591 3.621h.001Zm-2.969 70.727h-7.508v-1.117l3.008-3.023a21.967 21.967 0 0 0 1.812-1.985c.269-.355.489-.744.656-1.156.148-.386.222-.797.219-1.211a1.918 1.918 0 0 0-.555-1.449 2.132 2.132 0 0 0-1.539-.535 3.872 3.872 0 0 0-1.348.234 5.357 5.357 0 0 0-1.418.852l-.687-.883a5.266 5.266 0 0 1 3.438-1.312 3.63 3.63 0 0 1 2.523.824 2.83 2.83 0 0 1 .914 2.215 4.283 4.283 0 0 1-.609 2.146 13.64 13.64 0 0 1-2.281 2.689l-2.5 2.445v.066h5.875v1.2Zm9.211-5.727a8.339 8.339 0 0 1-.934 4.427 3.15 3.15 0 0 1-2.855 1.456 3.127 3.127 0 0 1-2.8-1.5 8.174 8.174 0 0 1-.963-4.383 8.339 8.339 0 0 1 .93-4.43 3.142 3.142 0 0 1 2.833-1.443 3.146 3.146 0 0 1 2.824 1.508 8.136 8.136 0 0 1 .965 4.365Zm-6.242 0a8.359 8.359 0 0 0 .59 3.627 1.964 1.964 0 0 0 1.863 1.139 1.966 1.966 0 0 0 1.878-1.152 8.432 8.432 0 0 0 .582-3.613 8.364 8.364 0 0 0-.582-3.605 1.962 1.962 0 0 0-1.879-1.145 1.96 1.96 0 0 0-1.862 1.128 8.318 8.318 0 0 0-.591 3.621h.001Z" fill="#757575"/><g filter="url(#soulfx-card__c)"><path d="M401.073 204.5H317.5c-6.627 0-12 5.373-12 12v2c0 6.627 5.373 12 12 12h83.573c6.627 0 12-5.373 12-12v-2c0-6.627-5.373-12-12-12Z" fill="#D2D2D2" stroke="#D3D3D3" stroke-width=".5"/></g><path d="M343.828 223.465v-11.422h1.328v11.422h-1.328Zm10.125 0v-5.539a2.233 2.233 0 0 0-.476-1.561 1.942 1.942 0 0 0-1.492-.516 2.466 2.466 0 0 0-1.969.727 3.664 3.664 0 0 0-.625 2.4v4.489h-1.3v-8.562h1.055l.211 1.172h.063a2.643 2.643 0 0 1 1.117-.98 3.64 3.64 0 0 1 1.6-.348 3.249 3.249 0 0 1 2.328.746 3.179 3.179 0 0 1 .781 2.387v5.585h-1.293Zm9.227 0-.258-1.219h-.062a3.595 3.595 0 0 1-1.278 1.09 3.898 3.898 0 0 1-1.59.285 2.862 2.862 0 0 1-1.992-.656 2.403 2.403 0 0 1-.723-1.867c0-1.729 1.383-2.636 4.148-2.719l1.453-.047v-.531a2.172 2.172 0 0 0-.434-1.488 1.778 1.778 0 0 0-1.387-.48 5.652 5.652 0 0 0-2.422.656l-.4-.992a6.081 6.081 0 0 1 1.387-.539 5.99 5.99 0 0 1 1.512-.2 3.263 3.263 0 0 1 2.27.68 2.827 2.827 0 0 1 .738 2.18v5.847h-.962Zm-2.93-.914c.696.039 1.38-.2 1.9-.664a2.463 2.463 0 0 0 .691-1.859v-.773l-1.3.055a4.717 4.717 0 0 0-2.23.48 1.447 1.447 0 0 0-.684 1.324 1.334 1.334 0 0 0 .426 1.07c.341.264.767.395 1.197.367Zm9.984 1.07a3.65 3.65 0 0 1-2.879-1.144 4.71 4.71 0 0 1-1.02-3.238 4.854 4.854 0 0 1 1.035-3.32 3.719 3.719 0 0 1 2.95-1.173c.415 0 .829.045 1.234.133.335.063.661.168.969.313l-.4 1.1a6.1 6.1 0 0 0-.937-.285 4.2 4.2 0 0 0-.9-.113c-1.739 0-2.609 1.109-2.609 3.328-.055.856.17 1.706.639 2.423a2.217 2.217 0 0 0 1.884.843 5.776 5.776 0 0 0 2.2-.461v1.149a4.68 4.68 0 0 1-2.166.445Zm6.966-1.07c.222 0 .444-.017.664-.051.171-.025.341-.06.508-.105v.992c-.2.084-.411.141-.626.168a4.57 4.57 0 0 1-.738.066c-1.656 0-2.484-.872-2.484-2.617v-5.094H373.3v-.625l1.227-.539.547-1.828h.75v1.984h2.476v1.008h-2.48v5.039c-.029.428.102.851.367 1.188a1.284 1.284 0 0 0 1.013.414Zm4.175.914h-1.3v-8.562h1.3v8.562Zm-1.406-10.883a.86.86 0 0 1 .219-.652.766.766 0 0 1 .547-.207.765.765 0 0 1 .539.211.84.84 0 0 1 .227.648.867.867 0 0 1-.227.652.76.76 0 0 1-.539.215.744.744 0 0 1-.547-.215.89.89 0 0 1-.219-.652ZM386 223.465l-3.25-8.562h1.391l1.844 5.078c.284.758.529 1.53.734 2.313h.063c.152-.581.333-1.153.543-1.715.305-.867.988-2.759 2.051-5.676h1.391l-3.251 8.562H386Zm9.758.156a3.927 3.927 0 0 1-3-1.156 4.476 4.476 0 0 1-1.1-3.211 4.96 4.96 0 0 1 1.026-3.289 3.387 3.387 0 0 1 2.738-1.219 3.22 3.22 0 0 1 2.547 1.059c.652.781.987 1.777.938 2.793v.82h-5.9a3.392 3.392 0 0 0 .762 2.289 2.63 2.63 0 0 0 2.031.781 6.898 6.898 0 0 0 2.734-.578v1.155a6.82 6.82 0 0 1-1.3.426 7.308 7.308 0 0 1-1.476.13Zm-.352-7.789a2.115 2.115 0 0 0-1.645.672 3.103 3.103 0 0 0-.722 1.861h4.477a2.853 2.853 0 0 0-.547-1.879 1.918 1.918 0 0 0-1.563-.654Z" fill="#606060"/><path d="M319.5 228c5.799 0 10.5-4.701 10.5-10.5s-4.701-10.5-10.5-10.5-10.5 4.701-10.5 10.5 4.701 10.5 10.5 10.5Z" fill="#fff"/><g filter="url(#soulfx-card__d)"><path d="M401.073 329.5H317.5c-6.627 0-12 5.373-12 12v2c0 6.627 5.373 12 12 12h83.573c6.627 0 12-5.373 12-12v-2c0-6.627-5.373-12-12-12Z" fill="#4BBB40" stroke="#D3D3D3" stroke-width=".5"/></g><path d="m334.108 348.465-1.422-3.633h-4.578l-1.406 3.633h-1.344l4.515-11.469h1.117l4.493 11.469h-1.375Zm-1.835-4.828-1.328-3.539a18.821 18.821 0 0 1-.531-1.648 14.782 14.782 0 0 1-.492 1.648l-1.349 3.539h3.7Zm8.007 4.984a3.65 3.65 0 0 1-2.879-1.144 4.704 4.704 0 0 1-1.02-3.238 4.854 4.854 0 0 1 1.035-3.32 3.719 3.719 0 0 1 2.95-1.173c.415 0 .828.045 1.234.133.336.063.663.168.973.313l-.4 1.1a6.135 6.135 0 0 0-.937-.285 4.2 4.2 0 0 0-.9-.113c-1.739 0-2.609 1.109-2.609 3.328a3.963 3.963 0 0 0 .635 2.423 2.208 2.208 0 0 0 1.887.844 5.78 5.78 0 0 0 2.2-.461v1.148a4.68 4.68 0 0 1-2.169.445Zm6.961-1.07c.222 0 .444-.017.664-.051.171-.025.341-.06.508-.105v.992a2.38 2.38 0 0 1-.621.168 4.572 4.572 0 0 1-.739.066c-1.653 0-2.48-.872-2.48-2.617v-5.094h-1.23v-.625l1.23-.539.547-1.828h.75v1.984h2.48v1.008h-2.484v5.039c-.029.428.102.851.367 1.188a1.278 1.278 0 0 0 1.008.414Zm4.18.914h-1.3v-8.562h1.3v8.562Zm-1.407-10.883a.878.878 0 0 1 .041-.349.875.875 0 0 1 .178-.303.766.766 0 0 1 .547-.207c.2-.003.394.073.539.211a.84.84 0 0 1 .227.648.867.867 0 0 1-.227.652.752.752 0 0 1-.539.215.749.749 0 0 1-.547-.215.874.874 0 0 1-.219-.652Zm6.032 10.883-3.25-8.562h1.39l1.844 5.078c.283.758.528 1.53.734 2.313h.063a17.45 17.45 0 0 1 .546-1.716c.305-.867.988-2.759 2.051-5.676h1.391l-3.254 8.563h-1.515Zm9.757.156a3.932 3.932 0 0 1-3-1.156 4.476 4.476 0 0 1-1.1-3.211 4.96 4.96 0 0 1 1.026-3.289 3.387 3.387 0 0 1 2.738-1.219 3.223 3.223 0 0 1 2.547 1.059c.652.781.986 1.777.938 2.793v.82h-5.9a3.392 3.392 0 0 0 .762 2.289 2.639 2.639 0 0 0 2.035.781 6.898 6.898 0 0 0 2.734-.578v1.155a6.843 6.843 0 0 1-1.3.426 7.281 7.281 0 0 1-1.48.13Zm-.352-7.789a2.112 2.112 0 0 0-1.645.672 3.102 3.102 0 0 0-.721 1.861h4.477a2.853 2.853 0 0 0-.547-1.879 1.918 1.918 0 0 0-1.563-.654h-.001ZM399.073 353c5.799 0 10.5-4.701 10.5-10.5s-4.701-10.5-10.5-10.5-10.5 4.701-10.5 10.5 4.701 10.5 10.5 10.5Z" fill="#fff"/><g filter="url(#soulfx-card__e)"><path d="M401.073 140.5H317.5c-6.627 0-12 5.373-12 12v2c0 6.627 5.373 12 12 12h83.573c6.627 0 12-5.373 12-12v-2c0-6.627-5.373-12-12-12Z" fill="#4BBB40" stroke="#D3D3D3" stroke-width=".5"/></g><path d="m334.108 159.465-1.422-3.633h-4.578l-1.406 3.633h-1.344l4.515-11.469h1.117l4.493 11.469h-1.375Zm-1.835-4.828-1.328-3.539a18.821 18.821 0 0 1-.531-1.648 14.782 14.782 0 0 1-.492 1.648l-1.349 3.539h3.7Zm8.007 4.984a3.65 3.65 0 0 1-2.879-1.144 4.704 4.704 0 0 1-1.02-3.238 4.854 4.854 0 0 1 1.035-3.32 3.719 3.719 0 0 1 2.95-1.173c.415 0 .828.045 1.234.133.336.063.663.168.973.313l-.4 1.1a6.135 6.135 0 0 0-.937-.285 4.2 4.2 0 0 0-.9-.113c-1.739 0-2.609 1.109-2.609 3.328a3.963 3.963 0 0 0 .635 2.423 2.208 2.208 0 0 0 1.887.844 5.78 5.78 0 0 0 2.2-.461v1.148a4.68 4.68 0 0 1-2.169.445Zm6.961-1.07c.222 0 .444-.017.664-.051.171-.025.341-.06.508-.105v.992a2.38 2.38 0 0 1-.621.168 4.572 4.572 0 0 1-.739.066c-1.653 0-2.48-.872-2.48-2.617v-5.094h-1.23v-.625l1.23-.539.547-1.828h.75v1.984h2.48v1.008h-2.484v5.039c-.029.428.102.851.367 1.188a1.278 1.278 0 0 0 1.008.414Zm4.18.914h-1.3v-8.562h1.3v8.562Zm-1.407-10.883a.878.878 0 0 1 .041-.349.875.875 0 0 1 .178-.303.766.766 0 0 1 .547-.207c.2-.003.394.073.539.211a.84.84 0 0 1 .227.648.867.867 0 0 1-.227.652.752.752 0 0 1-.539.215.749.749 0 0 1-.547-.215.874.874 0 0 1-.219-.652Zm6.032 10.883-3.25-8.562h1.39l1.844 5.078c.283.758.528 1.53.734 2.313h.063a17.45 17.45 0 0 1 .546-1.716c.305-.867.988-2.759 2.051-5.676h1.391l-3.254 8.563h-1.515Zm9.757.156a3.932 3.932 0 0 1-3-1.156 4.476 4.476 0 0 1-1.1-3.211 4.96 4.96 0 0 1 1.026-3.289 3.387 3.387 0 0 1 2.738-1.219 3.223 3.223 0 0 1 2.547 1.059c.652.781.986 1.777.938 2.793v.82h-5.9a3.392 3.392 0 0 0 .762 2.289 2.639 2.639 0 0 0 2.035.781 6.898 6.898 0 0 0 2.734-.578v1.155a6.843 6.843 0 0 1-1.3.426 7.353 7.353 0 0 1-1.48.13Zm-.352-7.789a2.112 2.112 0 0 0-1.645.672 3.102 3.102 0 0 0-.721 1.861h4.477a2.853 2.853 0 0 0-.547-1.879 1.918 1.918 0 0 0-1.563-.654h-.001ZM399.073 164c5.799 0 10.5-4.701 10.5-10.5s-4.701-10.5-10.5-10.5-10.5 4.701-10.5 10.5 4.701 10.5 10.5 10.5Z" fill="#fff"/><g filter="url(#soulfx-card__f)"><path d="M401.073 266.5H317.5c-6.627 0-12 5.373-12 12v2c0 6.627 5.373 12 12 12h83.573c6.627 0 12-5.373 12-12v-2c0-6.627-5.373-12-12-12Z" fill="#D2D2D2" stroke="#D3D3D3" stroke-width=".5"/></g><path d="M343.828 285.465v-11.422h1.328v11.422h-1.328Zm10.125 0v-5.539a2.233 2.233 0 0 0-.476-1.561 1.942 1.942 0 0 0-1.492-.516 2.466 2.466 0 0 0-1.969.727 3.664 3.664 0 0 0-.625 2.4v4.489h-1.3v-8.562h1.055l.211 1.172h.063a2.643 2.643 0 0 1 1.117-.98 3.64 3.64 0 0 1 1.6-.348 3.249 3.249 0 0 1 2.328.746 3.179 3.179 0 0 1 .781 2.387v5.585h-1.293Zm9.227 0-.258-1.219h-.062a3.595 3.595 0 0 1-1.278 1.09 3.898 3.898 0 0 1-1.59.285 2.862 2.862 0 0 1-1.992-.656 2.403 2.403 0 0 1-.723-1.867c0-1.729 1.383-2.636 4.148-2.719l1.453-.047v-.531a2.173 2.173 0 0 0-.434-1.488 1.778 1.778 0 0 0-1.387-.48 5.652 5.652 0 0 0-2.422.656l-.4-.992a6.081 6.081 0 0 1 1.387-.539 5.99 5.99 0 0 1 1.512-.2 3.263 3.263 0 0 1 2.27.68 2.827 2.827 0 0 1 .738 2.18v5.847h-.962Zm-2.93-.914c.696.039 1.38-.2 1.9-.664a2.463 2.463 0 0 0 .691-1.859v-.773l-1.3.055a4.717 4.717 0 0 0-2.23.48 1.447 1.447 0 0 0-.684 1.324 1.334 1.334 0 0 0 .426 1.07c.341.264.767.395 1.197.367Zm9.984 1.07a3.65 3.65 0 0 1-2.879-1.144 4.71 4.71 0 0 1-1.02-3.238 4.854 4.854 0 0 1 1.035-3.32 3.719 3.719 0 0 1 2.95-1.173c.415 0 .829.045 1.234.133.335.063.661.168.969.313l-.4 1.1a6.1 6.1 0 0 0-.937-.285 4.2 4.2 0 0 0-.9-.113c-1.739 0-2.609 1.109-2.609 3.328-.055.856.17 1.706.639 2.423a2.212 2.212 0 0 0 1.884.843 5.776 5.776 0 0 0 2.2-.461v1.149a4.68 4.68 0 0 1-2.166.445Zm6.966-1.07c.222 0 .444-.017.664-.051.171-.025.341-.06.508-.105v.992c-.2.084-.411.141-.626.168a4.57 4.57 0 0 1-.738.066c-1.656 0-2.484-.872-2.484-2.617v-5.094H373.3v-.625l1.227-.539.547-1.828h.75v1.984h2.476v1.008h-2.48v5.039c-.029.428.102.851.367 1.188a1.284 1.284 0 0 0 1.013.414Zm4.175.914h-1.3v-8.562h1.3v8.562Zm-1.406-10.883a.86.86 0 0 1 .219-.652.766.766 0 0 1 .547-.207.765.765 0 0 1 .539.211.84.84 0 0 1 .227.648.867.867 0 0 1-.227.652.76.76 0 0 1-.539.215.744.744 0 0 1-.547-.215.89.89 0 0 1-.219-.652ZM386 285.465l-3.25-8.562h1.391l1.844 5.078c.284.758.529 1.53.734 2.313h.063c.152-.581.333-1.153.543-1.715.305-.867.988-2.759 2.051-5.676h1.391l-3.251 8.562H386Zm9.758.156a3.927 3.927 0 0 1-3-1.156 4.476 4.476 0 0 1-1.1-3.211 4.96 4.96 0 0 1 1.026-3.289 3.387 3.387 0 0 1 2.738-1.219 3.22 3.22 0 0 1 2.547 1.059c.652.781.987 1.777.938 2.793v.82h-5.9a3.392 3.392 0 0 0 .762 2.289 2.63 2.63 0 0 0 2.031.781 6.898 6.898 0 0 0 2.734-.578v1.155a6.82 6.82 0 0 1-1.3.426 7.308 7.308 0 0 1-1.476.13Zm-.352-7.789a2.115 2.115 0 0 0-1.645.672 3.103 3.103 0 0 0-.722 1.861h4.477a2.853 2.853 0 0 0-.547-1.879 1.918 1.918 0 0 0-1.563-.654Z" fill="#606060"/><path d="M319.5 290c5.799 0 10.5-4.701 10.5-10.5s-4.701-10.5-10.5-10.5-10.5 4.701-10.5 10.5 4.701 10.5 10.5 10.5Z" fill="#fff"/><g filter="url(#soulfx-card__g)"><path d="M401.073 393.5H317.5c-6.627 0-12 5.373-12 12v2c0 6.627 5.373 12 12 12h83.573c6.627 0 12-5.373 12-12v-2c0-6.627-5.373-12-12-12Z" fill="#D2D2D2" stroke="#D3D3D3" stroke-width=".5"/></g><path d="M343.828 412.465v-11.422h1.328v11.422h-1.328Zm10.125 0v-5.539a2.233 2.233 0 0 0-.476-1.561 1.942 1.942 0 0 0-1.492-.516 2.466 2.466 0 0 0-1.969.727 3.664 3.664 0 0 0-.625 2.4v4.489h-1.3v-8.562h1.055l.211 1.172h.063a2.643 2.643 0 0 1 1.117-.98 3.64 3.64 0 0 1 1.6-.348 3.249 3.249 0 0 1 2.328.746 3.179 3.179 0 0 1 .781 2.387v5.585h-1.293Zm9.227 0-.258-1.219h-.062a3.595 3.595 0 0 1-1.278 1.09 3.898 3.898 0 0 1-1.59.285 2.862 2.862 0 0 1-1.992-.656 2.403 2.403 0 0 1-.723-1.867c0-1.729 1.383-2.636 4.148-2.719l1.453-.047v-.531a2.173 2.173 0 0 0-.434-1.488 1.778 1.778 0 0 0-1.387-.48 5.652 5.652 0 0 0-2.422.656l-.4-.992a6.081 6.081 0 0 1 1.387-.539 5.99 5.99 0 0 1 1.512-.2 3.263 3.263 0 0 1 2.27.68 2.827 2.827 0 0 1 .738 2.18v5.847h-.962Zm-2.93-.914c.696.039 1.38-.2 1.9-.664a2.463 2.463 0 0 0 .691-1.859v-.773l-1.3.055a4.717 4.717 0 0 0-2.23.48 1.447 1.447 0 0 0-.684 1.324 1.334 1.334 0 0 0 .426 1.07c.341.264.767.395 1.197.367Zm9.984 1.07a3.65 3.65 0 0 1-2.879-1.144 4.71 4.71 0 0 1-1.02-3.238 4.854 4.854 0 0 1 1.035-3.32 3.719 3.719 0 0 1 2.95-1.173c.415 0 .829.045 1.234.133.335.063.661.168.969.313l-.4 1.1a6.1 6.1 0 0 0-.937-.285 4.2 4.2 0 0 0-.9-.113c-1.739 0-2.609 1.109-2.609 3.328-.055.856.17 1.706.639 2.423a2.212 2.212 0 0 0 1.884.843 5.776 5.776 0 0 0 2.2-.461v1.149a4.68 4.68 0 0 1-2.166.445Zm6.966-1.07c.222 0 .444-.017.664-.051.171-.025.341-.06.508-.105v.992c-.2.084-.411.141-.626.168a4.57 4.57 0 0 1-.738.066c-1.656 0-2.484-.872-2.484-2.617v-5.094H373.3v-.625l1.227-.539.547-1.828h.75v1.984h2.476v1.008h-2.48v5.039c-.029.428.102.851.367 1.188a1.284 1.284 0 0 0 1.013.414Zm4.175.914h-1.3v-8.562h1.3v8.562Zm-1.406-10.883a.86.86 0 0 1 .219-.652.766.766 0 0 1 .547-.207.765.765 0 0 1 .539.211.84.84 0 0 1 .227.648.867.867 0 0 1-.227.652.76.76 0 0 1-.539.215.744.744 0 0 1-.547-.215.89.89 0 0 1-.219-.652ZM386 412.465l-3.25-8.562h1.391l1.844 5.078c.284.758.529 1.53.734 2.313h.063c.152-.581.333-1.153.543-1.715.305-.867.988-2.759 2.051-5.676h1.391l-3.251 8.562H386Zm9.758.156a3.927 3.927 0 0 1-3-1.156 4.476 4.476 0 0 1-1.1-3.211 4.96 4.96 0 0 1 1.026-3.289 3.387 3.387 0 0 1 2.738-1.219 3.22 3.22 0 0 1 2.547 1.059c.652.781.987 1.777.938 2.793v.82h-5.9a3.392 3.392 0 0 0 .762 2.289 2.63 2.63 0 0 0 2.031.781 6.898 6.898 0 0 0 2.734-.578v1.155a6.82 6.82 0 0 1-1.3.426 7.308 7.308 0 0 1-1.476.13Zm-.352-7.789a2.115 2.115 0 0 0-1.645.672 3.103 3.103 0 0 0-.722 1.861h4.477a2.853 2.853 0 0 0-.547-1.879 1.918 1.918 0 0 0-1.563-.654Z" fill="#606060"/><path d="M319.5 417c5.799 0 10.5-4.701 10.5-10.5s-4.701-10.5-10.5-10.5-10.5 4.701-10.5 10.5 4.701 10.5 10.5 10.5Z" fill="#fff"/><path d="M621.461 88.578v7.39c0 .844-.182 1.584-.547 2.22-.359.63-.883 1.117-1.57 1.46-.683.339-1.5.508-2.453.508-1.417 0-2.519-.375-3.305-1.125-.787-.75-1.18-1.781-1.18-3.094v-7.359h1.875v7.227c0 .942.219 1.638.657 2.086.437.447 1.109.671 2.015.671 1.761 0 2.641-.924 2.641-2.773v-7.21h1.867Zm10.484 3.453c0 1.193-.39 2.107-1.172 2.742-.781.636-1.893.954-3.335.954h-1.188V100h-1.867V88.578h3.289c1.427 0 2.495.292 3.203.875.714.584 1.07 1.443 1.07 2.578Zm-5.695 2.125h.992c.959 0 1.662-.166 2.11-.5.447-.333.671-.854.671-1.562 0-.656-.2-1.146-.601-1.469-.401-.323-1.026-.484-1.875-.484h-1.297v4.015Zm17.266.024c0 1.885-.524 3.328-1.571 4.328-1.047.995-2.554 1.492-4.523 1.492h-3.195V88.578h3.531c1.818 0 3.232.49 4.242 1.469 1.01.979 1.516 2.357 1.516 4.133Zm-1.969.062c0-2.734-1.279-4.101-3.836-4.101h-1.617v8.289h1.328c2.75 0 4.125-1.396 4.125-4.188ZM653.062 100l-1.14-3.172h-4.367L646.438 100h-1.969l4.273-11.469h2.031L655.047 100h-1.985Zm-1.632-4.781-1.071-3.11a23.974 23.974 0 0 1-.609-1.969 17.507 17.507 0 0 1-.617 2.102l-1.031 2.977h3.328ZM660.5 100h-1.867v-9.82h-3.36v-1.602h8.586v1.602H660.5V100Zm11.578 0h-6.461V88.578h6.461v1.578h-4.594v3.11h4.305v1.562h-4.305v3.586h4.594V100Zm11.766-5.82c0 1.885-.524 3.328-1.571 4.328-1.046.995-2.554 1.492-4.523 1.492h-3.195V88.578h3.531c1.818 0 3.232.49 4.242 1.469 1.011.979 1.516 2.357 1.516 4.133Zm-1.969.062c0-2.734-1.279-4.101-3.836-4.101h-1.617v8.289h1.328c2.75 0 4.125-1.396 4.125-4.188ZM614.289 162h-7.508v-1.117l3.008-3.024c.917-.927 1.521-1.588 1.813-1.984.291-.396.51-.781.656-1.156a3.31 3.31 0 0 0 .219-1.211c0-.61-.185-1.091-.555-1.446-.37-.359-.883-.539-1.539-.539a3.91 3.91 0 0 0-1.352.235c-.422.156-.893.44-1.414.851l-.687-.882c1.052-.875 2.198-1.313 3.437-1.313 1.073 0 1.914.276 2.524.828.609.547.914 1.284.914 2.211 0 .724-.203 1.44-.61 2.149-.406.708-1.166 1.604-2.281 2.687l-2.5 2.445v.063h5.875V162Zm9.219-5.727c0 1.974-.313 3.448-.938 4.422-.619.974-1.57 1.461-2.851 1.461-1.229 0-2.164-.497-2.805-1.492-.641-1-.961-2.463-.961-4.391 0-1.989.31-3.466.93-4.429.62-.964 1.565-1.446 2.836-1.446 1.239 0 2.179.503 2.82 1.508.646 1.005.969 2.461.969 4.367Zm-6.242 0c0 1.662.195 2.873.586 3.633.39.755 1.013 1.133 1.867 1.133.864 0 1.489-.383 1.875-1.148.39-.771.586-1.977.586-3.618 0-1.64-.196-2.841-.586-3.601-.386-.766-1.011-1.149-1.875-1.149-.854 0-1.477.378-1.867 1.133-.391.75-.586 1.956-.586 3.617ZM632.602 162h-7.508v-1.117l3.008-3.024c.916-.927 1.52-1.588 1.812-1.984.292-.396.51-.781.656-1.156a3.31 3.31 0 0 0 .219-1.211c0-.61-.185-1.091-.555-1.446-.369-.359-.882-.539-1.539-.539-.474 0-.924.079-1.351.235-.422.156-.893.44-1.414.851l-.688-.882c1.052-.875 2.198-1.313 3.438-1.313 1.073 0 1.914.276 2.523.828.609.547.914 1.284.914 2.211 0 .724-.203 1.44-.609 2.149-.406.708-1.167 1.604-2.281 2.687l-2.5 2.445v.063h5.875V162Zm9.218-5.727c0 1.974-.312 3.448-.937 4.422-.62.974-1.571 1.461-2.852 1.461-1.229 0-2.164-.497-2.804-1.492-.641-1-.961-2.463-.961-4.391 0-1.989.31-3.466.929-4.429.62-.964 1.565-1.446 2.836-1.446 1.24 0 2.18.503 2.821 1.508.645 1.005.968 2.461.968 4.367Zm-6.242 0c0 1.662.195 2.873.586 3.633.391.755 1.013 1.133 1.867 1.133.865 0 1.49-.383 1.875-1.148.391-.771.586-1.977.586-3.618 0-1.64-.195-2.841-.586-3.601-.385-.766-1.01-1.149-1.875-1.149-.854 0-1.476.378-1.867 1.133-.391.75-.586 1.956-.586 3.617Zm7.703 2.032v-1.188h3.836v1.188h-3.836Zm12.852-2.032c0 1.974-.313 3.448-.938 4.422-.619.974-1.57 1.461-2.851 1.461-1.229 0-2.164-.497-2.805-1.492-.641-1-.961-2.463-.961-4.391 0-1.989.31-3.466.93-4.429.62-.964 1.565-1.446 2.836-1.446 1.239 0 2.179.503 2.82 1.508.646 1.005.969 2.461.969 4.367Zm-6.242 0c0 1.662.195 2.873.586 3.633.39.755 1.013 1.133 1.867 1.133.864 0 1.489-.383 1.875-1.148.39-.771.586-1.977.586-3.618 0-1.64-.196-2.841-.586-3.601-.386-.766-1.011-1.149-1.875-1.149-.854 0-1.477.378-1.867 1.133-.391.75-.586 1.956-.586 3.617Zm7.961.844c0-2.245.434-3.922 1.304-5.031.875-1.115 2.167-1.672 3.875-1.672.589 0 1.052.05 1.391.148v1.118a4.427 4.427 0 0 0-1.375-.196c-1.224 0-2.159.383-2.805 1.149-.646.76-1 1.958-1.062 3.594h.093c.573-.896 1.48-1.344 2.719-1.344 1.026 0 1.834.31 2.422.929.594.62.891 1.461.891 2.524 0 1.187-.326 2.122-.977 2.805-.646.677-1.521 1.015-2.625 1.015-1.182 0-2.12-.442-2.812-1.328-.693-.89-1.039-2.127-1.039-3.711Zm3.836 3.938c.739 0 1.312-.232 1.718-.696.412-.468.617-1.143.617-2.023 0-.755-.19-1.349-.57-1.781-.38-.433-.948-.649-1.703-.649-.469 0-.898.097-1.289.289a2.427 2.427 0 0 0-.938.797c-.229.339-.343.69-.343 1.055 0 .536.104 1.036.312 1.5.209.463.503.831.883 1.101.385.271.823.407 1.313.407Zm5.062-2.75v-1.188h3.836v1.188h-3.836ZM679.539 162h-7.508v-1.117l3.008-3.024c.917-.927 1.521-1.588 1.813-1.984.291-.396.51-.781.656-1.156a3.31 3.31 0 0 0 .219-1.211c0-.61-.185-1.091-.555-1.446-.37-.359-.883-.539-1.539-.539a3.91 3.91 0 0 0-1.352.235c-.422.156-.893.44-1.414.851l-.687-.882c1.052-.875 2.198-1.313 3.437-1.313 1.073 0 1.914.276 2.524.828.609.547.914 1.284.914 2.211 0 .724-.203 1.44-.61 2.149-.406.708-1.166 1.604-2.281 2.687l-2.5 2.445v.063h5.875V162Zm9.156 0h-7.507v-1.117l3.007-3.024c.917-.927 1.521-1.588 1.813-1.984.291-.396.51-.781.656-1.156a3.31 3.31 0 0 0 .219-1.211c0-.61-.185-1.091-.555-1.446-.37-.359-.883-.539-1.539-.539-.474 0-.924.079-1.351.235-.422.156-.894.44-1.415.851l-.687-.882c1.052-.875 2.198-1.313 3.437-1.313 1.073 0 1.915.276 2.524.828.609.547.914 1.284.914 2.211 0 .724-.203 1.44-.609 2.149-.407.708-1.167 1.604-2.282 2.687l-2.5 2.445v.063h5.875V162Zm-74.406 62h-7.508v-1.117l3.008-3.024c.917-.927 1.521-1.588 1.813-1.984.291-.396.51-.781.656-1.156a3.31 3.31 0 0 0 .219-1.211c0-.61-.185-1.091-.555-1.446-.37-.359-.883-.539-1.539-.539a3.91 3.91 0 0 0-1.352.235c-.422.156-.893.44-1.414.851l-.687-.882c1.052-.875 2.198-1.313 3.437-1.313 1.073 0 1.914.276 2.524.828.609.547.914 1.284.914 2.211 0 .724-.203 1.44-.61 2.149-.406.708-1.166 1.604-2.281 2.687l-2.5 2.445v.063h5.875V224Zm9.219-5.727c0 1.974-.313 3.448-.938 4.422-.619.974-1.57 1.461-2.851 1.461-1.229 0-2.164-.497-2.805-1.492-.641-1-.961-2.463-.961-4.391 0-1.989.31-3.466.93-4.429.62-.964 1.565-1.446 2.836-1.446 1.239 0 2.179.503 2.82 1.508.646 1.005.969 2.461.969 4.367Zm-6.242 0c0 1.662.195 2.873.586 3.633.39.755 1.013 1.133 1.867 1.133.864 0 1.489-.383 1.875-1.148.39-.771.586-1.977.586-3.618 0-1.64-.196-2.841-.586-3.601-.386-.766-1.011-1.149-1.875-1.149-.854 0-1.477.378-1.867 1.133-.391.75-.586 1.956-.586 3.617ZM632.602 224h-7.508v-1.117l3.008-3.024c.916-.927 1.52-1.588 1.812-1.984.292-.396.51-.781.656-1.156a3.31 3.31 0 0 0 .219-1.211c0-.61-.185-1.091-.555-1.446-.369-.359-.882-.539-1.539-.539-.474 0-.924.079-1.351.235-.422.156-.893.44-1.414.851l-.688-.882c1.052-.875 2.198-1.313 3.438-1.313 1.073 0 1.914.276 2.523.828.609.547.914 1.284.914 2.211 0 .724-.203 1.44-.609 2.149-.406.708-1.167 1.604-2.281 2.687l-2.5 2.445v.063h5.875V224Zm9.218-5.727c0 1.974-.312 3.448-.937 4.422-.62.974-1.571 1.461-2.852 1.461-1.229 0-2.164-.497-2.804-1.492-.641-1-.961-2.463-.961-4.391 0-1.989.31-3.466.929-4.429.62-.964 1.565-1.446 2.836-1.446 1.24 0 2.18.503 2.821 1.508.645 1.005.968 2.461.968 4.367Zm-6.242 0c0 1.662.195 2.873.586 3.633.391.755 1.013 1.133 1.867 1.133.865 0 1.49-.383 1.875-1.148.391-.771.586-1.977.586-3.618 0-1.64-.195-2.841-.586-3.601-.385-.766-1.01-1.149-1.875-1.149-.854 0-1.476.378-1.867 1.133-.391.75-.586 1.956-.586 3.617Zm7.703 2.032v-1.188h3.836v1.188h-3.836Zm12.852-2.032c0 1.974-.313 3.448-.938 4.422-.619.974-1.57 1.461-2.851 1.461-1.229 0-2.164-.497-2.805-1.492-.641-1-.961-2.463-.961-4.391 0-1.989.31-3.466.93-4.429.62-.964 1.565-1.446 2.836-1.446 1.239 0 2.179.503 2.82 1.508.646 1.005.969 2.461.969 4.367Zm-6.242 0c0 1.662.195 2.873.586 3.633.39.755 1.013 1.133 1.867 1.133.864 0 1.489-.383 1.875-1.148.39-.771.586-1.977.586-3.618 0-1.64-.196-2.841-.586-3.601-.386-.766-1.011-1.149-1.875-1.149-.854 0-1.477.378-1.867 1.133-.391.75-.586 1.956-.586 3.617Zm7.961.844c0-2.245.434-3.922 1.304-5.031.875-1.115 2.167-1.672 3.875-1.672.589 0 1.052.05 1.391.148v1.118a4.427 4.427 0 0 0-1.375-.196c-1.224 0-2.159.383-2.805 1.149-.646.76-1 1.958-1.062 3.594h.093c.573-.896 1.48-1.344 2.719-1.344 1.026 0 1.834.31 2.422.929.594.62.891 1.461.891 2.524 0 1.187-.326 2.122-.977 2.805-.646.677-1.521 1.015-2.625 1.015-1.182 0-2.12-.442-2.812-1.328-.693-.89-1.039-2.127-1.039-3.711Zm3.836 3.938c.739 0 1.312-.232 1.718-.696.412-.468.617-1.143.617-2.023 0-.755-.19-1.349-.57-1.781-.38-.433-.948-.649-1.703-.649-.469 0-.898.097-1.289.289a2.427 2.427 0 0 0-.938.797c-.229.339-.343.69-.343 1.055 0 .536.104 1.036.312 1.5.209.463.503.831.883 1.101.385.271.823.407 1.313.407Zm5.062-2.75v-1.188h3.836v1.188h-3.836ZM679.539 224h-7.508v-1.117l3.008-3.024c.917-.927 1.521-1.588 1.813-1.984.291-.396.51-.781.656-1.156a3.31 3.31 0 0 0 .219-1.211c0-.61-.185-1.091-.555-1.446-.37-.359-.883-.539-1.539-.539a3.91 3.91 0 0 0-1.352.235c-.422.156-.893.44-1.414.851l-.687-.882c1.052-.875 2.198-1.313 3.437-1.313 1.073 0 1.914.276 2.524.828.609.547.914 1.284.914 2.211 0 .724-.203 1.44-.61 2.149-.406.708-1.166 1.604-2.281 2.687l-2.5 2.445v.063h5.875V224Zm9.156-6.547c0 4.469-1.729 6.703-5.187 6.703-.604 0-1.084-.052-1.438-.156v-1.117a4.61 4.61 0 0 0 1.422.203c1.25 0 2.193-.385 2.828-1.156.641-.776.99-1.964 1.047-3.563h-.094a2.804 2.804 0 0 1-1.14.992 3.704 3.704 0 0 1-1.602.336c-1.01 0-1.812-.302-2.406-.906-.594-.604-.891-1.448-.891-2.531 0-1.188.331-2.125.993-2.813.666-.687 1.541-1.031 2.625-1.031.776 0 1.453.201 2.031.602.583.395 1.031.976 1.344 1.742.312.76.468 1.659.468 2.695Zm-3.843-3.93c-.745 0-1.321.24-1.727.719-.406.479-.609 1.146-.609 2 0 .75.187 1.341.562 1.774.375.427.945.64 1.711.64.474 0 .909-.096 1.305-.289a2.36 2.36 0 0 0 .945-.789 1.82 1.82 0 0 0 .344-1.047c0-.547-.107-1.052-.321-1.515a2.63 2.63 0 0 0-.898-1.094 2.232 2.232 0 0 0-1.312-.399ZM614.289 286h-7.508v-1.117l3.008-3.024c.917-.927 1.521-1.588 1.813-1.984.291-.396.51-.781.656-1.156a3.31 3.31 0 0 0 .219-1.211c0-.61-.185-1.091-.555-1.446-.37-.359-.883-.539-1.539-.539a3.91 3.91 0 0 0-1.352.235c-.422.156-.893.44-1.414.851l-.687-.882c1.052-.875 2.198-1.313 3.437-1.313 1.073 0 1.914.276 2.524.828.609.547.914 1.284.914 2.211 0 .724-.203 1.44-.61 2.149-.406.708-1.166 1.604-2.281 2.687l-2.5 2.445v.063h5.875V286Zm9.219-5.727c0 1.974-.313 3.448-.938 4.422-.619.974-1.57 1.461-2.851 1.461-1.229 0-2.164-.497-2.805-1.492-.641-1-.961-2.463-.961-4.391 0-1.989.31-3.466.93-4.429.62-.964 1.565-1.446 2.836-1.446 1.239 0 2.179.503 2.82 1.508.646 1.005.969 2.461.969 4.367Zm-6.242 0c0 1.662.195 2.873.586 3.633.39.755 1.013 1.133 1.867 1.133.864 0 1.489-.383 1.875-1.148.39-.771.586-1.977.586-3.618 0-1.64-.196-2.841-.586-3.601-.386-.766-1.011-1.149-1.875-1.149-.854 0-1.477.378-1.867 1.133-.391.75-.586 1.956-.586 3.617ZM632.602 286h-7.508v-1.117l3.008-3.024c.916-.927 1.52-1.588 1.812-1.984.292-.396.51-.781.656-1.156a3.31 3.31 0 0 0 .219-1.211c0-.61-.185-1.091-.555-1.446-.369-.359-.882-.539-1.539-.539-.474 0-.924.079-1.351.235-.422.156-.893.44-1.414.851l-.688-.882c1.052-.875 2.198-1.313 3.438-1.313 1.073 0 1.914.276 2.523.828.609.547.914 1.284.914 2.211 0 .724-.203 1.44-.609 2.149-.406.708-1.167 1.604-2.281 2.687l-2.5 2.445v.063h5.875V286Zm9.218-5.727c0 1.974-.312 3.448-.937 4.422-.62.974-1.571 1.461-2.852 1.461-1.229 0-2.164-.497-2.804-1.492-.641-1-.961-2.463-.961-4.391 0-1.989.31-3.466.929-4.429.62-.964 1.565-1.446 2.836-1.446 1.24 0 2.18.503 2.821 1.508.645 1.005.968 2.461.968 4.367Zm-6.242 0c0 1.662.195 2.873.586 3.633.391.755 1.013 1.133 1.867 1.133.865 0 1.49-.383 1.875-1.148.391-.771.586-1.977.586-3.618 0-1.64-.195-2.841-.586-3.601-.385-.766-1.01-1.149-1.875-1.149-.854 0-1.476.378-1.867 1.133-.391.75-.586 1.956-.586 3.617Zm7.703 2.032v-1.188h3.836v1.188h-3.836Zm12.852-2.032c0 1.974-.313 3.448-.938 4.422-.619.974-1.57 1.461-2.851 1.461-1.229 0-2.164-.497-2.805-1.492-.641-1-.961-2.463-.961-4.391 0-1.989.31-3.466.93-4.429.62-.964 1.565-1.446 2.836-1.446 1.239 0 2.179.503 2.82 1.508.646 1.005.969 2.461.969 4.367Zm-6.242 0c0 1.662.195 2.873.586 3.633.39.755 1.013 1.133 1.867 1.133.864 0 1.489-.383 1.875-1.148.39-.771.586-1.977.586-3.618 0-1.64-.196-2.841-.586-3.601-.386-.766-1.011-1.149-1.875-1.149-.854 0-1.477.378-1.867 1.133-.391.75-.586 1.956-.586 3.617Zm9.273 5.727 4.734-10.227h-6.226v-1.195h7.601v1.039L660.602 286h-1.438Zm7.586-3.695v-1.188h3.836v1.188h-3.836Zm12.852-2.032c0 1.974-.313 3.448-.938 4.422-.62.974-1.57 1.461-2.852 1.461-1.229 0-2.164-.497-2.804-1.492-.641-1-.961-2.463-.961-4.391 0-1.989.31-3.466.93-4.429.619-.964 1.565-1.446 2.835-1.446 1.24 0 2.18.503 2.821 1.508.646 1.005.969 2.461.969 4.367Zm-6.243 0c0 1.662.196 2.873.586 3.633.391.755 1.013 1.133 1.867 1.133.865 0 1.49-.383 1.876-1.148.39-.771.585-1.977.585-3.618 0-1.64-.195-2.841-.585-3.601-.386-.766-1.011-1.149-1.876-1.149-.854 0-1.476.378-1.867 1.133-.39.75-.586 1.956-.586 3.617Zm11.399-1.25c1.203 0 2.148.3 2.836.899.692.594 1.039 1.409 1.039 2.445 0 1.182-.378 2.11-1.133 2.781-.75.672-1.786 1.008-3.109 1.008-1.287 0-2.269-.205-2.946-.617v-1.25c.365.234.818.419 1.36.555.541.13 1.075.195 1.601.195.917 0 1.628-.216 2.133-.648.51-.433.766-1.058.766-1.875 0-1.594-.977-2.391-2.93-2.391-.495 0-1.156.076-1.984.227l-.672-.43.429-5.344h5.68v1.195h-4.57l-.289 3.43a9.086 9.086 0 0 1 1.789-.18ZM614.289 349h-7.508v-1.117l3.008-3.024c.917-.927 1.521-1.588 1.813-1.984.291-.396.51-.781.656-1.156a3.31 3.31 0 0 0 .219-1.211c0-.61-.185-1.091-.555-1.446-.37-.359-.883-.539-1.539-.539a3.91 3.91 0 0 0-1.352.235c-.422.156-.893.44-1.414.851l-.687-.882c1.052-.875 2.198-1.313 3.437-1.313 1.073 0 1.914.276 2.524.828.609.547.914 1.284.914 2.211 0 .724-.203 1.44-.61 2.149-.406.708-1.166 1.604-2.281 2.687l-2.5 2.445v.063h5.875V349Zm9.219-5.727c0 1.974-.313 3.448-.938 4.422-.619.974-1.57 1.461-2.851 1.461-1.229 0-2.164-.497-2.805-1.492-.641-1-.961-2.463-.961-4.391 0-1.989.31-3.466.93-4.429.62-.964 1.565-1.446 2.836-1.446 1.239 0 2.179.503 2.82 1.508.646 1.005.969 2.461.969 4.367Zm-6.242 0c0 1.662.195 2.873.586 3.633.39.755 1.013 1.133 1.867 1.133.864 0 1.489-.383 1.875-1.148.39-.771.586-1.977.586-3.618 0-1.64-.196-2.841-.586-3.601-.386-.766-1.011-1.149-1.875-1.149-.854 0-1.477.378-1.867 1.133-.391.75-.586 1.956-.586 3.617ZM632.602 349h-7.508v-1.117l3.008-3.024c.916-.927 1.52-1.588 1.812-1.984.292-.396.51-.781.656-1.156a3.31 3.31 0 0 0 .219-1.211c0-.61-.185-1.091-.555-1.446-.369-.359-.882-.539-1.539-.539-.474 0-.924.079-1.351.235-.422.156-.893.44-1.414.851l-.688-.882c1.052-.875 2.198-1.313 3.438-1.313 1.073 0 1.914.276 2.523.828.609.547.914 1.284.914 2.211 0 .724-.203 1.44-.609 2.149-.406.708-1.167 1.604-2.281 2.687l-2.5 2.445v.063h5.875V349Zm9.218-5.727c0 1.974-.312 3.448-.937 4.422-.62.974-1.571 1.461-2.852 1.461-1.229 0-2.164-.497-2.804-1.492-.641-1-.961-2.463-.961-4.391 0-1.989.31-3.466.929-4.429.62-.964 1.565-1.446 2.836-1.446 1.24 0 2.18.503 2.821 1.508.645 1.005.968 2.461.968 4.367Zm-6.242 0c0 1.662.195 2.873.586 3.633.391.755 1.013 1.133 1.867 1.133.865 0 1.49-.383 1.875-1.148.391-.771.586-1.977.586-3.618 0-1.64-.195-2.841-.586-3.601-.385-.766-1.01-1.149-1.875-1.149-.854 0-1.476.378-1.867 1.133-.391.75-.586 1.956-.586 3.617Zm7.703 2.032v-1.188h3.836v1.188h-3.836Zm12.852-2.032c0 1.974-.313 3.448-.938 4.422-.619.974-1.57 1.461-2.851 1.461-1.229 0-2.164-.497-2.805-1.492-.641-1-.961-2.463-.961-4.391 0-1.989.31-3.466.93-4.429.62-.964 1.565-1.446 2.836-1.446 1.239 0 2.179.503 2.82 1.508.646 1.005.969 2.461.969 4.367Zm-6.242 0c0 1.662.195 2.873.586 3.633.39.755 1.013 1.133 1.867 1.133.864 0 1.489-.383 1.875-1.148.39-.771.586-1.977.586-3.618 0-1.64-.196-2.841-.586-3.601-.386-.766-1.011-1.149-1.875-1.149-.854 0-1.477.378-1.867 1.133-.391.75-.586 1.956-.586 3.617Zm7.961.844c0-2.245.434-3.922 1.304-5.031.875-1.115 2.167-1.672 3.875-1.672.589 0 1.052.05 1.391.148v1.118a4.427 4.427 0 0 0-1.375-.196c-1.224 0-2.159.383-2.805 1.149-.646.76-1 1.958-1.062 3.594h.093c.573-.896 1.48-1.344 2.719-1.344 1.026 0 1.834.31 2.422.929.594.62.891 1.461.891 2.524 0 1.187-.326 2.122-.977 2.805-.646.677-1.521 1.015-2.625 1.015-1.182 0-2.12-.442-2.812-1.328-.693-.89-1.039-2.127-1.039-3.711Zm3.836 3.938c.739 0 1.312-.232 1.718-.696.412-.468.617-1.143.617-2.023 0-.755-.19-1.349-.57-1.781-.38-.433-.948-.649-1.703-.649-.469 0-.898.097-1.289.289a2.427 2.427 0 0 0-.938.797c-.229.339-.343.69-.343 1.055 0 .536.104 1.036.312 1.5.209.463.503.831.883 1.101.385.271.823.407 1.313.407Zm5.062-2.75v-1.188h3.836v1.188h-3.836ZM679.539 349h-7.508v-1.117l3.008-3.024c.917-.927 1.521-1.588 1.813-1.984.291-.396.51-.781.656-1.156a3.31 3.31 0 0 0 .219-1.211c0-.61-.185-1.091-.555-1.446-.37-.359-.883-.539-1.539-.539a3.91 3.91 0 0 0-1.352.235c-.422.156-.893.44-1.414.851l-.687-.882c1.052-.875 2.198-1.313 3.437-1.313 1.073 0 1.914.276 2.524.828.609.547.914 1.284.914 2.211 0 .724-.203 1.44-.61 2.149-.406.708-1.166 1.604-2.281 2.687l-2.5 2.445v.063h5.875V349Zm9.156 0h-7.507v-1.117l3.007-3.024c.917-.927 1.521-1.588 1.813-1.984.291-.396.51-.781.656-1.156a3.31 3.31 0 0 0 .219-1.211c0-.61-.185-1.091-.555-1.446-.37-.359-.883-.539-1.539-.539-.474 0-.924.079-1.351.235-.422.156-.894.44-1.415.851l-.687-.882c1.052-.875 2.198-1.313 3.437-1.313 1.073 0 1.915.276 2.524.828.609.547.914 1.284.914 2.211 0 .724-.203 1.44-.609 2.149-.407.708-1.167 1.604-2.282 2.687l-2.5 2.445v.063h5.875V349Zm-74.406 64h-7.508v-1.117l3.008-3.024c.917-.927 1.521-1.588 1.813-1.984.291-.396.51-.781.656-1.156a3.31 3.31 0 0 0 .219-1.211c0-.61-.185-1.091-.555-1.446-.37-.359-.883-.539-1.539-.539a3.91 3.91 0 0 0-1.352.235c-.422.156-.893.44-1.414.851l-.687-.882c1.052-.875 2.198-1.313 3.437-1.313 1.073 0 1.914.276 2.524.828.609.547.914 1.284.914 2.211 0 .724-.203 1.44-.61 2.149-.406.708-1.166 1.604-2.281 2.687l-2.5 2.445v.063h5.875V413Zm9.219-5.727c0 1.974-.313 3.448-.938 4.422-.619.974-1.57 1.461-2.851 1.461-1.229 0-2.164-.497-2.805-1.492-.641-1-.961-2.463-.961-4.391 0-1.989.31-3.466.93-4.429.62-.964 1.565-1.446 2.836-1.446 1.239 0 2.179.503 2.82 1.508.646 1.005.969 2.461.969 4.367Zm-6.242 0c0 1.662.195 2.873.586 3.633.39.755 1.013 1.133 1.867 1.133.864 0 1.489-.383 1.875-1.148.39-.771.586-1.977.586-3.618 0-1.64-.196-2.841-.586-3.601-.386-.766-1.011-1.149-1.875-1.149-.854 0-1.477.378-1.867 1.133-.391.75-.586 1.956-.586 3.617ZM632.602 413h-7.508v-1.117l3.008-3.024c.916-.927 1.52-1.588 1.812-1.984.292-.396.51-.781.656-1.156a3.31 3.31 0 0 0 .219-1.211c0-.61-.185-1.091-.555-1.446-.369-.359-.882-.539-1.539-.539-.474 0-.924.079-1.351.235-.422.156-.893.44-1.414.851l-.688-.882c1.052-.875 2.198-1.313 3.438-1.313 1.073 0 1.914.276 2.523.828.609.547.914 1.284.914 2.211 0 .724-.203 1.44-.609 2.149-.406.708-1.167 1.604-2.281 2.687l-2.5 2.445v.063h5.875V413Zm9.218-5.727c0 1.974-.312 3.448-.937 4.422-.62.974-1.571 1.461-2.852 1.461-1.229 0-2.164-.497-2.804-1.492-.641-1-.961-2.463-.961-4.391 0-1.989.31-3.466.929-4.429.62-.964 1.565-1.446 2.836-1.446 1.24 0 2.18.503 2.821 1.508.645 1.005.968 2.461.968 4.367Zm-6.242 0c0 1.662.195 2.873.586 3.633.391.755 1.013 1.133 1.867 1.133.865 0 1.49-.383 1.875-1.148.391-.771.586-1.977.586-3.618 0-1.64-.195-2.841-.586-3.601-.385-.766-1.01-1.149-1.875-1.149-.854 0-1.476.378-1.867 1.133-.391.75-.586 1.956-.586 3.617Zm7.703 2.032v-1.188h3.836v1.188h-3.836Zm12.852-2.032c0 1.974-.313 3.448-.938 4.422-.619.974-1.57 1.461-2.851 1.461-1.229 0-2.164-.497-2.805-1.492-.641-1-.961-2.463-.961-4.391 0-1.989.31-3.466.93-4.429.62-.964 1.565-1.446 2.836-1.446 1.239 0 2.179.503 2.82 1.508.646 1.005.969 2.461.969 4.367Zm-6.242 0c0 1.662.195 2.873.586 3.633.39.755 1.013 1.133 1.867 1.133.864 0 1.489-.383 1.875-1.148.39-.771.586-1.977.586-3.618 0-1.64-.196-2.841-.586-3.601-.386-.766-1.011-1.149-1.875-1.149-.854 0-1.477.378-1.867 1.133-.391.75-.586 1.956-.586 3.617Zm7.961.844c0-2.245.434-3.922 1.304-5.031.875-1.115 2.167-1.672 3.875-1.672.589 0 1.052.05 1.391.148v1.118a4.427 4.427 0 0 0-1.375-.196c-1.224 0-2.159.383-2.805 1.149-.646.76-1 1.958-1.062 3.594h.093c.573-.896 1.48-1.344 2.719-1.344 1.026 0 1.834.31 2.422.929.594.62.891 1.461.891 2.524 0 1.187-.326 2.122-.977 2.805-.646.677-1.521 1.015-2.625 1.015-1.182 0-2.12-.442-2.812-1.328-.693-.89-1.039-2.127-1.039-3.711Zm3.836 3.938c.739 0 1.312-.232 1.718-.696.412-.468.617-1.143.617-2.023 0-.755-.19-1.349-.57-1.781-.38-.433-.948-.649-1.703-.649-.469 0-.898.097-1.289.289a2.427 2.427 0 0 0-.938.797c-.229.339-.343.69-.343 1.055 0 .536.104 1.036.312 1.5.209.463.503.831.883 1.101.385.271.823.407 1.313.407Zm5.062-2.75v-1.188h3.836v1.188h-3.836ZM676.836 413h-1.266v-8.141c0-.677.021-1.317.063-1.921-.11.109-.232.223-.367.343-.136.12-.756.628-1.86 1.524l-.687-.891 3.023-2.336h1.094V413Zm7.922-6.977c1.203 0 2.148.3 2.836.899.692.594 1.039 1.409 1.039 2.445 0 1.182-.378 2.11-1.133 2.781-.75.672-1.786 1.008-3.109 1.008-1.287 0-2.269-.205-2.946-.617v-1.25c.365.234.818.419 1.36.555.541.13 1.075.195 1.601.195.917 0 1.628-.216 2.133-.648.51-.433.766-1.058.766-1.875 0-1.594-.977-2.391-2.93-2.391-.495 0-1.156.076-1.984.227l-.672-.43.429-5.344h5.68v1.195h-4.57l-.289 3.43a9.086 9.086 0 0 1 1.789-.18Z" fill="#757575"/></g><defs><filter id="soulfx-card__b" x="-188" y="60" width="1142" height="390" filterUnits="userSpaceOnUse" color-interpolation-filters="sRGB"><feFlood flood-opacity="0" result="BackgroundImageFix"/><feColorMatrix in="SourceAlpha" values="0 0 0 0 0 0 0 0 0 0 0 0 0 0 0 0 0 0 127 0" result="hardAlpha"/><feOffset dy="3"/><feGaussianBlur stdDeviation="3"/><feColorMatrix values="0 0 0 0 0 0 0 0 0 0 0 0 0 0 0 0 0 0 0.161 0"/><feBlend in2="BackgroundImageFix" result="effect1_dropShadow_405_1846"/><feBlend in="SourceGraphic" in2="effect1_dropShadow_405_1846" result="shape"/></filter><filter id="soulfx-card__c" x="299.25" y="201.25" width="120.073" height="38.5" filterUnits="userSpaceOnUse" color-interpolation-filters="sRGB"><feFlood flood-opacity="0" result="BackgroundImageFix"/><feColorMatrix in="SourceAlpha" values="0 0 0 0 0 0 0 0 0 0 0 0 0 0 0 0 0 0 127 0" result="hardAlpha"/><feOffset dy="3"/><feGaussianBlur stdDeviation="3"/><feColorMatrix values="0 0 0 0 0 0 0 0 0 0 0 0 0 0 0 0 0 0 0.161 0"/><feBlend in2="BackgroundImageFix" result="effect1_dropShadow_405_1846"/><feBlend in="SourceGraphic" in2="effect1_dropShadow_405_1846" result="shape"/></filter><filter id="soulfx-card__d" x="299.25" y="326.25" width="120.073" height="38.5" filterUnits="userSpaceOnUse" color-interpolation-filters="sRGB"><feFlood flood-opacity="0" result="BackgroundImageFix"/><feColorMatrix in="SourceAlpha" values="0 0 0 0 0 0 0 0 0 0 0 0 0 0 0 0 0 0 127 0" result="hardAlpha"/><feOffset dy="3"/><feGaussianBlur stdDeviation="3"/><feColorMatrix values="0 0 0 0 0 0 0 0 0 0 0 0 0 0 0 0 0 0 0.161 0"/><feBlend in2="BackgroundImageFix" result="effect1_dropShadow_405_1846"/><feBlend in="SourceGraphic" in2="effect1_dropShadow_405_1846" result="shape"/></filter><filter id="soulfx-card__e" x="299.25" y="137.25" width="120.073" height="38.5" filterUnits="userSpaceOnUse" color-interpolation-filters="sRGB"><feFlood flood-opacity="0" result="BackgroundImageFix"/><feColorMatrix in="SourceAlpha" values="0 0 0 0 0 0 0 0 0 0 0 0 0 0 0 0 0 0 127 0" result="hardAlpha"/><feOffset dy="3"/><feGaussianBlur stdDeviation="3"/><feColorMatrix values="0 0 0 0 0 0 0 0 0 0 0 0 0 0 0 0 0 0 0.161 0"/><feBlend in2="BackgroundImageFix" result="effect1_dropShadow_405_1846"/><feBlend in="SourceGraphic" in2="effect1_dropShadow_405_1846" result="shape"/></filter><filter id="soulfx-card__f" x="299.25" y="263.25" width="120.073" height="38.5" filterUnits="userSpaceOnUse" color-interpolation-filters="sRGB"><feFlood flood-opacity="0" result="BackgroundImageFix"/><feColorMatrix in="SourceAlpha" values="0 0 0 0 0 0 0 0 0 0 0 0 0 0 0 0 0 0 127 0" result="hardAlpha"/><feOffset dy="3"/><feGaussianBlur stdDeviation="3"/><feColorMatrix values="0 0 0 0 0 0 0 0 0 0 0 0 0 0 0 0 0 0 0.161 0"/><feBlend in2="BackgroundImageFix" result="effect1_dropShadow_405_1846"/><feBlend in="SourceGraphic" in2="effect1_dropShadow_405_1846" result="shape"/></filter><filter id="soulfx-card__g" x="299.25" y="390.25" width="120.073" height="38.5" filterUnits="userSpaceOnUse" color-interpolation-filters="sRGB"><feFlood flood-opacity="0" result="BackgroundImageFix"/><feColorMatrix in="SourceAlpha" values="0 0 0 0 0 0 0 0 0 0 0 0 0 0 0 0 0 0 127 0" result="hardAlpha"/><feOffset dy="3"/><feGaussianBlur stdDeviation="3"/><feColorMatrix values="0 0 0 0 0 0 0 0 0 0 0 0 0 0 0 0 0 0 0.161 0"/><feBlend in2="BackgroundImageFix" result="effect1_dropShadow_405_1846"/><feBlend in="SourceGraphic" in2="effect1_dropShadow_405_1846" result="shape"/></filter><clipPath id="soulfx-card__a"><path fill="#fff" transform="translate(165 31)" d="M0 0h555v437H0z"/></clipPath></defs></svg>