<svg width="1890" height="359" fill="none" xmlns="http://www.w3.org/2000/svg">
  <g clip-path="url(#soulfx-outline__clip0)">
    <circle cx="178" cy="209" r="48" fill="#fff" stroke="#C4C4C4" stroke-width="4"/>
    <path d="M129.884 303.36c4.2 0 7.08-2.28 7.08-5.88 0-3.9-3.42-4.98-7.23-6.24-2.85-.93-4.65-1.65-4.65-3.93 0-2.31 1.83-3.63 4.35-3.63 2.76 0 4.38 1.59 5.16 3.48l1.77-.99c-1.08-2.49-3.48-4.53-6.93-4.53-3.48 0-6.45 2.07-6.45 5.76 0 3.87 3.3 4.77 6.72 5.91 3.09 1.02 5.16 1.8 5.16 4.23 0 2.25-1.77 3.78-4.95 3.78-3.3 0-5.28-1.62-6.03-4.14l-1.8 1.05c1.08 3.18 3.93 5.13 7.8 5.13zm17.668 0c2.94 0 5.49-1.53 6.72-3.9l-1.65-.96c-.96 1.74-2.79 2.94-5.07 2.94-3.33 0-5.91-2.61-5.91-5.94 0-3.33 2.58-5.94 5.91-5.94 2.25 0 4.14 1.17 4.95 2.94l1.62-.93c-1.08-2.37-3.6-3.93-6.57-3.93-4.53 0-7.89 3.42-7.89 7.86s3.36 7.86 7.89 7.86zm16.406 0c4.38 0 7.89-3.42 7.89-7.86s-3.51-7.86-7.89-7.86-7.89 3.42-7.89 7.86 3.51 7.86 7.89 7.86zm0-1.92c-3.33 0-5.91-2.61-5.91-5.94 0-3.33 2.58-5.94 5.91-5.94s5.91 2.61 5.91 5.94c0 3.33-2.58 5.94-5.91 5.94zm19.244-13.8c-2.67 0-4.8 1.29-6.06 3.3V288h-1.98v21h1.98v-8.94c1.26 2.01 3.39 3.3 6.06 3.3 4.23 0 7.74-3.42 7.74-7.86s-3.51-7.86-7.74-7.86zm-.15 13.8c-3.33 0-5.91-2.61-5.91-5.94 0-3.33 2.58-5.94 5.91-5.94s5.91 2.61 5.91 5.94c0 3.33-2.58 5.94-5.91 5.94zm12.172-16.62a1.44 1.44 0 100-2.88 1.44 1.44 0 000 2.88zm-.99 18.18h1.98v-15h-1.98v15zm13.201-15.36c-2.13 0-3.87.81-5.04 2.7V288h-1.98v15h1.98v-7.86c0-4.02 2.22-5.58 4.86-5.58 2.61 0 4.08 1.56 4.08 4.23V303h1.98v-9.21c0-3.75-2.22-6.15-5.88-6.15zm22.609.36v2.94c-1.26-2.01-3.39-3.3-6.06-3.3-4.23 0-7.74 3.42-7.74 7.86s3.51 7.86 7.74 7.86c2.67 0 4.8-1.29 6.06-3.3v2.34c0 3.06-2.07 5.04-5.55 5.04-3.24 0-4.62-1.2-5.37-2.73l-1.74.99c1.17 2.34 3.66 3.66 7.11 3.66 3.87 0 7.53-2.4 7.53-6.96V288h-1.98zm-5.91 13.44c-3.33 0-5.91-2.61-5.91-5.94 0-3.33 2.58-5.94 5.91-5.94s5.91 2.61 5.91 5.94c0 3.33-2.58 5.94-5.91 5.94zm-29.497-94.181a5.7 5.7 0 00-5.698 5.697c0 .75.615 1.366 1.366 1.366.751 0 1.366-.616 1.366-1.366a2.988 2.988 0 012.978-2.978c.75 0 1.366-.615 1.366-1.366a1.379 1.379 0 00-1.378-1.353z" fill="#404040"/>
    <path d="M203.927 203.333c-.332-.32-.689-.627-1.058-.923l-5.045-4.282a13.24 13.24 0 00-6.768-2.424l.27.271-3.064-3.076h-.024a4.8 4.8 0 00-3.236-1.256 4.782 4.782 0 00-4.566 3.323 4.384 4.384 0 00-2.104-.677c-.123-.012-.258-.012-.381-.012-.874 0-1.686.258-2.375.689a4.809 4.809 0 00-4.565-3.31 4.768 4.768 0 00-3.237 1.255h-.024l-3.064 3.076.27-.271a13.312 13.312 0 00-6.767 2.425l-5.045 4.282c-.37.283-.726.59-1.059.923a13.33 13.33 0 00-4.085 9.622c0 7.383 6.005 13.388 13.388 13.388 6.817 0 12.465-5.131 13.277-11.739a6.686 6.686 0 003.335.886c1.218 0 2.35-.32 3.335-.886.824 6.596 6.46 11.727 13.277 11.727 7.383 0 13.388-6.005 13.388-13.388a13.275 13.275 0 00-4.073-9.623zm-42.539 18.766a9.127 9.127 0 01-9.13-9.131 9.127 9.127 0 019.13-9.13 9.127 9.127 0 019.13 9.13c.013 5.033-4.085 9.131-9.13 9.131zm16.624-10.386a2.967 2.967 0 01-2.965-2.965 2.967 2.967 0 012.965-2.966 2.967 2.967 0 012.966 2.966 2.967 2.967 0 01-2.966 2.965zm16.625 10.386a9.128 9.128 0 01-9.131-9.131 9.127 9.127 0 019.131-9.13 9.127 9.127 0 019.13 9.13c0 5.033-4.085 9.131-9.13 9.131z" fill="#404040"/>
    <path d="M161.388 207.259a5.7 5.7 0 00-5.697 5.697c0 .75.615 1.366 1.366 1.366a1.37 1.37 0 001.365-1.366 2.989 2.989 0 012.978-2.978 1.37 1.37 0 001.366-1.366 1.377 1.377 0 00-1.378-1.353z" fill="#404040"/>
    <circle cx="485" cy="209" r="48" fill="#fff" stroke="#C4C4C4" stroke-width="4"/>
    <path d="M397.178 303.36c4.59 0 7.8-2.91 7.8-7.5V282h-2.1v13.86c0 3.33-2.07 5.46-5.7 5.46-3.63 0-5.7-2.13-5.7-5.46V282h-2.1v13.86c0 4.59 3.21 7.5 7.8 7.5zm13.419-11.43c0-1.62 1.59-2.37 3.15-2.37 1.44 0 2.97.57 3.6 2.1l1.65-.96c-.87-1.86-2.79-3.06-5.25-3.06-3 0-5.13 1.89-5.13 4.29 0 5.52 8.76 3.39 8.76 7.11 0 1.77-1.68 2.4-3.45 2.4-2.01 0-3.57-.99-4.11-2.52l-1.68.99c.75 1.92 2.79 3.45 5.79 3.45 3.21 0 5.43-1.77 5.43-4.32 0-5.52-8.76-3.39-8.76-7.11zm18.553-4.29c-4.65 0-7.83 3.45-7.83 7.86 0 4.53 3.24 7.86 7.98 7.86 3.03 0 5.34-1.41 6.6-3.45l-1.74-1.02c-.81 1.44-2.46 2.55-4.83 2.55-3.18 0-5.55-1.89-5.97-4.95h13.17c.03-.3.06-.63.06-.93 0-4.11-2.85-7.92-7.44-7.92zm0 1.92c2.58 0 4.98 1.71 5.4 5.01h-11.19c.39-2.94 2.64-5.01 5.79-5.01zm12.57.93V288h-1.98v15h1.98v-8.34c0-3.72 2.34-4.98 4.74-4.98v-1.92c-1.92 0-3.69.63-4.74 2.73zm31.813 11.82l-2.82-3c.81-1.32 1.29-2.88 1.53-4.47l-1.86-1.08c-.18 1.56-.57 2.88-1.14 3.99l-6.33-6.75c-1.08-1.14-1.95-2.22-1.95-3.75 0-2.19 1.83-3.57 3.93-3.57 1.95 0 3.66 1.17 4.26 3.15l1.77-1.02c-.96-2.61-3.42-4.17-6.06-4.17-3.03 0-6 2.1-6 5.73 0 1.74.66 2.94 1.56 3.96-2.73 1.26-4.05 3.54-4.05 6.09 0 3.69 2.82 5.94 6.9 5.94 2.73 0 4.74-.93 6.18-2.37l2.22 2.37 1.86-1.05zm-10.32-.99c-2.91 0-4.74-1.5-4.74-3.96 0-1.65.84-3.54 3.36-4.47l6.18 6.57c-1.2 1.23-2.79 1.86-4.8 1.86zm27.577 2.04c4.2 0 7.08-2.28 7.08-5.88 0-3.9-3.42-4.98-7.23-6.24-2.85-.93-4.65-1.65-4.65-3.93 0-2.31 1.83-3.63 4.35-3.63 2.76 0 4.38 1.59 5.16 3.48l1.77-.99c-1.08-2.49-3.48-4.53-6.93-4.53-3.48 0-6.45 2.07-6.45 5.76 0 3.87 3.3 4.77 6.72 5.91 3.09 1.02 5.16 1.8 5.16 4.23 0 2.25-1.77 3.78-4.95 3.78-3.3 0-5.28-1.62-6.03-4.14l-1.8 1.05c1.08 3.18 3.93 5.13 7.8 5.13zm17.608-15.72c-4.65 0-7.83 3.45-7.83 7.86 0 4.53 3.24 7.86 7.98 7.86 3.03 0 5.34-1.41 6.6-3.45l-1.74-1.02c-.81 1.44-2.46 2.55-4.83 2.55-3.18 0-5.55-1.89-5.97-4.95h13.17c.03-.3.06-.63.06-.93 0-4.11-2.85-7.92-7.44-7.92zm0 1.92c2.58 0 4.98 1.71 5.4 5.01h-11.19c.39-2.94 2.64-5.01 5.79-5.01zm12.57.93V288h-1.98v15h1.98v-8.34c0-3.72 2.34-4.98 4.74-4.98v-1.92c-1.92 0-3.69.63-4.74 2.73zm18.253-2.49l-5.25 12.93-5.25-12.93h-2.1l6.15 15h2.4l6.15-15h-2.1zm5.483-3.18a1.44 1.44 0 100-2.88 1.44 1.44 0 000 2.88zm-.99 18.18h1.98v-15h-1.98v15zm13.172.36c2.94 0 5.49-1.53 6.72-3.9l-1.65-.96c-.96 1.74-2.79 2.94-5.07 2.94-3.33 0-5.91-2.61-5.91-5.94 0-3.33 2.58-5.94 5.91-5.94 2.25 0 4.14 1.17 4.95 2.94l1.62-.93c-1.08-2.37-3.6-3.93-6.57-3.93-4.53 0-7.89 3.42-7.89 7.86s3.36 7.86 7.89 7.86zm16.346-15.72c-4.65 0-7.83 3.45-7.83 7.86 0 4.53 3.24 7.86 7.98 7.86 3.03 0 5.34-1.41 6.6-3.45l-1.74-1.02c-.81 1.44-2.46 2.55-4.83 2.55-3.18 0-5.55-1.89-5.97-4.95h13.17c.03-.3.06-.63.06-.93 0-4.11-2.85-7.92-7.44-7.92zm0 1.92c2.58 0 4.98 1.71 5.4 5.01h-11.19c.39-2.94 2.64-5.01 5.79-5.01zM436.768 338h2.4l-5.13-8.67a6.29 6.29 0 004.53-6.03 6.3 6.3 0 00-6.3-6.3h-8.4v21h2.1v-8.4h5.88l4.92 8.4zm-10.8-19.02h6.3c2.31 0 4.2 1.92 4.2 4.32 0 2.37-1.89 4.32-4.2 4.32h-6.3v-8.64zm22.079 3.66c-4.65 0-7.83 3.45-7.83 7.86 0 4.53 3.24 7.86 7.98 7.86 3.03 0 5.34-1.41 6.6-3.45l-1.74-1.02c-.81 1.44-2.46 2.55-4.83 2.55-3.18 0-5.55-1.89-5.97-4.95h13.17c.03-.3.06-.63.06-.93 0-4.11-2.85-7.92-7.44-7.92zm0 1.92c2.58 0 4.98 1.71 5.4 5.01h-11.19c.39-2.94 2.64-5.01 5.79-5.01zm11.563 2.37c0-1.62 1.59-2.37 3.15-2.37 1.44 0 2.97.57 3.6 2.1l1.65-.96c-.87-1.86-2.79-3.06-5.25-3.06-3 0-5.13 1.89-5.13 4.29 0 5.52 8.76 3.39 8.76 7.11 0 1.77-1.68 2.4-3.45 2.4-2.01 0-3.57-.99-4.11-2.52l-1.68.99c.75 1.92 2.79 3.45 5.79 3.45 3.21 0 5.43-1.77 5.43-4.32 0-5.52-8.76-3.39-8.76-7.11zm18.554-4.29c-4.65 0-7.83 3.45-7.83 7.86 0 4.53 3.24 7.86 7.98 7.86 3.03 0 5.34-1.41 6.6-3.45l-1.74-1.02c-.81 1.44-2.46 2.55-4.83 2.55-3.18 0-5.55-1.89-5.97-4.95h13.17c.03-.3.06-.63.06-.93 0-4.11-2.85-7.92-7.44-7.92zm0 1.92c2.58 0 4.98 1.71 5.4 5.01h-11.19c.39-2.94 2.64-5.01 5.79-5.01zm23.489-1.56v2.94c-1.26-2.01-3.39-3.3-6.06-3.3-4.23 0-7.74 3.42-7.74 7.86s3.51 7.86 7.74 7.86c2.67 0 4.8-1.29 6.06-3.3V338h1.98v-15h-1.98zm-5.91 13.44c-3.33 0-5.91-2.61-5.91-5.94 0-3.33 2.58-5.94 5.91-5.94s5.91 2.61 5.91 5.94c0 3.33-2.58 5.94-5.91 5.94zm14.063-10.95V323h-1.98v15h1.98v-8.34c0-3.72 2.34-4.98 4.74-4.98v-1.92c-1.92 0-3.69.63-4.74 2.73zm13.535 12.87c2.94 0 5.49-1.53 6.72-3.9l-1.65-.96c-.96 1.74-2.79 2.94-5.07 2.94-3.33 0-5.91-2.61-5.91-5.94 0-3.33 2.58-5.94 5.91-5.94 2.25 0 4.14 1.17 4.95 2.94l1.62-.93c-1.08-2.37-3.6-3.93-6.57-3.93-4.53 0-7.89 3.42-7.89 7.86s3.36 7.86 7.89 7.86zm16.583-15.72c-2.13 0-3.87.81-5.04 2.7V317h-1.98v21h1.98v-7.86c0-4.02 2.22-5.58 4.86-5.58 2.61 0 4.08 1.56 4.08 4.23V338h1.98v-9.21c0-3.75-2.22-6.15-5.88-6.15zm-31.584-95.38l-2.86-2.86a7.933 7.933 0 001.32-4.4c0-4.84-3.96-8.8-8.8-8.8-4.84 0-8.8 3.96-8.8 8.8 0 4.84 3.96 8.8 8.8 8.8 1.54 0 3.08-.44 4.4-1.32l2.86 2.86c.44.44 1.76 1.32 3.08 0 .88-.88.88-2.2 0-3.08zM498 224.4c-2.42 0-4.4-1.98-4.4-4.4 0-2.42 1.98-4.4 4.4-4.4 2.42 0 4.4 1.98 4.4 4.4 0 2.42-1.98 4.4-4.4 4.4z" fill="#404040"/>
    <path d="M498 187h-30.8c-1.32 0-2.2.88-2.2 2.2v39.6c0 1.32.88 2.2 2.2 2.2h23.54c-3.52-2.42-5.94-6.38-5.94-11 0-7.26 5.94-13.2 13.2-13.2.66 0 1.54 0 2.2.22V189.2c0-1.32-.88-2.2-2.2-2.2zm-15.4 17.6h-11c-1.32 0-2.2-1.1-2.2-2.2 0-1.32.88-2.2 2.2-2.2h11c1.32 0 2.2.88 2.2 2.2 0 1.1-.88 2.2-2.2 2.2zm11-8.8h-22c-1.32 0-2.2-1.1-2.2-2.2 0-1.32.88-2.2 2.2-2.2h22c1.32 0 2.2.88 2.2 2.2 0 1.1-.88 2.2-2.2 2.2z" fill="#404040"/>
    <circle cx="792" cy="209" r="48" fill="#fff" stroke="#C4C4C4" stroke-width="4"/>
    <path d="M715.487 282v21h2.1v-21h-2.1zm13.634 5.64c-2.13 0-3.87.81-5.04 2.7V288h-1.98v15h1.98v-7.86c0-4.02 2.22-5.58 4.86-5.58 2.61 0 4.08 1.56 4.08 4.23V303h1.98v-9.21c0-3.75-2.22-6.15-5.88-6.15zm17.208-4.08v-1.92c-4.05-.3-6.3 1.86-6.3 5.76v.6h-2.55v1.92h2.55V303h1.98v-13.08h4.32V288h-4.32v-.6c0-2.88 1.41-4.08 4.32-3.84zm8.192 19.8c4.38 0 7.89-3.42 7.89-7.86s-3.51-7.86-7.89-7.86-7.89 3.42-7.89 7.86 3.51 7.86 7.89 7.86zm0-1.92c-3.33 0-5.91-2.61-5.91-5.94 0-3.33 2.58-5.94 5.91-5.94s5.91 2.61 5.91 5.94c0 3.33-2.58 5.94-5.91 5.94zm13.183-10.95V288h-1.98v15h1.98v-8.34c0-3.72 2.34-4.98 4.74-4.98v-1.92c-1.92 0-3.69.63-4.74 2.73zm23.444-2.85c-1.92 0-3.75.87-4.86 2.73-.84-1.74-2.46-2.73-4.56-2.73-1.8 0-3.42.72-4.59 2.55V288h-1.98v15h1.98v-8.31c0-3.72 2.16-5.13 4.32-5.13 2.13 0 3.51 1.41 3.51 4.08V303h1.98v-8.31c0-3.72 1.86-5.13 4.17-5.13 2.13 0 3.66 1.41 3.66 4.08V303h1.98v-9.36c0-3.75-2.31-6-5.61-6zm22.339.36v2.94c-1.26-2.01-3.39-3.3-6.06-3.3-4.23 0-7.74 3.42-7.74 7.86s3.51 7.86 7.74 7.86c2.67 0 4.8-1.29 6.06-3.3V303h1.98v-15h-1.98zm-5.91 13.44c-3.33 0-5.91-2.61-5.91-5.94 0-3.33 2.58-5.94 5.91-5.94s5.91 2.61 5.91 5.94c0 3.33-2.58 5.94-5.91 5.94zm20.033-11.52V288h-4.32v-4.2l-1.98.6v3.6h-3.15v1.92h3.15v9.09c0 3.6 2.25 4.59 6.3 3.99v-1.74c-2.91.12-4.32.33-4.32-2.25v-9.09h4.32zm4.29-5.1a1.44 1.44 0 100-2.88 1.44 1.44 0 000 2.88zm-.99 18.18h1.98v-15h-1.98v15zm13.171.36c4.38 0 7.89-3.42 7.89-7.86s-3.51-7.86-7.89-7.86-7.89 3.42-7.89 7.86 3.51 7.86 7.89 7.86zm0-1.92c-3.33 0-5.91-2.61-5.91-5.94 0-3.33 2.58-5.94 5.91-5.94s5.91 2.61 5.91 5.94c0 3.33-2.58 5.94-5.91 5.94zm18.224-13.8c-2.13 0-3.87.81-5.04 2.7V288h-1.98v15h1.98v-7.86c0-4.02 2.22-5.58 4.86-5.58 2.61 0 4.08 1.56 4.08 4.23V303h1.98v-9.21c0-3.75-2.22-6.15-5.88-6.15zM725.219 338h2.22l-8.07-21h-2.16l-8.07 21h2.22l1.95-5.16h9.96l1.95 5.16zm-11.16-7.14l4.23-11.25 4.23 11.25h-8.46zm17.756-5.37V323h-1.98v15h1.98v-8.34c0-3.72 2.34-4.98 4.74-4.98v-1.92c-1.92 0-3.69.63-4.74 2.73zm13.536 12.87c2.94 0 5.49-1.53 6.72-3.9l-1.65-.96c-.96 1.74-2.79 2.94-5.07 2.94-3.33 0-5.91-2.61-5.91-5.94 0-3.33 2.58-5.94 5.91-5.94 2.25 0 4.14 1.17 4.95 2.94l1.62-.93c-1.08-2.37-3.6-3.93-6.57-3.93-4.53 0-7.89 3.42-7.89 7.86s3.36 7.86 7.89 7.86zm16.582-15.72c-2.13 0-3.87.81-5.04 2.7V317h-1.98v21h1.98v-7.86c0-4.02 2.22-5.58 4.86-5.58 2.61 0 4.08 1.56 4.08 4.23V338h1.98v-9.21c0-3.75-2.22-6.15-5.88-6.15zm10.699-2.82a1.44 1.44 0 100-2.88 1.44 1.44 0 000 2.88zm-.99 18.18h1.98v-15h-1.98v15zm14.132-13.08V323h-4.32v-4.2l-1.98.6v3.6h-3.15v1.92h3.15v9.09c0 3.6 2.25 4.59 6.3 3.99v-1.74c-2.91.12-4.32.33-4.32-2.25v-9.09h4.32zm9.321-2.28c-4.65 0-7.83 3.45-7.83 7.86 0 4.53 3.24 7.86 7.98 7.86 3.03 0 5.34-1.41 6.6-3.45l-1.74-1.02c-.81 1.44-2.46 2.55-4.83 2.55-3.18 0-5.55-1.89-5.97-4.95h13.17c.03-.3.06-.63.06-.93 0-4.11-2.85-7.92-7.44-7.92zm0 1.92c2.58 0 4.98 1.71 5.4 5.01h-11.19c.39-2.94 2.64-5.01 5.79-5.01zm17.58 13.8c2.94 0 5.49-1.53 6.72-3.9l-1.65-.96c-.96 1.74-2.79 2.94-5.07 2.94-3.33 0-5.91-2.61-5.91-5.94 0-3.33 2.58-5.94 5.91-5.94 2.25 0 4.14 1.17 4.95 2.94l1.62-.93c-1.08-2.37-3.6-3.93-6.57-3.93-4.53 0-7.89 3.42-7.89 7.86s3.36 7.86 7.89 7.86zm17.513-13.44V323h-4.32v-4.2l-1.98.6v3.6h-3.15v1.92h3.15v9.09c0 3.6 2.25 4.59 6.3 3.99v-1.74c-2.91.12-4.32.33-4.32-2.25v-9.09h4.32zm13.86-1.92v7.86c0 4.02-2.22 5.58-4.86 5.58-2.61 0-4.08-1.56-4.08-4.23V323h-1.98v9.21c0 3.75 2.22 6.15 5.88 6.15 2.13 0 3.87-.81 5.04-2.7V338h1.98v-15h-1.98zm8.148 2.49V323h-1.98v15h1.98v-8.34c0-3.72 2.34-4.98 4.74-4.98v-1.92c-1.92 0-3.69.63-4.74 2.73zm13.476-2.85c-4.65 0-7.83 3.45-7.83 7.86 0 4.53 3.24 7.86 7.98 7.86 3.03 0 5.34-1.41 6.6-3.45l-1.74-1.02c-.81 1.44-2.46 2.55-4.83 2.55-3.18 0-5.55-1.89-5.97-4.95h13.17c.03-.3.06-.63.06-.93 0-4.11-2.85-7.92-7.44-7.92zm0 1.92c2.58 0 4.98 1.71 5.4 5.01h-11.19c.39-2.94 2.64-5.01 5.79-5.01zm-57.036-117.301a5.7 5.7 0 00-5.697 5.697c0 .75.615 1.366 1.366 1.366.751 0 1.366-.616 1.366-1.366a2.988 2.988 0 012.978-2.978c.75 0 1.366-.615 1.366-1.366a1.379 1.379 0 00-1.379-1.353z" fill="#404040"/>
    <path d="M817.927 203.333c-.332-.32-.689-.627-1.058-.923l-5.045-4.282a13.24 13.24 0 00-6.768-2.424l.27.271-3.064-3.076h-.024a4.8 4.8 0 00-3.236-1.256 4.782 4.782 0 00-4.566 3.323 4.384 4.384 0 00-2.104-.677c-.123-.012-.258-.012-.381-.012-.874 0-1.686.258-2.375.689a4.809 4.809 0 00-4.565-3.31 4.768 4.768 0 00-3.237 1.255h-.024l-3.064 3.076.27-.271a13.312 13.312 0 00-6.767 2.425l-5.045 4.282c-.37.283-.726.59-1.059.923a13.33 13.33 0 00-4.085 9.622c0 7.383 6.005 13.388 13.388 13.388 6.817 0 12.465-5.131 13.277-11.739a6.686 6.686 0 003.335.886c1.218 0 2.35-.32 3.335-.886.824 6.596 6.46 11.727 13.277 11.727 7.383 0 13.388-6.005 13.388-13.388a13.275 13.275 0 00-4.073-9.623zm-42.539 18.766a9.127 9.127 0 01-9.13-9.131 9.127 9.127 0 019.13-9.13 9.127 9.127 0 019.13 9.13c.013 5.033-4.085 9.131-9.13 9.131zm16.624-10.386a2.967 2.967 0 01-2.965-2.965 2.967 2.967 0 012.965-2.966 2.967 2.967 0 012.966 2.966 2.967 2.967 0 01-2.966 2.965zm16.625 10.386a9.128 9.128 0 01-9.131-9.131 9.127 9.127 0 019.131-9.13 9.127 9.127 0 019.13 9.13c0 5.033-4.085 9.131-9.13 9.131z" fill="#404040"/>
    <path d="M775.388 207.259a5.7 5.7 0 00-5.697 5.697c0 .75.615 1.366 1.366 1.366a1.37 1.37 0 001.365-1.366 2.989 2.989 0 012.978-2.978 1.37 1.37 0 001.366-1.366 1.377 1.377 0 00-1.378-1.353z" fill="#404040"/>
    <path fill="#fff" d="M762 179h60v60h-60z"/>
    <path stroke="#404040" stroke-width="7" d="M775.5 187.5h33v13h-33z"/>
    <path stroke="#404040" stroke-width="5" d="M794.5 203v31"/>
    <circle cx="776" cy="214" r="4.5" stroke="#404040" stroke-width="5"/>
    <path stroke="#404040" stroke-width="5" d="M793 214.5h-12"/>
    <circle r="4.5" transform="matrix(-1 0 0 1 809 222)" stroke="#404040" stroke-width="5"/>
    <path d="M795 222.5h9" stroke="#404040" stroke-width="5"/>
    <circle cx="779" cy="231" r="4.5" stroke="#404040" stroke-width="5"/>
    <path stroke="#404040" stroke-width="5" d="M796 231.5h-12"/>
    <circle cx="1099" cy="209" r="48" fill="#fff" stroke="#C4C4C4" stroke-width="4"/>
    <path d="M1028.42 282h-7.5v21h2.1v-7.8h5.4c3.78 0 6.6-2.85 6.6-6.6 0-3.78-2.82-6.6-6.6-6.6zm0 11.22h-5.4v-9.24h5.4c2.61 0 4.5 1.92 4.5 4.62 0 2.67-1.89 4.62-4.5 4.62zm11.58-2.73V288h-1.98v15h1.98v-8.34c0-3.72 2.34-4.98 4.74-4.98v-1.92c-1.92 0-3.69.63-4.74 2.73zm13.54 12.87c4.38 0 7.89-3.42 7.89-7.86s-3.51-7.86-7.89-7.86-7.89 3.42-7.89 7.86 3.51 7.86 7.89 7.86zm0-1.92c-3.33 0-5.91-2.61-5.91-5.94 0-3.33 2.58-5.94 5.91-5.94s5.91 2.61 5.91 5.94c0 3.33-2.58 5.94-5.91 5.94zm18.86-11.52V288h-4.32v-4.2l-1.98.6v3.6h-3.15v1.92h3.15v9.09c0 3.6 2.25 4.59 6.3 3.99v-1.74c-2.91.12-4.32.33-4.32-2.25v-9.09h4.32zm9.38 13.44c4.38 0 7.89-3.42 7.89-7.86s-3.51-7.86-7.89-7.86-7.89 3.42-7.89 7.86 3.51 7.86 7.89 7.86zm0-1.92c-3.33 0-5.91-2.61-5.91-5.94 0-3.33 2.58-5.94 5.91-5.94s5.91 2.61 5.91 5.94c0 3.33-2.58 5.94-5.91 5.94zm18.86-11.52V288h-4.32v-4.2l-1.98.6v3.6h-3.15v1.92h3.15v9.09c0 3.6 2.25 4.59 6.3 3.99v-1.74c-2.91.12-4.32.33-4.32-2.25v-9.09h4.32zm14.39-1.92l-4.86 12.57-5.64-12.57h-2.1l6.72 15.09-.39.93c-.81 1.95-2.16 3.33-4.11 3.12V309c2.7.21 4.92-1.74 6.06-4.62l6.42-16.38h-2.1zm12.54-.36c-2.67 0-4.8 1.29-6.06 3.3V288h-1.98v21h1.98v-8.94c1.26 2.01 3.39 3.3 6.06 3.3 4.23 0 7.74-3.42 7.74-7.86s-3.51-7.86-7.74-7.86zm-.15 13.8c-3.33 0-5.91-2.61-5.91-5.94 0-3.33 2.58-5.94 5.91-5.94s5.91 2.61 5.91 5.94c0 3.33-2.58 5.94-5.91 5.94zm12.17-16.62a1.44 1.44 0 100-2.88 1.44 1.44 0 000 2.88zm-.99 18.18h1.98v-15h-1.98v15zm13.2-15.36c-2.13 0-3.87.81-5.04 2.7V288h-1.98v15h1.98v-7.86c0-4.02 2.22-5.58 4.86-5.58 2.61 0 4.08 1.56 4.08 4.23V303h1.98v-9.21c0-3.75-2.22-6.15-5.88-6.15zm22.61.36v2.94c-1.26-2.01-3.39-3.3-6.06-3.3-4.23 0-7.74 3.42-7.74 7.86s3.51 7.86 7.74 7.86c2.67 0 4.8-1.29 6.06-3.3v2.34c0 3.06-2.07 5.04-5.55 5.04-3.24 0-4.62-1.2-5.37-2.73l-1.74.99c1.17 2.34 3.66 3.66 7.11 3.66 3.87 0 7.53-2.4 7.53-6.96V288h-1.98zm-5.91 13.44c-3.33 0-5.91-2.61-5.91-5.94 0-3.33 2.58-5.94 5.91-5.94s5.91 2.61 5.91 5.94c0 3.33-2.58 5.94-5.91 5.94zm-64.16-77.94c-.65 0-1.24-.402-1.46-1.015l-5.86-15.625a1.54 1.54 0 01.36-1.652 1.554 1.554 0 011.65-.358l15.62 5.858c.64.24 1.05.869 1.01 1.552a1.543 1.543 0 01-1.18 1.427l-6.9 1.728-1.72 6.902a1.576 1.576 0 01-1.43 1.181c-.03.002-.06.002-.09.002z" fill="#404040"/>
    <path d="M1117.75 186h-37.5a6.255 6.255 0 00-6.25 6.25v33.333c0 3.446 2.8 6.25 6.25 6.25h37.5c3.45 0 6.25-2.804 6.25-6.25V192.25c0-3.446-2.8-6.25-6.25-6.25zm0 41.667h-37.5c-1.15 0-2.08-.934-2.08-2.084v-29.166h41.66v29.166c0 1.15-.93 2.084-2.08 2.084z" fill="#404040"/>
    <path d="M1095.2 213.877c-.22.167-.43.358-.61.583l-1.42 1.784c-.2.25-.49.277-.61.277a.787.787 0 01-.56-.231c-1.52-1.521-4.01-1.521-5.52 0l-1.02 1.02v-13.081a.52.52 0 01.52-.521h7.41c.26-.525.61-1.016 1.04-1.446a5.702 5.702 0 014.02-1.664v-.015h-12.47a3.654 3.654 0 00-3.65 3.646v17.708a3.653 3.653 0 003.65 3.646h13.54c.13 0 .26-.025.38-.037a5.795 5.795 0 01-.92-1.594l-3.78-10.075z" fill="#404040"/>
    <circle cx="1406" cy="209" r="48" fill="#fff" stroke="#C4C4C4" stroke-width="4"/>
    <path d="M1357.22 303.36c4.59 0 7.8-2.91 7.8-7.5V282h-2.1v13.86c0 3.33-2.07 5.46-5.7 5.46-3.63 0-5.7-2.13-5.7-5.46V282h-2.1v13.86c0 4.59 3.21 7.5 7.8 7.5zm13.41-11.43c0-1.62 1.59-2.37 3.15-2.37 1.44 0 2.97.57 3.6 2.1l1.65-.96c-.87-1.86-2.79-3.06-5.25-3.06-3 0-5.13 1.89-5.13 4.29 0 5.52 8.76 3.39 8.76 7.11 0 1.77-1.68 2.4-3.45 2.4-2.01 0-3.57-.99-4.11-2.52l-1.68.99c.75 1.92 2.79 3.45 5.79 3.45 3.21 0 5.43-1.77 5.43-4.32 0-5.52-8.76-3.39-8.76-7.11zm24.53-3.93v2.94c-1.26-2.01-3.39-3.3-6.06-3.3-4.23 0-7.74 3.42-7.74 7.86s3.51 7.86 7.74 7.86c2.67 0 4.8-1.29 6.06-3.3V303h1.98v-15h-1.98zm-5.91 13.44c-3.33 0-5.91-2.61-5.91-5.94 0-3.33 2.58-5.94 5.91-5.94s5.91 2.61 5.91 5.94c0 3.33-2.58 5.94-5.91 5.94zm20.12-13.8c-2.67 0-4.8 1.29-6.06 3.3V282h-1.98v21h1.98v-2.94c1.26 2.01 3.39 3.3 6.06 3.3 4.23 0 7.74-3.42 7.74-7.86s-3.51-7.86-7.74-7.86zm-.15 13.8c-3.33 0-5.91-2.61-5.91-5.94 0-3.33 2.58-5.94 5.91-5.94s5.91 2.61 5.91 5.94c0 3.33-2.58 5.94-5.91 5.94zm12.17-16.62a1.44 1.44 0 100-2.88 1.44 1.44 0 000 2.88zm-.99 18.18h1.98v-15h-1.98v15zm6.18 0h1.98v-21.9h-1.98V303zm7.18-18.18a1.44 1.44 0 100-2.88 1.44 1.44 0 000 2.88zm-.99 18.18h1.98v-15h-1.98v15zm14.13-13.08V288h-4.32v-4.2l-1.98.6v3.6h-3.15v1.92h3.15v9.09c0 3.6 2.25 4.59 6.3 3.99v-1.74c-2.91.12-4.32.33-4.32-2.25v-9.09h4.32zm14.39-1.92l-4.86 12.57-5.64-12.57h-2.1l6.72 15.09-.39.93c-.81 1.95-2.16 3.33-4.11 3.12V309c2.7.21 4.92-1.74 6.06-4.62l6.42-16.38h-2.1zm-88.54 29h-15v1.98h6.45V338h2.1v-19.02h6.45V317zm6.93 5.64c-4.65 0-7.83 3.45-7.83 7.86 0 4.53 3.24 7.86 7.98 7.86 3.03 0 5.34-1.41 6.6-3.45l-1.74-1.02c-.81 1.44-2.46 2.55-4.83 2.55-3.18 0-5.55-1.89-5.97-4.95h13.17c.03-.3.06-.63.06-.93 0-4.11-2.85-7.92-7.44-7.92zm0 1.92c2.58 0 4.98 1.71 5.4 5.01h-11.19c.39-2.94 2.64-5.01 5.79-5.01zm11.56 2.37c0-1.62 1.59-2.37 3.15-2.37 1.44 0 2.97.57 3.6 2.1l1.65-.96c-.87-1.86-2.79-3.06-5.25-3.06-3 0-5.13 1.89-5.13 4.29 0 5.52 8.76 3.39 8.76 7.11 0 1.77-1.68 2.4-3.45 2.4-2.01 0-3.57-.99-4.11-2.52l-1.68.99c.75 1.92 2.79 3.45 5.79 3.45 3.21 0 5.43-1.77 5.43-4.32 0-5.52-8.76-3.39-8.76-7.11zm19.43-2.01V323h-4.32v-4.2l-1.98.6v3.6h-3.15v1.92h3.15v9.09c0 3.6 2.25 4.59 6.3 3.99v-1.74c-2.91.12-4.32.33-4.32-2.25v-9.09h4.32zm4.29-5.1a1.44 1.44 0 100-2.88 1.44 1.44 0 000 2.88zm-.99 18.18h1.98v-15h-1.98v15zm13.2-15.36c-2.13 0-3.87.81-5.04 2.7V323h-1.98v15h1.98v-7.86c0-4.02 2.22-5.58 4.86-5.58 2.61 0 4.08 1.56 4.08 4.23V338h1.98v-9.21c0-3.75-2.22-6.15-5.88-6.15zm22.61.36v2.94c-1.26-2.01-3.39-3.3-6.06-3.3-4.23 0-7.74 3.42-7.74 7.86s3.51 7.86 7.74 7.86c2.67 0 4.8-1.29 6.06-3.3v2.34c0 3.06-2.07 5.04-5.55 5.04-3.24 0-4.62-1.2-5.37-2.73l-1.74.99c1.17 2.34 3.66 3.66 7.11 3.66 3.87 0 7.53-2.4 7.53-6.96V323h-1.98zm-5.91 13.44c-3.33 0-5.91-2.61-5.91-5.94 0-3.33 2.58-5.94 5.91-5.94s5.91 2.61 5.91 5.94c0 3.33-2.58 5.94-5.91 5.94zM1382 224.063c.01 1.064 1.02 1.926 2.28 1.937h43.44c1.26-.011 2.27-.873 2.28-1.937V221h-48v3.063zM1427.72 191h-43.44c-1.26.021-2.27 1.102-2.28 2.433V219h48v-25.567c-.01-1.331-1.02-2.412-2.28-2.433z" fill="#404040"/>
    <path d="M1422.74 203.158c-.7 0-1.27.566-1.27 1.263v1.474c0 .116-.09.21-.21.21a.214.214 0 01-.21-.21v-2.316a1.26 1.26 0 10-2.52 0v2.316c0 .116-.1.21-.21.21a.207.207 0 01-.21-.21v-3.158c0-.697-.57-1.263-1.27-1.263-.7 0-1.26.566-1.26 1.263v3.158c0 .116-.1.21-.21.21a.207.207 0 01-.21-.21v-8.632a1.266 1.266 0 00-2.53 0v9.847l-2.71-1.662a1.239 1.239 0 00-.66-.185c-.7 0-1.26.564-1.26 1.263 0 .244.07.48.19.674v-.003l3.88 6.525a3.377 3.377 0 002.9 1.646h5.66A3.37 3.37 0 001424 212v-7.579c0-.697-.57-1.263-1.26-1.263zM1387 196h18v4h-18zm0 7h14v4h-14zm0 7h15v4h-15z" fill="#fff"/>
    <circle cx="1713" cy="209" r="48" fill="#fff" stroke="#C4C4C4" stroke-width="4"/>
    <path d="M1652.42 282h-8.1v21h8.1c5.79 0 9.9-4.71 9.9-10.5s-4.11-10.5-9.9-10.5zm0 19.02h-6v-17.04h6c4.68 0 7.86 3.81 7.86 8.52 0 4.71-3.18 8.52-7.86 8.52zm20.13-13.38c-4.65 0-7.83 3.45-7.83 7.86 0 4.53 3.24 7.86 7.98 7.86 3.03 0 5.34-1.41 6.6-3.45l-1.74-1.02c-.81 1.44-2.46 2.55-4.83 2.55-3.18 0-5.55-1.89-5.97-4.95h13.17c.03-.3.06-.63.06-.93 0-4.11-2.85-7.92-7.44-7.92zm0 1.92c2.58 0 4.98 1.71 5.4 5.01h-11.19c.39-2.94 2.64-5.01 5.79-5.01zm20.8-1.56l-5.25 12.93-5.25-12.93h-2.1l6.15 15h2.4l6.15-15h-2.1zm10.84-.36c-4.65 0-7.83 3.45-7.83 7.86 0 4.53 3.24 7.86 7.98 7.86 3.03 0 5.34-1.41 6.6-3.45l-1.74-1.02c-.81 1.44-2.46 2.55-4.83 2.55-3.18 0-5.55-1.89-5.97-4.95h13.17c.03-.3.06-.63.06-.93 0-4.11-2.85-7.92-7.44-7.92zm0 1.92c2.58 0 4.98 1.71 5.4 5.01h-11.19c.39-2.94 2.64-5.01 5.79-5.01zm10.59 13.44h1.98v-21.9h-1.98V303zm13.17.36c4.38 0 7.89-3.42 7.89-7.86s-3.51-7.86-7.89-7.86-7.89 3.42-7.89 7.86 3.51 7.86 7.89 7.86zm0-1.92c-3.33 0-5.91-2.61-5.91-5.94 0-3.33 2.58-5.94 5.91-5.94s5.91 2.61 5.91 5.94c0 3.33-2.58 5.94-5.91 5.94zm19.24-13.8c-2.67 0-4.8 1.29-6.06 3.3V288h-1.98v21h1.98v-8.94c1.26 2.01 3.39 3.3 6.06 3.3 4.23 0 7.74-3.42 7.74-7.86s-3.51-7.86-7.74-7.86zm-.15 13.8c-3.33 0-5.91-2.61-5.91-5.94 0-3.33 2.58-5.94 5.91-5.94s5.91 2.61 5.91 5.94c0 3.33-2.58 5.94-5.91 5.94zm18.11-13.8c-4.65 0-7.83 3.45-7.83 7.86 0 4.53 3.24 7.86 7.98 7.86 3.03 0 5.34-1.41 6.6-3.45l-1.74-1.02c-.81 1.44-2.46 2.55-4.83 2.55-3.18 0-5.55-1.89-5.97-4.95h13.17c.03-.3.06-.63.06-.93 0-4.11-2.85-7.92-7.44-7.92zm0 1.92c2.58 0 4.98 1.71 5.4 5.01h-11.19c.39-2.94 2.64-5.01 5.79-5.01zm12.57.93V288h-1.98v15h1.98v-8.34c0-3.72 2.34-4.98 4.74-4.98v-1.92c-1.92 0-3.69.63-4.74 2.73zM1673.12 317v9.21h-11.4V317h-2.1v21h2.1v-9.81h11.4V338h2.1v-21h-2.1zm19.49 6v2.94c-1.26-2.01-3.39-3.3-6.06-3.3-4.23 0-7.74 3.42-7.74 7.86s3.51 7.86 7.74 7.86c2.67 0 4.8-1.29 6.06-3.3V338h1.98v-15h-1.98zm-5.91 13.44c-3.33 0-5.91-2.61-5.91-5.94 0-3.33 2.58-5.94 5.91-5.94s5.91 2.61 5.91 5.94c0 3.33-2.58 5.94-5.91 5.94zm19.1-13.8c-2.13 0-3.87.81-5.04 2.7V323h-1.98v15h1.98v-7.86c0-4.02 2.22-5.58 4.86-5.58 2.61 0 4.08 1.56 4.08 4.23V338h1.98v-9.21c0-3.75-2.22-6.15-5.88-6.15zm22.61-5.64v8.94c-1.26-2.01-3.39-3.3-6.06-3.3-4.23 0-7.74 3.42-7.74 7.86s3.51 7.86 7.74 7.86c2.67 0 4.8-1.29 6.06-3.3V338h1.98v-21h-1.98zm-5.91 19.44c-3.33 0-5.91-2.61-5.91-5.94 0-3.33 2.58-5.94 5.91-5.94s5.91 2.61 5.91 5.94c0 3.33-2.58 5.94-5.91 5.94zm19.07 1.92c4.38 0 7.89-3.42 7.89-7.86s-3.51-7.86-7.89-7.86-7.89 3.42-7.89 7.86 3.51 7.86 7.89 7.86zm0-1.92c-3.33 0-5.91-2.61-5.91-5.94 0-3.33 2.58-5.94 5.91-5.94s5.91 2.61 5.91 5.94c0 3.33-2.58 5.94-5.91 5.94zm26.22-18.18v-1.92c-4.05-.3-6.3 1.86-6.3 5.76v.9h-6.12v-.6c0-2.88 1.41-4.08 4.32-3.84v-1.92c-4.05-.3-6.3 1.86-6.3 5.76v.6h-2.55v1.92h2.55V338h1.98v-13.08h6.12V338h1.98v-13.08h4.32V323h-4.32v-.9c0-2.88 1.41-4.08 4.32-3.84zM1730.21 191h-34.42c-3.74 0-6.79 3.048-6.79 6.794v21.531c0 3.746 3.05 6.794 6.79 6.794h34.42c3.74 0 6.79-3.048 6.79-6.794v-21.531c0-3.746-3.05-6.794-6.79-6.794zm-23.79 10.808l-7.15 7.147 6.36 6.355c.55.55.55 1.44 0 1.989-.55.549-1.44.549-1.99 0l-7.35-7.35a1.405 1.405 0 010-1.989l8.14-8.14a1.408 1.408 0 011.99 0c.55.548.55 1.439 0 1.988zm11.6-3.308l-7.44 21.055a1.402 1.402 0 01-1.79.858 1.408 1.408 0 01-.86-1.794l7.44-21.056a1.403 1.403 0 011.79-.857c.73.258 1.12 1.062.86 1.794zm11.69 10.658l-8.14 8.141c-.55.549-1.44.549-1.99 0a1.405 1.405 0 010-1.989l7.15-7.146-6.36-6.356a1.404 1.404 0 010-1.988 1.408 1.408 0 011.99 0l7.35 7.35c.55.549.55 1.439 0 1.988zm-1322.592-1.04a1.58 1.58 0 000-2.236l-10.062-10.062a1.58 1.58 0 10-2.236 2.236l8.944 8.944-8.944 8.944a1.58 1.58 0 102.236 2.236l10.062-10.062zM256 208.581h150v-3.162H256v3.162zm458.118-.463a1.58 1.58 0 000-2.236l-10.062-10.062a1.58 1.58 0 10-2.236 2.236l8.944 8.944-8.944 8.944a1.58 1.58 0 102.236 2.236l10.062-10.062zM563 208.581h150v-3.162H563v3.162zm458.12-.463c.62-.617.62-1.619 0-2.236l-10.06-10.062a1.585 1.585 0 00-2.24 0 1.577 1.577 0 000 2.236l8.94 8.944-8.94 8.944a1.577 1.577 0 000 2.236c.62.618 1.62.618 2.24 0l10.06-10.062zm-151.12.463h150v-3.162H870v3.162zm458.12-.463c.62-.617.62-1.619 0-2.236l-10.06-10.062a1.585 1.585 0 00-2.24 0 1.577 1.577 0 000 2.236l8.94 8.944-8.94 8.944a1.577 1.577 0 000 2.236c.62.618 1.62.618 2.24 0l10.06-10.062zm-151.12.463h150v-3.162h-150v3.162zm-79.12-78.463c.62.618 1.62.618 2.24 0l10.06-10.062c.62-.618.62-1.619 0-2.236a1.585 1.585 0 00-2.24 0l-8.94 8.944-8.94-8.944a1.585 1.585 0 00-2.24 0 1.577 1.577 0 000 2.236l10.06 10.062zm-.46-62.618V129h3.16V67.5h-3.16zm310.16 63.5V67.5h-3.16V131h3.16zM1356 15.919h-207v3.162h207V15.92zm51.58 51.581c0-28.487-23.09-51.581-51.58-51.581v3.162c26.74 0 48.42 21.678 48.42 48.419h3.16zm-307 0c0-26.741 21.68-48.419 48.42-48.419V15.92c-28.49 0-51.58 23.094-51.58 51.581h3.16zm534.54 140.618c.62-.617.62-1.619 0-2.236l-10.06-10.062a1.585 1.585 0 00-2.24 0 1.577 1.577 0 000 2.236l8.94 8.944-8.94 8.944a1.577 1.577 0 000 2.236c.62.618 1.62.618 2.24 0l10.06-10.062zm-151.12.463h150v-3.162h-150v3.162z" fill="#404040"/>
  </g>
  <defs>
    <clipPath id="soulfx-outline__clip0">
      <path fill="#fff" d="M0 0h1890v359H0z"/>
    </clipPath>
  </defs>
</svg>
