<svg width="720" height="500" viewBox="0 0 720 500" fill="none" xmlns="http://www.w3.org/2000/svg">
<rect width="720" height="500" fill="url(#paint0_linear_1607_2)"/>
<g clip-path="url(#clip0_1607_2)">
<g filter="url(#filter0_d_1607_2)">
<path d="M948 63H-182V441H948V63Z" fill="white"/>
</g>
<path d="M948 125H-182V187H948V125Z" fill="white"/>
<path d="M948 187H-182V249H948V187Z" fill="#F5F5F5"/>
<path d="M948 249H-182V311H948V249Z" fill="white"/>
<path d="M948 311H-182V373H948V311Z" fill="#F5F5F5"/>
<path d="M164.5 63.5V441" stroke="#E1E1E1" stroke-width="2"/>
<path d="M283.5 63.5V441.5" stroke="#E1E1E1" stroke-width="2"/>
<path d="M434.5 63.5V441.5" stroke="#E1E1E1" stroke-width="2"/>
<path d="M568 63V441" stroke="#E1E1E1" stroke-width="2"/>
<path d="M948 63H-182V125H948V63Z" fill="#D9D9D9"/>
<path d="M194.52 92.031C194.551 92.5477 194.462 93.0646 194.258 93.5406C194.055 94.0165 193.743 94.4385 193.348 94.773C192.379 95.466 191.201 95.8027 190.012 95.726H188.825V100H186.958V88.578H190.247C191.385 88.4934 192.517 88.8024 193.454 89.453C193.818 89.7716 194.104 90.17 194.289 90.6172C194.474 91.0644 194.553 91.5482 194.52 92.031V92.031ZM188.82 94.156H189.812C190.55 94.213 191.287 94.0382 191.921 93.656C192.153 93.4708 192.336 93.2316 192.455 92.9594C192.573 92.6871 192.623 92.39 192.6 92.094C192.621 91.8194 192.578 91.5436 192.474 91.2887C192.369 91.0337 192.207 90.8065 192 90.625C191.447 90.2588 190.787 90.0884 190.125 90.141H188.825L188.82 94.156ZM198.664 93.89H199.964C200.631 93.9471 201.297 93.7765 201.855 93.406C202.056 93.2274 202.214 93.0049 202.315 92.7557C202.417 92.5066 202.46 92.2374 202.441 91.969C202.465 91.7022 202.419 91.4337 202.308 91.1899C202.197 90.9461 202.025 90.7352 201.808 90.578C201.226 90.2575 200.563 90.111 199.9 90.156H198.666L198.664 93.89ZM198.664 95.437V100H196.8V88.578H200.027C201.179 88.4899 202.328 88.7806 203.3 89.406C203.663 89.7083 203.949 90.0928 204.134 90.5275C204.319 90.9623 204.397 91.4348 204.363 91.906C204.373 92.5849 204.163 93.2486 203.762 93.797C203.362 94.3453 202.794 94.7483 202.144 94.945L205.371 100H203.246L200.512 95.438L198.664 95.437ZM217.164 94.273C217.262 95.8419 216.766 97.3901 215.773 98.609C215.267 99.1381 214.651 99.5506 213.969 99.8178C213.287 100.085 212.555 100.2 211.824 100.156C211.09 100.203 210.355 100.09 209.669 99.8251C208.983 99.5601 208.363 99.1493 207.851 98.621C206.857 97.3927 206.362 95.835 206.464 94.258C206.359 92.6852 206.858 91.1315 207.859 89.914C208.376 89.3917 208.998 88.9863 209.685 88.7251C210.372 88.4639 211.107 88.3531 211.84 88.4C212.569 88.3556 213.298 88.4703 213.978 88.7361C214.658 89.0018 215.272 89.4123 215.778 89.939C216.77 91.1572 217.267 92.7049 217.168 94.273H217.164ZM208.445 94.273C208.367 95.4046 208.667 96.5301 209.297 97.473C209.601 97.8422 209.988 98.1336 210.427 98.3231C210.865 98.5127 211.343 98.5949 211.82 98.563C212.294 98.5952 212.769 98.5142 213.206 98.3268C213.643 98.1393 214.029 97.8508 214.332 97.485C214.963 96.5383 215.261 95.4088 215.18 94.274C215.257 93.1483 214.962 92.0284 214.34 91.087C214.04 90.7193 213.657 90.4288 213.222 90.2396C212.787 90.0505 212.313 89.9684 211.84 90C211.361 89.9669 210.881 90.048 210.439 90.2368C209.997 90.4257 209.607 90.7167 209.3 91.086C208.669 92.0239 208.37 93.1456 208.449 94.273H208.445ZM226.125 88.573H228.066L224.066 100H222.1L218.113 88.578H220.035L222.418 95.678C222.543 96.0167 222.677 96.453 222.818 96.987C222.959 97.521 223.05 97.9187 223.09 98.18C223.157 97.784 223.261 97.3257 223.403 96.805C223.545 96.2844 223.66 95.899 223.747 95.649L226.125 88.573ZM229.574 100V88.578H231.441V100H229.574ZM243.974 100H241.684L236.066 90.9H236L236.039 91.408C236.112 92.3767 236.148 93.262 236.148 94.064V100H234.448V88.578H236.714L242.314 97.633H242.361C242.35 97.513 242.33 97.0767 242.299 96.324C242.268 95.5714 242.253 94.984 242.252 94.562V88.578H243.963L243.974 100ZM251.849 90.016C251.367 89.9947 250.887 90.0868 250.448 90.285C250.008 90.4832 249.621 90.7819 249.318 91.157C248.657 92.0669 248.331 93.1773 248.395 94.3C248.315 95.4307 248.628 96.5543 249.282 97.48C249.598 97.8453 249.994 98.1327 250.439 98.3197C250.884 98.5067 251.366 98.5883 251.848 98.558C252.32 98.5591 252.792 98.5105 253.254 98.413C253.707 98.3164 254.179 98.1927 254.668 98.042V99.642C253.691 99.9945 252.659 100.167 251.621 100.15C250.907 100.195 250.191 100.083 249.525 99.8198C248.86 99.5571 248.26 99.1509 247.769 98.63C246.8 97.3962 246.321 95.8476 246.425 94.282C246.401 93.2068 246.624 92.1404 247.077 91.165C247.483 90.3062 248.141 89.5919 248.964 89.118C249.85 88.6279 250.851 88.3825 251.864 88.407C252.984 88.3965 254.092 88.6478 255.098 89.141L254.426 90.7C254.029 90.5135 253.621 90.3531 253.203 90.22C252.765 90.0818 252.308 90.0129 251.848 90.016H251.849ZM263.59 100H257.129V88.578H263.59V90.156H259V93.265H263.3V94.828H259V98.414H263.59V100Z" fill="#757575"/>
<path d="M338.016 96.9C338.036 97.3574 337.947 97.8129 337.756 98.2288C337.564 98.6447 337.277 99.0089 336.916 99.291C336.03 99.9152 334.959 100.221 333.877 100.158C332.788 100.199 331.704 99.9939 330.705 99.558V97.789C331.237 98.0378 331.793 98.2314 332.365 98.367C332.9 98.5012 333.449 98.572 334 98.578C334.578 98.6237 335.154 98.4751 335.637 98.156C335.808 98.0222 335.945 97.8497 336.037 97.6528C336.128 97.4559 336.172 97.2401 336.164 97.023C336.167 96.8178 336.125 96.6144 336.041 96.4269C335.958 96.2395 335.834 96.0723 335.68 95.937C335.072 95.4835 334.398 95.1276 333.68 94.882C332.837 94.5934 332.08 94.0963 331.48 93.437C331.047 92.8795 330.821 92.1895 330.839 91.484C330.82 91.0556 330.902 90.6287 331.079 90.2379C331.255 89.847 331.521 89.5032 331.855 89.234C332.641 88.6525 333.605 88.3626 334.582 88.414C335.709 88.4213 336.822 88.6663 337.848 89.133L337.254 90.656C336.399 90.2653 335.475 90.0475 334.535 90.015C334.045 89.9805 333.558 90.1204 333.16 90.41C333.008 90.5366 332.886 90.6964 332.805 90.8772C332.723 91.058 332.685 91.2549 332.691 91.453C332.683 91.7194 332.748 91.9828 332.879 92.215C333.037 92.4593 333.248 92.6644 333.496 92.815C333.991 93.1044 334.508 93.3526 335.043 93.557C335.696 93.8054 336.315 94.1336 336.887 94.534C337.25 94.8028 337.544 95.1533 337.746 95.557C337.936 95.9788 338.028 96.4378 338.016 96.9ZM344.172 100H342.3V90.18H338.941V88.58H347.527V90.18H344.168L344.172 100ZM356.372 100L355.227 96.828H350.859L349.742 100H347.773L352.046 88.531H354.077L358.352 100H356.372ZM354.734 95.219L353.664 92.11C353.586 91.902 353.478 91.574 353.34 91.126C353.202 90.678 353.107 90.35 353.055 90.142C352.893 90.8542 352.687 91.5556 352.438 92.242L351.406 95.219H354.734ZM363.8 100H361.938V90.18H358.578V88.58H367.164V90.18H363.8V100ZM377.867 88.578V95.969C377.885 96.7424 377.697 97.5066 377.324 98.184C376.96 98.8185 376.413 99.3279 375.754 99.645C374.987 100.003 374.147 100.178 373.3 100.156C372.095 100.229 370.91 99.8245 370 99.031C369.598 98.6267 369.285 98.1424 369.081 97.6094C368.878 97.0764 368.789 96.5066 368.82 95.937V88.578H370.695V95.8C370.632 96.5545 370.867 97.3036 371.351 97.886C371.624 98.1284 371.944 98.3128 372.29 98.4283C372.637 98.5438 373.003 98.5879 373.367 98.558C375.122 98.5614 376 97.6384 376 95.789V88.578H377.867ZM387.375 96.9C387.395 97.3574 387.306 97.8129 387.115 98.2288C386.923 98.6447 386.636 99.0089 386.275 99.291C385.389 99.9152 384.318 100.221 383.236 100.158C382.147 100.199 381.063 99.9939 380.064 99.558V97.789C380.596 98.0378 381.152 98.2314 381.724 98.367C382.26 98.5013 382.809 98.5722 383.361 98.578C383.939 98.6241 384.516 98.4756 385 98.156C385.171 98.0222 385.308 97.8497 385.4 97.6528C385.491 97.4559 385.535 97.2401 385.527 97.023C385.53 96.8178 385.488 96.6144 385.404 96.4269C385.321 96.2395 385.197 96.0723 385.043 95.937C384.435 95.4835 383.761 95.1276 383.043 94.882C382.2 94.5934 381.443 94.0963 380.843 93.437C380.41 92.8798 380.183 92.1897 380.2 91.484C380.181 91.0556 380.263 90.6287 380.44 90.2379C380.616 89.847 380.882 89.5032 381.216 89.234C382.002 88.6525 382.966 88.3626 383.943 88.414C385.07 88.4213 386.183 88.6663 387.209 89.133L386.615 90.656C385.76 90.2653 384.836 90.0475 383.896 90.015C383.406 89.9805 382.919 90.1204 382.521 90.41C382.369 90.5366 382.247 90.6964 382.166 90.8772C382.084 91.058 382.046 91.2549 382.052 91.453C382.044 91.7194 382.109 91.9828 382.24 92.215C382.398 92.4593 382.609 92.6644 382.857 92.815C383.352 93.1044 383.869 93.3526 384.404 93.557C385.057 93.8054 385.676 94.1336 386.248 94.534C386.608 94.803 386.9 95.1527 387.1 95.555C387.292 95.977 387.386 96.4367 387.375 96.9V96.9Z" fill="#757575"/>
<path d="M458.43 100H456.563V90.18H453.2V88.58H461.786V90.18H458.43V100ZM472.547 100H470.672V94.852H465.406V100H463.539V88.578H465.406V93.25H470.672V88.578H472.547V100ZM477.422 93.891H478.722C479.389 93.9481 480.056 93.7775 480.613 93.407C480.815 93.2283 480.972 93.0057 481.074 92.7564C481.176 92.5071 481.219 92.2377 481.2 91.969C481.224 91.7022 481.178 91.4337 481.067 91.1899C480.956 90.9461 480.784 90.7352 480.567 90.578C479.985 90.2579 479.324 90.1114 478.661 90.156H477.427L477.422 93.891ZM477.422 95.438V100H475.555V88.578H478.782C479.934 88.4899 481.084 88.7806 482.055 89.406C482.418 89.7083 482.704 90.0927 482.889 90.5275C483.074 90.9623 483.152 91.4348 483.118 91.906C483.129 92.5847 482.918 93.2484 482.518 93.7967C482.118 94.345 481.55 94.7481 480.9 94.945L484.125 100H482L479.266 95.438H477.422ZM492.242 100H485.781V88.578H492.242V90.156H487.648V93.265H491.948V94.828H487.648V98.414H492.242V100ZM501.3 96.9C501.32 97.357 501.231 97.8122 501.039 98.2277C500.848 98.6432 500.56 99.007 500.2 99.289C499.313 99.9143 498.24 100.22 497.156 100.156C496.067 100.197 494.983 99.9918 493.984 99.556V97.789C494.516 98.0377 495.073 98.2314 495.644 98.367C496.18 98.5013 496.729 98.5721 497.281 98.578C497.859 98.6236 498.435 98.4751 498.918 98.156C499.089 98.0222 499.226 97.8497 499.318 97.6528C499.409 97.4559 499.453 97.2401 499.445 97.023C499.448 96.8178 499.406 96.6144 499.322 96.4269C499.239 96.2394 499.116 96.0723 498.961 95.937C498.353 95.4835 497.679 95.1276 496.961 94.882C496.118 94.5934 495.361 94.0963 494.761 93.437C494.329 92.8795 494.102 92.1895 494.12 91.484C494.101 91.0556 494.183 90.6287 494.36 90.2379C494.536 89.847 494.802 89.5031 495.136 89.234C495.922 88.6525 496.887 88.3626 497.863 88.414C498.99 88.4213 500.103 88.6663 501.129 89.133L500.531 90.656C499.676 90.2653 498.752 90.0474 497.812 90.015C497.322 89.9805 496.835 90.1204 496.437 90.41C496.285 90.5366 496.163 90.6964 496.082 90.8772C496.001 91.058 495.962 91.2549 495.968 91.453C495.961 91.7194 496.026 91.9828 496.156 92.215C496.314 92.4592 496.525 92.6644 496.773 92.815C497.268 93.1044 497.785 93.3526 498.32 93.557C498.973 93.8054 499.592 94.1335 500.164 94.534C500.527 94.8028 500.821 95.1532 501.023 95.557C501.215 95.9782 501.31 96.4372 501.3 96.9V96.9ZM512.516 100H510.641V94.852H505.375V100H503.508V88.578H505.375V93.25H510.641V88.578H512.516V100ZM525.664 94.273C525.762 95.8423 525.264 97.3906 524.27 98.609C523.764 99.1383 523.148 99.5508 522.466 99.818C521.784 100.085 521.051 100.2 520.32 100.156C519.586 100.203 518.851 100.09 518.165 99.8251C517.479 99.5601 516.859 99.1492 516.347 98.621C515.353 97.3927 514.858 95.835 514.96 94.258C514.855 92.6852 515.354 91.1315 516.355 89.914C516.872 89.3915 517.494 88.9857 518.181 88.7242C518.867 88.4627 519.602 88.3515 520.335 88.398C521.064 88.3536 521.794 88.4683 522.474 88.734C523.154 88.9998 523.768 89.4103 524.273 89.937C525.266 91.1556 525.763 92.7041 525.664 94.273V94.273ZM516.945 94.273C516.867 95.4046 517.167 96.5301 517.797 97.473C518.101 97.8421 518.488 98.1336 518.927 98.3231C519.366 98.5127 519.843 98.5949 520.32 98.563C520.794 98.5952 521.269 98.5142 521.706 98.3268C522.143 98.1393 522.529 97.8508 522.832 97.485C523.463 96.5383 523.761 95.4088 523.68 94.274C523.757 93.1483 523.462 92.0284 522.84 91.087C522.54 90.7187 522.156 90.4278 521.721 90.2387C521.285 90.0495 520.81 89.9677 520.336 90C519.858 89.9675 519.378 90.049 518.937 90.2378C518.497 90.4266 518.107 90.7173 517.8 91.086C517.168 92.0234 516.867 93.1451 516.945 94.273V94.273ZM528.117 100V88.578H529.984V98.4H534.82V100H528.117ZM546.078 94.18C546.131 94.9697 546.019 95.7617 545.749 96.5055C545.478 97.2494 545.056 97.9287 544.508 98.5C543.254 99.5725 541.63 100.111 539.984 100H536.784V88.578H540.32C541.089 88.5311 541.86 88.6368 542.588 88.8889C543.316 89.141 543.987 89.5346 544.562 90.047C545.086 90.594 545.492 91.2435 545.753 91.9549C546.014 92.6662 546.124 93.4238 546.078 94.18ZM544.109 94.243C544.109 91.5097 542.831 90.143 540.273 90.143H538.656V98.43H539.984C542.734 98.43 544.109 97.034 544.109 94.242V94.243Z" fill="#757575"/>
<path d="M215.34 148.336H218.567C219.705 148.25 220.845 148.485 221.856 149.016C222.197 149.255 222.47 149.579 222.648 149.956C222.826 150.332 222.903 150.749 222.871 151.164C222.893 151.774 222.69 152.371 222.3 152.84C221.866 153.31 221.282 153.612 220.648 153.695V153.773C222.381 154.07 223.248 154.981 223.248 156.507C223.272 156.958 223.191 157.408 223.013 157.823C222.834 158.238 222.563 158.606 222.219 158.899C221.385 159.517 220.36 159.822 219.324 159.758H215.34V148.336ZM216.668 153.227H218.856C219.559 153.284 220.263 153.13 220.879 152.786C221.098 152.609 221.269 152.38 221.377 152.12C221.486 151.86 221.528 151.577 221.5 151.297C221.522 151.025 221.469 150.753 221.348 150.508C221.227 150.264 221.042 150.057 220.813 149.91C220.134 149.578 219.38 149.431 218.626 149.484H216.668V153.227ZM216.668 154.352V158.625H219.051C219.784 158.677 220.515 158.489 221.133 158.09C221.375 157.887 221.565 157.629 221.687 157.337C221.809 157.046 221.859 156.729 221.833 156.414C221.856 156.114 221.802 155.814 221.677 155.541C221.552 155.268 221.359 155.031 221.118 154.852C220.458 154.472 219.701 154.298 218.942 154.352H216.668ZM230.6 149.358C230.042 149.331 229.485 149.43 228.97 149.647C228.455 149.865 227.995 150.195 227.625 150.613C226.852 151.585 226.464 152.807 226.535 154.047C226.455 155.291 226.828 156.522 227.586 157.512C227.962 157.928 228.427 158.254 228.946 158.466C229.466 158.677 230.026 158.769 230.586 158.735C231.51 158.716 232.427 158.571 233.313 158.305V159.469C232.37 159.79 231.378 159.94 230.383 159.914C229.661 159.959 228.937 159.845 228.264 159.581C227.59 159.316 226.983 158.907 226.484 158.383C225.5 157.154 225.011 155.602 225.113 154.031C225.089 152.962 225.315 151.903 225.773 150.937C226.188 150.079 226.853 149.366 227.68 148.891C228.577 148.395 229.589 148.147 230.614 148.172C231.697 148.147 232.772 148.372 233.755 148.828L233.191 149.969C232.383 149.576 231.498 149.367 230.6 149.358V149.358Z" fill="#757575"/>
<path d="M223.223 218.031C223.313 219.591 222.818 221.129 221.836 222.344C221.349 222.874 220.751 223.29 220.084 223.561C219.417 223.833 218.699 223.953 217.98 223.914C217.257 223.958 216.534 223.843 215.861 223.576C215.188 223.309 214.582 222.898 214.086 222.371C213.104 221.14 212.615 219.588 212.715 218.016C212.616 216.453 213.107 214.911 214.09 213.692C214.59 213.167 215.199 212.757 215.875 212.492C216.55 212.227 217.276 212.113 218 212.158C218.715 212.119 219.431 212.239 220.094 212.509C220.758 212.779 221.354 213.192 221.84 213.719C222.821 214.934 223.314 216.472 223.223 218.031V218.031ZM214.123 218.031C214.035 219.283 214.384 220.528 215.111 221.551C215.465 221.959 215.908 222.279 216.406 222.487C216.904 222.695 217.443 222.785 217.982 222.751C218.519 222.788 219.058 222.7 219.556 222.493C220.053 222.286 220.495 221.966 220.848 221.558C221.563 220.528 221.905 219.285 221.817 218.035C221.904 216.792 221.564 215.557 220.852 214.535C220.502 214.129 220.061 213.81 219.566 213.603C219.071 213.396 218.535 213.308 218 213.344C217.459 213.309 216.917 213.398 216.416 213.606C215.915 213.815 215.469 214.135 215.113 214.544C214.388 215.556 214.037 216.789 214.121 218.031H214.123ZM234.691 223.758H233.176L226.934 214.172H226.871C226.957 215.296 227 216.327 227 217.266V223.758H225.77V212.336H227.27L233.5 221.883H233.563C233.552 221.742 233.529 221.291 233.493 220.528C233.457 219.765 233.442 219.22 233.449 218.891V212.336H234.691V223.758Z" fill="#757575"/>
<path d="M224.223 280.031C224.313 281.591 223.818 283.129 222.836 284.344C222.349 284.874 221.751 285.29 221.084 285.561C220.417 285.833 219.699 285.953 218.98 285.914C218.257 285.958 217.534 285.843 216.861 285.576C216.188 285.309 215.582 284.898 215.086 284.371C214.104 283.14 213.615 281.588 213.715 280.016C213.616 278.453 214.107 276.911 215.09 275.692C215.59 275.167 216.199 274.757 216.875 274.492C217.55 274.227 218.276 274.113 219 274.158C219.715 274.119 220.431 274.239 221.094 274.509C221.758 274.779 222.354 275.192 222.84 275.719C223.821 276.934 224.314 278.472 224.223 280.031V280.031ZM215.123 280.031C215.035 281.283 215.384 282.528 216.111 283.551C216.465 283.959 216.908 284.279 217.406 284.487C217.904 284.695 218.443 284.785 218.982 284.751C219.519 284.788 220.058 284.7 220.556 284.493C221.053 284.286 221.495 283.966 221.848 283.558C222.563 282.528 222.905 281.285 222.817 280.035C222.904 278.792 222.564 277.557 221.852 276.535C221.502 276.129 221.061 275.81 220.566 275.603C220.071 275.396 219.535 275.308 219 275.344C218.459 275.309 217.917 275.398 217.416 275.606C216.915 275.815 216.469 276.135 216.113 276.544C215.388 277.556 215.037 278.789 215.121 280.031H215.123ZM235.691 285.758H234.176L227.934 276.172H227.871C227.957 277.296 228 278.327 228 279.266V285.758H226.77V274.336H228.27L234.5 283.883H234.563C234.552 283.742 234.529 283.291 234.493 282.528C234.457 281.765 234.442 281.22 234.449 280.891V274.336H235.691V285.758Z" fill="#757575"/>
<path d="M219.219 347.758L215.344 337.633H215.282C215.355 338.433 215.391 339.386 215.391 340.492V347.758H214.164V336.336H216.164L219.781 345.758H219.844L223.492 336.336H225.477V347.758H224.148V340.399C224.148 339.555 224.184 338.638 224.257 337.649H224.2L220.289 347.758H219.219ZM228.609 336.336H231.836C232.974 336.25 234.114 336.485 235.125 337.016C235.466 337.255 235.739 337.579 235.918 337.955C236.096 338.332 236.173 338.749 236.141 339.164C236.165 339.773 235.963 340.37 235.575 340.84C235.142 341.31 234.557 341.612 233.923 341.695V341.773C235.656 342.07 236.523 342.981 236.523 344.507C236.546 344.958 236.465 345.409 236.285 345.824C236.106 346.239 235.833 346.607 235.488 346.899C234.655 347.517 233.63 347.821 232.594 347.758H228.609V336.336ZM229.938 341.227H232.125C232.828 341.284 233.532 341.13 234.148 340.786C234.366 340.608 234.536 340.379 234.644 340.12C234.752 339.86 234.793 339.578 234.765 339.298C234.787 339.026 234.734 338.754 234.613 338.509C234.492 338.265 234.307 338.058 234.078 337.911C233.399 337.579 232.645 337.432 231.891 337.485H229.938V341.227ZM229.938 342.352V346.625H232.32C233.053 346.677 233.783 346.489 234.4 346.09C234.642 345.887 234.832 345.629 234.954 345.337C235.076 345.046 235.126 344.729 235.1 344.414C235.123 344.114 235.069 343.814 234.944 343.541C234.819 343.268 234.627 343.031 234.385 342.852C233.726 342.472 232.968 342.298 232.209 342.352H229.938Z" fill="#757575"/>
<path d="M219.219 412.758L215.344 402.633H215.282C215.355 403.433 215.391 404.386 215.391 405.492V412.758H214.164V401.336H216.164L219.781 410.758H219.844L223.492 401.336H225.477V412.758H224.148V405.399C224.148 404.555 224.184 403.638 224.257 402.649H224.2L220.289 412.758H219.219ZM228.609 401.336H231.836C232.974 401.25 234.114 401.485 235.125 402.016C235.466 402.255 235.739 402.579 235.918 402.955C236.096 403.332 236.173 403.749 236.141 404.164C236.165 404.773 235.963 405.37 235.575 405.84C235.142 406.31 234.557 406.612 233.923 406.695V406.773C235.656 407.07 236.523 407.981 236.523 409.507C236.546 409.958 236.465 410.409 236.285 410.824C236.106 411.239 235.833 411.607 235.488 411.899C234.655 412.517 233.63 412.821 232.594 412.758H228.609V401.336ZM229.938 406.227H232.125C232.828 406.284 233.532 406.13 234.148 405.786C234.366 405.608 234.536 405.379 234.644 405.12C234.752 404.86 234.793 404.578 234.765 404.298C234.787 404.026 234.734 403.754 234.613 403.509C234.492 403.265 234.307 403.058 234.078 402.911C233.399 402.579 232.645 402.432 231.891 402.485H229.938V406.227ZM229.938 407.352V411.625H232.32C233.053 411.677 233.783 411.489 234.4 411.09C234.642 410.887 234.832 410.629 234.954 410.337C235.076 410.046 235.126 409.729 235.1 409.414C235.123 409.114 235.069 408.814 234.944 408.541C234.819 408.268 234.627 408.031 234.385 407.852C233.726 407.472 232.968 407.298 232.209 407.352H229.938Z" fill="#757575"/>
<path d="M499.141 161.758H491.633V160.641L494.641 157.618C495.284 156.994 495.89 156.331 496.453 155.633C496.721 155.278 496.942 154.889 497.109 154.477C497.257 154.091 497.331 153.68 497.328 153.266C497.341 152.999 497.299 152.732 497.203 152.483C497.108 152.233 496.961 152.007 496.773 151.817C496.564 151.631 496.321 151.488 496.057 151.396C495.793 151.304 495.513 151.265 495.234 151.282C494.774 151.279 494.318 151.359 493.886 151.516C493.372 151.725 492.894 152.012 492.468 152.368L491.781 151.485C492.732 150.648 493.952 150.183 495.219 150.173C496.134 150.119 497.035 150.414 497.742 150.997C498.047 151.277 498.286 151.62 498.444 152.003C498.602 152.386 498.674 152.798 498.656 153.212C498.646 153.969 498.436 154.709 498.047 155.358C497.406 156.349 496.639 157.253 495.766 158.047L493.266 160.492V160.558H499.141V161.758ZM508.352 156.031C508.454 157.564 508.131 159.097 507.418 160.458C507.115 160.934 506.691 161.32 506.189 161.576C505.687 161.832 505.125 161.948 504.563 161.914C504.005 161.937 503.451 161.81 502.958 161.546C502.466 161.282 502.053 160.891 501.763 160.414C501.039 159.071 500.706 157.553 500.8 156.031C500.695 154.497 501.017 152.964 501.73 151.601C502.031 151.13 502.452 150.748 502.95 150.494C503.448 150.241 504.005 150.125 504.563 150.158C505.125 150.133 505.684 150.26 506.181 150.526C506.678 150.791 507.094 151.185 507.387 151.666C508.109 153.002 508.444 154.514 508.352 156.031V156.031ZM502.11 156.031C502.035 157.269 502.237 158.508 502.7 159.658C502.862 160.011 503.126 160.308 503.458 160.511C503.79 160.714 504.174 160.813 504.563 160.797C504.955 160.815 505.344 160.715 505.679 160.51C506.014 160.304 506.279 160.003 506.441 159.645C506.897 158.498 507.096 157.264 507.023 156.032C507.096 154.802 506.898 153.571 506.441 152.427C506.278 152.07 506.012 151.77 505.677 151.566C505.342 151.362 504.954 151.263 504.562 151.282C504.175 151.265 503.791 151.363 503.46 151.564C503.129 151.765 502.864 152.059 502.7 152.41C502.235 153.558 502.034 154.795 502.109 156.031H502.11Z" fill="#757575"/>
<path d="M499.141 223.758H491.633V222.641L494.641 219.618C495.284 218.994 495.89 218.331 496.453 217.633C496.721 217.278 496.942 216.889 497.109 216.477C497.257 216.091 497.331 215.68 497.328 215.266C497.341 214.999 497.299 214.732 497.203 214.483C497.108 214.233 496.961 214.007 496.773 213.817C496.564 213.631 496.321 213.488 496.057 213.396C495.793 213.304 495.513 213.265 495.234 213.282C494.774 213.279 494.318 213.359 493.886 213.516C493.372 213.725 492.894 214.012 492.468 214.368L491.781 213.485C492.732 212.648 493.952 212.183 495.219 212.173C496.134 212.119 497.035 212.414 497.742 212.997C498.047 213.277 498.286 213.62 498.444 214.003C498.602 214.386 498.674 214.798 498.656 215.212C498.646 215.969 498.436 216.709 498.047 217.358C497.406 218.349 496.639 219.253 495.766 220.047L493.266 222.492V222.558H499.141V223.758ZM508.352 218.031C508.454 219.564 508.131 221.097 507.418 222.458C507.115 222.934 506.691 223.32 506.189 223.576C505.687 223.832 505.125 223.948 504.563 223.914C504.005 223.937 503.451 223.81 502.958 223.546C502.466 223.282 502.053 222.891 501.763 222.414C501.039 221.071 500.706 219.553 500.8 218.031C500.695 216.497 501.017 214.964 501.73 213.601C502.031 213.13 502.452 212.748 502.95 212.494C503.448 212.241 504.005 212.125 504.563 212.158C505.125 212.133 505.684 212.26 506.181 212.526C506.678 212.791 507.094 213.185 507.387 213.666C508.109 215.002 508.444 216.514 508.352 218.031V218.031ZM502.11 218.031C502.035 219.269 502.237 220.508 502.7 221.658C502.862 222.011 503.126 222.308 503.458 222.511C503.79 222.714 504.174 222.813 504.563 222.797C504.955 222.815 505.344 222.715 505.679 222.51C506.014 222.304 506.279 222.003 506.441 221.645C506.897 220.498 507.096 219.264 507.023 218.032C507.096 216.802 506.898 215.571 506.441 214.427C506.278 214.07 506.012 213.77 505.677 213.566C505.342 213.362 504.954 213.263 504.562 213.282C504.175 213.265 503.791 213.363 503.46 213.564C503.129 213.765 502.864 214.059 502.7 214.41C502.235 215.558 502.034 216.795 502.109 218.031H502.11Z" fill="#757575"/>
<path d="M499.141 285.758H491.633V284.641L494.641 281.618C495.284 280.994 495.89 280.331 496.453 279.633C496.721 279.278 496.942 278.889 497.109 278.477C497.257 278.091 497.331 277.68 497.328 277.266C497.341 276.999 497.299 276.732 497.203 276.483C497.108 276.233 496.961 276.007 496.773 275.817C496.564 275.631 496.321 275.488 496.057 275.396C495.793 275.304 495.513 275.265 495.234 275.282C494.774 275.279 494.318 275.359 493.886 275.516C493.372 275.725 492.894 276.012 492.468 276.368L491.781 275.485C492.732 274.648 493.952 274.183 495.219 274.173C496.134 274.119 497.035 274.414 497.742 274.997C498.047 275.277 498.286 275.62 498.444 276.003C498.602 276.386 498.674 276.798 498.656 277.212C498.646 277.969 498.436 278.709 498.047 279.358C497.406 280.349 496.639 281.253 495.766 282.047L493.266 284.492V284.558H499.141V285.758ZM508.352 280.031C508.454 281.564 508.131 283.097 507.418 284.458C507.115 284.934 506.691 285.32 506.189 285.576C505.687 285.832 505.125 285.948 504.563 285.914C504.005 285.937 503.451 285.81 502.958 285.546C502.466 285.282 502.053 284.891 501.763 284.414C501.039 283.071 500.706 281.553 500.8 280.031C500.695 278.497 501.017 276.964 501.73 275.601C502.031 275.13 502.452 274.748 502.95 274.494C503.448 274.241 504.005 274.125 504.563 274.158C505.125 274.133 505.684 274.26 506.181 274.526C506.678 274.791 507.094 275.185 507.387 275.666C508.109 277.002 508.444 278.514 508.352 280.031V280.031ZM502.11 280.031C502.035 281.269 502.237 282.508 502.7 283.658C502.862 284.011 503.126 284.308 503.458 284.511C503.79 284.714 504.174 284.813 504.563 284.797C504.955 284.815 505.344 284.715 505.679 284.51C506.014 284.304 506.279 284.003 506.441 283.645C506.897 282.498 507.096 281.264 507.023 280.032C507.096 278.802 506.898 277.571 506.441 276.427C506.278 276.07 506.012 275.77 505.677 275.566C505.342 275.362 504.954 275.263 504.562 275.282C504.175 275.265 503.791 275.363 503.46 275.564C503.129 275.765 502.864 276.059 502.7 276.41C502.235 277.558 502.034 278.795 502.109 280.031H502.11Z" fill="#757575"/>
<path d="M499.141 347.758H491.633V346.641L494.641 343.618C495.284 342.994 495.89 342.331 496.453 341.633C496.721 341.278 496.942 340.889 497.109 340.477C497.257 340.091 497.331 339.68 497.328 339.266C497.341 338.999 497.299 338.732 497.203 338.483C497.108 338.233 496.961 338.007 496.773 337.817C496.564 337.631 496.321 337.488 496.057 337.396C495.793 337.304 495.513 337.265 495.234 337.282C494.774 337.279 494.318 337.359 493.886 337.516C493.372 337.725 492.894 338.012 492.468 338.368L491.781 337.485C492.732 336.648 493.952 336.183 495.219 336.173C496.134 336.119 497.035 336.414 497.742 336.997C498.047 337.277 498.286 337.62 498.444 338.003C498.602 338.386 498.674 338.798 498.656 339.212C498.646 339.969 498.436 340.709 498.047 341.358C497.406 342.349 496.639 343.253 495.766 344.047L493.266 346.492V346.558H499.141V347.758ZM508.352 342.031C508.454 343.564 508.131 345.097 507.418 346.458C507.115 346.934 506.691 347.32 506.189 347.576C505.687 347.832 505.125 347.948 504.563 347.914C504.005 347.937 503.451 347.81 502.958 347.546C502.466 347.282 502.053 346.891 501.763 346.414C501.039 345.071 500.706 343.553 500.8 342.031C500.695 340.497 501.017 338.964 501.73 337.601C502.031 337.13 502.452 336.748 502.95 336.494C503.448 336.241 504.005 336.125 504.563 336.158C505.125 336.133 505.684 336.26 506.181 336.526C506.678 336.791 507.094 337.185 507.387 337.666C508.109 339.002 508.444 340.514 508.352 342.031V342.031ZM502.11 342.031C502.035 343.269 502.237 344.508 502.7 345.658C502.862 346.011 503.126 346.308 503.458 346.511C503.79 346.714 504.174 346.813 504.563 346.797C504.955 346.815 505.344 346.715 505.679 346.51C506.014 346.304 506.279 346.003 506.441 345.645C506.897 344.498 507.096 343.264 507.023 342.032C507.096 340.802 506.898 339.571 506.441 338.427C506.278 338.07 506.012 337.77 505.677 337.566C505.342 337.362 504.954 337.263 504.562 337.282C504.175 337.265 503.791 337.363 503.46 337.564C503.129 337.765 502.864 338.059 502.7 338.41C502.235 339.558 502.034 340.795 502.109 342.031H502.11Z" fill="#757575"/>
<path d="M499.141 412.758H491.633V411.641L494.641 408.618C495.284 407.994 495.89 407.331 496.453 406.633C496.721 406.278 496.942 405.889 497.109 405.477C497.257 405.091 497.331 404.68 497.328 404.266C497.341 403.999 497.299 403.732 497.203 403.483C497.108 403.233 496.961 403.007 496.773 402.817C496.564 402.631 496.321 402.488 496.057 402.396C495.793 402.304 495.513 402.265 495.234 402.282C494.774 402.279 494.318 402.359 493.886 402.516C493.372 402.725 492.894 403.012 492.468 403.368L491.781 402.485C492.732 401.648 493.952 401.183 495.219 401.173C496.134 401.119 497.035 401.414 497.742 401.997C498.047 402.277 498.286 402.62 498.444 403.003C498.602 403.386 498.674 403.798 498.656 404.212C498.646 404.969 498.436 405.709 498.047 406.358C497.406 407.349 496.639 408.253 495.766 409.047L493.266 411.492V411.558H499.141V412.758ZM508.352 407.031C508.454 408.564 508.131 410.097 507.418 411.458C507.115 411.934 506.691 412.32 506.189 412.576C505.687 412.832 505.125 412.948 504.563 412.914C504.005 412.937 503.451 412.81 502.958 412.546C502.466 412.282 502.053 411.891 501.763 411.414C501.039 410.071 500.706 408.553 500.8 407.031C500.695 405.497 501.017 403.964 501.73 402.601C502.031 402.13 502.452 401.748 502.95 401.494C503.448 401.241 504.005 401.125 504.563 401.158C505.125 401.133 505.684 401.26 506.181 401.526C506.678 401.791 507.094 402.185 507.387 402.666C508.109 404.002 508.444 405.514 508.352 407.031V407.031ZM502.11 407.031C502.035 408.269 502.237 409.508 502.7 410.658C502.862 411.011 503.126 411.308 503.458 411.511C503.79 411.714 504.174 411.813 504.563 411.797C504.955 411.815 505.344 411.715 505.679 411.51C506.014 411.304 506.279 411.003 506.441 410.645C506.897 409.498 507.096 408.264 507.023 407.032C507.096 405.802 506.898 404.571 506.441 403.427C506.278 403.07 506.012 402.77 505.677 402.566C505.342 402.362 504.954 402.263 504.562 402.282C504.175 402.265 503.791 402.363 503.46 402.564C503.129 402.765 502.864 403.059 502.7 403.41C502.235 404.558 502.034 405.795 502.109 407.031H502.11Z" fill="#757575"/>
<g filter="url(#filter1_d_1607_2)">
<path d="M401.073 204.5H317.5C310.873 204.5 305.5 209.873 305.5 216.5V218.5C305.5 225.127 310.873 230.5 317.5 230.5H401.073C407.7 230.5 413.073 225.127 413.073 218.5V216.5C413.073 209.873 407.7 204.5 401.073 204.5Z" fill="#D2D2D2" stroke="#D3D3D3" stroke-width="0.5"/>
</g>
<path d="M343.828 223.465V212.043H345.156V223.465H343.828ZM353.953 223.465V217.926C353.997 217.364 353.827 216.807 353.477 216.365C353.278 216.179 353.043 216.037 352.786 215.948C352.529 215.86 352.256 215.826 351.985 215.849C351.624 215.818 351.26 215.866 350.919 215.992C350.579 216.118 350.27 216.317 350.016 216.576C349.535 217.279 349.314 218.128 349.391 218.976V223.465H348.091V214.903H349.146L349.357 216.075H349.42C349.691 215.648 350.079 215.308 350.537 215.095C351.037 214.859 351.584 214.74 352.137 214.747C352.981 214.683 353.816 214.951 354.465 215.493C354.751 215.817 354.967 216.196 355.102 216.606C355.236 217.016 355.285 217.45 355.246 217.88V223.465H353.953ZM363.18 223.465L362.922 222.246H362.86C362.526 222.705 362.088 223.079 361.582 223.336C361.078 223.541 360.536 223.638 359.992 223.621C359.269 223.662 358.557 223.428 358 222.965C357.752 222.724 357.559 222.433 357.434 222.111C357.309 221.788 357.256 221.443 357.277 221.098C357.277 219.369 358.66 218.462 361.425 218.379L362.878 218.332V217.801C362.921 217.268 362.767 216.739 362.444 216.313C362.26 216.139 362.041 216.006 361.802 215.924C361.563 215.841 361.309 215.81 361.057 215.833C360.211 215.867 359.383 216.092 358.635 216.489L358.235 215.497C358.674 215.261 359.14 215.08 359.622 214.958C360.116 214.827 360.624 214.76 361.134 214.758C361.949 214.692 362.759 214.935 363.404 215.438C363.673 215.73 363.877 216.074 364.004 216.45C364.131 216.825 364.178 217.223 364.142 217.618V223.465H363.18ZM360.25 222.551C360.946 222.59 361.63 222.351 362.15 221.887C362.388 221.642 362.573 221.35 362.692 221.03C362.811 220.71 362.861 220.369 362.841 220.028V219.255L361.541 219.31C360.77 219.285 360.004 219.45 359.311 219.79C359.088 219.928 358.906 220.124 358.786 220.357C358.665 220.591 358.611 220.852 358.627 221.114C358.614 221.313 358.645 221.512 358.719 221.697C358.793 221.882 358.907 222.049 359.053 222.184C359.394 222.448 359.82 222.579 360.25 222.551V222.551ZM370.234 223.621C369.7 223.653 369.165 223.567 368.667 223.369C368.17 223.172 367.722 222.867 367.355 222.477C366.624 221.562 366.261 220.408 366.335 219.239C366.258 218.042 366.627 216.86 367.37 215.919C367.745 215.518 368.204 215.205 368.714 215.003C369.224 214.8 369.772 214.712 370.32 214.746C370.735 214.746 371.149 214.791 371.554 214.879C371.889 214.942 372.215 215.047 372.523 215.192L372.123 216.292C371.819 216.172 371.506 216.077 371.186 216.007C370.891 215.937 370.589 215.899 370.286 215.894C368.547 215.894 367.677 217.003 367.677 219.222C367.622 220.078 367.847 220.928 368.316 221.645C368.538 221.928 368.826 222.152 369.154 222.299C369.482 222.446 369.841 222.511 370.2 222.488C370.957 222.48 371.704 222.323 372.4 222.027V223.176C371.724 223.495 370.981 223.648 370.234 223.621V223.621ZM377.2 222.551C377.422 222.551 377.644 222.534 377.864 222.5C378.035 222.475 378.205 222.44 378.372 222.395V223.387C378.172 223.471 377.961 223.528 377.746 223.555C377.502 223.597 377.255 223.619 377.008 223.621C375.352 223.621 374.524 222.749 374.524 221.004V215.91H373.3V215.285L374.527 214.746L375.074 212.918H375.824V214.902H378.3V215.91H375.82V220.949C375.791 221.377 375.922 221.8 376.187 222.137C376.315 222.277 376.472 222.386 376.647 222.458C376.822 222.529 377.011 222.561 377.2 222.551V222.551ZM381.375 223.465H380.075V214.903H381.375V223.465ZM379.969 212.582C379.959 212.464 379.973 212.345 380.011 212.233C380.048 212.121 380.109 212.018 380.188 211.93C380.261 211.861 380.347 211.808 380.441 211.772C380.535 211.737 380.635 211.72 380.735 211.723C380.936 211.72 381.129 211.796 381.274 211.934C381.355 212.02 381.417 212.122 381.456 212.234C381.495 212.346 381.511 212.464 381.501 212.582C381.51 212.7 381.495 212.82 381.456 212.932C381.417 213.044 381.355 213.147 381.274 213.234C381.203 213.304 381.119 213.358 381.026 213.395C380.934 213.432 380.835 213.45 380.735 213.449C380.634 213.452 380.534 213.434 380.44 213.397C380.346 213.36 380.26 213.305 380.188 213.234C380.11 213.146 380.05 213.042 380.012 212.93C379.974 212.818 379.96 212.7 379.969 212.582V212.582ZM386 223.465L382.75 214.903H384.141L385.985 219.981C386.269 220.739 386.514 221.511 386.719 222.294H386.782C386.934 221.713 387.115 221.141 387.325 220.579C387.63 219.712 388.313 217.82 389.376 214.903H390.767L387.516 223.465H386ZM395.758 223.621C395.205 223.65 394.652 223.563 394.135 223.363C393.618 223.164 393.149 222.858 392.758 222.465C391.984 221.581 391.589 220.427 391.658 219.254C391.596 218.07 391.96 216.904 392.684 215.965C393.016 215.565 393.436 215.248 393.911 215.036C394.386 214.825 394.903 214.725 395.422 214.746C395.899 214.723 396.374 214.807 396.814 214.99C397.255 215.173 397.649 215.451 397.969 215.805C398.621 216.586 398.956 217.582 398.907 218.598V219.418H393.007C392.972 220.249 393.243 221.063 393.769 221.707C394.033 221.974 394.35 222.182 394.7 222.317C395.051 222.452 395.425 222.51 395.8 222.488C396.741 222.484 397.672 222.287 398.534 221.91V223.065C398.116 223.25 397.681 223.393 397.234 223.491C396.748 223.584 396.253 223.628 395.758 223.621V223.621ZM395.406 215.832C395.1 215.818 394.794 215.871 394.51 215.987C394.226 216.103 393.97 216.28 393.761 216.504C393.322 217.028 393.068 217.682 393.039 218.365H397.516C397.561 217.694 397.367 217.028 396.969 216.486C396.776 216.265 396.534 216.091 396.263 215.978C395.993 215.864 395.699 215.815 395.406 215.832Z" fill="#606060"/>
<path d="M319.5 228C325.299 228 330 223.299 330 217.5C330 211.701 325.299 207 319.5 207C313.701 207 309 211.701 309 217.5C309 223.299 313.701 228 319.5 228Z" fill="white"/>
<g filter="url(#filter2_d_1607_2)">
<path d="M401.073 329.5H317.5C310.873 329.5 305.5 334.873 305.5 341.5V343.5C305.5 350.127 310.873 355.5 317.5 355.5H401.073C407.7 355.5 413.073 350.127 413.073 343.5V341.5C413.073 334.873 407.7 329.5 401.073 329.5Z" fill="#4BBB40" stroke="#D3D3D3" stroke-width="0.5"/>
</g>
<path d="M334.108 348.465L332.686 344.832H328.108L326.702 348.465H325.358L329.873 336.996H330.99L335.483 348.465H334.108ZM332.273 343.637L330.945 340.098C330.773 339.65 330.596 339.101 330.414 338.45C330.282 339.008 330.118 339.559 329.922 340.098L328.573 343.637H332.273ZM340.28 348.621C339.746 348.653 339.211 348.567 338.713 348.369C338.216 348.172 337.768 347.867 337.401 347.477C336.67 346.562 336.306 345.408 336.381 344.239C336.304 343.042 336.673 341.86 337.416 340.919C337.791 340.518 338.25 340.205 338.76 340.003C339.27 339.8 339.818 339.712 340.366 339.746C340.781 339.746 341.194 339.791 341.6 339.879C341.936 339.942 342.263 340.047 342.573 340.192L342.173 341.292C341.869 341.172 341.555 341.077 341.236 341.007C340.941 340.937 340.639 340.899 340.336 340.894C338.597 340.894 337.727 342.003 337.727 344.222C337.671 345.077 337.894 345.927 338.362 346.645C338.584 346.929 338.872 347.154 339.201 347.301C339.53 347.448 339.889 347.512 340.249 347.489C341.005 347.481 341.753 347.324 342.449 347.028V348.176C341.772 348.496 341.028 348.648 340.28 348.621V348.621ZM347.241 347.551C347.463 347.551 347.685 347.534 347.905 347.5C348.076 347.475 348.246 347.44 348.413 347.395V348.387C348.215 348.471 348.006 348.527 347.792 348.555C347.548 348.597 347.301 348.619 347.053 348.621C345.4 348.621 344.573 347.749 344.573 346.004V340.91H343.343V340.285L344.573 339.746L345.12 337.918H345.87V339.902H348.35V340.91H345.866V345.949C345.837 346.377 345.968 346.8 346.233 347.137C346.36 347.276 346.516 347.385 346.691 347.457C346.865 347.528 347.053 347.561 347.241 347.551V347.551ZM351.421 348.465H350.121V339.903H351.421V348.465ZM350.014 337.582C350.004 337.464 350.018 337.345 350.055 337.233C350.093 337.121 350.154 337.018 350.233 336.93C350.306 336.861 350.392 336.808 350.486 336.772C350.58 336.737 350.68 336.72 350.78 336.723C350.98 336.72 351.174 336.796 351.319 336.934C351.4 337.02 351.462 337.122 351.501 337.234C351.54 337.346 351.555 337.464 351.546 337.582C351.555 337.7 351.54 337.82 351.501 337.932C351.462 338.044 351.4 338.147 351.319 338.234C351.248 338.304 351.163 338.358 351.071 338.395C350.978 338.432 350.879 338.45 350.78 338.449C350.679 338.452 350.578 338.434 350.484 338.397C350.39 338.36 350.305 338.305 350.233 338.234C350.154 338.146 350.094 338.042 350.057 337.93C350.019 337.818 350.005 337.7 350.014 337.582ZM356.046 348.465L352.796 339.903H354.186L356.03 344.981C356.313 345.739 356.558 346.511 356.764 347.294H356.827C356.979 346.713 357.162 346.14 357.373 345.578C357.678 344.711 358.361 342.819 359.424 339.902H360.815L357.561 348.465H356.046ZM365.803 348.621C365.25 348.65 364.696 348.563 364.179 348.363C363.662 348.164 363.193 347.858 362.803 347.465C362.029 346.581 361.634 345.427 361.703 344.254C361.641 343.07 362.005 341.904 362.729 340.965C363.061 340.565 363.481 340.248 363.956 340.036C364.431 339.825 364.948 339.726 365.467 339.746C365.943 339.723 366.419 339.807 366.859 339.99C367.3 340.173 367.694 340.451 368.014 340.805C368.666 341.586 369 342.582 368.952 343.598V344.418H363.052C363.017 345.249 363.288 346.063 363.814 346.707C364.078 346.975 364.396 347.183 364.747 347.318C365.098 347.453 365.474 347.511 365.849 347.488C366.79 347.484 367.721 347.287 368.583 346.91V348.065C368.165 348.25 367.729 348.393 367.283 348.491C366.795 348.585 366.299 348.628 365.803 348.621V348.621ZM365.451 340.832C365.144 340.818 364.839 340.871 364.555 340.987C364.27 341.103 364.015 341.28 363.806 341.504C363.367 342.028 363.114 342.682 363.085 343.365H367.562C367.607 342.694 367.413 342.028 367.015 341.486C366.822 341.265 366.58 341.091 366.309 340.978C366.038 340.864 365.745 340.815 365.452 340.832H365.451Z" fill="white"/>
<path d="M399.073 353C404.872 353 409.573 348.299 409.573 342.5C409.573 336.701 404.872 332 399.073 332C393.274 332 388.573 336.701 388.573 342.5C388.573 348.299 393.274 353 399.073 353Z" fill="white"/>
<g filter="url(#filter3_d_1607_2)">
<path d="M401.073 140.5H317.5C310.873 140.5 305.5 145.873 305.5 152.5V154.5C305.5 161.127 310.873 166.5 317.5 166.5H401.073C407.7 166.5 413.073 161.127 413.073 154.5V152.5C413.073 145.873 407.7 140.5 401.073 140.5Z" fill="#4BBB40" stroke="#D3D3D3" stroke-width="0.5"/>
</g>
<path d="M334.108 159.465L332.686 155.832H328.108L326.702 159.465H325.358L329.873 147.996H330.99L335.483 159.465H334.108ZM332.273 154.637L330.945 151.098C330.773 150.65 330.596 150.101 330.414 149.45C330.282 150.008 330.118 150.559 329.922 151.098L328.573 154.637H332.273ZM340.28 159.621C339.746 159.653 339.211 159.567 338.713 159.369C338.216 159.172 337.768 158.867 337.401 158.477C336.67 157.562 336.306 156.408 336.381 155.239C336.304 154.042 336.673 152.86 337.416 151.919C337.791 151.518 338.25 151.205 338.76 151.003C339.27 150.8 339.818 150.712 340.366 150.746C340.781 150.746 341.194 150.791 341.6 150.879C341.936 150.942 342.263 151.047 342.573 151.192L342.173 152.292C341.869 152.172 341.555 152.077 341.236 152.007C340.941 151.937 340.639 151.899 340.336 151.894C338.597 151.894 337.727 153.003 337.727 155.222C337.671 156.077 337.894 156.927 338.362 157.645C338.584 157.929 338.872 158.154 339.201 158.301C339.53 158.448 339.889 158.512 340.249 158.489C341.005 158.481 341.753 158.324 342.449 158.028V159.176C341.772 159.496 341.028 159.648 340.28 159.621V159.621ZM347.241 158.551C347.463 158.551 347.685 158.534 347.905 158.5C348.076 158.475 348.246 158.44 348.413 158.395V159.387C348.215 159.471 348.006 159.527 347.792 159.555C347.548 159.597 347.301 159.619 347.053 159.621C345.4 159.621 344.573 158.749 344.573 157.004V151.91H343.343V151.285L344.573 150.746L345.12 148.918H345.87V150.902H348.35V151.91H345.866V156.949C345.837 157.377 345.968 157.8 346.233 158.137C346.36 158.276 346.516 158.385 346.691 158.457C346.865 158.528 347.053 158.561 347.241 158.551V158.551ZM351.421 159.465H350.121V150.903H351.421V159.465ZM350.014 148.582C350.004 148.464 350.018 148.345 350.055 148.233C350.093 148.121 350.154 148.018 350.233 147.93C350.306 147.861 350.392 147.808 350.486 147.772C350.58 147.737 350.68 147.72 350.78 147.723C350.98 147.72 351.174 147.796 351.319 147.934C351.4 148.02 351.462 148.122 351.501 148.234C351.54 148.346 351.555 148.464 351.546 148.582C351.555 148.7 351.54 148.82 351.501 148.932C351.462 149.044 351.4 149.147 351.319 149.234C351.248 149.304 351.163 149.358 351.071 149.395C350.978 149.432 350.879 149.45 350.78 149.449C350.679 149.452 350.578 149.434 350.484 149.397C350.39 149.36 350.305 149.305 350.233 149.234C350.154 149.146 350.094 149.042 350.057 148.93C350.019 148.818 350.005 148.7 350.014 148.582ZM356.046 159.465L352.796 150.903H354.186L356.03 155.981C356.313 156.739 356.558 157.511 356.764 158.294H356.827C356.979 157.713 357.162 157.14 357.373 156.578C357.678 155.711 358.361 153.819 359.424 150.902H360.815L357.561 159.465H356.046ZM365.803 159.621C365.25 159.65 364.696 159.563 364.179 159.363C363.662 159.164 363.193 158.858 362.803 158.465C362.029 157.581 361.634 156.427 361.703 155.254C361.641 154.07 362.005 152.904 362.729 151.965C363.061 151.565 363.481 151.248 363.956 151.036C364.431 150.825 364.948 150.725 365.467 150.746C365.943 150.723 366.419 150.807 366.859 150.99C367.3 151.173 367.694 151.451 368.014 151.805C368.666 152.586 369 153.582 368.952 154.598V155.418H363.052C363.017 156.249 363.288 157.063 363.814 157.707C364.078 157.975 364.396 158.183 364.747 158.318C365.098 158.452 365.474 158.511 365.849 158.488C366.79 158.484 367.721 158.287 368.583 157.91V159.065C368.165 159.25 367.729 159.393 367.283 159.491C366.795 159.584 366.299 159.628 365.803 159.621V159.621ZM365.451 151.832C365.144 151.818 364.839 151.871 364.555 151.987C364.27 152.103 364.015 152.28 363.806 152.504C363.367 153.028 363.114 153.682 363.085 154.365H367.562C367.607 153.694 367.413 153.028 367.015 152.486C366.822 152.265 366.58 152.091 366.309 151.978C366.038 151.864 365.745 151.815 365.452 151.832H365.451Z" fill="white"/>
<path d="M399.073 164C404.872 164 409.573 159.299 409.573 153.5C409.573 147.701 404.872 143 399.073 143C393.274 143 388.573 147.701 388.573 153.5C388.573 159.299 393.274 164 399.073 164Z" fill="white"/>
<g filter="url(#filter4_d_1607_2)">
<path d="M401.073 266.5H317.5C310.873 266.5 305.5 271.873 305.5 278.5V280.5C305.5 287.127 310.873 292.5 317.5 292.5H401.073C407.7 292.5 413.073 287.127 413.073 280.5V278.5C413.073 271.873 407.7 266.5 401.073 266.5Z" fill="#D2D2D2" stroke="#D3D3D3" stroke-width="0.5"/>
</g>
<path d="M343.828 285.465V274.043H345.156V285.465H343.828ZM353.953 285.465V279.926C353.997 279.364 353.827 278.807 353.477 278.365C353.278 278.179 353.043 278.037 352.786 277.948C352.529 277.86 352.256 277.826 351.985 277.849C351.624 277.818 351.26 277.866 350.919 277.992C350.579 278.118 350.27 278.317 350.016 278.576C349.535 279.279 349.314 280.128 349.391 280.976V285.465H348.091V276.903H349.146L349.357 278.075H349.42C349.691 277.648 350.079 277.308 350.537 277.095C351.037 276.859 351.584 276.74 352.137 276.747C352.981 276.683 353.816 276.951 354.465 277.493C354.751 277.817 354.967 278.196 355.102 278.606C355.236 279.016 355.285 279.45 355.246 279.88V285.465H353.953ZM363.18 285.465L362.922 284.246H362.86C362.526 284.705 362.088 285.079 361.582 285.336C361.078 285.541 360.536 285.638 359.992 285.621C359.269 285.662 358.557 285.428 358 284.965C357.752 284.724 357.559 284.433 357.434 284.111C357.309 283.788 357.256 283.443 357.277 283.098C357.277 281.369 358.66 280.462 361.425 280.379L362.878 280.332V279.801C362.921 279.269 362.767 278.739 362.444 278.313C362.26 278.139 362.041 278.006 361.802 277.924C361.563 277.841 361.309 277.81 361.057 277.833C360.211 277.867 359.383 278.092 358.635 278.489L358.235 277.497C358.674 277.261 359.14 277.08 359.622 276.958C360.116 276.827 360.624 276.76 361.134 276.758C361.949 276.692 362.759 276.935 363.404 277.438C363.673 277.73 363.877 278.074 364.004 278.45C364.131 278.825 364.178 279.223 364.142 279.618V285.465H363.18ZM360.25 284.551C360.946 284.59 361.63 284.351 362.15 283.887C362.388 283.642 362.573 283.35 362.692 283.03C362.811 282.71 362.861 282.369 362.841 282.028V281.255L361.541 281.31C360.77 281.285 360.004 281.45 359.311 281.79C359.088 281.928 358.906 282.124 358.786 282.357C358.665 282.591 358.611 282.852 358.627 283.114C358.614 283.313 358.645 283.512 358.719 283.697C358.793 283.882 358.907 284.049 359.053 284.184C359.394 284.448 359.82 284.579 360.25 284.551V284.551ZM370.234 285.621C369.7 285.653 369.165 285.567 368.667 285.369C368.17 285.172 367.722 284.867 367.355 284.477C366.624 283.562 366.261 282.408 366.335 281.239C366.258 280.042 366.627 278.86 367.37 277.919C367.745 277.518 368.204 277.205 368.714 277.003C369.224 276.8 369.772 276.712 370.32 276.746C370.735 276.746 371.149 276.791 371.554 276.879C371.889 276.942 372.215 277.047 372.523 277.192L372.123 278.292C371.819 278.172 371.506 278.077 371.186 278.007C370.891 277.937 370.589 277.899 370.286 277.894C368.547 277.894 367.677 279.003 367.677 281.222C367.622 282.078 367.847 282.928 368.316 283.645C368.538 283.928 368.826 284.153 369.154 284.299C369.482 284.446 369.841 284.511 370.2 284.488C370.957 284.48 371.704 284.323 372.4 284.027V285.176C371.724 285.495 370.981 285.648 370.234 285.621V285.621ZM377.2 284.551C377.422 284.551 377.644 284.534 377.864 284.5C378.035 284.475 378.205 284.44 378.372 284.395V285.387C378.172 285.471 377.961 285.528 377.746 285.555C377.502 285.597 377.255 285.619 377.008 285.621C375.352 285.621 374.524 284.749 374.524 283.004V277.91H373.3V277.285L374.527 276.746L375.074 274.918H375.824V276.902H378.3V277.91H375.82V282.949C375.791 283.377 375.922 283.8 376.187 284.137C376.315 284.277 376.472 284.386 376.647 284.458C376.822 284.53 377.011 284.561 377.2 284.551V284.551ZM381.375 285.465H380.075V276.903H381.375V285.465ZM379.969 274.582C379.959 274.464 379.973 274.345 380.011 274.233C380.048 274.121 380.109 274.018 380.188 273.93C380.261 273.861 380.347 273.808 380.441 273.772C380.535 273.737 380.635 273.72 380.735 273.723C380.936 273.72 381.129 273.796 381.274 273.934C381.355 274.02 381.417 274.122 381.456 274.234C381.495 274.346 381.511 274.464 381.501 274.582C381.51 274.7 381.495 274.82 381.456 274.932C381.417 275.044 381.355 275.147 381.274 275.234C381.203 275.304 381.119 275.358 381.026 275.395C380.934 275.432 380.835 275.45 380.735 275.449C380.634 275.452 380.534 275.434 380.44 275.397C380.346 275.36 380.26 275.305 380.188 275.234C380.11 275.146 380.05 275.042 380.012 274.93C379.974 274.818 379.96 274.7 379.969 274.582V274.582ZM386 285.465L382.75 276.903H384.141L385.985 281.981C386.269 282.739 386.514 283.511 386.719 284.294H386.782C386.934 283.713 387.115 283.141 387.325 282.579C387.63 281.712 388.313 279.82 389.376 276.903H390.767L387.516 285.465H386ZM395.758 285.621C395.205 285.65 394.652 285.563 394.135 285.363C393.618 285.164 393.149 284.858 392.758 284.465C391.984 283.581 391.589 282.427 391.658 281.254C391.596 280.07 391.96 278.904 392.684 277.965C393.016 277.565 393.436 277.248 393.911 277.036C394.386 276.825 394.903 276.726 395.422 276.746C395.899 276.723 396.374 276.807 396.814 276.99C397.255 277.173 397.649 277.451 397.969 277.805C398.621 278.586 398.956 279.582 398.907 280.598V281.418H393.007C392.972 282.249 393.243 283.063 393.769 283.707C394.033 283.974 394.35 284.182 394.7 284.317C395.051 284.452 395.425 284.51 395.8 284.488C396.741 284.484 397.672 284.287 398.534 283.91V285.065C398.116 285.25 397.681 285.393 397.234 285.491C396.748 285.584 396.253 285.628 395.758 285.621V285.621ZM395.406 277.832C395.1 277.818 394.794 277.871 394.51 277.987C394.226 278.103 393.97 278.28 393.761 278.504C393.322 279.028 393.068 279.682 393.039 280.365H397.516C397.561 279.694 397.367 279.028 396.969 278.486C396.776 278.265 396.534 278.091 396.263 277.978C395.993 277.864 395.699 277.815 395.406 277.832Z" fill="#606060"/>
<path d="M319.5 290C325.299 290 330 285.299 330 279.5C330 273.701 325.299 269 319.5 269C313.701 269 309 273.701 309 279.5C309 285.299 313.701 290 319.5 290Z" fill="white"/>
<g filter="url(#filter5_d_1607_2)">
<path d="M401.073 393.5H317.5C310.873 393.5 305.5 398.873 305.5 405.5V407.5C305.5 414.127 310.873 419.5 317.5 419.5H401.073C407.7 419.5 413.073 414.127 413.073 407.5V405.5C413.073 398.873 407.7 393.5 401.073 393.5Z" fill="#D2D2D2" stroke="#D3D3D3" stroke-width="0.5"/>
</g>
<path d="M343.828 412.465V401.043H345.156V412.465H343.828ZM353.953 412.465V406.926C353.997 406.364 353.827 405.807 353.477 405.365C353.278 405.179 353.043 405.037 352.786 404.948C352.529 404.86 352.256 404.826 351.985 404.849C351.624 404.818 351.26 404.866 350.919 404.992C350.579 405.118 350.27 405.317 350.016 405.576C349.535 406.279 349.314 407.128 349.391 407.976V412.465H348.091V403.903H349.146L349.357 405.075H349.42C349.691 404.648 350.079 404.308 350.537 404.095C351.037 403.859 351.584 403.74 352.137 403.747C352.981 403.683 353.816 403.951 354.465 404.493C354.751 404.817 354.967 405.196 355.102 405.606C355.236 406.016 355.285 406.45 355.246 406.88V412.465H353.953ZM363.18 412.465L362.922 411.246H362.86C362.526 411.705 362.088 412.079 361.582 412.336C361.078 412.541 360.536 412.638 359.992 412.621C359.269 412.662 358.557 412.428 358 411.965C357.752 411.724 357.559 411.433 357.434 411.111C357.309 410.788 357.256 410.443 357.277 410.098C357.277 408.369 358.66 407.462 361.425 407.379L362.878 407.332V406.801C362.921 406.269 362.767 405.739 362.444 405.313C362.26 405.139 362.041 405.006 361.802 404.924C361.563 404.841 361.309 404.81 361.057 404.833C360.211 404.867 359.383 405.092 358.635 405.489L358.235 404.497C358.674 404.261 359.14 404.08 359.622 403.958C360.116 403.827 360.624 403.76 361.134 403.758C361.949 403.692 362.759 403.935 363.404 404.438C363.673 404.73 363.877 405.074 364.004 405.45C364.131 405.825 364.178 406.223 364.142 406.618V412.465H363.18ZM360.25 411.551C360.946 411.59 361.63 411.351 362.15 410.887C362.388 410.642 362.573 410.35 362.692 410.03C362.811 409.71 362.861 409.369 362.841 409.028V408.255L361.541 408.31C360.77 408.285 360.004 408.45 359.311 408.79C359.088 408.928 358.906 409.124 358.786 409.357C358.665 409.591 358.611 409.852 358.627 410.114C358.614 410.313 358.645 410.512 358.719 410.697C358.793 410.882 358.907 411.049 359.053 411.184C359.394 411.448 359.82 411.579 360.25 411.551V411.551ZM370.234 412.621C369.7 412.653 369.165 412.567 368.667 412.369C368.17 412.172 367.722 411.867 367.355 411.477C366.624 410.562 366.261 409.408 366.335 408.239C366.258 407.042 366.627 405.86 367.37 404.919C367.745 404.518 368.204 404.205 368.714 404.003C369.224 403.8 369.772 403.712 370.32 403.746C370.735 403.746 371.149 403.791 371.554 403.879C371.889 403.942 372.215 404.047 372.523 404.192L372.123 405.292C371.819 405.172 371.506 405.077 371.186 405.007C370.891 404.937 370.589 404.899 370.286 404.894C368.547 404.894 367.677 406.003 367.677 408.222C367.622 409.078 367.847 409.928 368.316 410.645C368.538 410.928 368.826 411.153 369.154 411.299C369.482 411.446 369.841 411.511 370.2 411.488C370.957 411.48 371.704 411.323 372.4 411.027V412.176C371.724 412.495 370.981 412.648 370.234 412.621V412.621ZM377.2 411.551C377.422 411.551 377.644 411.534 377.864 411.5C378.035 411.475 378.205 411.44 378.372 411.395V412.387C378.172 412.471 377.961 412.528 377.746 412.555C377.502 412.597 377.255 412.619 377.008 412.621C375.352 412.621 374.524 411.749 374.524 410.004V404.91H373.3V404.285L374.527 403.746L375.074 401.918H375.824V403.902H378.3V404.91H375.82V409.949C375.791 410.377 375.922 410.8 376.187 411.137C376.315 411.277 376.472 411.386 376.647 411.458C376.822 411.53 377.011 411.561 377.2 411.551V411.551ZM381.375 412.465H380.075V403.903H381.375V412.465ZM379.969 401.582C379.959 401.464 379.973 401.345 380.011 401.233C380.048 401.121 380.109 401.018 380.188 400.93C380.261 400.861 380.347 400.808 380.441 400.772C380.535 400.737 380.635 400.72 380.735 400.723C380.936 400.72 381.129 400.796 381.274 400.934C381.355 401.02 381.417 401.122 381.456 401.234C381.495 401.346 381.511 401.464 381.501 401.582C381.51 401.7 381.495 401.82 381.456 401.932C381.417 402.044 381.355 402.147 381.274 402.234C381.203 402.304 381.119 402.358 381.026 402.395C380.934 402.432 380.835 402.45 380.735 402.449C380.634 402.452 380.534 402.434 380.44 402.397C380.346 402.36 380.26 402.305 380.188 402.234C380.11 402.146 380.05 402.042 380.012 401.93C379.974 401.818 379.96 401.7 379.969 401.582V401.582ZM386 412.465L382.75 403.903H384.141L385.985 408.981C386.269 409.739 386.514 410.511 386.719 411.294H386.782C386.934 410.713 387.115 410.141 387.325 409.579C387.63 408.712 388.313 406.82 389.376 403.903H390.767L387.516 412.465H386ZM395.758 412.621C395.205 412.65 394.652 412.563 394.135 412.363C393.618 412.164 393.149 411.858 392.758 411.465C391.984 410.581 391.589 409.427 391.658 408.254C391.596 407.07 391.96 405.904 392.684 404.965C393.016 404.565 393.436 404.248 393.911 404.036C394.386 403.825 394.903 403.726 395.422 403.746C395.899 403.723 396.374 403.807 396.814 403.99C397.255 404.173 397.649 404.451 397.969 404.805C398.621 405.586 398.956 406.582 398.907 407.598V408.418H393.007C392.972 409.249 393.243 410.063 393.769 410.707C394.033 410.974 394.35 411.182 394.7 411.317C395.051 411.452 395.425 411.51 395.8 411.488C396.741 411.484 397.672 411.287 398.534 410.91V412.065C398.116 412.25 397.681 412.393 397.234 412.491C396.748 412.584 396.253 412.628 395.758 412.621V412.621ZM395.406 404.832C395.1 404.818 394.794 404.871 394.51 404.987C394.226 405.103 393.97 405.28 393.761 405.504C393.322 406.028 393.068 406.682 393.039 407.365H397.516C397.561 406.694 397.367 406.028 396.969 405.486C396.776 405.265 396.534 405.091 396.263 404.978C395.993 404.864 395.699 404.815 395.406 404.832Z" fill="#606060"/>
<path d="M319.5 417C325.299 417 330 412.299 330 406.5C330 400.701 325.299 396 319.5 396C313.701 396 309 400.701 309 406.5C309 412.299 313.701 417 319.5 417Z" fill="white"/>
<path d="M621.461 88.5781V95.9688C621.461 96.8125 621.279 97.5521 620.914 98.1875C620.555 98.8177 620.031 99.3047 619.344 99.6484C618.661 99.987 617.844 100.156 616.891 100.156C615.474 100.156 614.372 99.7812 613.586 99.0312C612.799 98.2812 612.406 97.25 612.406 95.9375V88.5781H614.281V95.8047C614.281 96.7474 614.5 97.4427 614.938 97.8906C615.375 98.3385 616.047 98.5625 616.953 98.5625C618.714 98.5625 619.594 97.638 619.594 95.7891V88.5781H621.461ZM631.945 92.0312C631.945 93.224 631.555 94.138 630.773 94.7734C629.992 95.4089 628.88 95.7266 627.438 95.7266H626.25V100H624.383V88.5781H627.672C629.099 88.5781 630.167 88.8698 630.875 89.4531C631.589 90.0365 631.945 90.8958 631.945 92.0312ZM626.25 94.1562H627.242C628.201 94.1562 628.904 93.9896 629.352 93.6562C629.799 93.3229 630.023 92.8021 630.023 92.0938C630.023 91.4375 629.823 90.9479 629.422 90.625C629.021 90.3021 628.396 90.1406 627.547 90.1406H626.25V94.1562ZM643.516 94.1797C643.516 96.0651 642.992 97.5078 641.945 98.5078C640.898 99.5026 639.391 100 637.422 100H634.227V88.5781H637.758C639.576 88.5781 640.99 89.0677 642 90.0469C643.01 91.026 643.516 92.4036 643.516 94.1797ZM641.547 94.2422C641.547 91.5078 640.268 90.1406 637.711 90.1406H636.094V98.4297H637.422C640.172 98.4297 641.547 97.0339 641.547 94.2422ZM653.062 100L651.922 96.8281H647.555L646.438 100H644.469L648.742 88.5312H650.773L655.047 100H653.062ZM651.43 95.2188L650.359 92.1094C650.281 91.901 650.172 91.5729 650.031 91.125C649.896 90.6771 649.802 90.349 649.75 90.1406C649.609 90.7812 649.404 91.4818 649.133 92.2422L648.102 95.2188H651.43ZM660.5 100H658.633V90.1797H655.273V88.5781H663.859V90.1797H660.5V100ZM672.078 100H665.617V88.5781H672.078V90.1562H667.484V93.2656H671.789V94.8281H667.484V98.4141H672.078V100ZM683.844 94.1797C683.844 96.0651 683.32 97.5078 682.273 98.5078C681.227 99.5026 679.719 100 677.75 100H674.555V88.5781H678.086C679.904 88.5781 681.318 89.0677 682.328 90.0469C683.339 91.026 683.844 92.4036 683.844 94.1797ZM681.875 94.2422C681.875 91.5078 680.596 90.1406 678.039 90.1406H676.422V98.4297H677.75C680.5 98.4297 681.875 97.0339 681.875 94.2422Z" fill="#757575"/>
<path d="M614.289 162H606.781V160.883L609.789 157.859C610.706 156.932 611.31 156.271 611.602 155.875C611.893 155.479 612.112 155.094 612.258 154.719C612.404 154.344 612.477 153.94 612.477 153.508C612.477 152.898 612.292 152.417 611.922 152.062C611.552 151.703 611.039 151.523 610.383 151.523C609.909 151.523 609.458 151.602 609.031 151.758C608.609 151.914 608.138 152.198 607.617 152.609L606.93 151.727C607.982 150.852 609.128 150.414 610.367 150.414C611.44 150.414 612.281 150.69 612.891 151.242C613.5 151.789 613.805 152.526 613.805 153.453C613.805 154.177 613.602 154.893 613.195 155.602C612.789 156.31 612.029 157.206 610.914 158.289L608.414 160.734V160.797H614.289V162ZM623.508 156.273C623.508 158.247 623.195 159.721 622.57 160.695C621.951 161.669 621 162.156 619.719 162.156C618.49 162.156 617.555 161.659 616.914 160.664C616.273 159.664 615.953 158.201 615.953 156.273C615.953 154.284 616.263 152.807 616.883 151.844C617.503 150.88 618.448 150.398 619.719 150.398C620.958 150.398 621.898 150.901 622.539 151.906C623.185 152.911 623.508 154.367 623.508 156.273ZM617.266 156.273C617.266 157.935 617.461 159.146 617.852 159.906C618.242 160.661 618.865 161.039 619.719 161.039C620.583 161.039 621.208 160.656 621.594 159.891C621.984 159.12 622.18 157.914 622.18 156.273C622.18 154.633 621.984 153.432 621.594 152.672C621.208 151.906 620.583 151.523 619.719 151.523C618.865 151.523 618.242 151.901 617.852 152.656C617.461 153.406 617.266 154.612 617.266 156.273ZM632.602 162H625.094V160.883L628.102 157.859C629.018 156.932 629.622 156.271 629.914 155.875C630.206 155.479 630.424 155.094 630.57 154.719C630.716 154.344 630.789 153.94 630.789 153.508C630.789 152.898 630.604 152.417 630.234 152.062C629.865 151.703 629.352 151.523 628.695 151.523C628.221 151.523 627.771 151.602 627.344 151.758C626.922 151.914 626.451 152.198 625.93 152.609L625.242 151.727C626.294 150.852 627.44 150.414 628.68 150.414C629.753 150.414 630.594 150.69 631.203 151.242C631.812 151.789 632.117 152.526 632.117 153.453C632.117 154.177 631.914 154.893 631.508 155.602C631.102 156.31 630.341 157.206 629.227 158.289L626.727 160.734V160.797H632.602V162ZM641.82 156.273C641.82 158.247 641.508 159.721 640.883 160.695C640.263 161.669 639.312 162.156 638.031 162.156C636.802 162.156 635.867 161.659 635.227 160.664C634.586 159.664 634.266 158.201 634.266 156.273C634.266 154.284 634.576 152.807 635.195 151.844C635.815 150.88 636.76 150.398 638.031 150.398C639.271 150.398 640.211 150.901 640.852 151.906C641.497 152.911 641.82 154.367 641.82 156.273ZM635.578 156.273C635.578 157.935 635.773 159.146 636.164 159.906C636.555 160.661 637.177 161.039 638.031 161.039C638.896 161.039 639.521 160.656 639.906 159.891C640.297 159.12 640.492 157.914 640.492 156.273C640.492 154.633 640.297 153.432 639.906 152.672C639.521 151.906 638.896 151.523 638.031 151.523C637.177 151.523 636.555 151.901 636.164 152.656C635.773 153.406 635.578 154.612 635.578 156.273ZM643.281 158.305V157.117H647.117V158.305H643.281ZM656.133 156.273C656.133 158.247 655.82 159.721 655.195 160.695C654.576 161.669 653.625 162.156 652.344 162.156C651.115 162.156 650.18 161.659 649.539 160.664C648.898 159.664 648.578 158.201 648.578 156.273C648.578 154.284 648.888 152.807 649.508 151.844C650.128 150.88 651.073 150.398 652.344 150.398C653.583 150.398 654.523 150.901 655.164 151.906C655.81 152.911 656.133 154.367 656.133 156.273ZM649.891 156.273C649.891 157.935 650.086 159.146 650.477 159.906C650.867 160.661 651.49 161.039 652.344 161.039C653.208 161.039 653.833 160.656 654.219 159.891C654.609 159.12 654.805 157.914 654.805 156.273C654.805 154.633 654.609 153.432 654.219 152.672C653.833 151.906 653.208 151.523 652.344 151.523C651.49 151.523 650.867 151.901 650.477 152.656C650.086 153.406 649.891 154.612 649.891 156.273ZM657.852 157.117C657.852 154.872 658.286 153.195 659.156 152.086C660.031 150.971 661.323 150.414 663.031 150.414C663.62 150.414 664.083 150.464 664.422 150.562V151.68C664.021 151.549 663.562 151.484 663.047 151.484C661.823 151.484 660.888 151.867 660.242 152.633C659.596 153.393 659.242 154.591 659.18 156.227H659.273C659.846 155.331 660.753 154.883 661.992 154.883C663.018 154.883 663.826 155.193 664.414 155.812C665.008 156.432 665.305 157.273 665.305 158.336C665.305 159.523 664.979 160.458 664.328 161.141C663.682 161.818 662.807 162.156 661.703 162.156C660.521 162.156 659.583 161.714 658.891 160.828C658.198 159.938 657.852 158.701 657.852 157.117ZM661.688 161.055C662.427 161.055 663 160.823 663.406 160.359C663.818 159.891 664.023 159.216 664.023 158.336C664.023 157.581 663.833 156.987 663.453 156.555C663.073 156.122 662.505 155.906 661.75 155.906C661.281 155.906 660.852 156.003 660.461 156.195C660.07 156.388 659.758 156.654 659.523 156.992C659.294 157.331 659.18 157.682 659.18 158.047C659.18 158.583 659.284 159.083 659.492 159.547C659.701 160.01 659.995 160.378 660.375 160.648C660.76 160.919 661.198 161.055 661.688 161.055ZM666.75 158.305V157.117H670.586V158.305H666.75ZM679.539 162H672.031V160.883L675.039 157.859C675.956 156.932 676.56 156.271 676.852 155.875C677.143 155.479 677.362 155.094 677.508 154.719C677.654 154.344 677.727 153.94 677.727 153.508C677.727 152.898 677.542 152.417 677.172 152.062C676.802 151.703 676.289 151.523 675.633 151.523C675.159 151.523 674.708 151.602 674.281 151.758C673.859 151.914 673.388 152.198 672.867 152.609L672.18 151.727C673.232 150.852 674.378 150.414 675.617 150.414C676.69 150.414 677.531 150.69 678.141 151.242C678.75 151.789 679.055 152.526 679.055 153.453C679.055 154.177 678.852 154.893 678.445 155.602C678.039 156.31 677.279 157.206 676.164 158.289L673.664 160.734V160.797H679.539V162ZM688.695 162H681.188V160.883L684.195 157.859C685.112 156.932 685.716 156.271 686.008 155.875C686.299 155.479 686.518 155.094 686.664 154.719C686.81 154.344 686.883 153.94 686.883 153.508C686.883 152.898 686.698 152.417 686.328 152.062C685.958 151.703 685.445 151.523 684.789 151.523C684.315 151.523 683.865 151.602 683.438 151.758C683.016 151.914 682.544 152.198 682.023 152.609L681.336 151.727C682.388 150.852 683.534 150.414 684.773 150.414C685.846 150.414 686.688 150.69 687.297 151.242C687.906 151.789 688.211 152.526 688.211 153.453C688.211 154.177 688.008 154.893 687.602 155.602C687.195 156.31 686.435 157.206 685.32 158.289L682.82 160.734V160.797H688.695V162Z" fill="#757575"/>
<path d="M614.289 224H606.781V222.883L609.789 219.859C610.706 218.932 611.31 218.271 611.602 217.875C611.893 217.479 612.112 217.094 612.258 216.719C612.404 216.344 612.477 215.94 612.477 215.508C612.477 214.898 612.292 214.417 611.922 214.062C611.552 213.703 611.039 213.523 610.383 213.523C609.909 213.523 609.458 213.602 609.031 213.758C608.609 213.914 608.138 214.198 607.617 214.609L606.93 213.727C607.982 212.852 609.128 212.414 610.367 212.414C611.44 212.414 612.281 212.69 612.891 213.242C613.5 213.789 613.805 214.526 613.805 215.453C613.805 216.177 613.602 216.893 613.195 217.602C612.789 218.31 612.029 219.206 610.914 220.289L608.414 222.734V222.797H614.289V224ZM623.508 218.273C623.508 220.247 623.195 221.721 622.57 222.695C621.951 223.669 621 224.156 619.719 224.156C618.49 224.156 617.555 223.659 616.914 222.664C616.273 221.664 615.953 220.201 615.953 218.273C615.953 216.284 616.263 214.807 616.883 213.844C617.503 212.88 618.448 212.398 619.719 212.398C620.958 212.398 621.898 212.901 622.539 213.906C623.185 214.911 623.508 216.367 623.508 218.273ZM617.266 218.273C617.266 219.935 617.461 221.146 617.852 221.906C618.242 222.661 618.865 223.039 619.719 223.039C620.583 223.039 621.208 222.656 621.594 221.891C621.984 221.12 622.18 219.914 622.18 218.273C622.18 216.633 621.984 215.432 621.594 214.672C621.208 213.906 620.583 213.523 619.719 213.523C618.865 213.523 618.242 213.901 617.852 214.656C617.461 215.406 617.266 216.612 617.266 218.273ZM632.602 224H625.094V222.883L628.102 219.859C629.018 218.932 629.622 218.271 629.914 217.875C630.206 217.479 630.424 217.094 630.57 216.719C630.716 216.344 630.789 215.94 630.789 215.508C630.789 214.898 630.604 214.417 630.234 214.062C629.865 213.703 629.352 213.523 628.695 213.523C628.221 213.523 627.771 213.602 627.344 213.758C626.922 213.914 626.451 214.198 625.93 214.609L625.242 213.727C626.294 212.852 627.44 212.414 628.68 212.414C629.753 212.414 630.594 212.69 631.203 213.242C631.812 213.789 632.117 214.526 632.117 215.453C632.117 216.177 631.914 216.893 631.508 217.602C631.102 218.31 630.341 219.206 629.227 220.289L626.727 222.734V222.797H632.602V224ZM641.82 218.273C641.82 220.247 641.508 221.721 640.883 222.695C640.263 223.669 639.312 224.156 638.031 224.156C636.802 224.156 635.867 223.659 635.227 222.664C634.586 221.664 634.266 220.201 634.266 218.273C634.266 216.284 634.576 214.807 635.195 213.844C635.815 212.88 636.76 212.398 638.031 212.398C639.271 212.398 640.211 212.901 640.852 213.906C641.497 214.911 641.82 216.367 641.82 218.273ZM635.578 218.273C635.578 219.935 635.773 221.146 636.164 221.906C636.555 222.661 637.177 223.039 638.031 223.039C638.896 223.039 639.521 222.656 639.906 221.891C640.297 221.12 640.492 219.914 640.492 218.273C640.492 216.633 640.297 215.432 639.906 214.672C639.521 213.906 638.896 213.523 638.031 213.523C637.177 213.523 636.555 213.901 636.164 214.656C635.773 215.406 635.578 216.612 635.578 218.273ZM643.281 220.305V219.117H647.117V220.305H643.281ZM656.133 218.273C656.133 220.247 655.82 221.721 655.195 222.695C654.576 223.669 653.625 224.156 652.344 224.156C651.115 224.156 650.18 223.659 649.539 222.664C648.898 221.664 648.578 220.201 648.578 218.273C648.578 216.284 648.888 214.807 649.508 213.844C650.128 212.88 651.073 212.398 652.344 212.398C653.583 212.398 654.523 212.901 655.164 213.906C655.81 214.911 656.133 216.367 656.133 218.273ZM649.891 218.273C649.891 219.935 650.086 221.146 650.477 221.906C650.867 222.661 651.49 223.039 652.344 223.039C653.208 223.039 653.833 222.656 654.219 221.891C654.609 221.12 654.805 219.914 654.805 218.273C654.805 216.633 654.609 215.432 654.219 214.672C653.833 213.906 653.208 213.523 652.344 213.523C651.49 213.523 650.867 213.901 650.477 214.656C650.086 215.406 649.891 216.612 649.891 218.273ZM657.852 219.117C657.852 216.872 658.286 215.195 659.156 214.086C660.031 212.971 661.323 212.414 663.031 212.414C663.62 212.414 664.083 212.464 664.422 212.562V213.68C664.021 213.549 663.562 213.484 663.047 213.484C661.823 213.484 660.888 213.867 660.242 214.633C659.596 215.393 659.242 216.591 659.18 218.227H659.273C659.846 217.331 660.753 216.883 661.992 216.883C663.018 216.883 663.826 217.193 664.414 217.812C665.008 218.432 665.305 219.273 665.305 220.336C665.305 221.523 664.979 222.458 664.328 223.141C663.682 223.818 662.807 224.156 661.703 224.156C660.521 224.156 659.583 223.714 658.891 222.828C658.198 221.938 657.852 220.701 657.852 219.117ZM661.688 223.055C662.427 223.055 663 222.823 663.406 222.359C663.818 221.891 664.023 221.216 664.023 220.336C664.023 219.581 663.833 218.987 663.453 218.555C663.073 218.122 662.505 217.906 661.75 217.906C661.281 217.906 660.852 218.003 660.461 218.195C660.07 218.388 659.758 218.654 659.523 218.992C659.294 219.331 659.18 219.682 659.18 220.047C659.18 220.583 659.284 221.083 659.492 221.547C659.701 222.01 659.995 222.378 660.375 222.648C660.76 222.919 661.198 223.055 661.688 223.055ZM666.75 220.305V219.117H670.586V220.305H666.75ZM679.539 224H672.031V222.883L675.039 219.859C675.956 218.932 676.56 218.271 676.852 217.875C677.143 217.479 677.362 217.094 677.508 216.719C677.654 216.344 677.727 215.94 677.727 215.508C677.727 214.898 677.542 214.417 677.172 214.062C676.802 213.703 676.289 213.523 675.633 213.523C675.159 213.523 674.708 213.602 674.281 213.758C673.859 213.914 673.388 214.198 672.867 214.609L672.18 213.727C673.232 212.852 674.378 212.414 675.617 212.414C676.69 212.414 677.531 212.69 678.141 213.242C678.75 213.789 679.055 214.526 679.055 215.453C679.055 216.177 678.852 216.893 678.445 217.602C678.039 218.31 677.279 219.206 676.164 220.289L673.664 222.734V222.797H679.539V224ZM688.695 217.453C688.695 221.922 686.966 224.156 683.508 224.156C682.904 224.156 682.424 224.104 682.07 224V222.883C682.487 223.018 682.961 223.086 683.492 223.086C684.742 223.086 685.685 222.701 686.32 221.93C686.961 221.154 687.31 219.966 687.367 218.367H687.273C686.987 218.799 686.607 219.13 686.133 219.359C685.659 219.583 685.125 219.695 684.531 219.695C683.521 219.695 682.719 219.393 682.125 218.789C681.531 218.185 681.234 217.341 681.234 216.258C681.234 215.07 681.565 214.133 682.227 213.445C682.893 212.758 683.768 212.414 684.852 212.414C685.628 212.414 686.305 212.615 686.883 213.016C687.466 213.411 687.914 213.992 688.227 214.758C688.539 215.518 688.695 216.417 688.695 217.453ZM684.852 213.523C684.107 213.523 683.531 213.763 683.125 214.242C682.719 214.721 682.516 215.388 682.516 216.242C682.516 216.992 682.703 217.583 683.078 218.016C683.453 218.443 684.023 218.656 684.789 218.656C685.263 218.656 685.698 218.56 686.094 218.367C686.495 218.174 686.81 217.911 687.039 217.578C687.268 217.245 687.383 216.896 687.383 216.531C687.383 215.984 687.276 215.479 687.062 215.016C686.849 214.552 686.549 214.188 686.164 213.922C685.784 213.656 685.346 213.523 684.852 213.523Z" fill="#757575"/>
<path d="M614.289 286H606.781V284.883L609.789 281.859C610.706 280.932 611.31 280.271 611.602 279.875C611.893 279.479 612.112 279.094 612.258 278.719C612.404 278.344 612.477 277.94 612.477 277.508C612.477 276.898 612.292 276.417 611.922 276.062C611.552 275.703 611.039 275.523 610.383 275.523C609.909 275.523 609.458 275.602 609.031 275.758C608.609 275.914 608.138 276.198 607.617 276.609L606.93 275.727C607.982 274.852 609.128 274.414 610.367 274.414C611.44 274.414 612.281 274.69 612.891 275.242C613.5 275.789 613.805 276.526 613.805 277.453C613.805 278.177 613.602 278.893 613.195 279.602C612.789 280.31 612.029 281.206 610.914 282.289L608.414 284.734V284.797H614.289V286ZM623.508 280.273C623.508 282.247 623.195 283.721 622.57 284.695C621.951 285.669 621 286.156 619.719 286.156C618.49 286.156 617.555 285.659 616.914 284.664C616.273 283.664 615.953 282.201 615.953 280.273C615.953 278.284 616.263 276.807 616.883 275.844C617.503 274.88 618.448 274.398 619.719 274.398C620.958 274.398 621.898 274.901 622.539 275.906C623.185 276.911 623.508 278.367 623.508 280.273ZM617.266 280.273C617.266 281.935 617.461 283.146 617.852 283.906C618.242 284.661 618.865 285.039 619.719 285.039C620.583 285.039 621.208 284.656 621.594 283.891C621.984 283.12 622.18 281.914 622.18 280.273C622.18 278.633 621.984 277.432 621.594 276.672C621.208 275.906 620.583 275.523 619.719 275.523C618.865 275.523 618.242 275.901 617.852 276.656C617.461 277.406 617.266 278.612 617.266 280.273ZM632.602 286H625.094V284.883L628.102 281.859C629.018 280.932 629.622 280.271 629.914 279.875C630.206 279.479 630.424 279.094 630.57 278.719C630.716 278.344 630.789 277.94 630.789 277.508C630.789 276.898 630.604 276.417 630.234 276.062C629.865 275.703 629.352 275.523 628.695 275.523C628.221 275.523 627.771 275.602 627.344 275.758C626.922 275.914 626.451 276.198 625.93 276.609L625.242 275.727C626.294 274.852 627.44 274.414 628.68 274.414C629.753 274.414 630.594 274.69 631.203 275.242C631.812 275.789 632.117 276.526 632.117 277.453C632.117 278.177 631.914 278.893 631.508 279.602C631.102 280.31 630.341 281.206 629.227 282.289L626.727 284.734V284.797H632.602V286ZM641.82 280.273C641.82 282.247 641.508 283.721 640.883 284.695C640.263 285.669 639.312 286.156 638.031 286.156C636.802 286.156 635.867 285.659 635.227 284.664C634.586 283.664 634.266 282.201 634.266 280.273C634.266 278.284 634.576 276.807 635.195 275.844C635.815 274.88 636.76 274.398 638.031 274.398C639.271 274.398 640.211 274.901 640.852 275.906C641.497 276.911 641.82 278.367 641.82 280.273ZM635.578 280.273C635.578 281.935 635.773 283.146 636.164 283.906C636.555 284.661 637.177 285.039 638.031 285.039C638.896 285.039 639.521 284.656 639.906 283.891C640.297 283.12 640.492 281.914 640.492 280.273C640.492 278.633 640.297 277.432 639.906 276.672C639.521 275.906 638.896 275.523 638.031 275.523C637.177 275.523 636.555 275.901 636.164 276.656C635.773 277.406 635.578 278.612 635.578 280.273ZM643.281 282.305V281.117H647.117V282.305H643.281ZM656.133 280.273C656.133 282.247 655.82 283.721 655.195 284.695C654.576 285.669 653.625 286.156 652.344 286.156C651.115 286.156 650.18 285.659 649.539 284.664C648.898 283.664 648.578 282.201 648.578 280.273C648.578 278.284 648.888 276.807 649.508 275.844C650.128 274.88 651.073 274.398 652.344 274.398C653.583 274.398 654.523 274.901 655.164 275.906C655.81 276.911 656.133 278.367 656.133 280.273ZM649.891 280.273C649.891 281.935 650.086 283.146 650.477 283.906C650.867 284.661 651.49 285.039 652.344 285.039C653.208 285.039 653.833 284.656 654.219 283.891C654.609 283.12 654.805 281.914 654.805 280.273C654.805 278.633 654.609 277.432 654.219 276.672C653.833 275.906 653.208 275.523 652.344 275.523C651.49 275.523 650.867 275.901 650.477 276.656C650.086 277.406 649.891 278.612 649.891 280.273ZM659.164 286L663.898 275.773H657.672V274.578H665.273V275.617L660.602 286H659.164ZM666.75 282.305V281.117H670.586V282.305H666.75ZM679.602 280.273C679.602 282.247 679.289 283.721 678.664 284.695C678.044 285.669 677.094 286.156 675.812 286.156C674.583 286.156 673.648 285.659 673.008 284.664C672.367 283.664 672.047 282.201 672.047 280.273C672.047 278.284 672.357 276.807 672.977 275.844C673.596 274.88 674.542 274.398 675.812 274.398C677.052 274.398 677.992 274.901 678.633 275.906C679.279 276.911 679.602 278.367 679.602 280.273ZM673.359 280.273C673.359 281.935 673.555 283.146 673.945 283.906C674.336 284.661 674.958 285.039 675.812 285.039C676.677 285.039 677.302 284.656 677.688 283.891C678.078 283.12 678.273 281.914 678.273 280.273C678.273 278.633 678.078 277.432 677.688 276.672C677.302 275.906 676.677 275.523 675.812 275.523C674.958 275.523 674.336 275.901 673.945 276.656C673.555 277.406 673.359 278.612 673.359 280.273ZM684.758 279.023C685.961 279.023 686.906 279.323 687.594 279.922C688.286 280.516 688.633 281.331 688.633 282.367C688.633 283.549 688.255 284.477 687.5 285.148C686.75 285.82 685.714 286.156 684.391 286.156C683.104 286.156 682.122 285.951 681.445 285.539V284.289C681.81 284.523 682.263 284.708 682.805 284.844C683.346 284.974 683.88 285.039 684.406 285.039C685.323 285.039 686.034 284.823 686.539 284.391C687.049 283.958 687.305 283.333 687.305 282.516C687.305 280.922 686.328 280.125 684.375 280.125C683.88 280.125 683.219 280.201 682.391 280.352L681.719 279.922L682.148 274.578H687.828V275.773H683.258L682.969 279.203C683.568 279.083 684.164 279.023 684.758 279.023Z" fill="#757575"/>
<path d="M614.289 349H606.781V347.883L609.789 344.859C610.706 343.932 611.31 343.271 611.602 342.875C611.893 342.479 612.112 342.094 612.258 341.719C612.404 341.344 612.477 340.94 612.477 340.508C612.477 339.898 612.292 339.417 611.922 339.062C611.552 338.703 611.039 338.523 610.383 338.523C609.909 338.523 609.458 338.602 609.031 338.758C608.609 338.914 608.138 339.198 607.617 339.609L606.93 338.727C607.982 337.852 609.128 337.414 610.367 337.414C611.44 337.414 612.281 337.69 612.891 338.242C613.5 338.789 613.805 339.526 613.805 340.453C613.805 341.177 613.602 341.893 613.195 342.602C612.789 343.31 612.029 344.206 610.914 345.289L608.414 347.734V347.797H614.289V349ZM623.508 343.273C623.508 345.247 623.195 346.721 622.57 347.695C621.951 348.669 621 349.156 619.719 349.156C618.49 349.156 617.555 348.659 616.914 347.664C616.273 346.664 615.953 345.201 615.953 343.273C615.953 341.284 616.263 339.807 616.883 338.844C617.503 337.88 618.448 337.398 619.719 337.398C620.958 337.398 621.898 337.901 622.539 338.906C623.185 339.911 623.508 341.367 623.508 343.273ZM617.266 343.273C617.266 344.935 617.461 346.146 617.852 346.906C618.242 347.661 618.865 348.039 619.719 348.039C620.583 348.039 621.208 347.656 621.594 346.891C621.984 346.12 622.18 344.914 622.18 343.273C622.18 341.633 621.984 340.432 621.594 339.672C621.208 338.906 620.583 338.523 619.719 338.523C618.865 338.523 618.242 338.901 617.852 339.656C617.461 340.406 617.266 341.612 617.266 343.273ZM632.602 349H625.094V347.883L628.102 344.859C629.018 343.932 629.622 343.271 629.914 342.875C630.206 342.479 630.424 342.094 630.57 341.719C630.716 341.344 630.789 340.94 630.789 340.508C630.789 339.898 630.604 339.417 630.234 339.062C629.865 338.703 629.352 338.523 628.695 338.523C628.221 338.523 627.771 338.602 627.344 338.758C626.922 338.914 626.451 339.198 625.93 339.609L625.242 338.727C626.294 337.852 627.44 337.414 628.68 337.414C629.753 337.414 630.594 337.69 631.203 338.242C631.812 338.789 632.117 339.526 632.117 340.453C632.117 341.177 631.914 341.893 631.508 342.602C631.102 343.31 630.341 344.206 629.227 345.289L626.727 347.734V347.797H632.602V349ZM641.82 343.273C641.82 345.247 641.508 346.721 640.883 347.695C640.263 348.669 639.312 349.156 638.031 349.156C636.802 349.156 635.867 348.659 635.227 347.664C634.586 346.664 634.266 345.201 634.266 343.273C634.266 341.284 634.576 339.807 635.195 338.844C635.815 337.88 636.76 337.398 638.031 337.398C639.271 337.398 640.211 337.901 640.852 338.906C641.497 339.911 641.82 341.367 641.82 343.273ZM635.578 343.273C635.578 344.935 635.773 346.146 636.164 346.906C636.555 347.661 637.177 348.039 638.031 348.039C638.896 348.039 639.521 347.656 639.906 346.891C640.297 346.12 640.492 344.914 640.492 343.273C640.492 341.633 640.297 340.432 639.906 339.672C639.521 338.906 638.896 338.523 638.031 338.523C637.177 338.523 636.555 338.901 636.164 339.656C635.773 340.406 635.578 341.612 635.578 343.273ZM643.281 345.305V344.117H647.117V345.305H643.281ZM656.133 343.273C656.133 345.247 655.82 346.721 655.195 347.695C654.576 348.669 653.625 349.156 652.344 349.156C651.115 349.156 650.18 348.659 649.539 347.664C648.898 346.664 648.578 345.201 648.578 343.273C648.578 341.284 648.888 339.807 649.508 338.844C650.128 337.88 651.073 337.398 652.344 337.398C653.583 337.398 654.523 337.901 655.164 338.906C655.81 339.911 656.133 341.367 656.133 343.273ZM649.891 343.273C649.891 344.935 650.086 346.146 650.477 346.906C650.867 347.661 651.49 348.039 652.344 348.039C653.208 348.039 653.833 347.656 654.219 346.891C654.609 346.12 654.805 344.914 654.805 343.273C654.805 341.633 654.609 340.432 654.219 339.672C653.833 338.906 653.208 338.523 652.344 338.523C651.49 338.523 650.867 338.901 650.477 339.656C650.086 340.406 649.891 341.612 649.891 343.273ZM657.852 344.117C657.852 341.872 658.286 340.195 659.156 339.086C660.031 337.971 661.323 337.414 663.031 337.414C663.62 337.414 664.083 337.464 664.422 337.562V338.68C664.021 338.549 663.562 338.484 663.047 338.484C661.823 338.484 660.888 338.867 660.242 339.633C659.596 340.393 659.242 341.591 659.18 343.227H659.273C659.846 342.331 660.753 341.883 661.992 341.883C663.018 341.883 663.826 342.193 664.414 342.812C665.008 343.432 665.305 344.273 665.305 345.336C665.305 346.523 664.979 347.458 664.328 348.141C663.682 348.818 662.807 349.156 661.703 349.156C660.521 349.156 659.583 348.714 658.891 347.828C658.198 346.938 657.852 345.701 657.852 344.117ZM661.688 348.055C662.427 348.055 663 347.823 663.406 347.359C663.818 346.891 664.023 346.216 664.023 345.336C664.023 344.581 663.833 343.987 663.453 343.555C663.073 343.122 662.505 342.906 661.75 342.906C661.281 342.906 660.852 343.003 660.461 343.195C660.07 343.388 659.758 343.654 659.523 343.992C659.294 344.331 659.18 344.682 659.18 345.047C659.18 345.583 659.284 346.083 659.492 346.547C659.701 347.01 659.995 347.378 660.375 347.648C660.76 347.919 661.198 348.055 661.688 348.055ZM666.75 345.305V344.117H670.586V345.305H666.75ZM679.539 349H672.031V347.883L675.039 344.859C675.956 343.932 676.56 343.271 676.852 342.875C677.143 342.479 677.362 342.094 677.508 341.719C677.654 341.344 677.727 340.94 677.727 340.508C677.727 339.898 677.542 339.417 677.172 339.062C676.802 338.703 676.289 338.523 675.633 338.523C675.159 338.523 674.708 338.602 674.281 338.758C673.859 338.914 673.388 339.198 672.867 339.609L672.18 338.727C673.232 337.852 674.378 337.414 675.617 337.414C676.69 337.414 677.531 337.69 678.141 338.242C678.75 338.789 679.055 339.526 679.055 340.453C679.055 341.177 678.852 341.893 678.445 342.602C678.039 343.31 677.279 344.206 676.164 345.289L673.664 347.734V347.797H679.539V349ZM688.695 349H681.188V347.883L684.195 344.859C685.112 343.932 685.716 343.271 686.008 342.875C686.299 342.479 686.518 342.094 686.664 341.719C686.81 341.344 686.883 340.94 686.883 340.508C686.883 339.898 686.698 339.417 686.328 339.062C685.958 338.703 685.445 338.523 684.789 338.523C684.315 338.523 683.865 338.602 683.438 338.758C683.016 338.914 682.544 339.198 682.023 339.609L681.336 338.727C682.388 337.852 683.534 337.414 684.773 337.414C685.846 337.414 686.688 337.69 687.297 338.242C687.906 338.789 688.211 339.526 688.211 340.453C688.211 341.177 688.008 341.893 687.602 342.602C687.195 343.31 686.435 344.206 685.32 345.289L682.82 347.734V347.797H688.695V349Z" fill="#757575"/>
<path d="M614.289 413H606.781V411.883L609.789 408.859C610.706 407.932 611.31 407.271 611.602 406.875C611.893 406.479 612.112 406.094 612.258 405.719C612.404 405.344 612.477 404.94 612.477 404.508C612.477 403.898 612.292 403.417 611.922 403.062C611.552 402.703 611.039 402.523 610.383 402.523C609.909 402.523 609.458 402.602 609.031 402.758C608.609 402.914 608.138 403.198 607.617 403.609L606.93 402.727C607.982 401.852 609.128 401.414 610.367 401.414C611.44 401.414 612.281 401.69 612.891 402.242C613.5 402.789 613.805 403.526 613.805 404.453C613.805 405.177 613.602 405.893 613.195 406.602C612.789 407.31 612.029 408.206 610.914 409.289L608.414 411.734V411.797H614.289V413ZM623.508 407.273C623.508 409.247 623.195 410.721 622.57 411.695C621.951 412.669 621 413.156 619.719 413.156C618.49 413.156 617.555 412.659 616.914 411.664C616.273 410.664 615.953 409.201 615.953 407.273C615.953 405.284 616.263 403.807 616.883 402.844C617.503 401.88 618.448 401.398 619.719 401.398C620.958 401.398 621.898 401.901 622.539 402.906C623.185 403.911 623.508 405.367 623.508 407.273ZM617.266 407.273C617.266 408.935 617.461 410.146 617.852 410.906C618.242 411.661 618.865 412.039 619.719 412.039C620.583 412.039 621.208 411.656 621.594 410.891C621.984 410.12 622.18 408.914 622.18 407.273C622.18 405.633 621.984 404.432 621.594 403.672C621.208 402.906 620.583 402.523 619.719 402.523C618.865 402.523 618.242 402.901 617.852 403.656C617.461 404.406 617.266 405.612 617.266 407.273ZM632.602 413H625.094V411.883L628.102 408.859C629.018 407.932 629.622 407.271 629.914 406.875C630.206 406.479 630.424 406.094 630.57 405.719C630.716 405.344 630.789 404.94 630.789 404.508C630.789 403.898 630.604 403.417 630.234 403.062C629.865 402.703 629.352 402.523 628.695 402.523C628.221 402.523 627.771 402.602 627.344 402.758C626.922 402.914 626.451 403.198 625.93 403.609L625.242 402.727C626.294 401.852 627.44 401.414 628.68 401.414C629.753 401.414 630.594 401.69 631.203 402.242C631.812 402.789 632.117 403.526 632.117 404.453C632.117 405.177 631.914 405.893 631.508 406.602C631.102 407.31 630.341 408.206 629.227 409.289L626.727 411.734V411.797H632.602V413ZM641.82 407.273C641.82 409.247 641.508 410.721 640.883 411.695C640.263 412.669 639.312 413.156 638.031 413.156C636.802 413.156 635.867 412.659 635.227 411.664C634.586 410.664 634.266 409.201 634.266 407.273C634.266 405.284 634.576 403.807 635.195 402.844C635.815 401.88 636.76 401.398 638.031 401.398C639.271 401.398 640.211 401.901 640.852 402.906C641.497 403.911 641.82 405.367 641.82 407.273ZM635.578 407.273C635.578 408.935 635.773 410.146 636.164 410.906C636.555 411.661 637.177 412.039 638.031 412.039C638.896 412.039 639.521 411.656 639.906 410.891C640.297 410.12 640.492 408.914 640.492 407.273C640.492 405.633 640.297 404.432 639.906 403.672C639.521 402.906 638.896 402.523 638.031 402.523C637.177 402.523 636.555 402.901 636.164 403.656C635.773 404.406 635.578 405.612 635.578 407.273ZM643.281 409.305V408.117H647.117V409.305H643.281ZM656.133 407.273C656.133 409.247 655.82 410.721 655.195 411.695C654.576 412.669 653.625 413.156 652.344 413.156C651.115 413.156 650.18 412.659 649.539 411.664C648.898 410.664 648.578 409.201 648.578 407.273C648.578 405.284 648.888 403.807 649.508 402.844C650.128 401.88 651.073 401.398 652.344 401.398C653.583 401.398 654.523 401.901 655.164 402.906C655.81 403.911 656.133 405.367 656.133 407.273ZM649.891 407.273C649.891 408.935 650.086 410.146 650.477 410.906C650.867 411.661 651.49 412.039 652.344 412.039C653.208 412.039 653.833 411.656 654.219 410.891C654.609 410.12 654.805 408.914 654.805 407.273C654.805 405.633 654.609 404.432 654.219 403.672C653.833 402.906 653.208 402.523 652.344 402.523C651.49 402.523 650.867 402.901 650.477 403.656C650.086 404.406 649.891 405.612 649.891 407.273ZM657.852 408.117C657.852 405.872 658.286 404.195 659.156 403.086C660.031 401.971 661.323 401.414 663.031 401.414C663.62 401.414 664.083 401.464 664.422 401.562V402.68C664.021 402.549 663.562 402.484 663.047 402.484C661.823 402.484 660.888 402.867 660.242 403.633C659.596 404.393 659.242 405.591 659.18 407.227H659.273C659.846 406.331 660.753 405.883 661.992 405.883C663.018 405.883 663.826 406.193 664.414 406.812C665.008 407.432 665.305 408.273 665.305 409.336C665.305 410.523 664.979 411.458 664.328 412.141C663.682 412.818 662.807 413.156 661.703 413.156C660.521 413.156 659.583 412.714 658.891 411.828C658.198 410.938 657.852 409.701 657.852 408.117ZM661.688 412.055C662.427 412.055 663 411.823 663.406 411.359C663.818 410.891 664.023 410.216 664.023 409.336C664.023 408.581 663.833 407.987 663.453 407.555C663.073 407.122 662.505 406.906 661.75 406.906C661.281 406.906 660.852 407.003 660.461 407.195C660.07 407.388 659.758 407.654 659.523 407.992C659.294 408.331 659.18 408.682 659.18 409.047C659.18 409.583 659.284 410.083 659.492 410.547C659.701 411.01 659.995 411.378 660.375 411.648C660.76 411.919 661.198 412.055 661.688 412.055ZM666.75 409.305V408.117H670.586V409.305H666.75ZM676.836 413H675.57V404.859C675.57 404.182 675.591 403.542 675.633 402.938C675.523 403.047 675.401 403.161 675.266 403.281C675.13 403.401 674.51 403.909 673.406 404.805L672.719 403.914L675.742 401.578H676.836V413ZM684.758 406.023C685.961 406.023 686.906 406.323 687.594 406.922C688.286 407.516 688.633 408.331 688.633 409.367C688.633 410.549 688.255 411.477 687.5 412.148C686.75 412.82 685.714 413.156 684.391 413.156C683.104 413.156 682.122 412.951 681.445 412.539V411.289C681.81 411.523 682.263 411.708 682.805 411.844C683.346 411.974 683.88 412.039 684.406 412.039C685.323 412.039 686.034 411.823 686.539 411.391C687.049 410.958 687.305 410.333 687.305 409.516C687.305 407.922 686.328 407.125 684.375 407.125C683.88 407.125 683.219 407.201 682.391 407.352L681.719 406.922L682.148 401.578H687.828V402.773H683.258L682.969 406.203C683.568 406.083 684.164 406.023 684.758 406.023Z" fill="#757575"/>
</g>
<defs>
<filter id="filter0_d_1607_2" x="-188" y="60" width="1142" height="390" filterUnits="userSpaceOnUse" color-interpolation-filters="sRGB">
<feFlood flood-opacity="0" result="BackgroundImageFix"/>
<feColorMatrix in="SourceAlpha" type="matrix" values="0 0 0 0 0 0 0 0 0 0 0 0 0 0 0 0 0 0 127 0" result="hardAlpha"/>
<feOffset dy="3"/>
<feGaussianBlur stdDeviation="3"/>
<feColorMatrix type="matrix" values="0 0 0 0 0 0 0 0 0 0 0 0 0 0 0 0 0 0 0.161 0"/>
<feBlend mode="normal" in2="BackgroundImageFix" result="effect1_dropShadow_1607_2"/>
<feBlend mode="normal" in="SourceGraphic" in2="effect1_dropShadow_1607_2" result="shape"/>
</filter>
<filter id="filter1_d_1607_2" x="299.25" y="201.25" width="120.073" height="38.5" filterUnits="userSpaceOnUse" color-interpolation-filters="sRGB">
<feFlood flood-opacity="0" result="BackgroundImageFix"/>
<feColorMatrix in="SourceAlpha" type="matrix" values="0 0 0 0 0 0 0 0 0 0 0 0 0 0 0 0 0 0 127 0" result="hardAlpha"/>
<feOffset dy="3"/>
<feGaussianBlur stdDeviation="3"/>
<feColorMatrix type="matrix" values="0 0 0 0 0 0 0 0 0 0 0 0 0 0 0 0 0 0 0.161 0"/>
<feBlend mode="normal" in2="BackgroundImageFix" result="effect1_dropShadow_1607_2"/>
<feBlend mode="normal" in="SourceGraphic" in2="effect1_dropShadow_1607_2" result="shape"/>
</filter>
<filter id="filter2_d_1607_2" x="299.25" y="326.25" width="120.073" height="38.5" filterUnits="userSpaceOnUse" color-interpolation-filters="sRGB">
<feFlood flood-opacity="0" result="BackgroundImageFix"/>
<feColorMatrix in="SourceAlpha" type="matrix" values="0 0 0 0 0 0 0 0 0 0 0 0 0 0 0 0 0 0 127 0" result="hardAlpha"/>
<feOffset dy="3"/>
<feGaussianBlur stdDeviation="3"/>
<feColorMatrix type="matrix" values="0 0 0 0 0 0 0 0 0 0 0 0 0 0 0 0 0 0 0.161 0"/>
<feBlend mode="normal" in2="BackgroundImageFix" result="effect1_dropShadow_1607_2"/>
<feBlend mode="normal" in="SourceGraphic" in2="effect1_dropShadow_1607_2" result="shape"/>
</filter>
<filter id="filter3_d_1607_2" x="299.25" y="137.25" width="120.073" height="38.5" filterUnits="userSpaceOnUse" color-interpolation-filters="sRGB">
<feFlood flood-opacity="0" result="BackgroundImageFix"/>
<feColorMatrix in="SourceAlpha" type="matrix" values="0 0 0 0 0 0 0 0 0 0 0 0 0 0 0 0 0 0 127 0" result="hardAlpha"/>
<feOffset dy="3"/>
<feGaussianBlur stdDeviation="3"/>
<feColorMatrix type="matrix" values="0 0 0 0 0 0 0 0 0 0 0 0 0 0 0 0 0 0 0.161 0"/>
<feBlend mode="normal" in2="BackgroundImageFix" result="effect1_dropShadow_1607_2"/>
<feBlend mode="normal" in="SourceGraphic" in2="effect1_dropShadow_1607_2" result="shape"/>
</filter>
<filter id="filter4_d_1607_2" x="299.25" y="263.25" width="120.073" height="38.5" filterUnits="userSpaceOnUse" color-interpolation-filters="sRGB">
<feFlood flood-opacity="0" result="BackgroundImageFix"/>
<feColorMatrix in="SourceAlpha" type="matrix" values="0 0 0 0 0 0 0 0 0 0 0 0 0 0 0 0 0 0 127 0" result="hardAlpha"/>
<feOffset dy="3"/>
<feGaussianBlur stdDeviation="3"/>
<feColorMatrix type="matrix" values="0 0 0 0 0 0 0 0 0 0 0 0 0 0 0 0 0 0 0.161 0"/>
<feBlend mode="normal" in2="BackgroundImageFix" result="effect1_dropShadow_1607_2"/>
<feBlend mode="normal" in="SourceGraphic" in2="effect1_dropShadow_1607_2" result="shape"/>
</filter>
<filter id="filter5_d_1607_2" x="299.25" y="390.25" width="120.073" height="38.5" filterUnits="userSpaceOnUse" color-interpolation-filters="sRGB">
<feFlood flood-opacity="0" result="BackgroundImageFix"/>
<feColorMatrix in="SourceAlpha" type="matrix" values="0 0 0 0 0 0 0 0 0 0 0 0 0 0 0 0 0 0 127 0" result="hardAlpha"/>
<feOffset dy="3"/>
<feGaussianBlur stdDeviation="3"/>
<feColorMatrix type="matrix" values="0 0 0 0 0 0 0 0 0 0 0 0 0 0 0 0 0 0 0.161 0"/>
<feBlend mode="normal" in2="BackgroundImageFix" result="effect1_dropShadow_1607_2"/>
<feBlend mode="normal" in="SourceGraphic" in2="effect1_dropShadow_1607_2" result="shape"/>
</filter>
<linearGradient id="paint0_linear_1607_2" x1="0" y1="250" x2="720" y2="250" gradientUnits="userSpaceOnUse">
<stop stop-color="#91AFCD"/>
<stop offset="1" stop-color="#495867"/>
</linearGradient>
<clipPath id="clip0_1607_2">
<rect width="555" height="437" fill="white" transform="translate(165 31)"/>
</clipPath>
</defs>
</svg>
