<svg width="1080" height="445" viewBox="0 0 1080 445" fill="none" xmlns="http://www.w3.org/2000/svg">
<rect width="1080" height="445" fill="#202020"/>
<path d="M534.406 244.241V400.796H615V338.961L534.406 244.241Z" fill="#E65100"/>
<path d="M555.613 346.502H589.37L572.491 326.665L555.613 306.828V346.502Z" fill="#202020"/>
<rect x="555.611" y="373.189" width="17.5277" height="28.4202" fill="#202020"/>
<circle cx="529.852" cy="102.903" r="57.9032" fill="#2196F3"/>
<path d="M534.484 240.713L477.702 128.095C471.876 116.542 480.274 102.904 493.213 102.904H534.484V240.713Z" fill="#2196F3"/>
<circle cx="529.852" cy="102.903" r="31.2677" fill="#202020"/>
<path d="M714.54 338.35L713.76 344.65H718.02V346.3H713.55L712.86 352H711.24L711.93 346.3H705.78L705.06 352H703.44L704.13 346.3H699.87V344.65H704.34L705.12 338.35H700.83V336.7H705.33L706.02 331H707.67L706.95 336.7H713.13L713.82 331H715.44L714.75 336.7H718.98V338.35H714.54ZM712.92 338.35H706.77L705.96 344.65H712.14L712.92 338.35ZM738.459 350.08V352H723.609V331H738.009V332.92H725.829V340.39H736.689V342.28H725.829V350.08H738.459ZM750.348 339.43C751.728 339.43 752.948 339.69 754.008 340.21C755.088 340.73 755.928 341.47 756.528 342.43C757.128 343.37 757.428 344.47 757.428 345.73C757.428 347.01 757.118 348.14 756.498 349.12C755.878 350.1 755.018 350.86 753.918 351.4C752.838 351.92 751.618 352.18 750.258 352.18C747.478 352.18 745.348 351.27 743.868 349.45C742.388 347.61 741.648 345.02 741.648 341.68C741.648 339.34 742.048 337.36 742.848 335.74C743.648 334.12 744.768 332.9 746.208 332.08C747.648 331.24 749.328 330.82 751.248 330.82C753.328 330.82 754.988 331.2 756.228 331.96L755.358 333.7C754.358 333.04 752.998 332.71 751.278 332.71C748.958 332.71 747.138 333.45 745.818 334.93C744.498 336.39 743.838 338.52 743.838 341.32C743.838 341.82 743.868 342.39 743.928 343.03C744.448 341.89 745.278 341.01 746.418 340.39C747.558 339.75 748.868 339.43 750.348 339.43ZM750.168 350.35C751.688 350.35 752.918 349.94 753.858 349.12C754.818 348.28 755.298 347.17 755.298 345.79C755.298 344.41 754.818 343.31 753.858 342.49C752.918 341.67 751.638 341.26 750.018 341.26C748.958 341.26 748.018 341.46 747.198 341.86C746.398 342.26 745.768 342.81 745.308 343.51C744.848 344.21 744.618 344.99 744.618 345.85C744.618 346.65 744.828 347.39 745.248 348.07C745.688 348.75 746.328 349.3 747.168 349.72C748.008 350.14 749.008 350.35 750.168 350.35ZM765.75 339.61C768.79 339.61 771 340.16 772.38 341.26C773.78 342.34 774.48 343.86 774.48 345.82C774.48 347.04 774.19 348.13 773.61 349.09C773.05 350.05 772.2 350.81 771.06 351.37C769.92 351.91 768.52 352.18 766.86 352.18C765.36 352.18 763.93 351.94 762.57 351.46C761.23 350.96 760.15 350.3 759.33 349.48L760.38 347.77C761.08 348.49 762 349.08 763.14 349.54C764.28 349.98 765.51 350.2 766.83 350.2C768.57 350.2 769.91 349.81 770.85 349.03C771.81 348.25 772.29 347.21 772.29 345.91C772.29 344.47 771.75 343.38 770.67 342.64C769.61 341.9 767.81 341.53 765.27 341.53H760.8L761.88 331H773.37V332.92H763.77L763.05 339.61H765.75ZM783.342 331V352H781.182V332.92H776.232V331H783.342ZM797.032 352.18C795.412 352.18 793.962 351.75 792.682 350.89C791.422 350.03 790.432 348.8 789.712 347.2C789.012 345.58 788.662 343.68 788.662 341.5C788.662 339.32 789.012 337.43 789.712 335.83C790.432 334.21 791.422 332.97 792.682 332.11C793.962 331.25 795.412 330.82 797.032 330.82C798.652 330.82 800.092 331.25 801.352 332.11C802.632 332.97 803.632 334.21 804.352 335.83C805.072 337.43 805.432 339.32 805.432 341.5C805.432 343.68 805.072 345.58 804.352 347.2C803.632 348.8 802.632 350.03 801.352 350.89C800.092 351.75 798.652 352.18 797.032 352.18ZM797.032 350.2C798.252 350.2 799.322 349.86 800.242 349.18C801.182 348.5 801.912 347.51 802.432 346.21C802.952 344.91 803.212 343.34 803.212 341.5C803.212 339.66 802.952 338.09 802.432 336.79C801.912 335.49 801.182 334.5 800.242 333.82C799.322 333.14 798.252 332.8 797.032 332.8C795.812 332.8 794.732 333.14 793.792 333.82C792.872 334.5 792.152 335.49 791.632 336.79C791.112 338.09 790.852 339.66 790.852 341.5C790.852 343.34 791.112 344.91 791.632 346.21C792.152 347.51 792.872 348.5 793.792 349.18C794.732 349.86 795.812 350.2 797.032 350.2ZM817.195 352.18C815.575 352.18 814.125 351.75 812.845 350.89C811.585 350.03 810.595 348.8 809.875 347.2C809.175 345.58 808.825 343.68 808.825 341.5C808.825 339.32 809.175 337.43 809.875 335.83C810.595 334.21 811.585 332.97 812.845 332.11C814.125 331.25 815.575 330.82 817.195 330.82C818.815 330.82 820.255 331.25 821.515 332.11C822.795 332.97 823.795 334.21 824.515 335.83C825.235 337.43 825.595 339.32 825.595 341.5C825.595 343.68 825.235 345.58 824.515 347.2C823.795 348.8 822.795 350.03 821.515 350.89C820.255 351.75 818.815 352.18 817.195 352.18ZM817.195 350.2C818.415 350.2 819.485 349.86 820.405 349.18C821.345 348.5 822.075 347.51 822.595 346.21C823.115 344.91 823.375 343.34 823.375 341.5C823.375 339.66 823.115 338.09 822.595 336.79C822.075 335.49 821.345 334.5 820.405 333.82C819.485 333.14 818.415 332.8 817.195 332.8C815.975 332.8 814.895 333.14 813.955 333.82C813.035 334.5 812.315 335.49 811.795 336.79C811.275 338.09 811.015 339.66 811.015 341.5C811.015 343.34 811.275 344.91 811.795 346.21C812.315 347.51 813.035 348.5 813.955 349.18C814.895 349.86 815.975 350.2 817.195 350.2ZM710.28 368C712.96 368 715.06 368.64 716.58 369.92C718.1 371.2 718.86 372.96 718.86 375.2C718.86 377.44 718.1 379.2 716.58 380.48C715.06 381.74 712.96 382.37 710.28 382.37H704.64V389H702.42V368H710.28ZM710.22 380.42C712.3 380.42 713.89 379.97 714.99 379.07C716.09 378.15 716.64 376.86 716.64 375.2C716.64 373.5 716.09 372.2 714.99 371.3C713.89 370.38 712.3 369.92 710.22 369.92H704.64V380.42H710.22ZM732.567 389.18C729.847 389.18 727.727 388.4 726.207 386.84C724.687 385.28 723.927 383.01 723.927 380.03V368H726.147V379.94C726.147 382.38 726.697 384.2 727.797 385.4C728.897 386.6 730.487 387.2 732.567 387.2C734.667 387.2 736.267 386.6 737.367 385.4C738.467 384.2 739.017 382.38 739.017 379.94V368H741.177V380.03C741.177 383.01 740.417 385.28 738.897 386.84C737.397 388.4 735.287 389.18 732.567 389.18ZM762.506 389L757.706 382.25C757.166 382.31 756.606 382.34 756.026 382.34H750.386V389H748.166V368H756.026C758.706 368 760.806 368.64 762.326 369.92C763.846 371.2 764.606 372.96 764.606 375.2C764.606 376.84 764.186 378.23 763.346 379.37C762.526 380.49 761.346 381.3 759.806 381.8L764.936 389H762.506ZM755.966 380.45C758.046 380.45 759.636 379.99 760.736 379.07C761.836 378.15 762.386 376.86 762.386 375.2C762.386 373.5 761.836 372.2 760.736 371.3C759.636 370.38 758.046 369.92 755.966 369.92H750.386V380.45H755.966ZM784.996 387.08V389H770.146V368H784.546V369.92H772.366V377.39H783.226V379.28H772.366V387.08H784.996ZM807.846 389.18C805.766 389.18 803.876 388.72 802.176 387.8C800.496 386.86 799.176 385.58 798.216 383.96C797.276 382.34 796.806 380.52 796.806 378.5C796.806 376.48 797.276 374.66 798.216 373.04C799.176 371.42 800.496 370.15 802.176 369.23C803.876 368.29 805.766 367.82 807.846 367.82C809.926 367.82 811.796 368.28 813.456 369.2C815.136 370.12 816.456 371.4 817.416 373.04C818.376 374.66 818.856 376.48 818.856 378.5C818.856 380.52 818.376 382.35 817.416 383.99C816.456 385.61 815.136 386.88 813.456 387.8C811.796 388.72 809.926 389.18 807.846 389.18ZM807.846 387.2C809.506 387.2 811.006 386.83 812.346 386.09C813.686 385.33 814.736 384.29 815.496 382.97C816.256 381.63 816.636 380.14 816.636 378.5C816.636 376.86 816.256 375.38 815.496 374.06C814.736 372.72 813.686 371.68 812.346 370.94C811.006 370.18 809.506 369.8 807.846 369.8C806.186 369.8 804.676 370.18 803.316 370.94C801.976 371.68 800.916 372.72 800.136 374.06C799.376 375.38 798.996 376.86 798.996 378.5C798.996 380.14 799.376 381.63 800.136 382.97C800.916 384.29 801.976 385.33 803.316 386.09C804.676 386.83 806.186 387.2 807.846 387.2ZM838.472 389L833.672 382.25C833.132 382.31 832.572 382.34 831.992 382.34H826.352V389H824.132V368H831.992C834.672 368 836.772 368.64 838.292 369.92C839.812 371.2 840.572 372.96 840.572 375.2C840.572 376.84 840.152 378.23 839.312 379.37C838.492 380.49 837.312 381.3 835.772 381.8L840.902 389H838.472ZM831.932 380.45C834.012 380.45 835.602 379.99 836.702 379.07C837.802 378.15 838.352 376.86 838.352 375.2C838.352 373.5 837.802 372.2 836.702 371.3C835.602 370.38 834.012 369.92 831.932 369.92H826.352V380.45H831.932ZM859.282 383.39H847.582L845.062 389H842.752L852.352 368H854.542L864.142 389H861.802L859.282 383.39ZM858.472 381.59L853.432 370.31L848.392 381.59H858.472ZM885.466 368V389H883.636L870.136 371.96V389H867.916V368H869.746L883.276 385.04V368H885.466ZM907.41 378.5H909.54V386.51C908.56 387.37 907.4 388.03 906.06 388.49C904.72 388.95 903.31 389.18 901.83 389.18C899.73 389.18 897.84 388.72 896.16 387.8C894.48 386.88 893.16 385.61 892.2 383.99C891.24 382.35 890.76 380.52 890.76 378.5C890.76 376.48 891.24 374.66 892.2 373.04C893.16 371.4 894.48 370.12 896.16 369.2C897.84 368.28 899.74 367.82 901.86 367.82C903.46 367.82 904.93 368.08 906.27 368.6C907.61 369.1 908.74 369.85 909.66 370.85L908.28 372.26C906.62 370.62 904.51 369.8 901.95 369.8C900.25 369.8 898.71 370.18 897.33 370.94C895.97 371.68 894.9 372.72 894.12 374.06C893.34 375.38 892.95 376.86 892.95 378.5C892.95 380.14 893.34 381.62 894.12 382.94C894.9 384.26 895.97 385.3 897.33 386.06C898.69 386.82 900.22 387.2 901.92 387.2C904.08 387.2 905.91 386.66 907.41 385.58V378.5ZM930.973 387.08V389H916.123V368H930.523V369.92H918.343V377.39H929.203V379.28H918.343V387.08H930.973Z" fill="white"/>
<rect x="602" y="361" width="91" height="1" fill="white"/>
<circle cx="602.5" cy="361.5" r="1.5" fill="white"/>
<path d="M284.48 81.35L283.7 87.65H287.96V89.3H283.49L282.8 95H281.18L281.87 89.3H275.72L275 95H273.38L274.07 89.3H269.81V87.65H274.28L275.06 81.35H270.77V79.7H275.27L275.96 74H277.61L276.89 79.7H283.07L283.76 74H285.38L284.69 79.7H288.92V81.35H284.48ZM282.86 81.35H276.71L275.9 87.65H282.08L282.86 81.35ZM306.029 93.08V95H291.299V93.47L300.029 84.92C301.129 83.84 301.869 82.91 302.249 82.13C302.649 81.33 302.849 80.53 302.849 79.73C302.849 78.49 302.419 77.53 301.559 76.85C300.719 76.15 299.509 75.8 297.929 75.8C295.469 75.8 293.559 76.58 292.199 78.14L290.669 76.82C291.489 75.86 292.529 75.12 293.789 74.6C295.069 74.08 296.509 73.82 298.109 73.82C300.249 73.82 301.939 74.33 303.179 75.35C304.439 76.35 305.069 77.73 305.069 79.49C305.069 80.57 304.829 81.61 304.349 82.61C303.869 83.61 302.959 84.76 301.619 86.06L294.479 93.08H306.029ZM314.86 74V95H312.7V75.92H307.75V74H314.86ZM326.72 73.82C329.5 73.82 331.63 74.74 333.11 76.58C334.59 78.4 335.33 80.98 335.33 84.32C335.33 86.66 334.93 88.64 334.13 90.26C333.33 91.88 332.21 93.11 330.77 93.95C329.33 94.77 327.65 95.18 325.73 95.18C323.65 95.18 321.99 94.8 320.75 94.04L321.62 92.3C322.62 92.96 323.98 93.29 325.7 93.29C328.02 93.29 329.84 92.56 331.16 91.1C332.48 89.62 333.14 87.48 333.14 84.68C333.14 84.16 333.11 83.59 333.05 82.97C332.53 84.11 331.7 85 330.56 85.64C329.42 86.26 328.11 86.57 326.63 86.57C325.25 86.57 324.02 86.31 322.94 85.79C321.88 85.27 321.05 84.54 320.45 83.6C319.85 82.64 319.55 81.53 319.55 80.27C319.55 78.99 319.86 77.86 320.48 76.88C321.1 75.9 321.95 75.15 323.03 74.63C324.13 74.09 325.36 73.82 326.72 73.82ZM326.96 84.74C328.02 84.74 328.95 84.54 329.75 84.14C330.57 83.74 331.21 83.19 331.67 82.49C332.13 81.79 332.36 81.01 332.36 80.15C332.36 79.35 332.14 78.61 331.7 77.93C331.28 77.25 330.65 76.7 329.81 76.28C328.97 75.86 327.97 75.65 326.81 75.65C325.29 75.65 324.05 76.07 323.09 76.91C322.15 77.73 321.68 78.83 321.68 80.21C321.68 81.59 322.15 82.69 323.09 83.51C324.05 84.33 325.34 84.74 326.96 84.74ZM347.461 82.43C348.841 82.43 350.061 82.69 351.121 83.21C352.201 83.73 353.041 84.47 353.641 85.43C354.241 86.37 354.541 87.47 354.541 88.73C354.541 90.01 354.231 91.14 353.611 92.12C352.991 93.1 352.131 93.86 351.031 94.4C349.951 94.92 348.731 95.18 347.371 95.18C344.591 95.18 342.461 94.27 340.981 92.45C339.501 90.61 338.761 88.02 338.761 84.68C338.761 82.34 339.161 80.36 339.961 78.74C340.761 77.12 341.881 75.9 343.321 75.08C344.761 74.24 346.441 73.82 348.361 73.82C350.441 73.82 352.101 74.2 353.341 74.96L352.471 76.7C351.471 76.04 350.111 75.71 348.391 75.71C346.071 75.71 344.251 76.45 342.931 77.93C341.611 79.39 340.951 81.52 340.951 84.32C340.951 84.82 340.981 85.39 341.041 86.03C341.561 84.89 342.391 84.01 343.531 83.39C344.671 82.75 345.981 82.43 347.461 82.43ZM347.281 93.35C348.801 93.35 350.031 92.94 350.971 92.12C351.931 91.28 352.411 90.17 352.411 88.79C352.411 87.41 351.931 86.31 350.971 85.49C350.031 84.67 348.751 84.26 347.131 84.26C346.071 84.26 345.131 84.46 344.311 84.86C343.511 85.26 342.881 85.81 342.421 86.51C341.961 87.21 341.731 87.99 341.731 88.85C341.731 89.65 341.941 90.39 342.361 91.07C342.801 91.75 343.441 92.3 344.281 92.72C345.121 93.14 346.121 93.35 347.281 93.35ZM361.422 75.92V84.17H372.282V86.09H361.422V95H359.202V74H373.602V75.92H361.422ZM383.766 83C385.966 83.12 387.636 83.72 388.776 84.8C389.936 85.86 390.516 87.25 390.516 88.97C390.516 90.17 390.226 91.24 389.646 92.18C389.066 93.1 388.206 93.83 387.066 94.37C385.926 94.91 384.536 95.18 382.896 95.18C381.376 95.18 379.936 94.94 378.576 94.46C377.236 93.96 376.156 93.3 375.336 92.48L376.386 90.77C377.086 91.49 378.016 92.08 379.176 92.54C380.336 92.98 381.576 93.2 382.896 93.2C384.616 93.2 385.946 92.83 386.886 92.09C387.826 91.33 388.296 90.29 388.296 88.97C388.296 87.67 387.826 86.65 386.886 85.91C385.946 85.17 384.526 84.8 382.626 84.8H381.126V83.21L386.946 75.92H376.206V74H389.706V75.53L383.766 83ZM234.926 111L225.626 132H223.436L214.136 111H216.536L224.576 129.24L232.676 111H234.926ZM238.274 111H240.494V132H238.274V111ZM264.852 111L255.552 132H253.362L244.062 111H246.462L254.502 129.24L262.602 111H264.852ZM268.2 111H270.42V132H268.2V111ZM277.553 111H286.103C288.323 111 290.283 111.45 291.983 112.35C293.683 113.23 295.003 114.47 295.943 116.07C296.883 117.65 297.353 119.46 297.353 121.5C297.353 123.54 296.883 125.36 295.943 126.96C295.003 128.54 293.683 129.78 291.983 130.68C290.283 131.56 288.323 132 286.103 132H277.553V111ZM285.983 130.08C287.823 130.08 289.433 129.72 290.813 129C292.193 128.26 293.263 127.25 294.023 125.97C294.783 124.67 295.163 123.18 295.163 121.5C295.163 119.82 294.783 118.34 294.023 117.06C293.263 115.76 292.193 114.75 290.813 114.03C289.433 113.29 287.823 112.92 285.983 112.92H279.773V130.08H285.983ZM324.02 121.17C325.4 121.47 326.46 122.07 327.2 122.97C327.96 123.85 328.34 124.99 328.34 126.39C328.34 128.19 327.67 129.58 326.33 130.56C325.01 131.52 323.05 132 320.45 132H310.79V111H319.85C322.19 111 324 111.47 325.28 112.41C326.58 113.35 327.23 114.68 327.23 116.4C327.23 117.56 326.94 118.55 326.36 119.37C325.8 120.17 325.02 120.77 324.02 121.17ZM313.01 112.83V120.45H319.7C321.4 120.45 322.71 120.13 323.63 119.49C324.55 118.83 325.01 117.88 325.01 116.64C325.01 115.4 324.55 114.46 323.63 113.82C322.71 113.16 321.4 112.83 319.7 112.83H313.01ZM320.42 130.17C322.3 130.17 323.72 129.85 324.68 129.21C325.64 128.57 326.12 127.57 326.12 126.21C326.12 123.59 324.22 122.28 320.42 122.28H313.01V130.17H320.42ZM333.707 111H335.927V130.08H347.687V132H333.707V111ZM359.752 132.18C357.032 132.18 354.912 131.4 353.392 129.84C351.872 128.28 351.112 126.01 351.112 123.03V111H353.332V122.94C353.332 125.38 353.882 127.2 354.982 128.4C356.082 129.6 357.672 130.2 359.752 130.2C361.852 130.2 363.452 129.6 364.552 128.4C365.652 127.2 366.202 125.38 366.202 122.94V111H368.362V123.03C368.362 126.01 367.602 128.28 366.082 129.84C364.582 131.4 362.472 132.18 359.752 132.18ZM390.202 130.08V132H375.352V111H389.752V112.92H377.572V120.39H388.432V122.28H377.572V130.08H390.202Z" fill="white"/>
<circle cx="485.5" cy="104.5" r="1.5" fill="white"/>
<rect x="401" y="104" width="85" height="1" fill="white"/>
<path d="M153.578 316.35L152.798 322.65H157.058V324.3H152.588L151.898 330H150.278L150.968 324.3H144.818L144.098 330H142.478L143.168 324.3H138.908V322.65H143.378L144.158 316.35H139.868V314.7H144.368L145.058 309H146.708L145.988 314.7H152.168L152.858 309H154.478L153.788 314.7H158.018V316.35H153.578ZM151.958 316.35H145.808L144.998 322.65H151.178L151.958 316.35ZM175.127 328.08V330H160.397V328.47L169.127 319.92C170.227 318.84 170.967 317.91 171.347 317.13C171.747 316.33 171.947 315.53 171.947 314.73C171.947 313.49 171.517 312.53 170.657 311.85C169.817 311.15 168.607 310.8 167.027 310.8C164.567 310.8 162.657 311.58 161.297 313.14L159.767 311.82C160.587 310.86 161.627 310.12 162.887 309.6C164.167 309.08 165.607 308.82 167.207 308.82C169.347 308.82 171.037 309.33 172.277 310.35C173.537 311.35 174.167 312.73 174.167 314.49C174.167 315.57 173.927 316.61 173.447 317.61C172.967 318.61 172.057 319.76 170.717 321.06L163.577 328.08H175.127ZM186.39 330.18C184.77 330.18 183.32 329.75 182.04 328.89C180.78 328.03 179.79 326.8 179.07 325.2C178.37 323.58 178.02 321.68 178.02 319.5C178.02 317.32 178.37 315.43 179.07 313.83C179.79 312.21 180.78 310.97 182.04 310.11C183.32 309.25 184.77 308.82 186.39 308.82C188.01 308.82 189.45 309.25 190.71 310.11C191.99 310.97 192.99 312.21 193.71 313.83C194.43 315.43 194.79 317.32 194.79 319.5C194.79 321.68 194.43 323.58 193.71 325.2C192.99 326.8 191.99 328.03 190.71 328.89C189.45 329.75 188.01 330.18 186.39 330.18ZM186.39 328.2C187.61 328.2 188.68 327.86 189.6 327.18C190.54 326.5 191.27 325.51 191.79 324.21C192.31 322.91 192.57 321.34 192.57 319.5C192.57 317.66 192.31 316.09 191.79 314.79C191.27 313.49 190.54 312.5 189.6 311.82C188.68 311.14 187.61 310.8 186.39 310.8C185.17 310.8 184.09 311.14 183.15 311.82C182.23 312.5 181.51 313.49 180.99 314.79C180.47 316.09 180.21 317.66 180.21 319.5C180.21 321.34 180.47 322.91 180.99 324.21C181.51 325.51 182.23 326.5 183.15 327.18C184.09 327.86 185.17 328.2 186.39 328.2ZM212.465 328.08V330H197.735V328.47L206.465 319.92C207.565 318.84 208.305 317.91 208.685 317.13C209.085 316.33 209.285 315.53 209.285 314.73C209.285 313.49 208.855 312.53 207.995 311.85C207.155 311.15 205.945 310.8 204.365 310.8C201.905 310.8 199.995 311.58 198.635 313.14L197.105 311.82C197.925 310.86 198.965 310.12 200.225 309.6C201.505 309.08 202.945 308.82 204.545 308.82C206.685 308.82 208.375 309.33 209.615 310.35C210.875 311.35 211.505 312.73 211.505 314.49C211.505 315.57 211.265 316.61 210.785 317.61C210.305 318.61 209.395 319.76 208.055 321.06L200.915 328.08H212.465ZM223.728 330.18C222.108 330.18 220.658 329.75 219.378 328.89C218.118 328.03 217.128 326.8 216.408 325.2C215.708 323.58 215.358 321.68 215.358 319.5C215.358 317.32 215.708 315.43 216.408 313.83C217.128 312.21 218.118 310.97 219.378 310.11C220.658 309.25 222.108 308.82 223.728 308.82C225.348 308.82 226.788 309.25 228.048 310.11C229.328 310.97 230.328 312.21 231.048 313.83C231.768 315.43 232.128 317.32 232.128 319.5C232.128 321.68 231.768 323.58 231.048 325.2C230.328 326.8 229.328 328.03 228.048 328.89C226.788 329.75 225.348 330.18 223.728 330.18ZM223.728 328.2C224.948 328.2 226.018 327.86 226.938 327.18C227.878 326.5 228.608 325.51 229.128 324.21C229.648 322.91 229.908 321.34 229.908 319.5C229.908 317.66 229.648 316.09 229.128 314.79C228.608 313.49 227.878 312.5 226.938 311.82C226.018 311.14 224.948 310.8 223.728 310.8C222.508 310.8 221.428 311.14 220.488 311.82C219.568 312.5 218.848 313.49 218.328 314.79C217.808 316.09 217.548 317.66 217.548 319.5C217.548 321.34 217.808 322.91 218.328 324.21C218.848 325.51 219.568 326.5 220.488 327.18C221.428 327.86 222.508 328.2 223.728 328.2ZM249.803 328.08V330H235.073V328.47L243.803 319.92C244.903 318.84 245.643 317.91 246.023 317.13C246.423 316.33 246.623 315.53 246.623 314.73C246.623 313.49 246.193 312.53 245.333 311.85C244.493 311.15 243.283 310.8 241.703 310.8C239.243 310.8 237.333 311.58 235.973 313.14L234.443 311.82C235.263 310.86 236.303 310.12 237.563 309.6C238.843 309.08 240.283 308.82 241.883 308.82C244.023 308.82 245.713 309.33 246.953 310.35C248.213 311.35 248.843 312.73 248.843 314.49C248.843 315.57 248.603 316.61 248.123 317.61C247.643 318.61 246.733 319.76 245.393 321.06L238.253 328.08H249.803ZM261.067 330.18C259.447 330.18 257.997 329.75 256.717 328.89C255.457 328.03 254.467 326.8 253.747 325.2C253.047 323.58 252.697 321.68 252.697 319.5C252.697 317.32 253.047 315.43 253.747 313.83C254.467 312.21 255.457 310.97 256.717 310.11C257.997 309.25 259.447 308.82 261.067 308.82C262.687 308.82 264.127 309.25 265.387 310.11C266.667 310.97 267.667 312.21 268.387 313.83C269.107 315.43 269.467 317.32 269.467 319.5C269.467 321.68 269.107 323.58 268.387 325.2C267.667 326.8 266.667 328.03 265.387 328.89C264.127 329.75 262.687 330.18 261.067 330.18ZM261.067 328.2C262.287 328.2 263.357 327.86 264.277 327.18C265.217 326.5 265.947 325.51 266.467 324.21C266.987 322.91 267.247 321.34 267.247 319.5C267.247 317.66 266.987 316.09 266.467 314.79C265.947 313.49 265.217 312.5 264.277 311.82C263.357 311.14 262.287 310.8 261.067 310.8C259.847 310.8 258.767 311.14 257.827 311.82C256.907 312.5 256.187 313.49 255.667 314.79C255.147 316.09 254.887 317.66 254.887 319.5C254.887 321.34 255.147 322.91 255.667 324.21C256.187 325.51 256.907 326.5 257.827 327.18C258.767 327.86 259.847 328.2 261.067 328.2ZM90.9653 346H99.5153C101.735 346 103.695 346.45 105.395 347.35C107.095 348.23 108.415 349.47 109.355 351.07C110.295 352.65 110.765 354.46 110.765 356.5C110.765 358.54 110.295 360.36 109.355 361.96C108.415 363.54 107.095 364.78 105.395 365.68C103.695 366.56 101.735 367 99.5153 367H90.9653V346ZM99.3953 365.08C101.235 365.08 102.845 364.72 104.225 364C105.605 363.26 106.675 362.25 107.435 360.97C108.195 359.67 108.575 358.18 108.575 356.5C108.575 354.82 108.195 353.34 107.435 352.06C106.675 350.76 105.605 349.75 104.225 349.03C102.845 348.29 101.235 347.92 99.3953 347.92H93.1853V365.08H99.3953ZM128.928 361.39H117.228L114.708 367H112.398L121.998 346H124.188L133.788 367H131.448L128.928 361.39ZM128.118 359.59L123.078 348.31L118.038 359.59H128.118ZM151.901 367L147.101 360.25C146.561 360.31 146.001 360.34 145.421 360.34H139.781V367H137.561V346H145.421C148.101 346 150.201 346.64 151.721 347.92C153.241 349.2 154.001 350.96 154.001 353.2C154.001 354.84 153.581 356.23 152.741 357.37C151.921 358.49 150.741 359.3 149.201 359.8L154.331 367H151.901ZM145.361 358.45C147.441 358.45 149.031 357.99 150.131 357.07C151.231 356.15 151.781 354.86 151.781 353.2C151.781 351.5 151.231 350.2 150.131 349.3C149.031 348.38 147.441 347.92 145.361 347.92H139.781V358.45H145.361ZM166.051 357.13L161.761 361.48V367H159.541V346H161.761V358.69L174.091 346H176.641L167.551 355.51L177.271 367H174.631L166.051 357.13ZM204.111 356.5H206.241V364.51C205.261 365.37 204.101 366.03 202.761 366.49C201.421 366.95 200.011 367.18 198.531 367.18C196.431 367.18 194.541 366.72 192.861 365.8C191.181 364.88 189.861 363.61 188.901 361.99C187.941 360.35 187.461 358.52 187.461 356.5C187.461 354.48 187.941 352.66 188.901 351.04C189.861 349.4 191.181 348.12 192.861 347.2C194.541 346.28 196.441 345.82 198.561 345.82C200.161 345.82 201.631 346.08 202.971 346.6C204.311 347.1 205.441 347.85 206.361 348.85L204.981 350.26C203.321 348.62 201.211 347.8 198.651 347.8C196.951 347.8 195.411 348.18 194.031 348.94C192.671 349.68 191.601 350.72 190.821 352.06C190.041 353.38 189.651 354.86 189.651 356.5C189.651 358.14 190.041 359.62 190.821 360.94C191.601 362.26 192.671 363.3 194.031 364.06C195.391 364.82 196.921 365.2 198.621 365.2C200.781 365.2 202.611 364.66 204.111 363.58V356.5ZM227.164 367L222.364 360.25C221.824 360.31 221.264 360.34 220.684 360.34H215.044V367H212.824V346H220.684C223.364 346 225.464 346.64 226.984 347.92C228.504 349.2 229.264 350.96 229.264 353.2C229.264 354.84 228.844 356.23 228.004 357.37C227.184 358.49 226.004 359.3 224.464 359.8L229.594 367H227.164ZM220.624 358.45C222.704 358.45 224.294 357.99 225.394 357.07C226.494 356.15 227.044 354.86 227.044 353.2C227.044 351.5 226.494 350.2 225.394 349.3C224.294 348.38 222.704 347.92 220.624 347.92H215.044V358.45H220.624ZM247.974 361.39H236.274L233.754 367H231.444L241.044 346H243.234L252.834 367H250.494L247.974 361.39ZM247.164 359.59L242.124 348.31L237.084 359.59H247.164ZM262.577 359.74V367H260.387V359.74L251.987 346H254.357L261.557 357.79L268.757 346H270.977L262.577 359.74Z" fill="white"/>
<circle cx="309.5" cy="339.5" r="1.5" fill="white"/>
<rect x="280" y="339" width="30" height="1" fill="white"/>
</svg>
