<svg width="1920" height="1080" viewBox="0 0 1920 1080" fill="none" xmlns="http://www.w3.org/2000/svg">
<rect width="1920" height="1080" fill="#2CA01C"/>
<path d="M1461.5 588.23C1461.5 586.219 1459.78 585.486 1458.02 585.486H1454.73V594.844H1456.42V590.931H1457.62L1459.82 594.842H1461.86L1459.34 590.745C1460.66 590.453 1461.49 589.576 1461.49 588.224L1461.5 588.23V588.23ZM1456.42 589.579V586.912H1457.95C1458.83 586.912 1459.82 587.167 1459.82 588.191C1459.82 589.323 1458.72 589.577 1457.77 589.577H1456.42L1456.42 589.579ZM1457.99 581.905C1456.89 581.9 1455.81 582.111 1454.8 582.526C1453.79 582.941 1452.87 583.552 1452.1 584.323C1451.32 585.094 1450.71 586.01 1450.29 587.019C1449.87 588.027 1449.66 589.109 1449.66 590.202C1449.66 594.806 1453.38 598.425 1457.99 598.425C1462.59 598.425 1466.32 594.808 1466.32 590.202C1466.32 589.109 1466.1 588.027 1465.69 587.018C1465.27 586.009 1464.65 585.093 1463.88 584.322C1463.1 583.551 1462.18 582.941 1461.17 582.526C1460.16 582.111 1459.08 581.9 1457.99 581.905V581.905ZM1457.99 597.217C1456.13 597.21 1454.35 596.468 1453.03 595.154C1451.72 593.84 1450.98 592.06 1450.97 590.202C1451.02 588.375 1451.78 586.64 1453.09 585.366C1454.4 584.092 1456.16 583.38 1457.99 583.38C1459.81 583.38 1461.57 584.092 1462.88 585.366C1464.19 586.64 1464.95 588.375 1465.01 590.202C1465 592.061 1464.26 593.842 1462.94 595.156C1461.63 596.471 1459.85 597.212 1457.99 597.218V597.217ZM921.904 583.306C909.716 583.306 903.571 572.418 903.571 561.885C903.571 551.356 910.239 540.928 921.319 540.928C926.51 540.928 933.07 543.533 935.647 547.193L948.551 534.336C942.306 527.754 932.348 523.826 921.319 523.826C898.88 523.826 882.591 539.931 882.591 562.119C882.591 584.665 898.698 600.414 921.761 600.414C932.733 600.414 942.874 597.202 948.886 590.738L936.335 577.268C933.435 580.799 927.358 583.308 921.904 583.308V583.306V583.306ZM849.737 598.369H869.759V525.865H849.737V598.369V598.369ZM813.331 565.616C813.331 574.136 807.778 583.308 797.427 583.308C789.447 583.308 785.188 577.616 785.188 565.909V525.865H765.161V570.864C765.161 585.838 772.633 600.412 792.612 600.412C802.034 600.412 809.926 592.994 813.903 587.518H814.203V598.369H833.347V525.865H813.325V565.616H813.331V565.616ZM729.046 535.071H728.602C725.772 531.941 718.112 523.826 705.669 523.826C685.256 523.826 669.526 539.805 669.526 561.827C669.526 584.185 684.041 600.412 704.71 600.412C714.094 600.412 722.908 595.438 728.019 589.654H728.315V634.072H748.337V525.865H729.046V535.071V535.071ZM709.607 583.306C697.226 583.306 690.19 572.5 690.19 561.828C690.19 551.62 696.651 540.635 709.607 540.635C721.523 540.635 728.898 551.787 728.898 562.117C728.898 572.532 721.682 583.306 709.609 583.306H709.607ZM1165.65 523.824C1142.87 523.824 1126.33 539.805 1126.33 561.827C1126.33 584.613 1143.23 600.607 1165.65 600.607C1188.06 600.607 1204.96 584.459 1204.96 561.827C1204.96 539.805 1188.43 523.824 1165.65 523.824H1165.65V523.824ZM1165.65 583.306C1152.59 583.306 1146.65 572.174 1146.65 561.828C1146.65 551.62 1152.59 540.635 1165.65 540.635C1178.7 540.635 1184.65 551.618 1184.65 561.827C1184.65 572.172 1178.7 583.305 1165.65 583.305L1165.65 583.306ZM1415.95 553.743C1405.65 551.282 1402.02 549.957 1402.02 545.787C1402.02 540.034 1409.31 538.771 1412.61 538.771C1418.82 538.771 1425.84 542.481 1428.48 546.005L1440.29 534.677C1434.83 527.818 1424.09 523.826 1412.76 523.826C1398.26 523.826 1383.05 531.111 1383.05 547.392C1383.05 561.373 1394.01 565.59 1404.73 568.158C1416.03 570.791 1420.06 572.712 1420.06 577.266C1420.06 583.976 1412.45 585.072 1409.83 585.072C1403.28 585.072 1395.69 581.324 1391.59 576.462L1379.44 588.785C1386.08 596.15 1397.44 600.579 1409.1 600.579C1428.67 600.579 1440.28 591.249 1440.28 575.853C1440.28 561.122 1426.07 556.168 1415.95 553.745L1415.95 553.743V553.743ZM1378.1 525.863H1352.28L1326.43 555.949H1325.99V485.908H1305.97V598.367H1325.99V562.608H1326.43L1353.25 598.367H1379.6L1348.43 558.744L1378.1 525.863V525.863ZM1081.22 523.82C1072.06 523.82 1065.31 527.823 1058.94 533.791H1058.57V485.906H1038.55V598.367H1057.7V588.119H1057.99C1062.51 595.522 1071.48 600.41 1080.78 600.41C1101.45 600.41 1117.11 584.18 1117.11 561.825C1117.11 539.803 1101.63 523.822 1081.22 523.822L1081.22 523.82V523.82ZM1077.28 583.306C1065.2 583.306 1057.99 572.53 1057.99 562.115C1057.99 551.785 1065.36 540.633 1077.28 540.633C1090.23 540.633 1096.68 551.616 1096.68 561.825C1096.68 572.498 1089.66 583.303 1077.28 583.303V583.306ZM1031.02 525.863H1005.2L979.347 555.949H978.901V485.908H958.881V598.367H978.901V562.608H979.347L1006.17 598.367H1032.51L1001.34 558.744L1031.02 525.863V525.863ZM1253.62 523.82C1230.84 523.82 1214.31 539.803 1214.31 561.825C1214.31 584.611 1231.21 600.605 1253.62 600.605C1276.03 600.605 1292.94 584.457 1292.94 561.825C1292.94 539.803 1276.4 523.822 1253.62 523.822L1253.62 523.82V523.82ZM1253.62 583.306C1240.57 583.306 1234.62 572.17 1234.62 561.825C1234.62 551.618 1240.57 540.633 1253.62 540.633C1266.68 540.633 1272.63 551.616 1272.63 561.825C1272.63 572.17 1266.68 583.303 1253.62 583.303L1253.62 583.306ZM562.676 443.761C516.099 443.761 478.338 481.518 478.338 528.099C478.338 574.676 516.099 612.437 562.676 612.437C609.256 612.437 647.013 574.676 647.013 528.099C647.013 481.518 609.256 443.761 562.676 443.761ZM557.996 583.383C554.765 583.383 551.666 582.1 549.382 579.815C547.097 577.531 545.814 574.432 545.814 571.201V507.479H534.555C523.187 507.479 513.94 516.728 513.94 528.095C513.94 539.464 523.187 548.711 534.555 548.711H539.241V560.893H534.555C516.442 560.893 501.757 546.209 501.757 528.095C501.757 509.981 516.442 495.297 534.555 495.297H557.996V583.383ZM590.797 560.899H567.355V472.813C570.586 472.813 573.685 474.096 575.969 476.381C578.254 478.665 579.537 481.764 579.537 484.995V548.717H590.797C602.164 548.717 611.413 539.468 611.413 528.101C611.413 516.734 602.164 507.485 590.797 507.485H586.112V495.303H590.797C608.911 495.303 623.595 509.987 623.595 528.101C623.595 546.215 608.911 560.899 590.797 560.899ZM752.098 462.966C752.839 462.979 753.574 462.845 754.262 462.571C754.95 462.297 755.577 461.889 756.105 461.37C756.633 460.851 757.053 460.232 757.339 459.549C757.626 458.866 757.773 458.133 757.773 457.392C757.773 456.652 757.625 455.918 757.339 455.236C757.052 454.553 756.632 453.934 756.104 453.415C755.575 452.896 754.949 452.488 754.26 452.214C753.572 451.94 752.837 451.806 752.096 451.82C750.636 451.847 749.245 452.446 748.221 453.489C747.198 454.531 746.625 455.933 746.626 457.394C746.626 458.855 747.199 460.257 748.223 461.299C749.246 462.341 750.638 462.939 752.098 462.966V462.966ZM718.843 466.72C713.389 466.72 709.007 470.026 707.395 473.714H707.24V467.797H698.482V504.689H707.703V484.399C707.703 479.481 710.469 474.41 716.305 474.41C722.228 474.41 723.226 479.863 723.226 484.245V504.689H732.447V481.633C732.447 474.098 728.452 466.722 718.841 466.722L718.843 466.72ZM679.808 504.687H689.028V467.796H679.808V504.687V504.687ZM847.514 462.968C848.967 462.93 850.348 462.327 851.363 461.286C852.378 460.245 852.946 458.849 852.946 457.395C852.946 455.941 852.379 454.545 851.364 453.503C850.35 452.462 848.969 451.858 847.516 451.82C846.056 451.847 844.664 452.446 843.641 453.489C842.618 454.531 842.045 455.933 842.045 457.394C842.046 458.855 842.619 460.257 843.643 461.299C844.666 462.341 846.058 462.939 847.518 462.966L847.514 462.968ZM832.564 467.775V475.946H842.906V504.685H852.13V475.948H862.47V467.777H832.564V467.775ZM816.881 504.685H826.102V467.796H816.881V504.687V504.685V504.685ZM737.146 475.948H747.486V504.687H756.707V475.948H767.047V467.777H737.144V475.948H737.146V475.948ZM798.216 488.087C798.216 493.005 795.448 498.077 789.61 498.077C783.691 498.077 782.694 492.623 782.694 488.237V467.797H773.469V490.854C773.469 498.388 777.465 505.764 787.076 505.764C792.53 505.764 796.911 502.46 798.523 498.77H798.679V504.689H807.441V467.796H798.22V488.087H798.216Z" fill="white"/>
</svg>
