<svg width="1920" height="1080" viewBox="0 0 1920 1080" fill="none" xmlns="http://www.w3.org/2000/svg">
<rect width="1920" height="1080" fill="#2CA01C"/>
<circle cx="958.844" cy="541.156" r="254.222" fill="white"/>
<path fill-rule="evenodd" clip-rule="evenodd" d="M930.893 280.719C927.71 281.282 918.856 282.827 911.216 284.154C744.109 313.147 650.242 503.415 727.296 656.958C806.558 814.899 1018.83 849.097 1143.78 724.057C1289.52 578.219 1215.49 329.471 1013.07 284.851C997.377 281.391 942.646 278.641 930.893 280.719ZM991.316 372.629C1009.44 384.682 1009.6 385.785 1009.6 499.929V601.362H1030.01C1056.47 601.362 1070.85 596.982 1084.83 584.668C1128.03 546.617 1105 478.135 1047.77 474.461L1030.43 473.347V454.836V436.325L1050.98 437.31C1135.11 441.334 1174.9 544.702 1116.22 606.792C1092.13 632.283 1072.23 638.426 1013.74 638.426H972.561V502.912V367.399H978.006C981.001 367.399 986.99 369.752 991.316 372.629ZM942.467 572.696V708.499L934.944 707.024C926.113 705.293 918.008 699.724 911.36 690.815C906.726 684.607 906.568 681.336 905.941 579.189L905.293 473.956L880.477 473.98C789.062 474.063 777.874 593.081 868.565 600.691L884.595 602.034V620.23V638.426L871.285 638.398C782.867 638.215 736.245 532.925 796.185 468.8C820.857 442.406 837.726 437.067 896.748 436.969L942.467 436.893V572.696Z" fill="#2CA01C"/>
</svg>
