<svg width="720" height="500" viewBox="0 0 720 500" fill="none" xmlns="http://www.w3.org/2000/svg">
<rect width="720" height="500" fill="#2CA01C"/>
<circle cx="359.378" cy="250.622" r="136.889" fill="white"/>
<path fill-rule="evenodd" clip-rule="evenodd" d="M344.327 110.387C342.613 110.69 337.845 111.522 333.732 112.237C243.751 127.848 193.207 230.3 234.698 312.977C277.377 398.023 391.676 416.437 458.961 349.107C537.434 270.579 497.573 136.638 388.577 112.612C380.126 110.749 350.655 109.268 344.327 110.387ZM376.863 159.877C386.623 166.367 386.707 166.961 386.707 228.423V283.041H397.699C411.944 283.041 419.687 280.683 427.215 274.052C450.476 253.563 438.076 216.688 407.261 214.71L397.926 214.11V204.143V194.175L408.991 194.705C454.292 196.872 475.717 252.532 444.119 285.965C431.147 299.691 420.431 302.999 388.939 302.999H366.764V230.03V157.061H369.695C371.308 157.061 374.533 158.328 376.863 159.877ZM350.559 267.606V340.73L346.508 339.936C341.753 339.004 337.389 336.005 333.809 331.208C331.314 327.865 331.229 326.104 330.891 271.102L330.542 214.438L317.18 214.451C267.956 214.495 261.932 278.582 310.766 282.68L319.397 283.403V293.201V302.999L312.23 302.984C264.621 302.885 239.517 246.19 271.792 211.662C285.077 197.449 294.16 194.574 325.941 194.522L350.559 194.481V267.606Z" fill="#2CA01C"/>
</svg>
