<svg width="1440" height="1920" viewBox="0 0 1440 1920" fill="none" xmlns="http://www.w3.org/2000/svg">
<g clip-path="url(#clip0)">
<rect width="1440" height="1029.85" fill="#E9E9E8"/>
<path d="M1440 853.354V407.907H1436.08L1429.35 411.829H1419.83L1406.38 407.907L1394.05 405.105L1382.85 393.899L1380.61 382.132V373.728L1385.09 360.84L1388.45 350.755L1382.85 332.265L1375 319.377L1366.04 305.93L1356.51 296.965L1339.7 294.163H1327.94L1318.41 296.965L1308.33 294.163L1302.72 288L1299.92 276.233L1297.12 266.708L1289.84 256.623L1278.07 252.7L1265.74 249.899L1257.34 244.296L1251.74 238.693V228.607V219.082L1246.13 208.436L1239.41 202.272L1230.44 195.549L1214.19 186.584L1191.78 179.86L1169.37 177.619L1155.92 182.661L1149.2 188.825L1137.99 193.307L1125.67 190.506H1104.93L1085.32 193.307L1064.59 202.272L1046.66 215.16L1032.09 230.848L1024.81 244.296L1022.01 259.984V275.673L1024.81 288L1022.01 293.603L1015.28 302.008L1002.4 308.171L989.51 311.533L974.942 314.895L963.175 323.3L954.21 336.187L947.486 345.152L941.323 354.117L937.401 365.323L933.479 378.21L932.358 393.338V853.354H1440Z" fill="#8B8C87" fill-opacity="0.7"/>
<path d="M1440 858.397V426.957V416.311H1433.28L1423.75 417.992L1418.15 420.794L1411.42 424.156L1405.82 428.638L1399.66 432L1392.93 433.121L1387.33 430.319L1381.73 424.156L1377.81 417.992L1373.88 402.864L1366.6 396.14L1355.95 387.175V370.366L1366.6 362.521L1369.96 350.755V337.868L1366.6 327.222L1355.95 313.774L1347.55 304.249H1341.95L1338.02 309.852L1334.1 318.257L1322.9 322.739H1311.69L1297.12 318.257L1283.11 309.852L1276.39 299.206V284.078L1279.19 275.673L1270.23 265.588H1259.02L1245.57 257.183L1234.93 248.778L1223.72 238.132L1218.12 225.245L1214.75 211.237L1206.35 202.833L1190.66 194.428H1174.97L1162.09 199.471L1152.56 211.237L1140.79 215.72H1123.42L1104.93 208.436H1087.56L1067.39 215.72L1052.26 228.607L1037.14 243.735L1033.21 265.588L1037.14 284.078L1033.21 296.405L1020.89 309.852L1008 313.774L995.673 318.257L973.821 327.222L962.615 344.031L949.167 356.358L943.004 385.494L940.202 406.786L922.272 858.397H1440Z" fill="#5C5B56" fill-opacity="0.7"/>
<path d="M1429.35 474.584L1440 481.868V869.043H1028.17V410.708V400.623L1018.09 387.175L1005.2 370.926L1000.72 349.634L993.432 340.669L1000.72 326.661H1024.81H1043.86L1053.95 322.179L1061.79 316.016L1069.07 296.965L1085.88 289.121L1101.01 280.716L1121.18 272.872L1147.52 261.665L1168.25 256.062H1183.94H1204.67L1220.36 261.665L1229.32 268.949L1238.85 280.716L1253.42 289.121L1273.59 296.965H1281.99L1289.28 302.568L1298.8 316.016L1308.89 322.179H1321.21L1330.18 326.661L1335.78 330.023L1342.51 340.669L1353.15 347.393L1361 349.634L1364.36 355.237L1363.24 358.599L1361 362.521L1350.91 363.642L1347.55 370.366V380.451L1350.91 386.615L1357.63 394.459L1355.95 403.424L1350.91 410.708L1338.58 421.914L1330.18 425.276L1324.58 432.56V440.965L1330.18 446.568H1335.78L1340.26 443.767L1345.87 440.965L1350.91 443.767L1357.63 446.568H1368.84L1375 454.973H1385.09L1390.69 446.568L1396.86 440.965H1404.7L1413.67 446.568L1418.15 454.973L1422.07 465.619L1429.35 474.584Z" fill="#25414C" fill-opacity="0.6"/>
<path d="M1284.23 589.538L1279.82 573.312L1275.4 565.823L1269.51 557.086L1265.09 543.98V535.243L1271.71 525.882L1279.82 514.024L1295.28 504.039L1312.95 500.918L1303.38 515.896L1312.95 530.874V543.98L1327.68 552.717L1331.36 564.575L1335.78 576.433L1331.36 585.17L1324 589.538L1309.27 610.133L1299.7 626.984L1290.13 640.714L1279.82 651.323L1258.46 654.443L1260.67 639.465L1271.71 619.495L1276.87 606.389L1284.23 589.538Z" fill="#B3B8BE" fill-opacity="0.3"/>
<path d="M1289.46 589.438L1287.99 577.95L1286.52 572.647L1284.55 566.461L1283.08 557.182V550.996L1285.29 544.367L1287.99 535.972L1293.15 528.902L1299.04 526.693L1295.85 537.298L1299.04 547.902V557.182L1303.95 563.368L1305.17 571.764L1306.65 580.159L1305.17 586.345L1302.72 589.438L1297.81 604.02L1294.62 615.951L1291.43 625.672L1287.99 633.184L1280.87 635.393L1281.61 624.788L1285.29 610.648L1287.01 601.369L1289.46 589.438Z" fill="#B3B8BE" fill-opacity="0.2"/>
<path d="M1367.76 588.887L1354.08 574.879L1347.69 567.595L1345.87 556.389V546.303L1354.08 540.14H1359.55L1367.76 542.381L1376.43 548.545L1390.12 560.872L1397.42 574.879L1393.77 581.043L1387.84 588.887L1378.26 595.051L1367.76 588.887Z" fill="#B3B8BE" fill-opacity="0.3"/>
<path d="M1369.28 578.71L1360.95 572.135L1357.06 568.716L1355.95 563.456V558.722L1360.95 555.829H1364.28L1369.28 556.881L1374.56 559.774L1382.89 565.56L1387.33 572.135L1385.11 575.028L1381.5 578.71L1375.67 581.603L1369.28 578.71Z" fill="#B3B8BE" fill-opacity="0.2"/>
<path d="M1308.83 683.82L1318.2 680.218L1324.84 683.82L1331.09 693.597L1335.78 702.344V713.665L1334.61 719.84L1331.09 723.442L1328.36 729.617V736.821L1331.09 742.481L1334.61 750.2L1335.78 759.462V771.812L1331.09 781.074H1324.84L1311.95 774.384L1308.83 781.074L1302.57 771.812L1299.45 764.608L1295.93 757.404L1297.11 752.258V736.821L1293.2 729.617V716.238L1297.11 705.432L1302.57 693.597L1308.83 683.82Z" fill="#B3B8BE" fill-opacity="0.3"/>
<path d="M1309.94 703.621L1320.68 699.269L1322.73 701.686L1326.82 705.555L1325.28 712.808L1322.73 718.611L1320.68 722.479L1317.61 729.249L1315.57 735.535V742.789L1317.61 754.877L1320.68 760.68L1325.28 769.868L1320.68 766.966L1313.52 762.131L1307.38 754.877V749.075L1309.94 738.437L1307.38 730.7C1306.87 729.088 1305.34 725.671 1303.29 724.897C1301.25 724.123 1302.44 718.772 1303.29 716.193L1305.85 709.423L1309.94 703.621Z" fill="#B3B8BE" fill-opacity="0.2"/>
<path d="M1222.6 571.517L1234.93 577.681L1242.21 592.809L1247.25 624.187L1232.12 638.195L1205.79 629.23L1200.19 621.385V606.817L1205.79 595.051L1213.63 582.163L1222.6 571.517Z" fill="#B3B8BE" fill-opacity="0.3"/>
<path d="M1224.09 583.844L1232.31 588.195L1237.17 598.874L1240.53 621.023L1230.44 630.91L1212.89 624.582L1209.15 619.045V608.762L1212.89 600.456L1218.12 591.359L1224.09 583.844Z" fill="#B3B8BE" fill-opacity="0.2"/>
<path d="M1354.27 467.86L1345.31 474.584L1339.7 480.187L1329.62 467.86L1321.77 462.257H1311.13L1319.53 471.222L1325.14 477.385L1311.13 480.187L1325.14 487.471L1335.78 492.514L1345.31 504.84L1347.55 516.047L1338.02 525.012L1329.62 537.899L1339.7 532.296H1345.31L1354.27 529.494H1372.76L1382.29 532.296L1397.42 537.899L1407.5 542.942V537.899L1404.14 529.494L1397.42 523.331L1391.81 513.245L1386.21 501.479L1394.05 492.514L1404.14 485.23L1414.79 480.187L1407.5 471.222L1397.42 465.058L1388.45 467.86H1372.76L1367.72 462.257H1359.88L1354.27 467.86Z" fill="#3D4F56" fill-opacity="0.7"/>
<path d="M1028.73 392.778L1044.98 411.829L1057.31 420.794L1074.12 433.121L1094.85 440.405L1102.69 452.171L1126.23 458.895H1139.67L1145.28 452.171L1126.23 444.327L1106.61 433.121L1094.85 429.198L1081.96 420.794V398.381V388.856L1094.85 384.934L1106.61 388.856L1121.18 398.381H1134.07L1151.44 407.907H1164.33L1157.6 402.303L1151.44 392.778L1134.07 378.77L1110.54 367.004L1086.44 358.039L1074.12 363.082H1057.31L1044.98 358.039L1033.21 347.393L1009.12 336.187V347.393L1015.28 363.082L1021.45 378.77L1028.73 392.778Z" fill="#3C4E5A"/>
<path d="M1390.69 796.202L1396.3 859.517L1357.63 855.035V827.019L1363.24 810.21L1368.28 784.436L1363.24 770.428L1352.59 758.679L1348.67 745.214L1357.63 751.377L1361 760.342H1368.28L1371.08 748.576V734.568L1366.04 727.284L1361 717.198L1363.24 711.035L1373.88 707.113H1384.53L1390.69 699.268L1398.54 688.622L1405.26 675.175L1401.34 642.677L1398.54 635.393L1392.37 634.272L1386.21 628.109L1379.49 625.307L1372.76 626.428L1371.08 634.272V643.798H1366.04L1361 638.755L1354.27 632.031L1352.59 625.307L1354.27 620.265L1361 614.101V606.257L1357.63 593.93H1363.24L1373.88 601.774L1384.53 603.455H1397.98L1408.06 593.93L1418.15 588.887L1421.51 596.171L1429.35 597.852L1432.16 588.887L1440 581.043V762.023L1434.96 760.342H1420.95L1410.86 762.023L1396.3 770.428L1390.69 781.634V796.202Z" fill="#324452" fill-opacity="0.7"/>
<path d="M1244.45 488.591L1233.25 467.3L1217 457.214L1197.39 449.37H1181.7H1162.65L1155.36 446.008L1141.35 439.844L1130.15 430.879H1115.02L1099.89 414.07V395.58L1115.02 409.027L1135.75 414.07L1155.36 426.397H1169.93L1186.18 435.362L1208.03 438.724L1217 435.362L1233.25 439.844V422.475V405.665L1220.36 395.58L1204.67 373.167L1200.75 360.84L1210.83 355.798L1226.52 343.471L1236.61 333.945L1239.41 313.214L1244.45 300.887H1259.58L1276.39 308.731L1289.28 322.739L1306.65 331.144H1318.41L1323.46 340.109L1327.38 350.194H1340.82L1352.59 355.798L1345.31 369.245L1332.42 381.572L1340.82 395.58L1348.67 409.027L1340.82 417.992L1327.38 422.475L1318.41 430.879L1306.65 446.008H1289.28L1276.39 435.362H1259.58L1251.74 446.008V462.817V476.825L1244.45 488.591Z" fill="#3C4E5A" fill-opacity="0.7"/>
<path d="M1265.18 799.004L1278.63 835.424H1132.95L1150.88 745.774L1174.41 739.051L1190.1 727.844L1201.87 718.319L1214.76 703.751V685.821V675.175V662.848L1212.51 655.004L1218.68 651.082H1228.2L1243.89 645.479L1237.73 657.805L1248.37 666.77L1252.86 680.218V697.027L1248.37 713.837L1257.34 700.389L1265.18 691.984L1273.03 680.218L1283.67 675.175L1296 670.693H1311.13L1302.16 680.218L1291.52 685.821L1283.67 700.389L1273.03 718.319L1265.18 731.766L1273.03 739.051L1278.63 752.498V767.626L1268.55 772.669L1261.26 781.634L1265.18 799.004Z" fill="#2B3C4C" fill-opacity="0.7"/>
<path d="M1217.56 298.086L1223.16 310.412V317.696L1219.8 324.981L1217.56 331.704L1211.39 337.307L1199.07 342.35H1190.66L1184.5 351.315L1178.89 356.918C1175.91 358.039 1169.93 360.84 1169.93 363.082C1169.93 365.323 1158.72 364.016 1153.12 363.082H1138.55L1130.15 360.28L1119.5 354.117L1112.22 351.315H1099.89L1083.64 342.35L1078.6 331.704V317.696L1080.84 307.611L1087.56 294.724H1105.49H1119.5L1127.35 303.689L1136.31 314.335H1145.28L1153.12 303.689V298.086C1148.82 295.471 1139.9 290.241 1138.55 290.241C1137.21 290.241 1136.5 284.638 1136.31 281.837L1143.03 273.992H1156.48L1169.93 267.268H1186.74H1199.07L1207.47 273.992L1211.39 290.241L1217.56 298.086Z" fill="#B3B8BE" fill-opacity="0.3"/>
<path d="M1120.62 312.093L1123.98 324.42L1117.82 335.066L1107.74 342.35L1102.13 338.428L1094.85 330.584L1091.49 319.377L1094.85 312.093L1104.37 304.249H1114.46L1120.62 312.093Z" fill="#B3B8BE" fill-opacity="0.2"/>
<path d="M1142.47 327.782H1156.48L1165.45 326.101L1169.93 320.498L1171.61 316.016L1168.81 306.49V299.767V292.483L1174.41 286.319H1185.06H1192.34L1202.43 292.483L1205.23 299.767L1207.47 312.093L1205.23 319.377L1197.39 324.42L1192.34 330.584H1182.26C1180.46 330.584 1176.28 332.078 1174.41 332.825L1171.61 335.066L1168.81 344.031C1166.38 345.152 1161.08 347.393 1159.28 347.393H1148.08L1137.99 344.031L1136.31 330.584L1142.47 327.782Z" fill="#B3B8BE" fill-opacity="0.2"/>
<path d="M1209.15 471.222L1219.24 475.144L1224.84 480.187L1231 486.91L1233.25 496.436V507.082L1224.84 517.728L1214.75 523.891L1196.83 526.132L1186.18 519.969L1178.9 513.805L1175.53 503.72L1177.21 490.833L1182.82 482.428L1188.98 475.144L1198.51 471.222H1209.15Z" fill="#B3B8BE" fill-opacity="0.3"/>
<path d="M1213.63 509.883L1205.79 516.607H1198.51L1188.98 509.883L1183.38 502.599L1187.3 493.074L1198.51 484.669L1209.15 481.868L1217.56 487.471L1222.6 500.358L1213.63 509.883Z" fill="#B3B8BE" fill-opacity="0.2"/>
<path d="M1440 858.957V800.124V778.833L1430.47 782.195L1418.15 787.798L1414.79 795.082H1401.9L1394.62 790.599L1383.97 795.082H1372.2H1361.56C1359.76 795.082 1352.97 792.093 1349.79 790.599L1336.9 795.082L1325.14 800.124L1317.29 804.607H1298.8L1289.84 800.124H1279.75L1274.15 804.607H1260.7L1250.05 800.124L1242.21 795.082L1235.49 790.599L1229.32 784.996L1219.24 782.195L1205.79 784.996L1198.51 790.599H1187.86L1172.73 784.996L1158.72 782.195H1102.69V858.957H1440Z" fill="#4E504D" fill-opacity="0.7"/>
<path d="M458.335 454.973L446.008 471.782L721.681 630.35L754.179 607.938L763.144 578.802V546.304L754.179 508.763L742.973 478.506L727.844 458.895L734.008 445.447V425.276L732.327 411.829L723.362 401.183H708.234L697.027 405.665L676.856 414.63H649.961L616.903 421.354L599.533 414.63H573.198L561.992 425.276L556.389 434.802L549.665 449.93L533.977 458.895H509.323L498.677 449.93L488.031 434.802L472.342 442.086L458.335 454.973Z" fill="#8B8C87" fill-opacity="0.7"/>
<path d="M783.315 522.21L778.833 550.786L783.315 630.91L741.292 625.868L720 605.696L700.389 599.533L681.899 557.51L688.062 535.097C684.887 530.802 678.201 522.21 676.856 522.21C675.511 522.21 669.199 515.113 666.21 511.564L662.288 498.117L655.564 487.471L649.401 476.825L652.202 467.3L662.288 459.455L670.693 449.93V438.724L666.21 429.759L658.926 423.035H644.918L630.911 429.759L623.627 432.56L611.3 438.724L602.895 432.56L597.852 429.759L593.37 420.233L581.603 416.311L568.156 423.035L563.673 432.56V444.887L568.156 453.292L563.673 470.101L550.226 472.903L537.339 470.101L519.969 467.3L488.592 476.825L458.895 498.117V515.486L741.292 769.307H912.747L966.537 761.463L951.969 730.086L1066.27 647.16L1079.72 625.868L1091.49 618.584H1108.3H1129.59L1158.16 625.868H1170.49L1183.94 618.584L1190.1 600.093L1183.94 583.844L1195.7 564.794L1208.59 550.786V530.054L1201.31 515.486L1183.94 498.117L1158.16 489.712L1137.43 476.825L1116.7 467.3L1100.45 453.292L1079.72 445.447L1051.7 429.759L1027.61 413.51L1011.92 397.821L997.354 384.934L987.829 369.245L974.942 349.634L960.934 337.307L946.366 330.584H932.918L921.712 337.307L913.868 349.634L907.704 359.159L897.058 373.728L888.654 380.451H875.767L865.121 373.728L839.346 369.245L820.296 380.451L810.21 397.821V413.51L820.296 429.759L810.21 438.724L796.202 453.292V476.825L791.16 498.117L783.315 522.21Z" fill="#525D55" fill-opacity="0.8"/>
<path d="M764.264 471.782L767.626 458.335L764.264 452.171L760.342 447.128L764.264 435.922L772.109 425.276L784.436 419.113L801.805 415.751H831.502L848.311 403.424L865.681 389.977L906.023 378.771L921.712 389.977H944.124L963.175 403.424L980.545 425.276L995.113 447.128L1006.32 471.782L1034.33 485.23L1055.07 496.436H1075.8L1087 511.004L1098.21 536.778H1113.9L1145.84 554.708L1171.05 576L1183.38 589.448V616.342L1171.05 643.237L1154.24 656.685L1140.79 668.451L1145.84 684.7L1161.53 709.354V748.016L1145.84 774.911L1133.51 788.358L1113.9 793.401H1068.51L1034.33 779.953L995.113 754.179L968.218 733.448H930.117L906.023 709.354L876.887 671.253L885.292 643.237L876.887 629.79L865.681 606.257L837.665 589.448H806.848L755.299 567.035L747.455 547.424L744.093 525.012L747.455 503.16L755.299 485.23L764.264 471.782Z" fill="#404F50"/>
<path d="M904.342 493.074L899.299 522.21V536.778H915.548L932.358 522.21L941.883 501.479L949.167 483.549L957.012 467.86L961.494 446.008H972.14L992.871 457.774L1005.2 471.222L1017.53 485.79L1022.57 508.763L1017.53 546.304L1022.57 558.07L1034.33 562.553L1050.58 541.821L1057.87 528.374L1063.47 508.763V485.79L1057.87 471.222L1050.58 454.412L1034.33 435.362L1017.53 419.673L1005.2 415.191L989.51 403.984L981.105 397.821L972.14 375.969L968.778 361.961L961.494 341.79L941.883 324.981L932.358 317.136H922.272L915.548 324.981L907.144 341.79L889.774 356.358L884.171 369.245L869.603 375.969L856.716 369.245H841.587L823.097 375.969L814.132 382.693L811.331 397.821L806.848 419.673V432L795.082 446.008V467.86V483.549L802.926 493.074H811.331L814.132 483.549L815.813 479.626H823.097L830.941 493.074H845.51L856.716 479.626L850.552 461.697L862.879 446.008L884.171 435.362L894.817 446.008L899.299 461.697L904.342 493.074Z" fill="#31424C" fill-opacity="0.7"/>
<path d="M939.082 586.086L953.65 583.844L961.494 586.086L971.58 592.249L978.864 597.292L986.708 611.3V625.307L983.346 637.074L976.062 641.556H967.658L959.253 637.074L953.65 628.109L949.728 617.463L939.082 611.3L932.918 622.506L927.315 632.031H917.79L914.988 625.307V617.463L917.79 604.016L927.315 592.249L939.082 586.086Z" fill="#3F4A50" fill-opacity="0.7"/>
<path d="M850.553 508.763L839.346 533.416L834.304 521.65L827.02 504.28V526.132V544.062L834.304 560.872L855.595 588.887L871.844 616.903L866.802 669.012L882.49 683.58L918.59 629.79L943.564 574.319L959.813 565.914L971.02 521.65L990.63 544.062L979.985 572.638L997.354 594.49L1006.32 616.903L990.63 662.848L966.537 681.339L930.117 695.346L899.86 703.191L843.269 662.848L820.296 627.549L801.806 606.257L783.315 594.49L791.72 552.467V499.237L783.315 508.763L770.988 526.132L762.584 552.467L731.206 621.946L997.354 775.471L984.467 747.455V725.043L997.354 703.191L1024.25 669.012L1039.38 632.031L1042.74 606.257L1109.42 594.49L1076.36 588.887L1066.83 581.043L1075.24 574.319L1098.21 559.751L1070.75 552.467H1060.11L1066.83 535.658L1084.76 516.607L1060.11 526.132L1039.38 544.062L1024.25 546.864L1006.32 568.156C1004.45 561.992 1010.24 542.83 1010.24 535.658C1010.24 528.486 1014.16 526.132 1014.16 526.132L1010.24 504.28L1005.76 487.471L990.63 508.763L984.467 476.825L975.502 494.195L959.813 504.28L943.564 529.494L909.946 552.467L889.774 565.914H871.844L866.802 546.864L871.284 518.848L871.844 499.237L886.973 454.412L875.767 460.576L866.802 473.463L855.595 494.195L850.553 508.763Z" fill="#6A6569" fill-opacity="0.7"/>
<path d="M525.572 470.661L499.798 480.187L480.747 496.996L814.693 652.202L820.856 630.35V606.257V592.249L809.65 572.638L798.444 551.907L783.875 537.899L774.35 545.743L754.739 551.907L732.327 545.743V528.374L737.93 512.685L732.327 485.79L727.844 496.996L716.638 508.202L701.51 518.288L684.14 521.65L658.926 512.685L643.237 493.074L627.549 485.79L599.533 470.661H559.751H525.572Z" fill="#686B64" fill-opacity="0.7"/>
<path d="M1153.12 630.91L1136.31 626.428L1114.46 617.463L1109.42 608.498L1089.81 617.463L1067.95 608.498L1050.58 584.965V558.07V529.494L1067.95 487.471L1102.69 470.661H1142.47L1157.04 475.144L1177.77 487.471L1205.23 508.202L1220.36 529.494L1225.4 539.58L1222.6 553.588L1218.68 565.354C1215.13 568.903 1207.47 576 1205.23 576H1190.66L1184.5 584.965V593.37L1188.98 608.498L1184.5 624.187C1181.51 626.428 1175.08 630.91 1173.29 630.91H1153.12Z" fill="#5A5B56" fill-opacity="0.8"/>
<path d="M1090.93 693.665L1072.44 697.027L1066.27 703.191L1054.51 697.027L1042.18 681.339V660.047L1050.02 639.876L1061.23 625.307L1081.4 622.506L1098.21 625.307L1124.54 634.833H1146.4L1158.16 628.669L1181.7 625.307L1187.86 628.669L1197.38 639.876L1204.67 655.004L1207.47 675.175L1204.67 697.027L1197.38 713.276L1187.86 723.922H1173.29H1158.16C1154.13 723.922 1144.53 718.693 1140.23 716.078L1124.54 708.794L1109.42 693.665H1090.93Z" fill="#314047" fill-opacity="0.75"/>
<path d="M1027.61 733.448L1013.04 741.852L974.381 767.626L1027.61 814.693L1071.32 855.035L1083.64 925.074H1127.35L1129.59 857.276L1150.88 845.51L1160.4 835.424L1163.77 816.934L1166.57 804.047L1163.77 790.599L1158.72 772.109L1153.12 760.903L1141.35 750.257L1127.35 741.852L1113.34 737.37H1097.65L1079.16 741.852L1071.32 746.895L1062.35 750.257L1051.7 746.895L1044.42 741.852L1035.46 733.448H1027.61Z" fill="#374047"/>
<path d="M11.2062 220.763L0 224.125V438.163L416.872 447.128L424.716 438.163L429.198 432.56L434.802 429.198L437.043 424.156L433.121 416.872L429.198 411.269L418.553 403.984L401.183 397.821L375.409 393.339H355.237L331.144 386.615L324.42 373.728L318.817 340.669L312.093 317.697L303.689 314.335L286.879 317.697L273.432 332.825L254.381 340.669L254.942 332.825L260.545 324.981V317.697L257.183 314.335H249.339L240.374 317.697L230.848 324.981L217.961 332.825L209.556 342.35L199.471 345.712L185.463 342.35L180.981 324.981V304.809V292.483L175.938 280.716L165.852 272.872L159.128 259.984L143.44 244.856L133.354 239.813L124.949 236.451L115.984 231.969L109.261 226.926H101.977L97.4942 231.969V244.856L103.097 257.183L97.4942 259.984H86.8482L75.0817 263.346L66.1167 272.872L58.8327 276.234L50.9883 280.716H40.3424L36.9805 276.234V268.949L40.3424 257.183V244.856L32.4981 231.969L25.7743 224.125L11.2062 220.763Z" fill="#8B8C87" fill-opacity="0.7"/>
<path d="M11.7665 298.646L0 282.397V432.56H224.124V408.467L207.875 393.899L202.272 385.494L196.109 379.891L177.619 373.728L169.214 363.082V352.996L177.619 342.35V323.3L173.136 317.136L164.171 310.973L154.646 317.136L147.362 323.3L140.638 337.868L129.432 348.514L117.105 342.35L120.467 331.704V323.3L117.105 310.973L110.381 302.568L99.1751 298.646H93.572L87.9689 289.681L79.5642 279.595L71.1595 285.198L67.7977 298.646L74.5214 317.136L79.5642 331.704L74.5214 348.514L62.7549 355.798H49.3074L28.5759 348.514L22.4125 337.868L17.93 323.3V307.611L11.7665 298.646Z" fill="#404F50" fill-opacity="0.7"/>
<path d="M220.202 401.183L213.479 419.113L434.241 443.767L437.603 429.198L434.241 419.113L430.879 412.949L421.914 410.148H411.268L403.424 412.949L392.778 410.148L386.615 403.424L383.813 396.7L378.77 393.899L369.805 389.416H364.202L351.315 393.899L345.152 396.7L334.506 401.183L327.782 403.424L316.576 407.346H299.766L288 403.424L281.276 396.7L275.113 389.416L271.191 384.934L265.587 373.728L259.984 369.805H251.019L245.977 375.969L234.77 384.934L226.926 393.899L220.202 401.183Z" fill="#686B64" fill-opacity="0.7"/>
<rect x="1082.52" y="823.657" width="357.479" height="28.0156" fill="#3A4E61"/>
<rect x="1082.52" y="824.778" width="357.479" height="19.0506" fill="#445B71"/>
<rect x="1082.52" y="825.899" width="357.479" height="13.4475" fill="#577591"/>
<rect x="1082.52" y="849.432" width="357.479" height="80.6849" fill="#31333F"/>
<rect x="1082.52" y="849.432" width="357.479" height="38.1012" fill="#3C3E4E"/>
<rect x="1082.52" y="849.432" width="357.479" height="24.6537" fill="#474A5C"/>
<rect x="1271.91" y="822.537" width="50.428" height="67.2374" rx="20" fill="#9EA1A6"/>
<rect x="1261.82" y="822.537" width="50.428" height="67.2374" rx="20" fill="#BBBDC1"/>
<rect x="1271.91" y="865.121" width="50.428" height="56.0311" fill="#3E0400"/>
<rect x="1261.82" y="865.121" width="50.428" height="56.0311" fill="#570500"/>
<rect x="1122.86" y="447.128" width="7.84424" height="400.062" rx="3.92212" fill="#9EA1A6"/>
<path d="M1146.4 868.118V879.396V925.634H1108.3V879.396V848.383L1112.22 840.488L1121.18 837.105H1132.39L1141.35 840.488L1146.4 848.383V868.118Z" fill="#9EA1A6"/>
<path opacity="0.3" d="M1140.79 868.118V879.396V925.634H1107.18V879.396V848.383L1110.64 840.488L1118.55 837.105H1128.43L1136.34 840.488L1140.79 848.383V868.118Z" fill="white"/>
<rect x="1120.62" y="447.128" width="7.84436" height="400.062" rx="3.92218" fill="#BBBDC1"/>
<rect x="1118.38" y="443.766" width="17.9299" height="6.72372" fill="#A8A8A8"/>
<rect x="1115.02" y="443.766" width="17.9301" height="6.72372" fill="#8B8B8B"/>
<path d="M414.63 432.56L0 391.658V362.521L395.019 410.148L405.105 411.829L410.148 414.63L412.949 417.992L414.63 421.914V432.56Z" fill="#90939A" fill-opacity="0.7"/>
<path d="M742.973 657.805L712.716 592.809L414.63 430.879L0 389.977V657.805H742.973Z" fill="#676E85"/>
<path d="M0 488.591L174.257 604.016L0 612.981V488.591Z" fill="#BB757D"/>
<path d="M177.058 407.346L192.747 409.027H214.039L237.012 413.51L258.304 423.595L279.595 434.802H312.654L308.171 428.638L309.292 423.595L312.654 420.794L323.86 421.914L358.039 425.276L381.012 427.518L397.821 429.198L415.751 438.163L743.533 618.584H296.405L0 438.163V401.743L14.5681 393.339L34.179 392.218L63.3152 397.821L76.7626 400.623L92.4514 406.786L104.218 413.51L123.268 423.595H133.354H154.646L153.525 419.673L156.327 413.51L159.128 405.665L164.732 406.226L170.335 406.786L177.058 407.346Z" fill="#BB757D"/>
<path d="M9.52529 570.397L0 564.233V513.805L66.677 554.708L73.9611 559.751L77.8833 567.595V575.44L73.9611 578.801L66.677 583.844H57.7121H48.7471L37.5409 581.603L26.8949 578.801L17.93 575.44L9.52529 570.397Z" fill="#CFA191"/>
<path d="M251.875 563.113L0 417.992V381.012H9.2857L19.7321 382.693L24.375 383.813L31.3393 385.494L42.366 389.977L307.651 540.529L331.384 554.148L338.934 561.432L340.669 568.156L337.187 575.44L323.872 577.121H307.651L284.375 574.319L265.223 569.276L251.875 563.113Z" fill="#CFA191"/>
<path d="M190.444 402.304L204.839 403.469L220.434 406.965L232.43 412.793L466.952 547.985L478.948 557.308L480.747 568.963L478.348 574.207L466.952 577.121H453.156H441.76L424.366 572.459L405.772 564.883L390.777 554.977L177.848 430.274L165.852 419.785V410.148L168.094 405.665L173.65 403.469L190.444 402.304Z" fill="#CFA191"/>
<path d="M536.618 562.06L515.486 549.408L320.178 431.933L318.257 424.703L320.178 419.281L328.503 416.872H341.95H353.476L367.564 419.281L381.012 424.703L396.38 431.933L601.934 546.999L609.619 562.06V572.904L598.092 577.121H581.443L562.232 572.904L536.618 562.06Z" fill="#CFA191"/>
<path d="M0 481.307V452.732V447.128L7.84436 452.732L247.658 603.455H193.868L0 481.307Z" fill="#82706E"/>
<path d="M152.965 573.199L0 476.265V449.93L184.903 568.156V573.759L181.541 577.121L172.576 578.802L161.93 577.121L152.965 573.199Z" fill="#897979"/>
<path d="M-8.40047 560.626H-8.86807L-11.2061 558.288L-10.7385 553.144L-9.33566 549.403L-6.99767 545.195L-2.32169 540.987L1.88669 539.116H7.03026L13.109 540.987L16.3822 544.26L17.785 548.468L20.5906 554.547H28.0722L29.475 548.468L31.3454 543.325L36.0213 538.181L40.2297 536.778L46.3085 537.714L49.5817 540.987L51.4521 544.26L53.7901 551.274V555.015L52.3873 557.353L51.4521 551.741L49.1141 547.065L46.3085 543.792L43.0353 542.389L39.2945 543.792L36.4889 546.13L33.2157 550.806L31.813 555.482L30.8778 558.755H17.785L16.8498 555.482L13.109 548.001L8.43306 544.727H3.75708L-1.3865 548.001L-6.53008 553.612L-8.40047 560.626Z" fill="#BC7968"/>
<path d="M-52.1048 532.61H-52.5724L-54.9104 530.272L-54.4428 525.129L-53.04 521.388L-50.702 517.179L-46.026 512.971L-41.8177 511.101H-36.6741L-30.5953 512.971L-27.3221 516.244L-25.9193 520.453L-23.1137 526.531H-15.6322L-14.2294 520.453L-12.359 515.309L-7.68301 510.165L-3.47463 508.763L2.60414 509.698L5.87733 512.971L7.74772 516.244L10.0857 523.258V526.999L8.68291 529.337L7.74772 523.726L5.40973 519.05L2.60414 515.777L-0.669044 514.374L-4.40983 515.777L-7.21542 518.115L-10.4886 522.791L-11.8914 527.467L-12.8266 530.74H-25.9193L-26.8545 527.467L-30.5953 519.985L-35.2713 516.712H-39.9473L-45.0908 519.985L-50.2344 525.596L-52.1048 532.61Z" fill="#BC7968"/>
<path d="M378.069 544.824H377.626L375.409 542.607L375.852 537.73L377.182 534.182L379.399 530.192L383.834 526.201L387.824 524.427H392.702L398.466 526.201L401.57 529.305L402.9 533.296L405.561 539.06H412.655L413.986 533.296L415.759 528.418L420.193 523.54L424.184 522.21L429.948 523.097L433.052 526.201L434.826 529.305L437.043 535.956V539.503L435.713 541.72L434.826 536.399L432.609 531.965L429.948 528.861L426.844 527.531L423.297 528.861L420.637 531.078L417.533 535.513L416.203 539.947L415.316 543.051H402.9L402.013 539.947L398.466 532.852L394.032 529.748H389.598L384.72 532.852L379.843 538.173L378.069 544.824Z" fill="#BC7968"/>
<path d="M334.316 519.759H333.881L331.704 517.582L332.14 512.794L333.446 509.311L335.622 505.393L339.976 501.475L343.894 499.733H348.683L354.343 501.475L357.39 504.522L358.696 508.44L361.308 514.1H368.274L369.58 508.44L371.321 503.651L375.675 498.862L379.593 497.556L385.252 498.427L388.3 501.475L390.041 504.522L392.218 511.052V514.535L390.912 516.712L390.041 511.488L387.864 507.134L385.252 504.087L382.205 502.781L378.722 504.087L376.11 506.263L373.063 510.617L371.757 514.97L370.886 518.018H358.696L357.825 514.97L354.343 508.005L349.989 504.957H345.636L340.847 508.005L336.058 513.229L334.316 519.759Z" fill="#BC7968"/>
<path d="M292.805 493.574H292.378L290.241 491.437L290.668 486.737L291.95 483.319L294.087 479.473L298.36 475.628L302.205 473.919H306.905L312.46 475.628L315.451 478.619L316.733 482.464L319.297 488.019H326.133L327.415 482.464L329.124 477.764L333.397 473.064L337.243 471.782L342.798 472.637L345.789 475.628L347.498 478.619L349.634 485.028V488.446L348.352 490.583L347.498 485.455L345.361 481.182L342.798 478.191L339.807 476.91L336.388 478.191L333.825 480.328L330.834 484.601L329.552 488.874L328.697 491.865H316.733L315.878 488.874L312.46 482.037L308.187 479.046H303.914L299.214 482.037L294.514 487.164L292.805 493.574Z" fill="#BC7968"/>
<path d="M246.86 468.92H246.432L244.296 466.784L244.723 462.083L246.005 458.665L248.141 454.82L252.414 450.974L256.26 449.265H260.96L266.515 450.974L269.506 453.965L270.788 457.811L273.351 463.365H280.188L281.47 457.811L283.179 453.11L287.452 448.41L291.298 447.128L296.852 447.983L299.843 450.974L301.552 453.965L303.689 460.374V463.793L302.407 465.929L301.552 460.802L299.416 456.529L296.852 453.538L293.861 452.256L290.443 453.538L287.879 455.674L284.888 459.947L283.606 464.22L282.752 467.211H270.788L269.933 464.22L266.515 457.383L262.242 454.392H257.969L253.269 457.383L248.569 462.511L246.86 468.92Z" fill="#BC7968"/>
<path d="M510.206 541.761H509.779L507.642 539.624L508.069 534.924L509.351 531.506L511.488 527.66L515.761 523.815L519.606 522.105H524.306L529.861 523.815L532.852 526.806L534.134 530.651L536.698 536.206H543.534L544.816 530.651L546.525 525.951L550.798 521.251L554.644 519.969L560.198 520.824L563.19 523.815L564.899 526.806L567.035 533.215V536.633L565.753 538.77L564.899 533.642L562.762 529.369L560.198 526.378L557.207 525.096L553.789 526.378L551.225 528.515L548.234 532.788L546.953 537.06L546.098 540.051H534.134L533.279 537.06L529.861 530.224L525.588 527.233H521.315L516.615 530.224L511.915 535.351L510.206 541.761Z" fill="#BC7968"/>
<path d="M469.864 519.348H469.436L467.3 517.212L467.727 512.511L469.009 509.093L471.145 505.248L475.418 501.402L479.264 499.693H483.964L489.519 501.402L492.51 504.393L493.792 508.239L496.355 513.793H503.192L504.474 508.239L506.183 503.538L510.456 498.838L514.301 497.556L519.856 498.411L522.847 501.402L524.556 504.393L526.693 510.802V514.221L525.411 516.357L524.556 511.23L522.42 506.957L519.856 503.966L516.865 502.684L513.447 503.966L510.883 506.102L507.892 510.375L506.61 514.648L505.756 517.639H493.792L492.937 514.648L489.519 507.811L485.246 504.82H480.973L476.273 507.811L471.573 512.939L469.864 519.348Z" fill="#BC7968"/>
<path d="M432.883 498.056H432.456L430.319 495.92L430.746 491.22L432.028 487.801L434.165 483.956L438.438 480.11L442.283 478.401H446.983L452.538 480.11L455.529 483.101L456.811 486.947L459.375 492.502H466.211L467.493 486.947L469.202 482.247L473.475 477.547L477.321 476.265L482.875 477.119L485.867 480.11L487.576 483.101L489.712 489.511V492.929L488.43 495.065L487.576 489.938L485.439 485.665L482.875 482.674L479.884 481.392L476.466 482.674L473.902 484.81L470.911 489.083L469.63 493.356L468.775 496.347H456.811L455.956 493.356L452.538 486.52L448.265 483.529H443.992L439.292 486.52L434.592 491.647L432.883 498.056Z" fill="#BC7968"/>
<path d="M394.637 474.41H394.234L392.218 472.395L392.621 467.961L393.83 464.736L395.846 461.108L399.877 457.48L403.505 455.868H407.939L413.179 457.48L416.001 460.302L417.21 463.93L419.629 469.17H426.079L427.288 463.93L428.9 459.496L432.931 455.061L436.559 453.852L441.8 454.658L444.621 457.48L446.234 460.302L448.249 466.348V469.573L447.04 471.589L446.234 466.751L444.218 462.72L441.8 459.899L438.978 458.689L435.753 459.899L433.334 461.914L430.513 465.945L429.303 469.976L428.497 472.798H417.21L416.404 469.976L413.179 463.527L409.148 460.705H405.117L400.683 463.527L396.249 468.364L394.637 474.41Z" fill="#BC7968"/>
<path d="M358.777 454.239H358.374L356.358 452.224L356.761 447.789L357.971 444.565L359.986 440.937L364.017 437.309L367.645 435.696H372.079L377.319 437.309L380.141 440.131L381.35 443.758L383.769 448.999H390.219L391.428 443.758L393.04 439.324L397.071 434.89L400.699 433.681L405.94 434.487L408.761 437.309L410.374 440.131L412.389 446.177V449.402L411.18 451.417L410.374 446.58L408.358 442.549L405.94 439.727L403.118 438.518L399.893 439.727L397.475 441.743L394.653 445.774L393.444 449.805L392.637 452.627H381.35L380.544 449.805L377.319 443.355L373.288 440.534H369.257L364.823 443.355L360.389 448.193L358.777 454.239Z" fill="#BC7968"/>
<path d="M330.568 435.785H330.197L328.343 433.931L328.713 429.851L329.826 426.885L331.68 423.547L335.389 420.209L338.726 418.726H342.806L347.627 420.209L350.223 422.805L351.335 426.143L353.561 430.964H359.494L360.607 426.143L362.09 422.064L365.799 417.984L369.136 416.872L373.958 417.613L376.553 420.209L378.037 422.805L379.891 428.368V431.335L378.779 433.189L378.037 428.739L376.183 425.03L373.958 422.434L371.362 421.322L368.395 422.434L366.17 424.289L363.574 427.997L362.461 431.706L361.719 434.302H351.335L350.594 431.706L347.627 425.772L343.918 423.176H340.21L336.13 425.772L332.051 430.222L330.568 435.785Z" fill="#BC7968"/>
<path d="M209.831 447.217H209.411L207.315 445.121L207.734 440.51L208.992 437.156L211.088 433.383L215.28 429.61L219.054 427.933H223.665L229.115 429.61L232.05 432.544L233.307 436.317L235.823 441.767H242.53L243.788 436.317L245.465 431.706L249.657 427.094L253.43 425.837L258.88 426.675L261.815 429.61L263.491 432.544L265.588 438.833V442.186L264.33 444.283L263.491 439.252L261.395 435.06L258.88 432.125L255.945 430.867L252.592 432.125L250.076 434.221L247.142 438.413L245.884 442.606L245.045 445.54H233.307L232.469 442.606L229.115 435.898L224.923 432.964H220.73L216.119 435.898L211.507 440.929L209.831 447.217Z" fill="#BC7968"/>
<path d="M172.802 423.273H172.391L170.335 421.217L170.746 416.694L171.979 413.405L174.035 409.705L178.147 406.004L181.847 404.359H186.37L191.715 406.004L194.593 408.882L195.827 412.583L198.294 417.928H204.872L206.106 412.583L207.751 408.06L211.862 403.537L215.563 402.304L220.908 403.126L223.786 406.004L225.431 408.882L227.486 415.05V418.339L226.253 420.395L225.431 415.461L223.375 411.349L220.908 408.471L218.03 407.238L214.74 408.471L212.273 410.527L209.395 414.638L208.162 418.75L207.339 421.628H195.827L195.005 418.75L191.715 412.172L187.604 409.293H183.492L178.969 412.172L174.446 417.105L172.802 423.273Z" fill="#BC7968"/>
<path d="M234.775 549.419H234.307L231.969 547.082L232.437 541.938L233.839 538.197L236.177 533.989L240.853 529.78L245.062 527.91H250.205L256.284 529.78L259.557 533.054L260.96 537.262L263.766 543.341H271.247L272.65 537.262L274.52 532.118L279.196 526.975L283.405 525.572L289.484 526.507L292.757 529.78L294.627 533.054L296.965 540.068V543.808L295.562 546.146L294.627 540.535L292.289 535.859L289.484 532.586L286.21 531.183L282.47 532.586L279.664 534.924L276.391 539.6L274.988 544.276L274.053 547.549H260.96L260.025 544.276L256.284 536.794L251.608 533.521H246.932L241.789 536.794L236.645 542.406L234.775 549.419Z" fill="#BC7968"/>
<path d="M177.623 516.921H177.155L174.817 514.583L175.285 509.44L176.688 505.699L179.026 501.491L183.701 497.282L187.91 495.412H193.053L199.132 497.282L202.405 500.556L203.808 504.764L206.614 510.843H214.095L215.498 504.764L217.369 499.62L222.045 494.477L226.253 493.074L232.332 494.009L235.605 497.282L237.475 500.556L239.813 507.569V511.31L238.41 513.648L237.475 508.037L235.137 503.361L232.332 500.088L229.058 498.685L225.318 500.088L222.512 502.426L219.239 507.102L217.836 511.778L216.901 515.051H203.808L202.873 511.778L199.132 504.296L194.456 501.023H189.78L184.637 504.296L179.493 509.907L177.623 516.921Z" fill="#BC7968"/>
<path d="M124.954 486.665H124.486L122.148 484.327L122.616 479.183L124.018 475.442L126.356 471.234L131.032 467.026L135.241 465.155H140.384L146.463 467.026L149.736 470.299L151.139 474.507L153.945 480.586H161.426L162.829 474.507L164.699 469.364L169.375 464.22L173.584 462.817L179.662 463.752L182.936 467.026L184.806 470.299L187.144 477.313V481.053L185.741 483.391L184.806 477.78L182.468 473.104L179.662 469.831L176.389 468.428L172.649 469.831L169.843 472.169L166.57 476.845L165.167 481.521L164.232 484.794H151.139L150.204 481.521L146.463 474.039L141.787 470.766H137.111L131.968 474.039L126.824 479.651L124.954 486.665Z" fill="#BC7968"/>
<path d="M77.8874 459.77H77.4198L75.0818 457.432L75.5494 452.288L76.9522 448.547L79.2902 444.339L83.9661 440.131L88.1745 438.26H93.3181L99.3969 440.131L102.67 443.404L104.073 447.612L106.878 453.691H114.36L115.763 447.612L117.633 442.469L122.309 437.325L126.518 435.922L132.596 436.857L135.87 440.131L137.74 443.404L140.078 450.418V454.159L138.675 456.497L137.74 450.885L135.402 446.209L132.596 442.936L129.323 441.533L125.582 442.936L122.777 445.274L119.504 449.95L118.101 454.626L117.166 457.899H104.073L103.138 454.626L99.3969 447.145L94.7209 443.871H90.0449L84.9013 447.145L79.7578 452.756L77.8874 459.77Z" fill="#BC7968"/>
<path d="M30.8212 432.875H30.3536L28.0156 430.537L28.4832 425.393L29.886 421.652L32.224 417.444L36.9 413.236L41.1084 411.365H46.2519L52.3307 413.236L55.6039 416.509L57.0067 420.717L59.8123 426.796H67.2938L68.6966 420.717L70.567 415.574L75.243 410.43L79.4514 409.027L85.5302 409.963L88.8034 413.236L90.6737 416.509L93.0117 423.523V427.264L91.6089 429.602L90.6737 423.99L88.3358 419.315L85.5302 416.041L82.257 414.639L78.5162 416.041L75.7106 418.379L72.4374 423.055L71.0346 427.731L70.0994 431.004H57.0067L56.0715 427.731L52.3307 420.25L47.6547 416.977H42.9788L37.8352 420.25L32.6916 425.861L30.8212 432.875Z" fill="#BC7968"/>
<path d="M-15.1243 407.1H-15.5919L-17.9299 404.762L-17.4623 399.619L-16.0595 395.878L-13.7216 391.67L-9.04557 387.461L-4.83719 385.591H0.306387L6.38516 387.461L9.65834 390.734L11.0611 394.943L13.8667 401.022H21.3483L22.7511 394.943L24.6215 389.799L29.2975 384.656L33.5058 383.253L39.5846 384.188L42.8578 387.461L44.7282 390.734L47.0662 397.748V401.489L45.6634 403.827L44.7282 398.216L42.3902 393.54L39.5846 390.267L36.3114 388.864L32.5706 390.267L29.7651 392.605L26.4919 397.281L25.0891 401.957L24.1539 405.23H11.0611L10.1259 401.957L6.38516 394.475L1.70918 391.202H-2.9668L-8.11038 394.475L-13.254 400.086L-15.1243 407.1Z" fill="#BC7968"/>
<path d="M734.008 614.101H312.093H0V565.914L716.638 572.638L726.163 573.759L734.008 575.44L742.973 578.801L749.696 582.724V592.809V614.101H734.008Z" fill="#90939A" fill-opacity="0.7"/>
<path d="M285.759 592.809H0V804.607H1097.09L763.144 592.809H706.552L697.588 612.981L662.848 592.809H326.661L312.093 611.3L285.759 592.809Z" fill="#5C6277"/>
<path d="M0 711.595V627.549V610.179H11.7665L19.6109 611.3L26.3346 612.42L36.4202 617.463L43.144 623.066H69.4786L71.1595 618.584L74.5214 615.222L82.3658 612.42H144L160.809 618.584L169.214 623.626H174.817H192.187L205.074 615.222L216.84 612.42H230.848H245.416L263.907 615.222L280.716 618.584L296.405 627.549L582.724 790.039L633.152 822.537H567.035H478.506H392.218H133.914H78.4436H0V711.595Z" fill="#BB757D"/>
<path d="M701.51 823.658L407.346 646.039L421.914 629.79L430.879 620.265L448.809 611.86L468.42 609.619H490.272L516.047 611.86L533.977 617.463L545.743 622.506L556.389 626.988L576.56 637.634H597.852L593.93 629.79V622.506L607.938 617.463H621.385H638.194L658.926 620.265L677.977 626.988L693.665 633.152H723.922V626.988L730.086 620.265L741.292 617.463H781.634L792.28 620.265L1078.04 804.607L1106.05 823.658H701.51Z" fill="#BB757D"/>
<path d="M316.906 777.688L85.9033 640.988L76.2024 632.723L82.8718 623.821L90.7538 617.463H106.518H136.833L153.203 623.821L167.148 632.723L178.668 640.988L388.451 756.706L401.183 768.787V777.688L393.301 791.676L376.931 796.763H358.741L338.127 791.676L316.906 777.688Z" fill="#CFA191"/>
<path d="M467.86 781.634L210.117 635.393L200.031 626.988L206.195 620.265L220.763 615.782H230.848L248.778 616.903L263.346 621.385L274.553 627.549L288.56 635.393L522.771 761.463L532.856 770.988L537.899 781.634V790.039L522.771 793.401H504.841L485.79 790.039L467.86 781.634Z" fill="#CFA191"/>
<path d="M0 676.267V620.241V614.101H3.34861L12.055 615.636L18.7522 617.171L27.4586 620.241L36.8347 624.846L46.2108 631.753L212.302 749.178L222.347 760.691L226.366 775.273L222.347 787.553L212.302 796.763H196.898L171.449 791.39L154.036 783.715L137.963 775.273L0 676.267Z" fill="#CFA191"/>
<path d="M539.58 627.549L563.673 641.556L792.28 769.868L801.805 779.953L799.004 788.918L792.28 798.444H774.911H758.662L736.249 794.521L720.56 788.918L700.949 779.953L481.307 648.28L467.86 641.556L460.016 627.549L465.058 620.825L481.307 617.463H502.039L523.331 620.825L539.58 627.549Z" fill="#CFA191"/>
<path d="M679.097 633.152L702.07 646.039L897.059 746.895L903.782 759.222V772.109L893.697 780.514L876.327 783.315L858.957 780.514L841.027 772.109L616.343 642.117L609.059 636.514V629.23L616.343 624.187H631.471H650.522L663.969 626.988L679.097 633.152Z" fill="#CFA191"/>
<path d="M809.09 630.35L823.097 637.634L1019.77 761.463L1036.02 772.669L1046.66 781.634L1048.9 788.358L1046.66 795.642L1040.5 799.564H1027.61H1010.8L972.701 779.953L739.051 642.117L730.086 630.35L743.533 623.066H770.988H791.16L809.09 630.35Z" fill="#CFA191"/>
<path d="M366.271 605.219L385.199 616.306L660.626 775.442L716.638 808.529H691.984L683.02 810.21H663.969H652.202L634.833 805.728L321.89 623.481L316.016 609.784L333.638 600.654H355.829L366.271 605.219Z" fill="#82706E"/>
<path d="M396.456 624.773L412.824 634.361L651.008 771.978L661.167 781.566V792.283L651.008 796.231H634.64L615.45 792.283L358.076 640.565L352.996 628.721L368.235 620.825H387.425L396.456 624.773Z" fill="#897979"/>
<path d="M132.137 765.123H131.593L128.872 762.402L129.416 756.416L131.048 752.063L133.769 747.165L139.211 742.267L144.109 740.091H150.095L157.169 742.267L160.979 746.077L162.611 750.974L165.876 758.049H174.583L176.216 750.974L178.393 744.988L183.834 739.002L188.732 737.37L195.807 738.458L199.616 742.267L201.793 746.077L204.514 754.239V758.593L202.881 761.314L201.793 754.784L199.072 749.342L195.807 745.532L191.997 743.9L187.644 745.532L184.379 748.253L180.569 753.695L178.937 759.137L177.848 762.946H162.611L161.523 759.137L157.169 750.43L151.727 746.621H146.286L140.3 750.43L134.313 756.96L132.137 765.123Z" fill="#BC7968"/>
<path d="M87.312 733.746H86.7678L84.0469 731.025L84.5911 725.039L86.2236 720.685L88.9446 715.788L94.3864 710.89L99.2841 708.713H105.27L112.345 710.89L116.154 714.699L117.786 719.597L121.052 726.671H129.759L131.391 719.597L133.568 713.611L139.01 707.625L143.907 705.992L150.982 707.081L154.791 710.89L156.968 714.699L159.689 722.862V727.215L158.056 729.936L156.968 723.406L154.247 717.964L150.982 714.155L147.173 712.522L142.819 714.155L139.554 716.876L135.745 722.318L134.112 727.76L133.024 731.569H117.786L116.698 727.76L112.345 719.053L106.903 715.243H101.461L95.4748 719.053L89.4887 725.583L87.312 733.746Z" fill="#BC7968"/>
<path d="M47.9691 703.582H47.4451L44.825 700.961L45.349 695.197L46.9211 691.005L49.5412 686.289L54.7816 681.572L59.4979 679.476H65.2622L72.0746 681.572L75.7428 685.24L77.3149 689.957L80.4591 696.769H88.8437L90.4157 689.957L92.5119 684.192L97.7522 678.428L102.468 676.856L109.281 677.904L112.949 681.572L115.045 685.24L117.665 693.101V697.293L116.093 699.913L115.045 693.625L112.425 688.385L109.281 684.716L105.613 683.144L101.42 684.716L98.2762 687.337L94.608 692.577L93.0359 697.817L91.9878 701.485H77.3149L76.2669 697.817L72.0746 689.433L66.8343 685.765H61.594L55.8296 689.433L50.0653 695.721L47.9691 703.582Z" fill="#BC7968"/>
<path d="M4.26504 674.445H3.74101L1.12085 671.825L1.64488 666.061L3.21698 661.869L5.83714 657.152L11.0775 652.436L15.7938 650.34H21.5581L28.3705 652.436L32.0387 656.104L33.6108 660.821L36.755 667.633H45.1396L46.7116 660.821L48.8078 655.056L54.0481 649.292L58.7644 647.72L65.5768 648.768L69.245 652.436L71.3412 656.104L73.9613 663.965V668.157L72.3892 670.777L71.3412 664.489L68.721 659.249L65.5768 655.58L61.9086 654.008L57.7163 655.58L54.5721 658.2L50.9039 663.441L49.3318 668.681L48.2837 672.349H33.6108L32.5628 668.681L28.3705 660.297L23.1302 656.628H17.8899L12.1255 660.297L6.36117 666.585L4.26504 674.445Z" fill="#BC7968"/>
<path d="M-36.1742 643.366H-36.6821L-39.2217 640.827L-38.7138 635.24L-37.19 631.177L-34.6505 626.605L-29.5714 622.034L-25.0003 620.003H-19.4133L-12.8105 622.034L-9.2551 625.59L-7.73138 630.161L-4.68393 636.764H3.4426L4.96632 630.161L6.99795 624.574L12.077 618.987L16.6482 617.463L23.251 618.479L26.8064 622.034L28.838 625.59L31.3775 633.208V637.271L29.8538 639.811L28.838 633.716L26.2985 628.637L23.251 625.082L19.6957 623.558L15.6324 625.082L12.5849 627.621L9.02958 632.7L7.50586 637.779L6.49004 641.335H-7.73138L-8.7472 637.779L-12.8105 629.653L-17.8895 626.097H-22.9686L-28.5556 629.653L-34.1426 635.748L-36.1742 643.366Z" fill="#BC7968"/>
<path d="M293.482 762.676H292.942L290.241 759.976L290.782 754.034L292.402 749.713L295.103 744.851L300.504 739.99L305.366 737.829H311.308L318.33 739.99L322.111 743.771L323.731 748.632L326.972 755.654H335.615L337.235 748.632L339.396 742.691L344.797 736.749L349.659 735.128L356.681 736.209L360.462 739.99L362.622 743.771L365.323 751.873V756.195L363.703 758.895L362.622 752.413L359.922 747.012L356.681 743.231L352.9 741.61L348.578 743.231L345.337 745.932L341.556 751.333L339.936 756.735L338.856 760.516H323.731L322.651 756.735L318.33 748.092L312.928 744.311H307.526L301.585 748.092L295.643 754.574L293.482 762.676Z" fill="#BC7968"/>
<path d="M242.958 731.597H242.434L239.813 728.977L240.338 723.213L241.91 719.02L244.53 714.304L249.77 709.588L254.486 707.492H260.251L267.063 709.588L270.731 713.256L272.303 717.972L275.448 724.785H283.832L285.404 717.972L287.5 712.208L292.741 706.444L297.457 704.872L304.269 705.92L307.938 709.588L310.034 713.256L312.654 721.117V725.309L311.082 727.929L310.034 721.641L307.414 716.4L304.269 712.732L300.601 711.16L296.409 712.732L293.265 715.352L289.597 720.593L288.024 725.833L286.976 729.501H272.303L271.255 725.833L267.063 717.448L261.823 713.78H256.583L250.818 717.448L245.054 723.737L242.958 731.597Z" fill="#BC7968"/>
<path d="M191.312 701.639H190.804L188.265 699.099L188.773 693.512L190.296 689.449L192.836 684.878L197.915 680.307L202.486 678.275H208.073L214.676 680.307L218.231 683.862L219.755 688.433L222.802 695.036H230.929L232.453 688.433L234.484 682.846L239.563 677.259L244.135 675.735L250.737 676.751L254.293 680.307L256.324 683.862L258.864 691.48V695.544L257.34 698.083L256.324 691.988L253.785 686.909L250.737 683.354L247.182 681.83L243.119 683.354L240.071 685.893L236.516 690.973L234.992 696.052L233.976 699.607H219.755L218.739 696.052L214.676 687.925L209.597 684.37H204.518L198.931 687.925L193.344 694.02L191.312 701.639Z" fill="#BC7968"/>
<path d="M139.667 671.68H139.175L136.716 669.221L137.208 663.812L138.683 659.877L141.142 655.451L146.06 651.025L150.486 649.058H155.896L162.289 651.025L165.731 654.468L167.207 658.894L170.157 665.287H178.026L179.501 658.894L181.468 653.484L186.386 648.074L190.812 646.599L197.206 647.583L200.648 651.025L202.615 654.468L205.074 661.844V665.779L203.599 668.238L202.615 662.336L200.156 657.418L197.206 653.976L193.763 652.501L189.829 653.976L186.878 656.435L183.436 661.353L181.96 666.27L180.977 669.713H167.207L166.223 666.27L162.289 658.402L157.371 654.959H152.453L147.044 658.402L141.634 664.303L139.667 671.68Z" fill="#BC7968"/>
<path d="M94.7451 641.722H94.2694L91.8911 639.343L92.3668 634.111L93.7938 630.306L96.1721 626.025L100.929 621.744L105.21 619.841H110.442L116.625 621.744L119.955 625.074L121.382 629.355L124.236 635.538H131.847L133.274 629.355L135.176 624.122L139.933 618.89L144.214 617.463L150.397 618.414L153.727 621.744L155.63 625.074L158.008 632.208V636.014L156.581 638.392L155.63 632.684L153.251 627.928L150.397 624.598L147.068 623.171L143.262 624.598L140.408 626.976L137.079 631.733L135.652 636.489L134.701 639.819H121.382L120.431 636.489L116.625 628.879L111.869 625.549H107.112L101.88 628.879L96.6477 634.587L94.7451 641.722Z" fill="#BC7968"/>
<path d="M433.125 760.096H432.657L430.319 757.759L430.787 752.615L432.189 748.874L434.527 744.666L439.203 740.457L443.412 738.587H448.555L454.634 740.457L457.907 743.731L459.31 747.939L462.116 754.018H469.597L471 747.939L472.871 742.795L477.546 737.652L481.755 736.249L487.834 737.184L491.107 740.457L492.977 743.731L495.315 750.745V754.485L493.912 756.823L492.977 751.212L490.639 746.536L487.834 743.263L484.56 741.86L480.82 743.263L478.014 745.601L474.741 750.277L473.338 754.953L472.403 758.226H459.31L458.375 754.953L454.634 747.471L449.958 744.198H445.282L440.139 747.471L434.995 753.083L433.125 760.096Z" fill="#BC7968"/>
<path d="M376.997 729.017H376.545L374.288 726.76L374.74 721.794L376.094 718.182L378.351 714.119L382.866 710.055L386.929 708.25H391.896L397.765 710.055L400.925 713.216L402.279 717.279L404.988 723.148H412.212L413.566 717.279L415.372 712.313L419.887 707.347L423.95 705.992L429.819 706.895L432.98 710.055L434.786 713.216L437.043 719.988V723.6L435.689 725.857L434.786 720.439L432.528 715.925L429.819 712.764L426.659 711.41L423.047 712.764L420.338 715.022L417.178 719.536L415.824 724.051L414.921 727.211H402.279L401.377 724.051L397.765 716.828L393.25 713.667H388.735L383.769 716.828L378.803 722.245L376.997 729.017Z" fill="#BC7968"/>
<path d="M323.11 697.938H322.675L320.498 695.761L320.933 690.973L322.239 687.49L324.416 683.572L328.77 679.653L332.688 677.912H337.477L343.136 679.653L346.184 682.701L347.49 686.619L350.102 692.279H357.067L358.373 686.619L360.115 681.83L364.468 677.041L368.387 675.735L374.046 676.606L377.094 679.653L378.835 682.701L381.012 689.231V692.714L379.706 694.891L378.835 689.666L376.658 685.313L374.046 682.266L370.999 680.96L367.516 682.266L364.904 684.442L361.856 688.796L360.55 693.149L359.68 696.197H347.49L346.619 693.149L343.136 686.184L338.783 683.136H334.429L329.64 686.184L324.852 691.408L323.11 697.938Z" fill="#BC7968"/>
<path d="M270.441 668.802H270.006L267.829 666.625L268.264 661.836L269.57 658.354L271.747 654.435L276.101 650.517L280.019 648.776H284.807L290.467 650.517L293.514 653.565L294.821 657.483L297.433 663.142H304.398L305.704 657.483L307.446 652.694L311.799 647.905L315.717 646.599L321.377 647.47L324.424 650.517L326.166 653.565L328.342 660.095V663.578L327.036 665.754L326.166 660.53L323.989 656.177L321.377 653.129L318.329 651.823L314.847 653.129L312.235 655.306L309.187 659.66L307.881 664.013L307.01 667.061H294.821L293.95 664.013L290.467 657.048L286.114 654H281.76L276.971 657.048L272.182 662.272L270.441 668.802Z" fill="#BC7968"/>
<path d="M222.061 639.142H221.658L219.642 637.126L220.045 632.692L221.254 629.467L223.27 625.839L227.301 622.212L230.929 620.599H235.363L240.603 622.212L243.425 625.033L244.634 628.661L247.053 633.902H253.503L254.712 628.661L256.324 624.227L260.355 619.793L263.983 618.584L269.224 619.39L272.045 622.212L273.658 625.033L275.673 631.08V634.305L274.464 636.32L273.658 631.483L271.642 627.452L269.224 624.63L266.402 623.421L263.177 624.63L260.758 626.646L257.937 630.677L256.727 634.708L255.921 637.529H244.634L243.828 634.708L240.603 628.258L236.572 625.436H232.541L228.107 628.258L223.673 633.095L222.061 639.142Z" fill="#BC7968"/>
<path d="M687.506 764.579H687.038L684.7 762.241L685.168 757.097L686.571 753.357L688.909 749.148L693.585 744.94L697.793 743.069H702.937L709.016 744.94L712.289 748.213L713.692 752.421L716.497 758.5H723.979L725.381 752.421L727.252 747.278L731.928 742.134L736.136 740.731L742.215 741.667L745.488 744.94L747.359 748.213L749.697 755.227V758.968L748.294 761.306L747.359 755.695L745.021 751.019L742.215 747.745L738.942 746.343L735.201 747.745L732.395 750.083L729.122 754.759L727.719 759.435L726.784 762.709H713.692L712.756 759.435L709.016 751.954L704.34 748.681H699.664L694.52 751.954L689.376 757.565L687.506 764.579Z" fill="#BC7968"/>
<path d="M631.475 733.202H631.007L628.669 730.864L629.137 725.72L630.54 721.979L632.878 717.771L637.554 713.562L641.762 711.692H646.906L652.985 713.562L656.258 716.836L657.66 721.044L660.466 727.123H667.948L669.35 721.044L671.221 715.9L675.897 710.757L680.105 709.354L686.184 710.289L689.457 713.562L691.328 716.836L693.666 723.85V727.59L692.263 729.928L691.328 724.317L688.99 719.641L686.184 716.368L682.911 714.965L679.17 716.368L676.364 718.706L673.091 723.382L671.688 728.058L670.753 731.331H657.66L656.725 728.058L652.985 720.576L648.309 717.303H643.633L638.489 720.576L633.345 726.188L631.475 733.202Z" fill="#BC7968"/>
<path d="M575.395 700.292H574.936L572.638 697.995L573.098 692.94L574.476 689.263L576.774 685.128L581.369 680.992L585.505 679.154H590.56L596.534 680.992L599.751 684.209L601.129 688.344L603.887 694.318H611.239L612.618 688.344L614.456 683.289L619.051 678.235L623.187 676.856L629.161 677.775L632.378 680.992L634.216 684.209L636.514 691.102V694.778L635.135 697.076L634.216 691.561L631.918 686.966L629.161 683.749L625.944 682.37L622.268 683.749L619.511 686.047L616.294 690.642L614.915 695.237L613.996 698.454H601.129L600.21 695.237L596.534 687.885L591.939 684.668H587.343L582.288 687.885L577.234 693.399L575.395 700.292Z" fill="#BC7968"/>
<path d="M523.847 670.036H523.387L521.09 667.738L521.549 662.683L522.928 659.007L525.225 654.871L529.821 650.735L533.957 648.897H539.011L544.985 650.735L548.202 653.952L549.581 658.088L552.338 664.062H559.691L561.069 658.088L562.907 653.033L567.503 647.978L571.639 646.599L577.613 647.518L580.829 650.735L582.667 653.952L584.965 660.845V664.521L583.586 666.819L582.667 661.304L580.37 656.709L577.613 653.492L574.396 652.114L570.719 653.492L567.962 655.79L564.746 660.385L563.367 664.981L562.448 668.197H549.581L548.662 664.981L544.985 657.628L540.39 654.411H535.795L530.74 657.628L525.685 663.142L523.847 670.036Z" fill="#BC7968"/>
<path d="M472.298 639.779H471.839L469.541 637.481L470.001 632.426L471.379 628.75L473.677 624.614L478.272 620.478L482.408 618.64H487.463L493.437 620.478L496.654 623.695L498.032 627.831L500.789 633.805H508.142L509.521 627.831L511.359 622.776L515.954 617.721L520.09 616.342L526.064 617.261L529.281 620.478L531.119 623.695L533.417 630.588V634.264L532.038 636.562L531.119 631.048L528.821 626.452L526.064 623.235L522.847 621.857L519.171 623.235L516.414 625.533L513.197 630.128L511.818 634.724L510.899 637.941H498.032L497.113 634.724L493.437 627.371L488.842 624.155H484.246L479.191 627.371L474.136 632.886L472.298 639.779Z" fill="#BC7968"/>
<path d="M820.764 755.912H820.312L818.055 753.655L818.506 748.689L819.861 745.077L822.118 741.014L826.633 736.95L830.696 735.145H835.662L841.531 736.95L844.692 740.111L846.046 744.174L848.755 750.043H855.978L857.333 744.174L859.139 739.208L863.654 734.242L867.717 732.887L873.586 733.79L876.746 736.95L878.552 740.111L880.81 746.883V750.495L879.455 752.752L878.552 747.334L876.295 742.82L873.586 739.659L870.426 738.305L866.814 739.659L864.105 741.917L860.945 746.431L859.59 750.946L858.687 754.106H846.046L845.143 750.946L841.531 743.723L837.017 740.562H832.502L827.536 743.723L822.569 749.14L820.764 755.912Z" fill="#BC7968"/>
<path d="M771.456 727.897H771.005L768.747 725.639L769.199 720.673L770.553 717.061L772.811 712.998L777.325 708.935L781.389 707.129H786.355L792.224 708.935L795.384 712.095L796.739 716.158L799.448 722.028H806.671L808.026 716.158L809.831 711.192L814.346 706.226L818.409 704.872L824.279 705.775L827.439 708.935L829.245 712.095L831.502 718.867V722.479L830.148 724.736L829.245 719.319L826.987 714.804L824.279 711.644L821.118 710.289L817.506 711.644L814.798 713.901L811.637 718.416L810.283 722.931L809.38 726.091H796.739L795.836 722.931L792.224 715.707L787.709 712.547H783.194L778.228 715.707L773.262 721.125L771.456 727.897Z" fill="#BC7968"/>
<path d="M720.931 700.179H720.496L718.319 698.003L718.754 693.214L720.06 689.731L722.237 685.813L726.591 681.895L730.509 680.153H735.298L740.957 681.895L744.005 684.942L745.311 688.86L747.923 694.52H754.889L756.195 688.86L757.936 684.071L762.289 679.283L766.208 677.977L771.867 678.847L774.915 681.895L776.656 684.942L778.833 691.472V694.955L777.527 697.132L776.656 691.908L774.479 687.554L771.867 684.507L768.82 683.201L765.337 684.507L762.725 686.684L759.677 691.037L758.371 695.391L757.501 698.438H745.311L744.44 695.391L740.957 688.425L736.604 685.378H732.25L727.461 688.425L722.673 693.649L720.931 700.179Z" fill="#BC7968"/>
<path d="M678.348 676.646H677.912L675.736 674.47L676.171 669.681L677.477 666.198L679.654 662.28L684.007 658.362L687.925 656.62H692.714L698.374 658.362L701.421 661.409L702.727 665.327L705.339 670.987H712.305L713.611 665.327L715.352 660.538L719.706 655.75L723.624 654.444L729.284 655.314L732.331 658.362L734.072 661.409L736.249 667.939V671.422L734.943 673.599L734.072 668.375L731.896 664.021L729.284 660.974L726.236 659.668L722.753 660.974L720.141 663.151L717.094 667.504L715.788 671.858L714.917 674.905H702.727L701.857 671.858L698.374 664.892L694.02 661.845H689.667L684.878 664.892L680.089 670.116L678.348 676.646Z" fill="#BC7968"/>
<path d="M633.426 650.05H633.007L630.911 647.954L631.33 643.342L632.588 639.988L634.684 636.215L638.876 632.442L642.649 630.765H647.26L652.71 632.442L655.645 635.377L656.903 639.15L659.418 644.6H666.126L667.383 639.15L669.06 634.538L673.252 629.927L677.025 628.669L682.475 629.508L685.41 632.442L687.087 635.377L689.183 641.665V645.019L687.925 647.115L687.087 642.084L684.991 637.892L682.475 634.958L679.541 633.7L676.187 634.958L673.672 637.054L670.737 641.246L669.479 645.438L668.641 648.373H656.903L656.064 645.438L652.71 638.731L648.518 635.796H644.326L639.714 638.731L635.103 643.761L633.426 650.05Z" fill="#BC7968"/>
<path d="M947.2 762.112H946.781L944.685 760.016L945.104 755.404L946.362 752.051L948.458 748.278L952.65 744.504L956.423 742.828H961.035L966.485 744.504L969.419 747.439L970.677 751.212L973.192 756.662H979.9L981.158 751.212L982.835 746.601L987.027 741.989L990.8 740.731L996.25 741.57L999.184 744.504L1000.86 747.439L1002.96 753.727V757.081L1001.7 759.177L1000.86 754.147L998.765 749.954L996.25 747.02L993.315 745.762L989.961 747.02L987.446 749.116L984.511 753.308L983.254 757.501L982.415 760.435H970.677L969.839 757.501L966.485 750.793L962.293 747.858H958.1L953.489 750.793L948.877 755.824L947.2 762.112Z" fill="#BC7968"/>
<path d="M897.893 731.855H897.474L895.377 729.759L895.797 725.148L897.054 721.794L899.15 718.021L903.343 714.248L907.116 712.571H911.727L917.177 714.248L920.112 717.182L921.369 720.955L923.885 726.405H930.592L931.85 720.955L933.527 716.344L937.719 711.732L941.492 710.475L946.942 711.313L949.877 714.248L951.554 717.182L953.65 723.471V726.824L952.392 728.921L951.554 723.89L949.458 719.698L946.942 716.763L944.008 715.505L940.654 716.763L938.138 718.859L935.204 723.051L933.946 727.244L933.108 730.178H921.369L920.531 727.244L917.177 720.536L912.985 717.601H908.793L904.181 720.536L899.57 725.567L897.893 731.855Z" fill="#BC7968"/>
<path d="M851.947 703.84H851.528L849.432 701.744L849.851 697.132L851.109 693.778L853.205 690.005L857.397 686.232L861.17 684.555H865.782L871.232 686.232L874.166 689.167L875.424 692.94L877.939 698.39H884.647L885.905 692.94L887.582 688.328L891.774 683.717L895.547 682.459L900.997 683.298L903.931 686.232L905.608 689.167L907.704 695.455V698.809L906.447 700.905L905.608 695.874L903.512 691.682L900.997 688.748L898.062 687.49L894.708 688.748L892.193 690.844L889.259 695.036L888.001 699.228L887.162 702.163H875.424L874.586 699.228L871.232 692.521L867.04 689.586H862.847L858.236 692.521L853.624 697.551L851.947 703.84Z" fill="#BC7968"/>
<path d="M810.484 679.186H810.065L807.969 677.09L808.388 672.478L809.646 669.125L811.742 665.351L815.934 661.578L819.707 659.902H824.319L829.769 661.578L832.703 664.513L833.961 668.286L836.476 673.736H843.184L844.442 668.286L846.119 663.675L850.311 659.063L854.084 657.805L859.534 658.644L862.468 661.578L864.145 664.513L866.241 670.801V674.155L864.984 676.251L864.145 671.221L862.049 667.028L859.534 664.094L856.599 662.836L853.245 664.094L850.73 666.19L847.795 670.382L846.538 674.574L845.699 677.509H833.961L833.123 674.574L829.769 667.867L825.576 664.932H821.384L816.773 667.867L812.161 672.898L810.484 679.186Z" fill="#BC7968"/>
<path d="M765.659 650.05H765.24L763.144 647.954L763.563 643.342L764.821 639.988L766.917 636.215L771.109 632.442L774.882 630.765H779.494L784.944 632.442L787.878 635.377L789.136 639.15L791.651 644.6H798.359L799.617 639.15L801.294 634.538L805.486 629.927L809.259 628.669L814.709 629.508L817.643 632.442L819.32 635.377L821.416 641.665V645.019L820.159 647.115L819.32 642.084L817.224 637.892L814.709 634.958L811.774 633.7L808.42 634.958L805.905 637.054L802.97 641.246L801.713 645.438L800.874 648.373H789.136L788.298 645.438L784.944 638.731L780.752 635.796H776.559L771.948 638.731L767.336 643.761L765.659 650.05Z" fill="#BC7968"/>
<path d="M1166.57 781.074L1168.81 786.677L1169.93 804.607V806.848H0V750.817L1118.38 768.747L1143.03 770.988L1155.36 774.911L1166.57 781.074Z" fill="#90939A" fill-opacity="0.7"/>
<path d="M1169.93 804.607H0V940.202H1030.41V830.381H1162.09L1167.69 825.338L1169.93 816.934V810.77V804.607Z" fill="#6C7185"/>
<rect x="546.864" y="821.416" width="163.623" height="116.545" fill="#A8A8A8"/>
<rect x="553.576" y="821.416" width="163.623" height="116.545" fill="#C4C4C4"/>
<path d="M306.49 881.93C239.701 876.999 74.3346 862.319 0 855.595V1188.42H1440V899.86C1404.89 900.794 1306.42 904.118 1193.46 909.945C1111.28 915.175 894.593 924.065 685.261 917.79C423.595 909.945 389.977 888.093 306.49 881.93Z" fill="#94A0A3"/>
<path d="M306.49 875.206C239.701 870.275 74.3346 855.595 0 848.872V1181.7H1440V893.136C1404.89 894.07 1306.42 897.395 1193.46 903.222C1111.28 908.451 894.593 917.342 685.261 911.066C423.595 903.222 389.977 881.37 306.49 875.206Z" fill="#A2ACAF" fill-opacity="0.6"/>
<path d="M25.214 1099.33L0 1102.69V1479.22L1440 1304.4V959.813H1385.09L1314.49 956.451L1223.72 950.288H1157.6L1143.03 988.389L973.821 996.233V979.424L968.778 958.693L936.28 981.665L916.669 996.233L819.175 1001.84L729.525 1017.53L646.599 1035.46L604.016 1056.75L503.16 1089.25L568.156 1035.46H503.16L416.872 1056.75L347.393 1071.32L275.673 1089.25L218.521 1102.69H174.817L198.35 1071.32H144.56L100.856 1076.92L50.9883 1089.25L25.214 1099.33Z" fill="#444549"/>
<path d="M0 2052.98V1295.44L135.595 1258.46L234.21 1193.46L363.082 1150.88L576 1123.98L559.191 1156.48V1185.62L1271.91 1071.32L1440 1029.29V2052.98H0Z" fill="#626264"/>
<path d="M537.338 1260.14L556.389 1219.8L592.809 1139.67L654.443 1101.57L778.833 1072.44L885.852 1056.75L1010.8 1045.54H1138.55L1121.74 1089.81L1209.71 1072.44L1257.9 1045.54L1354.83 1013.6L1440 991.751V1218.12L1354.83 1219.8V1260.14L1222.6 1219.8L1279.19 1322.33L1076.36 1287.6V1343.07L978.864 1370.52L902.661 1454.01L817.494 1508.92L761.463 1552.06H698.708L605.136 1639.47V1442.8L620.825 1356.51L661.167 1287.6L724.482 1219.8L537.338 1260.14Z" fill="#353337"/>
<path d="M0 1920H1440V1549C1078.6 1658.95 746.895 1745.56 500.918 1757.23C278.139 1767.79 107.58 1716.07 0 1675.23V1920Z" fill="#38383A" fill-opacity="0.7"/>
<path d="M0 2052.98H1440V1716.79C1205.6 1763.11 686.381 1857.88 484.669 1866.4C282.957 1874.91 77.5097 1815.78 0 1785.15V2052.98Z" fill="#1A1A1A"/>
<path d="M823.657 1290.4L847.191 1282.55L858.397 1311.13V1333.54C856.342 1335.03 849.32 1339.82 837.665 1346.99C826.011 1354.16 812.638 1356.7 807.408 1357.07V1326.82V1304.4L823.657 1290.4Z" fill="#524D52"/>
<path d="M293.043 1281.99C215.047 1294.09 176.498 1306.83 166.973 1311.69H289.681C347.505 1301.83 393.712 1276.58 409.587 1265.18C403.237 1265.74 371.038 1269.89 293.043 1281.99Z" fill="#36363A"/>
<path d="M1046.66 1368.28L1066.83 1361V1378.37V1393.49L1087 1399.1V1408.06L1078.04 1420.39L1066.83 1425.99H1046.66L1030.41 1420.39V1399.1L1034.9 1378.37L1046.66 1368.28Z" fill="#454345"/>
<path d="M256.623 1357.63L234.21 1363.8C233.463 1368.47 231.521 1378.25 229.728 1380.05C227.935 1381.84 226.366 1389.01 225.806 1392.37C222.444 1397.6 213.367 1409.07 203.953 1413.11C197.23 1414.23 175.938 1421.51 169.774 1421.51C164.844 1421.51 154.646 1419.64 150.164 1418.71L128.872 1408.06L122.148 1395.74V1380.05L132.234 1360.44L160.809 1349.23L193.307 1340.26H229.728H261.665L300.887 1349.23L280.716 1353.15L256.623 1357.63Z" fill="#4B4B4C"/>
<path d="M1016.4 1071.88L1020.89 1062.35L1025.37 1055.63H1016.4H1006.32H996.233L986.708 1062.35L973.821 1067.95H954.77H936.28L921.712 1071.88L903.782 1078.04L885.852 1088.12H911.066H936.28L946.926 1093.73L960.373 1099.89H977.183H990.63L1006.32 1093.73L1020.89 1088.12L1016.4 1078.04V1071.88Z" fill="#625D61"/>
<path d="M103.097 1313.93L121.588 1301.6L0 1338.02V1382.85C6.35019 1381.35 19.6109 1378.25 21.8521 1377.81C24.0934 1377.36 36.607 1375 42.5837 1373.88H66.1167V1364.92V1343.07L103.097 1330.18V1313.93Z" fill="#3C3C40"/>
<path d="M1055.63 1079.16L1075.8 1069.63L1089.25 1079.16L1097.65 1090.37L1137.99 1083.64L1134.63 1075.8L1131.83 1059.55L1137.99 1048.34H1176.65L1131.83 1041.06H1109.42L1089.25 1048.34H1075.8L1055.63 1055.63L1033.77 1059.55L1029.29 1069.63L1041.62 1079.16H1055.63Z" fill="#635E64"/>
<path d="M1241.65 1073L1208.03 1079.72L1194.58 1068.51V1053.39V1040.5L1200.19 1031.53L1215.32 1025.37H1234.93L1251.17 1019.21L1266.3 1014.72L1276.39 1002.96H1288.72L1307.21 1001.84L1334.66 993.432V1014.72L1325.14 1019.21L1302.72 1025.37L1292.08 1019.21L1285.91 1025.37L1276.39 1035.46L1266.3 1046.1H1251.17L1230.44 1049.46L1246.13 1060.67L1259.02 1068.51L1241.65 1073Z" fill="#4D4B50"/>
<path d="M1354.27 1002.4L1346.43 1006.88V996.794L1354.27 988.95L1362.68 983.907L1371.08 978.304L1383.41 972.14L1395.74 968.218H1406.94L1428.23 969.899H1440V1029.29H1423.19H1406.94L1401.34 1019.21L1387.33 1012.48L1378.37 1016.97L1369.4 1019.21L1366.6 1006.88V998.475L1354.27 1002.4Z" fill="#575558"/>
<path d="M251.019 993.432C176.162 1013.15 148.109 1013.6 143.44 1011.36C143.44 1005.39 148.482 992.087 168.654 986.708C188.825 981.329 221.136 977.37 234.77 976.062L293.043 968.218L392.218 955.331C376.342 959.813 325.877 973.709 251.019 993.432Z" fill="#90928F"/>
<path d="M170.895 1040.5C182.101 1037.7 208.996 1032.09 226.926 1032.09H263.907L324.42 1037.7H340.109L317.136 1044.98C294.424 1043.77 254.771 1041.58 245.35 1040.79C241.635 1041.58 217.884 1043.77 203.953 1044.98L170.895 1040.5Z" fill="#737373"/>
<path d="M103.658 1057.87L93.0117 1060.11L119.907 1063.47L140.078 1061.79L158.008 1060.11L144 1057.87H119.907H103.658Z" fill="#6C6C6A"/>
<path d="M1010.8 1510.6L996.234 1516.76L981.105 1520.68L968.778 1516.76L974.381 1506.12L981.105 1494.91L1002.4 1481.46L1024.25 1474.18V1484.26L1020.89 1501.07L1010.8 1510.6Z" fill="#3E3C40"/>
<path d="M561.992 1006.32L533.977 1021.45H561.992L579.362 1014.72L604.576 1001.28L648.28 979.984L598.973 993.432L561.992 1006.32Z" fill="#949295"/>
<path d="M1009.12 1525.17H995.673H985.587H973.821L965.977 1531.33L970.459 1540.3L977.743 1544.22L990.63 1547.58L1004.08 1544.22L1014.72 1535.81L1020.89 1529.09L1009.12 1525.17Z" fill="#424245"/>
<path d="M477.946 1442.24L516.607 1413.67L501.479 1460.17L483.549 1492.11L449.37 1519L412.389 1531.33L368.685 1549.26H321.058L340.109 1531.33L378.21 1519L420.794 1499.39L449.37 1480.34L477.946 1442.24Z" fill="#424245"/>
<path d="M460.576 1380.61L437.043 1397.42H420.794H387.735L403.424 1380.61L437.043 1364.92H477.946L460.576 1380.61Z" fill="#424245"/>
<path d="M889.774 1201.87L928.996 1184.5H948.047L1008 1172.73L990.63 1184.5L948.047 1209.71H911.626L876.327 1227.08L889.774 1201.87Z" fill="#3E3C3F"/>
<path d="M889.774 1172.73L846.07 1184.5H799.004L866.241 1158.16H911.626L889.774 1172.73Z" fill="#3E3C3F"/>
<path d="M205.634 1647.32H282.397L214.599 1666.93H152.965L205.634 1647.32Z" fill="#444346"/>
<path d="M214.599 1522.93L282.397 1512.84H319.378L282.397 1535.25L238.693 1552.62H175.938L214.599 1522.93Z" fill="#444346"/>
<path d="M238.693 1471.94L214.599 1482.58L185.463 1488.19L193.307 1478.1L204.514 1457.37L229.728 1438.32L245.977 1425.43L270.63 1414.23L303.129 1405.26H345.152L303.129 1418.71L282.397 1431.04L260.545 1442.24L250.459 1457.37L238.693 1471.94Z" fill="#444346"/>
<path d="M0 906.584V948.047V951.409H18.4903L96.3735 948.047L196.669 943.004L272.311 938.521L333.385 931.798L384.374 926.195L453.292 918.35L506.521 908.825H424.156H290.802H201.712H96.3735L6.72373 906.584H0Z" fill="#D59EA0"/>
<path d="M0 941.883V908.825L14.5681 909.385L40.3424 910.506L77.8833 911.627H96.3736L141.198 912.187H427.518L300.887 921.152L168.654 930.117L87.4086 935.16L43.7043 939.082L0 941.883Z" fill="#D78F93"/>
<path d="M0 932.358V915.549H33.0584H73.9611H257.743L170.895 922.272L135.035 924.514L88.5292 928.436L70.5992 929.556L43.7043 930.677L0 932.358Z" fill="#CE7D83"/>
<path d="M226.366 1014.16L0 1036.02V1005.2L184.342 999.595L266.148 995.113L419.673 982.786L481.868 971.019L549.105 958.693H615.782L419.673 995.113L226.366 1014.16Z" fill="#838D84"/>
<path d="M644.918 1162.09L822.537 1135.19L923.393 1119.5L1011.92 1105.49L1142.47 1085.32L1211.39 1074.12L1301.6 1056.75L1391.25 1034.33L1440 1010.24V1044.42L1391.25 1053.39L1301.6 1074.12L1211.39 1088.68L1142.47 1099.33L1011.92 1119.5L923.393 1135.19L822.537 1152.56L644.918 1187.3L445.447 1223.72L174.817 1278.07L0 1311.69V1270.79L174.817 1241.65L445.447 1196.26L644.918 1162.09Z" fill="#9F9B95"/>
<path d="M788.918 935.16H773.79H747.455H737.93H727.284H714.397H703.751H691.984L681.899 934.599L671.253 932.918L665.65 930.677L658.926 916.669L661.728 898.179H745.214L1005.2 902.101L1072.44 900.981L1097.09 903.222L1103.25 922.272L1099.33 927.875L1096.53 928.996L1092.05 930.117L1085.32 931.798L1076.36 933.479L1068.51 935.16H1053.95H1038.82H1023.13L1009.68 935.72L996.233 934.599H983.907L977.183 935.16H963.735L950.288 928.996L921.712 930.677L909.385 935.16L894.257 937.961H862.319H837.105L829.261 935.16L823.097 930.677L788.918 935.16Z" fill="black" fill-opacity="0.4"/>
<path d="M1006.32 837.223L1011.95 826.901L1019.84 821.495L1044.06 818.054H1069.41L1097.02 821.495L1104.9 827.393L1110.54 837.223L1112.22 862.879V886.412L1110.54 906.525L1106.59 920.287L1097.02 928.151L1069.41 930.117H1044.06L1019.84 928.151L1011.95 920.287L1006.32 909.474V837.223Z" fill="#101010"/>
<path d="M683.58 837.223L689.213 826.901L697.1 821.495L721.324 818.054H746.674L774.278 821.495L782.164 827.393L787.798 837.223L789.479 862.879V886.412L787.798 906.525L783.854 920.287L774.278 928.151L746.674 930.117H721.324L697.1 928.151L689.213 920.287L683.58 909.474V837.223Z" fill="#101010"/>
<path d="M776.592 848.311L779.953 834.864L787.798 830.381L796.202 825.338L805.167 818.054L813.572 810.21L819.175 804.047L824.218 797.883L960.934 802.926L974.942 805.167L986.708 813.572L990.07 823.658L981.666 846.63V853.354V879.689L941.883 884.731H907.704H868.483H845.51H825.339L776.592 879.689L776.031 876.327V871.844V866.241V859.517V856.156L776.592 848.311Z" fill="#004080"/>
<path d="M828.701 783.875L823.097 799.004L819.736 805.728L820.856 809.65L818.055 821.977L946.926 824.218L962.615 806.848L965.417 803.486L966.537 799.564L962.615 790.599L957.572 784.436L951.409 777.712L948.607 773.79L945.245 769.868L941.323 765.945L937.401 760.342L933.479 754.179L930.117 748.015L926.195 741.292L923.393 736.809L920.031 732.327L916.109 726.724L912.747 721.12L909.946 717.759L906.584 714.957L902.662 713.276L895.938 712.156L888.094 713.276L882.49 716.638L876.327 722.241L869.603 727.844L856.716 741.292L846.07 754.179L840.467 762.584L834.864 770.988L828.701 783.875Z" fill="#004080"/>
<rect x="732.887" y="860.638" width="272.311" height="13.4474" fill="#101010"/>
<path d="M803.486 849.432V842.708L738.49 851.673V855.035L803.486 849.432Z" fill="#101010"/>
<path d="M937.961 850.756V841.587L1002.96 853.812V858.397L937.961 850.756Z" fill="#101010"/>
<path d="M802.366 891.099V902.101L730.646 887.431V881.93L802.366 891.099Z" fill="#101010"/>
<path d="M868.739 881.165L776.592 879.689V897.619L783.876 912.187L806.421 914.49L868.739 918.91L936.671 914.49L977.743 908.265L979.424 902.661V879.688H973.261L868.739 881.165Z" fill="#1F1F1F"/>
<rect x="793.401" y="879.689" width="162.49" height="14.5681" fill="#1A1A1A"/>
<path d="M800.125 864.56V874.646L792.28 884.731L793.961 897.619L802.926 899.3L811.331 900.42L833.743 904.342L866.241 906.584H874.646H883.051L920.592 904.342L938.521 901.541L955.891 897.619L957.572 890.895L954.771 884.731L949.167 872.405V860.638L946.366 849.432L943.564 844.389L938.521 841.587L930.117 838.786L922.272 836.545L916.109 835.424H827.58L822.537 835.984L810.21 839.346L803.486 842.708L801.245 855.035L800.125 864.56Z" fill="#1A1A1A"/>
<path d="M914.474 836.414C913.129 835.518 910.925 831.184 909.991 829.13H908.31L906.069 825.208L904.388 822.406C903.828 821.659 902.259 819.268 900.466 815.682C899.906 815.682 894.863 812.321 892.061 810.079C889.26 807.838 889.82 808.398 889.82 806.157C889.82 803.916 894.303 804.476 897.665 804.476C901.026 804.476 904.388 806.157 906.069 806.157C907.75 806.157 909.991 802.795 917.275 799.433H921.758C923.439 799.433 928.258 798.425 934.085 794.391C937.447 792.149 939.688 792.71 941.369 790.468C943.05 788.227 944.731 788.787 944.731 787.107C944.731 785.426 944.731 784.305 948.093 782.064C950.782 780.271 952.949 781.317 953.696 782.064H955.937L965.462 787.107C965.462 787.854 966.022 789.572 968.264 790.468C971.065 791.589 971.065 792.71 973.867 792.71C976.108 792.71 977.415 793.83 977.789 794.391C979.47 794.764 983.28 795.735 985.073 796.632C986.866 797.528 988.808 798.873 989.556 799.433L995.719 804.476V808.398V810.079C994.972 811.2 992.245 813.889 987.314 815.682H982.832H977.789H973.867C972.933 815.869 969.945 816.691 965.462 818.484C962.661 820.165 962.661 820.165 958.178 825.208C957.282 826.553 956.31 828.383 955.937 829.13C955.003 831.558 952.127 837.198 948.093 840.336C946.748 840.784 945.291 842.764 944.731 843.698H934.085H921.758C919.89 841.644 915.819 837.311 914.474 836.414Z" fill="#C4C4C4" fill-opacity="0.5"/>
<path d="M927.361 807.838L936.886 807.278H945.851L953.135 809.519L958.739 814.562L955.377 820.725L951.454 828.57L942.489 838.655L937.447 839.776L928.482 837.535L918.396 830.811L913.914 822.967L916.155 816.243L921.198 812.321L927.361 807.838Z" fill="#C4C4C4" fill-opacity="0.7"/>
<path d="M924.559 819.044L934.085 817.363H941.929L944.731 821.286L941.929 827.449L938.567 832.492L934.085 834.733L929.042 832.492L924.559 827.449L921.198 821.286L924.559 819.044Z" fill="#C4C4C4"/>
<path d="M826.459 839.841L832.062 837.04C836.918 834.238 846.63 828.075 846.63 825.833V819.67V812.946L842.148 807.903L833.743 805.662L826.459 802.3L820.856 796.137L816.374 792.215C815.253 790.347 812.339 786.051 809.65 783.81C806.96 781.569 807.409 780.635 807.969 780.448V778.207C805.167 777.833 799.564 777.31 799.564 778.207C799.564 779.328 796.763 783.25 795.082 783.81C793.401 784.37 788.358 785.491 784.996 786.612C783.651 786.612 783.315 790.347 783.315 792.215L784.996 796.137C785.183 796.884 785.781 798.714 786.677 800.059C787.574 801.404 787.798 805.849 787.798 807.903V815.187C788.732 816.308 790.935 818.773 792.28 819.67C793.625 820.566 795.829 824.152 796.763 825.833L800.685 833.678L813.012 839.841H826.459Z" fill="#C4C4C4" fill-opacity="0.6"/>
<path d="M821.417 817.429L828.701 820.79L826.459 825.273L822.537 829.195L819.175 830.876H814.693L809.65 826.954L805.167 820.79L808.529 817.429H814.693H821.417Z" fill="#CFA2B7"/>
<path d="M826.459 834.798L819.735 837.039L811.331 834.798L806.848 831.436L801.245 824.152V820.23L803.486 815.187L809.089 812.946L813.572 811.825L824.218 812.946L830.381 815.187L837.665 820.23L836.545 822.471L832.623 828.635L826.459 834.798Z" fill="#C4C4C4" fill-opacity="0.6"/>
<path d="M858.957 801.805H869.603H880.809L893.136 803.486L903.782 807.408L912.747 816.373L916.669 827.019V841.587V852.794V863.44L914.988 871.284L909.946 878.568L901.541 886.412L887.533 892.015L869.603 893.136L851.673 890.334L832.623 880.809L827.58 874.646L826.459 866.801V852.794V835.424V824.218L832.623 814.132L842.148 807.408L848.872 803.486L858.957 801.805Z" fill="#292929"/>
<path d="M853.194 781.847L862.799 778.303L877.808 777.712L892.216 779.484L906.023 787.755L915.028 794.845L924.634 809.024L931.237 820.249V832.064V849.197L928.836 865.149L919.831 885.826L906.023 902.368L889.814 914.775L874.806 918.91L857.997 917.729L843.589 911.23L832.783 902.368L823.177 888.78L815.973 875.783L813.572 858.65V829.111L818.375 814.341L827.38 798.39L839.386 787.755L853.194 781.847Z" fill="#CE000A" fill-opacity="0.4"/>
<path d="M880.809 891.455H873.525H864L853.354 888.654L839.907 883.05L832.062 874.646L829.261 862.319V830.941L832.062 820.856L838.226 811.331L846.07 803.486L854.475 797.323L867.362 795.082H877.447L888.093 797.323L898.739 803.486L906.023 811.331L911.066 818.615L912.187 825.899V856.156L909.385 868.482L901.541 878.008L895.377 883.05L888.093 888.093L880.809 891.455Z" fill="#F70400" fill-opacity="0.8"/>
<path d="M865.121 809.089H871.844H875.767L881.37 809.65L886.413 811.331L892.016 815.253L896.498 821.416L899.3 828.7V851.113L898.739 856.716L897.619 861.759L892.576 869.603L884.732 875.766L879.128 877.447H873.525H865.121H858.397L851.113 874.646L844.389 866.241L842.148 861.759V835.984V826.459L846.63 820.296L852.234 814.132L857.276 810.77L860.638 809.65L865.121 809.089Z" fill="#FF9A15" fill-opacity="0.85"/>
<path d="M863.44 814.693H869.603H879.689L881.93 815.253L885.852 816.934L888.654 819.175L890.335 821.977L893.136 827.019L894.257 831.502V851.113L893.136 857.276L891.455 861.759L889.774 864L887.533 866.241L884.732 868.482L881.93 870.724L878.568 871.844L875.767 872.965H860.638L858.957 872.405L856.156 870.724L851.673 866.801L848.872 862.319L847.191 858.397L846.07 855.035V830.381L847.191 828.14L848.311 825.899L850.553 823.657L852.794 821.416L855.035 819.175L857.276 816.934L860.078 815.813L863.44 814.693Z" fill="#F6CE30" fill-opacity="0.8"/>
<path d="M865.681 818.615H870.724H876.887L879.689 819.175L882.49 820.856L886.412 824.778L889.774 830.381V856.156L886.412 862.319L881.37 865.681L876.887 867.922H861.759L858.397 866.241L853.914 862.319L851.113 858.957L849.992 854.475V834.303L851.113 830.942L853.354 826.459L856.716 823.097L860.638 819.735L865.681 818.615Z" fill="white"/>
<path d="M793.961 746.895H759.782L762.584 770.428L773.79 815.813L793.961 897.619V878.568L787.237 809.65V779.953L793.961 746.895Z" fill="#1A1A1A"/>
<path d="M951.969 742.973L994.553 746.895L987.269 780.514L976.062 825.899L955.891 897.619L954.771 881.93L955.891 847.751L958.693 818.615V788.358L951.969 742.973Z" fill="#1A1A1A"/>
<path d="M762.023 741.738H802.462L960.847 744.575L997.354 739.611L995.108 755.921L988.368 776.486L968.148 830.381L958.6 784.996L954.669 772.231L947.929 755.921H799.092L791.229 772.231L785.613 784.996L776.592 819.175L765.393 772.231L762.023 741.738Z" fill="#003667"/>
<path d="M952.529 734.82H874.086H799.564L777.712 714.957L762.023 718.504L755.3 739.076L760.342 762.486L769.307 788.733L778.272 771.708L784.436 762.486H950.288L969.899 792.28L985.027 764.614L997.354 739.076L984.467 719.213L969.899 714.957L952.529 734.82Z" fill="#1A1A1A"/>
<path d="M791.231 762.589H781.121L772.134 773.253L762.023 741.262L766.517 726.332L777.751 714.957L791.231 726.332L799.657 734.863H953.559L970.41 714.957L985.014 726.332L990.63 741.262L970.41 781.074L959.176 770.41L951.312 762.589H927.721H836.166H791.231Z" fill="#1A1A1A"/>
<path d="M979.424 825.338L985.027 813.572L992.872 807.409L1016.97 803.486H1042.18L1069.63 807.409L1077.48 814.132L1083.08 825.338L1085.88 845.51V888.654L1083.08 904.342L1079.16 920.031L1069.63 928.996L1042.18 931.237H1016.97L992.872 928.996L985.027 920.031L979.424 907.704L977.183 888.654V845.51L979.424 825.338Z" fill="#1A1A1A"/>
<path d="M758.662 825.338L753.058 813.572L745.214 807.409L721.121 803.486H695.907L668.451 807.409L660.607 814.132L655.004 825.338L652.202 845.51V888.654L655.004 904.342L658.926 920.031L668.451 928.996L695.907 931.237H721.121L745.214 928.996L753.058 920.031L758.662 907.704L760.903 888.654V845.51L758.662 825.338Z" fill="#1A1A1A"/>
</g>
<defs>
<clipPath id="clip0">
<rect width="1440" height="1920" fill="white"/>
</clipPath>
</defs>
</svg>
