<svg width="1620" height="420" viewBox="0 0 1620 420" fill="none" xmlns="http://www.w3.org/2000/svg">
<rect width="1620" height="420" fill="#181818"/>
<path d="M811.117 101V150.765L856.491 166.134L811.117 101Z" fill="#E33225"/>
<path d="M811.117 178.575V162.475L844.782 195.408L811.117 178.575Z" fill="white"/>
<path d="M811.117 203.458V196.14L831.609 215.899L811.117 203.458Z" fill="white"/>
<path d="M811.117 229.073V222.486L819.899 232L811.117 229.073Z" fill="#E33225"/>
<path d="M811.117 101V150.765L765.743 166.134L811.117 101Z" fill="#E33225"/>
<path d="M811.117 178.575V162.475L777.452 195.408L811.117 178.575Z" fill="white"/>
<path d="M811.117 203.458V196.14L790.625 215.899L811.117 203.458Z" fill="white"/>
<path d="M811.117 229.073V222.486L802.335 232L811.117 229.073Z" fill="#E33225"/>
<circle cx="868.5" cy="262.5" r="3.5" transform="rotate(-90 868.5 262.5)" fill="white"/>
<circle cx="868.5" cy="262.5" r="2.625" transform="rotate(-90 868.5 262.5)" fill="#181818"/>
<circle cx="805" cy="286" r="3" transform="rotate(-90 805 286)" fill="white"/>
<circle cx="805" cy="286" r="2.25" transform="rotate(-90 805 286)" fill="#181818"/>
<circle cx="750.5" cy="254.5" r="4.5" transform="rotate(-90 750.5 254.5)" fill="white"/>
<circle cx="750.5" cy="254.5" r="3.375" transform="rotate(-90 750.5 254.5)" fill="#181818"/>
<circle cx="794" cy="259" r="3" transform="rotate(-90 794 259)" fill="white"/>
<circle cx="794" cy="259" r="2.25" transform="rotate(-90 794 259)" fill="#181818"/>
<circle cx="871" cy="213" r="3" transform="rotate(-90 871 213)" fill="white"/>
<circle cx="871" cy="213" r="2.25" transform="rotate(-90 871 213)" fill="#181818"/>
<circle cx="752.5" cy="209.5" r="3.5" transform="rotate(-90 752.5 209.5)" fill="white"/>
<circle cx="752.5" cy="209.5" r="2.625" transform="rotate(-90 752.5 209.5)" fill="#181818"/>
<circle r="4" transform="matrix(0 -1 -1 0 859 236)" fill="white"/>
<circle r="3" transform="matrix(0 -1 -1 0 859 236)" fill="#181818"/>
<circle r="2.5" transform="matrix(0 -1 -1 0 757.5 232.5)" fill="white"/>
<circle r="1.875" transform="matrix(0 -1 -1 0 757.5 232.5)" fill="#181818"/>
<circle r="2.5" transform="matrix(0 -1 -1 0 762.5 188.5)" fill="white"/>
<circle r="1.875" transform="matrix(0 -1 -1 0 762.5 188.5)" fill="#181818"/>
<circle r="4.5" transform="matrix(0 -1 -1 0 824.5 267.5)" fill="white"/>
<circle r="3.375" transform="matrix(0 -1 -1 0 824.5 267.5)" fill="#181818"/>
<circle cx="809" cy="314" r="4" transform="rotate(-90 809 314)" fill="white"/>
<circle cx="809" cy="314" r="3" transform="rotate(-90 809 314)" fill="#181818"/>
<circle cx="854.5" cy="184.5" r="2.5" transform="rotate(-90 854.5 184.5)" fill="white"/>
<circle cx="854.5" cy="184.5" r="1.875" transform="rotate(-90 854.5 184.5)" fill="#181818"/>
</svg>
