<svg width="720" height="500" viewBox="0 0 720 500" fill="none" xmlns="http://www.w3.org/2000/svg">
<g clip-path="url(#clip0)">
<rect y="-84" width="720" height="514.926" fill="#E9E9E8"/>
<path d="M720 342.677V119.953H718.039L714.677 121.914H709.914L703.19 119.953L697.027 118.553L691.424 112.949L690.303 107.066V102.864L692.544 96.4202L694.225 91.3774L691.424 82.1323L687.502 75.6887L683.019 68.965L678.257 64.4825L669.852 63.0817H663.969L659.206 64.4825L654.163 63.0817L651.362 60L649.961 54.1167L648.56 49.3541L644.918 44.3113L639.035 42.3502L632.871 40.9494L628.669 38.1478L625.867 35.3463V30.3035V25.5408L623.066 20.2179L619.704 17.1362L615.222 13.7743L607.097 9.29182L595.891 5.92995L584.685 4.80933L577.961 7.33073L574.599 10.4124L568.996 12.6537L562.832 11.2529H552.467L542.661 12.6537L532.295 17.1362L523.33 23.5798L516.046 31.4241L512.404 38.1478L511.004 45.9922V53.8366L512.404 60L511.004 62.8015L507.642 67.0039L501.198 70.0856L494.755 71.7665L487.471 73.4475L481.587 77.6498L477.105 84.0934L473.743 88.5759L470.661 93.0583L468.7 98.6615L466.739 105.105L466.179 112.669V342.677H720Z" fill="#8B8C87" fill-opacity="0.7"/>
<path d="M720 345.198V129.478V124.155H716.638L711.876 124.996L709.074 126.397L705.712 128.078L702.911 130.319L699.829 132L696.467 132.56L693.665 131.159L690.864 128.078L688.903 124.996L686.942 117.432L683.3 114.07L677.977 109.587V101.183L683.3 97.2606L684.981 91.3773V84.9337L683.3 79.6107L677.977 72.887L673.774 68.1244H670.973L669.012 70.9259L667.051 75.1283L661.448 77.3695H655.844L648.56 75.1283L641.556 70.9259L638.195 65.603V58.0388L639.595 53.8364L635.113 48.7936H629.51L622.786 44.5913L617.463 40.389L611.86 35.066L609.058 28.6224L607.377 21.6185L603.175 17.4162L595.331 13.2139H587.486L581.043 15.7353L576.28 21.6185L570.397 23.8598H561.712L552.467 20.2178H543.782L533.697 23.8598L526.132 30.3034L518.568 37.8676L516.607 48.7936L518.568 58.0388L516.607 64.2022L510.444 70.9259L504 72.887L497.837 75.1283L486.911 79.6107L481.307 88.0154L474.584 94.1788L471.502 108.747L470.101 119.393L461.136 345.198H720Z" fill="#5C5B56" fill-opacity="0.7"/>
<path d="M714.677 153.292L720 156.934V350.521H514.085V121.354V116.311L509.043 109.588L502.599 101.463L500.358 90.8171L496.716 86.3346L500.358 79.3307H512.405H521.93L526.973 77.0895L530.895 74.0078L534.537 64.4825L542.941 60.5603L550.506 56.358L560.591 52.4358L573.759 46.8327L584.124 44.0311H591.969H602.334L610.179 46.8327L614.661 50.4747L619.424 56.358L626.708 60.5603L636.794 64.4825H640.996L644.638 67.284L649.401 74.0078L654.443 77.0895H660.607L665.089 79.3307L667.891 81.0117L671.253 86.3346L676.576 89.6965L680.498 90.8171L682.179 93.6187L681.619 95.2996L680.498 97.2607L675.455 97.821L673.774 101.183V106.226L675.455 109.307L678.817 113.23L677.977 117.712L675.455 121.354L669.292 126.957L665.089 128.638L662.288 132.28V136.482L665.089 139.284H667.891L670.132 137.883L672.934 136.482L675.455 137.883L678.817 139.284H684.42L687.502 143.486H692.545L695.346 139.284L698.428 136.482H702.35L706.833 139.284L709.074 143.486L711.035 148.809L714.677 153.292Z" fill="#25414C" fill-opacity="0.6"/>
<path d="M642.117 210.769L639.908 202.656L637.699 198.912L634.753 194.543L632.544 187.99V183.621L635.858 178.941L639.908 173.012L647.64 168.019L656.477 166.459L651.69 173.948L656.477 181.437V187.99L663.841 192.359L665.682 198.288L667.891 204.216L665.682 208.585L662 210.769L654.636 221.067L649.849 229.492L645.063 236.357L639.908 241.662L629.23 243.222L630.335 235.733L635.858 225.747L638.435 219.194L642.117 210.769Z" fill="#B3B8BE" fill-opacity="0.3"/>
<path d="M644.732 210.719L643.995 204.975L643.259 202.324L642.277 199.23L641.541 194.591V191.498L642.645 188.184L643.995 183.986L646.573 180.451L649.518 179.346L647.923 184.649L649.518 189.951V194.591L651.973 197.684L652.587 201.882L653.323 206.079L652.587 209.173L651.359 210.719L648.905 218.01L647.309 223.975L645.714 228.836L643.995 232.592L640.436 233.696L640.804 228.394L642.645 221.324L643.504 216.684L644.732 210.719Z" fill="#B3B8BE" fill-opacity="0.2"/>
<path d="M683.882 210.444L677.04 203.44L673.846 199.798L672.934 194.194V189.152L677.04 186.07H679.777L683.882 187.191L688.216 190.272L695.059 196.436L698.708 203.44L696.884 206.521L693.918 210.444L689.129 213.525L683.882 210.444Z" fill="#B3B8BE" fill-opacity="0.3"/>
<path d="M684.641 205.355L680.476 202.068L678.532 200.358L677.977 197.728V195.361L680.476 193.914H682.142L684.641 194.44L687.279 195.887L691.444 198.78L693.665 202.068L692.555 203.514L690.75 205.355L687.834 206.802L684.641 205.355Z" fill="#B3B8BE" fill-opacity="0.2"/>
<path d="M654.413 257.91L659.101 256.109L662.422 257.91L665.547 262.798L667.891 267.172V272.832L667.305 275.92L665.547 277.721L664.18 280.808V284.41L665.547 287.24L667.305 291.1L667.891 295.731V301.906L665.547 306.537H662.422L655.976 303.192L654.413 306.537L651.288 301.906L649.725 298.304L647.967 294.702L648.553 292.129V284.41L646.6 280.808V274.119L648.553 268.716L651.288 262.798L654.413 257.91Z" fill="#B3B8BE" fill-opacity="0.3"/>
<path d="M654.97 267.81L660.34 265.634L661.363 266.843L663.408 268.777L662.641 272.404L661.363 275.305L660.34 277.24L658.806 280.625L657.783 283.768V287.394L658.806 293.439L660.34 296.34L662.641 300.934L660.34 299.483L656.76 297.065L653.692 293.439V290.537L654.97 285.218L653.692 281.35C653.436 280.544 652.669 278.835 651.646 278.449C650.623 278.062 651.22 275.386 651.646 274.097L652.925 270.712L654.97 267.81Z" fill="#B3B8BE" fill-opacity="0.2"/>
<path d="M611.299 201.759L617.463 204.841L621.105 212.405L623.626 228.093L616.062 235.097L602.895 230.615L600.093 226.693V219.409L602.895 213.525L606.817 207.082L611.299 201.759Z" fill="#B3B8BE" fill-opacity="0.3"/>
<path d="M612.047 207.922L616.156 210.097L618.584 215.437L620.265 226.511L615.222 231.455L606.444 228.291L604.576 225.522V220.381L606.444 216.228L609.059 211.68L612.047 207.922Z" fill="#B3B8BE" fill-opacity="0.2"/>
<path d="M677.136 149.93L672.653 153.292L669.852 156.093L664.809 149.93L660.887 147.128H655.564L659.766 151.611L662.568 154.693L655.564 156.093L662.568 159.735L667.891 162.257L672.653 168.42L673.774 174.023L669.011 178.506L664.809 184.949L669.852 182.148H672.653L677.136 180.747H686.381L691.144 182.148L698.708 184.949L703.751 187.471V184.949L702.07 180.747L698.708 177.665L695.906 172.623L693.105 166.739L697.027 162.257L702.07 158.615L707.393 156.093L703.751 151.611L698.708 148.529L694.225 149.93H686.381L683.86 147.128H679.938L677.136 149.93Z" fill="#3D4F56" fill-opacity="0.7"/>
<path d="M514.366 112.389L522.49 121.914L528.653 126.397L537.058 132.56L547.424 136.202L551.346 142.086L563.113 145.447H569.836L572.638 142.086L563.113 138.163L553.307 132.56L547.424 130.599L540.98 126.397V115.191V110.428L547.424 108.467L553.307 110.428L560.591 115.191H567.035L575.72 119.953H582.163L578.801 117.152L575.72 112.389L567.035 105.385L555.268 99.5019L543.222 95.0195L537.058 97.5408H528.653L522.49 95.0195L516.607 89.6965L504.56 84.0934V89.6965L507.642 97.5408L510.723 105.385L514.366 112.389Z" fill="#3C4E5A"/>
<path d="M695.346 314.101L698.148 345.759L678.817 343.517V329.51L681.619 321.105L684.14 308.218L681.619 301.214L676.296 295.34L674.334 288.607L678.817 291.689L680.498 296.171H684.14L685.541 290.288V283.284L683.019 279.642L680.498 274.599L681.619 271.517L686.941 269.556H692.264L695.346 265.634L699.268 260.311L702.63 253.588L700.669 237.338L699.268 233.696L696.187 233.136L693.105 230.054L689.743 228.654L686.381 229.214L685.541 233.136V237.899H683.019L680.498 235.377L677.136 232.016L676.296 228.654L677.136 226.132L680.498 223.051V219.128L678.817 212.965H681.619L686.941 216.887L692.264 217.728H698.988L704.031 212.965L709.074 210.444L710.755 214.086L714.677 214.926L716.078 210.444L720 206.521V297.012L717.478 296.171H710.475L705.432 297.012L698.148 301.214L695.346 306.817V314.101Z" fill="#324452" fill-opacity="0.7"/>
<path d="M622.226 160.296L616.623 149.65L608.498 144.607L598.693 140.685H590.849H581.323L577.681 139.004L570.677 135.922L565.074 131.44H557.51L549.946 123.035V113.79L557.51 120.514L567.876 123.035L577.681 129.198H584.965L593.09 133.681L604.016 135.362L608.498 133.681L616.623 135.922V127.237V118.833L610.179 113.79L602.335 102.584L600.374 96.4201L605.417 93.8987L613.261 87.7353L618.304 82.9727L619.705 72.6069L622.226 66.4435H629.79L638.195 70.3657L644.638 77.3696L653.323 81.5719H659.206L661.728 86.0544L663.689 91.0972H670.413L676.296 93.8987L672.654 100.622L666.21 106.786L670.413 113.79L674.335 120.514L670.413 124.996L663.689 127.237L659.206 131.44L653.323 139.004H644.638L638.195 133.681H629.79L625.868 139.004V147.408V154.412L622.226 160.296Z" fill="#3C4E5A" fill-opacity="0.7"/>
<path d="M632.591 315.502L639.315 333.712H566.475L575.44 288.887L587.206 285.525L595.05 279.922L600.934 275.159L607.377 267.875V258.91V253.588V247.424L606.257 243.502L609.338 241.541H614.101L621.945 238.739L618.864 244.903L624.187 249.385L626.428 256.109V264.514L624.187 272.918L628.669 266.195L632.591 261.992L636.514 256.109L641.836 253.588L648 251.346H655.564L651.082 256.109L645.759 258.91L641.836 266.195L636.514 275.159L632.591 281.883L636.514 285.525L639.315 292.249V299.813L634.272 302.335L630.63 306.817L632.591 315.502Z" fill="#2B3C4C" fill-opacity="0.7"/>
<path d="M608.778 65.0428L611.579 71.2063V74.8483L609.899 78.4903L608.778 81.8522L605.696 84.6537L599.533 87.1751H595.33L592.249 91.6576L589.447 94.4592C587.953 95.0195 584.965 96.4203 584.965 97.5409C584.965 98.6615 579.362 98.0078 576.56 97.5409H569.276L565.074 96.1401L559.751 93.0584L556.109 91.6576H549.945L541.821 87.1751L539.299 81.8522V74.8483L540.42 69.8055L543.782 63.3619H552.747H559.751L563.673 67.8444L568.155 73.1674H572.638L576.56 67.8444V65.0428C574.412 63.7354 569.948 61.1207 569.276 61.1207C568.604 61.1207 568.249 58.3191 568.155 56.9183L571.517 52.9961H578.241L584.965 49.6343H593.369H599.533L603.735 52.9961L605.696 61.1207L608.778 65.0428Z" fill="#B3B8BE" fill-opacity="0.3"/>
<path d="M560.311 72.0467L561.992 78.2101L558.91 83.5331L553.868 87.1751L551.066 85.214L547.424 81.2918L545.743 75.6887L547.424 72.0467L552.187 68.1245H557.23L560.311 72.0467Z" fill="#B3B8BE" fill-opacity="0.2"/>
<path d="M571.237 79.8911H578.241L582.724 79.0506L584.965 76.249L585.805 74.0078L584.405 69.2452V65.8833V62.2413L587.206 59.1595H592.529H596.171L601.214 62.2413L602.615 65.8833L603.735 72.0467L602.615 75.6887L598.693 78.2101L596.171 81.2918H591.128C590.232 81.2918 588.14 82.0389 587.206 82.4125L585.805 83.5331L584.405 88.0156C583.191 88.5759 580.539 89.6965 579.642 89.6965H574.039L568.996 88.0156L568.156 81.2918L571.237 79.8911Z" fill="#B3B8BE" fill-opacity="0.2"/>
<path d="M604.576 151.611L609.619 153.572L612.42 156.093L615.502 159.455L616.623 164.218V169.541L612.42 174.864L607.377 177.945L598.413 179.066L593.09 175.984L589.448 172.903L587.767 167.86L588.607 161.416L591.409 157.214L594.49 153.572L599.253 151.611H604.576Z" fill="#B3B8BE" fill-opacity="0.3"/>
<path d="M606.817 170.942L602.895 174.303H599.253L594.491 170.942L591.689 167.3L593.65 162.537L599.253 158.335L604.576 156.934L608.778 159.735L611.3 166.179L606.817 170.942Z" fill="#B3B8BE" fill-opacity="0.2"/>
<path d="M720 345.479V316.062V305.416L715.237 307.097L709.074 309.899L707.393 313.541H700.949L697.307 311.3L691.984 313.541H686.101H680.778C679.882 313.541 676.482 312.047 674.895 311.3L668.451 313.541L662.568 316.062L658.646 318.303H649.401L644.918 316.062H639.875L637.074 318.303H630.35L625.027 316.062L621.105 313.541L617.743 311.3L614.661 308.498L609.619 307.097L602.895 308.498L599.253 311.3H593.93L586.366 308.498L579.362 307.097H551.346V345.479H720Z" fill="#4E504D" fill-opacity="0.7"/>
<path d="M229.167 143.486L223.004 151.891L360.84 231.175L377.09 219.969L381.572 205.401V189.152L377.09 170.381L371.486 155.253L363.922 145.447L367.004 138.724V128.638L366.163 121.914L361.681 116.591H354.117L348.514 118.833L338.428 123.315H324.981L308.451 126.677L299.767 123.315H286.599L280.996 128.638L278.195 133.401L274.833 140.965L266.988 145.447H254.661L249.339 140.965L244.016 133.401L236.171 137.043L229.167 143.486Z" fill="#8B8C87" fill-opacity="0.7"/>
<path d="M391.657 177.105L389.416 191.393L391.657 231.455L370.646 228.934L360 218.848L350.194 215.767L340.949 194.755L344.031 183.549C342.443 181.401 339.1 177.105 338.428 177.105C337.755 177.105 334.599 173.556 333.105 171.782L331.144 165.058L327.782 159.735L324.7 154.412L326.101 149.65L331.144 145.728L335.346 140.965V135.362L333.105 130.879L329.463 127.518H322.459L315.455 130.879L311.813 132.28L305.65 135.362L301.447 132.28L298.926 130.879L296.685 126.117L290.801 124.156L284.078 127.518L281.836 132.28V138.444L284.078 142.646L281.836 151.051L275.113 152.451L268.669 151.051L259.984 149.65L244.296 154.412L229.447 165.058V173.743L370.646 300.654H456.373L483.268 296.732L475.984 281.043L533.136 239.58L539.86 228.934L545.743 225.292H554.148H564.794L579.082 228.934H585.245L591.969 225.292L595.05 216.047L591.969 207.922L597.852 198.397L604.296 191.393V181.027L600.654 173.743L591.969 165.058L579.082 160.856L568.716 154.412L558.35 149.65L550.225 142.646L539.86 138.724L525.852 130.879L513.805 122.755L505.961 114.911L498.677 108.467L493.914 100.623L487.471 90.8172L480.467 84.6537L473.183 81.2919H466.459L460.856 84.6537L456.934 90.8172L453.852 95.5798L448.529 102.864L444.327 106.226H437.883L432.56 102.864L419.673 100.623L410.148 106.226L405.105 114.911V122.755L410.148 130.879L405.105 135.362L398.101 142.646V154.412L395.58 165.058L391.657 177.105Z" fill="#525D55" fill-opacity="0.8"/>
<path d="M382.132 151.891L383.813 145.167L382.132 142.086L380.171 139.564L382.132 133.961L386.055 128.638L392.218 125.556L400.903 123.876H415.751L424.156 117.712L432.841 110.988L453.012 105.385L460.856 110.988H472.062L481.588 117.712L490.273 128.638L497.557 139.564L503.16 151.891L517.168 158.615L527.533 164.218H537.899L543.502 171.502L549.105 184.389H556.95L572.918 193.354L585.525 204L591.689 210.724V224.171L585.525 237.619L577.121 244.342L570.397 250.226L572.918 258.35L580.763 270.677V290.008L572.918 303.455L566.755 310.179L556.95 312.7H534.257L517.168 305.977L497.557 293.09L484.109 282.724H465.059L453.012 270.677L438.444 251.626L442.646 237.619L438.444 230.895L432.841 219.128L418.833 210.724H403.424L377.65 199.518L373.728 189.712L372.047 178.506L373.728 167.58L377.65 158.615L382.132 151.891Z" fill="#404F50"/>
<path d="M452.171 162.537L449.65 177.105V184.389H457.774L466.179 177.105L470.942 166.739L474.584 157.774L478.506 149.93L480.747 139.004H486.07L496.436 144.887L502.599 151.611L508.763 158.895L511.284 170.381L508.763 189.152L511.284 195.035L517.167 197.276L525.292 186.911L528.934 180.187L531.736 170.381V158.895L528.934 151.611L525.292 143.206L517.167 133.681L508.763 125.837L502.599 123.595L494.755 117.992L490.553 114.911L486.07 103.984L484.389 96.9806L480.747 86.895L470.942 78.4903L466.179 74.5681H461.136L457.774 78.4903L453.572 86.895L444.887 94.179L442.086 100.623L434.802 103.984L428.358 100.623H420.794L411.549 103.984L407.066 107.346L405.666 114.911L403.424 125.837V132L397.541 139.004V149.93V157.774L401.463 162.537H405.666L407.066 157.774L407.907 155.813H411.549L415.471 162.537H422.755L428.358 155.813L425.276 146.848L431.44 139.004L442.086 133.681L447.409 139.004L449.65 146.848L452.171 162.537Z" fill="#31424C" fill-opacity="0.7"/>
<path d="M469.541 209.043L476.825 207.922L480.747 209.043L485.79 212.125L489.432 214.646L493.354 221.65V228.654L491.673 234.537L488.031 236.778H483.829L479.626 234.537L476.825 230.055L474.864 224.732L469.541 221.65L466.459 227.253L463.658 232.016H458.895L457.494 228.654V224.732L458.895 218.008L463.658 212.125L469.541 209.043Z" fill="#3F4A50" fill-opacity="0.7"/>
<path d="M425.276 170.381L419.673 182.708L417.152 176.825L413.51 168.14V179.066V188.031L417.152 196.436L427.798 210.444L435.922 224.451L433.401 250.506L441.245 257.79L459.295 230.895L471.782 203.16L479.907 198.957L485.51 176.825L495.315 188.031L489.992 202.319L498.677 213.245L503.159 224.451L495.315 247.424L483.268 256.669L465.058 263.673L449.93 267.595L421.634 247.424L410.148 229.774L400.903 219.128L391.658 213.245L395.86 192.234V165.619L391.658 170.381L385.494 179.066L381.292 192.234L365.603 226.973L498.677 303.735L492.233 289.728V278.521L498.677 267.595L512.124 250.506L519.689 232.016L521.37 219.128L554.708 213.245L538.179 210.444L533.416 206.521L537.619 203.16L549.105 195.876L535.377 192.234H530.054L533.416 183.829L542.381 174.304L530.054 179.066L519.689 188.031L512.124 189.432L503.159 200.078C502.226 196.996 505.121 187.415 505.121 183.829C505.121 180.243 507.082 179.066 507.082 179.066L505.121 168.14L502.879 159.735L495.315 170.381L492.233 154.413L487.751 163.097L479.907 168.14L471.782 180.747L454.973 192.234L444.887 198.957H435.922L433.401 189.432L435.642 175.424L435.922 165.619L443.486 143.206L437.883 146.288L433.401 152.732L427.798 163.097L425.276 170.381Z" fill="#6A6569" fill-opacity="0.7"/>
<path d="M262.786 151.331L249.899 156.093L240.374 164.498L407.346 242.101L410.428 231.175V219.128V212.125L404.825 202.319L399.222 191.953L391.938 184.949L387.175 188.872L377.37 191.953L366.163 188.872V180.187L368.965 172.342L366.163 158.895L363.922 164.498L358.319 170.101L350.755 175.144L342.07 176.825L329.463 172.342L321.619 162.537L313.774 158.895L299.767 151.331H279.875H262.786Z" fill="#686B64" fill-opacity="0.7"/>
<path d="M576.56 231.455L568.155 229.214L557.229 224.732L554.708 220.249L544.902 224.732L533.976 220.249L525.292 208.483V195.035V180.747L533.976 159.735L551.346 151.331H571.237L578.521 153.572L588.887 159.735L602.614 170.101L610.179 180.747L612.7 185.79L611.299 192.794L609.338 198.677C607.564 200.451 603.735 204 602.614 204H595.33L592.249 208.483V212.685L594.49 220.249L592.249 228.093C590.755 229.214 587.542 231.455 586.646 231.455H576.56Z" fill="#5A5B56" fill-opacity="0.8"/>
<path d="M545.463 262.833L536.218 264.514L533.136 267.595L527.253 264.514L521.089 256.669V246.023L525.012 235.938L530.615 228.654L540.7 227.253L549.105 228.654L562.272 233.416H573.198L579.082 230.335L590.848 228.654L593.93 230.335L598.692 235.938L602.335 243.502L603.735 253.588L602.335 264.514L598.692 272.638L593.93 277.961H586.646H579.082C577.064 277.961 572.264 275.346 570.117 274.039L562.272 270.397L554.708 262.833H545.463Z" fill="#314047" fill-opacity="0.75"/>
<path d="M513.806 282.724L506.522 286.926L487.191 299.813L513.806 323.346L535.658 343.518L541.821 378.537H563.673L564.794 344.638L575.44 338.755L580.203 333.712L581.884 324.467L583.284 318.023L581.884 311.3L579.362 302.054L576.561 296.451L570.677 291.128L563.673 286.926L556.67 284.685H548.825L539.58 286.926L535.658 289.447L531.175 291.128L525.852 289.447L522.21 286.926L517.728 282.724H513.806Z" fill="#374047"/>
<path d="M5.60311 26.3813L0 28.0623V135.082L208.436 139.564L212.358 135.082L214.599 132.28L217.401 130.599L218.521 128.078L216.56 124.436L214.599 121.634L209.276 117.992L200.591 114.911L187.704 112.669H177.619L165.572 109.307L162.21 102.864L159.409 86.3347L156.047 74.8483L151.844 73.1673L143.44 74.8483L136.716 82.4125L127.191 86.3347L127.471 82.4125L130.272 78.4903V74.8483L128.591 73.1673H124.669L120.187 74.8483L115.424 78.4903L108.981 82.4125L104.778 87.1751L99.7354 88.8561L92.7315 87.1751L90.4903 78.4903V68.4047V62.2413L87.9689 56.358L82.9261 52.4358L79.5642 45.9922L71.7198 38.428L66.677 35.9066L62.4747 34.2257L57.9922 31.9845L54.6303 29.4631H50.9883L48.7471 31.9845V38.428L51.5486 44.5915L48.7471 45.9922H43.4241L37.5409 47.6732L33.0584 52.4358L29.4163 54.1168L25.4942 56.358H20.1712L18.4903 54.1168V50.4747L20.1712 44.5915V38.428L16.249 31.9845L12.8872 28.0623L5.60311 26.3813Z" fill="#8B8C87" fill-opacity="0.7"/>
<path d="M5.88327 65.3229L0 57.1984V132.28H112.062V120.233L103.938 112.949L101.136 108.747L98.0545 105.945L88.8093 102.864L84.607 97.5408V92.498L88.8093 87.175V77.6497L86.5681 74.568L82.0856 71.4863L77.323 74.568L73.6809 77.6497L70.3191 84.9338L64.716 90.2568L58.5525 87.175L60.2335 81.8521V77.6497L58.5525 71.4863L55.1907 67.284L49.5875 65.3229H46.786L43.9844 60.8404L39.7821 55.7976L35.5798 58.5992L33.8988 65.3229L37.2607 74.568L39.7821 81.8521L37.2607 90.2568L31.3774 93.8988H24.6537L14.2879 90.2568L11.2062 84.9338L8.96498 77.6497V69.8054L5.88327 65.3229Z" fill="#404F50" fill-opacity="0.7"/>
<path d="M110.101 116.591L106.739 125.556L217.121 137.883L218.801 130.599L217.121 125.556L215.44 122.475L210.957 121.074H205.634L201.712 122.475L196.389 121.074L193.307 117.712L191.907 114.35L189.385 112.949L184.903 110.708H182.101L175.658 112.949L172.576 114.35L167.253 116.591L163.891 117.712L158.288 119.673H149.883L144 117.712L140.638 114.35L137.556 110.708L135.595 108.467L132.794 102.864L129.992 100.903H125.51L122.988 103.984L117.385 108.467L113.463 112.949L110.101 116.591Z" fill="#686B64" fill-opacity="0.7"/>
<rect x="541.262" y="327.829" width="178.739" height="14.0078" fill="#3A4E61"/>
<rect x="541.261" y="328.39" width="178.739" height="9.5253" fill="#445B71"/>
<rect x="541.262" y="328.949" width="178.739" height="6.72375" fill="#577591"/>
<rect x="541.262" y="340.716" width="178.739" height="40.3424" fill="#31333F"/>
<rect x="541.262" y="340.716" width="178.739" height="19.0506" fill="#3C3E4E"/>
<rect x="541.262" y="340.716" width="178.739" height="12.3269" fill="#474A5C"/>
<rect x="635.953" y="327.268" width="25.214" height="33.6187" rx="10" fill="#9EA1A6"/>
<rect x="630.911" y="327.268" width="25.214" height="33.6187" rx="10" fill="#BBBDC1"/>
<rect x="635.953" y="348.56" width="25.214" height="28.0156" fill="#3E0400"/>
<rect x="630.911" y="348.56" width="25.214" height="28.0156" fill="#570500"/>
<rect x="561.433" y="139.564" width="3.92212" height="200.031" rx="1.96106" fill="#9EA1A6"/>
<path d="M573.198 350.059V355.698V378.817H554.148V355.698V340.191L556.109 336.244L560.592 334.553H566.195L570.677 336.244L573.198 340.191V350.059Z" fill="#9EA1A6"/>
<path opacity="0.3" d="M570.397 350.059V355.698V378.817H553.588V355.698V340.191L555.318 336.244L559.273 334.553H564.217L568.172 336.244L570.397 340.191V350.059Z" fill="white"/>
<rect x="560.312" y="139.564" width="3.92218" height="200.031" rx="1.96109" fill="#BBBDC1"/>
<rect x="559.191" y="137.883" width="8.96497" height="3.36186" fill="#A8A8A8"/>
<rect x="557.51" y="137.883" width="8.96503" height="3.36186" fill="#8B8B8B"/>
<path d="M207.315 132.28L0 111.829V97.2606L197.51 121.074L202.553 121.914L205.074 123.315L206.475 124.996L207.315 126.957V132.28Z" fill="#90939A" fill-opacity="0.7"/>
<path d="M371.486 244.903L356.358 212.405L207.315 131.44L0 110.988V244.903H371.486Z" fill="#676E85"/>
<path d="M0 160.296L87.1284 218.008L0 222.49V160.296Z" fill="#BB757D"/>
<path d="M88.5292 119.673L96.3736 120.514H107.019L118.506 122.755L129.152 127.798L139.798 133.401H156.327L154.086 130.319L154.646 127.798L156.327 126.397L161.93 126.957L179.019 128.638L190.506 129.759L198.911 130.599L207.876 135.082L371.767 225.292H148.202L0 135.082V116.872L7.28405 112.669L17.0895 112.109L31.6576 114.91L38.3813 116.311L46.2257 119.393L52.109 122.755L61.6342 127.798H66.677H77.323L76.7626 125.837L78.1634 122.755L79.5642 118.833L82.3658 119.113L85.1673 119.393L88.5292 119.673Z" fill="#BB757D"/>
<path d="M4.76313 201.198L0.000488281 198.117V172.903L33.339 193.354L36.981 195.875L38.9421 199.798V203.72L36.981 205.401L33.339 207.922H28.8565H24.374L18.7709 206.801L13.448 205.401L8.96547 203.72L4.76313 201.198Z" fill="#CFA191"/>
<path d="M125.938 197.556L0.000488281 124.996V106.506H4.64334L9.86655 107.346L12.188 107.907L15.6701 108.747L21.1835 110.988L153.826 186.264L165.692 193.074L169.468 196.716L170.335 200.078L168.594 203.72L161.936 204.56H153.826L142.188 203.159L132.612 200.638L125.938 197.556Z" fill="#CFA191"/>
<path d="M95.2222 117.152L102.42 117.734L110.217 119.483L116.215 122.396L233.476 189.992L239.474 194.654L240.374 200.481L239.174 203.103L233.476 204.56H226.578H220.88L212.183 202.229L202.886 198.442L195.389 193.488L88.9243 131.137L82.9263 125.892V121.074L84.0469 118.833L86.825 117.734L95.2222 117.152Z" fill="#CFA191"/>
<path d="M268.309 197.03L257.743 190.704L160.089 131.966L159.128 128.352L160.089 125.641L164.251 124.436H170.975H176.738L183.782 125.641L190.506 128.352L198.19 131.966L300.967 189.499L304.809 197.03V202.452L299.046 204.56H290.722L281.116 202.452L268.309 197.03Z" fill="#CFA191"/>
<path d="M0.000488281 156.654V142.366V139.564L3.92267 142.366L123.829 217.728H96.9343L0.000488281 156.654Z" fill="#82706E"/>
<path d="M76.483 202.599L0.000488281 154.132V140.965L92.4519 200.078V202.879L90.7709 204.56L86.2884 205.401L80.9655 204.56L76.483 202.599Z" fill="#897979"/>
<path d="M-4.20023 196.313H-4.43403L-5.60303 195.144L-5.36923 192.572L-4.66783 190.702L-3.49884 188.597L-1.16085 186.493L0.943343 185.558H3.51513L6.55452 186.493L8.19111 188.13L8.89251 190.234L10.2953 193.273H14.0361L14.7375 190.234L15.6727 187.662L18.0107 185.09L20.1149 184.389L23.1542 184.857L24.7908 186.493L25.726 188.13L26.895 191.637V193.507L26.1936 194.676L25.726 191.871L24.557 189.533L23.1542 187.896L21.5177 187.195L19.6473 187.896L18.2445 189.065L16.6079 191.403L15.9065 193.741L15.4389 195.378H8.89251L8.42491 193.741L6.55452 190L4.21653 188.364H1.87854L-0.693249 190L-3.26504 192.806L-4.20023 196.313Z" fill="#BC7968"/>
<path d="M-26.0523 182.305H-26.2861L-27.4551 181.136L-27.2213 178.564L-26.5199 176.694L-25.3509 174.589L-23.0129 172.485L-20.9087 171.55H-18.3369L-15.2975 172.485L-13.6609 174.122L-12.9595 176.226L-11.5567 179.265H-7.81597L-7.11457 176.226L-6.17937 173.654L-3.84138 171.082L-1.73719 170.381L1.30219 170.849L2.93879 172.485L3.87398 174.122L5.04298 177.629V179.499L4.34158 180.668L3.87398 177.863L2.70499 175.525L1.30219 173.888L-0.3344 173.187L-2.20479 173.888L-3.60759 175.057L-5.24418 177.395L-5.94557 179.733L-6.41317 181.37H-12.9595L-13.4271 179.733L-15.2975 175.992L-17.6355 174.356H-19.9735L-22.5453 175.992L-25.1171 178.798L-26.0523 182.305Z" fill="#BC7968"/>
<path d="M189.035 188.412H188.813L187.705 187.303L187.926 184.865L188.591 183.091L189.7 181.096L191.917 179.1L193.912 178.214H196.351L199.233 179.1L200.785 180.652L201.45 182.648L202.781 185.53H206.328L206.993 182.648L207.88 180.209L210.097 177.77L212.092 177.105L214.974 177.548L216.526 179.1L217.413 180.652L218.522 183.978V185.752L217.857 186.86L217.413 184.2L216.305 181.983L214.974 180.431L213.422 179.765L211.649 180.431L210.319 181.539L208.767 183.756L208.102 185.973L207.658 187.525H201.45L201.007 185.973L199.233 182.426L197.016 180.874H194.799L192.36 182.426L189.922 185.086L189.035 188.412Z" fill="#BC7968"/>
<path d="M167.158 175.879H166.94L165.852 174.791L166.07 172.397L166.723 170.655L167.811 168.696L169.988 166.737L171.947 165.866H174.341L177.171 166.737L178.695 168.261L179.348 170.22L180.654 173.05H184.137L184.79 170.22L185.66 167.826L187.837 165.431L189.796 164.778L192.626 165.213L194.15 166.737L195.02 168.261L196.109 171.526V173.267L195.456 174.356L195.02 171.744L193.932 169.567L192.626 168.043L191.102 167.39L189.361 168.043L188.055 169.132L186.531 171.308L185.878 173.485L185.443 175.009H179.348L178.913 173.485L177.171 170.002L174.994 168.479H172.818L170.423 170.002L168.029 172.614L167.158 175.879Z" fill="#BC7968"/>
<path d="M146.403 162.787H146.189L145.121 161.718L145.335 159.368L145.976 157.659L147.044 155.736L149.18 153.814L151.103 152.959H153.453L156.231 153.814L157.726 155.309L158.367 157.232L159.649 160.009H163.067L163.708 157.232L164.563 154.882L166.699 152.532L168.622 151.891L171.399 152.318L172.895 153.814L173.749 155.309L174.818 158.514V160.223L174.177 161.291L173.749 158.727L172.681 156.591L171.399 155.096L169.904 154.455L168.195 155.096L166.913 156.164L165.417 158.3L164.776 160.437L164.349 161.932H158.367L157.94 160.437L156.231 157.018L154.094 155.523H151.958L149.608 157.018L147.258 159.582L146.403 162.787Z" fill="#BC7968"/>
<path d="M123.43 150.46H123.216L122.148 149.392L122.362 147.042L123.003 145.332L124.071 143.41L126.207 141.487L128.13 140.632H130.48L133.257 141.487L134.753 142.982L135.394 144.905L136.676 147.683H140.094L140.735 144.905L141.59 142.555L143.726 140.205L145.649 139.564L148.426 139.991L149.922 141.487L150.776 142.982L151.844 146.187V147.896L151.204 148.964L150.776 146.401L149.708 144.264L148.426 142.769L146.931 142.128L145.221 142.769L143.94 143.837L142.444 145.973L141.803 148.11L141.376 149.605H135.394L134.967 148.11L133.257 144.692L131.121 143.196H128.985L126.634 144.692L124.284 147.255L123.43 150.46Z" fill="#BC7968"/>
<path d="M255.103 186.88H254.89L253.821 185.812L254.035 183.462L254.676 181.753L255.744 179.83L257.881 177.907L259.803 177.053H262.153L264.931 177.907L266.426 179.403L267.067 181.325L268.349 184.103H271.767L272.408 181.325L273.263 178.975L275.399 176.625L277.322 175.984L280.099 176.412L281.595 177.907L282.45 179.403L283.518 182.607V184.316L282.877 185.385L282.45 182.821L281.381 180.685L280.099 179.189L278.604 178.548L276.895 179.189L275.613 180.257L274.117 182.394L273.477 184.53L273.049 186.026H267.067L266.64 184.53L264.931 181.112L262.794 179.616H260.658L258.308 181.112L255.958 183.676L255.103 186.88Z" fill="#BC7968"/>
<path d="M234.932 175.674H234.718L233.65 174.606L233.864 172.256L234.504 170.546L235.573 168.624L237.709 166.701L239.632 165.846H241.982L244.759 166.701L246.255 168.196L246.896 170.119L248.178 172.897H251.596L252.237 170.119L253.091 167.769L255.228 165.419L257.151 164.778L259.928 165.205L261.424 166.701L262.278 168.196L263.346 171.401V173.11L262.705 174.178L262.278 171.615L261.21 169.478L259.928 167.983L258.433 167.342L256.723 167.983L255.442 169.051L253.946 171.187L253.305 173.324L252.878 174.819H246.896L246.469 173.324L244.759 169.906L242.623 168.41H240.487L238.136 169.906L235.786 172.469L234.932 175.674Z" fill="#BC7968"/>
<path d="M216.442 165.028H216.228L215.16 163.96L215.373 161.61L216.014 159.9L217.082 157.978L219.219 156.055L221.142 155.2H223.492L226.269 156.055L227.765 157.55L228.406 159.473L229.687 162.251H233.106L233.747 159.473L234.601 157.123L236.738 154.773L238.66 154.132L241.438 154.559L242.933 156.055L243.788 157.55L244.856 160.755V162.464L244.215 163.532L243.788 160.969L242.72 158.832L241.438 157.337L239.942 156.696L238.233 157.337L236.951 158.405L235.456 160.541L234.815 162.678L234.388 164.173H228.406L227.978 162.678L226.269 159.26L224.133 157.764H221.996L219.646 159.26L217.296 161.823L216.442 165.028Z" fill="#BC7968"/>
<path d="M197.319 153.205H197.117L196.109 152.197L196.311 149.98L196.916 148.368L197.923 146.554L199.939 144.74L201.753 143.934H203.97L206.59 144.74L208.001 146.151L208.606 147.965L209.815 150.585H213.04L213.644 147.965L214.451 145.748L216.466 143.531L218.28 142.926L220.9 143.329L222.311 144.74L223.117 146.151L224.125 149.174V150.786L223.52 151.794L223.117 149.376L222.109 147.36L220.9 145.949L219.489 145.345L217.877 145.949L216.668 146.957L215.257 148.972L214.652 150.988L214.249 152.399H208.606L208.202 150.988L206.59 147.763L204.575 146.352H202.559L200.342 147.763L198.125 150.182L197.319 153.205Z" fill="#BC7968"/>
<path d="M179.389 143.119H179.187L178.179 142.112L178.381 139.895L178.985 138.282L179.993 136.468L182.009 134.654L183.823 133.848H186.04L188.66 134.654L190.071 136.065L190.675 137.879L191.885 140.499H195.109L195.714 137.879L196.52 135.662L198.536 133.445L200.35 132.84L202.97 133.243L204.381 134.654L205.187 136.065L206.195 139.088V140.701L205.59 141.709L205.187 139.29L204.179 137.274L202.97 135.864L201.559 135.259L199.947 135.864L198.737 136.871L197.327 138.887L196.722 140.902L196.319 142.313H190.675L190.272 140.902L188.66 137.678L186.644 136.267H184.629L182.412 137.678L180.195 140.096L179.389 143.119Z" fill="#BC7968"/>
<path d="M165.284 133.892H165.099L164.171 132.965L164.357 130.926L164.913 129.442L165.84 127.773L167.694 126.105L169.363 125.363H171.403L173.814 126.105L175.112 127.402L175.668 129.071L176.78 131.482H179.747L180.304 129.071L181.045 127.032L182.899 124.992L184.568 124.436L186.979 124.807L188.277 126.105L189.019 127.402L189.946 130.184V131.667L189.389 132.594L189.019 130.369L188.091 128.515L186.979 127.217L185.681 126.661L184.197 127.217L183.085 128.144L181.787 129.998L181.231 131.853L180.86 133.151H175.668L175.297 131.853L173.814 128.886L171.959 127.588H170.105L168.065 128.886L166.026 131.111L165.284 133.892Z" fill="#BC7968"/>
<path d="M104.915 139.608H104.706L103.658 138.56L103.867 136.255L104.496 134.578L105.544 132.691L107.64 130.805L109.527 129.966H111.833L114.558 130.805L116.025 132.272L116.654 134.159L117.911 136.883H121.265L121.894 134.159L122.732 131.853L124.829 129.547L126.715 128.918L129.44 129.337L130.907 130.805L131.746 132.272L132.794 135.416V137.093L132.165 138.141L131.746 135.626L130.698 133.53L129.44 132.062L127.973 131.434L126.296 132.062L125.038 133.11L123.571 135.207L122.942 137.303L122.523 138.77H116.654L116.234 137.303L114.558 133.949L112.461 132.482H110.365L108.06 133.949L105.754 136.464L104.915 139.608Z" fill="#BC7968"/>
<path d="M86.401 127.636H86.1954L85.1675 126.608L85.3731 124.347L85.9898 122.702L87.0177 120.852L89.0735 119.002L90.9238 118.18H93.1852L95.8577 119.002L97.2968 120.441L97.9136 122.291L99.147 124.964H102.436L103.053 122.291L103.875 120.03L105.931 117.768L107.781 117.152L110.454 117.563L111.893 119.002L112.715 120.441L113.743 123.525V125.169L113.127 126.197L112.715 123.73L111.688 121.674L110.454 120.235L109.015 119.619L107.37 120.235L106.137 121.263L104.698 123.319L104.081 125.375L103.67 126.814H97.9136L97.5024 125.375L95.8577 122.086L93.8019 120.646H91.7461L89.4847 122.086L87.2233 124.553L86.401 127.636Z" fill="#BC7968"/>
<path d="M117.388 190.71H117.154L115.985 189.541L116.219 186.969L116.92 185.098L118.089 182.994L120.427 180.89L122.531 179.955H125.103L128.142 180.89L129.779 182.527L130.48 184.631L131.883 187.67H135.624L136.325 184.631L137.261 182.059L139.599 179.487L141.703 178.786L144.742 179.253L146.379 180.89L147.314 182.527L148.483 186.034V187.904L147.782 189.073L147.314 186.267L146.145 183.929L144.742 182.293L143.106 181.591L141.235 182.293L139.832 183.462L138.196 185.8L137.494 188.138L137.027 189.774H130.48L130.013 188.138L128.142 184.397L125.804 182.76H123.466L120.895 184.397L118.323 187.203L117.388 190.71Z" fill="#BC7968"/>
<path d="M88.8115 174.461H88.5777L87.4087 173.292L87.6425 170.72L88.3439 168.849L89.5129 166.745L91.8509 164.641L93.9551 163.706H96.5268L99.5662 164.641L101.203 166.278L101.904 168.382L103.307 171.421H107.048L107.749 168.382L108.684 165.81L111.022 163.238L113.127 162.537L116.166 163.004L117.803 164.641L118.738 166.278L119.907 169.785V171.655L119.205 172.824L118.738 170.018L117.569 167.68L116.166 166.044L114.529 165.342L112.659 166.044L111.256 167.213L109.62 169.551L108.918 171.889L108.451 173.525H101.904L101.437 171.889L99.5662 168.148L97.2282 166.511H94.8903L92.3185 168.148L89.7467 170.954L88.8115 174.461Z" fill="#BC7968"/>
<path d="M62.477 159.332H62.2432L61.0742 158.163L61.308 155.591L62.0094 153.721L63.1784 151.617L65.5164 149.513L67.6206 148.577H70.1924L73.2318 149.513L74.8684 151.149L75.5698 153.253L76.9725 156.293H80.7133L81.4147 153.253L82.3499 150.682L84.6879 148.11L86.7921 147.408L89.8315 147.876L91.4681 149.513L92.4033 151.149L93.5723 154.656V156.527L92.8709 157.696L92.4033 154.89L91.2343 152.552L89.8315 150.915L88.1949 150.214L86.3245 150.915L84.9217 152.084L83.2851 154.422L82.5837 156.76L82.1161 158.397H75.5698L75.1022 156.76L73.2318 153.02L70.8938 151.383H68.5558L65.984 153.02L63.4122 155.825L62.477 159.332Z" fill="#BC7968"/>
<path d="M38.9438 145.885H38.71L37.541 144.716L37.7748 142.144L38.4762 140.274L39.6452 138.169L41.9832 136.065L44.0874 135.13H46.6592L49.6986 136.065L51.3352 137.702L52.0366 139.806L53.4393 142.845H57.1801L57.8815 139.806L58.8167 137.234L61.1547 134.662L63.2589 133.961L66.2983 134.429L67.9349 136.065L68.8701 137.702L70.0391 141.209V143.079L69.3377 144.248L68.8701 141.443L67.7011 139.105L66.2983 137.468L64.6617 136.767L62.7913 137.468L61.3885 138.637L59.7519 140.975L59.0505 143.313L58.5829 144.949H52.0366L51.569 143.313L49.6986 139.572L47.3606 137.936H45.0226L42.4508 139.572L39.879 142.378L38.9438 145.885Z" fill="#BC7968"/>
<path d="M15.4106 132.437H15.1768L14.0078 131.268L14.2416 128.697L14.943 126.826L16.112 124.722L18.45 122.618L20.5542 121.683H23.126L26.1654 122.618L27.802 124.254L28.5033 126.359L29.9061 129.398H33.6469L34.3483 126.359L35.2835 123.787L37.6215 121.215L39.7257 120.514L42.7651 120.981L44.4017 122.618L45.3369 124.254L46.5059 127.761V129.632L45.8045 130.801L45.3369 127.995L44.1679 125.657L42.7651 124.021L41.1285 123.319L39.2581 124.021L37.8553 125.19L36.2187 127.528L35.5173 129.866L35.0497 131.502H28.5033L28.0357 129.866L26.1654 126.125L23.8274 124.488H21.4894L18.9176 126.125L16.3458 128.93L15.4106 132.437Z" fill="#BC7968"/>
<path d="M-7.56205 119.55H-7.79585L-8.96484 118.381L-8.73104 115.809L-8.02965 113.939L-6.86065 111.835L-4.52266 109.731L-2.41847 108.795H0.153316L3.1927 109.731L4.82929 111.367L5.53069 113.471L6.93349 116.511H10.6743L11.3757 113.471L12.3109 110.9L14.6488 108.328L16.753 107.626L19.7924 108.094L21.429 109.731L22.3642 111.367L23.5332 114.874V116.745L22.8318 117.914L22.3642 115.108L21.1952 112.77L19.7924 111.133L18.1558 110.432L16.2854 111.133L14.8826 112.302L13.2461 114.64L12.5447 116.978L12.0771 118.615H5.53069L5.06309 116.978L3.1927 113.238L0.854712 111.601H-1.48328L-4.05507 113.238L-6.62685 116.043L-7.56205 119.55Z" fill="#BC7968"/>
<path d="M367.004 223.05H156.047H0V198.957L358.319 202.319L363.082 202.879L367.004 203.72L371.486 205.401L374.848 207.362V212.405V223.05H367.004Z" fill="#90939A" fill-opacity="0.7"/>
<path d="M142.879 212.405H0V318.303H548.545L381.572 212.405H353.276L348.794 222.49L331.424 212.405H163.331L156.047 221.65L142.879 212.405Z" fill="#5C6277"/>
<path d="M0 271.798V229.774V221.089H5.88327L9.80545 221.65L13.1673 222.21L18.2101 224.731L21.572 227.533H34.7393L35.5798 225.292L37.2607 223.611L41.1829 222.21H72L80.4047 225.292L84.607 227.813H87.4086H96.0934L102.537 223.611L108.42 222.21H115.424H122.708L131.953 223.611L140.358 225.292L148.202 229.774L291.362 311.019L316.576 327.268H283.517H239.253H196.109H66.9572H39.2218H0V271.798Z" fill="#BB757D"/>
<path d="M350.755 327.829L203.673 239.019L210.957 230.895L215.439 226.132L224.404 221.93L234.21 220.809H245.136L258.023 221.93L266.988 224.732L272.871 227.253L278.194 229.494L288.28 234.817H298.926L296.965 230.895V227.253L303.969 224.732H310.692H319.097L329.463 226.132L338.988 229.494L346.832 232.576H361.961V229.494L365.043 226.132L370.646 224.732H390.817L396.14 226.132L539.019 318.303L553.027 327.829H350.755Z" fill="#BB757D"/>
<path d="M158.453 304.844L42.951 236.494L38.1006 232.361L41.4353 227.911L45.3763 224.731H53.2583H68.4159L76.6011 227.911L83.5736 232.361L89.3335 236.494L194.225 294.353L200.591 300.393V304.844L196.65 311.838L188.465 314.381H179.37L169.063 311.838L158.453 304.844Z" fill="#CFA191"/>
<path d="M233.93 306.817L105.058 233.696L100.015 229.494L103.097 226.132L110.381 223.891H115.424L124.389 224.451L131.673 226.692L137.276 229.774L144.28 233.696L261.385 296.731L266.428 301.494L268.949 306.817V311.019L261.385 312.7H252.42L242.895 311.019L233.93 306.817Z" fill="#CFA191"/>
<path d="M-0.000488281 254.134V226.12V223.051H1.67381L6.027 223.818L9.37561 224.586L13.7288 226.12L18.4168 228.423L23.1049 231.877L106.15 290.589L111.173 296.345L113.182 303.636L111.173 309.776L106.15 314.381H98.4485L85.7238 311.695L77.0174 307.858L68.9808 303.636L-0.000488281 254.134Z" fill="#CFA191"/>
<path d="M269.789 229.774L281.836 236.778L396.14 300.934L400.902 305.977L399.501 310.459L396.14 315.222H387.455H379.33L368.124 313.261L360.28 310.459L350.474 305.977L240.653 240.14L233.93 236.778L230.007 229.774L232.529 226.412L240.653 224.731H251.019L261.665 226.412L269.789 229.774Z" fill="#CFA191"/>
<path d="M339.548 232.576L351.035 239.019L448.529 289.447L451.891 295.611V302.054L446.848 306.257L438.163 307.658L429.478 306.257L420.513 302.054L308.171 237.058L304.529 234.257V230.615L308.171 228.093H315.735H325.26L331.984 229.494L339.548 232.576Z" fill="#CFA191"/>
<path d="M404.544 231.175L411.548 234.817L509.883 296.731L518.008 302.335L523.33 306.817L524.451 310.179L523.33 313.821L520.249 315.782H513.805H505.4L486.35 305.977L369.525 237.058L365.042 231.175L371.766 227.533H385.494H395.579L404.544 231.175Z" fill="#CFA191"/>
<path d="M183.135 218.609L192.599 224.153L330.312 303.721L358.319 320.265H345.992L341.509 321.105H331.984H326.101L317.416 318.864L160.944 227.74L158.007 220.892L166.818 216.327H177.914L183.135 218.609Z" fill="#82706E"/>
<path d="M198.228 228.386L206.412 233.181L325.503 301.989L330.583 306.783V312.141L325.503 314.115H317.319L307.724 312.141L179.037 236.283L176.498 230.361L184.117 226.412H193.712L198.228 228.386Z" fill="#897979"/>
<path d="M66.0681 298.562H65.796L64.4355 297.201L64.7076 294.208L65.5239 292.031L66.8844 289.582L69.6053 287.134L72.0542 286.045H75.0472L78.5844 287.134L80.4891 289.038L81.3054 291.487L82.9379 295.024H87.2914L88.1077 291.487L89.1961 288.494L91.917 285.501L94.3658 284.685L97.9031 285.229L99.8077 287.134L100.896 289.038L102.257 293.12V295.296L101.44 296.657L100.896 293.392L99.5356 290.671L97.9031 288.766L95.9984 287.95L93.8217 288.766L92.1891 290.127L90.2844 292.848L89.4682 295.569L88.924 297.473H81.3054L80.7612 295.569L78.5844 291.215L75.8635 289.31H73.1425L70.1495 291.215L67.1565 294.48L66.0681 298.562Z" fill="#BC7968"/>
<path d="M43.6555 282.873H43.3834L42.0229 281.512L42.295 278.519L43.1113 276.342L44.4718 273.894L47.1927 271.445L49.6416 270.356H52.6346L56.1718 271.445L58.0765 273.349L58.8928 275.798L60.5253 279.336H64.8788L65.6951 275.798L66.7835 272.805L69.5044 269.812L71.9532 268.996L75.4905 269.54L77.3951 271.445L78.4835 273.349L79.844 277.431V279.608L79.0277 280.968L78.4835 277.703L77.123 274.982L75.4905 273.077L73.5858 272.261L71.4091 273.077L69.7765 274.438L67.8718 277.159L67.0556 279.88L66.5114 281.784H58.8928L58.3486 279.88L56.1718 275.526L53.4509 273.622H50.7299L47.7369 275.526L44.7439 278.791L43.6555 282.873Z" fill="#BC7968"/>
<path d="M23.9842 267.791H23.7222L22.4121 266.481L22.6741 263.598L23.4602 261.502L24.7703 259.144L27.3904 256.786L29.7486 255.738H32.6307L36.0369 256.786L37.8711 258.62L38.6571 260.978L40.2292 264.384H44.4215L45.2075 260.978L46.2556 258.096L48.8757 255.214L51.2339 254.428L54.6401 254.952L56.4742 256.786L57.5223 258.62L58.8323 262.55V264.646L58.0463 265.957L57.5223 262.812L56.2122 260.192L54.6401 258.358L52.806 257.572L50.7098 258.358L49.1378 259.668L47.3036 262.288L46.5176 264.909L45.9936 266.743H38.6571L38.1331 264.909L36.0369 260.716L33.4168 258.882H30.7966L27.9144 260.716L25.0323 263.86L23.9842 267.791Z" fill="#BC7968"/>
<path d="M2.13167 253.223H1.86965L0.55957 251.913L0.821586 249.03L1.60763 246.934L2.91772 244.576L5.53788 242.218L7.89602 241.17H10.7782L14.1844 242.218L16.0185 244.052L16.8046 246.41L18.3767 249.816H22.5689L23.355 246.41L24.403 243.528L27.0232 240.646L29.3813 239.86L32.7875 240.384L34.6217 242.218L35.6697 244.052L36.9798 247.982V250.078L36.1938 251.389L35.6697 248.244L34.3596 245.624L32.7875 243.79L30.9534 243.004L28.8573 243.79L27.2852 245.1L25.4511 247.72L24.6651 250.34L24.141 252.175H16.8046L16.2805 250.34L14.1844 246.148L11.5642 244.314H8.94409L6.06191 246.148L3.17973 249.292L2.13167 253.223Z" fill="#BC7968"/>
<path d="M-18.0876 237.683H-18.3416L-19.6113 236.413L-19.3574 233.62L-18.5955 231.588L-17.3257 229.303L-14.7862 227.017L-12.5006 226.001H-9.70712L-6.40572 227.017L-4.62804 228.795L-3.86618 231.08L-2.34245 234.382H1.72081L2.48267 231.08L3.49849 228.287L6.03803 225.493L8.32361 224.731L11.625 225.239L13.4027 227.017L14.4185 228.795L15.6883 232.604V234.636L14.9264 235.905L14.4185 232.858L13.1487 230.318L11.625 228.541L9.84734 227.779L7.81571 228.541L6.29198 229.811L4.5143 232.35L3.75244 234.89L3.24453 236.667H-3.86618L-4.37409 234.89L-6.40572 230.826L-8.94526 229.049H-11.4848L-14.2783 230.826L-17.0718 233.874L-18.0876 237.683Z" fill="#BC7968"/>
<path d="M146.741 297.338H146.471L145.12 295.988L145.39 293.017L146.2 290.856L147.551 288.426L150.252 285.995L152.682 284.915H155.653L159.164 285.995L161.055 287.885L161.865 290.316L163.485 293.827H167.807L168.617 290.316L169.697 287.345L172.398 284.374L174.829 283.564L178.34 284.104L180.23 285.995L181.311 287.885L182.661 291.937V294.097L181.851 295.448L181.311 292.207L179.96 289.506L178.34 287.615L176.449 286.805L174.289 287.615L172.668 288.966L170.778 291.667L169.967 294.367L169.427 296.258H161.865L161.325 294.367L159.164 290.046L156.463 288.156H153.763L150.792 290.046L147.821 293.287L146.741 297.338Z" fill="#BC7968"/>
<path d="M121.478 281.799H121.216L119.906 280.489L120.168 277.606L120.954 275.51L122.264 273.152L124.885 270.794L127.243 269.746H130.125L133.531 270.794L135.365 272.628L136.151 274.986L137.723 278.392H141.916L142.702 274.986L143.75 272.104L146.37 269.222L148.728 268.436L152.134 268.96L153.968 270.794L155.016 272.628L156.326 276.558V278.654L155.54 279.965L155.016 276.82L153.706 274.2L152.134 272.366L150.3 271.58L148.204 272.366L146.632 273.676L144.798 276.296L144.012 278.916L143.488 280.751H136.151L135.627 278.916L133.531 274.724L130.911 272.89H128.291L125.409 274.724L122.526 277.868L121.478 281.799Z" fill="#BC7968"/>
<path d="M95.6556 266.819H95.4016L94.1318 265.55L94.3858 262.756L95.1477 260.724L96.4174 258.439L98.957 256.153L101.243 255.137H104.036L107.337 256.153L109.115 257.931L109.877 260.217L111.401 263.518H115.464L116.226 260.217L117.242 257.423L119.781 254.63L122.067 253.868L125.368 254.376L127.146 256.153L128.162 257.931L129.431 261.74V263.772L128.67 265.042L128.162 261.994L126.892 259.455L125.368 257.677L123.59 256.915L121.559 257.677L120.035 258.947L118.257 261.486L117.496 264.026L116.988 265.803H109.877L109.369 264.026L107.337 259.963L104.798 258.185H102.258L99.4649 259.963L96.6714 263.01L95.6556 266.819Z" fill="#BC7968"/>
<path d="M69.8328 251.84H69.5869L68.3574 250.61L68.6033 247.906L69.341 245.939L70.5705 243.725L73.0294 241.512L75.2424 240.529H77.9472L81.1438 241.512L82.8651 243.234L83.6027 245.447L85.0781 248.643H89.0124L89.75 245.447L90.7336 242.742L93.1925 240.037L95.4055 239.299L98.6021 239.791L100.323 241.512L101.307 243.234L102.536 246.922V248.889L101.799 250.119L101.307 247.168L100.077 244.709L98.6021 242.988L96.8809 242.25L94.9138 242.988L93.4384 244.217L91.7172 246.676L90.9795 249.135L90.4877 250.856H83.6027L83.1109 249.135L81.1438 245.201L78.6849 243.48H76.226L73.5212 245.201L70.8163 248.152L69.8328 251.84Z" fill="#BC7968"/>
<path d="M47.3718 236.861H47.134L45.9448 235.672L46.1827 233.055L46.8961 231.153L48.0853 229.012L50.4636 226.872L52.6041 225.921H55.2202L58.312 226.872L59.9768 228.537L60.6903 230.677L62.1173 233.769H65.9225L66.636 230.677L67.5874 228.061L69.9657 225.445L72.1061 224.731L75.1979 225.207L76.8627 226.872L77.814 228.537L79.0032 232.104V234.007L78.2897 235.196L77.814 232.342L76.6249 229.964L75.1979 228.299L73.5331 227.585L71.6305 228.299L70.2035 229.488L68.5387 231.866L67.8252 234.245L67.3495 235.909H60.6903L60.2146 234.245L58.312 230.439L55.9337 228.775H53.5554L50.9393 230.439L48.3231 233.293L47.3718 236.861Z" fill="#BC7968"/>
<path d="M216.562 296.048H216.328L215.159 294.879L215.393 292.307L216.094 290.437L217.263 288.333L219.601 286.229L221.706 285.293H224.277L227.317 286.229L228.953 287.865L229.655 289.969L231.058 293.009H234.798L235.5 289.969L236.435 287.398L238.773 284.826L240.877 284.124L243.916 284.592L245.553 286.229L246.488 287.865L247.657 291.372V293.243L246.956 294.412L246.488 291.606L245.319 289.268L243.916 287.631L242.28 286.93L240.409 287.631L239.007 288.8L237.37 291.138L236.669 293.476L236.201 295.113H229.655L229.187 293.476L227.317 289.736L224.979 288.099H222.641L220.069 289.736L217.497 292.541L216.562 296.048Z" fill="#BC7968"/>
<path d="M188.498 280.509H188.272L187.144 279.38L187.369 276.897L188.047 275.091L189.175 273.059L191.433 271.028L193.464 270.125H195.947L198.882 271.028L200.462 272.608L201.139 274.639L202.494 277.574H206.105L206.783 274.639L207.686 272.156L209.943 269.673L211.975 268.996L214.909 269.447L216.489 271.028L217.392 272.608L218.521 275.994V277.8L217.844 278.928L217.392 276.22L216.264 273.962L214.909 272.382L213.329 271.705L211.523 272.382L210.169 273.511L208.589 275.768L207.911 278.025L207.46 279.606H201.139L200.688 278.025L198.882 274.414L196.625 272.833H194.367L191.884 274.414L189.401 277.122L188.498 280.509Z" fill="#BC7968"/>
<path d="M161.555 264.969H161.337L160.249 263.881L160.466 261.486L161.119 259.745L162.208 257.786L164.384 255.827L166.343 254.956H168.738L171.568 255.827L173.091 257.35L173.744 259.31L175.05 262.139H178.533L179.186 259.31L180.057 256.915L182.234 254.521L184.193 253.868L187.023 254.303L188.546 255.827L189.417 257.35L190.505 260.616V262.357L189.852 263.445L189.417 260.833L188.329 258.657L187.023 257.133L185.499 256.48L183.757 257.133L182.451 258.221L180.928 260.398L180.275 262.575L179.839 264.098H173.744L173.309 262.575L171.568 259.092L169.391 257.568H167.214L164.82 259.092L162.425 261.704L161.555 264.969Z" fill="#BC7968"/>
<path d="M135.22 250.401H135.002L133.914 249.312L134.132 246.918L134.785 245.177L135.873 243.218L138.05 241.259L140.009 240.388H142.403L145.233 241.259L146.757 242.782L147.41 244.741L148.716 247.571H152.199L152.852 244.741L153.722 242.347L155.899 239.952L157.858 239.299L160.688 239.735L162.212 241.259L163.082 242.782L164.171 246.047V247.789L163.518 248.877L163.082 246.265L161.994 244.088L160.688 242.565L159.164 241.912L157.423 242.565L156.117 243.653L154.593 245.83L153.94 248.006L153.505 249.53H147.41L146.975 248.006L145.233 244.524L143.056 243H140.88L138.485 244.524L136.091 247.136L135.22 250.401Z" fill="#BC7968"/>
<path d="M111.03 235.571H110.828L109.82 234.563L110.022 232.346L110.627 230.734L111.634 228.92L113.65 227.106L115.464 226.3H117.681L120.301 227.106L121.712 228.517L122.316 230.331L123.526 232.951H126.751L127.355 230.331L128.161 228.113L130.177 225.896L131.991 225.292L134.611 225.695L136.022 227.106L136.828 228.517L137.836 231.54V233.152L137.231 234.16L136.828 231.741L135.82 229.726L134.611 228.315L133.2 227.71L131.588 228.315L130.379 229.323L128.968 231.338L128.363 233.354L127.96 234.765H122.316L121.913 233.354L120.301 230.129L118.285 228.718H116.27L114.053 230.129L111.836 232.548L111.03 235.571Z" fill="#BC7968"/>
<path d="M343.753 298.289H343.519L342.35 297.12L342.584 294.549L343.285 292.678L344.454 290.574L346.792 288.47L348.896 287.535H351.468L354.508 288.47L356.144 290.107L356.846 292.211L358.248 295.25H361.989L362.691 292.211L363.626 289.639L365.964 287.067L368.068 286.366L371.107 286.833L372.744 288.47L373.679 290.107L374.848 293.613V295.484L374.147 296.653L373.679 293.847L372.51 291.509L371.107 289.873L369.471 289.171L367.6 289.873L366.198 291.042L364.561 293.38L363.86 295.718L363.392 297.354H356.846L356.378 295.718L354.508 291.977L352.17 290.34H349.832L347.26 291.977L344.688 294.782L343.753 298.289Z" fill="#BC7968"/>
<path d="M315.737 282.601H315.503L314.334 281.432L314.568 278.86L315.27 276.989L316.439 274.885L318.777 272.781L320.881 271.846H323.453L326.492 272.781L328.129 274.418L328.83 276.522L330.233 279.561H333.974L334.675 276.522L335.61 273.95L337.948 271.378L340.052 270.677L343.092 271.144L344.728 272.781L345.664 274.418L346.833 277.925V279.795L346.131 280.964L345.664 278.158L344.495 275.82L343.092 274.184L341.455 273.482L339.585 274.184L338.182 275.353L336.545 277.691L335.844 280.029L335.376 281.665H328.83L328.362 280.029L326.492 276.288L324.154 274.651H321.816L319.244 276.288L316.672 279.094L315.737 282.601Z" fill="#BC7968"/>
<path d="M287.697 266.146H287.467L286.318 264.997L286.548 262.47L287.237 260.632L288.386 258.564L290.684 256.496L292.752 255.577H295.279L298.266 256.496L299.875 258.104L300.564 260.172L301.943 263.159H305.619L306.308 260.172L307.227 257.645L309.525 255.117L311.593 254.428L314.58 254.887L316.188 256.496L317.107 258.104L318.256 261.551V263.389L317.567 264.538L317.107 261.78L315.958 259.483L314.58 257.874L312.971 257.185L311.133 257.874L309.755 259.023L308.146 261.321L307.457 263.619L306.997 265.227H300.564L300.104 263.619L298.266 259.942L295.969 258.334H293.671L291.143 259.942L288.616 262.7L287.697 266.146Z" fill="#BC7968"/>
<path d="M261.923 251.018H261.693L260.544 249.869L260.774 247.341L261.464 245.503L262.612 243.435L264.91 241.367L266.978 240.448H269.505L272.492 241.367L274.101 242.976L274.79 245.044L276.169 248.031H279.845L280.534 245.044L281.453 242.516L283.751 239.989L285.819 239.299L288.806 239.759L290.414 241.367L291.333 242.976L292.482 246.422V248.26L291.793 249.409L291.333 246.652L290.184 244.354L288.806 242.746L287.198 242.057L285.359 242.746L283.981 243.895L282.372 246.192L281.683 248.49L281.224 250.099H274.79L274.331 248.49L272.492 244.814L270.195 243.206H267.897L265.37 244.814L262.842 247.571L261.923 251.018Z" fill="#BC7968"/>
<path d="M236.149 235.889H235.919L234.77 234.74L235 232.213L235.689 230.375L236.838 228.307L239.136 226.239L241.204 225.32H243.731L246.718 226.239L248.326 227.847L249.016 229.915L250.394 232.902H254.071L254.76 229.915L255.679 227.388L257.977 224.86L260.045 224.171L263.031 224.631L264.64 226.239L265.559 227.847L266.708 231.294V233.132L266.018 234.281L265.559 231.524L264.41 229.226L263.031 227.618L261.423 226.928L259.585 227.618L258.206 228.767L256.598 231.064L255.909 233.362L255.449 234.97H249.016L248.556 233.362L246.718 229.686L244.42 228.077H242.123L239.595 229.686L237.068 232.443L236.149 235.889Z" fill="#BC7968"/>
<path d="M410.381 293.956H410.156L409.027 292.827L409.253 290.344L409.93 288.538L411.058 286.507L413.316 284.475L415.347 283.572H417.831L420.765 284.475L422.345 286.055L423.023 288.087L424.377 291.021H427.989L428.666 288.087L429.569 285.604L431.826 283.121L433.858 282.443L436.792 282.895L438.373 284.475L439.276 286.055L440.404 289.441V291.247L439.727 292.376L439.276 289.667L438.147 287.41L436.792 285.83L435.212 285.152L433.406 285.83L432.052 286.958L430.472 289.216L429.795 291.473L429.343 293.053H423.023L422.571 291.473L420.765 287.861L418.508 286.281H416.25L413.767 287.861L411.284 290.57L410.381 293.956Z" fill="#BC7968"/>
<path d="M385.727 279.948H385.502L384.373 278.82L384.599 276.337L385.276 274.531L386.405 272.499L388.662 270.467L390.694 269.564H393.177L396.111 270.467L397.692 272.048L398.369 274.079L399.723 277.014H403.335L404.012 274.079L404.915 271.596L407.172 269.113L409.204 268.436L412.139 268.887L413.719 270.467L414.622 272.048L415.75 275.434V277.24L415.073 278.368L414.622 275.659L413.493 273.402L412.139 271.822L410.559 271.145L408.753 271.822L407.398 272.951L405.818 275.208L405.141 277.465L404.689 279.045H398.369L397.917 277.465L396.111 273.853L393.854 272.273H391.597L389.114 273.853L386.63 276.562L385.727 279.948Z" fill="#BC7968"/>
<path d="M360.465 266.09H360.248L359.159 265.001L359.377 262.607L360.03 260.865L361.118 258.906L363.295 256.947L365.254 256.077H367.649L370.478 256.947L372.002 258.471L372.655 260.43L373.961 263.26H377.444L378.097 260.43L378.968 258.036L381.144 255.641L383.103 254.988L385.933 255.424L387.457 256.947L388.328 258.471L389.416 261.736V263.478L388.763 264.566L388.328 261.954L387.239 259.777L385.933 258.253L384.409 257.6L382.668 258.253L381.362 259.342L379.838 261.519L379.185 263.695L378.75 265.219H372.655L372.22 263.695L370.478 260.212L368.302 258.689H366.125L363.73 260.212L361.336 262.825L360.465 266.09Z" fill="#BC7968"/>
<path d="M339.173 254.323H338.956L337.867 253.235L338.085 250.84L338.738 249.099L339.826 247.14L342.003 245.181L343.962 244.31H346.357L349.186 245.181L350.71 246.705L351.363 248.664L352.669 251.493H356.152L356.805 248.664L357.676 246.269L359.852 243.875L361.811 243.222L364.641 243.657L366.165 245.181L367.036 246.705L368.124 249.97V251.711L367.471 252.799L367.036 250.187L365.947 248.011L364.641 246.487L363.117 245.834L361.376 246.487L360.07 247.575L358.546 249.752L357.893 251.929L357.458 253.453H351.363L350.928 251.929L349.186 248.446L347.01 246.922H344.833L342.438 248.446L340.044 251.058L339.173 254.323Z" fill="#BC7968"/>
<path d="M316.712 241.025H316.503L315.455 239.977L315.664 237.671L316.293 235.994L317.341 234.108L319.437 232.221L321.324 231.383H323.629L326.354 232.221L327.822 233.688L328.451 235.575L329.708 238.3H333.062L333.691 235.575L334.529 233.269L336.625 230.963L338.512 230.334L341.237 230.754L342.704 232.221L343.543 233.688L344.591 236.832V238.509L343.962 239.557L343.543 237.042L342.495 234.946L341.237 233.479L339.77 232.85L338.093 233.479L336.835 234.527L335.368 236.623L334.739 238.719L334.32 240.186H328.451L328.031 238.719L326.354 235.365L324.258 233.898H322.162L319.856 235.365L317.551 237.881L316.712 241.025Z" fill="#BC7968"/>
<path d="M473.599 297.056H473.39L472.342 296.008L472.551 293.702L473.18 292.025L474.228 290.139L476.324 288.252L478.211 287.414H480.517L483.242 288.252L484.709 289.72L485.338 291.606L486.595 294.331H489.949L490.578 291.606L491.417 289.3L493.513 286.995L495.399 286.366L498.124 286.785L499.591 288.252L500.43 289.72L501.478 292.864V294.541L500.849 295.589L500.43 293.073L499.382 290.977L498.124 289.51L496.657 288.881L494.98 289.51L493.722 290.558L492.255 292.654L491.626 294.75L491.207 296.218H485.338L484.919 294.75L483.242 291.396L481.146 289.929H479.049L476.744 291.396L474.438 293.912L473.599 297.056Z" fill="#BC7968"/>
<path d="M448.946 281.928H448.736L447.688 280.88L447.898 278.574L448.526 276.897L449.575 275.01L451.671 273.124L453.557 272.285H455.863L458.588 273.124L460.055 274.591L460.684 276.478L461.942 279.203H465.295L465.924 276.478L466.763 274.172L468.859 271.866L470.745 271.237L473.47 271.657L474.938 273.124L475.776 274.591L476.824 277.735V279.412L476.195 280.46L475.776 277.945L474.728 275.849L473.47 274.382L472.003 273.753L470.326 274.382L469.068 275.43L467.601 277.526L466.972 279.622L466.553 281.089H460.684L460.265 279.622L458.588 276.268L456.492 274.801H454.396L452.09 276.268L449.784 278.783L448.946 281.928Z" fill="#BC7968"/>
<path d="M425.973 267.92H425.763L424.715 266.872L424.925 264.566L425.554 262.889L426.602 261.003L428.698 259.116L430.584 258.278H432.89L435.615 259.116L437.082 260.583L437.711 262.47L438.969 265.195H442.323L442.952 262.47L443.79 260.164L445.886 257.858L447.773 257.229L450.498 257.649L451.965 259.116L452.803 260.583L453.852 263.728V265.404L453.223 266.452L452.803 263.937L451.755 261.841L450.498 260.374L449.03 259.745L447.354 260.374L446.096 261.422L444.629 263.518L444 265.614L443.58 267.081H437.711L437.292 265.614L435.615 262.26L433.519 260.793H431.423L429.117 262.26L426.811 264.776L425.973 267.92Z" fill="#BC7968"/>
<path d="M405.242 255.593H405.032L403.984 254.545L404.193 252.239L404.822 250.562L405.87 248.676L407.967 246.789L409.853 245.951H412.159L414.884 246.789L416.351 248.256L416.98 250.143L418.238 252.868H421.591L422.22 250.143L423.059 247.837L425.155 245.531L427.041 244.903L429.766 245.322L431.234 246.789L432.072 248.256L433.12 251.401V253.078L432.491 254.126L432.072 251.61L431.024 249.514L429.766 248.047L428.299 247.418L426.622 248.047L425.364 249.095L423.897 251.191L423.268 253.287L422.849 254.754H416.98L416.561 253.287L414.884 249.933L412.788 248.466H410.692L408.386 249.933L406.08 252.449L405.242 255.593Z" fill="#BC7968"/>
<path d="M382.829 241.025H382.62L381.572 239.977L381.781 237.671L382.41 235.994L383.458 234.108L385.554 232.221L387.441 231.383H389.747L392.472 232.221L393.939 233.688L394.568 235.575L395.825 238.3H399.179L399.808 235.575L400.647 233.269L402.743 230.963L404.629 230.334L407.354 230.754L408.821 232.221L409.66 233.688L410.708 236.832V238.509L410.079 239.557L409.66 237.042L408.612 234.946L407.354 233.479L405.887 232.85L404.21 233.479L402.952 234.527L401.485 236.623L400.856 238.719L400.437 240.186H394.568L394.149 238.719L392.472 235.365L390.376 233.898H388.279L385.974 235.365L383.668 237.881L382.829 241.025Z" fill="#BC7968"/>
<path d="M583.284 306.537L584.405 309.338L584.965 318.303V319.424H0V291.408L559.191 300.373L571.517 301.494L577.681 303.455L583.284 306.537Z" fill="#90939A" fill-opacity="0.7"/>
<path d="M584.965 318.303H0V386.101H515.206V331.191H581.043L583.844 328.669L584.965 324.467V321.385V318.303Z" fill="#6C7185"/>
<rect x="273.432" y="326.708" width="81.8114" height="58.2724" fill="#A8A8A8"/>
<rect x="276.788" y="326.708" width="81.8114" height="58.2724" fill="#C4C4C4"/>
<path d="M153.245 356.965C119.851 354.5 37.1673 347.159 0 343.798V510.21H720V365.93C702.444 366.397 653.211 368.059 596.732 370.973C555.642 373.587 447.296 378.033 342.63 374.895C211.798 370.973 194.988 360.047 153.245 356.965Z" fill="#94A0A3"/>
<path d="M153.245 353.603C119.851 351.138 37.1673 343.798 0 340.436V506.848H720V362.568C702.444 363.035 653.211 364.697 596.732 367.611C555.642 370.226 447.296 374.671 342.63 371.533C211.798 367.611 194.988 356.685 153.245 353.603Z" fill="#A2ACAF" fill-opacity="0.6"/>
<path d="M12.607 465.665L0 467.346V655.611L720 568.202V395.907H692.545L657.245 394.226L611.86 391.144H578.802L571.517 410.195L486.91 414.117V405.712L484.389 395.346L468.14 406.833L458.335 414.117L409.588 416.918L364.763 424.763L323.3 433.728L302.008 444.373L251.58 460.623L284.078 433.728H251.58L208.436 444.373L173.696 451.658L137.837 460.623L109.261 467.346H87.4086L99.1751 451.658H72.2802L50.428 454.459L25.4942 460.623L12.607 465.665Z" fill="#444549"/>
<path d="M0 942.49V563.72L67.7977 545.229L117.105 512.731L181.541 491.44L288 477.992L279.595 494.241V508.809L635.953 451.657L720 430.646V942.49H0Z" fill="#626264"/>
<path d="M268.669 546.07L278.194 525.899L296.404 485.836L327.221 466.786L389.416 452.218L442.926 444.373L505.4 438.77H569.276L560.871 460.903L604.856 452.218L628.949 438.77L677.416 422.801L720 411.875V525.058L677.416 525.899V546.07L611.299 525.899L639.595 577.167L538.179 559.798V587.533L489.432 601.261L451.33 643.004L408.747 670.459L380.731 692.031H349.354L302.568 735.735V637.401L310.412 594.257L330.583 559.798L362.241 525.899L268.669 546.07Z" fill="#353337"/>
<path d="M508.203 451.938L510.444 447.175L512.685 443.813H508.203H503.16H498.117L493.354 447.175L486.911 449.977H477.385H468.14L460.856 451.938L451.891 455.019L442.926 460.062H455.533H468.14L473.463 462.864L480.187 465.946H488.592H495.315L503.16 462.864L510.444 460.062L508.203 455.019V451.938Z" fill="#625D61"/>
<path d="M527.813 455.58L537.899 450.817L544.623 455.58L548.825 461.183L568.996 457.821L567.315 453.899L565.914 445.774L568.996 440.171H588.327L565.914 436.529H554.708L544.623 440.171H537.899L527.813 443.813L516.887 445.774L514.646 450.817L520.809 455.58H527.813Z" fill="#635E64"/>
<path d="M620.825 452.498L604.016 455.86L597.292 450.257V442.693V436.249L600.094 431.767L607.658 428.685H617.463L625.588 425.603L633.152 423.362L638.195 417.479H644.358L653.603 416.918L667.331 412.716V423.362L662.568 425.603L651.362 428.685L646.039 425.603L642.957 428.685L638.195 433.728L633.152 439.051H625.588L615.222 440.732L623.066 446.335L629.51 450.257L620.825 452.498Z" fill="#4D4B50"/>
<path d="M677.136 417.198L673.214 419.44V414.397L677.136 410.475L681.338 407.953L685.541 405.152L691.704 402.07L697.868 400.109H703.471L714.117 400.949H720V430.646H711.595H703.471L700.669 425.603L693.665 422.241L689.183 424.483L684.7 425.603L683.299 419.44V415.237L677.136 417.198Z" fill="#575558"/>
<path d="M125.51 412.716C88.0808 422.577 74.0544 422.802 71.7197 421.681C71.7197 418.693 74.2411 412.044 84.3267 409.354C94.4123 406.665 110.568 404.685 117.385 404.031L146.521 400.109L196.109 393.665C188.171 395.907 162.938 402.854 125.51 412.716Z" fill="#90928F"/>
<path d="M85.4478 436.249C91.0509 434.848 104.498 432.047 113.463 432.047H131.954L162.21 434.848H170.055L158.568 438.49C147.212 437.885 127.386 436.788 122.675 436.394C120.818 436.788 108.942 437.885 101.977 438.49L85.4478 436.249Z" fill="#737373"/>
<path d="M51.8288 444.934L46.5059 446.055L59.9533 447.735L70.0389 446.895L79.0039 446.055L72 444.934H59.9533H51.8288Z" fill="#6C6C6A"/>
<path d="M280.996 419.159L266.988 426.724H280.996L289.681 423.362L302.288 416.638L324.14 405.992L299.486 412.716L280.996 419.159Z" fill="#949295"/>
<path d="M444.887 516.934L464.498 508.249H474.023L504 502.366L495.315 508.249L474.023 520.856H455.813L438.163 529.541L444.887 516.934Z" fill="#3E3C3F"/>
<path d="M444.887 502.366L423.035 508.249H399.502L433.121 495.082H455.813L444.887 502.366Z" fill="#3E3C3F"/>
<path d="M0 369.292V390.023V391.704H9.24514L48.1868 390.023L98.3346 387.502L136.156 385.261L166.693 381.899L192.187 379.097L226.646 375.175L253.261 370.412H212.078H145.401H100.856H48.1868L3.36187 369.292H0Z" fill="#D59EA0"/>
<path d="M0 386.942V370.412L7.28405 370.693L20.1712 371.253L38.9416 371.813H48.1868L70.5992 372.093H213.759L150.444 376.576L84.3269 381.058L43.7043 383.58L21.8521 385.541L0 386.942Z" fill="#D78F93"/>
<path d="M0 382.179V373.774H16.5292H36.9805H128.872L85.4475 377.136L67.5175 378.257L44.2646 380.218L35.2996 380.778L21.8521 381.339L0 382.179Z" fill="#CE7D83"/>
<path d="M113.183 423.082L0 434.008V418.599L92.1712 415.798L133.074 413.556L209.837 407.393L240.934 401.51L274.553 395.346H307.891L209.837 413.556L113.183 423.082Z" fill="#838D84"/>
<path d="M322.459 497.043L411.268 483.595L461.696 475.751L505.961 468.747L571.237 458.661L605.696 453.058L650.802 444.374L695.626 433.167L720 421.121V438.21L695.626 442.693L650.802 453.058L605.696 460.342L571.237 465.665L505.961 475.751L461.696 483.595L411.268 492.28L322.459 509.65L222.724 527.86L87.4086 555.035L0 571.844V551.393L87.4086 536.825L222.724 514.132L322.459 497.043Z" fill="#9F9B95"/>
<path d="M394.46 383.58H386.895H373.728H368.965H363.642H357.199H351.876H345.993L340.95 383.3L335.627 382.459L332.825 381.339L329.463 374.335L330.864 365.089H372.607L502.6 367.051L536.218 366.49L548.545 367.611L551.627 377.136L549.666 379.938L548.265 380.498L546.024 381.058L542.662 381.899L538.179 382.739L534.257 383.58H526.973H519.409H511.565L504.841 383.86L498.117 383.3H491.954L488.592 383.58H481.868L475.144 380.498L460.856 381.339L454.693 383.58L447.129 384.981H431.16H418.553L414.631 383.58L411.549 381.339L394.46 383.58Z" fill="black" fill-opacity="0.4"/>
<path d="M503.16 334.611L505.977 329.451L509.92 326.747L522.032 325.027H534.707L548.509 326.747L552.452 329.696L555.269 334.611L556.11 347.44V359.206L555.269 369.262L553.297 376.143L548.509 380.075L534.707 381.058H522.032L509.92 380.075L505.977 376.143L503.16 370.737V334.611Z" fill="#101010"/>
<path d="M341.791 334.611L344.607 329.451L348.551 326.747L360.662 325.027H373.338L387.139 326.747L391.083 329.696L393.899 334.611L394.74 347.44V359.206L393.899 369.262L391.928 376.143L387.139 380.075L373.338 381.058H360.662L348.551 380.075L344.607 376.143L341.791 370.737V334.611Z" fill="#101010"/>
<path d="M388.296 340.156L389.977 333.432L393.899 331.191L398.102 328.669L402.584 325.027L406.787 321.105L409.588 318.023L412.11 314.942L480.467 317.463L487.471 318.584L493.355 322.786L495.036 327.829L490.833 339.315V342.677V355.844L470.942 358.366H453.853H434.242H422.755H412.67L388.296 355.844L388.016 354.163V351.922V349.121V345.759V344.078L388.296 340.156Z" fill="#004080"/>
<path d="M414.351 307.938L411.549 315.502L409.868 318.864L410.429 320.825L409.028 326.988L473.464 328.109L481.308 319.424L482.709 317.743L483.269 315.782L481.308 311.3L478.787 308.218L475.705 304.856L474.304 302.895L472.623 300.934L470.662 298.973L468.701 296.171L466.74 293.089L465.059 290.008L463.098 286.646L461.697 284.405L460.016 282.163L458.055 279.362L456.374 276.56L454.973 274.879L453.292 273.479L451.331 272.638L447.969 272.078L444.047 272.638L441.246 274.319L438.164 277.121L434.802 279.922L428.359 286.646L423.036 293.089L420.234 297.292L417.433 301.494L414.351 307.938Z" fill="#004080"/>
<rect x="366.444" y="346.319" width="136.156" height="6.72372" fill="#101010"/>
<path d="M401.743 340.716V337.354L369.245 341.836V343.517L401.743 340.716Z" fill="#101010"/>
<path d="M468.98 341.378V336.794L501.479 342.906V345.198L468.98 341.378Z" fill="#101010"/>
<path d="M401.183 361.549V367.051L365.323 359.716V356.965L401.183 361.549Z" fill="#101010"/>
<path d="M434.37 356.582L388.296 355.844V364.809L391.938 372.093L403.21 373.245L434.37 375.455L468.336 373.245L488.872 370.132L489.712 367.331V355.844H486.631L434.37 356.582Z" fill="#1F1F1F"/>
<rect x="396.7" y="355.844" width="81.2451" height="7.28406" fill="#1A1A1A"/>
<path d="M400.063 348.28V353.323L396.141 358.366L396.981 364.809L401.464 365.65L405.666 366.21L416.872 368.171L433.121 369.292H437.323H441.526L460.296 368.171L469.261 366.77L477.946 364.809L478.787 361.447L477.386 358.366L474.584 352.202V346.319L473.183 340.716L471.783 338.195L469.261 336.794L465.059 335.393L461.137 334.272L458.055 333.712H413.79L411.269 333.992L405.106 335.673L401.744 337.354L400.623 343.517L400.063 348.28Z" fill="#1A1A1A"/>
<path d="M457.236 334.207C456.564 333.759 455.462 331.592 454.995 330.565H454.155L453.034 328.604L452.194 327.203C451.913 326.83 451.129 325.634 450.233 323.841C449.952 323.841 447.431 322.16 446.03 321.04C444.629 319.919 444.91 320.199 444.91 319.079C444.91 317.958 447.151 318.238 448.832 318.238C450.513 318.238 452.194 319.079 453.034 319.079C453.875 319.079 454.995 317.398 458.637 315.717H460.878C461.719 315.717 464.128 315.212 467.042 313.195C468.723 312.075 469.843 312.355 470.684 311.234C471.524 310.114 472.365 310.394 472.365 309.553C472.365 308.713 472.365 308.152 474.046 307.032C475.391 306.135 476.474 306.658 476.847 307.032H477.968L482.731 309.553C482.731 309.927 483.011 310.786 484.131 311.234C485.532 311.795 485.532 312.355 486.933 312.355C488.054 312.355 488.707 312.915 488.894 313.195C489.734 313.382 491.64 313.868 492.536 314.316C493.433 314.764 494.404 315.437 494.777 315.717L497.859 318.238V320.199V321.04C497.485 321.6 496.122 322.945 493.657 323.841H491.415H488.894H486.933C486.466 323.935 484.972 324.346 482.731 325.242C481.33 326.082 481.33 326.082 479.089 328.604C478.64 329.276 478.155 330.191 477.968 330.565C477.501 331.779 476.063 334.599 474.046 336.168C473.373 336.392 472.645 337.382 472.365 337.849H467.042H460.878C459.945 336.822 457.909 334.655 457.236 334.207Z" fill="#C4C4C4" fill-opacity="0.5"/>
<path d="M463.68 319.919L468.443 319.639H472.925L476.567 320.76L479.369 323.281L477.688 326.363L475.727 330.285L471.244 335.328L468.723 335.888L464.241 334.767L459.198 331.405L456.957 327.483L458.077 324.121L460.599 322.16L463.68 319.919Z" fill="#C4C4C4" fill-opacity="0.7"/>
<path d="M462.28 325.522L467.042 324.682H470.964L472.365 326.643L470.964 329.724L469.283 332.246L467.042 333.366L464.521 332.246L462.28 329.724L460.599 326.643L462.28 325.522Z" fill="#C4C4C4"/>
<path d="M413.23 335.921L416.031 334.52C418.459 333.119 423.315 330.037 423.315 328.917V325.835V322.473L421.074 319.952L416.872 318.831L413.23 317.15L410.428 314.068L408.187 312.107C407.627 311.173 406.17 309.026 404.825 307.905C403.48 306.784 403.704 306.317 403.985 306.224V305.103C402.584 304.917 399.782 304.655 399.782 305.103C399.782 305.664 398.381 307.625 397.541 307.905C396.701 308.185 394.179 308.745 392.498 309.306C391.826 309.306 391.658 311.173 391.658 312.107L392.498 314.068C392.592 314.442 392.89 315.357 393.339 316.03C393.787 316.702 393.899 318.924 393.899 319.952V323.594C394.366 324.154 395.468 325.387 396.14 325.835C396.813 326.283 397.915 328.076 398.381 328.917L400.343 332.839L406.506 335.921H413.23Z" fill="#C4C4C4" fill-opacity="0.6"/>
<path d="M410.708 324.714L414.35 326.395L413.229 328.637L411.268 330.598L409.587 331.438H407.346L404.825 329.477L402.583 326.395L404.264 324.714H407.346H410.708Z" fill="#CFA2B7"/>
<path d="M413.23 333.399L409.868 334.52L405.665 333.399L403.424 331.718L400.623 328.076V326.115L401.743 323.594L404.545 322.473L406.786 321.913L412.109 322.473L415.191 323.594L418.833 326.115L418.272 327.236L416.311 330.317L413.23 333.399Z" fill="#C4C4C4" fill-opacity="0.6"/>
<path d="M429.479 316.903H434.802H440.406L446.569 317.743L451.892 319.704L456.374 324.187L458.336 329.51V336.794V342.397V347.72L457.495 351.642L454.974 355.284L450.771 359.206L443.767 362.008L434.802 362.568L425.837 361.167L416.312 356.405L413.791 353.323L413.23 349.401V342.397V333.712V328.109L416.312 323.066L421.075 319.704L424.437 317.743L429.479 316.903Z" fill="#292929"/>
<path d="M426.598 306.924L431.4 305.151L438.904 304.856L446.108 305.742L453.012 309.878L457.515 313.422L462.317 320.512L465.619 326.124V332.032V340.599L464.419 348.574L459.916 358.913L453.012 367.184L444.908 373.387L437.404 375.455L428.999 374.864L421.795 371.615L416.392 367.184L411.589 360.39L407.987 353.891L406.787 345.325V330.555L409.188 323.17L413.69 315.195L419.694 309.878L426.598 306.924Z" fill="#CE000A" fill-opacity="0.4"/>
<path d="M440.406 361.728H436.764H432.001L426.678 360.327L419.954 357.525L416.032 353.323L414.631 347.159V331.471L416.032 326.428L419.114 321.665L423.036 317.743L427.238 314.661L433.682 313.541H438.725L444.048 314.661L449.371 317.743L453.013 321.665L455.534 325.307L456.094 328.949V344.078L454.694 350.241L450.771 355.004L447.69 357.525L444.048 360.047L440.406 361.728Z" fill="#F70400" fill-opacity="0.8"/>
<path d="M432.561 320.545H435.923H437.884L440.686 320.825L443.207 321.665L446.009 323.626L448.25 326.708L449.651 330.35V341.556L449.37 344.358L448.81 346.879L446.289 350.801L442.367 353.883L439.565 354.724H436.763H432.561H429.199L425.557 353.323L422.195 349.121L421.075 346.879V333.992V329.23L423.316 326.148L426.118 323.066L428.639 321.385L430.32 320.825L432.561 320.545Z" fill="#FF9A15" fill-opacity="0.85"/>
<path d="M431.72 323.346H434.802H439.845L440.966 323.626L442.927 324.467L444.327 325.588L445.168 326.988L446.569 329.51L447.129 331.751V341.556L446.569 344.638L445.728 346.879L444.888 348L443.767 349.121L442.366 350.241L440.966 351.362L439.285 351.922L437.884 352.482H430.32L429.479 352.202L428.078 351.362L425.837 349.401L424.436 347.16L423.596 345.198L423.036 343.518V331.191L423.596 330.07L424.156 328.949L425.277 327.829L426.398 326.708L427.518 325.588L428.639 324.467L430.04 323.907L431.72 323.346Z" fill="#F6CE30" fill-opacity="0.8"/>
<path d="M432.841 325.307H435.363H438.445L439.845 325.588L441.246 326.428L443.207 328.389L444.888 331.191V344.078L443.207 347.159L440.686 348.84L438.445 349.961H430.88L429.199 349.121L426.958 347.159L425.557 345.479L424.997 343.237V333.152L425.557 331.471L426.678 329.23L428.359 327.549L430.32 325.868L432.841 325.307Z" fill="white"/>
<path d="M396.982 289.448H379.892L381.293 301.214L386.896 323.907L396.982 364.809V355.284L393.62 320.825V305.977L396.982 289.448Z" fill="#1A1A1A"/>
<path d="M475.985 287.486L497.277 289.448L493.635 306.257L488.032 328.949L477.946 364.809L477.386 356.965L477.946 339.876L479.347 325.307V310.179L475.985 287.486Z" fill="#1A1A1A"/>
<path d="M381.012 286.869H401.232L480.424 288.287L498.678 285.805L497.554 293.961L494.184 304.243L484.075 331.191L479.301 308.498L477.335 302.116L473.965 293.961H399.547L395.615 302.116L392.807 308.498L388.296 325.588L382.697 302.116L381.012 286.869Z" fill="#003667"/>
<path d="M476.265 283.41H437.043H399.783L388.857 273.479L381.012 275.252L377.65 285.538L380.172 297.243L384.654 310.367L389.137 301.854L392.218 297.243H475.145L484.95 312.14L492.514 298.307L498.678 285.538L492.234 275.607L484.95 273.479L476.265 283.41Z" fill="#1A1A1A"/>
<path d="M395.616 297.295H390.561L386.067 302.627L381.012 286.631L383.259 279.166L388.876 273.479L395.616 279.166L399.829 283.432H476.78L485.205 273.479L492.507 279.166L495.316 286.631L485.205 306.537L479.588 301.205L475.657 297.295H463.861H418.084H395.616Z" fill="#1A1A1A"/>
<path d="M489.712 328.669L492.514 322.786L496.436 319.704L508.483 317.743H521.09L534.817 319.704L538.74 323.066L541.541 328.669L542.942 338.755V360.327L541.541 368.171L539.58 376.016L534.817 380.498L521.09 381.619H508.483L496.436 380.498L492.514 376.016L489.712 369.852L488.592 360.327V338.755L489.712 328.669Z" fill="#1A1A1A"/>
<path d="M379.331 328.669L376.529 322.786L372.607 319.704L360.561 317.743H347.954L334.226 319.704L330.304 323.066L327.502 328.669L326.101 338.755V360.327L327.502 368.171L329.463 376.016L334.226 380.498L347.954 381.619H360.561L372.607 380.498L376.529 376.016L379.331 369.852L380.452 360.327V338.755L379.331 328.669Z" fill="#1A1A1A"/>
</g>
<defs>
<clipPath id="clip0">
<rect width="720" height="500" fill="white"/>
</clipPath>
</defs>
</svg>
