<svg width="720" height="500" fill="none" xmlns="http://www.w3.org/2000/svg"><g clip-path="url(#interac-card__a)"><path fill="#FDB913" d="M0 0h720v500H0z"/><path fill-rule="evenodd" clip-rule="evenodd" d="M432.669 249.891c.351-1.109.409-1.788.231-2.692-.493-2.506-1.774-3.808-4.565-4.636-3.241-.961-8.553-2.854-11.19-3.987-23.622-10.149-41.903-29.792-50.188-53.928-.645-1.877-1.404-4.194-1.687-5.15-.828-2.79-2.129-4.072-4.635-4.565-.9-.177-1.58-.12-2.653.222-1.731.553-2.66 1.382-3.423 3.059-.755 1.658-.581 3.197.871 7.7 4.166 12.917 10.02 23.573 19.051 34.675 2.106 2.588 10.346 10.826 12.84 12.836 11.333 9.132 21.967 14.951 34.813 19.051 5.307 1.693 6.891 1.659 9.021-.194.947-.824 1.088-1.047 1.514-2.391Zm6.439-20.903c1.966-3.466.328-7.179-3.696-8.383-12.209-3.653-20.716-8.453-29.186-16.469-8.565-8.106-14.647-17.814-18.094-28.88-.53-1.7-1.062-3.399-1.182-3.774-.341-1.069-1.637-2.441-2.841-3.008-1.377-.648-2.563-.735-4.05-.297-1.026.303-1.402.537-2.287 1.424-2.283 2.289-2.234 4.029.321 11.328 4.007 11.452 10.212 21.3 18.866 29.945 6.414 6.408 13.213 11.292 21.149 15.194 5.926 2.913 14.079 5.744 16.341 5.674 1.922-.061 3.742-1.136 4.659-2.754Zm7.215-22.354c.679-1.433.797-2.717.38-4.135-.499-1.7-1.931-3.173-3.589-3.694-6.318-1.985-7.668-2.491-10.444-3.912-6.633-3.395-12.1-8.102-16.33-14.061-3.254-4.583-4.802-7.993-7.316-16.108-.288-.932-.553-1.343-1.412-2.191-1.877-1.853-4.311-2.176-6.662-.884-1.969 1.082-3.091 3.442-2.753 5.794.25 1.747 1.918 6.855 3.215 9.848 5.627 12.979 16.662 23.909 29.63 29.348 3.015 1.264 7.664 2.754 9.349 2.997 2.415.348 4.955-.937 5.932-3.002Zm6.662-20.816c1.168-2.308.778-4.913-1.003-6.693-1.009-1.01-1.989-1.452-3.944-1.78-2.667-.448-6.451-2.053-8.674-3.679-1.572-1.15-4.286-3.854-5.246-5.226-1.67-2.39-3.119-5.862-3.69-8.844-.387-2.018-.737-2.776-1.747-3.783-1.148-1.144-2.691-1.701-4.409-1.591-2.955.188-5.336 2.896-5.144 5.852.25 3.85 2.451 9.809 5.211 14.111 1.44 2.245 7.062 7.867 9.309 9.31 3.43 2.202 7.678 3.983 11.433 4.793 3.468.748 4.896.523 6.626-1.043.564-.51 1.139-1.152 1.278-1.427Z" fill="#231F20"/><g clip-path="url(#interac-card__b)"><rect x="542.958" y="218.306" width="217" height="469.643" rx="33.546" transform="rotate(-135 542.958 218.306)" fill="#1A1A1A"/><path d="m509.016 181.536-82.731-82.731 4.403-4.403c6.55-6.55 17.17-6.55 23.721 0l59.011 59.011c6.55 6.55 6.55 17.17 0 23.72l-4.404 4.403Z" fill="#4F4F4F"/></g><rect x="542.958" y="210.893" width="206.517" height="459.159" rx="28.304" transform="rotate(-135 542.958 210.893)" stroke="#4F4F4F" stroke-width="10.483"/><path fill-rule="evenodd" clip-rule="evenodd" d="M287.331 255.752c-.351 1.109-.409 1.787-.231 2.692.493 2.506 1.774 3.807 4.565 4.635 3.241.962 8.553 2.854 11.19 3.987 23.622 10.149 41.903 29.792 50.188 53.928.645 1.877 1.404 4.195 1.687 5.15.828 2.791 2.129 4.073 4.635 4.566.9.177 1.58.12 2.653-.223 1.731-.552 2.66-1.382 3.423-3.058.755-1.658.581-3.197-.871-7.7-4.166-12.918-10.02-23.574-19.051-34.675-2.106-2.589-10.346-10.827-12.84-12.837-11.333-9.131-21.967-14.951-34.813-19.05-5.307-1.693-6.891-1.659-9.021.194-.947.823-1.088 1.047-1.514 2.391Zm-6.439 20.903c-1.966 3.466-.328 7.178 3.696 8.383 12.209 3.653 20.716 8.453 29.186 16.469 8.565 8.105 14.647 17.813 18.094 28.88.53 1.7 1.062 3.398 1.182 3.774.341 1.069 1.637 2.441 2.841 3.007 1.377.649 2.563.736 4.05.297 1.026-.303 1.402-.537 2.287-1.423 2.283-2.289 2.234-4.029-.321-11.329-4.007-11.451-10.212-21.299-18.866-29.945-6.414-6.408-13.213-11.292-21.149-15.193-5.926-2.914-14.079-5.744-16.341-5.674-1.922.06-3.742 1.136-4.659 2.754Zm-7.215 22.353c-.679 1.433-.797 2.718-.38 4.136.499 1.7 1.931 3.173 3.589 3.694 6.318 1.985 7.668 2.491 10.444 3.912 6.633 3.394 12.1 8.102 16.33 14.06 3.254 4.584 4.802 7.994 7.316 16.109.288.931.553 1.343 1.412 2.191 1.877 1.853 4.311 2.176 6.662.884 1.969-1.082 3.091-3.443 2.753-5.794-.25-1.748-1.918-6.855-3.215-9.848-5.627-12.979-16.662-23.909-29.63-29.348-3.015-1.264-7.664-2.755-9.349-2.997-2.415-.348-4.955.937-5.932 3.001Zm-6.662 20.816c-1.168 2.309-.778 4.914 1.003 6.694 1.009 1.009 1.989 1.451 3.944 1.78 2.667.448 6.451 2.053 8.674 3.678 1.572 1.151 4.286 3.854 5.246 5.227 1.67 2.39 3.119 5.861 3.69 8.843.387 2.018.737 2.777 1.747 3.784 1.148 1.143 2.691 1.7 4.409 1.591 2.955-.189 5.336-2.897 5.144-5.852-.25-3.85-2.451-9.809-5.211-14.111-1.44-2.245-7.062-7.868-9.309-9.31-3.43-2.202-7.678-3.983-11.433-4.793-3.468-.748-4.896-.524-6.626 1.042-.564.51-1.139 1.153-1.278 1.427Z" fill="#231F20"/><g clip-path="url(#interac-card__c)"><rect x="177.043" y="287.337" width="217" height="469.643" rx="33.546" transform="rotate(45 177.043 287.337)" fill="#1A1A1A"/><path d="m210.984 324.106 82.731 82.732-4.403 4.403c-6.55 6.55-17.17 6.55-23.72 0l-59.011-59.011c-6.551-6.55-6.551-17.17 0-23.721l4.403-4.403Z" fill="#4F4F4F"/></g><rect x="177.043" y="294.749" width="206.517" height="459.159" rx="28.304" transform="rotate(45 177.043 294.749)" stroke="#4F4F4F" stroke-width="10.483"/></g><defs><clipPath id="interac-card__a"><path fill="#fff" d="M0 0h720v500H0z"/></clipPath><clipPath id="interac-card__b"><rect x="542.958" y="218.306" width="217" height="469.643" rx="33.546" transform="rotate(-135 542.958 218.306)" fill="#fff"/></clipPath><clipPath id="interac-card__c"><rect x="177.043" y="287.337" width="217" height="469.643" rx="33.546" transform="rotate(45 177.043 287.337)" fill="#fff"/></clipPath></defs></svg>