<svg width="36" height="36" viewBox="0 0 36 36" fill="none" xmlns="http://www.w3.org/2000/svg">
<path d="M29.9939 29V28.999H29.9999V20.197C29.9999 15.891 29.0729 12.574 24.0389 12.574C21.6189 12.574 19.9949 13.902 19.3319 15.161H19.2619V12.976H14.4889V28.999H19.4589V21.065C19.4589 18.976 19.8549 16.956 22.4419 16.956C24.9909 16.956 25.0289 19.34 25.0289 21.199V29H29.9939Z" fill="#404040"/>
<path d="M6.39604 12.9769H11.372V28.9999H6.39604V12.9769Z" fill="#404040"/>
<path d="M8.882 5C7.291 5 6 6.291 6 7.882C6 9.473 7.291 10.791 8.882 10.791C10.473 10.791 11.764 9.473 11.764 7.882C11.763 6.291 10.472 5 8.882 5V5Z" fill="#404040"/>
</svg>
