<svg width="720" height="500" viewBox="0 0 720 500" fill="none" xmlns="http://www.w3.org/2000/svg">
<rect width="720" height="500" fill="black"/>
<rect x="75.5333" y="62.5333" width="374.933" height="374.933" fill="white"/>
<path fill-rule="evenodd" clip-rule="evenodd" d="M73 250V440H263H453V250V60H263H73V250ZM139.5 200.125V224.667H154.225H168.95V230.208V235.75H147.575H126.2V205.667V175.583H132.85H139.5V200.125ZM234.5 186.395V197.207L236.086 195.621C239.098 192.609 243.106 191.107 248.117 191.112C253.199 191.118 256.535 192.484 260.005 195.979C263.601 199.602 265.482 203.921 266.177 210.151C267.887 225.472 260.091 237.017 248.037 237.017C241.908 237.017 236.649 234.749 234.451 231.158L233.869 230.208L233.868 232.979L233.867 235.75H228.167H222.467V205.667V175.583H228.483H234.5V186.395ZM284.217 205.667V235.75H278.2H272.183V205.667V175.583H278.2H284.217V205.667ZM202.042 192.154C209.047 194.432 213.909 199.595 215.87 206.838C216.762 210.135 216.842 217.393 216.023 220.708C214.114 228.43 208.517 234.202 200.933 236.269C198 237.068 190.19 237.074 187.317 236.278C183.446 235.206 180.735 233.636 177.96 230.859C175.053 227.949 173.443 225.189 172.373 221.278C171.409 217.755 171.402 210.384 172.36 206.888C174.121 200.464 177.944 195.82 183.68 193.138C187.15 191.516 189.605 191.097 194.917 191.222C198.814 191.313 199.892 191.455 202.042 192.154ZM318.929 191.585C324.156 192.485 328.052 194.919 329.728 198.332L330.608 200.125L330.789 216.117C330.944 229.88 331.043 232.329 331.498 233.692C331.789 234.562 332.028 235.382 332.03 235.512C332.032 235.643 329.332 235.75 326.032 235.75H320.03L319.7 234.562C319.519 233.91 319.37 233.054 319.369 232.662C319.366 231.728 319.192 231.76 317.842 232.945C313.018 237.18 302.285 238.333 296.233 235.266C291.676 232.957 289.17 227.994 289.763 222.452C290.383 216.66 293.669 213.159 300.013 211.53C301.125 211.244 304.575 210.67 307.679 210.255C314.197 209.381 315.39 209.103 316.86 208.112C318.173 207.228 318.723 206.202 318.729 204.627C318.739 201.962 317.046 199.952 314.294 199.362C308.777 198.178 304.374 200.064 303.455 204.004L303.067 205.667H297.081H291.095L291.276 203.906C291.376 202.937 291.886 201.231 292.409 200.114C294.509 195.626 298.746 192.743 304.958 191.574C308.072 190.988 315.5 190.994 318.929 191.585ZM345.666 193.396C345.863 194.136 347.65 200.75 349.637 208.094C351.624 215.438 353.266 221.566 353.285 221.711C353.304 221.856 354.983 215.277 357.016 207.092L360.714 192.208L366.561 192.123L372.408 192.037L376.003 206.407C377.981 214.31 379.699 220.939 379.822 221.138C379.945 221.337 381.831 214.909 384.013 206.854L387.981 192.208L394.243 192.122C399.207 192.054 400.475 192.12 400.354 192.439C400.271 192.661 397.161 202.496 393.445 214.296L386.688 235.75H380.431H374.174L373.862 234.562C370.994 223.651 366.483 206.761 366.419 206.697C366.373 206.651 364.794 212.706 362.911 220.153C361.027 227.599 359.358 234.155 359.203 234.721L358.92 235.75H352.602C349.127 235.75 346.283 235.675 346.283 235.584C346.283 235.493 343.286 225.981 339.622 214.447C335.958 202.912 332.879 193.155 332.779 192.762L332.598 192.05H338.953H345.309L345.666 193.396ZM191.666 200.292C186.468 201.601 183.523 206.578 183.521 214.058C183.518 222.744 187.474 227.912 194.125 227.912C199.58 227.912 203.092 224.637 204.277 218.445C205.8 210.483 203.307 203.058 198.4 200.947C196.567 200.158 193.414 199.852 191.666 200.292ZM241.717 200.393C236.877 201.753 234.05 206.797 234.059 214.058C234.07 222.602 238.091 228.024 244.344 227.93C248.646 227.865 251.772 225.259 253.383 220.392C254.072 218.312 254.228 217.234 254.256 214.375C254.303 209.42 253.262 205.84 250.971 203.074C249.027 200.729 244.842 199.516 241.717 200.393ZM317.406 215.338C316.938 215.593 315.156 216.023 313.448 216.294C307.915 217.172 305.871 217.702 304.385 218.644C302.554 219.805 301.827 221.15 301.813 223.403C301.798 225.77 302.612 227.131 304.647 228.143C306.856 229.241 311.128 229.251 313.6 228.165C315.839 227.18 317.549 225.203 318.216 222.829C318.743 220.951 318.958 214.838 318.496 214.863C318.365 214.87 317.875 215.084 317.406 215.338ZM195.867 250.792V256.333H189.85H183.833V250.792V245.25H189.85H195.867V250.792ZM267.117 250.792V256.333H261.258H255.4V250.792V245.25H261.258H267.117V250.792ZM159.925 246.623C169.041 249.288 174.709 256.609 176.391 267.892C177.73 276.877 176.458 286.078 172.87 293.361C171.309 296.531 170.747 297.32 168.356 299.713C165.263 302.808 162.619 304.372 158.595 305.484C156.257 306.13 155.309 306.173 140.846 306.291L125.567 306.415V276.133V245.851L141.796 245.96C156.125 246.055 158.247 246.133 159.925 246.623ZM360.217 276.125V306.367H354.358H348.5V276.125V245.883H354.358H360.217V276.125ZM289.989 255.621L290.075 261.875L293.637 261.965L297.2 262.054V266.16V270.267H293.558H289.917L289.919 282.537C289.92 290.042 290.048 295.268 290.249 295.992C290.684 297.56 291.416 297.89 294.562 297.936L297.199 297.975L297.199 302.284L297.2 306.594L293.42 306.815C287.026 307.189 282.599 306.243 280.472 304.049C278.543 302.059 278.517 301.803 278.517 285.268V270.267H275.35H272.183V266.161V262.056L275.271 261.966L278.358 261.875L278.444 255.621L278.53 249.367H284.217H289.903L289.989 255.621ZM137.917 275.967V295.6H144.984C152.873 295.6 154.359 295.353 157.017 293.598C162.032 290.288 164.758 281.645 163.892 271.799C163.226 264.229 161.182 259.769 157.523 257.903C154.92 256.575 153.038 256.333 145.292 256.333H137.917V275.967ZM225.38 260.801C228.644 261.484 231.405 263.398 233.781 266.625L234.48 267.575L234.49 264.488L234.5 261.4H240.216H245.933L245.824 285.704C245.704 312.47 245.778 311.426 243.682 315.737C241.921 319.357 237.884 322.255 232.6 323.693C229.571 324.517 218.448 324.508 215.5 323.68C212.119 322.729 209.495 321.279 207.397 319.201C205.409 317.232 204.349 315.162 203.904 312.38L203.702 311.117H210.048H216.394L217.055 312.483C218.093 314.627 219.659 315.345 223.626 315.496C227.706 315.653 229.587 315.097 231.521 313.162C233.386 311.297 233.91 309.471 234.105 304.152L234.261 299.878L232.978 301.502C231.476 303.401 230.456 304.177 227.945 305.331C226.38 306.05 225.569 306.194 222.458 306.307C216.309 306.53 212.749 305.224 208.844 301.311C206.278 298.739 204.614 295.863 203.615 292.275C202.794 289.33 202.613 280.888 203.297 277.508C204.751 270.329 208.415 264.815 213.413 262.286C216.717 260.615 221.597 260.01 225.38 260.801ZM328.579 261.346C334.163 262.823 337.323 265.084 338.738 268.613C339.452 270.394 339.467 270.691 339.635 286.1C339.755 297.147 339.915 302.027 340.18 302.629C340.386 303.099 340.918 303.721 341.361 304.012C341.916 304.375 342.167 304.824 342.167 305.453V306.367H335.844C328.669 306.367 329.022 306.503 328.677 303.608C328.381 301.123 328.376 301.121 326.413 302.878C324.28 304.785 320.243 306.871 317.819 307.319C310.196 308.725 303.176 305.586 300.992 299.795C299.557 295.989 299.854 290.777 301.706 287.287C304.189 282.606 308.559 280.538 318.575 279.304C323.814 278.659 325.858 278.074 327.052 276.881C327.916 276.016 327.981 275.798 327.849 274.209C327.671 272.06 326.833 271.073 324.632 270.419C322.721 269.852 318.807 269.807 317.051 270.334C315.329 270.85 313.784 272.463 313.247 274.305L312.809 275.808L307.221 275.895L301.633 275.981V274.932C301.633 270.684 304.785 265.312 308.6 263.059C310.066 262.192 313.311 261.119 315.525 260.769C318.506 260.296 325.839 260.62 328.579 261.346ZM195.867 283.883V306.367H189.85H183.833V283.883V261.4H189.85H195.867V283.883ZM267.117 283.883V306.367H261.258H255.4V283.883V261.4H261.258H267.117V283.883ZM222.134 270.997C217.558 272.287 215.32 275.964 214.965 282.775C214.64 289.01 216.624 293.714 220.408 295.68C221.246 296.115 222.496 296.387 224.095 296.483C226.196 296.608 226.746 296.522 228.261 295.828C229.221 295.389 230.584 294.434 231.29 293.707C235.315 289.56 235.422 278.427 231.481 273.823C229.366 271.352 225.27 270.114 222.134 270.997ZM326.333 285.371C325.724 285.639 323.292 286.262 320.931 286.756C316.133 287.759 315.266 288.036 313.905 289.006C311.577 290.663 311.096 295.07 312.999 297.307C314.997 299.656 320.333 299.588 324.117 297.165C326.848 295.416 327.917 292.774 327.917 287.773C327.917 286.156 327.81 284.845 327.679 284.859C327.548 284.873 326.943 285.104 326.333 285.371Z" fill="black"/>
<circle cx="567.5" cy="384" r="47.5" fill="#467E1B"/>
<g clip-path="url(#clip0_71_0)">
<path d="M568.765 406.45C567.31 408.425 565.044 409.639 562.594 409.759C560.144 409.881 557.771 408.894 556.13 407.071L541.419 390.745C539.081 388.152 539.288 384.155 541.881 381.817C544.477 379.479 548.471 379.688 550.809 382.282L561.217 393.833C561.372 394.005 561.595 394.097 561.826 394.086C562.057 394.075 562.268 393.959 562.406 393.775L583.799 364.759C585.87 361.949 589.827 361.351 592.639 363.423C595.449 365.494 596.046 369.452 593.974 372.261L568.765 406.45Z" fill="white"/>
</g>
<circle cx="567.5" cy="250" r="47.5" fill="#D57F07"/>
<g clip-path="url(#clip1_71_0)">
<path d="M595.299 224.578C594.83 224.109 594.273 223.873 593.629 223.873C592.986 223.873 592.43 224.109 591.96 224.578L587.136 229.366C584.489 226.867 581.458 224.931 578.044 223.558C574.63 222.185 571.116 221.499 567.504 221.499C560.7 221.499 554.763 223.558 549.691 227.678C544.619 231.797 541.28 237.171 539.672 243.801V244.061C539.672 244.383 539.789 244.661 540.024 244.896C540.259 245.131 540.537 245.248 540.859 245.248H548.244C548.788 245.248 549.159 244.964 549.357 244.395C550.396 241.921 551.051 240.474 551.324 240.053C553.055 237.233 555.356 235.019 558.226 233.411C561.096 231.803 564.189 230.998 567.504 230.998C572.477 230.998 576.794 232.693 580.455 236.083L575.333 241.203C574.865 241.673 574.629 242.23 574.629 242.874C574.629 243.517 574.865 244.074 575.333 244.544C575.804 245.014 576.361 245.249 577.004 245.249H593.629C594.273 245.249 594.83 245.014 595.299 244.544C595.769 244.074 596.004 243.517 596.004 242.874V226.248C596.004 225.605 595.77 225.049 595.299 224.578Z" fill="white"/>
<path d="M593.888 254.751H586.763C586.219 254.751 585.848 255.035 585.65 255.604C584.612 258.078 583.956 259.525 583.684 259.945C581.952 262.765 579.651 264.98 576.782 266.588C573.911 268.197 570.819 269 567.504 269C565.104 269 562.791 268.555 560.565 267.665C558.338 266.773 556.346 265.511 554.59 263.878L559.674 258.795C560.144 258.325 560.379 257.768 560.379 257.125C560.379 256.482 560.144 255.924 559.674 255.455C559.204 254.984 558.648 254.749 558.004 254.749H541.379C540.735 254.749 540.179 254.984 539.709 255.455C539.239 255.924 539.004 256.482 539.004 257.125V273.75C539.004 274.393 539.239 274.95 539.709 275.42C540.179 275.889 540.736 276.126 541.379 276.126C542.022 276.126 542.579 275.889 543.049 275.42L547.836 270.633C550.483 273.155 553.496 275.098 556.873 276.459C560.25 277.82 563.744 278.499 567.356 278.499C574.135 278.499 580.047 276.44 585.094 272.321C590.141 268.202 593.456 262.827 595.04 256.197C595.065 256.148 595.077 256.061 595.077 255.938C595.077 255.616 594.959 255.338 594.724 255.102C594.489 254.868 594.21 254.751 593.888 254.751Z" fill="white"/>
</g>
<circle cx="567.5" cy="116" r="47.5" fill="#E1251B"/>
<g clip-path="url(#clip2_71_0)">
<path d="M589.643 101.609L575.251 116.002L589.643 130.395C591.784 132.537 591.784 136.006 589.643 138.148C588.574 139.217 587.171 139.753 585.77 139.753C584.366 139.753 582.963 139.218 581.894 138.148L567.499 123.753L553.105 138.148C552.035 139.217 550.633 139.752 549.23 139.752C547.827 139.752 546.426 139.218 545.355 138.148C543.215 136.007 543.215 132.538 545.355 130.395L559.747 116.002L545.355 101.609C543.214 99.4679 543.214 95.998 545.355 93.8572C547.495 91.7181 550.963 91.7181 553.104 93.8572L567.499 108.251L581.893 93.8572C584.034 91.7181 587.503 91.7181 589.643 93.8572C591.784 95.998 591.784 99.4679 589.643 101.609Z" fill="white"/>
</g>
<defs>
<clipPath id="clip0_71_0">
<rect width="55.4167" height="55.4167" fill="white" transform="translate(539.792 358.271)"/>
</clipPath>
<clipPath id="clip1_71_0">
<rect width="57" height="57" fill="white" transform="translate(539 221.5)"/>
</clipPath>
<clipPath id="clip2_71_0">
<rect width="47.5" height="47.5" fill="white" transform="translate(543.75 92.25)"/>
</clipPath>
</defs>
</svg>
