<svg width="720" height="500" viewBox="0 0 720 500" fill="none" xmlns="http://www.w3.org/2000/svg"><g clip-path="url(#clip0_1035_8101)"><path fill="#000" d="M0 0h720v500H0z"/><g clip-path="url(#clip1_1035_8101)"><g filter="url(#filter0_dd_1035_8101)"><rect x="118" y="235" width="484" height="687" rx="4" fill="#fff"/></g><path fill="#fff" d="M573 306h28v612h-28z"/><rect x="583" y="328" width="8" height="96" rx="4" fill="#CCC"/><path d="M582 320.5l5-5 5 5h-10z" fill="#CCC"/><path d="M154.5 358.04c.56-.8 1.276-1.2 2.148-1.2.872 0 1.584.4 2.136 1.2.56.792.84 1.768.84 2.928s-.28 2.14-.84 2.94c-.552.792-1.264 1.188-2.136 1.188-.88 0-1.596-.396-2.148-1.188-.552-.8-.828-1.78-.828-2.94s.276-2.136.828-2.928zm.852 5.04c.36.576.792.864 1.296.864s.932-.288 1.284-.864c.36-.584.54-1.288.54-2.112 0-.824-.18-1.524-.54-2.1-.352-.584-.78-.876-1.284-.876s-.936.292-1.296.876c-.352.576-.528 1.276-.528 2.1 0 .824.176 1.528.528 2.112zM164.177 359.36c.808 0 1.468.268 1.98.804.512.528.768 1.16.768 1.896 0 .896-.28 1.628-.84 2.196-.552.56-1.264.84-2.136.84-.88 0-1.596-.284-2.148-.852-.552-.568-.828-1.324-.828-2.268 0-.896.236-1.808.708-2.736.472-.936 1.176-1.704 2.112-2.304h2.04c-.056.016-.136.048-.24.096-.104.04-.3.14-.588.3-.288.152-.56.324-.816.516-.248.192-.52.456-.816.792-.288.328-.524.684-.708 1.068.416-.232.92-.348 1.512-.348zm-1.536 4.08c.344.336.78.504 1.308.504s.964-.168 1.308-.504c.344-.336.516-.748.516-1.236s-.168-.892-.504-1.212c-.328-.32-.768-.48-1.32-.48-.528 0-.964.164-1.308.492-.344.32-.516.72-.516 1.2 0 .488.172.9.516 1.236zM169.138 360.872c-.24 0-.444-.084-.612-.252-.168-.168-.252-.372-.252-.612 0-.248.084-.452.252-.612.168-.168.372-.252.612-.252.248 0 .452.084.612.252.168.16.252.364.252.612 0 .24-.084.444-.252.612-.16.168-.364.252-.612.252zm0 4.224c-.24 0-.444-.084-.612-.252-.168-.168-.252-.372-.252-.612s.084-.444.252-.612c.168-.168.372-.252.612-.252.248 0 .452.084.612.252.168.168.252.372.252.612s-.084.444-.252.612c-.16.168-.364.252-.612.252zM172.172 358.04c.56-.8 1.276-1.2 2.148-1.2.872 0 1.584.4 2.136 1.2.56.792.84 1.768.84 2.928s-.28 2.14-.84 2.94c-.552.792-1.264 1.188-2.136 1.188-.88 0-1.596-.396-2.148-1.188-.552-.8-.828-1.78-.828-2.94s.276-2.136.828-2.928zm.852 5.04c.36.576.792.864 1.296.864s.932-.288 1.284-.864c.36-.584.54-1.288.54-2.112 0-.824-.18-1.524-.54-2.1-.352-.584-.78-.876-1.284-.876s-.936.292-1.296.876c-.352.576-.528 1.276-.528 2.1 0 .824.176 1.528.528 2.112zM179.473 358.04c.56-.8 1.276-1.2 2.148-1.2.872 0 1.584.4 2.136 1.2.56.792.84 1.768.84 2.928s-.28 2.14-.84 2.94c-.552.792-1.264 1.188-2.136 1.188-.88 0-1.596-.396-2.148-1.188-.552-.8-.828-1.78-.828-2.94s.276-2.136.828-2.928zm.852 5.04c.36.576.792.864 1.296.864s.932-.288 1.284-.864c.36-.584.54-1.288.54-2.112 0-.824-.18-1.524-.54-2.1-.352-.584-.78-.876-1.284-.876s-.936.292-1.296.876c-.352.576-.528 1.276-.528 2.1 0 .824.176 1.528.528 2.112zM189.209 359.144c.832 0 1.52.288 2.064.864.544.576.816 1.28.816 2.112 0 .832-.272 1.536-.816 2.112-.544.576-1.232.864-2.064.864-.8 0-1.44-.312-1.92-.936v3.912h-1.152v-8.832h1.152v.84c.48-.624 1.12-.936 1.92-.936zm-1.392 4.272c.36.352.792.528 1.296.528s.932-.176 1.284-.528c.36-.36.54-.792.54-1.296s-.18-.932-.54-1.284c-.352-.36-.78-.54-1.284-.54s-.936.18-1.296.54c-.352.352-.528.78-.528 1.284s.176.936.528 1.296zM199.752 359.144c.64 0 1.14.228 1.5.684.36.456.54 1.108.54 1.956V365h-1.152v-3.216c0-.992-.368-1.488-1.104-1.488-.368 0-.692.14-.972.42-.28.28-.42.652-.42 1.116V365h-1.152v-3.216c0-.992-.368-1.488-1.104-1.488-.368 0-.692.14-.972.42-.28.28-.42.652-.42 1.116V365h-1.152v-5.76h1.152v.672c.144-.16.268-.284.372-.372.104-.096.264-.184.48-.264.224-.088.476-.132.756-.132.752 0 1.304.304 1.656.912.304-.328.608-.56.912-.696.312-.144.672-.216 1.08-.216zM210.053 360.02c.264-.264.584-.396.96-.396s.692.132.948.396c.264.256.396.572.396.948s-.132.696-.396.96c-.256.256-.572.384-.948.384s-.696-.128-.96-.384c-.256-.264-.384-.584-.384-.96s.128-.692.384-.948zM222.838 356.936c1.296 0 2.304.38 3.024 1.14.728.76 1.092 1.724 1.092 2.892 0 1.16-.368 2.124-1.104 2.892-.736.76-1.74 1.14-3.012 1.14h-2.412v-8.064h2.412zm.3 6.912c.776 0 1.412-.276 1.908-.828.504-.56.756-1.244.756-2.052s-.252-1.488-.756-2.04c-.496-.56-1.132-.84-1.908-.84h-1.56v5.76h1.56zM232.429 365.192l-2.568-4.968-.768 4.776h-1.176l1.368-8.256 3.144 6.096 3.144-6.096 1.368 8.256h-1.176l-.768-4.776-2.568 4.968zM238.286 357.608l2.496-.864V365h-1.152v-6.768l-1.344.432v-1.056zM242.512 356.936h5.76L244.816 365h-1.344l2.976-6.912h-3.936v-1.152zM249.039 356.936h5.76L251.343 365h-1.344l2.976-6.912h-3.936v-1.152zM255.567 356.936h5.76L257.871 365h-1.344l2.976-6.912h-3.936v-1.152zM266.13 356.552h1.152V365h-1.152v-8.448zM269.305 360.02c.584-.584 1.288-.876 2.112-.876.824 0 1.524.292 2.1.876.584.576.876 1.276.876 2.1 0 .824-.292 1.528-.876 2.112-.576.576-1.276.864-2.1.864-.824 0-1.528-.288-2.112-.864-.576-.584-.864-1.288-.864-2.112 0-.824.288-1.524.864-2.1zm.828 3.384c.36.36.788.54 1.284.54s.924-.18 1.284-.54c.36-.36.54-.788.54-1.284s-.18-.924-.54-1.284c-.36-.36-.788-.54-1.284-.54s-.924.18-1.284.54c-.36.36-.54.788-.54 1.284s.18.924.54 1.284zM280.155 359.24h1.152V365h-1.152v-.84c-.48.624-1.12.936-1.92.936-.832 0-1.52-.288-2.064-.864-.544-.576-.816-1.28-.816-2.112 0-.832.272-1.536.816-2.112.544-.576 1.232-.864 2.064-.864.8 0 1.44.312 1.92.936v-.84zm-3.12 4.176c.36.352.792.528 1.296.528s.932-.176 1.284-.528c.36-.36.54-.792.54-1.296s-.18-.932-.54-1.284c-.352-.36-.78-.54-1.284-.54s-.936.18-1.296.54c-.352.352-.528.78-.528 1.284s.176.936.528 1.296zM287.268 356.552h1.152V365h-1.152v-.84c-.48.624-1.12.936-1.92.936-.832 0-1.52-.288-2.064-.864-.544-.576-.816-1.28-.816-2.112 0-.832.272-1.536.816-2.112.544-.576 1.232-.864 2.064-.864.8 0 1.44.312 1.92.936v-3.528zm-3.12 6.864c.36.352.792.528 1.296.528s.932-.176 1.284-.528c.36-.36.54-.792.54-1.296s-.18-.932-.54-1.284c-.352-.36-.78-.54-1.284-.54s-.936.18-1.296.54c-.352.352-.528.78-.528 1.284s.176.936.528 1.296zM295.15 362.144c0 .176-.012.344-.036.504h-4.356c.088.432.3.756.636.972.344.216.756.324 1.236.324.624 0 1.208-.192 1.752-.576l.384 1.032c-.552.464-1.272.696-2.16.696-.968 0-1.716-.28-2.244-.84-.52-.568-.78-1.28-.78-2.136 0-.848.26-1.556.78-2.124.528-.568 1.224-.852 2.088-.852.784 0 1.428.272 1.932.816.512.544.768 1.272.768 2.184zm-4.392-.552h3.216c-.016-.328-.156-.624-.42-.888-.264-.272-.648-.408-1.152-.408-.488 0-.88.136-1.176.408-.296.272-.452.568-.468.888zM300.909 356.552h1.152V365h-1.152v-.84c-.48.624-1.12.936-1.92.936-.832 0-1.52-.288-2.064-.864-.544-.576-.816-1.28-.816-2.112 0-.832.272-1.536.816-2.112.544-.576 1.232-.864 2.064-.864.8 0 1.44.312 1.92.936v-3.528zm-3.12 6.864c.36.352.792.528 1.296.528s.932-.176 1.284-.528c.36-.36.54-.792.54-1.296s-.18-.932-.54-1.284c-.352-.36-.78-.54-1.284-.54s-.936.18-1.296.54c-.352.352-.528.78-.528 1.284s.176.936.528 1.296zM308.789 356.552v3.528c.48-.624 1.12-.936 1.92-.936.832 0 1.52.288 2.064.864.544.576.816 1.28.816 2.112 0 .832-.272 1.536-.816 2.112-.544.576-1.232.864-2.064.864-.8 0-1.44-.312-1.92-.936v.84h-1.152v-8.448h1.152zm.528 6.864c.36.352.792.528 1.296.528s.932-.176 1.284-.528c.36-.36.54-.792.54-1.296s-.18-.932-.54-1.284c-.352-.36-.78-.54-1.284-.54s-.936.18-1.296.54c-.352.352-.528.78-.528 1.284s.176.936.528 1.296zM318.744 359.24h1.284l-3.9 8.832h-1.26l1.536-3.444-2.328-5.388h1.284l1.692 3.984 1.692-3.984zM325.981 365h-1.152v-8.064h4.608v1.152h-3.456v2.304h2.88v1.152h-2.88V365zM339.998 356.936h1.248l-3.36 8.256-2.208-5.568-2.208 5.568-3.36-8.256h1.248l2.112 5.304 2.208-5.496 2.208 5.496 2.112-5.304zM342.301 357.608l2.497-.864V365h-1.153v-6.768l-1.344.432v-1.056zM346.527 356.936h5.76L348.831 365h-1.344l2.976-6.912h-3.936v-1.152zM357.663 360.74c.312.104.58.324.804.66.232.336.348.704.348 1.104 0 .688-.24 1.292-.72 1.812-.472.52-1.192.78-2.16.78-.856 0-1.536-.236-2.04-.708s-.784-1.1-.84-1.884l1.152-.192c.136 1.088.736 1.632 1.8 1.632.512 0 .916-.128 1.212-.384.296-.256.444-.576.444-.96 0-.456-.18-.76-.54-.912-.352-.16-.876-.24-1.572-.24v-1.152c.208 0 .408-.016.6-.048.192-.04.396-.096.612-.168.216-.08.388-.2.516-.36.128-.16.192-.352.192-.576 0-.296-.128-.56-.384-.792-.256-.24-.616-.36-1.08-.36-.56 0-.96.14-1.2.42-.232.28-.372.652-.42 1.116l-1.152-.192c.064-.728.344-1.324.84-1.788.504-.472 1.124-.708 1.86-.708.856 0 1.516.236 1.98.708.472.472.708.972.708 1.5 0 .752-.32 1.316-.96 1.692zM365.016 360.572c.728.416 1.092 1.064 1.092 1.944 0 .76-.288 1.38-.864 1.86-.576.48-1.28.72-2.112.72-.832 0-1.536-.24-2.112-.72-.576-.48-.864-1.1-.864-1.86 0-.864.36-1.512 1.08-1.944-.464-.328-.696-.82-.696-1.476 0-.64.248-1.176.744-1.608.504-.432 1.12-.648 1.848-.648.72 0 1.332.216 1.836.648.504.432.756.968.756 1.608 0 .64-.236 1.132-.708 1.476zm-.864-2.268c-.28-.208-.62-.312-1.02-.312s-.74.104-1.02.312c-.28.208-.42.456-.42.744s.14.536.42.744c.28.208.62.312 1.02.312s.74-.104 1.02-.312c.28-.208.42-.456.42-.744s-.14-.536-.42-.744zm-2.316 5.244c.36.264.792.396 1.296.396s.932-.132 1.284-.396c.36-.272.54-.604.54-.996s-.18-.72-.54-.984c-.352-.272-.78-.408-1.284-.408s-.936.136-1.296.408c-.352.264-.528.592-.528.984s.176.724.528.996z" fill="#666B73"/><path d="M156.648 332.936c1.016 0 1.78.244 2.292.732.52.488.78 1.14.78 1.956 0 .728-.244 1.36-.732 1.896-.488.528-1.14.792-1.956.792h-1.728V341h-1.536v-8.064h2.88zm.192 3.84c.376 0 .692-.108.948-.324.264-.216.396-.492.396-.828 0-.368-.128-.652-.384-.852-.248-.2-.568-.3-.96-.3h-1.536v2.304h1.536zM162.406 336.308c.192-.44.512-.78.96-1.02.448-.248.96-.392 1.536-.432v1.812c-.4-.104-.784-.104-1.152 0-.368.104-.684.316-.948.636-.264.312-.396.712-.396 1.2V341h-1.536v-5.952h1.536v1.26zM171.43 338.024c0 .112-.008.272-.024.48h-4.332c.112.408.316.736.612.984.304.24.688.36 1.152.36.664 0 1.256-.184 1.776-.552l.444 1.332c-.064.04-.156.092-.276.156-.112.064-.364.148-.756.252-.384.104-.788.156-1.212.156-1.104 0-1.936-.296-2.496-.888-.56-.592-.84-1.352-.84-2.28 0-.928.264-1.688.792-2.28.528-.592 1.288-.888 2.28-.888.928 0 1.64.28 2.136.84.496.552.744 1.328.744 2.328zm-4.32-.672h2.688c0-.288-.12-.552-.36-.792-.232-.24-.56-.36-.984-.36-.36 0-.676.128-.948.384-.264.248-.396.504-.396.768zM175.181 337.208c.92.144 1.548.38 1.884.708.336.328.504.716.504 1.164 0 .624-.236 1.132-.708 1.524-.464.392-1.1.588-1.908.588-.624 0-1.188-.096-1.692-.288-.496-.192-.852-.384-1.068-.576l.504-1.44c.256.24.58.44.972.6.4.152.78.232 1.14.24.816.016 1.224-.156 1.224-.516 0-.128-.076-.224-.228-.288-.144-.064-.42-.132-.828-.204-.536-.088-.984-.196-1.344-.324-.352-.136-.616-.292-.792-.468-.176-.184-.296-.372-.36-.564-.064-.192-.096-.42-.096-.684 0-.496.244-.924.732-1.284s1.112-.54 1.872-.54c.8 0 1.572.192 2.316.576l-.432 1.392c-.168-.12-.432-.232-.792-.336-.36-.104-.724-.16-1.092-.168-.712-.016-1.068.104-1.068.36 0 .2.24.344.72.432.072.016.188.036.348.06l.192.036zM180.135 333.98c-.2.2-.448.3-.744.3s-.548-.1-.756-.3c-.2-.208-.3-.46-.3-.756s.1-.544.3-.744c.208-.208.46-.312.756-.312s.544.104.744.312c.208.2.312.448.312.744s-.104.548-.312.756zm-1.512 7.02v-5.952h1.536V341h-1.536zM184.192 334.856c.736 0 1.344.276 1.824.828v-3.132h1.536V341h-1.536v-.636c-.48.552-1.088.828-1.824.828-.824 0-1.528-.308-2.112-.924-.576-.624-.864-1.372-.864-2.244 0-.872.288-1.616.864-2.232.584-.624 1.288-.936 2.112-.936zm-.96 4.32c.32.32.704.48 1.152.48.448 0 .832-.16 1.152-.48.32-.32.48-.704.48-1.152 0-.448-.16-.832-.48-1.152-.32-.32-.704-.48-1.152-.48-.448 0-.832.16-1.152.48-.32.32-.48.704-.48 1.152 0 .448.16.832.48 1.152zM194.469 338.024c0 .112-.008.272-.024.48h-4.332c.112.408.316.736.612.984.304.24.688.36 1.152.36.664 0 1.256-.184 1.776-.552l.444 1.332c-.064.04-.156.092-.276.156-.112.064-.364.148-.756.252-.384.104-.788.156-1.212.156-1.104 0-1.936-.296-2.496-.888-.56-.592-.84-1.352-.84-2.28 0-.928.264-1.688.792-2.28.528-.592 1.288-.888 2.28-.888.928 0 1.64.28 2.136.84.496.552.744 1.328.744 2.328zm-4.32-.672h2.688c0-.288-.12-.552-.36-.792-.232-.24-.56-.36-.984-.36-.36 0-.676.128-.948.384-.264.248-.396.504-.396.768zM198.764 334.856c.696 0 1.24.228 1.632.684.4.456.6 1.124.6 2.004V341h-1.536v-3.264c0-.464-.092-.804-.276-1.02-.184-.216-.476-.324-.876-.324-.384 0-.704.128-.96.384s-.384.64-.384 1.152V341h-1.536v-5.952h1.536v.576c.432-.512 1.032-.768 1.8-.768zM202.632 339.308v-2.916h-.768v-1.344h.768v-2.112h1.536v2.112h1.152v1.344h-1.152v2.496c0 .424.096.688.288.792.2.104.488.096.864-.024V341c-.32.128-.696.192-1.128.192-.528 0-.92-.168-1.176-.504-.256-.344-.384-.804-.384-1.38zM206.282 335.432l.576-2.496h1.728l-1.344 2.496h-.96zM212.341 337.208c.92.144 1.548.38 1.884.708.336.328.504.716.504 1.164 0 .624-.236 1.132-.708 1.524-.464.392-1.1.588-1.908.588-.624 0-1.188-.096-1.692-.288-.496-.192-.852-.384-1.068-.576l.504-1.44c.256.24.58.44.972.6.4.152.78.232 1.14.24.816.016 1.224-.156 1.224-.516 0-.128-.076-.224-.228-.288-.144-.064-.42-.132-.828-.204-.536-.088-.984-.196-1.344-.324-.352-.136-.616-.292-.792-.468-.176-.184-.296-.372-.36-.564-.064-.192-.096-.42-.096-.684 0-.496.244-.924.732-1.284s1.112-.54 1.872-.54c.8 0 1.572.192 2.316.576l-.432 1.392c-.168-.12-.432-.232-.792-.336-.36-.104-.724-.16-1.092-.168-.712-.016-1.068.104-1.068.36 0 .2.24.344.72.432.072.016.188.036.348.06l.192.036zM223.458 339.656c.8 0 1.468-.276 2.004-.828l.588 1.392c-.336.304-.74.544-1.212.72-.472.168-.94.252-1.404.252-1.184 0-2.196-.412-3.036-1.236-.84-.832-1.26-1.828-1.26-2.988s.42-2.152 1.26-2.976c.84-.832 1.852-1.248 3.036-1.248.464 0 .932.084 1.404.252.472.168.876.404 1.212.708l-.588 1.392c-.56-.544-1.228-.816-2.004-.816-.768 0-1.424.264-1.968.792-.544.52-.816 1.152-.816 1.896s.272 1.38.816 1.908c.544.52 1.2.78 1.968.78zM230.534 334.856c.696 0 1.24.228 1.632.684.4.456.6 1.124.6 2.004V341h-1.536v-3.264c0-.464-.092-.804-.276-1.02-.184-.216-.476-.324-.876-.324-.384 0-.704.128-.96.384s-.384.64-.384 1.152V341h-1.536v-8.448h1.536v3.072c.432-.512 1.032-.768 1.8-.768zM234.652 335.78c.616-.616 1.364-.924 2.244-.924.88 0 1.628.308 2.244.924.616.616.924 1.364.924 2.244 0 .88-.308 1.628-.924 2.244-.616.616-1.364.924-2.244.924-.88 0-1.628-.308-2.244-.924-.616-.616-.924-1.364-.924-2.244 0-.88.308-1.628.924-2.244zm1.092 3.396c.32.32.704.48 1.152.48.448 0 .832-.16 1.152-.48.32-.32.48-.704.48-1.152 0-.448-.16-.832-.48-1.152-.32-.32-.704-.48-1.152-.48-.448 0-.832.16-1.152.48-.32.32-.48.704-.48 1.152 0 .448.16.832.48 1.152zM242.538 333.98c-.2.2-.448.3-.744.3s-.548-.1-.756-.3c-.2-.208-.3-.46-.3-.756s.1-.544.3-.744c.208-.208.46-.312.756-.312s.544.104.744.312c.208.2.312.448.312.744s-.104.548-.312.756zm-1.512 7.02v-5.952h1.536V341h-1.536zM246.885 339.656c.56 0 1.02-.18 1.38-.54l.636 1.368c-.488.472-1.176.708-2.064.708-1.016 0-1.824-.3-2.424-.9-.592-.608-.888-1.364-.888-2.268 0-.904.3-1.656.9-2.256.6-.608 1.404-.912 2.412-.912.848 0 1.536.236 2.064.708l-.636 1.38c-.368-.368-.828-.552-1.38-.552-.552 0-.996.156-1.332.468-.328.312-.492.7-.492 1.164 0 .464.164.852.492 1.164.336.312.78.468 1.332.468zM255.43 338.024c0 .112-.008.272-.024.48h-4.332c.112.408.316.736.612.984.304.24.688.36 1.152.36.664 0 1.256-.184 1.776-.552l.444 1.332c-.064.04-.156.092-.276.156-.112.064-.364.148-.756.252-.384.104-.788.156-1.212.156-1.104 0-1.936-.296-2.496-.888-.56-.592-.84-1.352-.84-2.28 0-.928.264-1.688.792-2.28.528-.592 1.288-.888 2.28-.888.928 0 1.64.28 2.136.84.496.552.744 1.328.744 2.328zm-4.32-.672h2.688c0-.288-.12-.552-.36-.792-.232-.24-.56-.36-.984-.36-.36 0-.676.128-.948.384-.264.248-.396.504-.396.768zM261.073 333.98c.824-.824 1.82-1.236 2.988-1.236s2.164.412 2.988 1.236c.824.824 1.236 1.82 1.236 2.988s-.412 2.164-1.236 2.988c-.824.824-1.82 1.236-2.988 1.236s-2.164-.412-2.988-1.236c-.824-.824-1.236-1.82-1.236-2.988s.412-2.164 1.236-2.988zm1.08 4.896c.528.52 1.164.78 1.908.78s1.376-.26 1.896-.78c.528-.528.792-1.164.792-1.908s-.264-1.376-.792-1.896c-.52-.528-1.152-.792-1.896-.792s-1.38.264-1.908.792c-.52.52-.78 1.152-.78 1.896s.26 1.38.78 1.908zM271.16 341l-2.496-5.952h1.728l1.344 3.648 1.344-3.648h1.728L272.312 341h-1.152zM280.953 338.024c0 .112-.008.272-.024.48h-4.332c.112.408.316.736.612.984.304.24.688.36 1.152.36.664 0 1.256-.184 1.776-.552l.444 1.332c-.064.04-.156.092-.276.156-.112.064-.364.148-.756.252-.384.104-.788.156-1.212.156-1.104 0-1.936-.296-2.496-.888-.56-.592-.84-1.352-.84-2.28 0-.928.264-1.688.792-2.28.528-.592 1.288-.888 2.28-.888.928 0 1.64.28 2.136.84.496.552.744 1.328.744 2.328zm-4.32-.672h2.688c0-.288-.12-.552-.36-.792-.232-.24-.56-.36-.984-.36-.36 0-.676.128-.948.384-.264.248-.396.504-.396.768zM285.249 334.856c.696 0 1.24.228 1.632.684.4.456.6 1.124.6 2.004V341h-1.536v-3.264c0-.464-.092-.804-.276-1.02-.184-.216-.476-.324-.876-.324-.384 0-.704.128-.96.384s-.384.64-.384 1.152V341h-1.536v-5.952h1.536v.576c.432-.512 1.032-.768 1.8-.768zM292.091 338.408h-3.456v-1.152h3.456v1.152zM299.576 341h-1.872l-1.812-2.688h-.924V341h-1.536v-8.064h2.88c1.016 0 1.78.244 2.292.732.52.488.78 1.14.78 1.956 0 .584-.164 1.116-.492 1.596-.328.472-.78.796-1.356.972l2.04 2.808zm-4.608-6.528v2.304h1.536c.376 0 .692-.108.948-.324.264-.216.396-.492.396-.828 0-.368-.128-.652-.384-.852-.248-.2-.568-.3-.96-.3h-1.536zM300.886 335.78c.616-.616 1.364-.924 2.244-.924.88 0 1.628.308 2.244.924.616.616.924 1.364.924 2.244 0 .88-.308 1.628-.924 2.244-.616.616-1.364.924-2.244.924-.88 0-1.628-.308-2.244-.924-.616-.616-.924-1.364-.924-2.244 0-.88.308-1.628.924-2.244zm1.092 3.396c.32.32.704.48 1.152.48.448 0 .832-.16 1.152-.48.32-.32.48-.704.48-1.152 0-.448-.16-.832-.48-1.152-.32-.32-.704-.48-1.152-.48-.448 0-.832.16-1.152.48-.32.32-.48.704-.48 1.152 0 .448.16.832.48 1.152zM311.864 335.048h1.536V341h-1.536v-.636c-.48.552-1.088.828-1.824.828-.824 0-1.528-.308-2.112-.924-.576-.624-.864-1.372-.864-2.244 0-.872.288-1.616.864-2.232.584-.624 1.288-.936 2.112-.936.736 0 1.344.276 1.824.828v-.636zm-2.784 4.128c.32.32.704.48 1.152.48.448 0 .832-.16 1.152-.48.32-.32.48-.704.48-1.152 0-.448-.16-.832-.48-1.152-.32-.32-.704-.48-1.152-.48-.448 0-.832.16-1.152.48-.32.32-.48.704-.48 1.152 0 .448.16.832.48 1.152zM317.446 337.208c.92.144 1.548.38 1.884.708.336.328.504.716.504 1.164 0 .624-.236 1.132-.708 1.524-.464.392-1.1.588-1.908.588-.624 0-1.188-.096-1.692-.288-.496-.192-.852-.384-1.068-.576l.504-1.44c.256.24.58.44.972.6.4.152.78.232 1.14.24.816.016 1.224-.156 1.224-.516 0-.128-.076-.224-.228-.288-.144-.064-.42-.132-.828-.204-.536-.088-.984-.196-1.344-.324-.352-.136-.616-.292-.792-.468-.176-.184-.296-.372-.36-.564-.064-.192-.096-.42-.096-.684 0-.496.244-.924.732-1.284s1.112-.54 1.872-.54c.8 0 1.572.192 2.316.576l-.432 1.392c-.168-.12-.432-.232-.792-.336-.36-.104-.724-.16-1.092-.168-.712-.016-1.068.104-1.068.36 0 .2.24.344.72.432.072.016.188.036.348.06l.192.036zM321.367 339.308v-2.916h-.768v-1.344h.768v-2.112h1.536v2.112h1.152v1.344h-1.152v2.496c0 .424.096.688.288.792.2.104.488.096.864-.024V341c-.32.128-.696.192-1.128.192-.528 0-.92-.168-1.176-.504-.256-.344-.384-.804-.384-1.38zM330.875 338.024c0 .112-.008.272-.024.48h-4.332c.112.408.316.736.612.984.304.24.688.36 1.152.36.664 0 1.256-.184 1.776-.552l.444 1.332c-.064.04-.156.092-.276.156-.112.064-.364.148-.756.252-.384.104-.788.156-1.212.156-1.104 0-1.936-.296-2.496-.888-.56-.592-.84-1.352-.84-2.28 0-.928.264-1.688.792-2.28.528-.592 1.288-.888 2.28-.888.928 0 1.64.28 2.136.84.496.552.744 1.328.744 2.328zm-4.32-.672h2.688c0-.288-.12-.552-.36-.792-.232-.24-.56-.36-.984-.36-.36 0-.676.128-.948.384-.264.248-.396.504-.396.768zM334.614 334.856c.736 0 1.344.276 1.824.828v-3.132h1.536V341h-1.536v-.636c-.48.552-1.088.828-1.824.828-.824 0-1.528-.308-2.112-.924-.576-.624-.864-1.372-.864-2.244 0-.872.288-1.616.864-2.232.584-.624 1.288-.936 2.112-.936zm-.96 4.32c.32.32.704.48 1.152.48.448 0 .832-.16 1.152-.48.32-.32.48-.704.48-1.152 0-.448-.16-.832-.48-1.152-.32-.32-.704-.48-1.152-.48-.448 0-.832.16-1.152.48-.32.32-.48.704-.48 1.152 0 .448.16.832.48 1.152zM347.091 339.656c.8 0 1.468-.276 2.004-.828l.588 1.392c-.336.304-.74.544-1.212.72-.472.168-.94.252-1.404.252-1.184 0-2.196-.412-3.036-1.236-.84-.832-1.26-1.828-1.26-2.988s.42-2.152 1.26-2.976c.84-.832 1.852-1.248 3.036-1.248.464 0 .932.084 1.404.252.472.168.876.404 1.212.708l-.588 1.392c-.56-.544-1.228-.816-2.004-.816-.768 0-1.424.264-1.968.792-.544.52-.816 1.152-.816 1.896s.272 1.38.816 1.908c.544.52 1.2.78 1.968.78zM354.167 334.856c.696 0 1.239.228 1.631.684.4.456.6 1.124.6 2.004V341h-1.535v-3.264c0-.464-.092-.804-.276-1.02-.184-.216-.477-.324-.877-.324-.384 0-.703.128-.959.384s-.384.64-.384 1.152V341h-1.537v-8.448h1.537v3.072c.432-.512 1.032-.768 1.8-.768zM359.163 333.98c-.2.2-.448.3-.744.3s-.548-.1-.756-.3c-.2-.208-.3-.46-.3-.756s.1-.544.3-.744c.208-.208.46-.312.756-.312s.544.104.744.312c.208.2.312.448.312.744s-.104.548-.312.756zm-1.512 7.02v-5.952h1.536V341h-1.536zM363.51 339.656c.56 0 1.02-.18 1.38-.54l.636 1.368c-.488.472-1.176.708-2.064.708-1.016 0-1.824-.3-2.424-.9-.592-.608-.888-1.364-.888-2.268 0-.904.3-1.656.9-2.256.6-.608 1.404-.912 2.412-.912.848 0 1.536.236 2.064.708l-.636 1.38c-.368-.368-.828-.552-1.38-.552-.552 0-.996.156-1.332.468-.328.312-.492.7-.492 1.164 0 .464.164.852.492 1.164.336.312.78.468 1.332.468zM369.554 337.928l3.072 3.072h-1.92l-2.496-2.352V341h-1.536v-8.448h1.536v4.752l2.304-2.256h1.92l-2.88 2.88zM378.664 338.024c0 .112-.008.272-.024.48h-4.332c.112.408.316.736.612.984.304.24.688.36 1.152.36.664 0 1.256-.184 1.776-.552l.444 1.332c-.064.04-.156.092-.276.156-.112.064-.364.148-.756.252-.384.104-.788.156-1.212.156-1.104 0-1.936-.296-2.496-.888-.56-.592-.84-1.352-.84-2.28 0-.928.264-1.688.792-2.28.528-.592 1.288-.888 2.28-.888.928 0 1.64.28 2.136.84.496.552.744 1.328.744 2.328zm-4.32-.672h2.688c0-.288-.12-.552-.36-.792-.232-.24-.56-.36-.984-.36-.36 0-.676.128-.948.384-.264.248-.396.504-.396.768zM382.959 334.856c.696 0 1.24.228 1.632.684.4.456.6 1.124.6 2.004V341h-1.536v-3.264c0-.464-.092-.804-.276-1.02-.184-.216-.476-.324-.876-.324-.384 0-.704.128-.96.384s-.384.64-.384 1.152V341h-1.536v-5.952h1.536v.576c.432-.512 1.032-.768 1.8-.768zM395.162 336.668c.464.12.804.352 1.02.696.224.344.336.748.336 1.212 0 .712-.248 1.296-.744 1.752-.496.448-1.168.672-2.016.672h-3.576v-8.064h2.88c.968 0 1.72.172 2.256.516.544.344.816.876.816 1.596 0 .384-.092.72-.276 1.008-.176.28-.408.484-.696.612zm-3.444-2.196v1.536h1.44c.96 0 1.44-.256 1.44-.768 0-.296-.116-.496-.348-.6-.232-.112-.596-.168-1.092-.168h-1.44zm1.632 4.992c1.088 0 1.632-.352 1.632-1.056 0-.352-.144-.616-.432-.792-.288-.176-.688-.264-1.2-.264h-1.632v2.112h1.632zM399.206 336.308c.192-.44.512-.78.96-1.02.448-.248.96-.392 1.536-.432v1.812c-.4-.104-.784-.104-1.152 0-.368.104-.684.316-.948.636-.264.312-.396.712-.396 1.2V341h-1.536v-5.952h1.536v1.26zM408.231 338.024c0 .112-.008.272-.024.48h-4.332c.112.408.316.736.612.984.304.24.688.36 1.152.36.664 0 1.256-.184 1.776-.552l.444 1.332c-.064.04-.156.092-.276.156-.112.064-.364.148-.756.252-.384.104-.788.156-1.212.156-1.104 0-1.936-.296-2.496-.888-.56-.592-.84-1.352-.84-2.28 0-.928.264-1.688.792-2.28.528-.592 1.288-.888 2.28-.888.928 0 1.64.28 2.136.84.496.552.744 1.328.744 2.328zm-4.32-.672h2.688c0-.288-.12-.552-.36-.792-.232-.24-.56-.36-.984-.36-.36 0-.676.128-.948.384-.264.248-.396.504-.396.768zM413.793 335.048h1.536V341h-1.536v-.636c-.48.552-1.088.828-1.824.828-.824 0-1.528-.308-2.112-.924-.576-.624-.864-1.372-.864-2.244 0-.872.288-1.616.864-2.232.584-.624 1.288-.936 2.112-.936.736 0 1.344.276 1.824.828v-.636zm-2.784 4.128c.32.32.704.48 1.152.48.448 0 .832-.16 1.152-.48.32-.32.48-.704.48-1.152 0-.448-.16-.832-.48-1.152-.32-.32-.704-.48-1.152-.48-.448 0-.832.16-1.152.48-.32.32-.48.704-.48 1.152 0 .448.16.832.48 1.152zM419.376 337.208c.92.144 1.548.38 1.884.708.336.328.504.716.504 1.164 0 .624-.236 1.132-.708 1.524-.464.392-1.1.588-1.908.588-.624 0-1.188-.096-1.692-.288-.496-.192-.852-.384-1.068-.576l.504-1.44c.256.24.58.44.972.6.4.152.78.232 1.14.24.816.016 1.224-.156 1.224-.516 0-.128-.076-.224-.228-.288-.144-.064-.42-.132-.828-.204-.536-.088-.984-.196-1.344-.324-.352-.136-.616-.292-.792-.468-.176-.184-.296-.372-.36-.564-.064-.192-.096-.42-.096-.684 0-.496.244-.924.732-1.284s1.112-.54 1.872-.54c.8 0 1.572.192 2.316.576l-.432 1.392c-.168-.12-.432-.232-.792-.336-.36-.104-.724-.16-1.092-.168-.712-.016-1.068.104-1.068.36 0 .2.24.344.72.432.072.016.188.036.348.06l.192.036zM423.297 339.308v-2.916h-.768v-1.344h.768v-2.112h1.536v2.112h1.152v1.344h-1.152v2.496c0 .424.096.688.288.792.2.104.488.096.864-.024V341c-.32.128-.696.192-1.128.192-.528 0-.92-.168-1.176-.504-.256-.344-.384-.804-.384-1.38z" fill="#333"/><rect x="129" y="406" width="436" height="64" rx="4" fill="#EFEFEF"/><path d="M129 410c0-2.209 1.791-4 4-4h4v64h-4c-2.209 0-4-1.791-4-4v-56z" fill="#00817F"/><path d="M154.5 446.04c.56-.8 1.276-1.2 2.148-1.2.872 0 1.584.4 2.136 1.2.56.792.84 1.768.84 2.928s-.28 2.14-.84 2.94c-.552.792-1.264 1.188-2.136 1.188-.88 0-1.596-.396-2.148-1.188-.552-.8-.828-1.78-.828-2.94s.276-2.136.828-2.928zm.852 5.04c.36.576.792.864 1.296.864s.932-.288 1.284-.864c.36-.584.54-1.288.54-2.112 0-.824-.18-1.524-.54-2.1-.352-.584-.78-.876-1.284-.876s-.936.292-1.296.876c-.352.576-.528 1.276-.528 2.1 0 .824.176 1.528.528 2.112zM164.177 447.36c.808 0 1.468.268 1.98.804.512.528.768 1.16.768 1.896 0 .896-.28 1.628-.84 2.196-.552.56-1.264.84-2.136.84-.88 0-1.596-.284-2.148-.852-.552-.568-.828-1.324-.828-2.268 0-.896.236-1.808.708-2.736.472-.936 1.176-1.704 2.112-2.304h2.04c-.056.016-.136.048-.24.096-.104.04-.3.14-.588.3-.288.152-.56.324-.816.516-.248.192-.52.456-.816.792-.288.328-.524.684-.708 1.068.416-.232.92-.348 1.512-.348zm-1.536 4.08c.344.336.78.504 1.308.504s.964-.168 1.308-.504c.344-.336.516-.748.516-1.236s-.168-.892-.504-1.212c-.328-.32-.768-.48-1.32-.48-.528 0-.964.164-1.308.492-.344.32-.516.72-.516 1.2 0 .488.172.9.516 1.236zM169.138 448.872c-.24 0-.444-.084-.612-.252-.168-.168-.252-.372-.252-.612 0-.248.084-.452.252-.612.168-.168.372-.252.612-.252.248 0 .452.084.612.252.168.16.252.364.252.612 0 .24-.084.444-.252.612-.16.168-.364.252-.612.252zm0 4.224c-.24 0-.444-.084-.612-.252-.168-.168-.252-.372-.252-.612s.084-.444.252-.612c.168-.168.372-.252.612-.252.248 0 .452.084.612.252.168.168.252.372.252.612s-.084.444-.252.612c-.16.168-.364.252-.612.252zM172.172 446.04c.56-.8 1.276-1.2 2.148-1.2.872 0 1.584.4 2.136 1.2.56.792.84 1.768.84 2.928s-.28 2.14-.84 2.94c-.552.792-1.264 1.188-2.136 1.188-.88 0-1.596-.396-2.148-1.188-.552-.8-.828-1.78-.828-2.94s.276-2.136.828-2.928zm.852 5.04c.36.576.792.864 1.296.864s.932-.288 1.284-.864c.36-.584.54-1.288.54-2.112 0-.824-.18-1.524-.54-2.1-.352-.584-.78-.876-1.284-.876s-.936.292-1.296.876c-.352.576-.528 1.276-.528 2.1 0 .824.176 1.528.528 2.112zM179.473 446.04c.56-.8 1.276-1.2 2.148-1.2.872 0 1.584.4 2.136 1.2.56.792.84 1.768.84 2.928s-.28 2.14-.84 2.94c-.552.792-1.264 1.188-2.136 1.188-.88 0-1.596-.396-2.148-1.188-.552-.8-.828-1.78-.828-2.94s.276-2.136.828-2.928zm.852 5.04c.36.576.792.864 1.296.864s.932-.288 1.284-.864c.36-.584.54-1.288.54-2.112 0-.824-.18-1.524-.54-2.1-.352-.584-.78-.876-1.284-.876s-.936.292-1.296.876c-.352.576-.528 1.276-.528 2.1 0 .824.176 1.528.528 2.112zM189.209 447.144c.832 0 1.52.288 2.064.864.544.576.816 1.28.816 2.112 0 .832-.272 1.536-.816 2.112-.544.576-1.232.864-2.064.864-.8 0-1.44-.312-1.92-.936v3.912h-1.152v-8.832h1.152v.84c.48-.624 1.12-.936 1.92-.936zm-1.392 4.272c.36.352.792.528 1.296.528s.932-.176 1.284-.528c.36-.36.54-.792.54-1.296s-.18-.932-.54-1.284c-.352-.36-.78-.54-1.284-.54s-.936.18-1.296.54c-.352.352-.528.78-.528 1.284s.176.936.528 1.296zM199.752 447.144c.64 0 1.14.228 1.5.684.36.456.54 1.108.54 1.956V453h-1.152v-3.216c0-.992-.368-1.488-1.104-1.488-.368 0-.692.14-.972.42-.28.28-.42.652-.42 1.116V453h-1.152v-3.216c0-.992-.368-1.488-1.104-1.488-.368 0-.692.14-.972.42-.28.28-.42.652-.42 1.116V453h-1.152v-5.76h1.152v.672c.144-.16.268-.284.372-.372.104-.096.264-.184.48-.264.224-.088.476-.132.756-.132.752 0 1.304.304 1.656.912.304-.328.608-.56.912-.696.312-.144.672-.216 1.08-.216zM210.053 448.02c.264-.264.584-.396.96-.396s.692.132.948.396c.264.256.396.572.396.948s-.132.696-.396.96c-.256.256-.572.384-.948.384s-.696-.128-.96-.384c-.256-.264-.384-.584-.384-.96s.128-.692.384-.948zM222.838 444.936c1.296 0 2.304.38 3.024 1.14.728.76 1.092 1.724 1.092 2.892 0 1.16-.368 2.124-1.104 2.892-.736.76-1.74 1.14-3.012 1.14h-2.412v-8.064h2.412zm.3 6.912c.776 0 1.412-.276 1.908-.828.504-.56.756-1.244.756-2.052s-.252-1.488-.756-2.04c-.496-.56-1.132-.84-1.908-.84h-1.56v5.76h1.56zM232.429 453.192l-2.568-4.968-.768 4.776h-1.176l1.368-8.256 3.144 6.096 3.144-6.096 1.368 8.256h-1.176l-.768-4.776-2.568 4.968zM238.286 445.608l2.496-.864V453h-1.152v-6.768l-1.344.432v-1.056zM243.34 446.04c.56-.8 1.276-1.2 2.148-1.2.872 0 1.584.4 2.136 1.2.56.792.84 1.768.84 2.928s-.28 2.14-.84 2.94c-.552.792-1.264 1.188-2.136 1.188-.88 0-1.596-.396-2.148-1.188-.552-.8-.828-1.78-.828-2.94s.276-2.136.828-2.928zm.852 5.04c.36.576.792.864 1.296.864s.932-.288 1.284-.864c.36-.584.54-1.288.54-2.112 0-.824-.18-1.524-.54-2.1-.352-.584-.78-.876-1.284-.876s-.936.292-1.296.876c-.352.576-.528 1.276-.528 2.1 0 .824.176 1.528.528 2.112zM249.993 447.336c.048-.688.312-1.276.792-1.764.488-.488 1.124-.732 1.908-.732.776 0 1.416.244 1.92.732.512.48.768 1.1.768 1.86 0 .496-.144.968-.432 1.416-.28.44-.736.992-1.368 1.656l-1.26 1.344h3.444V453h-5.952l2.952-3.24c.336-.368.58-.644.732-.828.16-.184.32-.416.48-.696.168-.28.252-.524.252-.732 0-.456-.144-.82-.432-1.092-.28-.28-.648-.42-1.104-.42-.44 0-.796.148-1.068.444-.272.288-.424.652-.456 1.092l-1.176-.192zM261.973 448.572c.728.416 1.092 1.064 1.092 1.944 0 .76-.288 1.38-.864 1.86-.576.48-1.28.72-2.112.72-.832 0-1.536-.24-2.112-.72-.576-.48-.864-1.1-.864-1.86 0-.864.36-1.512 1.08-1.944-.464-.328-.696-.82-.696-1.476 0-.64.248-1.176.744-1.608.504-.432 1.12-.648 1.848-.648.72 0 1.332.216 1.836.648.504.432.756.968.756 1.608 0 .64-.236 1.132-.708 1.476zm-.864-2.268c-.28-.208-.62-.312-1.02-.312s-.74.104-1.02.312c-.28.208-.42.456-.42.744s.14.536.42.744c.28.208.62.312 1.02.312s.74-.104 1.02-.312c.28-.208.42-.456.42-.744s-.14-.536-.42-.744zm-2.316 5.244c.36.264.792.396 1.296.396s.932-.132 1.284-.396c.36-.272.54-.604.54-.996s-.18-.72-.54-.984c-.352-.272-.78-.408-1.284-.408s-.936.136-1.296.408c-.352.264-.528.592-.528.984s.176.724.528.996zM268.45 444.552h1.152V453h-1.152v-8.448zM271.625 448.02c.584-.584 1.288-.876 2.112-.876.824 0 1.524.292 2.1.876.584.576.876 1.276.876 2.1 0 .824-.292 1.528-.876 2.112-.576.576-1.276.864-2.1.864-.824 0-1.528-.288-2.112-.864-.576-.584-.864-1.288-.864-2.112 0-.824.288-1.524.864-2.1zm.828 3.384c.36.36.788.54 1.284.54s.924-.18 1.284-.54c.36-.36.54-.788.54-1.284s-.18-.924-.54-1.284c-.36-.36-.788-.54-1.284-.54s-.924.18-1.284.54c-.36.36-.54.788-.54 1.284s.18.924.54 1.284zM282.475 447.24h1.152V453h-1.152v-.84c-.48.624-1.12.936-1.92.936-.832 0-1.52-.288-2.064-.864-.544-.576-.816-1.28-.816-2.112 0-.832.272-1.536.816-2.112.544-.576 1.232-.864 2.064-.864.8 0 1.44.312 1.92.936v-.84zm-3.12 4.176c.36.352.792.528 1.296.528s.932-.176 1.284-.528c.36-.36.54-.792.54-1.296s-.18-.932-.54-1.284c-.352-.36-.78-.54-1.284-.54s-.936.18-1.296.54c-.352.352-.528.78-.528 1.284s.176.936.528 1.296zM289.589 444.552h1.152V453h-1.152v-.84c-.48.624-1.12.936-1.92.936-.832 0-1.52-.288-2.064-.864-.544-.576-.816-1.28-.816-2.112 0-.832.272-1.536.816-2.112.544-.576 1.232-.864 2.064-.864.8 0 1.44.312 1.92.936v-3.528zm-3.12 6.864c.36.352.792.528 1.296.528s.932-.176 1.284-.528c.36-.36.54-.792.54-1.296s-.18-.932-.54-1.284c-.352-.36-.78-.54-1.284-.54s-.936.18-1.296.54c-.352.352-.528.78-.528 1.284s.176.936.528 1.296zM297.47 450.144c0 .176-.012.344-.036.504h-4.356c.088.432.3.756.636.972.344.216.756.324 1.236.324.624 0 1.208-.192 1.752-.576l.384 1.032c-.552.464-1.272.696-2.16.696-.968 0-1.716-.28-2.244-.84-.52-.568-.78-1.28-.78-2.136 0-.848.26-1.556.78-2.124.528-.568 1.224-.852 2.088-.852.784 0 1.428.272 1.932.816.512.544.768 1.272.768 2.184zm-4.392-.552h3.216c-.016-.328-.156-.624-.42-.888-.264-.272-.648-.408-1.152-.408-.488 0-.88.136-1.176.408-.296.272-.452.568-.468.888zM303.229 444.552h1.152V453h-1.152v-.84c-.48.624-1.12.936-1.92.936-.832 0-1.52-.288-2.064-.864-.544-.576-.816-1.28-.816-2.112 0-.832.272-1.536.816-2.112.544-.576 1.232-.864 2.064-.864.8 0 1.44.312 1.92.936v-3.528zm-3.12 6.864c.36.352.792.528 1.296.528s.932-.176 1.284-.528c.36-.36.54-.792.54-1.296s-.18-.932-.54-1.284c-.352-.36-.78-.54-1.284-.54s-.936.18-1.296.54c-.352.352-.528.78-.528 1.284s.176.936.528 1.296zM311.11 444.552v3.528c.48-.624 1.12-.936 1.92-.936.832 0 1.52.288 2.064.864.544.576.816 1.28.816 2.112 0 .832-.272 1.536-.816 2.112-.544.576-1.232.864-2.064.864-.8 0-1.44-.312-1.92-.936v.84h-1.152v-8.448h1.152zm.528 6.864c.36.352.792.528 1.296.528s.932-.176 1.284-.528c.36-.36.54-.792.54-1.296s-.18-.932-.54-1.284c-.352-.36-.78-.54-1.284-.54s-.936.18-1.296.54c-.352.352-.528.78-.528 1.284s.176.936.528 1.296zM321.065 447.24h1.284l-3.9 8.832h-1.26l1.536-3.444-2.328-5.388h1.284l1.692 3.984 1.692-3.984zM328.301 453h-1.152v-8.064h4.608v1.152h-3.456v2.304h2.88v1.152h-2.88V453zM342.318 444.936h1.248l-3.36 8.256-2.208-5.568-2.208 5.568-3.36-8.256h1.248l2.112 5.304 2.208-5.496 2.208 5.496 2.112-5.304zM344.622 445.608l2.496-.864V453h-1.152v-6.768l-1.344.432v-1.056zM348.848 444.936h5.76L351.152 453h-1.344l2.976-6.912h-3.936v-1.152zM359.983 448.74c.312.104.58.324.804.66.232.336.348.704.348 1.104 0 .688-.24 1.292-.72 1.812-.472.52-1.192.78-2.16.78-.856 0-1.536-.236-2.04-.708s-.784-1.1-.84-1.884l1.152-.192c.136 1.088.736 1.632 1.8 1.632.512 0 .916-.128 1.212-.384.296-.256.444-.576.444-.96 0-.456-.18-.76-.54-.912-.352-.16-.876-.24-1.572-.24v-1.152c.208 0 .408-.016.6-.048.192-.04.396-.096.612-.168.216-.08.388-.2.516-.36.128-.16.192-.352.192-.576 0-.296-.128-.56-.384-.792-.256-.24-.616-.36-1.08-.36-.56 0-.96.14-1.2.42-.232.28-.372.652-.42 1.116l-1.152-.192c.064-.728.344-1.324.84-1.788.504-.472 1.124-.708 1.86-.708.856 0 1.516.236 1.98.708.472.472.708.972.708 1.5 0 .752-.32 1.316-.96 1.692zM367.337 448.572c.728.416 1.092 1.064 1.092 1.944 0 .76-.288 1.38-.864 1.86-.576.48-1.28.72-2.112.72-.832 0-1.536-.24-2.112-.72-.576-.48-.864-1.1-.864-1.86 0-.864.36-1.512 1.08-1.944-.464-.328-.696-.82-.696-1.476 0-.64.248-1.176.744-1.608.504-.432 1.12-.648 1.848-.648.72 0 1.332.216 1.836.648.504.432.756.968.756 1.608 0 .64-.236 1.132-.708 1.476zm-.864-2.268c-.28-.208-.62-.312-1.02-.312s-.74.104-1.02.312c-.28.208-.42.456-.42.744s.14.536.42.744c.28.208.62.312 1.02.312s.74-.104 1.02-.312c.28-.208.42-.456.42-.744s-.14-.536-.42-.744zm-2.316 5.244c.36.264.792.396 1.296.396s.932-.132 1.284-.396c.36-.272.54-.604.54-.996s-.18-.72-.54-.984c-.352-.272-.78-.408-1.284-.408s-.936.136-1.296.408c-.352.264-.528.592-.528.984s.176.724.528.996z" fill="#666B73"/><path d="M156.648 420.936c1.016 0 1.78.244 2.292.732.52.488.78 1.14.78 1.956 0 .728-.244 1.36-.732 1.896-.488.528-1.14.792-1.956.792h-1.728V429h-1.536v-8.064h2.88zm.192 3.84c.376 0 .692-.108.948-.324.264-.216.396-.492.396-.828 0-.368-.128-.652-.384-.852-.248-.2-.568-.3-.96-.3h-1.536v2.304h1.536zM164.712 427.656c.8 0 1.468-.276 2.004-.828l.588 1.392c-.336.304-.74.544-1.212.72-.472.168-.94.252-1.404.252-1.184 0-2.196-.412-3.036-1.236-.84-.832-1.26-1.828-1.26-2.988s.42-2.152 1.26-2.976c.84-.832 1.852-1.248 3.036-1.248.464 0 .932.084 1.404.252.472.168.876.404 1.212.708l-.588 1.392c-.56-.544-1.228-.816-2.004-.816-.768 0-1.424.264-1.968.792-.544.52-.816 1.152-.816 1.896s.272 1.38.816 1.908c.544.52 1.2.78 1.968.78zM178.24 429h-1.872l-1.812-2.688h-.924V429h-1.536v-8.064h2.88c1.016 0 1.78.244 2.292.732.52.488.78 1.14.78 1.956 0 .584-.164 1.116-.492 1.596-.328.472-.78.796-1.356.972l2.04 2.808zm-4.608-6.528v2.304h1.536c.376 0 .692-.108.948-.324.264-.216.396-.492.396-.828 0-.368-.128-.652-.384-.852-.248-.2-.568-.3-.96-.3h-1.536zM179.55 423.78c.616-.616 1.364-.924 2.244-.924.88 0 1.628.308 2.244.924.616.616.924 1.364.924 2.244 0 .88-.308 1.628-.924 2.244-.616.616-1.364.924-2.244.924-.88 0-1.628-.308-2.244-.924-.616-.616-.924-1.364-.924-2.244 0-.88.308-1.628.924-2.244zm1.092 3.396c.32.32.704.48 1.152.48.448 0 .832-.16 1.152-.48.32-.32.48-.704.48-1.152 0-.448-.16-.832-.48-1.152-.32-.32-.704-.48-1.152-.48-.448 0-.832.16-1.152.48-.32.32-.48.704-.48 1.152 0 .448.16.832.48 1.152zM185.924 420.552h1.536V429h-1.536v-8.448zM188.901 420.552h1.536V429h-1.536v-8.448zM197.352 426.024c0 .112-.008.272-.024.48h-4.332c.112.408.316.736.612.984.304.24.688.36 1.152.36.664 0 1.256-.184 1.776-.552l.444 1.332c-.064.04-.156.092-.276.156-.112.064-.364.148-.756.252-.384.104-.788.156-1.212.156-1.104 0-1.936-.296-2.496-.888-.56-.592-.84-1.352-.84-2.28 0-.928.264-1.688.792-2.28.528-.592 1.288-.888 2.28-.888.928 0 1.64.28 2.136.84.496.552.744 1.328.744 2.328zm-4.32-.672h2.688c0-.288-.12-.552-.36-.792-.232-.24-.56-.36-.984-.36-.36 0-.676.128-.948.384-.264.248-.396.504-.396.768zM201.09 422.856c.736 0 1.344.276 1.824.828v-3.132h1.536V429h-1.536v-.636c-.48.552-1.088.828-1.824.828-.824 0-1.528-.308-2.112-.924-.576-.624-.864-1.372-.864-2.244 0-.872.288-1.616.864-2.232.584-.624 1.288-.936 2.112-.936zm-.96 4.32c.32.32.704.48 1.152.48.448 0 .832-.16 1.152-.48.32-.32.48-.704.48-1.152 0-.448-.16-.832-.48-1.152-.32-.32-.704-.48-1.152-.48-.448 0-.832.16-1.152.48-.32.32-.48.704-.48 1.152 0 .448.16.832.48 1.152zM215.487 420.936l1.536 5.376 1.92-5.376h1.728l-2.88 8.064h-1.536l-1.44-4.992-1.44 4.992h-1.536l-2.88-8.064h1.728l1.92 5.376 1.536-5.376h1.344zM225.18 423.048h1.536V429h-1.536v-.636c-.48.552-1.088.828-1.824.828-.824 0-1.528-.308-2.112-.924-.576-.624-.864-1.372-.864-2.244 0-.872.288-1.616.864-2.232.584-.624 1.288-.936 2.112-.936.736 0 1.344.276 1.824.828v-.636zm-2.784 4.128c.32.32.704.48 1.152.48.448 0 .832-.16 1.152-.48.32-.32.48-.704.48-1.152 0-.448-.16-.832-.48-1.152-.32-.32-.704-.48-1.152-.48-.448 0-.832.16-1.152.48-.32.32-.48.704-.48 1.152 0 .448.16.832.48 1.152zM227.775 423.048h.768c.016-1.792.656-2.688 1.92-2.688.336 0 .656.064.96.192v1.344c-.192-.04-.36-.06-.504-.06-.136-.008-.252-.004-.348.012-.096.016-.176.056-.24.12s-.112.124-.144.18c-.032.048-.056.132-.072.252-.016.12-.028.22-.036.3v.348h1.344v1.344h-1.344V429h-1.536v-4.608h-.768v-1.344zM237.945 426.024c0 .112-.008.272-.024.48h-4.332c.112.408.316.736.612.984.304.24.688.36 1.152.36.664 0 1.256-.184 1.776-.552l.444 1.332c-.064.04-.156.092-.276.156-.112.064-.364.148-.756.252-.384.104-.788.156-1.212.156-1.104 0-1.936-.296-2.496-.888-.56-.592-.84-1.352-.84-2.28 0-.928.264-1.688.792-2.28.528-.592 1.288-.888 2.28-.888.928 0 1.64.28 2.136.84.496.552.744 1.328.744 2.328zm-4.32-.672h2.688c0-.288-.12-.552-.36-.792-.232-.24-.56-.36-.984-.36-.36 0-.676.128-.948.384-.264.248-.396.504-.396.768zM240.441 424.308c.192-.44.512-.78.96-1.02.448-.248.96-.392 1.536-.432v1.812c-.4-.104-.784-.104-1.152 0-.368.104-.684.316-.948.636-.264.312-.396.712-.396 1.2V429h-1.536v-5.952h1.536v1.26zM246.688 425.208c.92.144 1.548.38 1.884.708.336.328.504.716.504 1.164 0 .624-.236 1.132-.708 1.524-.464.392-1.1.588-1.908.588-.624 0-1.188-.096-1.692-.288-.496-.192-.852-.384-1.068-.576l.504-1.44c.256.24.58.44.972.6.4.152.78.232 1.14.24.816.016 1.224-.156 1.224-.516 0-.128-.076-.224-.228-.288-.144-.064-.42-.132-.828-.204-.536-.088-.984-.196-1.344-.324-.352-.136-.616-.292-.792-.468-.176-.184-.296-.372-.36-.564-.064-.192-.096-.42-.096-.684 0-.496.244-.924.732-1.284s1.112-.54 1.872-.54c.8 0 1.572.192 2.316.576l-.432 1.392c-.168-.12-.432-.232-.792-.336-.36-.104-.724-.16-1.092-.168-.712-.016-1.068.104-1.068.36 0 .2.24.344.72.432.072.016.188.036.348.06l.192.036zM249.841 430.344l.672-2.88h1.728l-1.44 2.88h-.96zM262.225 420.936h1.536V429h-1.536v-3.264h-3.456V429h-1.536v-8.064h1.536v3.264h3.456v-3.264zM269.711 423.048h1.536V429h-1.536v-.636c-.48.552-1.088.828-1.824.828-.824 0-1.528-.308-2.112-.924-.576-.624-.864-1.372-.864-2.244 0-.872.288-1.616.864-2.232.584-.624 1.288-.936 2.112-.936.736 0 1.344.276 1.824.828v-.636zm-2.784 4.128c.32.32.704.48 1.152.48.448 0 .832-.16 1.152-.48.32-.32.48-.704.48-1.152 0-.448-.16-.832-.48-1.152-.32-.32-.704-.48-1.152-.48-.448 0-.832.16-1.152.48-.32.32-.48.704-.48 1.152 0 .448.16.832.48 1.152zM277.204 429h-4.992l2.592-4.416h-2.4v-1.536h4.992l-2.592 4.416h2.4V429zM284.117 426.024c0 .112-.008.272-.024.48h-4.332c.112.408.316.736.612.984.304.24.688.36 1.152.36.664 0 1.256-.184 1.776-.552l.444 1.332c-.064.04-.156.092-.276.156-.112.064-.364.148-.756.252-.384.104-.788.156-1.212.156-1.104 0-1.936-.296-2.496-.888-.56-.592-.84-1.352-.84-2.28 0-.928.264-1.688.792-2.28.528-.592 1.288-.888 2.28-.888.928 0 1.64.28 2.136.84.496.552.744 1.328.744 2.328zm-4.32-.672h2.688c0-.288-.12-.552-.36-.792-.232-.24-.56-.36-.984-.36-.36 0-.676.128-.948.384-.264.248-.396.504-.396.768zM285.077 420.552h1.536V429h-1.536v-8.448zM291.389 422.856c.696 0 1.24.228 1.632.684.4.456.6 1.124.6 2.004V429h-1.536v-3.264c0-.464-.092-.804-.276-1.02-.184-.216-.476-.324-.876-.324-.384 0-.704.128-.96.384s-.384.64-.384 1.152V429h-1.536v-5.952h1.536v.576c.432-.512 1.032-.768 1.8-.768zM296.913 429.192c-.696 0-1.244-.228-1.644-.684-.392-.456-.588-1.124-.588-2.004v-3.456h1.536v3.264c0 .464.092.804.276 1.02.192.216.484.324.876.324.384 0 .704-.128.96-.384s.384-.64.384-1.152v-3.072h1.536V429h-1.536v-.576c-.432.512-1.032.768-1.8.768zM302.172 427.308v-2.916h-.768v-1.344h.768v-2.112h1.536v2.112h1.152v1.344h-1.152v2.496c0 .424.096.688.288.792.2.104.488.096.864-.024V429c-.32.128-.696.192-1.128.192-.528 0-.92-.168-1.176-.504-.256-.344-.384-.804-.384-1.38zM312.73 420.36c-1.024 1.552-1.536 3.216-1.536 4.992 0 1.776.512 3.44 1.536 4.992l-1.536.576c-1.024-1.856-1.536-3.712-1.536-5.568 0-1.856.512-3.712 1.536-5.568l1.536.576zM319.257 425.928h.96v1.536h-.96V429h-1.536v-1.536h-4.032v-1.344l3.648-5.184h1.92v4.992zm-1.536 0v-3.168l-2.148 3.168h2.148zM322.253 421.968c.592-.816 1.352-1.224 2.28-1.224.928 0 1.688.408 2.28 1.224.592.816.888 1.816.888 3s-.296 2.184-.888 3c-.592.816-1.352 1.224-2.28 1.224-.936 0-1.7-.404-2.292-1.212-.584-.816-.876-1.82-.876-3.012 0-1.184.296-2.184.888-3zm1.128 4.908c.32.52.704.78 1.152.78.448 0 .832-.26 1.152-.78.32-.528.48-1.164.48-1.908s-.16-1.376-.48-1.896c-.32-.528-.704-.792-1.152-.792-.448 0-.832.264-1.152.792-.32.52-.48 1.152-.48 1.896s.16 1.38.48 1.908zM329.741 421.968c.592-.816 1.352-1.224 2.28-1.224.928 0 1.688.408 2.28 1.224.592.816.888 1.816.888 3s-.296 2.184-.888 3c-.592.816-1.352 1.224-2.28 1.224-.936 0-1.7-.404-2.292-1.212-.584-.816-.876-1.82-.876-3.012 0-1.184.296-2.184.888-3zm1.128 4.908c.32.52.704.78 1.152.78.448 0 .832-.26 1.152-.78.32-.528.48-1.164.48-1.908s-.16-1.376-.48-1.896c-.32-.528-.704-.792-1.152-.792-.448 0-.832.264-1.152.792-.32.52-.48 1.152-.48 1.896s.16 1.38.48 1.908zM340.95 423.048h1.536v5.376c0 1.248-.284 2.2-.852 2.856-.56.656-1.364.984-2.412.984-.376 0-.744-.044-1.104-.132-.36-.08-.668-.188-.924-.324-.256-.128-.444-.232-.564-.312-.12-.072-.216-.136-.288-.192l.72-1.356c.224.192.528.368.912.528.384.168.8.252 1.248.252.52 0 .936-.176 1.248-.528.32-.344.48-.784.48-1.32v-.516c-.48.552-1.088.828-1.824.828-.824 0-1.528-.308-2.112-.924-.576-.624-.864-1.372-.864-2.244 0-.872.288-1.616.864-2.232.584-.624 1.288-.936 2.112-.936.736 0 1.344.276 1.824.828v-.636zm-2.784 4.128c.32.32.704.48 1.152.48.448 0 .832-.16 1.152-.48.32-.32.48-.704.48-1.152 0-.448-.16-.832-.48-1.152-.32-.32-.704-.48-1.152-.48-.448 0-.832.16-1.152.48-.32.32-.48.704-.48 1.152 0 .448.16.832.48 1.152zM343.638 420.36l1.536-.576c1.024 1.856 1.536 3.712 1.536 5.568 0 1.856-.512 3.712-1.536 5.568l-1.536-.576c1.024-1.552 1.536-3.216 1.536-4.992 0-1.776-.512-3.44-1.536-4.992z" fill="#333"/><rect x="137" y="254" width="446" height="38" rx="3" fill="#fff"/><rect x="136" y="253" width="448" height="40" rx="4" fill="#F3F5F6"/><path d="M167.5 275h-.79l-.28-.27c.98-1.14 1.57-2.62 1.57-4.23 0-3.59-2.91-6.5-6.5-6.5s-6.5 2.91-6.5 6.5 2.91 6.5 6.5 6.5c1.61 0 3.09-.59 4.23-1.57l.27.28v.79l5 4.99 1.49-1.49-4.99-5zm-6 0c-2.49 0-4.5-2.01-4.5-4.5s2.01-4.5 4.5-4.5 4.5 2.01 4.5 4.5-2.01 4.5-4.5 4.5z" fill="#333"/><path d="M186.352 278h-1.344v-9.408h5.376v1.344h-4.032v2.688h3.36v1.344h-3.36V278zM193.339 269.866c-.196.196-.434.294-.714.294-.28 0-.518-.098-.714-.294-.196-.196-.294-.434-.294-.714 0-.28.098-.518.294-.714.196-.196.434-.294.714-.294.28 0 .518.098.714.294.196.196.294.434.294.714 0 .28-.098.518-.294.714zM191.953 278v-6.72h1.344V278h-1.344zM198.651 271.168c.812 0 1.447.252 1.904.756.467.504.7 1.241.7 2.212V278h-1.344v-3.752c0-.569-.116-.999-.35-1.288-.224-.299-.611-.448-1.162-.448-.448 0-.868.168-1.26.504-.392.327-.588.756-.588 1.288V278h-1.344v-6.72h1.344v.784c.523-.597 1.223-.896 2.1-.896zM208.193 268.144h1.344V278h-1.344v-.98c-.56.728-1.306 1.092-2.24 1.092-.97 0-1.773-.336-2.408-1.008-.634-.672-.952-1.493-.952-2.464 0-.971.318-1.792.952-2.464.635-.672 1.438-1.008 2.408-1.008.934 0 1.68.364 2.24 1.092v-4.116zm-3.64 8.008c.42.411.924.616 1.512.616s1.088-.205 1.498-.616c.42-.42.63-.924.63-1.512s-.21-1.087-.63-1.498c-.41-.42-.91-.63-1.498-.63s-1.092.21-1.512.63c-.41.411-.616.91-.616 1.498s.206 1.092.616 1.512zM221.195 271.28h1.344V278h-1.344v-.98c-.56.728-1.307 1.092-2.24 1.092-.971 0-1.773-.336-2.408-1.008-.635-.672-.952-1.493-.952-2.464 0-.971.317-1.792.952-2.464.635-.672 1.437-1.008 2.408-1.008.933 0 1.68.364 2.24 1.092v-.98zm-3.64 4.872c.42.411.924.616 1.512.616s1.087-.205 1.498-.616c.42-.42.63-.924.63-1.512s-.21-1.087-.63-1.498c-.411-.42-.91-.63-1.498-.63s-1.092.21-1.512.63c-.411.411-.616.91-.616 1.498s.205 1.092.616 1.512zM227.895 271.168c.812 0 1.447.252 1.904.756.467.504.7 1.241.7 2.212V278h-1.344v-3.752c0-.569-.116-.999-.35-1.288-.224-.299-.611-.448-1.162-.448-.448 0-.868.168-1.26.504-.392.327-.588.756-.588 1.288V278h-1.344v-6.72h1.344v.784c.523-.597 1.223-.896 2.1-.896zM238.156 269.866c-.196.196-.434.294-.714.294-.28 0-.518-.098-.714-.294-.196-.196-.294-.434-.294-.714 0-.28.098-.518.294-.714.196-.196.434-.294.714-.294.28 0 .518.098.714.294.196.196.294.434.294.714 0 .28-.098.518-.294.714zM236.77 278v-6.72h1.344V278h-1.344zM240.581 275.802v-3.178h-.896v-1.344h.896v-2.688h1.344v2.688h1.344v1.344h-1.344v2.8c0 .644.089 1.031.266 1.162.271.205.63.196 1.078-.028v1.358c-.271.131-.602.196-.994.196-1.129 0-1.694-.77-1.694-2.31zM250.993 274.668c0 .205-.014.401-.042.588h-5.082c.103.504.35.882.742 1.134.402.252.882.378 1.442.378.728 0 1.41-.224 2.044-.672l.448 1.204c-.644.541-1.484.812-2.52.812-1.129 0-2.002-.327-2.618-.98-.606-.663-.91-1.493-.91-2.492 0-.989.304-1.815.91-2.478.616-.663 1.428-.994 2.436-.994.915 0 1.666.317 2.254.952.598.635.896 1.484.896 2.548zm-5.124-.644h3.752c-.018-.383-.182-.728-.49-1.036-.308-.317-.756-.476-1.344-.476-.569 0-1.026.159-1.372.476-.345.317-.527.663-.546 1.036zM259.818 271.168c.747 0 1.33.266 1.75.798.42.532.63 1.293.63 2.282V278h-1.344v-3.752c0-1.157-.429-1.736-1.288-1.736-.429 0-.807.163-1.134.49-.327.327-.49.761-.49 1.302V278h-1.344v-3.752c0-1.157-.429-1.736-1.288-1.736-.429 0-.807.163-1.134.49-.327.327-.49.761-.49 1.302V278h-1.344v-6.72h1.344v.784c.168-.187.313-.331.434-.434.121-.112.308-.215.56-.308.261-.103.555-.154.882-.154.877 0 1.521.355 1.932 1.064.355-.383.709-.653 1.064-.812.364-.168.784-.252 1.26-.252zM269.819 268.144v4.116c.56-.728 1.306-1.092 2.24-1.092.97 0 1.773.336 2.408 1.008.634.672.952 1.493.952 2.464 0 .971-.318 1.792-.952 2.464-.635.672-1.438 1.008-2.408 1.008-.934 0-1.68-.364-2.24-1.092v.98h-1.344v-9.856h1.344zm.616 8.008c.42.411.924.616 1.512.616s1.087-.205 1.498-.616c.42-.42.63-.924.63-1.512s-.21-1.087-.63-1.498c-.411-.42-.91-.63-1.498-.63s-1.092.21-1.512.63c-.411.411-.616.91-.616 1.498s.205 1.092.616 1.512zM281.433 271.28h1.498l-4.55 10.304h-1.47l1.792-4.018-2.716-6.286h1.498l1.974 4.648 1.974-4.648zM291.975 271.168c.812 0 1.447.252 1.904.756.467.504.7 1.241.7 2.212V278h-1.344v-3.752c0-.569-.116-.999-.35-1.288-.224-.299-.611-.448-1.162-.448-.448 0-.868.168-1.26.504-.392.327-.588.756-.588 1.288V278h-1.344v-6.72h1.344v.784c.523-.597 1.223-.896 2.1-.896zM301.517 271.28h1.344V278h-1.344v-.98c-.56.728-1.306 1.092-2.24 1.092-.97 0-1.773-.336-2.408-1.008-.634-.672-.952-1.493-.952-2.464 0-.971.318-1.792.952-2.464.635-.672 1.438-1.008 2.408-1.008.934 0 1.68.364 2.24 1.092v-.98zm-3.64 4.872c.42.411.924.616 1.512.616s1.088-.205 1.498-.616c.42-.42.63-.924.63-1.512s-.21-1.087-.63-1.498c-.41-.42-.91-.63-1.498-.63s-1.092.21-1.512.63c-.41.411-.616.91-.616 1.498s.206 1.092.616 1.512zM312.25 271.168c.746 0 1.33.266 1.75.798.42.532.63 1.293.63 2.282V278h-1.344v-3.752c0-1.157-.43-1.736-1.288-1.736-.43 0-.808.163-1.134.49-.327.327-.49.761-.49 1.302V278h-1.344v-3.752c0-1.157-.43-1.736-1.288-1.736-.43 0-.808.163-1.134.49-.327.327-.49.761-.49 1.302V278h-1.344v-6.72h1.344v.784c.168-.187.312-.331.434-.434.121-.112.308-.215.56-.308.261-.103.555-.154.882-.154.877 0 1.521.355 1.932 1.064.354-.383.709-.653 1.064-.812.364-.168.784-.252 1.26-.252zM322.47 274.668c0 .205-.014.401-.042.588h-5.082c.103.504.35.882.742 1.134.401.252.882.378 1.442.378.728 0 1.409-.224 2.044-.672l.448 1.204c-.644.541-1.484.812-2.52.812-1.129 0-2.002-.327-2.618-.98-.607-.663-.91-1.493-.91-2.492 0-.989.303-1.815.91-2.478.616-.663 1.428-.994 2.436-.994.915 0 1.666.317 2.254.952.597.635.896 1.484.896 2.548zm-5.124-.644h3.752c-.019-.383-.182-.728-.49-1.036-.308-.317-.756-.476-1.344-.476-.569 0-1.027.159-1.372.476-.345.317-.527.663-.546 1.036zM329.082 272.19c.681-.681 1.502-1.022 2.464-1.022.961 0 1.778.341 2.45 1.022.681.672 1.022 1.489 1.022 2.45 0 .961-.341 1.783-1.022 2.464-.672.672-1.489 1.008-2.45 1.008-.962 0-1.783-.336-2.464-1.008-.672-.681-1.008-1.503-1.008-2.464 0-.961.336-1.778 1.008-2.45zm.966 3.948c.42.42.919.63 1.498.63.578 0 1.078-.21 1.498-.63.42-.42.63-.919.63-1.498s-.21-1.078-.63-1.498c-.42-.42-.92-.63-1.498-.63-.579 0-1.078.21-1.498.63-.42.42-.63.919-.63 1.498s.21 1.078.63 1.498zM337.713 272.722c.234-.485.584-.863 1.05-1.134.467-.28 1.013-.42 1.638-.42v1.47c-.392-.121-.802-.103-1.232.056-.97.373-1.456 1.143-1.456 2.31V278h-1.344v-6.72h1.344v1.442zM349.903 271.168c.812 0 1.447.252 1.904.756.467.504.7 1.241.7 2.212V278h-1.344v-3.752c0-.569-.116-.999-.35-1.288-.224-.299-.611-.448-1.162-.448-.448 0-.868.168-1.26.504-.392.327-.588.756-.588 1.288V278h-1.344v-6.72h1.344v.784c.523-.597 1.223-.896 2.1-.896zM356.564 278.112c-.812 0-1.452-.252-1.918-.756-.458-.504-.686-1.241-.686-2.212v-3.864h1.344v3.752c0 .569.112 1.003.336 1.302.233.289.625.434 1.176.434.448 0 .868-.163 1.26-.49.392-.336.588-.77.588-1.302v-3.696h1.344V278h-1.344v-.784c-.523.597-1.223.896-2.1.896zM369.384 271.168c.747 0 1.33.266 1.75.798.42.532.63 1.293.63 2.282V278h-1.344v-3.752c0-1.157-.429-1.736-1.288-1.736-.429 0-.807.163-1.134.49-.326.327-.49.761-.49 1.302V278h-1.344v-3.752c0-1.157-.429-1.736-1.288-1.736-.429 0-.807.163-1.134.49-.326.327-.49.761-.49 1.302V278h-1.344v-6.72h1.344v.784c.168-.187.313-.331.434-.434.122-.112.308-.215.56-.308.262-.103.556-.154.882-.154.878 0 1.522.355 1.932 1.064.355-.383.71-.653 1.064-.812.364-.168.784-.252 1.26-.252zM374.791 268.144v4.116c.56-.728 1.307-1.092 2.24-1.092.971 0 1.774.336 2.408 1.008.635.672.952 1.493.952 2.464 0 .971-.317 1.792-.952 2.464-.634.672-1.437 1.008-2.408 1.008-.933 0-1.68-.364-2.24-1.092v.98h-1.344v-9.856h1.344zm.616 8.008c.42.411.924.616 1.512.616s1.088-.205 1.498-.616c.42-.42.63-.924.63-1.512s-.21-1.087-.63-1.498c-.41-.42-.91-.63-1.498-.63s-1.092.21-1.512.63c-.41.411-.616.91-.616 1.498s.206 1.092.616 1.512zM388.013 274.668c0 .205-.014.401-.042.588h-5.082c.103.504.35.882.742 1.134.401.252.882.378 1.442.378.728 0 1.409-.224 2.044-.672l.448 1.204c-.644.541-1.484.812-2.52.812-1.129 0-2.002-.327-2.618-.98-.607-.663-.91-1.493-.91-2.492 0-.989.303-1.815.91-2.478.616-.663 1.428-.994 2.436-.994.915 0 1.666.317 2.254.952.597.635.896 1.484.896 2.548zm-5.124-.644h3.752c-.019-.383-.182-.728-.49-1.036-.308-.317-.756-.476-1.344-.476-.569 0-1.027.159-1.372.476-.345.317-.527.663-.546 1.036zM390.706 272.722c.233-.485.583-.863 1.05-1.134.466-.28 1.012-.42 1.638-.42v1.47c-.392-.121-.803-.103-1.232.056-.971.373-1.456 1.143-1.456 2.31V278h-1.344v-6.72h1.344v1.442z" fill="#666B73"/><path fill="#333" d="M184 265h1v17h-1z"/><rect x="137" y="254" width="446" height="38" rx="3" stroke="#F3F5F6" stroke-width="2"/></g><circle cx="549" cy="133" r="36" fill="#467E1B"/><g clip-path="url(#clip2_1035_8101)"><path d="M549.959 150.015c-1.103 1.497-2.82 2.416-4.677 2.508-1.857.092-3.655-.656-4.9-2.038l-11.149-12.373c-1.772-1.965-1.615-4.994.351-6.766 1.967-1.772 4.994-1.614 6.766.352l7.888 8.755c.117.13.287.199.461.191.176-.009.336-.096.441-.236l16.213-21.99c1.57-2.13 4.569-2.584 6.7-1.014 2.129 1.571 2.582 4.57 1.011 6.699l-19.105 25.912z" fill="#fff"/></g><circle cx="423" cy="133" r="36" fill="#D57F07"/><g clip-path="url(#clip3_1035_8101)" fill="#fff"><path d="M444.069 113.733c-.356-.356-.778-.534-1.265-.534-.488 0-.909.178-1.266.534l-3.656 3.629c-2.006-1.894-4.303-3.362-6.891-4.402-2.587-1.041-5.25-1.561-7.988-1.561-5.156 0-9.656 1.561-13.5 4.683-3.844 3.122-6.375 7.195-7.594 12.22v.197c0 .244.089.455.267.633.179.178.389.267.633.267h5.597c.413 0 .694-.216.844-.647.787-1.875 1.284-2.972 1.49-3.291 1.313-2.137 3.056-3.815 5.232-5.034 2.175-1.219 4.519-1.828 7.031-1.828 3.769 0 7.041 1.284 9.816 3.853l-3.882 3.881c-.355.356-.534.778-.534 1.266 0 .487.179.909.534 1.266.357.356.779.534 1.266.534h12.601c.487 0 .909-.178 1.265-.534.356-.357.534-.779.534-1.266v-12.6c0-.488-.177-.91-.534-1.266zM443 136.6h-5.4c-.413 0-.694.216-.844.647-.787 1.875-1.284 2.971-1.49 3.29-1.313 2.137-3.057 3.816-5.231 5.035-2.176 1.219-4.52 1.828-7.032 1.828-1.819 0-3.572-.337-5.259-1.012-1.688-.676-3.197-1.632-4.528-2.87l3.853-3.853c.356-.356.534-.778.534-1.265 0-.488-.178-.91-.534-1.266-.356-.357-.778-.535-1.266-.535h-12.6c-.488 0-.91.178-1.266.535-.356.356-.534.778-.534 1.266V151c0 .487.178.909.534 1.266.357.355.779.534 1.266.534.488 0 .909-.179 1.266-.534l3.628-3.629c2.006 1.912 4.289 3.384 6.849 4.416 2.559 1.031 5.208 1.546 7.945 1.546 5.138 0 9.619-1.561 13.444-4.682 3.825-3.122 6.337-7.196 7.538-12.221.019-.037.028-.103.028-.196 0-.244-.09-.454-.268-.633-.178-.177-.389-.267-.633-.267z"/></g><circle cx="171" cy="133" r="36" fill="#E1251B"/><g clip-path="url(#clip4_1035_8101)"><path d="M187.782 122.093l-10.907 10.909 10.907 10.908c1.623 1.623 1.623 4.252 0 5.875-.81.811-1.873 1.217-2.936 1.217-1.064 0-2.127-.405-2.937-1.217l-10.91-10.909-10.909 10.909c-.811.811-1.874 1.217-2.937 1.217-1.063 0-2.125-.405-2.936-1.217-1.623-1.622-1.623-4.251 0-5.875l10.907-10.908-10.908-10.909c-1.622-1.623-1.622-4.253 0-5.875 1.622-1.621 4.251-1.621 5.873 0l10.91 10.909 10.909-10.909c1.623-1.621 4.252-1.621 5.874 0 1.623 1.622 1.623 4.252 0 5.875z" fill="#fff"/></g><circle cx="297" cy="133" r="36" fill="#4C4C4C"/><g clip-path="url(#clip5_1035_8101)"><path d="M306.416 109.309c-.56 0-1.031.191-1.415.575-.383.383-.573.854-.574 1.414l-.022 5.723c-3.064.088-6.022.74-8.872 1.955-2.85 1.216-5.351 2.899-7.502 5.05-4.051 4.052-6.36 8.813-6.927 14.286-.568 5.473.643 10.662 3.634 15.568l.155.154c.191.192.427.288.707.287.28 0 .515-.095.707-.287l4.397-4.397c.324-.324.376-.715.155-1.171-.854-2.092-1.326-3.344-1.414-3.757-.649-2.71-.597-5.399.154-8.065.752-2.667 2.114-4.987 4.088-6.961 2.962-2.961 6.541-4.523 10.74-4.685l-.001 6.099c.001.559.192 1.031.575 1.415.383.383.855.574 1.414.574.56 0 1.032-.192 1.415-.575l9.899-9.899c.384-.383.575-.855.575-1.415 0-.559-.192-1.03-.575-1.413l-9.899-9.9c-.383-.383-.854-.576-1.414-.575z" fill="#fff"/></g></g><defs><clipPath id="clip0_1035_8101"><path fill="#fff" d="M0 0h720v500H0z"/></clipPath><clipPath id="clip1_1035_8101"><rect x="118" y="235" width="484" height="687" rx="4" fill="#fff"/></clipPath><clipPath id="clip2_1035_8101"><path fill="#fff" transform="translate(528 113.5)" d="M0 0h42v42H0z"/></clipPath><clipPath id="clip3_1035_8101"><path fill="#fff" transform="translate(401.4 111.4)" d="M0 0h43.2v43.2H0z"/></clipPath><clipPath id="clip4_1035_8101"><path fill="#fff" transform="translate(153 115)" d="M0 0h36v36H0z"/></clipPath><clipPath id="clip5_1035_8101"><path fill="#fff" transform="rotate(-45 305.731556 -256.697157)" d="M0 0h48v48H0z"/></clipPath><filter id="filter0_dd_1035_8101" x="116" y="233" width="488" height="691" filterUnits="userSpaceOnUse" color-interpolation-filters="sRGB"><feFlood flood-opacity="0" result="BackgroundImageFix"/><feColorMatrix in="SourceAlpha" values="0 0 0 0 0 0 0 0 0 0 0 0 0 0 0 0 0 0 127 0" result="hardAlpha"/><feOffset dy="1"/><feGaussianBlur stdDeviation=".5"/><feColorMatrix values="0 0 0 0 0 0 0 0 0 0 0 0 0 0 0 0 0 0 0.12 0"/><feBlend in2="BackgroundImageFix" result="effect1_dropShadow_1035_8101"/><feColorMatrix in="SourceAlpha" values="0 0 0 0 0 0 0 0 0 0 0 0 0 0 0 0 0 0 127 0" result="hardAlpha"/><feOffset/><feGaussianBlur stdDeviation="1"/><feColorMatrix values="0 0 0 0 0 0 0 0 0 0 0 0 0 0 0 0 0 0 0.12 0"/><feBlend in2="effect1_dropShadow_1035_8101" result="effect2_dropShadow_1035_8101"/><feBlend in="SourceGraphic" in2="effect2_dropShadow_1035_8101" result="shape"/></filter></defs></svg>