<svg width="720" height="500" fill="none" xmlns="http://www.w3.org/2000/svg"><g clip-path="url(#loblaw-card__a)"><path fill="#000" d="M0 0h720v500H0z"/><g filter="url(#loblaw-card__b)"><g clip-path="url(#loblaw-card__c)"><g filter="url(#loblaw-card__d)"><rect x="118" y="235" width="484" height="687" rx="4" fill="#fff"/></g><path fill="#fff" d="M573 306h28v612h-28z"/><rect x="583" y="328" width="8" height="96" rx="4" fill="#CCC"/><path d="m582 320.5 5-5 5 5h-10Z" fill="#CCC"/><path d="M154.5 358.04c.56-.8 1.276-1.2 2.148-1.2.872 0 1.584.4 2.136 1.2.56.792.84 1.768.84 2.928s-.28 2.14-.84 2.94c-.552.792-1.264 1.188-2.136 1.188-.88 0-1.596-.396-2.148-1.188-.552-.8-.828-1.78-.828-2.94s.276-2.136.828-2.928Zm.852 5.04c.36.576.792.864 1.296.864s.932-.288 1.284-.864c.36-.584.54-1.288.54-2.112 0-.824-.18-1.524-.54-2.1-.352-.584-.78-.876-1.284-.876s-.936.292-1.296.876c-.352.576-.528 1.276-.528 2.1 0 .824.176 1.528.528 2.112Zm8.825-3.72c.808 0 1.468.268 1.98.804.512.528.768 1.16.768 1.896 0 .896-.28 1.628-.84 2.196-.552.56-1.264.84-2.136.84-.88 0-1.596-.284-2.148-.852-.552-.568-.828-1.324-.828-2.268 0-.896.236-1.808.708-2.736.472-.936 1.176-1.704 2.112-2.304h2.04a1.826 1.826 0 0 0-.24.096c-.104.04-.3.14-.588.3-.288.152-.56.324-.816.516-.248.192-.52.456-.816.792a4.675 4.675 0 0 0-.708 1.068c.416-.232.92-.348 1.512-.348Zm-1.536 4.08c.344.336.78.504 1.308.504s.964-.168 1.308-.504a1.66 1.66 0 0 0 .516-1.236c0-.488-.168-.892-.504-1.212-.328-.32-.768-.48-1.32-.48-.528 0-.964.164-1.308.492a1.57 1.57 0 0 0-.516 1.2c0 .488.172.9.516 1.236Zm6.497-2.568a.833.833 0 0 1-.612-.252.833.833 0 0 1-.252-.612c0-.248.084-.452.252-.612a.833.833 0 0 1 .612-.252c.248 0 .452.084.612.252.168.16.252.364.252.612 0 .24-.084.444-.252.612a.808.808 0 0 1-.612.252Zm0 4.224a.833.833 0 0 1-.612-.252.833.833 0 0 1-.252-.612c0-.24.084-.444.252-.612a.833.833 0 0 1 .612-.252c.248 0 .452.084.612.252a.833.833 0 0 1 .252.612c0 .24-.084.444-.252.612a.808.808 0 0 1-.612.252Zm3.034-7.056c.56-.8 1.276-1.2 2.148-1.2.872 0 1.584.4 2.136 1.2.56.792.84 1.768.84 2.928s-.28 2.14-.84 2.94c-.552.792-1.264 1.188-2.136 1.188-.88 0-1.596-.396-2.148-1.188-.552-.8-.828-1.78-.828-2.94s.276-2.136.828-2.928Zm.852 5.04c.36.576.792.864 1.296.864s.932-.288 1.284-.864c.36-.584.54-1.288.54-2.112 0-.824-.18-1.524-.54-2.1-.352-.584-.78-.876-1.284-.876s-.936.292-1.296.876c-.352.576-.528 1.276-.528 2.1 0 .824.176 1.528.528 2.112Zm6.449-5.04c.56-.8 1.276-1.2 2.148-1.2.872 0 1.584.4 2.136 1.2.56.792.84 1.768.84 2.928s-.28 2.14-.84 2.94c-.552.792-1.264 1.188-2.136 1.188-.88 0-1.596-.396-2.148-1.188-.552-.8-.828-1.78-.828-2.94s.276-2.136.828-2.928Zm.852 5.04c.36.576.792.864 1.296.864s.932-.288 1.284-.864c.36-.584.54-1.288.54-2.112 0-.824-.18-1.524-.54-2.1-.352-.584-.78-.876-1.284-.876s-.936.292-1.296.876c-.352.576-.528 1.276-.528 2.1 0 .824.176 1.528.528 2.112Zm8.884-3.936c.832 0 1.52.288 2.064.864.544.576.816 1.28.816 2.112 0 .832-.272 1.536-.816 2.112-.544.576-1.232.864-2.064.864-.8 0-1.44-.312-1.92-.936v3.912h-1.152v-8.832h1.152v.84c.48-.624 1.12-.936 1.92-.936Zm-1.392 4.272c.36.352.792.528 1.296.528s.932-.176 1.284-.528c.36-.36.54-.792.54-1.296s-.18-.932-.54-1.284c-.352-.36-.78-.54-1.284-.54s-.936.18-1.296.54c-.352.352-.528.78-.528 1.284s.176.936.528 1.296Zm11.935-4.272c.64 0 1.14.228 1.5.684.36.456.54 1.108.54 1.956V365h-1.152v-3.216c0-.992-.368-1.488-1.104-1.488-.368 0-.692.14-.972.42-.28.28-.42.652-.42 1.116V365h-1.152v-3.216c0-.992-.368-1.488-1.104-1.488-.368 0-.692.14-.972.42-.28.28-.42.652-.42 1.116V365h-1.152v-5.76h1.152v.672a4.03 4.03 0 0 1 .372-.372c.104-.096.264-.184.48-.264.224-.088.476-.132.756-.132.752 0 1.304.304 1.656.912.304-.328.608-.56.912-.696a2.552 2.552 0 0 1 1.08-.216Zm10.301.876c.264-.264.584-.396.96-.396s.692.132.948.396c.264.256.396.572.396.948s-.132.696-.396.96a1.288 1.288 0 0 1-.948.384c-.376 0-.696-.128-.96-.384a1.328 1.328 0 0 1-.384-.96c0-.376.128-.692.384-.948Zm12.785-3.084c1.296 0 2.304.38 3.024 1.14.728.76 1.092 1.724 1.092 2.892 0 1.16-.368 2.124-1.104 2.892-.736.76-1.74 1.14-3.012 1.14h-2.412v-8.064h2.412Zm.3 6.912c.776 0 1.412-.276 1.908-.828.504-.56.756-1.244.756-2.052s-.252-1.488-.756-2.04c-.496-.56-1.132-.84-1.908-.84h-1.56v5.76h1.56Zm9.291 1.344-2.568-4.968-.768 4.776h-1.176l1.368-8.256 3.144 6.096 3.144-6.096 1.368 8.256h-1.176l-.768-4.776-2.568 4.968Zm5.857-7.584 2.496-.864V365h-1.152v-6.768l-1.344.432v-1.056Zm4.226-.672h5.76L244.816 365h-1.344l2.976-6.912h-3.936v-1.152Zm6.527 0h5.76L251.343 365h-1.344l2.976-6.912h-3.936v-1.152Zm6.528 0h5.76L257.871 365h-1.344l2.976-6.912h-3.936v-1.152Zm10.563-.384h1.152V365h-1.152v-8.448Zm3.175 3.468a2.878 2.878 0 0 1 2.112-.876c.824 0 1.524.292 2.1.876.584.576.876 1.276.876 2.1 0 .824-.292 1.528-.876 2.112a2.859 2.859 0 0 1-2.1.864 2.899 2.899 0 0 1-2.112-.864 2.899 2.899 0 0 1-.864-2.112c0-.824.288-1.524.864-2.1Zm.828 3.384c.36.36.788.54 1.284.54s.924-.18 1.284-.54c.36-.36.54-.788.54-1.284s-.18-.924-.54-1.284c-.36-.36-.788-.54-1.284-.54s-.924.18-1.284.54c-.36.36-.54.788-.54 1.284s.18.924.54 1.284Zm10.022-4.164h1.152V365h-1.152v-.84c-.48.624-1.12.936-1.92.936-.832 0-1.52-.288-2.064-.864-.544-.576-.816-1.28-.816-2.112 0-.832.272-1.536.816-2.112.544-.576 1.232-.864 2.064-.864.8 0 1.44.312 1.92.936v-.84Zm-3.12 4.176c.36.352.792.528 1.296.528s.932-.176 1.284-.528c.36-.36.54-.792.54-1.296s-.18-.932-.54-1.284c-.352-.36-.78-.54-1.284-.54s-.936.18-1.296.54c-.352.352-.528.78-.528 1.284s.176.936.528 1.296Zm10.233-6.864h1.152V365h-1.152v-.84c-.48.624-1.12.936-1.92.936-.832 0-1.52-.288-2.064-.864-.544-.576-.816-1.28-.816-2.112 0-.832.272-1.536.816-2.112.544-.576 1.232-.864 2.064-.864.8 0 1.44.312 1.92.936v-3.528Zm-3.12 6.864c.36.352.792.528 1.296.528s.932-.176 1.284-.528c.36-.36.54-.792.54-1.296s-.18-.932-.54-1.284c-.352-.36-.78-.54-1.284-.54s-.936.18-1.296.54c-.352.352-.528.78-.528 1.284s.176.936.528 1.296Zm11.002-1.272c0 .176-.012.344-.036.504h-4.356c.088.432.3.756.636.972.344.216.756.324 1.236.324.624 0 1.208-.192 1.752-.576l.384 1.032c-.552.464-1.272.696-2.16.696-.968 0-1.716-.28-2.244-.84-.52-.568-.78-1.28-.78-2.136 0-.848.26-1.556.78-2.124.528-.568 1.224-.852 2.088-.852.784 0 1.428.272 1.932.816.512.544.768 1.272.768 2.184Zm-4.392-.552h3.216c-.016-.328-.156-.624-.42-.888-.264-.272-.648-.408-1.152-.408-.488 0-.88.136-1.176.408-.296.272-.452.568-.468.888Zm10.151-5.04h1.152V365h-1.152v-.84c-.48.624-1.12.936-1.92.936-.832 0-1.52-.288-2.064-.864-.544-.576-.816-1.28-.816-2.112 0-.832.272-1.536.816-2.112.544-.576 1.232-.864 2.064-.864.8 0 1.44.312 1.92.936v-3.528Zm-3.12 6.864c.36.352.792.528 1.296.528s.932-.176 1.284-.528c.36-.36.54-.792.54-1.296s-.18-.932-.54-1.284c-.352-.36-.78-.54-1.284-.54s-.936.18-1.296.54c-.352.352-.528.78-.528 1.284s.176.936.528 1.296Zm11-6.864v3.528c.48-.624 1.12-.936 1.92-.936.832 0 1.52.288 2.064.864.544.576.816 1.28.816 2.112 0 .832-.272 1.536-.816 2.112-.544.576-1.232.864-2.064.864-.8 0-1.44-.312-1.92-.936v.84h-1.152v-8.448h1.152Zm.528 6.864c.36.352.792.528 1.296.528s.932-.176 1.284-.528c.36-.36.54-.792.54-1.296s-.18-.932-.54-1.284c-.352-.36-.78-.54-1.284-.54s-.936.18-1.296.54c-.352.352-.528.78-.528 1.284s.176.936.528 1.296Zm9.427-4.176h1.284l-3.9 8.832h-1.26l1.536-3.444-2.328-5.388h1.284l1.692 3.984 1.692-3.984Zm7.237 5.76h-1.152v-8.064h4.608v1.152h-3.456v2.304h2.88v1.152h-2.88V365Zm14.017-8.064h1.248l-3.36 8.256-2.208-5.568-2.208 5.568-3.36-8.256h1.248l2.112 5.304 2.208-5.496 2.208 5.496 2.112-5.304Zm2.303.672 2.497-.864V365h-1.153v-6.768l-1.344.432v-1.056Zm4.226-.672h5.76L348.831 365h-1.344l2.976-6.912h-3.936v-1.152Zm11.136 3.804c.312.104.58.324.804.66.232.336.348.704.348 1.104a2.59 2.59 0 0 1-.72 1.812c-.472.52-1.192.78-2.16.78-.856 0-1.536-.236-2.04-.708s-.784-1.1-.84-1.884l1.152-.192c.136 1.088.736 1.632 1.8 1.632.512 0 .916-.128 1.212-.384.296-.256.444-.576.444-.96 0-.456-.18-.76-.54-.912-.352-.16-.876-.24-1.572-.24v-1.152c.208 0 .408-.016.6-.048.192-.04.396-.096.612-.168.216-.08.388-.2.516-.36a.893.893 0 0 0 .192-.576c0-.296-.128-.56-.384-.792-.256-.24-.616-.36-1.08-.36-.56 0-.96.14-1.2.42-.232.28-.372.652-.42 1.116l-1.152-.192c.064-.728.344-1.324.84-1.788.504-.472 1.124-.708 1.86-.708.856 0 1.516.236 1.98.708.472.472.708.972.708 1.5 0 .752-.32 1.316-.96 1.692Zm7.353-.168c.728.416 1.092 1.064 1.092 1.944 0 .76-.288 1.38-.864 1.86-.576.48-1.28.72-2.112.72-.832 0-1.536-.24-2.112-.72-.576-.48-.864-1.1-.864-1.86 0-.864.36-1.512 1.08-1.944-.464-.328-.696-.82-.696-1.476 0-.64.248-1.176.744-1.608.504-.432 1.12-.648 1.848-.648.72 0 1.332.216 1.836.648.504.432.756.968.756 1.608 0 .64-.236 1.132-.708 1.476Zm-.864-2.268c-.28-.208-.62-.312-1.02-.312s-.74.104-1.02.312c-.28.208-.42.456-.42.744s.14.536.42.744c.28.208.62.312 1.02.312s.74-.104 1.02-.312c.28-.208.42-.456.42-.744s-.14-.536-.42-.744Zm-2.316 5.244c.36.264.792.396 1.296.396s.932-.132 1.284-.396c.36-.272.54-.604.54-.996s-.18-.72-.54-.984c-.352-.272-.78-.408-1.284-.408s-.936.136-1.296.408c-.352.264-.528.592-.528.984s.176.724.528.996Z" fill="#666B73"/><path d="M156.648 332.936c1.016 0 1.78.244 2.292.732.52.488.78 1.14.78 1.956 0 .728-.244 1.36-.732 1.896-.488.528-1.14.792-1.956.792h-1.728V341h-1.536v-8.064h2.88Zm.192 3.84c.376 0 .692-.108.948-.324.264-.216.396-.492.396-.828 0-.368-.128-.652-.384-.852-.248-.2-.568-.3-.96-.3h-1.536v2.304h1.536Zm5.566-.468c.192-.44.512-.78.96-1.02.448-.248.96-.392 1.536-.432v1.812a2.165 2.165 0 0 0-1.152 0 1.874 1.874 0 0 0-.948.636c-.264.312-.396.712-.396 1.2V341h-1.536v-5.952h1.536v1.26Zm9.024 1.716c0 .112-.008.272-.024.48h-4.332c.112.408.316.736.612.984.304.24.688.36 1.152.36.664 0 1.256-.184 1.776-.552l.444 1.332c-.064.04-.156.092-.276.156-.112.064-.364.148-.756.252a4.617 4.617 0 0 1-1.212.156c-1.104 0-1.936-.296-2.496-.888-.56-.592-.84-1.352-.84-2.28 0-.928.264-1.688.792-2.28.528-.592 1.288-.888 2.28-.888.928 0 1.64.28 2.136.84.496.552.744 1.328.744 2.328Zm-4.32-.672h2.688c0-.288-.12-.552-.36-.792-.232-.24-.56-.36-.984-.36-.36 0-.676.128-.948.384-.264.248-.396.504-.396.768Zm8.071-.144c.92.144 1.548.38 1.884.708.336.328.504.716.504 1.164 0 .624-.236 1.132-.708 1.524-.464.392-1.1.588-1.908.588a4.722 4.722 0 0 1-1.692-.288c-.496-.192-.852-.384-1.068-.576l.504-1.44c.256.24.58.44.972.6.4.152.78.232 1.14.24.816.016 1.224-.156 1.224-.516 0-.128-.076-.224-.228-.288-.144-.064-.42-.132-.828-.204a7.905 7.905 0 0 1-1.344-.324c-.352-.136-.616-.292-.792-.468a1.525 1.525 0 0 1-.36-.564 2.17 2.17 0 0 1-.096-.684c0-.496.244-.924.732-1.284s1.112-.54 1.872-.54c.8 0 1.572.192 2.316.576l-.432 1.392c-.168-.12-.432-.232-.792-.336a4.252 4.252 0 0 0-1.092-.168c-.712-.016-1.068.104-1.068.36 0 .2.24.344.72.432.072.016.188.036.348.06l.192.036Zm4.954-3.228c-.2.2-.448.3-.744.3s-.548-.1-.756-.3c-.2-.208-.3-.46-.3-.756s.1-.544.3-.744a1.03 1.03 0 0 1 .756-.312.99.99 0 0 1 .744.312.99.99 0 0 1 .312.744c0 .296-.104.548-.312.756Zm-1.512 7.02v-5.952h1.536V341h-1.536Zm5.569-6.144c.736 0 1.344.276 1.824.828v-3.132h1.536V341h-1.536v-.636a2.312 2.312 0 0 1-1.824.828c-.824 0-1.528-.308-2.112-.924-.576-.624-.864-1.372-.864-2.244 0-.872.288-1.616.864-2.232.584-.624 1.288-.936 2.112-.936Zm-.96 4.32c.32.32.704.48 1.152.48.448 0 .832-.16 1.152-.48.32-.32.48-.704.48-1.152 0-.448-.16-.832-.48-1.152-.32-.32-.704-.48-1.152-.48-.448 0-.832.16-1.152.48-.32.32-.48.704-.48 1.152 0 .448.16.832.48 1.152Zm11.237-1.152c0 .112-.008.272-.024.48h-4.332c.112.408.316.736.612.984.304.24.688.36 1.152.36.664 0 1.256-.184 1.776-.552l.444 1.332c-.064.04-.156.092-.276.156-.112.064-.364.148-.756.252a4.617 4.617 0 0 1-1.212.156c-1.104 0-1.936-.296-2.496-.888-.56-.592-.84-1.352-.84-2.28 0-.928.264-1.688.792-2.28.528-.592 1.288-.888 2.28-.888.928 0 1.64.28 2.136.84.496.552.744 1.328.744 2.328Zm-4.32-.672h2.688c0-.288-.12-.552-.36-.792-.232-.24-.56-.36-.984-.36-.36 0-.676.128-.948.384-.264.248-.396.504-.396.768Zm8.615-2.496c.696 0 1.24.228 1.632.684.4.456.6 1.124.6 2.004V341h-1.536v-3.264c0-.464-.092-.804-.276-1.02-.184-.216-.476-.324-.876-.324-.384 0-.704.128-.96.384s-.384.64-.384 1.152V341h-1.536v-5.952h1.536v.576c.432-.512 1.032-.768 1.8-.768Zm3.868 4.452v-2.916h-.768v-1.344h.768v-2.112h1.536v2.112h1.152v1.344h-1.152v2.496c0 .424.096.688.288.792.2.104.488.096.864-.024V341c-.32.128-.696.192-1.128.192-.528 0-.92-.168-1.176-.504-.256-.344-.384-.804-.384-1.38Zm3.65-3.876.576-2.496h1.728l-1.344 2.496h-.96Zm6.059 1.776c.92.144 1.548.38 1.884.708.336.328.504.716.504 1.164 0 .624-.236 1.132-.708 1.524-.464.392-1.1.588-1.908.588a4.722 4.722 0 0 1-1.692-.288c-.496-.192-.852-.384-1.068-.576l.504-1.44c.256.24.58.44.972.6.4.152.78.232 1.14.24.816.016 1.224-.156 1.224-.516 0-.128-.076-.224-.228-.288-.144-.064-.42-.132-.828-.204a7.905 7.905 0 0 1-1.344-.324c-.352-.136-.616-.292-.792-.468a1.525 1.525 0 0 1-.36-.564 2.17 2.17 0 0 1-.096-.684c0-.496.244-.924.732-1.284s1.112-.54 1.872-.54c.8 0 1.572.192 2.316.576l-.432 1.392c-.168-.12-.432-.232-.792-.336a4.252 4.252 0 0 0-1.092-.168c-.712-.016-1.068.104-1.068.36 0 .2.24.344.72.432.072.016.188.036.348.06l.192.036Zm11.117 2.448c.8 0 1.468-.276 2.004-.828l.588 1.392c-.336.304-.74.544-1.212.72-.472.168-.94.252-1.404.252-1.184 0-2.196-.412-3.036-1.236-.84-.832-1.26-1.828-1.26-2.988s.42-2.152 1.26-2.976c.84-.832 1.852-1.248 3.036-1.248.464 0 .932.084 1.404.252.472.168.876.404 1.212.708l-.588 1.392a2.776 2.776 0 0 0-2.004-.816c-.768 0-1.424.264-1.968.792a2.525 2.525 0 0 0-.816 1.896c0 .744.272 1.38.816 1.908.544.52 1.2.78 1.968.78Zm7.076-4.8c.696 0 1.24.228 1.632.684.4.456.6 1.124.6 2.004V341h-1.536v-3.264c0-.464-.092-.804-.276-1.02-.184-.216-.476-.324-.876-.324-.384 0-.704.128-.96.384s-.384.64-.384 1.152V341h-1.536v-8.448h1.536v3.072c.432-.512 1.032-.768 1.8-.768Zm4.118.924a3.055 3.055 0 0 1 2.244-.924c.88 0 1.628.308 2.244.924.616.616.924 1.364.924 2.244 0 .88-.308 1.628-.924 2.244a3.055 3.055 0 0 1-2.244.924c-.88 0-1.628-.308-2.244-.924a3.055 3.055 0 0 1-.924-2.244c0-.88.308-1.628.924-2.244Zm1.092 3.396c.32.32.704.48 1.152.48.448 0 .832-.16 1.152-.48.32-.32.48-.704.48-1.152 0-.448-.16-.832-.48-1.152-.32-.32-.704-.48-1.152-.48-.448 0-.832.16-1.152.48-.32.32-.48.704-.48 1.152 0 .448.16.832.48 1.152Zm6.794-5.196c-.2.2-.448.3-.744.3s-.548-.1-.756-.3c-.2-.208-.3-.46-.3-.756s.1-.544.3-.744a1.03 1.03 0 0 1 .756-.312.99.99 0 0 1 .744.312.99.99 0 0 1 .312.744c0 .296-.104.548-.312.756Zm-1.512 7.02v-5.952h1.536V341h-1.536Zm5.859-1.344c.56 0 1.02-.18 1.38-.54l.636 1.368c-.488.472-1.176.708-2.064.708-1.016 0-1.824-.3-2.424-.9-.592-.608-.888-1.364-.888-2.268 0-.904.3-1.656.9-2.256.6-.608 1.404-.912 2.412-.912.848 0 1.536.236 2.064.708l-.636 1.38c-.368-.368-.828-.552-1.38-.552-.552 0-.996.156-1.332.468-.328.312-.492.7-.492 1.164 0 .464.164.852.492 1.164.336.312.78.468 1.332.468Zm8.545-1.632c0 .112-.008.272-.024.48h-4.332c.112.408.316.736.612.984.304.24.688.36 1.152.36.664 0 1.256-.184 1.776-.552l.444 1.332c-.064.04-.156.092-.276.156-.112.064-.364.148-.756.252a4.617 4.617 0 0 1-1.212.156c-1.104 0-1.936-.296-2.496-.888-.56-.592-.84-1.352-.84-2.28 0-.928.264-1.688.792-2.28.528-.592 1.288-.888 2.28-.888.928 0 1.64.28 2.136.84.496.552.744 1.328.744 2.328Zm-4.32-.672h2.688c0-.288-.12-.552-.36-.792-.232-.24-.56-.36-.984-.36-.36 0-.676.128-.948.384-.264.248-.396.504-.396.768Zm9.963-3.372c.824-.824 1.82-1.236 2.988-1.236s2.164.412 2.988 1.236c.824.824 1.236 1.82 1.236 2.988s-.412 2.164-1.236 2.988c-.824.824-1.82 1.236-2.988 1.236s-2.164-.412-2.988-1.236c-.824-.824-1.236-1.82-1.236-2.988s.412-2.164 1.236-2.988Zm1.08 4.896a2.62 2.62 0 0 0 1.908.78c.744 0 1.376-.26 1.896-.78a2.6 2.6 0 0 0 .792-1.908c0-.744-.264-1.376-.792-1.896a2.561 2.561 0 0 0-1.896-.792 2.6 2.6 0 0 0-1.908.792c-.52.52-.78 1.152-.78 1.896s.26 1.38.78 1.908ZM271.16 341l-2.496-5.952h1.728l1.344 3.648 1.344-3.648h1.728L272.312 341h-1.152Zm9.793-2.976c0 .112-.008.272-.024.48h-4.332c.112.408.316.736.612.984.304.24.688.36 1.152.36.664 0 1.256-.184 1.776-.552l.444 1.332c-.064.04-.156.092-.276.156-.112.064-.364.148-.756.252a4.617 4.617 0 0 1-1.212.156c-1.104 0-1.936-.296-2.496-.888-.56-.592-.84-1.352-.84-2.28 0-.928.264-1.688.792-2.28.528-.592 1.288-.888 2.28-.888.928 0 1.64.28 2.136.84.496.552.744 1.328.744 2.328Zm-4.32-.672h2.688c0-.288-.12-.552-.36-.792-.232-.24-.56-.36-.984-.36-.36 0-.676.128-.948.384-.264.248-.396.504-.396.768Zm8.616-2.496c.696 0 1.24.228 1.632.684.4.456.6 1.124.6 2.004V341h-1.536v-3.264c0-.464-.092-.804-.276-1.02-.184-.216-.476-.324-.876-.324-.384 0-.704.128-.96.384s-.384.64-.384 1.152V341h-1.536v-5.952h1.536v.576c.432-.512 1.032-.768 1.8-.768Zm6.842 3.552h-3.456v-1.152h3.456v1.152Zm7.485 2.592h-1.872l-1.812-2.688h-.924V341h-1.536v-8.064h2.88c1.016 0 1.78.244 2.292.732.52.488.78 1.14.78 1.956 0 .584-.164 1.116-.492 1.596-.328.472-.78.796-1.356.972l2.04 2.808Zm-4.608-6.528v2.304h1.536c.376 0 .692-.108.948-.324.264-.216.396-.492.396-.828 0-.368-.128-.652-.384-.852-.248-.2-.568-.3-.96-.3h-1.536Zm5.918 1.308a3.055 3.055 0 0 1 2.244-.924c.88 0 1.628.308 2.244.924.616.616.924 1.364.924 2.244 0 .88-.308 1.628-.924 2.244a3.055 3.055 0 0 1-2.244.924c-.88 0-1.628-.308-2.244-.924a3.055 3.055 0 0 1-.924-2.244c0-.88.308-1.628.924-2.244Zm1.092 3.396c.32.32.704.48 1.152.48.448 0 .832-.16 1.152-.48.32-.32.48-.704.48-1.152 0-.448-.16-.832-.48-1.152-.32-.32-.704-.48-1.152-.48-.448 0-.832.16-1.152.48-.32.32-.48.704-.48 1.152 0 .448.16.832.48 1.152Zm9.886-4.128h1.536V341h-1.536v-.636a2.312 2.312 0 0 1-1.824.828c-.824 0-1.528-.308-2.112-.924-.576-.624-.864-1.372-.864-2.244 0-.872.288-1.616.864-2.232.584-.624 1.288-.936 2.112-.936.736 0 1.344.276 1.824.828v-.636Zm-2.784 4.128c.32.32.704.48 1.152.48.448 0 .832-.16 1.152-.48.32-.32.48-.704.48-1.152 0-.448-.16-.832-.48-1.152-.32-.32-.704-.48-1.152-.48-.448 0-.832.16-1.152.48-.32.32-.48.704-.48 1.152 0 .448.16.832.48 1.152Zm8.366-1.968c.92.144 1.548.38 1.884.708.336.328.504.716.504 1.164 0 .624-.236 1.132-.708 1.524-.464.392-1.1.588-1.908.588a4.722 4.722 0 0 1-1.692-.288c-.496-.192-.852-.384-1.068-.576l.504-1.44c.256.24.58.44.972.6.4.152.78.232 1.14.24.816.016 1.224-.156 1.224-.516 0-.128-.076-.224-.228-.288-.144-.064-.42-.132-.828-.204a7.905 7.905 0 0 1-1.344-.324c-.352-.136-.616-.292-.792-.468a1.525 1.525 0 0 1-.36-.564 2.17 2.17 0 0 1-.096-.684c0-.496.244-.924.732-1.284s1.112-.54 1.872-.54c.8 0 1.572.192 2.316.576l-.432 1.392c-.168-.12-.432-.232-.792-.336a4.252 4.252 0 0 0-1.092-.168c-.712-.016-1.068.104-1.068.36 0 .2.24.344.72.432.072.016.188.036.348.06l.192.036Zm3.921 2.1v-2.916h-.768v-1.344h.768v-2.112h1.536v2.112h1.152v1.344h-1.152v2.496c0 .424.096.688.288.792.2.104.488.096.864-.024V341c-.32.128-.696.192-1.128.192-.528 0-.92-.168-1.176-.504-.256-.344-.384-.804-.384-1.38Zm9.508-1.284c0 .112-.008.272-.024.48h-4.332c.112.408.316.736.612.984.304.24.688.36 1.152.36.664 0 1.256-.184 1.776-.552l.444 1.332c-.064.04-.156.092-.276.156-.112.064-.364.148-.756.252a4.617 4.617 0 0 1-1.212.156c-1.104 0-1.936-.296-2.496-.888-.56-.592-.84-1.352-.84-2.28 0-.928.264-1.688.792-2.28.528-.592 1.288-.888 2.28-.888.928 0 1.64.28 2.136.84.496.552.744 1.328.744 2.328Zm-4.32-.672h2.688c0-.288-.12-.552-.36-.792-.232-.24-.56-.36-.984-.36-.36 0-.676.128-.948.384-.264.248-.396.504-.396.768Zm8.059-2.496c.736 0 1.344.276 1.824.828v-3.132h1.536V341h-1.536v-.636a2.312 2.312 0 0 1-1.824.828c-.824 0-1.528-.308-2.112-.924-.576-.624-.864-1.372-.864-2.244 0-.872.288-1.616.864-2.232.584-.624 1.288-.936 2.112-.936Zm-.96 4.32c.32.32.704.48 1.152.48.448 0 .832-.16 1.152-.48.32-.32.48-.704.48-1.152 0-.448-.16-.832-.48-1.152-.32-.32-.704-.48-1.152-.48-.448 0-.832.16-1.152.48-.32.32-.48.704-.48 1.152 0 .448.16.832.48 1.152Zm13.437.48c.8 0 1.468-.276 2.004-.828l.588 1.392c-.336.304-.74.544-1.212.72-.472.168-.94.252-1.404.252-1.184 0-2.196-.412-3.036-1.236-.84-.832-1.26-1.828-1.26-2.988s.42-2.152 1.26-2.976c.84-.832 1.852-1.248 3.036-1.248.464 0 .932.084 1.404.252.472.168.876.404 1.212.708l-.588 1.392a2.776 2.776 0 0 0-2.004-.816c-.768 0-1.424.264-1.968.792a2.525 2.525 0 0 0-.816 1.896c0 .744.272 1.38.816 1.908.544.52 1.2.78 1.968.78Zm7.076-4.8c.696 0 1.239.228 1.631.684.4.456.6 1.124.6 2.004V341h-1.535v-3.264c0-.464-.092-.804-.276-1.02-.185-.216-.477-.324-.877-.324a1.3 1.3 0 0 0-.959.384c-.256.256-.384.64-.384 1.152V341h-1.537v-8.448h1.537v3.072c.432-.512 1.031-.768 1.8-.768Zm4.996-.876c-.2.2-.448.3-.744.3s-.548-.1-.756-.3c-.2-.208-.3-.46-.3-.756s.1-.544.3-.744a1.03 1.03 0 0 1 .756-.312.99.99 0 0 1 .744.312.99.99 0 0 1 .312.744c0 .296-.104.548-.312.756Zm-1.512 7.02v-5.952h1.536V341h-1.536Zm5.859-1.344c.56 0 1.02-.18 1.38-.54l.636 1.368c-.488.472-1.176.708-2.064.708-1.016 0-1.824-.3-2.424-.9-.592-.608-.888-1.364-.888-2.268 0-.904.3-1.656.9-2.256.6-.608 1.404-.912 2.412-.912.848 0 1.536.236 2.064.708l-.636 1.38c-.368-.368-.828-.552-1.38-.552-.552 0-.996.156-1.332.468-.328.312-.492.7-.492 1.164 0 .464.164.852.492 1.164.336.312.78.468 1.332.468Zm6.044-1.728 3.072 3.072h-1.92l-2.496-2.352V341h-1.536v-8.448h1.536v4.752l2.304-2.256h1.92l-2.88 2.88Zm9.11.096c0 .112-.008.272-.024.48h-4.332c.112.408.316.736.612.984.304.24.688.36 1.152.36.664 0 1.256-.184 1.776-.552l.444 1.332c-.064.04-.156.092-.276.156-.112.064-.364.148-.756.252a4.617 4.617 0 0 1-1.212.156c-1.104 0-1.936-.296-2.496-.888-.56-.592-.84-1.352-.84-2.28 0-.928.264-1.688.792-2.28.528-.592 1.288-.888 2.28-.888.928 0 1.64.28 2.136.84.496.552.744 1.328.744 2.328Zm-4.32-.672h2.688c0-.288-.12-.552-.36-.792-.232-.24-.56-.36-.984-.36-.36 0-.676.128-.948.384-.264.248-.396.504-.396.768Zm8.615-2.496c.696 0 1.24.228 1.632.684.4.456.6 1.124.6 2.004V341h-1.536v-3.264c0-.464-.092-.804-.276-1.02-.184-.216-.476-.324-.876-.324-.384 0-.704.128-.96.384s-.384.64-.384 1.152V341h-1.536v-5.952h1.536v.576c.432-.512 1.032-.768 1.8-.768Zm12.203 1.812c.464.12.804.352 1.02.696.224.344.336.748.336 1.212 0 .712-.248 1.296-.744 1.752-.496.448-1.168.672-2.016.672h-3.576v-8.064h2.88c.968 0 1.72.172 2.256.516.544.344.816.876.816 1.596 0 .384-.092.72-.276 1.008-.176.28-.408.484-.696.612Zm-3.444-2.196v1.536h1.44c.96 0 1.44-.256 1.44-.768 0-.296-.116-.496-.348-.6-.232-.112-.596-.168-1.092-.168h-1.44Zm1.632 4.992c1.088 0 1.632-.352 1.632-1.056 0-.352-.144-.616-.432-.792-.288-.176-.688-.264-1.2-.264h-1.632v2.112h1.632Zm5.856-3.156c.192-.44.512-.78.96-1.02.448-.248.96-.392 1.536-.432v1.812a2.165 2.165 0 0 0-1.152 0 1.874 1.874 0 0 0-.948.636c-.264.312-.396.712-.396 1.2V341h-1.536v-5.952h1.536v1.26Zm9.025 1.716c0 .112-.008.272-.024.48h-4.332c.112.408.316.736.612.984.304.24.688.36 1.152.36.664 0 1.256-.184 1.776-.552l.444 1.332c-.064.04-.156.092-.276.156-.112.064-.364.148-.756.252a4.617 4.617 0 0 1-1.212.156c-1.104 0-1.936-.296-2.496-.888-.56-.592-.84-1.352-.84-2.28 0-.928.264-1.688.792-2.28.528-.592 1.288-.888 2.28-.888.928 0 1.64.28 2.136.84.496.552.744 1.328.744 2.328Zm-4.32-.672h2.688c0-.288-.12-.552-.36-.792-.232-.24-.56-.36-.984-.36-.36 0-.676.128-.948.384-.264.248-.396.504-.396.768Zm9.882-2.304h1.536V341h-1.536v-.636a2.312 2.312 0 0 1-1.824.828c-.824 0-1.528-.308-2.112-.924-.576-.624-.864-1.372-.864-2.244 0-.872.288-1.616.864-2.232.584-.624 1.288-.936 2.112-.936.736 0 1.344.276 1.824.828v-.636Zm-2.784 4.128c.32.32.704.48 1.152.48.448 0 .832-.16 1.152-.48.32-.32.48-.704.48-1.152 0-.448-.16-.832-.48-1.152-.32-.32-.704-.48-1.152-.48-.448 0-.832.16-1.152.48-.32.32-.48.704-.48 1.152 0 .448.16.832.48 1.152Zm8.367-1.968c.92.144 1.548.38 1.884.708.336.328.504.716.504 1.164 0 .624-.236 1.132-.708 1.524-.464.392-1.1.588-1.908.588a4.722 4.722 0 0 1-1.692-.288c-.496-.192-.852-.384-1.068-.576l.504-1.44c.256.24.58.44.972.6.4.152.78.232 1.14.24.816.016 1.224-.156 1.224-.516 0-.128-.076-.224-.228-.288-.144-.064-.42-.132-.828-.204a7.905 7.905 0 0 1-1.344-.324c-.352-.136-.616-.292-.792-.468a1.525 1.525 0 0 1-.36-.564 2.17 2.17 0 0 1-.096-.684c0-.496.244-.924.732-1.284s1.112-.54 1.872-.54c.8 0 1.572.192 2.316.576l-.432 1.392c-.168-.12-.432-.232-.792-.336a4.252 4.252 0 0 0-1.092-.168c-.712-.016-1.068.104-1.068.36 0 .2.24.344.72.432.072.016.188.036.348.06l.192.036Zm3.921 2.1v-2.916h-.768v-1.344h.768v-2.112h1.536v2.112h1.152v1.344h-1.152v2.496c0 .424.096.688.288.792.2.104.488.096.864-.024V341c-.32.128-.696.192-1.128.192-.528 0-.92-.168-1.176-.504-.256-.344-.384-.804-.384-1.38Z" fill="#333"/><rect x="129" y="406" width="436" height="64" rx="4" fill="#EFEFEF"/><path d="M129 410a4 4 0 0 1 4-4h4v64h-4a4 4 0 0 1-4-4v-56Z" fill="#00817F"/><path d="M154.5 446.04c.56-.8 1.276-1.2 2.148-1.2.872 0 1.584.4 2.136 1.2.56.792.84 1.768.84 2.928s-.28 2.14-.84 2.94c-.552.792-1.264 1.188-2.136 1.188-.88 0-1.596-.396-2.148-1.188-.552-.8-.828-1.78-.828-2.94s.276-2.136.828-2.928Zm.852 5.04c.36.576.792.864 1.296.864s.932-.288 1.284-.864c.36-.584.54-1.288.54-2.112 0-.824-.18-1.524-.54-2.1-.352-.584-.78-.876-1.284-.876s-.936.292-1.296.876c-.352.576-.528 1.276-.528 2.1 0 .824.176 1.528.528 2.112Zm8.825-3.72c.808 0 1.468.268 1.98.804.512.528.768 1.16.768 1.896 0 .896-.28 1.628-.84 2.196-.552.56-1.264.84-2.136.84-.88 0-1.596-.284-2.148-.852-.552-.568-.828-1.324-.828-2.268 0-.896.236-1.808.708-2.736.472-.936 1.176-1.704 2.112-2.304h2.04a1.826 1.826 0 0 0-.24.096c-.104.04-.3.14-.588.3-.288.152-.56.324-.816.516-.248.192-.52.456-.816.792a4.675 4.675 0 0 0-.708 1.068c.416-.232.92-.348 1.512-.348Zm-1.536 4.08c.344.336.78.504 1.308.504s.964-.168 1.308-.504a1.66 1.66 0 0 0 .516-1.236c0-.488-.168-.892-.504-1.212-.328-.32-.768-.48-1.32-.48-.528 0-.964.164-1.308.492a1.57 1.57 0 0 0-.516 1.2c0 .488.172.9.516 1.236Zm6.497-2.568a.833.833 0 0 1-.612-.252.833.833 0 0 1-.252-.612c0-.248.084-.452.252-.612a.833.833 0 0 1 .612-.252c.248 0 .452.084.612.252.168.16.252.364.252.612 0 .24-.084.444-.252.612a.808.808 0 0 1-.612.252Zm0 4.224a.833.833 0 0 1-.612-.252.833.833 0 0 1-.252-.612c0-.24.084-.444.252-.612a.833.833 0 0 1 .612-.252c.248 0 .452.084.612.252a.833.833 0 0 1 .252.612c0 .24-.084.444-.252.612a.808.808 0 0 1-.612.252Zm3.034-7.056c.56-.8 1.276-1.2 2.148-1.2.872 0 1.584.4 2.136 1.2.56.792.84 1.768.84 2.928s-.28 2.14-.84 2.94c-.552.792-1.264 1.188-2.136 1.188-.88 0-1.596-.396-2.148-1.188-.552-.8-.828-1.78-.828-2.94s.276-2.136.828-2.928Zm.852 5.04c.36.576.792.864 1.296.864s.932-.288 1.284-.864c.36-.584.54-1.288.54-2.112 0-.824-.18-1.524-.54-2.1-.352-.584-.78-.876-1.284-.876s-.936.292-1.296.876c-.352.576-.528 1.276-.528 2.1 0 .824.176 1.528.528 2.112Zm6.449-5.04c.56-.8 1.276-1.2 2.148-1.2.872 0 1.584.4 2.136 1.2.56.792.84 1.768.84 2.928s-.28 2.14-.84 2.94c-.552.792-1.264 1.188-2.136 1.188-.88 0-1.596-.396-2.148-1.188-.552-.8-.828-1.78-.828-2.94s.276-2.136.828-2.928Zm.852 5.04c.36.576.792.864 1.296.864s.932-.288 1.284-.864c.36-.584.54-1.288.54-2.112 0-.824-.18-1.524-.54-2.1-.352-.584-.78-.876-1.284-.876s-.936.292-1.296.876c-.352.576-.528 1.276-.528 2.1 0 .824.176 1.528.528 2.112Zm8.884-3.936c.832 0 1.52.288 2.064.864.544.576.816 1.28.816 2.112 0 .832-.272 1.536-.816 2.112-.544.576-1.232.864-2.064.864-.8 0-1.44-.312-1.92-.936v3.912h-1.152v-8.832h1.152v.84c.48-.624 1.12-.936 1.92-.936Zm-1.392 4.272c.36.352.792.528 1.296.528s.932-.176 1.284-.528c.36-.36.54-.792.54-1.296s-.18-.932-.54-1.284c-.352-.36-.78-.54-1.284-.54s-.936.18-1.296.54c-.352.352-.528.78-.528 1.284s.176.936.528 1.296Zm11.935-4.272c.64 0 1.14.228 1.5.684.36.456.54 1.108.54 1.956V453h-1.152v-3.216c0-.992-.368-1.488-1.104-1.488-.368 0-.692.14-.972.42-.28.28-.42.652-.42 1.116V453h-1.152v-3.216c0-.992-.368-1.488-1.104-1.488-.368 0-.692.14-.972.42-.28.28-.42.652-.42 1.116V453h-1.152v-5.76h1.152v.672a4.03 4.03 0 0 1 .372-.372c.104-.096.264-.184.48-.264.224-.088.476-.132.756-.132.752 0 1.304.304 1.656.912.304-.328.608-.56.912-.696a2.552 2.552 0 0 1 1.08-.216Zm10.301.876c.264-.264.584-.396.96-.396s.692.132.948.396c.264.256.396.572.396.948s-.132.696-.396.96a1.288 1.288 0 0 1-.948.384c-.376 0-.696-.128-.96-.384a1.328 1.328 0 0 1-.384-.96c0-.376.128-.692.384-.948Zm12.785-3.084c1.296 0 2.304.38 3.024 1.14.728.76 1.092 1.724 1.092 2.892 0 1.16-.368 2.124-1.104 2.892-.736.76-1.74 1.14-3.012 1.14h-2.412v-8.064h2.412Zm.3 6.912c.776 0 1.412-.276 1.908-.828.504-.56.756-1.244.756-2.052s-.252-1.488-.756-2.04c-.496-.56-1.132-.84-1.908-.84h-1.56v5.76h1.56Zm9.291 1.344-2.568-4.968-.768 4.776h-1.176l1.368-8.256 3.144 6.096 3.144-6.096 1.368 8.256h-1.176l-.768-4.776-2.568 4.968Zm5.857-7.584 2.496-.864V453h-1.152v-6.768l-1.344.432v-1.056Zm5.054.432c.56-.8 1.276-1.2 2.148-1.2.872 0 1.584.4 2.136 1.2.56.792.84 1.768.84 2.928s-.28 2.14-.84 2.94c-.552.792-1.264 1.188-2.136 1.188-.88 0-1.596-.396-2.148-1.188-.552-.8-.828-1.78-.828-2.94s.276-2.136.828-2.928Zm.852 5.04c.36.576.792.864 1.296.864s.932-.288 1.284-.864c.36-.584.54-1.288.54-2.112 0-.824-.18-1.524-.54-2.1-.352-.584-.78-.876-1.284-.876s-.936.292-1.296.876c-.352.576-.528 1.276-.528 2.1 0 .824.176 1.528.528 2.112Zm5.801-3.744a2.707 2.707 0 0 1 .792-1.764c.488-.488 1.124-.732 1.908-.732.776 0 1.416.244 1.92.732.512.48.768 1.1.768 1.86 0 .496-.144.968-.432 1.416-.28.44-.736.992-1.368 1.656l-1.26 1.344h3.444V453h-5.952l2.952-3.24c.336-.368.58-.644.732-.828.16-.184.32-.416.48-.696.168-.28.252-.524.252-.732 0-.456-.144-.82-.432-1.092-.28-.28-.648-.42-1.104-.42-.44 0-.796.148-1.068.444-.272.288-.424.652-.456 1.092l-1.176-.192Zm11.98 1.236c.728.416 1.092 1.064 1.092 1.944 0 .76-.288 1.38-.864 1.86-.576.48-1.28.72-2.112.72-.832 0-1.536-.24-2.112-.72-.576-.48-.864-1.1-.864-1.86 0-.864.36-1.512 1.08-1.944-.464-.328-.696-.82-.696-1.476 0-.64.248-1.176.744-1.608.504-.432 1.12-.648 1.848-.648.72 0 1.332.216 1.836.648.504.432.756.968.756 1.608 0 .64-.236 1.132-.708 1.476Zm-.864-2.268c-.28-.208-.62-.312-1.02-.312s-.74.104-1.02.312c-.28.208-.42.456-.42.744s.14.536.42.744c.28.208.62.312 1.02.312s.74-.104 1.02-.312c.28-.208.42-.456.42-.744s-.14-.536-.42-.744Zm-2.316 5.244c.36.264.792.396 1.296.396s.932-.132 1.284-.396c.36-.272.54-.604.54-.996s-.18-.72-.54-.984c-.352-.272-.78-.408-1.284-.408s-.936.136-1.296.408c-.352.264-.528.592-.528.984s.176.724.528.996Zm9.657-6.996h1.152V453h-1.152v-8.448Zm3.175 3.468a2.878 2.878 0 0 1 2.112-.876c.824 0 1.524.292 2.1.876.584.576.876 1.276.876 2.1 0 .824-.292 1.528-.876 2.112a2.859 2.859 0 0 1-2.1.864 2.899 2.899 0 0 1-2.112-.864 2.899 2.899 0 0 1-.864-2.112c0-.824.288-1.524.864-2.1Zm.828 3.384c.36.36.788.54 1.284.54s.924-.18 1.284-.54c.36-.36.54-.788.54-1.284s-.18-.924-.54-1.284c-.36-.36-.788-.54-1.284-.54s-.924.18-1.284.54c-.36.36-.54.788-.54 1.284s.18.924.54 1.284Zm10.022-4.164h1.152V453h-1.152v-.84c-.48.624-1.12.936-1.92.936-.832 0-1.52-.288-2.064-.864-.544-.576-.816-1.28-.816-2.112 0-.832.272-1.536.816-2.112.544-.576 1.232-.864 2.064-.864.8 0 1.44.312 1.92.936v-.84Zm-3.12 4.176c.36.352.792.528 1.296.528s.932-.176 1.284-.528c.36-.36.54-.792.54-1.296s-.18-.932-.54-1.284c-.352-.36-.78-.54-1.284-.54s-.936.18-1.296.54c-.352.352-.528.78-.528 1.284s.176.936.528 1.296Zm10.234-6.864h1.152V453h-1.152v-.84c-.48.624-1.12.936-1.92.936-.832 0-1.52-.288-2.064-.864-.544-.576-.816-1.28-.816-2.112 0-.832.272-1.536.816-2.112.544-.576 1.232-.864 2.064-.864.8 0 1.44.312 1.92.936v-3.528Zm-3.12 6.864c.36.352.792.528 1.296.528s.932-.176 1.284-.528c.36-.36.54-.792.54-1.296s-.18-.932-.54-1.284c-.352-.36-.78-.54-1.284-.54s-.936.18-1.296.54c-.352.352-.528.78-.528 1.284s.176.936.528 1.296Zm11.001-1.272c0 .176-.012.344-.036.504h-4.356c.088.432.3.756.636.972.344.216.756.324 1.236.324.624 0 1.208-.192 1.752-.576l.384 1.032c-.552.464-1.272.696-2.16.696-.968 0-1.716-.28-2.244-.84-.52-.568-.78-1.28-.78-2.136 0-.848.26-1.556.78-2.124.528-.568 1.224-.852 2.088-.852.784 0 1.428.272 1.932.816.512.544.768 1.272.768 2.184Zm-4.392-.552h3.216c-.016-.328-.156-.624-.42-.888-.264-.272-.648-.408-1.152-.408-.488 0-.88.136-1.176.408-.296.272-.452.568-.468.888Zm10.151-5.04h1.152V453h-1.152v-.84c-.48.624-1.12.936-1.92.936-.832 0-1.52-.288-2.064-.864-.544-.576-.816-1.28-.816-2.112 0-.832.272-1.536.816-2.112.544-.576 1.232-.864 2.064-.864.8 0 1.44.312 1.92.936v-3.528Zm-3.12 6.864c.36.352.792.528 1.296.528s.932-.176 1.284-.528c.36-.36.54-.792.54-1.296s-.18-.932-.54-1.284c-.352-.36-.78-.54-1.284-.54s-.936.18-1.296.54c-.352.352-.528.78-.528 1.284s.176.936.528 1.296Zm11.001-6.864v3.528c.48-.624 1.12-.936 1.92-.936.832 0 1.52.288 2.064.864.544.576.816 1.28.816 2.112 0 .832-.272 1.536-.816 2.112-.544.576-1.232.864-2.064.864-.8 0-1.44-.312-1.92-.936v.84h-1.152v-8.448h1.152Zm.528 6.864c.36.352.792.528 1.296.528s.932-.176 1.284-.528c.36-.36.54-.792.54-1.296s-.18-.932-.54-1.284c-.352-.36-.78-.54-1.284-.54s-.936.18-1.296.54c-.352.352-.528.78-.528 1.284s.176.936.528 1.296Zm9.427-4.176h1.284l-3.9 8.832h-1.26l1.536-3.444-2.328-5.388h1.284l1.692 3.984 1.692-3.984Zm7.236 5.76h-1.152v-8.064h4.608v1.152h-3.456v2.304h2.88v1.152h-2.88V453Zm14.017-8.064h1.248l-3.36 8.256-2.208-5.568-2.208 5.568-3.36-8.256h1.248l2.112 5.304 2.208-5.496 2.208 5.496 2.112-5.304Zm2.304.672 2.496-.864V453h-1.152v-6.768l-1.344.432v-1.056Zm4.226-.672h5.76L351.152 453h-1.344l2.976-6.912h-3.936v-1.152Zm11.135 3.804c.312.104.58.324.804.66.232.336.348.704.348 1.104a2.59 2.59 0 0 1-.72 1.812c-.472.52-1.192.78-2.16.78-.856 0-1.536-.236-2.04-.708s-.784-1.1-.84-1.884l1.152-.192c.136 1.088.736 1.632 1.8 1.632.512 0 .916-.128 1.212-.384.296-.256.444-.576.444-.96 0-.456-.18-.76-.54-.912-.352-.16-.876-.24-1.572-.24v-1.152c.208 0 .408-.016.6-.048.192-.04.396-.096.612-.168.216-.08.388-.2.516-.36a.893.893 0 0 0 .192-.576c0-.296-.128-.56-.384-.792-.256-.24-.616-.36-1.08-.36-.56 0-.96.14-1.2.42-.232.28-.372.652-.42 1.116l-1.152-.192c.064-.728.344-1.324.84-1.788.504-.472 1.124-.708 1.86-.708.856 0 1.516.236 1.98.708.472.472.708.972.708 1.5 0 .752-.32 1.316-.96 1.692Zm7.354-.168c.728.416 1.092 1.064 1.092 1.944 0 .76-.288 1.38-.864 1.86-.576.48-1.28.72-2.112.72-.832 0-1.536-.24-2.112-.72-.576-.48-.864-1.1-.864-1.86 0-.864.36-1.512 1.08-1.944-.464-.328-.696-.82-.696-1.476 0-.64.248-1.176.744-1.608.504-.432 1.12-.648 1.848-.648.72 0 1.332.216 1.836.648.504.432.756.968.756 1.608 0 .64-.236 1.132-.708 1.476Zm-.864-2.268c-.28-.208-.62-.312-1.02-.312s-.74.104-1.02.312c-.28.208-.42.456-.42.744s.14.536.42.744c.28.208.62.312 1.02.312s.74-.104 1.02-.312c.28-.208.42-.456.42-.744s-.14-.536-.42-.744Zm-2.316 5.244c.36.264.792.396 1.296.396s.932-.132 1.284-.396c.36-.272.54-.604.54-.996s-.18-.72-.54-.984c-.352-.272-.78-.408-1.284-.408s-.936.136-1.296.408c-.352.264-.528.592-.528.984s.176.724.528.996Z" fill="#666B73"/><path d="M156.648 420.936c1.016 0 1.78.244 2.292.732.52.488.78 1.14.78 1.956 0 .728-.244 1.36-.732 1.896-.488.528-1.14.792-1.956.792h-1.728V429h-1.536v-8.064h2.88Zm.192 3.84c.376 0 .692-.108.948-.324.264-.216.396-.492.396-.828 0-.368-.128-.652-.384-.852-.248-.2-.568-.3-.96-.3h-1.536v2.304h1.536Zm7.872 2.88c.8 0 1.468-.276 2.004-.828l.588 1.392c-.336.304-.74.544-1.212.72-.472.168-.94.252-1.404.252-1.184 0-2.196-.412-3.036-1.236-.84-.832-1.26-1.828-1.26-2.988s.42-2.152 1.26-2.976c.84-.832 1.852-1.248 3.036-1.248.464 0 .932.084 1.404.252.472.168.876.404 1.212.708l-.588 1.392a2.776 2.776 0 0 0-2.004-.816c-.768 0-1.424.264-1.968.792a2.525 2.525 0 0 0-.816 1.896c0 .744.272 1.38.816 1.908.544.52 1.2.78 1.968.78ZM178.24 429h-1.872l-1.812-2.688h-.924V429h-1.536v-8.064h2.88c1.016 0 1.78.244 2.292.732.52.488.78 1.14.78 1.956 0 .584-.164 1.116-.492 1.596-.328.472-.78.796-1.356.972l2.04 2.808Zm-4.608-6.528v2.304h1.536c.376 0 .692-.108.948-.324.264-.216.396-.492.396-.828 0-.368-.128-.652-.384-.852-.248-.2-.568-.3-.96-.3h-1.536Zm5.918 1.308a3.055 3.055 0 0 1 2.244-.924c.88 0 1.628.308 2.244.924.616.616.924 1.364.924 2.244 0 .88-.308 1.628-.924 2.244a3.055 3.055 0 0 1-2.244.924c-.88 0-1.628-.308-2.244-.924a3.055 3.055 0 0 1-.924-2.244c0-.88.308-1.628.924-2.244Zm1.092 3.396c.32.32.704.48 1.152.48.448 0 .832-.16 1.152-.48.32-.32.48-.704.48-1.152 0-.448-.16-.832-.48-1.152-.32-.32-.704-.48-1.152-.48-.448 0-.832.16-1.152.48-.32.32-.48.704-.48 1.152 0 .448.16.832.48 1.152Zm5.282-6.624h1.536V429h-1.536v-8.448Zm2.977 0h1.536V429h-1.536v-8.448Zm8.451 5.472c0 .112-.008.272-.024.48h-4.332c.112.408.316.736.612.984.304.24.688.36 1.152.36.664 0 1.256-.184 1.776-.552l.444 1.332c-.064.04-.156.092-.276.156-.112.064-.364.148-.756.252a4.617 4.617 0 0 1-1.212.156c-1.104 0-1.936-.296-2.496-.888-.56-.592-.84-1.352-.84-2.28 0-.928.264-1.688.792-2.28.528-.592 1.288-.888 2.28-.888.928 0 1.64.28 2.136.84.496.552.744 1.328.744 2.328Zm-4.32-.672h2.688c0-.288-.12-.552-.36-.792-.232-.24-.56-.36-.984-.36-.36 0-.676.128-.948.384-.264.248-.396.504-.396.768Zm8.058-2.496c.736 0 1.344.276 1.824.828v-3.132h1.536V429h-1.536v-.636a2.312 2.312 0 0 1-1.824.828c-.824 0-1.528-.308-2.112-.924-.576-.624-.864-1.372-.864-2.244 0-.872.288-1.616.864-2.232.584-.624 1.288-.936 2.112-.936Zm-.96 4.32c.32.32.704.48 1.152.48.448 0 .832-.16 1.152-.48.32-.32.48-.704.48-1.152 0-.448-.16-.832-.48-1.152-.32-.32-.704-.48-1.152-.48-.448 0-.832.16-1.152.48-.32.32-.48.704-.48 1.152 0 .448.16.832.48 1.152Zm15.357-6.24 1.536 5.376 1.92-5.376h1.728l-2.88 8.064h-1.536l-1.44-4.992-1.44 4.992h-1.536l-2.88-8.064h1.728l1.92 5.376 1.536-5.376h1.344Zm9.693 2.112h1.536V429h-1.536v-.636a2.312 2.312 0 0 1-1.824.828c-.824 0-1.528-.308-2.112-.924-.576-.624-.864-1.372-.864-2.244 0-.872.288-1.616.864-2.232.584-.624 1.288-.936 2.112-.936.736 0 1.344.276 1.824.828v-.636Zm-2.784 4.128c.32.32.704.48 1.152.48.448 0 .832-.16 1.152-.48.32-.32.48-.704.48-1.152 0-.448-.16-.832-.48-1.152-.32-.32-.704-.48-1.152-.48-.448 0-.832.16-1.152.48-.32.32-.48.704-.48 1.152 0 .448.16.832.48 1.152Zm5.379-4.128h.768c.016-1.792.656-2.688 1.92-2.688.336 0 .656.064.96.192v1.344c-.192-.04-.36-.06-.504-.06a1.587 1.587 0 0 0-.348.012.43.43 0 0 0-.24.12.883.883 0 0 0-.144.18.636.636 0 0 0-.072.252c-.016.12-.028.22-.036.3v.348h1.344v1.344h-1.344V429h-1.536v-4.608h-.768v-1.344Zm10.17 2.976c0 .112-.008.272-.024.48h-4.332c.112.408.316.736.612.984.304.24.688.36 1.152.36.664 0 1.256-.184 1.776-.552l.444 1.332c-.064.04-.156.092-.276.156-.112.064-.364.148-.756.252a4.617 4.617 0 0 1-1.212.156c-1.104 0-1.936-.296-2.496-.888-.56-.592-.84-1.352-.84-2.28 0-.928.264-1.688.792-2.28.528-.592 1.288-.888 2.28-.888.928 0 1.64.28 2.136.84.496.552.744 1.328.744 2.328Zm-4.32-.672h2.688c0-.288-.12-.552-.36-.792-.232-.24-.56-.36-.984-.36-.36 0-.676.128-.948.384-.264.248-.396.504-.396.768Zm6.816-1.044c.192-.44.512-.78.96-1.02.448-.248.96-.392 1.536-.432v1.812a2.165 2.165 0 0 0-1.152 0 1.874 1.874 0 0 0-.948.636c-.264.312-.396.712-.396 1.2V429h-1.536v-5.952h1.536v1.26Zm6.247.9c.92.144 1.548.38 1.884.708.336.328.504.716.504 1.164 0 .624-.236 1.132-.708 1.524-.464.392-1.1.588-1.908.588a4.722 4.722 0 0 1-1.692-.288c-.496-.192-.852-.384-1.068-.576l.504-1.44c.256.24.58.44.972.6.4.152.78.232 1.14.24.816.016 1.224-.156 1.224-.516 0-.128-.076-.224-.228-.288-.144-.064-.42-.132-.828-.204a7.905 7.905 0 0 1-1.344-.324c-.352-.136-.616-.292-.792-.468a1.525 1.525 0 0 1-.36-.564 2.17 2.17 0 0 1-.096-.684c0-.496.244-.924.732-1.284s1.112-.54 1.872-.54c.8 0 1.572.192 2.316.576l-.432 1.392c-.168-.12-.432-.232-.792-.336a4.252 4.252 0 0 0-1.092-.168c-.712-.016-1.068.104-1.068.36 0 .2.24.344.72.432.072.016.188.036.348.06l.192.036Zm3.153 5.136.672-2.88h1.728l-1.44 2.88h-.96Zm12.384-9.408h1.536V429h-1.536v-3.264h-3.456V429h-1.536v-8.064h1.536v3.264h3.456v-3.264Zm7.486 2.112h1.536V429h-1.536v-.636a2.312 2.312 0 0 1-1.824.828c-.824 0-1.528-.308-2.112-.924-.576-.624-.864-1.372-.864-2.244 0-.872.288-1.616.864-2.232.584-.624 1.288-.936 2.112-.936.736 0 1.344.276 1.824.828v-.636Zm-2.784 4.128c.32.32.704.48 1.152.48.448 0 .832-.16 1.152-.48.32-.32.48-.704.48-1.152 0-.448-.16-.832-.48-1.152-.32-.32-.704-.48-1.152-.48-.448 0-.832.16-1.152.48-.32.32-.48.704-.48 1.152 0 .448.16.832.48 1.152ZM277.204 429h-4.992l2.592-4.416h-2.4v-1.536h4.992l-2.592 4.416h2.4V429Zm6.913-2.976c0 .112-.008.272-.024.48h-4.332c.112.408.316.736.612.984.304.24.688.36 1.152.36.664 0 1.256-.184 1.776-.552l.444 1.332c-.064.04-.156.092-.276.156-.112.064-.364.148-.756.252a4.617 4.617 0 0 1-1.212.156c-1.104 0-1.936-.296-2.496-.888-.56-.592-.84-1.352-.84-2.28 0-.928.264-1.688.792-2.28.528-.592 1.288-.888 2.28-.888.928 0 1.64.28 2.136.84.496.552.744 1.328.744 2.328Zm-4.32-.672h2.688c0-.288-.12-.552-.36-.792-.232-.24-.56-.36-.984-.36-.36 0-.676.128-.948.384-.264.248-.396.504-.396.768Zm5.28-4.8h1.536V429h-1.536v-8.448Zm6.312 2.304c.696 0 1.24.228 1.632.684.4.456.6 1.124.6 2.004V429h-1.536v-3.264c0-.464-.092-.804-.276-1.02-.184-.216-.476-.324-.876-.324-.384 0-.704.128-.96.384s-.384.64-.384 1.152V429h-1.536v-5.952h1.536v.576c.432-.512 1.032-.768 1.8-.768Zm5.524 6.336c-.696 0-1.244-.228-1.644-.684-.392-.456-.588-1.124-.588-2.004v-3.456h1.536v3.264c0 .464.092.804.276 1.02.192.216.484.324.876.324.384 0 .704-.128.96-.384s.384-.64.384-1.152v-3.072h1.536V429h-1.536v-.576c-.432.512-1.032.768-1.8.768Zm5.259-1.884v-2.916h-.768v-1.344h.768v-2.112h1.536v2.112h1.152v1.344h-1.152v2.496c0 .424.096.688.288.792.2.104.488.096.864-.024V429c-.32.128-.696.192-1.128.192-.528 0-.92-.168-1.176-.504-.256-.344-.384-.804-.384-1.38Zm10.558-6.948c-1.024 1.552-1.536 3.216-1.536 4.992 0 1.776.512 3.44 1.536 4.992l-1.536.576c-1.024-1.856-1.536-3.712-1.536-5.568 0-1.856.512-3.712 1.536-5.568l1.536.576Zm6.527 5.568h.96v1.536h-.96V429h-1.536v-1.536h-4.032v-1.344l3.648-5.184h1.92v4.992Zm-1.536 0v-3.168l-2.148 3.168h2.148Zm4.532-3.96c.592-.816 1.352-1.224 2.28-1.224.928 0 1.688.408 2.28 1.224.592.816.888 1.816.888 3s-.296 2.184-.888 3c-.592.816-1.352 1.224-2.28 1.224-.936 0-1.7-.404-2.292-1.212-.584-.816-.876-1.82-.876-3.012 0-1.184.296-2.184.888-3Zm1.128 4.908c.32.52.704.78 1.152.78.448 0 .832-.26 1.152-.78.32-.528.48-1.164.48-1.908s-.16-1.376-.48-1.896c-.32-.528-.704-.792-1.152-.792-.448 0-.832.264-1.152.792-.32.52-.48 1.152-.48 1.896s.16 1.38.48 1.908Zm6.36-4.908c.592-.816 1.352-1.224 2.28-1.224.928 0 1.688.408 2.28 1.224.592.816.888 1.816.888 3s-.296 2.184-.888 3c-.592.816-1.352 1.224-2.28 1.224-.936 0-1.7-.404-2.292-1.212-.584-.816-.876-1.82-.876-3.012 0-1.184.296-2.184.888-3Zm1.128 4.908c.32.52.704.78 1.152.78.448 0 .832-.26 1.152-.78.32-.528.48-1.164.48-1.908s-.16-1.376-.48-1.896c-.32-.528-.704-.792-1.152-.792-.448 0-.832.264-1.152.792-.32.52-.48 1.152-.48 1.896s.16 1.38.48 1.908Zm10.081-3.828h1.536v5.376c0 1.248-.284 2.2-.852 2.856-.56.656-1.364.984-2.412.984-.376 0-.744-.044-1.104-.132a3.665 3.665 0 0 1-.924-.324 5.657 5.657 0 0 1-.564-.312 2.969 2.969 0 0 1-.288-.192l.72-1.356c.224.192.528.368.912.528.384.168.8.252 1.248.252.52 0 .936-.176 1.248-.528.32-.344.48-.784.48-1.32v-.516a2.312 2.312 0 0 1-1.824.828c-.824 0-1.528-.308-2.112-.924-.576-.624-.864-1.372-.864-2.244 0-.872.288-1.616.864-2.232.584-.624 1.288-.936 2.112-.936.736 0 1.344.276 1.824.828v-.636Zm-2.784 4.128c.32.32.704.48 1.152.48.448 0 .832-.16 1.152-.48.32-.32.48-.704.48-1.152 0-.448-.16-.832-.48-1.152-.32-.32-.704-.48-1.152-.48-.448 0-.832.16-1.152.48-.32.32-.48.704-.48 1.152 0 .448.16.832.48 1.152Zm5.472-6.816 1.536-.576c1.024 1.856 1.536 3.712 1.536 5.568 0 1.856-.512 3.712-1.536 5.568l-1.536-.576c1.024-1.552 1.536-3.216 1.536-4.992 0-1.776-.512-3.44-1.536-4.992Z" fill="#333"/><rect x="136.5" y="253.5" width="447" height="36" rx="3.5" fill="#fff" stroke="#F3F5F6"/><path d="M167.5 274h-.79l-.28-.27a6.471 6.471 0 0 0 1.57-4.23 6.5 6.5 0 1 0-6.5 6.5c1.61 0 3.09-.59 4.23-1.57l.27.28v.79l5 4.99 1.49-1.49-4.99-5Zm-6 0c-2.49 0-4.5-2.01-4.5-4.5s2.01-4.5 4.5-4.5 4.5 2.01 4.5 4.5-2.01 4.5-4.5 4.5Z" fill="#333"/><path d="M188.354 271.512c-1.484-.294-2.128-.63-2.128-1.358 0-.84.728-1.33 2.016-1.33 1.176 0 1.932.518 2.422.994l.644-1.218c-1.162-1.078-2.646-1.12-3.038-1.12-2.198 0-3.388 1.204-3.388 2.73 0 1.26.742 2.198 3.36 2.646 1.288.224 2.142.686 2.142 1.442 0 .896-.77 1.47-2.184 1.47-1.106 0-2.184-.518-2.968-1.386l-.672 1.204c.14.168 1.344 1.526 3.612 1.526 2.198 0 3.556-1.232 3.556-2.87 0-1.582-1.134-2.296-3.374-2.73Zm10.987 2.156c0-2.184-1.372-3.5-3.15-3.5-2.058 0-3.346 1.554-3.346 3.472 0 1.89 1.176 3.472 3.528 3.472 1.456 0 2.338-.658 2.52-.812l-.448-1.204a3.566 3.566 0 0 1-2.044.672c-1.064 0-1.974-.462-2.184-1.512h5.082c.028-.182.042-.448.042-.588Zm-5.124-.644c.028-.658.686-1.512 1.918-1.512 1.274 0 1.806.854 1.834 1.512h-3.752Zm11.843-2.744v.98c-.546-.714-1.33-1.092-2.24-1.092-1.96 0-3.36 1.554-3.36 3.472s1.4 3.472 3.36 3.472c.91 0 1.694-.378 2.24-1.092v.98h1.344v-6.72h-1.344Zm-2.128 5.488a2.127 2.127 0 1 1 0-4.256 2.127 2.127 0 1 1 0 4.256Zm6.729-4.046v-1.442h-1.344V277h1.344v-2.996c0-1.232.574-1.974 1.456-2.31.42-.154.91-.154 1.232-.056v-1.47c-1.26 0-2.226.588-2.688 1.554Zm3.362 1.918c0 1.918 1.33 3.472 3.584 3.472.812 0 1.708-.266 2.24-.77l-.574-1.26a2.34 2.34 0 0 1-1.652.686c-1.246 0-2.254-.966-2.254-2.142 0-1.148 1.008-2.114 2.254-2.114.644 0 1.232.266 1.652.672l.574-1.246c-.588-.532-1.428-.77-2.24-.77-2.226 0-3.584 1.554-3.584 3.472Zm10.728-3.472c-1.05 0-1.708.448-2.1.896v-3.92h-1.344V277h1.344v-3.696c0-1.148 1.036-1.792 1.848-1.792 1.148 0 1.512.658 1.512 1.736V277h1.344v-3.752c0-1.988-.896-3.08-2.604-3.08Z" fill="#666B73"/></g></g><circle cx="549" cy="133" r="36" fill="#467E1B"/><g clip-path="url(#loblaw-card__e)"><path d="M549.959 150.015a6.187 6.187 0 0 1-9.577.47l-11.149-12.373a4.79 4.79 0 1 1 7.117-6.414l7.888 8.755a.584.584 0 0 0 .901-.045l16.214-21.99a4.79 4.79 0 1 1 7.711 5.685l-19.105 25.912Z" fill="#fff"/></g><circle cx="423" cy="133" r="36" fill="#D57F07"/><g clip-path="url(#loblaw-card__f)" fill="#fff"><path d="M444.069 113.733a1.73 1.73 0 0 0-1.265-.534c-.488 0-.909.178-1.266.534l-3.656 3.629a21.77 21.77 0 0 0-6.891-4.402 21.214 21.214 0 0 0-7.988-1.561c-5.156 0-9.656 1.561-13.5 4.683-3.844 3.122-6.375 7.195-7.594 12.22v.197c0 .244.089.455.267.633a.867.867 0 0 0 .633.267h5.597c.413 0 .694-.216.844-.647.787-1.875 1.284-2.972 1.49-3.291a14.183 14.183 0 0 1 5.232-5.034 14.149 14.149 0 0 1 7.031-1.828c3.769 0 7.041 1.284 9.816 3.853l-3.882 3.881a1.734 1.734 0 0 0-.534 1.266c0 .487.179.909.534 1.266.357.356.779.534 1.266.534h12.601a1.73 1.73 0 0 0 1.265-.534c.356-.357.534-.779.534-1.266v-12.6c0-.488-.177-.91-.534-1.266ZM443 136.6h-5.4c-.413 0-.694.216-.844.647-.787 1.875-1.284 2.971-1.49 3.29a14.198 14.198 0 0 1-5.231 5.035 14.155 14.155 0 0 1-7.032 1.828 14.03 14.03 0 0 1-5.259-1.012 14.513 14.513 0 0 1-4.528-2.87l3.853-3.853a1.73 1.73 0 0 0 .534-1.265c0-.488-.178-.91-.534-1.266a1.727 1.727 0 0 0-1.266-.535h-12.6c-.488 0-.91.178-1.266.535a1.73 1.73 0 0 0-.534 1.266V151c0 .487.178.909.534 1.266.357.355.779.534 1.266.534.488 0 .909-.179 1.266-.534l3.628-3.629a21.484 21.484 0 0 0 6.849 4.416 21.073 21.073 0 0 0 7.945 1.546c5.138 0 9.619-1.561 13.444-4.682 3.825-3.122 6.337-7.196 7.538-12.221a.475.475 0 0 0 .028-.196.868.868 0 0 0-.268-.633.869.869 0 0 0-.633-.267Z"/></g><circle cx="171" cy="133" r="36" fill="#E1251B"/><g clip-path="url(#loblaw-card__g)"><path d="m187.782 122.093-10.907 10.909 10.907 10.908a4.153 4.153 0 0 1-2.936 7.092 4.133 4.133 0 0 1-2.937-1.217l-10.91-10.909-10.909 10.909a4.141 4.141 0 0 1-2.937 1.217 4.153 4.153 0 0 1-2.936-7.092l10.907-10.908-10.908-10.909a4.154 4.154 0 0 1 5.873-5.875l10.91 10.909 10.909-10.909a4.153 4.153 0 1 1 5.874 5.875Z" fill="#fff"/></g><circle cx="297" cy="133" r="36" fill="#4C4C4C"/><g clip-path="url(#loblaw-card__h)"><path d="M306.416 109.309c-.56 0-1.031.191-1.415.575-.383.383-.573.854-.574 1.414l-.022 5.723c-3.064.088-6.022.74-8.872 1.955a23.598 23.598 0 0 0-7.502 5.05c-4.051 4.052-6.36 8.813-6.927 14.286-.568 5.473.643 10.662 3.634 15.568l.155.154a.954.954 0 0 0 .707.287.96.96 0 0 0 .707-.287l4.397-4.397c.324-.324.376-.715.155-1.171-.854-2.092-1.326-3.344-1.414-3.757a15.748 15.748 0 0 1 .154-8.065 15.728 15.728 0 0 1 4.088-6.961c2.962-2.961 6.541-4.523 10.74-4.685l-.001 6.099c.001.559.192 1.031.575 1.415.383.383.855.574 1.414.574.56 0 1.032-.192 1.415-.575l9.899-9.899a1.92 1.92 0 0 0 .575-1.415c0-.559-.192-1.03-.575-1.413l-9.899-9.9a1.918 1.918 0 0 0-1.414-.575Z" fill="#fff"/></g></g><defs><clipPath id="loblaw-card__a"><path fill="#fff" d="M0 0h720v500H0z"/></clipPath><clipPath id="loblaw-card__c"><rect x="118" y="235" width="484" height="687" rx="4" fill="#fff"/></clipPath><clipPath id="loblaw-card__e"><path fill="#fff" transform="translate(528 113.5)" d="M0 0h42v42H0z"/></clipPath><clipPath id="loblaw-card__f"><path fill="#fff" transform="translate(401.4 111.4)" d="M0 0h43.2v43.2H0z"/></clipPath><clipPath id="loblaw-card__g"><path fill="#fff" transform="translate(153 115)" d="M0 0h36v36H0z"/></clipPath><clipPath id="loblaw-card__h"><path fill="#fff" transform="rotate(-45 305.732 -256.697)" d="M0 0h48v48H0z"/></clipPath><filter id="loblaw-card__b" x="116" y="233" width="488" height="691" filterUnits="userSpaceOnUse" color-interpolation-filters="sRGB"><feFlood flood-opacity="0" result="BackgroundImageFix"/><feColorMatrix in="SourceAlpha" values="0 0 0 0 0 0 0 0 0 0 0 0 0 0 0 0 0 0 127 0" result="hardAlpha"/><feOffset/><feGaussianBlur stdDeviation="1"/><feColorMatrix values="0 0 0 0 0 0 0 0 0 0 0 0 0 0 0 0 0 0 0.12 0"/><feBlend in2="BackgroundImageFix" result="effect1_dropShadow_1035_8101"/><feColorMatrix in="SourceAlpha" values="0 0 0 0 0 0 0 0 0 0 0 0 0 0 0 0 0 0 127 0" result="hardAlpha"/><feOffset dy="1"/><feGaussianBlur stdDeviation=".5"/><feColorMatrix values="0 0 0 0 0 0 0 0 0 0 0 0 0 0 0 0 0 0 0.12 0"/><feBlend in2="effect1_dropShadow_1035_8101" result="effect2_dropShadow_1035_8101"/><feBlend in="SourceGraphic" in2="effect2_dropShadow_1035_8101" result="shape"/></filter><filter id="loblaw-card__d" x="116" y="233" width="488" height="691" filterUnits="userSpaceOnUse" color-interpolation-filters="sRGB"><feFlood flood-opacity="0" result="BackgroundImageFix"/><feColorMatrix in="SourceAlpha" values="0 0 0 0 0 0 0 0 0 0 0 0 0 0 0 0 0 0 127 0" result="hardAlpha"/><feOffset dy="1"/><feGaussianBlur stdDeviation=".5"/><feColorMatrix values="0 0 0 0 0 0 0 0 0 0 0 0 0 0 0 0 0 0 0.12 0"/><feBlend in2="BackgroundImageFix" result="effect1_dropShadow_1035_8101"/><feColorMatrix in="SourceAlpha" values="0 0 0 0 0 0 0 0 0 0 0 0 0 0 0 0 0 0 127 0" result="hardAlpha"/><feOffset/><feGaussianBlur stdDeviation="1"/><feColorMatrix values="0 0 0 0 0 0 0 0 0 0 0 0 0 0 0 0 0 0 0.12 0"/><feBlend in2="effect1_dropShadow_1035_8101" result="effect2_dropShadow_1035_8101"/><feBlend in="SourceGraphic" in2="effect2_dropShadow_1035_8101" result="shape"/></filter></defs></svg>