<svg width="45" height="45" viewBox="0 0 45 45" fill="none" xmlns="http://www.w3.org/2000/svg">
<path d="M23.4732 36.8234C22.9584 37.3383 22.1236 37.3383 21.6088 36.8234L11.4322 26.6469C10.9174 26.132 10.9174 25.2972 11.4323 24.7824L12.4075 23.8072C12.9223 23.2924 13.7571 23.2924 14.2719 23.8072L21.6088 31.1441C22.1236 31.6589 22.9584 31.6589 23.4732 31.1441L30.8101 23.8072C31.325 23.2924 32.1597 23.2924 32.6745 23.8072L33.6498 24.7824C34.1646 25.2972 34.1647 26.132 33.6498 26.6469L23.4732 36.8234Z" fill="#004080"/>
<path d="M23.4732 21.8234C22.9584 22.3383 22.1236 22.3383 21.6088 21.8234L11.4322 11.6469C10.9174 11.132 10.9174 10.2972 11.4323 9.78239L12.4075 8.8072C12.9223 8.29236 13.7571 8.29237 14.2719 8.80721L21.6088 16.1441C22.1236 16.6589 22.9584 16.6589 23.4732 16.1441L30.8101 8.80721C31.325 8.29236 32.1597 8.29236 32.6745 8.8072L33.6498 9.7824C34.1646 10.2972 34.1647 11.132 33.6498 11.6469L23.4732 21.8234Z" fill="#004080"/>
</svg>
