<svg width="1000" height="67" viewBox="0 0 1000 67" fill="none" xmlns="http://www.w3.org/2000/svg">
<path d="M323 11C323 5.47715 327.477 1 333 1H666C671.523 1 676 5.47715 676 11V56C676 61.5228 671.523 66 666 66H333C327.477 66 323 61.5228 323 56V11Z" fill="#FEF2F2"/>
<path fill-rule="evenodd" clip-rule="evenodd" d="M356.6 33.4999C356.6 38.8018 352.302 43.0999 347 43.0999C341.698 43.0999 337.4 38.8018 337.4 33.4999C337.4 28.198 341.698 23.8999 347 23.8999C352.302 23.8999 356.6 28.198 356.6 33.4999ZM348.2 38.2999C348.2 38.9626 347.663 39.4999 347 39.4999C346.337 39.4999 345.8 38.9626 345.8 38.2999C345.8 37.6372 346.337 37.0999 347 37.0999C347.663 37.0999 348.2 37.6372 348.2 38.2999ZM347 27.4999C346.337 27.4999 345.8 28.0372 345.8 28.6999V33.4999C345.8 34.1626 346.337 34.6999 347 34.6999C347.663 34.6999 348.2 34.1626 348.2 33.4999V28.6999C348.2 28.0372 347.663 27.4999 347 27.4999Z" fill="#EF4444"/>
<path d="M371.546 29.2393C370.785 29.2393 370.133 29.0296 369.591 28.6104C369.049 28.1911 368.632 27.5964 368.34 26.8262C368.048 26.0514 367.902 25.1331 367.902 24.0713V24.0576C367.902 22.9958 368.048 22.0798 368.34 21.3096C368.632 20.5394 369.049 19.9447 369.591 19.5254C370.133 19.1061 370.785 18.8965 371.546 18.8965C372.307 18.8965 372.959 19.1061 373.501 19.5254C374.043 19.9447 374.46 20.5394 374.752 21.3096C375.048 22.0798 375.196 22.9958 375.196 24.0576V24.0713C375.196 25.1331 375.048 26.0514 374.752 26.8262C374.46 27.5964 374.043 28.1911 373.501 28.6104C372.959 29.0296 372.307 29.2393 371.546 29.2393ZM371.546 27.9609C371.988 27.9609 372.364 27.8037 372.674 27.4893C372.988 27.1748 373.228 26.7282 373.392 26.1494C373.56 25.5661 373.645 24.8734 373.645 24.0713V24.0576C373.645 23.2555 373.56 22.5651 373.392 21.9863C373.228 21.4076 372.988 20.9632 372.674 20.6533C372.364 20.3389 371.988 20.1816 371.546 20.1816C371.108 20.1816 370.732 20.3389 370.418 20.6533C370.108 20.9632 369.869 21.4076 369.7 21.9863C369.536 22.5651 369.454 23.2555 369.454 24.0576V24.0713C369.454 24.8734 369.536 25.5661 369.7 26.1494C369.869 26.7282 370.108 27.1748 370.418 27.4893C370.732 27.8037 371.108 27.9609 371.546 27.9609ZM381.429 29V22.7451H380.205V21.5762H381.429V20.7969C381.429 20.0586 381.618 19.5072 381.996 19.1426C382.379 18.778 382.958 18.5957 383.732 18.5957C383.896 18.5957 384.049 18.6025 384.19 18.6162C384.336 18.6253 384.475 18.6413 384.607 18.6641V19.7578C384.539 19.7441 384.455 19.735 384.354 19.7305C384.259 19.7214 384.154 19.7168 384.04 19.7168C383.63 19.7168 383.336 19.8148 383.158 20.0107C382.985 20.2067 382.898 20.4915 382.898 20.8652V21.5762H384.539V22.7451H382.912V29H381.429ZM386.165 29V21.5762H387.648V22.6973H387.765C387.897 22.3008 388.129 21.9932 388.462 21.7744C388.799 21.5557 389.214 21.4463 389.706 21.4463C389.829 21.4463 389.95 21.4531 390.068 21.4668C390.187 21.4805 390.283 21.4964 390.355 21.5146V22.8818C390.223 22.8545 390.091 22.834 389.959 22.8203C389.831 22.8066 389.697 22.7998 389.556 22.7998C389.177 22.7998 388.845 22.8727 388.558 23.0186C388.275 23.1644 388.052 23.3695 387.888 23.6338C387.728 23.8936 387.648 24.2035 387.648 24.5635V29H386.165ZM394.668 29.1436C393.943 29.1436 393.321 28.9886 392.802 28.6787C392.282 28.3643 391.881 27.9199 391.599 27.3457C391.321 26.7715 391.182 26.0924 391.182 25.3086V25.3018C391.182 24.527 391.321 23.8503 391.599 23.2715C391.881 22.6927 392.278 22.2415 392.788 21.918C393.303 21.5944 393.905 21.4326 394.593 21.4326C395.285 21.4326 395.88 21.5876 396.377 21.8975C396.878 22.2074 397.263 22.6426 397.532 23.2031C397.801 23.7591 397.936 24.4108 397.936 25.1582V25.6777H391.934V24.6182H397.197L396.486 25.6025V25.0078C396.486 24.4792 396.404 24.0417 396.24 23.6953C396.081 23.3444 395.86 23.0824 395.577 22.9092C395.295 22.736 394.969 22.6494 394.6 22.6494C394.23 22.6494 393.9 22.7406 393.608 22.9229C393.321 23.1006 393.093 23.3649 392.925 23.7158C392.761 24.0667 392.679 24.4974 392.679 25.0078V25.6025C392.679 26.0902 392.761 26.5072 392.925 26.8535C393.089 27.1999 393.321 27.4642 393.622 27.6465C393.927 27.8288 394.287 27.9199 394.702 27.9199C395.021 27.9199 395.295 27.8766 395.522 27.79C395.755 27.6989 395.944 27.5872 396.09 27.4551C396.24 27.3229 396.343 27.193 396.397 27.0654L396.425 27.0107H397.86L397.847 27.0723C397.783 27.3184 397.671 27.5645 397.512 27.8105C397.352 28.0521 397.14 28.2731 396.876 28.4736C396.616 28.6742 396.302 28.8359 395.933 28.959C395.568 29.082 395.146 29.1436 394.668 29.1436ZM402.774 29.1436C402.05 29.1436 401.428 28.9886 400.908 28.6787C400.389 28.3643 399.988 27.9199 399.705 27.3457C399.427 26.7715 399.288 26.0924 399.288 25.3086V25.3018C399.288 24.527 399.427 23.8503 399.705 23.2715C399.988 22.6927 400.384 22.2415 400.894 21.918C401.409 21.5944 402.011 21.4326 402.699 21.4326C403.392 21.4326 403.987 21.5876 404.483 21.8975C404.985 22.2074 405.37 22.6426 405.639 23.2031C405.908 23.7591 406.042 24.4108 406.042 25.1582V25.6777H400.04V24.6182H405.304L404.593 25.6025V25.0078C404.593 24.4792 404.511 24.0417 404.347 23.6953C404.187 23.3444 403.966 23.0824 403.684 22.9092C403.401 22.736 403.075 22.6494 402.706 22.6494C402.337 22.6494 402.006 22.7406 401.715 22.9229C401.428 23.1006 401.2 23.3649 401.031 23.7158C400.867 24.0667 400.785 24.4974 400.785 25.0078V25.6025C400.785 26.0902 400.867 26.5072 401.031 26.8535C401.195 27.1999 401.428 27.4642 401.728 27.6465C402.034 27.8288 402.394 27.9199 402.809 27.9199C403.128 27.9199 403.401 27.8766 403.629 27.79C403.861 27.6989 404.05 27.5872 404.196 27.4551C404.347 27.3229 404.449 27.193 404.504 27.0654L404.531 27.0107H405.967L405.953 27.0723C405.889 27.3184 405.778 27.5645 405.618 27.8105C405.459 28.0521 405.247 28.2731 404.982 28.4736C404.723 28.6742 404.408 28.8359 404.039 28.959C403.674 29.082 403.253 29.1436 402.774 29.1436ZM414.243 29.123C413.623 29.123 413.081 28.9681 412.616 28.6582C412.156 28.3438 411.798 27.8994 411.543 27.3252C411.292 26.751 411.167 26.0742 411.167 25.2949V25.2812C411.167 24.4974 411.292 23.8184 411.543 23.2441C411.794 22.6699 412.149 22.2279 412.609 21.918C413.07 21.6035 413.614 21.4463 414.243 21.4463C414.754 21.4463 415.212 21.5648 415.617 21.8018C416.027 22.0342 416.33 22.3509 416.526 22.752H416.636V18.6641H418.126V29H416.636V27.8311H416.526C416.312 28.2367 416.009 28.5534 415.617 28.7812C415.225 29.0091 414.767 29.123 414.243 29.123ZM414.667 27.8516C415.077 27.8516 415.433 27.749 415.733 27.5439C416.034 27.3389 416.264 27.0449 416.424 26.6621C416.583 26.2747 416.663 25.819 416.663 25.2949V25.2812C416.663 24.7526 416.581 24.2969 416.417 23.9141C416.257 23.5312 416.027 23.2373 415.727 23.0322C415.43 22.8226 415.077 22.7178 414.667 22.7178C414.257 22.7178 413.901 22.8226 413.601 23.0322C413.304 23.2373 413.076 23.5312 412.917 23.9141C412.762 24.2923 412.685 24.748 412.685 25.2812V25.2949C412.685 25.8236 412.762 26.2793 412.917 26.6621C413.076 27.0449 413.304 27.3389 413.601 27.5439C413.901 27.749 414.257 27.8516 414.667 27.8516ZM423.43 29.1436C422.705 29.1436 422.078 28.9886 421.55 28.6787C421.026 28.3688 420.622 27.9268 420.34 27.3525C420.057 26.7738 419.916 26.0879 419.916 25.2949V25.2812C419.916 24.4837 420.057 23.7979 420.34 23.2236C420.627 22.6494 421.032 22.2074 421.557 21.8975C422.085 21.5876 422.71 21.4326 423.43 21.4326C424.154 21.4326 424.779 21.5876 425.303 21.8975C425.827 22.2028 426.23 22.6449 426.513 23.2236C426.8 23.7979 426.943 24.4837 426.943 25.2812V25.2949C426.943 26.0879 426.8 26.7738 426.513 27.3525C426.23 27.9268 425.827 28.3688 425.303 28.6787C424.783 28.9886 424.159 29.1436 423.43 29.1436ZM423.43 27.8994C423.853 27.8994 424.213 27.7969 424.51 27.5918C424.806 27.3822 425.032 27.0837 425.186 26.6963C425.341 26.3089 425.419 25.8418 425.419 25.2949V25.2812C425.419 24.7298 425.341 24.2604 425.186 23.873C425.032 23.4857 424.806 23.1895 424.51 22.9844C424.213 22.7747 423.853 22.6699 423.43 22.6699C423.006 22.6699 422.646 22.7747 422.35 22.9844C422.053 23.1895 421.825 23.4857 421.666 23.873C421.511 24.2604 421.434 24.7298 421.434 25.2812V25.2949C421.434 25.8418 421.511 26.3089 421.666 26.6963C421.825 27.0837 422.053 27.3822 422.35 27.5918C422.646 27.7969 423.006 27.8994 423.43 27.8994ZM431.789 29.1436C431.069 29.1436 430.447 28.9886 429.923 28.6787C429.403 28.3643 429.002 27.9176 428.72 27.3389C428.437 26.7601 428.296 26.0697 428.296 25.2676V25.2539C428.296 24.4655 428.435 23.7865 428.713 23.2168C428.995 22.6471 429.396 22.2074 429.916 21.8975C430.44 21.5876 431.062 21.4326 431.782 21.4326C432.407 21.4326 432.942 21.542 433.389 21.7607C433.84 21.9749 434.198 22.2712 434.462 22.6494C434.731 23.0231 434.899 23.4492 434.968 23.9277L434.975 23.9619H433.546L433.539 23.9482C433.457 23.5837 433.268 23.2806 432.972 23.0391C432.675 22.793 432.281 22.6699 431.789 22.6699C431.379 22.6699 431.026 22.7747 430.729 22.9844C430.433 23.1895 430.205 23.4857 430.046 23.873C429.891 24.2604 429.813 24.7207 429.813 25.2539V25.2676C429.813 25.8145 429.893 26.2839 430.053 26.6758C430.212 27.0677 430.44 27.3708 430.736 27.585C431.032 27.7946 431.383 27.8994 431.789 27.8994C432.254 27.8994 432.63 27.7969 432.917 27.5918C433.209 27.3867 433.414 27.0837 433.532 26.6826L433.546 26.6484L434.968 26.6416L434.954 26.7031C434.867 27.1862 434.692 27.61 434.428 27.9746C434.163 28.3392 433.81 28.6263 433.368 28.8359C432.931 29.041 432.404 29.1436 431.789 29.1436ZM439.082 29.1436C438.526 29.1436 438.057 29.0365 437.674 28.8223C437.295 28.6035 437.011 28.2891 436.819 27.8789C436.632 27.4642 436.539 26.9652 436.539 26.3818V21.5762H438.022V26.0332C438.022 26.6439 438.143 27.1019 438.385 27.4072C438.626 27.7126 439.02 27.8652 439.567 27.8652C439.959 27.8652 440.29 27.7878 440.559 27.6328C440.832 27.4733 441.037 27.25 441.174 26.9629C441.31 26.6712 441.379 26.3271 441.379 25.9307V21.5762H442.869V29H441.379V27.8789H441.269C441.092 28.2754 440.818 28.5853 440.449 28.8086C440.08 29.0319 439.624 29.1436 439.082 29.1436ZM444.96 29V21.5762H446.443V22.7178H446.559C446.724 22.3076 446.979 21.9909 447.325 21.7676C447.676 21.5443 448.095 21.4326 448.583 21.4326C448.92 21.4326 449.223 21.4873 449.492 21.5967C449.761 21.7061 449.991 21.861 450.183 22.0615C450.378 22.2575 450.531 22.4899 450.641 22.7588H450.757C450.88 22.4899 451.053 22.2575 451.276 22.0615C451.5 21.861 451.759 21.7061 452.056 21.5967C452.356 21.4873 452.675 21.4326 453.013 21.4326C453.514 21.4326 453.942 21.5306 454.298 21.7266C454.653 21.918 454.924 22.196 455.111 22.5605C455.298 22.9251 455.392 23.3649 455.392 23.8799V29H453.908V24.2354C453.908 23.7249 453.79 23.3421 453.553 23.0869C453.32 22.8317 452.962 22.7041 452.479 22.7041C452.165 22.7041 451.889 22.777 451.652 22.9229C451.42 23.0641 451.238 23.2555 451.105 23.4971C450.978 23.734 450.914 24.0029 450.914 24.3037V29H449.431V24.085C449.431 23.6611 449.301 23.3262 449.041 23.0801C448.786 22.8294 448.439 22.7041 448.002 22.7041C447.706 22.7041 447.439 22.7816 447.202 22.9365C446.97 23.0915 446.785 23.3011 446.648 23.5654C446.512 23.8252 446.443 24.1169 446.443 24.4404V29H444.96ZM460.545 29.1436C459.82 29.1436 459.198 28.9886 458.679 28.6787C458.159 28.3643 457.758 27.9199 457.475 27.3457C457.197 26.7715 457.059 26.0924 457.059 25.3086V25.3018C457.059 24.527 457.197 23.8503 457.475 23.2715C457.758 22.6927 458.155 22.2415 458.665 21.918C459.18 21.5944 459.781 21.4326 460.47 21.4326C461.162 21.4326 461.757 21.5876 462.254 21.8975C462.755 22.2074 463.14 22.6426 463.409 23.2031C463.678 23.7591 463.812 24.4108 463.812 25.1582V25.6777H457.81V24.6182H463.074L462.363 25.6025V25.0078C462.363 24.4792 462.281 24.0417 462.117 23.6953C461.958 23.3444 461.737 23.0824 461.454 22.9092C461.171 22.736 460.846 22.6494 460.476 22.6494C460.107 22.6494 459.777 22.7406 459.485 22.9229C459.198 23.1006 458.97 23.3649 458.802 23.7158C458.638 24.0667 458.556 24.4974 458.556 25.0078V25.6025C458.556 26.0902 458.638 26.5072 458.802 26.8535C458.966 27.1999 459.198 27.4642 459.499 27.6465C459.804 27.8288 460.164 27.9199 460.579 27.9199C460.898 27.9199 461.171 27.8766 461.399 27.79C461.632 27.6989 461.821 27.5872 461.967 27.4551C462.117 27.3229 462.22 27.193 462.274 27.0654L462.302 27.0107H463.737L463.724 27.0723C463.66 27.3184 463.548 27.5645 463.389 27.8105C463.229 28.0521 463.017 28.2731 462.753 28.4736C462.493 28.6742 462.179 28.8359 461.809 28.959C461.445 29.082 461.023 29.1436 460.545 29.1436ZM465.534 29V21.5762H467.017V22.6973H467.134C467.316 22.3008 467.585 21.9909 467.94 21.7676C468.296 21.5443 468.745 21.4326 469.287 21.4326C470.121 21.4326 470.759 21.6719 471.201 22.1504C471.643 22.6289 471.864 23.3102 471.864 24.1943V29H470.374V24.543C470.374 23.9232 470.244 23.4629 469.984 23.1621C469.729 22.8568 469.328 22.7041 468.781 22.7041C468.421 22.7041 468.109 22.7839 467.845 22.9434C467.58 23.0983 467.375 23.3216 467.229 23.6133C467.088 23.9004 467.017 24.2445 467.017 24.6455V29H465.534ZM476.689 29.0479C475.878 29.0479 475.29 28.8929 474.926 28.583C474.566 28.2686 474.386 27.7559 474.386 27.0449V22.7451H473.224V21.5762H474.386V19.7031H475.903V21.5762H477.496V22.7451H475.903V26.6826C475.903 27.0837 475.983 27.373 476.142 27.5508C476.302 27.724 476.566 27.8105 476.935 27.8105C477.045 27.8105 477.138 27.8083 477.216 27.8037C477.298 27.7992 477.391 27.7923 477.496 27.7832V28.9727C477.377 28.9909 477.25 29.0068 477.113 29.0205C476.976 29.0387 476.835 29.0479 476.689 29.0479ZM481.781 29.1436C481.184 29.1436 480.665 29.057 480.223 28.8838C479.78 28.7061 479.43 28.4622 479.17 28.1523C478.91 27.8379 478.757 27.4733 478.712 27.0586V27.0449H480.202V27.0586C480.298 27.3366 480.48 27.5622 480.749 27.7354C481.018 27.9085 481.373 27.9951 481.815 27.9951C482.121 27.9951 482.387 27.9518 482.615 27.8652C482.848 27.7786 483.03 27.6579 483.162 27.5029C483.294 27.348 483.36 27.1702 483.36 26.9697V26.9561C483.36 26.7236 483.267 26.5277 483.08 26.3682C482.893 26.2087 482.585 26.0788 482.157 25.9785L480.968 25.7051C480.27 25.5456 479.753 25.3018 479.416 24.9736C479.083 24.641 478.917 24.2035 478.917 23.6611V23.6543C478.917 23.2214 479.04 22.8385 479.286 22.5059C479.532 22.1686 479.872 21.9066 480.305 21.7197C480.742 21.5283 481.241 21.4326 481.802 21.4326C482.367 21.4326 482.859 21.5215 483.278 21.6992C483.702 21.8724 484.037 22.1139 484.283 22.4238C484.529 22.7292 484.675 23.0846 484.721 23.4902V23.4971H483.299V23.4834C483.23 23.2236 483.066 23.0072 482.807 22.834C482.551 22.6608 482.214 22.5742 481.795 22.5742C481.526 22.5742 481.287 22.6175 481.077 22.7041C480.867 22.7861 480.701 22.9023 480.578 23.0527C480.46 23.1986 480.4 23.3717 480.4 23.5723V23.5859C480.4 23.8184 480.491 24.0098 480.674 24.1602C480.856 24.3105 481.155 24.4359 481.569 24.5361L482.752 24.8027C483.463 24.9714 483.991 25.2152 484.338 25.5342C484.689 25.8532 484.864 26.2816 484.864 26.8193V26.833C484.864 27.2887 484.73 27.6921 484.461 28.043C484.192 28.3893 483.825 28.6605 483.36 28.8564C482.9 29.0479 482.374 29.1436 481.781 29.1436ZM490.427 29V18.6641H491.91V29H490.427ZM497.193 29.1436C496.469 29.1436 495.847 28.9886 495.327 28.6787C494.807 28.3643 494.406 27.9199 494.124 27.3457C493.846 26.7715 493.707 26.0924 493.707 25.3086V25.3018C493.707 24.527 493.846 23.8503 494.124 23.2715C494.406 22.6927 494.803 22.2415 495.313 21.918C495.828 21.5944 496.43 21.4326 497.118 21.4326C497.811 21.4326 498.405 21.5876 498.902 21.8975C499.404 22.2074 499.789 22.6426 500.057 23.2031C500.326 23.7591 500.461 24.4108 500.461 25.1582V25.6777H494.459V24.6182H499.723L499.012 25.6025V25.0078C499.012 24.4792 498.93 24.0417 498.765 23.6953C498.606 23.3444 498.385 23.0824 498.102 22.9092C497.82 22.736 497.494 22.6494 497.125 22.6494C496.756 22.6494 496.425 22.7406 496.134 22.9229C495.847 23.1006 495.619 23.3649 495.45 23.7158C495.286 24.0667 495.204 24.4974 495.204 25.0078V25.6025C495.204 26.0902 495.286 26.5072 495.45 26.8535C495.614 27.1999 495.847 27.4642 496.147 27.6465C496.453 27.8288 496.813 27.9199 497.227 27.9199C497.546 27.9199 497.82 27.8766 498.048 27.79C498.28 27.6989 498.469 27.5872 498.615 27.4551C498.765 27.3229 498.868 27.193 498.923 27.0654L498.95 27.0107H500.386L500.372 27.0723C500.308 27.3184 500.196 27.5645 500.037 27.8105C499.877 28.0521 499.666 28.2731 499.401 28.4736C499.141 28.6742 498.827 28.8359 498.458 28.959C498.093 29.082 497.672 29.1436 497.193 29.1436ZM502.709 29V22.7451H501.485V21.5762H502.709V20.7969C502.709 20.0586 502.898 19.5072 503.276 19.1426C503.659 18.778 504.238 18.5957 505.013 18.5957C505.177 18.5957 505.329 18.6025 505.471 18.6162C505.616 18.6253 505.755 18.6413 505.888 18.6641V19.7578C505.819 19.7441 505.735 19.735 505.635 19.7305C505.539 19.7214 505.434 19.7168 505.32 19.7168C504.91 19.7168 504.616 19.8148 504.438 20.0107C504.265 20.2067 504.179 20.4915 504.179 20.8652V21.5762H505.819V22.7451H504.192V29H502.709ZM510.275 29.0479C509.464 29.0479 508.876 28.8929 508.512 28.583C508.152 28.2686 507.972 27.7559 507.972 27.0449V22.7451H506.809V21.5762H507.972V19.7031H509.489V21.5762H511.082V22.7451H509.489V26.6826C509.489 27.0837 509.569 27.373 509.728 27.5508C509.888 27.724 510.152 27.8105 510.521 27.8105C510.631 27.8105 510.724 27.8083 510.802 27.8037C510.884 27.7992 510.977 27.7923 511.082 27.7832V28.9727C510.963 28.9909 510.836 29.0068 510.699 29.0205C510.562 29.0387 510.421 29.0479 510.275 29.0479Z" fill="#82181A"/>
<path d="M370.85 46.1992C370.232 46.1992 369.693 46.0996 369.232 45.9004C368.775 45.6973 368.412 45.4199 368.143 45.0684C367.877 44.7129 367.723 44.3066 367.68 43.8496L367.674 43.7852H368.729L368.734 43.8496C368.762 44.1309 368.869 44.375 369.057 44.582C369.248 44.7852 369.502 44.9434 369.818 45.0566C370.139 45.1699 370.502 45.2266 370.908 45.2266C371.291 45.2266 371.631 45.166 371.928 45.0449C372.229 44.9199 372.465 44.748 372.637 44.5293C372.809 44.3105 372.895 44.0586 372.895 43.7734V43.7676C372.895 43.416 372.766 43.1211 372.508 42.8828C372.25 42.6406 371.83 42.4551 371.248 42.3262L370.311 42.1211C369.463 41.9336 368.846 41.6445 368.459 41.2539C368.076 40.8594 367.885 40.3555 367.885 39.7422V39.7363C367.889 39.2676 368.016 38.8535 368.266 38.4941C368.52 38.1348 368.869 37.8535 369.314 37.6504C369.764 37.4473 370.279 37.3457 370.861 37.3457C371.424 37.3457 371.922 37.4473 372.355 37.6504C372.789 37.8496 373.133 38.1191 373.387 38.459C373.645 38.7988 373.787 39.1797 373.814 39.6016L373.82 39.6836H372.766L372.754 39.6074C372.715 39.3574 372.613 39.1367 372.449 38.9453C372.285 38.75 372.066 38.5957 371.793 38.4824C371.52 38.3691 371.199 38.3145 370.832 38.3184C370.48 38.3184 370.164 38.373 369.883 38.4824C369.602 38.5918 369.377 38.75 369.209 38.957C369.045 39.1602 368.963 39.4102 368.963 39.707V39.7129C368.963 40.0488 369.088 40.332 369.338 40.5625C369.588 40.793 370 40.9707 370.574 41.0957L371.512 41.3066C372.395 41.502 373.025 41.7852 373.404 42.1562C373.783 42.5273 373.973 43.0176 373.973 43.627V43.6328C373.973 44.1602 373.844 44.6152 373.586 44.998C373.328 45.3809 372.965 45.6777 372.496 45.8887C372.027 46.0957 371.479 46.1992 370.85 46.1992ZM377.693 46.1113C377.216 46.1113 376.816 46.0215 376.492 45.8418C376.167 45.6582 375.923 45.3926 375.759 45.0449C375.599 44.6934 375.519 44.2695 375.519 43.7734V39.6836H376.538V43.5273C376.538 44.0938 376.648 44.5156 376.867 44.793C377.089 45.0703 377.453 45.209 377.956 45.209C378.328 45.209 378.64 45.1367 378.894 44.9922C379.148 44.8477 379.339 44.6426 379.468 44.377C379.597 44.1074 379.662 43.7891 379.662 43.4219V39.6836H380.681V46H379.662V45.0566H379.568C379.412 45.3926 379.175 45.6523 378.859 45.8359C378.546 46.0195 378.158 46.1113 377.693 46.1113ZM385.702 46.1113C385.264 46.1113 384.876 46.0137 384.536 45.8184C384.196 45.6191 383.929 45.3438 383.733 44.9922H383.639V46H382.62V37.1758H383.639V40.6797H383.733C383.905 40.3438 384.167 40.0762 384.518 39.877C384.874 39.6738 385.268 39.5723 385.702 39.5723C386.237 39.5723 386.702 39.707 387.097 39.9766C387.495 40.2461 387.804 40.625 388.022 41.1133C388.241 41.6016 388.35 42.1758 388.35 42.8359V42.8477C388.35 43.5039 388.241 44.0781 388.022 44.5703C387.804 45.0586 387.495 45.4375 387.097 45.707C386.702 45.9766 386.237 46.1113 385.702 46.1113ZM385.468 45.209C385.854 45.209 386.184 45.1152 386.458 44.9277C386.731 44.7363 386.94 44.4648 387.085 44.1133C387.233 43.7578 387.307 43.3359 387.307 42.8477V42.8359C387.307 42.3438 387.233 41.9219 387.085 41.5703C386.94 41.2188 386.731 40.9492 386.458 40.7617C386.184 40.5703 385.854 40.4746 385.468 40.4746C385.085 40.4746 384.755 40.5703 384.477 40.7617C384.2 40.9531 383.987 41.2246 383.839 41.5762C383.69 41.9277 383.616 42.3477 383.616 42.8359V42.8477C383.616 43.332 383.69 43.752 383.839 44.1074C383.987 44.459 384.2 44.7305 384.477 44.9219C384.755 45.1133 385.085 45.209 385.468 45.209ZM392.076 46.1113C391.608 46.1113 391.194 46.041 390.834 45.9004C390.475 45.7559 390.186 45.5547 389.967 45.2969C389.752 45.0391 389.625 44.7363 389.586 44.3887H390.629C390.715 44.6504 390.883 44.8613 391.133 45.0215C391.383 45.1816 391.709 45.2617 392.112 45.2617C392.397 45.2617 392.647 45.2207 392.862 45.1387C393.08 45.0527 393.252 44.9375 393.377 44.793C393.502 44.6445 393.565 44.4746 393.565 44.2832V44.2715C393.565 44.0566 393.479 43.875 393.307 43.7266C393.135 43.5742 392.854 43.4512 392.463 43.3574L391.485 43.123C390.895 42.9824 390.461 42.7773 390.184 42.5078C389.907 42.2344 389.768 41.8711 389.768 41.418V41.4121C389.768 41.0605 389.869 40.7461 390.073 40.4688C390.28 40.1914 390.561 39.9727 390.916 39.8125C391.272 39.6523 391.672 39.5723 392.117 39.5723C392.559 39.5723 392.949 39.6426 393.289 39.7832C393.633 39.9199 393.908 40.1152 394.115 40.3691C394.326 40.623 394.455 40.9219 394.502 41.2656H393.5C393.434 41.0156 393.282 40.8125 393.043 40.6562C392.805 40.5 392.494 40.4219 392.112 40.4219C391.862 40.4219 391.639 40.4629 391.444 40.5449C391.248 40.623 391.094 40.7324 390.981 40.873C390.867 41.0137 390.811 41.1777 390.811 41.3652V41.377C390.811 41.5918 390.895 41.7695 391.063 41.9102C391.231 42.0508 391.5 42.166 391.871 42.2559L392.844 42.4902C393.438 42.6348 393.879 42.8418 394.168 43.1113C394.461 43.3809 394.608 43.7422 394.608 44.1953V44.207C394.608 44.582 394.496 44.9141 394.274 45.2031C394.051 45.4883 393.748 45.7109 393.365 45.8711C392.987 46.0312 392.557 46.1113 392.076 46.1113ZM398.75 46.1113C398.16 46.1113 397.648 45.9766 397.215 45.707C396.781 45.4375 396.445 45.0566 396.207 44.5645C395.968 44.0723 395.849 43.4922 395.849 42.8242V42.8125C395.849 42.1562 395.966 41.5859 396.201 41.1016C396.439 40.6172 396.775 40.2422 397.209 39.9766C397.642 39.707 398.154 39.5723 398.744 39.5723C399.256 39.5723 399.697 39.6621 400.068 39.8418C400.439 40.0215 400.736 40.2637 400.959 40.5684C401.181 40.8691 401.324 41.207 401.386 41.582L401.392 41.6172H400.379L400.373 41.5996C400.295 41.2871 400.117 41.0215 399.84 40.8027C399.562 40.584 399.197 40.4746 398.744 40.4746C398.365 40.4746 398.037 40.5703 397.759 40.7617C397.482 40.9531 397.267 41.2246 397.115 41.5762C396.966 41.9238 396.892 42.3359 396.892 42.8125V42.8242C396.892 43.3086 396.968 43.7305 397.121 44.0898C397.273 44.4453 397.488 44.7207 397.765 44.916C398.043 45.1113 398.369 45.209 398.744 45.209C399.17 45.209 399.517 45.1172 399.787 44.9336C400.056 44.75 400.25 44.4824 400.367 44.1309L400.379 44.0957L401.386 44.0898L401.375 44.1543C401.289 44.5332 401.136 44.8711 400.918 45.168C400.699 45.4609 400.41 45.6914 400.05 45.8594C399.691 46.0273 399.258 46.1113 398.75 46.1113ZM402.857 46V39.6836H403.876V40.6211H403.97C404.091 40.2891 404.296 40.0312 404.585 39.8477C404.874 39.6641 405.232 39.5723 405.657 39.5723C405.755 39.5723 405.851 39.5781 405.944 39.5898C406.042 39.5977 406.116 39.6055 406.167 39.6133V40.6035C406.062 40.584 405.958 40.5703 405.857 40.5625C405.759 40.5508 405.653 40.5449 405.54 40.5449C405.216 40.5449 404.929 40.6094 404.679 40.7383C404.429 40.8672 404.232 41.0469 404.087 41.2773C403.946 41.5078 403.876 41.7773 403.876 42.0859V46H402.857ZM407.426 46V39.6836H408.446V46H407.426ZM407.942 38.4648C407.751 38.4648 407.585 38.3965 407.444 38.2598C407.307 38.1191 407.239 37.9531 407.239 37.7617C407.239 37.5664 407.307 37.4004 407.444 37.2637C407.585 37.127 407.751 37.0586 407.942 37.0586C408.137 37.0586 408.303 37.127 408.44 37.2637C408.577 37.4004 408.645 37.5664 408.645 37.7617C408.645 37.9531 408.577 38.1191 408.44 38.2598C408.303 38.3965 408.137 38.4648 407.942 38.4648ZM413.484 46.1113C413.047 46.1113 412.658 46.0137 412.318 45.8184C411.978 45.6191 411.711 45.3438 411.516 44.9922H411.422V46H410.402V37.1758H411.422V40.6797H411.516C411.687 40.3438 411.949 40.0762 412.301 39.877C412.656 39.6738 413.051 39.5723 413.484 39.5723C414.02 39.5723 414.484 39.707 414.879 39.9766C415.277 40.2461 415.586 40.625 415.805 41.1133C416.023 41.6016 416.133 42.1758 416.133 42.8359V42.8477C416.133 43.5039 416.023 44.0781 415.805 44.5703C415.586 45.0586 415.277 45.4375 414.879 45.707C414.484 45.9766 414.02 46.1113 413.484 46.1113ZM413.25 45.209C413.637 45.209 413.967 45.1152 414.24 44.9277C414.514 44.7363 414.723 44.4648 414.867 44.1133C415.016 43.7578 415.09 43.3359 415.09 42.8477V42.8359C415.09 42.3438 415.016 41.9219 414.867 41.5703C414.723 41.2188 414.514 40.9492 414.24 40.7617C413.967 40.5703 413.637 40.4746 413.25 40.4746C412.867 40.4746 412.537 40.5703 412.26 40.7617C411.982 40.9531 411.77 41.2246 411.621 41.5762C411.473 41.9277 411.398 42.3477 411.398 42.8359V42.8477C411.398 43.332 411.473 43.752 411.621 44.1074C411.77 44.459 411.982 44.7305 412.26 44.9219C412.537 45.1133 412.867 45.209 413.25 45.209ZM420.269 46.1113C419.667 46.1113 419.15 45.9785 418.716 45.7129C418.287 45.4473 417.954 45.0723 417.72 44.5879C417.49 44.0996 417.374 43.5254 417.374 42.8652V42.8594C417.374 42.207 417.49 41.6348 417.72 41.1426C417.954 40.6504 418.285 40.2656 418.71 39.9883C419.136 39.7109 419.634 39.5723 420.204 39.5723C420.779 39.5723 421.271 39.7051 421.681 39.9707C422.095 40.2363 422.412 40.6074 422.63 41.084C422.853 41.5566 422.964 42.1074 422.964 42.7363V43.1348H417.902V42.3203H422.443L421.939 43.0645V42.6602C421.939 42.1641 421.865 41.7559 421.716 41.4355C421.568 41.1152 421.363 40.877 421.101 40.7207C420.839 40.5605 420.538 40.4805 420.199 40.4805C419.859 40.4805 419.554 40.5645 419.285 40.7324C419.019 40.8965 418.808 41.1406 418.652 41.4648C418.495 41.7891 418.417 42.1875 418.417 42.6602V43.0645C418.417 43.5137 418.494 43.8984 418.646 44.2188C418.798 44.5352 419.015 44.7793 419.296 44.9512C419.578 45.1191 419.91 45.2031 420.292 45.2031C420.578 45.2031 420.826 45.1641 421.037 45.0859C421.247 45.0078 421.421 44.9082 421.558 44.7871C421.695 44.666 421.79 44.543 421.845 44.418L421.869 44.3652H422.888L422.876 44.4121C422.822 44.627 422.724 44.8359 422.583 45.0391C422.447 45.2383 422.269 45.4199 422.05 45.584C421.831 45.7441 421.572 45.873 421.271 45.9707C420.974 46.0645 420.64 46.1113 420.269 46.1113ZM430.117 46.0469C429.469 46.0469 428.998 45.916 428.705 45.6543C428.416 45.3926 428.272 44.9609 428.272 44.3594V40.5273H427.276V39.6836H428.272V38.0488H429.326V39.6836H430.709V40.5273H429.326V44.1016C429.326 44.4727 429.397 44.7402 429.537 44.9043C429.678 45.0645 429.912 45.1445 430.24 45.1445C430.33 45.1445 430.406 45.1426 430.469 45.1387C430.535 45.1348 430.615 45.1289 430.709 45.1211V45.9883C430.612 46.0039 430.514 46.0176 430.416 46.0293C430.319 46.041 430.219 46.0469 430.117 46.0469ZM434.722 46.1113C434.125 46.1113 433.607 45.9805 433.17 45.7188C432.736 45.4531 432.4 45.0762 432.162 44.5879C431.927 44.0996 431.81 43.5195 431.81 42.8477V42.8359C431.81 42.1602 431.927 41.5781 432.162 41.0898C432.4 40.6016 432.736 40.2266 433.17 39.9648C433.607 39.7031 434.125 39.5723 434.722 39.5723C435.324 39.5723 435.841 39.7031 436.275 39.9648C436.709 40.2266 437.043 40.6016 437.277 41.0898C437.515 41.5781 437.634 42.1602 437.634 42.8359V42.8477C437.634 43.5195 437.515 44.0996 437.277 44.5879C437.043 45.0762 436.709 45.4531 436.275 45.7188C435.841 45.9805 435.324 46.1113 434.722 46.1113ZM434.722 45.209C435.121 45.209 435.459 45.1152 435.736 44.9277C436.013 44.7402 436.224 44.4707 436.369 44.1191C436.517 43.7676 436.591 43.3438 436.591 42.8477V42.8359C436.591 42.3359 436.517 41.9102 436.369 41.5586C436.224 41.207 436.013 40.9395 435.736 40.7559C435.459 40.5684 435.121 40.4746 434.722 40.4746C434.324 40.4746 433.986 40.5684 433.709 40.7559C433.431 40.9395 433.218 41.207 433.07 41.5586C432.925 41.9102 432.853 42.3359 432.853 42.8359V42.8477C432.853 43.3438 432.925 43.7676 433.07 44.1191C433.218 44.4707 433.431 44.7402 433.709 44.9277C433.986 45.1152 434.324 45.209 434.722 45.209ZM445.127 46.1113C444.538 46.1113 444.026 45.9766 443.592 45.707C443.159 45.4375 442.823 45.0566 442.584 44.5645C442.346 44.0723 442.227 43.4922 442.227 42.8242V42.8125C442.227 42.1562 442.344 41.5859 442.579 41.1016C442.817 40.6172 443.153 40.2422 443.586 39.9766C444.02 39.707 444.532 39.5723 445.122 39.5723C445.633 39.5723 446.075 39.6621 446.446 39.8418C446.817 40.0215 447.114 40.2637 447.336 40.5684C447.559 40.8691 447.702 41.207 447.764 41.582L447.77 41.6172H446.756L446.751 41.5996C446.672 41.2871 446.495 41.0215 446.217 40.8027C445.94 40.584 445.575 40.4746 445.122 40.4746C444.743 40.4746 444.415 40.5703 444.137 40.7617C443.86 40.9531 443.645 41.2246 443.493 41.5762C443.344 41.9238 443.27 42.3359 443.27 42.8125V42.8242C443.27 43.3086 443.346 43.7305 443.499 44.0898C443.651 44.4453 443.866 44.7207 444.143 44.916C444.42 45.1113 444.747 45.209 445.122 45.209C445.547 45.209 445.895 45.1172 446.165 44.9336C446.434 44.75 446.627 44.4824 446.745 44.1309L446.756 44.0957L447.764 44.0898L447.752 44.1543C447.667 44.5332 447.514 44.8711 447.295 45.168C447.077 45.4609 446.788 45.6914 446.428 45.8594C446.069 46.0273 445.635 46.1113 445.127 46.1113ZM449.234 46V39.6836H450.254V40.6211H450.348C450.469 40.2891 450.674 40.0312 450.963 39.8477C451.252 39.6641 451.609 39.5723 452.035 39.5723C452.133 39.5723 452.228 39.5781 452.322 39.5898C452.42 39.5977 452.494 39.6055 452.545 39.6133V40.6035C452.439 40.584 452.336 40.5703 452.234 40.5625C452.137 40.5508 452.031 40.5449 451.918 40.5449C451.594 40.5449 451.307 40.6094 451.057 40.7383C450.807 40.8672 450.609 41.0469 450.465 41.2773C450.324 41.5078 450.254 41.7773 450.254 42.0859V46H449.234ZM456.183 46.1113C455.581 46.1113 455.064 45.9785 454.63 45.7129C454.201 45.4473 453.869 45.0723 453.634 44.5879C453.404 44.0996 453.288 43.5254 453.288 42.8652V42.8594C453.288 42.207 453.404 41.6348 453.634 41.1426C453.869 40.6504 454.199 40.2656 454.624 39.9883C455.05 39.7109 455.548 39.5723 456.119 39.5723C456.693 39.5723 457.185 39.7051 457.595 39.9707C458.009 40.2363 458.326 40.6074 458.544 41.084C458.767 41.5566 458.878 42.1074 458.878 42.7363V43.1348H453.816V42.3203H458.357L457.853 43.0645V42.6602C457.853 42.1641 457.779 41.7559 457.63 41.4355C457.482 41.1152 457.277 40.877 457.015 40.7207C456.753 40.5605 456.452 40.4805 456.113 40.4805C455.773 40.4805 455.468 40.5645 455.199 40.7324C454.933 40.8965 454.722 41.1406 454.566 41.4648C454.41 41.7891 454.331 42.1875 454.331 42.6602V43.0645C454.331 43.5137 454.408 43.8984 454.56 44.2188C454.712 44.5352 454.929 44.7793 455.21 44.9512C455.492 45.1191 455.824 45.2031 456.206 45.2031C456.492 45.2031 456.74 45.1641 456.951 45.0859C457.161 45.0078 457.335 44.9082 457.472 44.7871C457.609 44.666 457.704 44.543 457.759 44.418L457.783 44.3652H458.802L458.79 44.4121C458.736 44.627 458.638 44.8359 458.497 45.0391C458.361 45.2383 458.183 45.4199 457.964 45.584C457.745 45.7441 457.486 45.873 457.185 45.9707C456.888 46.0645 456.554 46.1113 456.183 46.1113ZM462.171 46.1113C461.772 46.1113 461.413 46.0352 461.093 45.8828C460.776 45.7305 460.524 45.5137 460.337 45.2324C460.153 44.9512 460.061 44.6191 460.061 44.2363V44.2246C460.061 43.6621 460.261 43.2227 460.659 42.9062C461.061 42.5859 461.63 42.4043 462.364 42.3613L464.684 42.2207V43.0352L462.487 43.1758C462.007 43.2031 461.655 43.3027 461.432 43.4746C461.214 43.6465 461.104 43.8887 461.104 44.2012V44.2129C461.104 44.5332 461.225 44.7832 461.468 44.9629C461.71 45.1387 462.014 45.2266 462.382 45.2266C462.729 45.2266 463.038 45.1582 463.307 45.0215C463.577 44.8809 463.788 44.6914 463.94 44.4531C464.096 44.2148 464.175 43.9453 464.175 43.6445V41.6758C464.175 41.2852 464.055 40.9883 463.817 40.7852C463.583 40.5781 463.229 40.4746 462.757 40.4746C462.378 40.4746 462.067 40.543 461.825 40.6797C461.583 40.8125 461.421 41.002 461.339 41.248L461.333 41.2656H460.313L460.319 41.2305C460.374 40.8984 460.511 40.6094 460.729 40.3633C460.952 40.1133 461.239 39.9199 461.591 39.7832C461.942 39.6426 462.343 39.5723 462.792 39.5723C463.307 39.5723 463.743 39.6562 464.098 39.8242C464.458 39.9922 464.729 40.2344 464.913 40.5508C465.1 40.8633 465.194 41.2383 465.194 41.6758V46H464.175V45.0684H464.081C463.948 45.291 463.786 45.4805 463.595 45.6367C463.407 45.793 463.194 45.9121 462.956 45.9941C462.718 46.0723 462.456 46.1113 462.171 46.1113ZM469.278 46.0469C468.629 46.0469 468.158 45.916 467.865 45.6543C467.576 45.3926 467.432 44.9609 467.432 44.3594V40.5273H466.436V39.6836H467.432V38.0488H468.487V39.6836H469.869V40.5273H468.487V44.1016C468.487 44.4727 468.557 44.7402 468.697 44.9043C468.838 45.0645 469.072 45.1445 469.401 45.1445C469.49 45.1445 469.567 45.1426 469.629 45.1387C469.696 45.1348 469.776 45.1289 469.869 45.1211V45.9883C469.772 46.0039 469.674 46.0176 469.576 46.0293C469.479 46.041 469.379 46.0469 469.278 46.0469ZM473.865 46.1113C473.263 46.1113 472.746 45.9785 472.312 45.7129C471.882 45.4473 471.55 45.0723 471.316 44.5879C471.086 44.0996 470.97 43.5254 470.97 42.8652V42.8594C470.97 42.207 471.086 41.6348 471.316 41.1426C471.55 40.6504 471.881 40.2656 472.306 39.9883C472.732 39.7109 473.23 39.5723 473.8 39.5723C474.375 39.5723 474.867 39.7051 475.277 39.9707C475.691 40.2363 476.007 40.6074 476.226 41.084C476.449 41.5566 476.56 42.1074 476.56 42.7363V43.1348H471.498V42.3203H476.039L475.535 43.0645V42.6602C475.535 42.1641 475.461 41.7559 475.312 41.4355C475.164 41.1152 474.959 40.877 474.697 40.7207C474.435 40.5605 474.134 40.4805 473.795 40.4805C473.455 40.4805 473.15 40.5645 472.881 40.7324C472.615 40.8965 472.404 41.1406 472.248 41.4648C472.091 41.7891 472.013 42.1875 472.013 42.6602V43.0645C472.013 43.5137 472.089 43.8984 472.242 44.2188C472.394 44.5352 472.611 44.7793 472.892 44.9512C473.173 45.1191 473.506 45.2031 473.888 45.2031C474.173 45.2031 474.422 45.1641 474.632 45.0859C474.843 45.0078 475.017 44.9082 475.154 44.7871C475.291 44.666 475.386 44.543 475.441 44.418L475.464 44.3652H476.484L476.472 44.4121C476.418 44.627 476.32 44.8359 476.179 45.0391C476.043 45.2383 475.865 45.4199 475.646 45.584C475.427 45.7441 475.168 45.873 474.867 45.9707C474.57 46.0645 474.236 46.1113 473.865 46.1113ZM483.204 46.1113C482.805 46.1113 482.446 46.0352 482.125 45.8828C481.809 45.7305 481.557 45.5137 481.37 45.2324C481.186 44.9512 481.094 44.6191 481.094 44.2363V44.2246C481.094 43.6621 481.293 43.2227 481.692 42.9062C482.094 42.5859 482.663 42.4043 483.397 42.3613L485.717 42.2207V43.0352L483.52 43.1758C483.04 43.2031 482.688 43.3027 482.465 43.4746C482.247 43.6465 482.137 43.8887 482.137 44.2012V44.2129C482.137 44.5332 482.258 44.7832 482.5 44.9629C482.743 45.1387 483.047 45.2266 483.415 45.2266C483.762 45.2266 484.071 45.1582 484.34 45.0215C484.61 44.8809 484.821 44.6914 484.973 44.4531C485.129 44.2148 485.207 43.9453 485.207 43.6445V41.6758C485.207 41.2852 485.088 40.9883 484.85 40.7852C484.616 40.5781 484.262 40.4746 483.79 40.4746C483.411 40.4746 483.1 40.543 482.858 40.6797C482.616 40.8125 482.454 41.002 482.372 41.248L482.366 41.2656H481.346L481.352 41.2305C481.407 40.8984 481.543 40.6094 481.762 40.3633C481.985 40.1133 482.272 39.9199 482.624 39.7832C482.975 39.6426 483.375 39.5723 483.825 39.5723C484.34 39.5723 484.776 39.6562 485.131 39.8242C485.491 39.9922 485.762 40.2344 485.946 40.5508C486.133 40.8633 486.227 41.2383 486.227 41.6758V46H485.207V45.0684H485.114C484.981 45.291 484.819 45.4805 484.627 45.6367C484.44 45.793 484.227 45.9121 483.989 45.9941C483.75 46.0723 483.489 46.1113 483.204 46.1113ZM488.066 46V39.6836H489.086V40.6328H489.18C489.34 40.2969 489.57 40.0371 489.871 39.8535C490.172 39.666 490.555 39.5723 491.019 39.5723C491.73 39.5723 492.275 39.7754 492.654 40.1816C493.037 40.584 493.228 41.1602 493.228 41.9102V46H492.209V42.1562C492.209 41.5859 492.088 41.1641 491.846 40.8906C491.607 40.6133 491.236 40.4746 490.732 40.4746C490.396 40.4746 490.105 40.5469 489.859 40.6914C489.613 40.8359 489.422 41.041 489.285 41.3066C489.152 41.5723 489.086 41.8906 489.086 42.2617V46H488.066ZM497.382 46.1113C496.851 46.1113 496.386 45.9766 495.988 45.707C495.589 45.4375 495.281 45.0586 495.062 44.5703C494.843 44.0781 494.734 43.5039 494.734 42.8477V42.8359C494.734 42.1758 494.843 41.6016 495.062 41.1133C495.281 40.625 495.587 40.2461 495.982 39.9766C496.38 39.707 496.847 39.5723 497.382 39.5723C497.816 39.5723 498.208 39.6738 498.56 39.877C498.915 40.0762 499.179 40.3438 499.351 40.6797H499.445V37.1758H500.464V46H499.445V44.9922H499.351C499.16 45.3438 498.894 45.6191 498.554 45.8184C498.214 46.0137 497.824 46.1113 497.382 46.1113ZM497.617 45.209C497.999 45.209 498.329 45.1133 498.607 44.9219C498.884 44.7305 499.097 44.459 499.245 44.1074C499.394 43.752 499.468 43.332 499.468 42.8477V42.8359C499.468 42.3477 499.394 41.9277 499.245 41.5762C499.097 41.2246 498.884 40.9531 498.607 40.7617C498.329 40.5703 497.999 40.4746 497.617 40.4746C497.234 40.4746 496.904 40.5703 496.626 40.7617C496.353 40.9492 496.142 41.2188 495.993 41.5703C495.849 41.9219 495.777 42.3438 495.777 42.8359V42.8477C495.777 43.3359 495.849 43.7578 495.993 44.1133C496.142 44.4648 496.353 44.7363 496.626 44.9277C496.904 45.1152 497.234 45.209 497.617 45.209ZM507.916 46.1113C507.447 46.1113 507.033 46.041 506.674 45.9004C506.315 45.7559 506.026 45.5547 505.807 45.2969C505.592 45.0391 505.465 44.7363 505.426 44.3887H506.469C506.555 44.6504 506.723 44.8613 506.973 45.0215C507.223 45.1816 507.549 45.2617 507.951 45.2617C508.236 45.2617 508.486 45.2207 508.701 45.1387C508.92 45.0527 509.092 44.9375 509.217 44.793C509.342 44.6445 509.404 44.4746 509.404 44.2832V44.2715C509.404 44.0566 509.319 43.875 509.147 43.7266C508.975 43.5742 508.694 43.4512 508.303 43.3574L507.324 43.123C506.735 42.9824 506.301 42.7773 506.024 42.5078C505.746 42.2344 505.608 41.8711 505.608 41.418V41.4121C505.608 41.0605 505.709 40.7461 505.912 40.4688C506.119 40.1914 506.401 39.9727 506.756 39.8125C507.111 39.6523 507.512 39.5723 507.957 39.5723C508.399 39.5723 508.789 39.6426 509.129 39.7832C509.473 39.9199 509.748 40.1152 509.955 40.3691C510.166 40.623 510.295 40.9219 510.342 41.2656H509.34C509.274 41.0156 509.121 40.8125 508.883 40.6562C508.645 40.5 508.334 40.4219 507.951 40.4219C507.701 40.4219 507.479 40.4629 507.283 40.5449C507.088 40.623 506.934 40.7324 506.82 40.873C506.707 41.0137 506.651 41.1777 506.651 41.3652V41.377C506.651 41.5918 506.735 41.7695 506.903 41.9102C507.07 42.0508 507.34 42.166 507.711 42.2559L508.684 42.4902C509.278 42.6348 509.719 42.8418 510.008 43.1113C510.301 43.3809 510.447 43.7422 510.447 44.1953V44.207C510.447 44.582 510.336 44.9141 510.113 45.2031C509.891 45.4883 509.588 45.7109 509.205 45.8711C508.826 46.0312 508.397 46.1113 507.916 46.1113ZM514.584 46.1113C513.982 46.1113 513.464 45.9785 513.031 45.7129C512.601 45.4473 512.269 45.0723 512.035 44.5879C511.804 44.0996 511.689 43.5254 511.689 42.8652V42.8594C511.689 42.207 511.804 41.6348 512.035 41.1426C512.269 40.6504 512.599 40.2656 513.025 39.9883C513.451 39.7109 513.949 39.5723 514.519 39.5723C515.093 39.5723 515.586 39.7051 515.996 39.9707C516.41 40.2363 516.726 40.6074 516.945 41.084C517.168 41.5566 517.279 42.1074 517.279 42.7363V43.1348H512.216V42.3203H516.757L516.254 43.0645V42.6602C516.254 42.1641 516.179 41.7559 516.031 41.4355C515.882 41.1152 515.677 40.877 515.416 40.7207C515.154 40.5605 514.853 40.4805 514.513 40.4805C514.173 40.4805 513.869 40.5645 513.599 40.7324C513.334 40.8965 513.123 41.1406 512.966 41.4648C512.81 41.7891 512.732 42.1875 512.732 42.6602V43.0645C512.732 43.5137 512.808 43.8984 512.961 44.2188C513.113 44.5352 513.33 44.7793 513.611 44.9512C513.892 45.1191 514.224 45.2031 514.607 45.2031C514.892 45.2031 515.14 45.1641 515.351 45.0859C515.562 45.0078 515.736 44.9082 515.873 44.7871C516.009 44.666 516.105 44.543 516.16 44.418L516.183 44.3652H517.203L517.191 44.4121C517.136 44.627 517.039 44.8359 516.898 45.0391C516.761 45.2383 516.584 45.4199 516.365 45.584C516.146 45.7441 515.886 45.873 515.586 45.9707C515.289 46.0645 514.955 46.1113 514.584 46.1113ZM518.837 46V39.6836H519.856V40.6328H519.95C520.11 40.2969 520.341 40.0371 520.642 39.8535C520.942 39.666 521.325 39.5723 521.79 39.5723C522.501 39.5723 523.046 39.7754 523.425 40.1816C523.808 40.584 523.999 41.1602 523.999 41.9102V46H522.98V42.1562C522.98 41.5859 522.858 41.1641 522.616 40.8906C522.378 40.6133 522.007 40.4746 521.503 40.4746C521.167 40.4746 520.876 40.5469 520.63 40.6914C520.384 40.8359 520.192 41.041 520.056 41.3066C519.923 41.5723 519.856 41.8906 519.856 42.2617V46H518.837ZM528.153 46.1113C527.622 46.1113 527.157 45.9766 526.758 45.707C526.36 45.4375 526.051 45.0586 525.832 44.5703C525.614 44.0781 525.504 43.5039 525.504 42.8477V42.8359C525.504 42.1758 525.614 41.6016 525.832 41.1133C526.051 40.625 526.358 40.2461 526.752 39.9766C527.151 39.707 527.618 39.5723 528.153 39.5723C528.586 39.5723 528.979 39.6738 529.331 39.877C529.686 40.0762 529.95 40.3438 530.122 40.6797H530.215V37.1758H531.235V46H530.215V44.9922H530.122C529.93 45.3438 529.665 45.6191 529.325 45.8184C528.985 46.0137 528.594 46.1113 528.153 46.1113ZM528.387 45.209C528.77 45.209 529.1 45.1133 529.377 44.9219C529.655 44.7305 529.868 44.459 530.016 44.1074C530.165 43.752 530.239 43.332 530.239 42.8477V42.8359C530.239 42.3477 530.165 41.9277 530.016 41.5762C529.868 41.2246 529.655 40.9531 529.377 40.7617C529.1 40.5703 528.77 40.4746 528.387 40.4746C528.004 40.4746 527.674 40.5703 527.397 40.7617C527.123 40.9492 526.913 41.2188 526.764 41.5703C526.62 41.9219 526.547 42.3438 526.547 42.8359V42.8477C526.547 43.3359 526.62 43.7578 526.764 44.1133C526.913 44.4648 527.123 44.7363 527.397 44.9277C527.674 45.1152 528.004 45.209 528.387 45.209ZM536.519 46V39.6836H537.538V40.6445H537.632C537.773 40.3047 537.988 40.041 538.277 39.8535C538.57 39.666 538.923 39.5723 539.337 39.5723C539.622 39.5723 539.878 39.6191 540.105 39.7129C540.331 39.8066 540.527 39.9375 540.691 40.1055C540.855 40.2695 540.986 40.4609 541.083 40.6797H541.177C541.29 40.457 541.443 40.2637 541.634 40.0996C541.825 39.9316 542.046 39.8027 542.296 39.7129C542.55 39.6191 542.822 39.5723 543.111 39.5723C543.54 39.5723 543.904 39.6523 544.2 39.8125C544.501 39.9727 544.73 40.207 544.886 40.5156C545.042 40.8203 545.12 41.1934 545.12 41.6348V46H544.101V41.8691C544.101 41.4043 543.992 41.0566 543.773 40.8262C543.558 40.5918 543.228 40.4746 542.783 40.4746C542.49 40.4746 542.234 40.541 542.015 40.6738C541.796 40.8066 541.626 40.9844 541.505 41.207C541.384 41.4258 541.324 41.6699 541.324 41.9395V46H540.304V41.7109C540.304 41.3359 540.185 41.0371 539.947 40.8145C539.708 40.5879 539.39 40.4746 538.992 40.4746C538.718 40.4746 538.47 40.5469 538.247 40.6914C538.029 40.8359 537.855 41.0312 537.726 41.2773C537.601 41.5195 537.538 41.7891 537.538 42.0859V46H536.519ZM549.532 46.1113C548.934 46.1113 548.417 45.9805 547.979 45.7188C547.546 45.4531 547.21 45.0762 546.971 44.5879C546.737 44.0996 546.62 43.5195 546.62 42.8477V42.8359C546.62 42.1602 546.737 41.5781 546.971 41.0898C547.21 40.6016 547.546 40.2266 547.979 39.9648C548.417 39.7031 548.934 39.5723 549.532 39.5723C550.134 39.5723 550.651 39.7031 551.085 39.9648C551.518 40.2266 551.852 40.6016 552.087 41.0898C552.325 41.5781 552.444 42.1602 552.444 42.8359V42.8477C552.444 43.5195 552.325 44.0996 552.087 44.5879C551.852 45.0762 551.518 45.4531 551.085 45.7188C550.651 45.9805 550.134 46.1113 549.532 46.1113ZM549.532 45.209C549.93 45.209 550.268 45.1152 550.546 44.9277C550.823 44.7402 551.034 44.4707 551.178 44.1191C551.327 43.7676 551.401 43.3438 551.401 42.8477V42.8359C551.401 42.3359 551.327 41.9102 551.178 41.5586C551.034 41.207 550.823 40.9395 550.546 40.7559C550.268 40.5684 549.93 40.4746 549.532 40.4746C549.134 40.4746 548.796 40.5684 548.518 40.7559C548.241 40.9395 548.028 41.207 547.88 41.5586C547.735 41.9102 547.663 42.3359 547.663 42.8359V42.8477C547.663 43.3438 547.735 43.7676 547.88 44.1191C548.028 44.4707 548.241 44.7402 548.518 44.9277C548.796 45.1152 549.134 45.209 549.532 45.209ZM554.002 46V39.6836H555.022V40.6211H555.115C555.236 40.2891 555.442 40.0312 555.731 39.8477C556.02 39.6641 556.377 39.5723 556.803 39.5723C556.901 39.5723 556.996 39.5781 557.09 39.5898C557.188 39.5977 557.262 39.6055 557.313 39.6133V40.6035C557.207 40.584 557.104 40.5703 557.002 40.5625C556.904 40.5508 556.799 40.5449 556.686 40.5449C556.361 40.5449 556.074 40.6094 555.824 40.7383C555.574 40.8672 555.377 41.0469 555.233 41.2773C555.092 41.5078 555.022 41.7773 555.022 42.0859V46H554.002ZM560.951 46.1113C560.349 46.1113 559.832 45.9785 559.398 45.7129C558.968 45.4473 558.636 45.0723 558.402 44.5879C558.171 44.0996 558.056 43.5254 558.056 42.8652V42.8594C558.056 42.207 558.171 41.6348 558.402 41.1426C558.636 40.6504 558.966 40.2656 559.392 39.9883C559.818 39.7109 560.316 39.5723 560.886 39.5723C561.461 39.5723 561.953 39.7051 562.363 39.9707C562.777 40.2363 563.093 40.6074 563.312 41.084C563.535 41.5566 563.646 42.1074 563.646 42.7363V43.1348H558.584V42.3203H563.125L562.621 43.0645V42.6602C562.621 42.1641 562.546 41.7559 562.398 41.4355C562.25 41.1152 562.044 40.877 561.783 40.7207C561.521 40.5605 561.22 40.4805 560.88 40.4805C560.541 40.4805 560.236 40.5645 559.966 40.7324C559.701 40.8965 559.49 41.1406 559.334 41.4648C559.177 41.7891 559.099 42.1875 559.099 42.6602V43.0645C559.099 43.5137 559.175 43.8984 559.328 44.2188C559.48 44.5352 559.697 44.7793 559.978 44.9512C560.259 45.1191 560.591 45.2031 560.974 45.2031C561.259 45.2031 561.507 45.1641 561.718 45.0859C561.929 45.0078 562.103 44.9082 562.24 44.7871C562.377 44.666 562.472 44.543 562.527 44.418L562.55 44.3652H563.57L563.558 44.4121C563.503 44.627 563.406 44.8359 563.265 45.0391C563.128 45.2383 562.951 45.4199 562.732 45.584C562.513 45.7441 562.253 45.873 561.953 45.9707C561.656 46.0645 561.322 46.1113 560.951 46.1113ZM570.887 46.1113C570.356 46.1113 569.891 45.9766 569.493 45.707C569.094 45.4375 568.786 45.0586 568.567 44.5703C568.348 44.0781 568.239 43.5039 568.239 42.8477V42.8359C568.239 42.1758 568.348 41.6016 568.567 41.1133C568.786 40.625 569.092 40.2461 569.487 39.9766C569.885 39.707 570.352 39.5723 570.887 39.5723C571.321 39.5723 571.713 39.6738 572.065 39.877C572.42 40.0762 572.684 40.3438 572.856 40.6797H572.95V37.1758H573.969V46H572.95V44.9922H572.856C572.664 45.3438 572.399 45.6191 572.059 45.8184C571.719 46.0137 571.329 46.1113 570.887 46.1113ZM571.122 45.209C571.504 45.209 571.834 45.1133 572.112 44.9219C572.389 44.7305 572.602 44.459 572.75 44.1074C572.899 43.752 572.973 43.332 572.973 42.8477V42.8359C572.973 42.3477 572.899 41.9277 572.75 41.5762C572.602 41.2246 572.389 40.9531 572.112 40.7617C571.834 40.5703 571.504 40.4746 571.122 40.4746C570.739 40.4746 570.409 40.5703 570.131 40.7617C569.858 40.9492 569.647 41.2188 569.498 41.5703C569.354 41.9219 569.282 42.3438 569.282 42.8359V42.8477C569.282 43.3359 569.354 43.7578 569.498 44.1133C569.647 44.4648 569.858 44.7363 570.131 44.9277C570.409 45.1152 570.739 45.209 571.122 45.209ZM578.498 46.1113C577.9 46.1113 577.383 45.9805 576.945 45.7188C576.512 45.4531 576.176 45.0762 575.937 44.5879C575.703 44.0996 575.586 43.5195 575.586 42.8477V42.8359C575.586 42.1602 575.703 41.5781 575.937 41.0898C576.176 40.6016 576.512 40.2266 576.945 39.9648C577.383 39.7031 577.9 39.5723 578.498 39.5723C579.099 39.5723 579.617 39.7031 580.051 39.9648C580.484 40.2266 580.818 40.6016 581.053 41.0898C581.291 41.5781 581.41 42.1602 581.41 42.8359V42.8477C581.41 43.5195 581.291 44.0996 581.053 44.5879C580.818 45.0762 580.484 45.4531 580.051 45.7188C579.617 45.9805 579.099 46.1113 578.498 46.1113ZM578.498 45.209C578.896 45.209 579.234 45.1152 579.512 44.9277C579.789 44.7402 580 44.4707 580.144 44.1191C580.293 43.7676 580.367 43.3438 580.367 42.8477V42.8359C580.367 42.3359 580.293 41.9102 580.144 41.5586C580 41.207 579.789 40.9395 579.512 40.7559C579.234 40.5684 578.896 40.4746 578.498 40.4746C578.099 40.4746 577.762 40.5684 577.484 40.7559C577.207 40.9395 576.994 41.207 576.846 41.5586C576.701 41.9102 576.629 42.3359 576.629 42.8359V42.8477C576.629 43.3438 576.701 43.7676 576.846 44.1191C576.994 44.4707 577.207 44.7402 577.484 44.9277C577.762 45.1152 578.099 45.209 578.498 45.209ZM585.552 46.1113C584.962 46.1113 584.45 45.9766 584.017 45.707C583.583 45.4375 583.247 45.0566 583.009 44.5645C582.771 44.0723 582.652 43.4922 582.652 42.8242V42.8125C582.652 42.1562 582.769 41.5859 583.003 41.1016C583.241 40.6172 583.577 40.2422 584.011 39.9766C584.445 39.707 584.956 39.5723 585.546 39.5723C586.058 39.5723 586.499 39.6621 586.87 39.8418C587.241 40.0215 587.538 40.2637 587.761 40.5684C587.984 40.8691 588.126 41.207 588.189 41.582L588.195 41.6172H587.181L587.175 41.5996C587.097 41.2871 586.919 41.0215 586.642 40.8027C586.365 40.584 585.999 40.4746 585.546 40.4746C585.167 40.4746 584.839 40.5703 584.562 40.7617C584.284 40.9531 584.07 41.2246 583.917 41.5762C583.769 41.9238 583.695 42.3359 583.695 42.8125V42.8242C583.695 43.3086 583.771 43.7305 583.923 44.0898C584.075 44.4453 584.29 44.7207 584.568 44.916C584.845 45.1113 585.171 45.209 585.546 45.209C585.972 45.209 586.32 45.1172 586.589 44.9336C586.859 44.75 587.052 44.4824 587.169 44.1309L587.181 44.0957L588.189 44.0898L588.177 44.1543C588.091 44.5332 587.939 44.8711 587.72 45.168C587.501 45.4609 587.212 45.6914 586.853 45.8594C586.493 46.0273 586.06 46.1113 585.552 46.1113ZM591.774 46.1113C591.298 46.1113 590.897 46.0215 590.573 45.8418C590.249 45.6582 590.005 45.3926 589.841 45.0449C589.68 44.6934 589.6 44.2695 589.6 43.7734V39.6836H590.62V43.5273C590.62 44.0938 590.729 44.5156 590.948 44.793C591.171 45.0703 591.534 45.209 592.038 45.209C592.409 45.209 592.721 45.1367 592.975 44.9922C593.229 44.8477 593.421 44.6426 593.549 44.377C593.678 44.1074 593.743 43.7891 593.743 43.4219V39.6836H594.762V46H593.743V45.0566H593.649C593.493 45.3926 593.257 45.6523 592.94 45.8359C592.628 46.0195 592.239 46.1113 591.774 46.1113ZM596.643 46V39.6836H597.662V40.6445H597.756C597.897 40.3047 598.111 40.041 598.4 39.8535C598.693 39.666 599.047 39.5723 599.461 39.5723C599.746 39.5723 600.002 39.6191 600.229 39.7129C600.455 39.8066 600.65 39.9375 600.815 40.1055C600.979 40.2695 601.109 40.4609 601.207 40.6797H601.301C601.414 40.457 601.567 40.2637 601.758 40.0996C601.949 39.9316 602.17 39.8027 602.42 39.7129C602.674 39.6191 602.945 39.5723 603.234 39.5723C603.664 39.5723 604.027 39.6523 604.324 39.8125C604.625 39.9727 604.854 40.207 605.01 40.5156C605.166 40.8203 605.244 41.1934 605.244 41.6348V46H604.225V41.8691C604.225 41.4043 604.115 41.0566 603.897 40.8262C603.682 40.5918 603.352 40.4746 602.906 40.4746C602.613 40.4746 602.358 40.541 602.139 40.6738C601.92 40.8066 601.75 40.9844 601.629 41.207C601.508 41.4258 601.447 41.6699 601.447 41.9395V46H600.428V41.7109C600.428 41.3359 600.309 41.0371 600.07 40.8145C599.832 40.5879 599.514 40.4746 599.115 40.4746C598.842 40.4746 598.594 40.5469 598.371 40.6914C598.152 40.8359 597.979 41.0312 597.85 41.2773C597.725 41.5195 597.662 41.7891 597.662 42.0859V46H596.643ZM609.638 46.1113C609.037 46.1113 608.519 45.9785 608.085 45.7129C607.656 45.4473 607.324 45.0723 607.089 44.5879C606.859 44.0996 606.744 43.5254 606.744 42.8652V42.8594C606.744 42.207 606.859 41.6348 607.089 41.1426C607.324 40.6504 607.654 40.2656 608.08 39.9883C608.505 39.7109 609.003 39.5723 609.574 39.5723C610.148 39.5723 610.64 39.7051 611.05 39.9707C611.464 40.2363 611.781 40.6074 612 41.084C612.222 41.5566 612.334 42.1074 612.334 42.7363V43.1348H607.271V42.3203H611.812L611.308 43.0645V42.6602C611.308 42.1641 611.234 41.7559 611.085 41.4355C610.937 41.1152 610.732 40.877 610.47 40.7207C610.209 40.5605 609.908 40.4805 609.568 40.4805C609.228 40.4805 608.923 40.5645 608.654 40.7324C608.388 40.8965 608.177 41.1406 608.021 41.4648C607.865 41.7891 607.787 42.1875 607.787 42.6602V43.0645C607.787 43.5137 607.863 43.8984 608.015 44.2188C608.168 44.5352 608.384 44.7793 608.666 44.9512C608.947 45.1191 609.279 45.2031 609.662 45.2031C609.947 45.2031 610.195 45.1641 610.406 45.0859C610.617 45.0078 610.791 44.9082 610.927 44.7871C611.064 44.666 611.16 44.543 611.214 44.418L611.238 44.3652H612.257L612.246 44.4121C612.191 44.627 612.093 44.8359 611.953 45.0391C611.816 45.2383 611.638 45.4199 611.419 45.584C611.201 45.7441 610.941 45.873 610.64 45.9707C610.343 46.0645 610.009 46.1113 609.638 46.1113ZM613.892 46V39.6836H614.911V40.6328H615.005C615.165 40.2969 615.395 40.0371 615.696 39.8535C615.997 39.666 616.38 39.5723 616.845 39.5723C617.556 39.5723 618.101 39.7754 618.479 40.1816C618.862 40.584 619.054 41.1602 619.054 41.9102V46H618.034V42.1562C618.034 41.5859 617.913 41.1641 617.671 40.8906C617.433 40.6133 617.061 40.4746 616.558 40.4746C616.222 40.4746 615.931 40.5469 615.685 40.6914C615.438 40.8359 615.247 41.041 615.11 41.3066C614.977 41.5723 614.911 41.8906 614.911 42.2617V46H613.892ZM623.12 46.0469C622.471 46.0469 622 45.916 621.707 45.6543C621.418 45.3926 621.274 44.9609 621.274 44.3594V40.5273H620.278V39.6836H621.274V38.0488H622.329V39.6836H623.711V40.5273H622.329V44.1016C622.329 44.4727 622.399 44.7402 622.539 44.9043C622.68 45.0645 622.914 45.1445 623.243 45.1445C623.332 45.1445 623.409 45.1426 623.471 45.1387C623.537 45.1348 623.618 45.1289 623.711 45.1211V45.9883C623.614 46.0039 623.516 46.0176 623.418 46.0293C623.321 46.041 623.221 46.0469 623.12 46.0469ZM627.262 46.1113C626.793 46.1113 626.379 46.041 626.019 45.9004C625.66 45.7559 625.371 45.5547 625.152 45.2969C624.937 45.0391 624.81 44.7363 624.771 44.3887H625.814C625.9 44.6504 626.068 44.8613 626.318 45.0215C626.568 45.1816 626.894 45.2617 627.297 45.2617C627.582 45.2617 627.832 45.2207 628.047 45.1387C628.265 45.0527 628.437 44.9375 628.562 44.793C628.687 44.6445 628.75 44.4746 628.75 44.2832V44.2715C628.75 44.0566 628.664 43.875 628.492 43.7266C628.32 43.5742 628.039 43.4512 627.648 43.3574L626.67 43.123C626.08 42.9824 625.646 42.7773 625.369 42.5078C625.092 42.2344 624.953 41.8711 624.953 41.418V41.4121C624.953 41.0605 625.055 40.7461 625.258 40.4688C625.465 40.1914 625.746 39.9727 626.101 39.8125C626.457 39.6523 626.857 39.5723 627.303 39.5723C627.744 39.5723 628.135 39.6426 628.474 39.7832C628.818 39.9199 629.094 40.1152 629.301 40.3691C629.512 40.623 629.64 40.9219 629.687 41.2656H628.685C628.619 41.0156 628.467 40.8125 628.228 40.6562C627.99 40.5 627.68 40.4219 627.297 40.4219C627.047 40.4219 626.824 40.4629 626.629 40.5449C626.433 40.623 626.279 40.7324 626.166 40.873C626.053 41.0137 625.996 41.1777 625.996 41.3652V41.377C625.996 41.5918 626.08 41.7695 626.248 41.9102C626.416 42.0508 626.685 42.166 627.056 42.2559L628.029 42.4902C628.623 42.6348 629.064 42.8418 629.353 43.1113C629.646 43.3809 629.793 43.7422 629.793 44.1953V44.207C629.793 44.582 629.681 44.9141 629.459 45.2031C629.236 45.4883 628.933 45.7109 628.551 45.8711C628.172 46.0312 627.742 46.1113 627.262 46.1113Z" fill="#82181A"/>
<path fill-rule="evenodd" clip-rule="evenodd" d="M651.293 38.2071C650.902 37.8166 650.902 37.1834 651.293 36.7929L654.586 33.5L651.293 30.2071C650.902 29.8166 650.902 29.1834 651.293 28.7929C651.683 28.4024 652.317 28.4024 652.707 28.7929L656.707 32.7929C657.098 33.1834 657.098 33.8166 656.707 34.2071L652.707 38.2071C652.317 38.5976 651.683 38.5976 651.293 38.2071Z" fill="#82181A"/>
</svg>
