<svg width="720" height="960" viewBox="0 0 720 960" fill="none" xmlns="http://www.w3.org/2000/svg">
<rect width="720" height="960" fill="#202020"/>
<path d="M353.317 268.63V413.705H428V356.405L353.317 268.63Z" fill="#E65100"/>
<path d="M372.968 363.393H404.25L388.609 345.01L372.968 326.628V363.393Z" fill="#202020"/>
<rect x="372.967" y="388.122" width="16.2423" height="26" fill="#202020"/>
<circle cx="349.096" cy="137.657" r="53.657" fill="#2196F3"/>
<path d="M353.388 265.361L300.77 161.002C295.372 150.296 303.154 137.658 315.144 137.658H353.388V265.361Z" fill="#2196F3"/>
<circle cx="349.096" cy="137.657" r="28.9748" fill="#202020"/>
<path d="M185.454 497.04H200.15C204.103 497.04 207.262 498.243 209.625 500.649C211.989 503.056 213.17 506.386 213.17 510.64C213.17 514.852 211.924 518.16 209.432 520.567C206.982 522.973 203.717 524.177 199.634 524.177H190.288V541H185.454V497.04ZM199.505 520.18C202.384 520.18 204.576 519.385 206.08 517.795C207.584 516.162 208.336 513.777 208.336 510.64C208.336 507.503 207.584 505.119 206.08 503.486C204.576 501.853 202.384 501.036 199.505 501.036H190.288V520.18H199.505ZM233.678 509.802C234.709 509.802 235.698 509.953 236.643 510.254V514.25C235.741 513.82 234.752 513.605 233.678 513.605C231.83 513.605 230.111 514.121 228.521 515.152C226.931 516.184 225.642 517.688 224.654 519.664C223.709 521.598 223.236 523.897 223.236 526.561V541H218.853V510.834H223.236V516.893C224.396 514.658 225.857 512.918 227.619 511.672C229.424 510.426 231.444 509.802 233.678 509.802ZM253.215 542.031C250.336 542.031 247.758 541.344 245.48 539.969C243.203 538.594 241.42 536.681 240.13 534.232C238.841 531.74 238.197 528.946 238.197 525.852C238.197 522.758 238.82 520.008 240.066 517.602C241.355 515.152 243.117 513.24 245.351 511.865C247.629 510.49 250.207 509.802 253.086 509.802C255.966 509.802 258.544 510.49 260.821 511.865C263.099 513.24 264.882 515.152 266.171 517.602C267.46 520.051 268.105 522.823 268.105 525.917C268.105 529.011 267.46 531.783 266.171 534.232C264.925 536.681 263.163 538.594 260.886 539.969C258.651 541.344 256.094 542.031 253.215 542.031ZM253.086 538.035C255.149 538.035 256.975 537.519 258.565 536.488C260.198 535.457 261.466 534.017 262.368 532.169C263.271 530.321 263.722 528.237 263.722 525.917C263.722 523.596 263.271 521.512 262.368 519.664C261.466 517.817 260.198 516.377 258.565 515.346C256.975 514.314 255.149 513.799 253.086 513.799C251.067 513.799 249.262 514.314 247.672 515.346C246.082 516.377 244.836 517.817 243.933 519.664C243.031 521.469 242.58 523.532 242.58 525.852C242.58 528.216 243.031 530.321 243.933 532.169C244.836 534.017 246.082 535.457 247.672 536.488C249.262 537.519 251.067 538.035 253.086 538.035ZM267.348 549.895H269.152C270.657 549.895 271.881 549.38 272.827 548.348C273.815 547.317 274.309 545.985 274.309 544.352V510.834H278.692V544.352C278.692 547.145 277.79 549.422 275.985 551.184C274.223 552.989 271.946 553.892 269.152 553.892H267.348V549.895ZM276.501 504.968C275.512 504.968 274.674 504.624 273.987 503.937C273.342 503.249 273.02 502.411 273.02 501.423C273.02 500.478 273.342 499.683 273.987 499.038C274.674 498.35 275.512 498.007 276.501 498.007C277.446 498.007 278.263 498.35 278.95 499.038C279.638 499.683 279.981 500.499 279.981 501.487C279.981 502.433 279.638 503.249 278.95 503.937C278.263 504.624 277.446 504.968 276.501 504.968ZM299.793 509.802C302.5 509.802 304.95 510.469 307.141 511.801C309.333 513.133 311.052 514.959 312.298 517.28C313.544 519.557 314.167 522.114 314.167 524.95C314.167 525.766 314.146 526.39 314.103 526.819H289.286C289.458 529.913 290.468 532.556 292.316 534.748C294.164 536.939 296.678 538.035 299.858 538.035C302.436 538.035 304.563 537.562 306.239 536.617C307.958 535.629 309.333 534.275 310.364 532.556L313.845 534.877C312.427 537.111 310.558 538.873 308.237 540.162C305.917 541.408 303.166 542.031 299.986 542.031C297.064 542.031 294.465 541.344 292.187 539.969C289.91 538.594 288.126 536.681 286.837 534.232C285.548 531.783 284.903 529.011 284.903 525.917C284.903 522.823 285.526 520.051 286.773 517.602C288.062 515.152 289.824 513.24 292.058 511.865C294.336 510.49 296.914 509.802 299.793 509.802ZM309.784 523.21C309.354 520.073 308.302 517.731 306.626 516.184C304.95 514.594 302.672 513.799 299.793 513.799C297 513.799 294.701 514.701 292.896 516.506C291.134 518.268 290.017 520.502 289.544 523.21H309.784ZM333.723 542.031C330.801 542.031 328.201 541.344 325.924 539.969C323.646 538.594 321.863 536.681 320.574 534.232C319.285 531.783 318.64 529.011 318.64 525.917C318.64 522.823 319.263 520.051 320.509 517.602C321.798 515.152 323.582 513.24 325.859 511.865C328.137 510.49 330.715 509.802 333.594 509.802C336.044 509.802 338.171 510.34 339.975 511.414C341.823 512.445 343.499 513.928 345.003 515.861L341.78 518.375C339.675 515.324 336.946 513.799 333.594 513.799C331.574 513.799 329.748 514.314 328.115 515.346C326.525 516.377 325.279 517.817 324.377 519.664C323.474 521.512 323.023 523.596 323.023 525.917C323.023 528.237 323.474 530.321 324.377 532.169C325.279 534.017 326.525 535.457 328.115 536.488C329.748 537.519 331.574 538.035 333.594 538.035C335.657 538.035 337.354 537.691 338.686 537.004C340.018 536.273 341.222 535.22 342.296 533.845L345.712 536.23C344.294 537.992 342.532 539.41 340.427 540.484C338.364 541.516 336.129 542.031 333.723 542.031ZM352.968 541V514.83H347.811V510.834H352.968V500.843H357.351V510.834H364.312V514.83H357.351V541H352.968Z" fill="#2196F3"/>
<path d="M411.821 541L407.309 528.689H389.067L385.006 541H380.172L395.771 497.04H400.283L416.333 541H411.821ZM390.55 524.692H405.826L397.962 503.357L390.55 524.692ZM421.487 541V494.204H425.87V541H421.487ZM449.341 509.802C452.22 509.802 454.777 510.49 457.011 511.865C459.289 513.24 461.051 515.152 462.297 517.602C463.586 520.008 464.23 522.758 464.23 525.852C464.23 528.989 463.586 531.783 462.297 534.232C461.008 536.681 459.224 538.594 456.947 539.969C454.669 541.344 452.091 542.031 449.212 542.031C447.063 542.031 445.086 541.559 443.282 540.613C441.477 539.625 439.951 538.271 438.705 536.552V541H434.322V494.204H438.705V515.346C439.951 513.584 441.477 512.23 443.282 511.285C445.129 510.297 447.149 509.802 449.341 509.802ZM449.341 538.035C451.36 538.035 453.165 537.519 454.755 536.488C456.345 535.457 457.591 534.017 458.494 532.169C459.396 530.321 459.847 528.216 459.847 525.852C459.847 523.532 459.396 521.469 458.494 519.664C457.591 517.817 456.345 516.377 454.755 515.346C453.165 514.314 451.36 513.799 449.341 513.799C447.278 513.799 445.43 514.314 443.797 515.346C442.207 516.377 440.961 517.817 440.059 519.664C439.156 521.512 438.705 523.596 438.705 525.917C438.705 528.237 439.156 530.321 440.059 532.169C440.961 534.017 442.207 535.457 443.797 536.488C445.43 537.519 447.278 538.035 449.341 538.035ZM483.41 509.802C486.117 509.802 488.566 510.469 490.758 511.801C492.949 513.133 494.668 514.959 495.914 517.28C497.161 519.557 497.784 522.114 497.784 524.95C497.784 525.766 497.762 526.39 497.719 526.819H472.903C473.075 529.913 474.085 532.556 475.933 534.748C477.78 536.939 480.294 538.035 483.474 538.035C486.052 538.035 488.179 537.562 489.855 536.617C491.574 535.629 492.949 534.275 493.981 532.556L497.461 534.877C496.043 537.111 494.174 538.873 491.854 540.162C489.533 541.408 486.783 542.031 483.603 542.031C480.681 542.031 478.081 541.344 475.804 539.969C473.526 538.594 471.743 536.681 470.454 534.232C469.164 531.783 468.52 529.011 468.52 525.917C468.52 522.823 469.143 520.051 470.389 517.602C471.678 515.152 473.44 513.24 475.675 511.865C477.952 510.49 480.531 509.802 483.41 509.802ZM493.401 523.21C492.971 520.073 491.918 517.731 490.242 516.184C488.566 514.594 486.289 513.799 483.41 513.799C480.616 513.799 478.317 514.701 476.513 516.506C474.751 518.268 473.634 520.502 473.161 523.21H493.401ZM519.08 509.802C520.111 509.802 521.1 509.953 522.045 510.254V514.25C521.143 513.82 520.154 513.605 519.08 513.605C517.232 513.605 515.513 514.121 513.923 515.152C512.333 516.184 511.044 517.688 510.056 519.664C509.11 521.598 508.638 523.897 508.638 526.561V541H504.255V510.834H508.638V516.893C509.798 514.658 511.259 512.918 513.021 511.672C514.826 510.426 516.845 509.802 519.08 509.802ZM527.709 541V514.83H522.552V510.834H527.709V500.843H532.092V510.834H539.053V514.83H532.092V541H527.709Z" fill="#E65100"/>
<path d="M238.743 630.5V616.305H244.945C246.435 616.305 247.589 616.634 248.408 617.291C249.227 617.936 249.636 618.835 249.636 619.99C249.636 620.755 249.442 621.412 249.053 621.963C248.663 622.513 248.126 622.916 247.442 623.171C248.247 623.399 248.871 623.802 249.314 624.379C249.771 624.943 249.999 625.661 249.999 626.533C249.999 627.795 249.569 628.775 248.71 629.473C247.865 630.158 246.683 630.5 245.166 630.5H238.743ZM241.22 622.325H244.502C246.26 622.325 247.14 621.647 247.14 620.292C247.14 618.936 246.26 618.258 244.502 618.258H241.22V622.325ZM241.22 628.547H244.844C246.616 628.547 247.502 627.835 247.502 626.413C247.502 624.99 246.616 624.278 244.844 624.278H241.22V628.547ZM253.17 630.5V620.654H255.626V622.386C256.109 621.218 257.143 620.573 258.727 620.453L259.492 620.392L259.653 622.527L258.203 622.667C256.552 622.829 255.727 623.674 255.727 625.204V630.5H253.17ZM265.003 630.701C264.292 630.701 263.654 630.567 263.091 630.299C262.54 630.017 262.104 629.641 261.782 629.171C261.473 628.701 261.319 628.171 261.319 627.58C261.319 626.856 261.507 626.285 261.882 625.869C262.258 625.439 262.869 625.131 263.715 624.943C264.56 624.755 265.695 624.661 267.118 624.661H267.822V624.238C267.822 623.567 267.675 623.084 267.379 622.788C267.084 622.493 266.587 622.345 265.889 622.345C265.339 622.345 264.775 622.433 264.198 622.607C263.621 622.768 263.037 623.023 262.446 623.372L261.721 621.661C262.07 621.419 262.48 621.211 262.95 621.037C263.433 620.849 263.936 620.708 264.46 620.614C264.997 620.506 265.5 620.453 265.97 620.453C267.406 620.453 268.473 620.788 269.171 621.459C269.869 622.117 270.218 623.144 270.218 624.54V630.5H267.863V628.929C267.634 629.48 267.272 629.916 266.775 630.238C266.279 630.547 265.688 630.701 265.003 630.701ZM265.527 628.97C266.185 628.97 266.728 628.742 267.158 628.285C267.601 627.829 267.822 627.252 267.822 626.554V626.111H267.138C265.876 626.111 264.997 626.211 264.5 626.413C264.017 626.601 263.775 626.95 263.775 627.46C263.775 627.903 263.93 628.265 264.238 628.547C264.547 628.829 264.977 628.97 265.527 628.97ZM273.578 630.5V620.654H276.035V622.184C276.37 621.62 276.82 621.191 277.384 620.896C277.961 620.6 278.605 620.453 279.317 620.453C281.639 620.453 282.8 621.802 282.8 624.5V630.5H280.283V624.621C280.283 623.855 280.136 623.298 279.84 622.949C279.558 622.6 279.116 622.426 278.511 622.426C277.773 622.426 277.183 622.661 276.74 623.131C276.31 623.587 276.095 624.198 276.095 624.963V630.5H273.578ZM289.947 630.701C289.088 630.701 288.33 630.493 287.672 630.077C287.028 629.661 286.524 629.07 286.162 628.305C285.8 627.527 285.618 626.614 285.618 625.567C285.618 624.506 285.8 623.6 286.162 622.849C286.524 622.084 287.028 621.493 287.672 621.077C288.33 620.661 289.088 620.453 289.947 620.453C290.645 620.453 291.276 620.607 291.84 620.916C292.404 621.224 292.827 621.634 293.109 622.144V616.305H295.625V630.5H293.169V628.869C292.9 629.433 292.478 629.883 291.9 630.218C291.323 630.54 290.672 630.701 289.947 630.701ZM290.652 628.789C291.404 628.789 292.008 628.52 292.464 627.983C292.921 627.433 293.149 626.627 293.149 625.567C293.149 624.493 292.921 623.694 292.464 623.171C292.008 622.634 291.404 622.365 290.652 622.365C289.9 622.365 289.296 622.634 288.84 623.171C288.384 623.694 288.155 624.493 288.155 625.567C288.155 626.627 288.384 627.433 288.84 627.983C289.296 628.52 289.9 628.789 290.652 628.789ZM298.879 618.54V616.083H301.698V618.54H298.879ZM299.04 630.5V620.654H301.557V630.5H299.04ZM304.978 630.5V620.654H307.434V622.184C307.77 621.62 308.22 621.191 308.783 620.896C309.361 620.6 310.005 620.453 310.716 620.453C313.039 620.453 314.2 621.802 314.2 624.5V630.5H311.683V624.621C311.683 623.855 311.535 623.298 311.24 622.949C310.958 622.6 310.515 622.426 309.911 622.426C309.173 622.426 308.582 622.661 308.139 623.131C307.71 623.587 307.495 624.198 307.495 624.963V630.5H304.978ZM322.152 634.326C321.24 634.326 320.38 634.218 319.575 634.003C318.783 633.802 318.085 633.487 317.481 633.057L318.206 631.305C318.77 631.681 319.374 631.956 320.018 632.131C320.662 632.319 321.307 632.413 321.951 632.413C323.75 632.413 324.649 631.547 324.649 629.815V628.466C324.367 629.017 323.931 629.453 323.34 629.775C322.763 630.097 322.119 630.258 321.407 630.258C320.521 630.258 319.75 630.057 319.092 629.654C318.434 629.238 317.924 628.661 317.562 627.923C317.199 627.184 317.018 626.325 317.018 625.345C317.018 624.366 317.199 623.513 317.562 622.788C317.924 622.05 318.434 621.48 319.092 621.077C319.75 620.661 320.521 620.453 321.407 620.453C322.146 620.453 322.803 620.62 323.381 620.956C323.958 621.278 324.381 621.714 324.649 622.265V620.654H327.106V629.513C327.106 631.111 326.683 632.312 325.837 633.118C324.991 633.923 323.763 634.326 322.152 634.326ZM322.092 628.346C322.87 628.346 323.488 628.077 323.944 627.54C324.401 627.003 324.629 626.272 324.629 625.345C324.629 624.419 324.401 623.694 323.944 623.171C323.488 622.634 322.87 622.365 322.092 622.365C321.313 622.365 320.696 622.634 320.24 623.171C319.783 623.694 319.555 624.419 319.555 625.345C319.555 626.272 319.783 627.003 320.24 627.54C320.696 628.077 321.313 628.346 322.092 628.346ZM355.75 630.701C353.804 630.701 352.314 630.198 351.28 629.191C350.26 628.171 349.75 626.668 349.75 624.681V616.305H352.327V624.661C352.327 625.936 352.616 626.896 353.193 627.54C353.784 628.171 354.636 628.486 355.75 628.486C358.019 628.486 359.153 627.211 359.153 624.661V616.305H361.71V624.681C361.71 626.668 361.207 628.171 360.2 629.191C359.193 630.198 357.71 630.701 355.75 630.701ZM365.522 630.5V616.305H368.099V630.5H365.522ZM371.93 631.93L370.037 631.366L375.252 615.197L377.144 615.761L371.93 631.93ZM385.007 630.701C383.06 630.701 381.57 630.198 380.537 629.191C379.517 628.171 379.006 626.668 379.006 624.681V616.305H381.584V624.661C381.584 625.936 381.872 626.896 382.45 627.54C383.04 628.171 383.893 628.486 385.007 628.486C387.275 628.486 388.41 627.211 388.41 624.661V616.305H390.967V624.681C390.967 626.668 390.463 628.171 389.457 629.191C388.45 630.198 386.967 630.701 385.007 630.701ZM392.949 630.5L398.366 623.272L393.151 616.305H396.151L399.836 621.399L403.52 616.305H406.54L401.326 623.272L406.722 630.5H403.701L399.836 625.184L395.99 630.5H392.949ZM415.187 630.5V616.305H420.462C422.838 616.305 424.67 616.916 425.959 618.137C427.261 619.359 427.912 621.11 427.912 623.392C427.912 625.661 427.261 627.413 425.959 628.648C424.67 629.883 422.838 630.5 420.462 630.5H415.187ZM417.764 628.366H420.301C423.576 628.366 425.214 626.708 425.214 623.392C425.214 620.09 423.576 618.439 420.301 618.439H417.764V628.366ZM435.94 630.701C434.826 630.701 433.866 630.493 433.061 630.077C432.255 629.661 431.631 629.07 431.188 628.305C430.759 627.54 430.544 626.634 430.544 625.587C430.544 624.567 430.752 623.674 431.168 622.909C431.598 622.144 432.182 621.547 432.92 621.117C433.672 620.674 434.524 620.453 435.477 620.453C436.873 620.453 437.974 620.896 438.779 621.782C439.598 622.667 440.007 623.876 440.007 625.406V626.151H432.96C433.148 627.909 434.155 628.789 435.98 628.789C436.531 628.789 437.081 628.708 437.631 628.547C438.182 628.372 438.685 628.104 439.142 627.742L439.846 629.433C439.376 629.822 438.786 630.131 438.074 630.359C437.363 630.587 436.652 630.701 435.94 630.701ZM435.578 622.164C434.839 622.164 434.242 622.392 433.786 622.849C433.329 623.305 433.054 623.923 432.96 624.701H437.913C437.86 623.882 437.631 623.258 437.229 622.829C436.839 622.386 436.289 622.164 435.578 622.164ZM446.41 630.701C445.578 630.701 444.799 630.601 444.074 630.399C443.35 630.198 442.746 629.909 442.262 629.534L442.907 627.882C443.403 628.218 443.96 628.48 444.578 628.668C445.195 628.842 445.813 628.929 446.43 628.929C447.075 628.929 447.551 628.822 447.86 628.607C448.182 628.379 448.343 628.084 448.343 627.721C448.343 627.158 447.927 626.795 447.095 626.634L445.081 626.252C443.376 625.929 442.524 625.043 442.524 623.594C442.524 622.949 442.699 622.392 443.048 621.922C443.41 621.453 443.907 621.09 444.538 620.835C445.168 620.58 445.893 620.453 446.712 620.453C447.41 620.453 448.081 620.553 448.726 620.755C449.37 620.943 449.92 621.231 450.377 621.62L449.692 623.272C449.303 622.949 448.833 622.694 448.283 622.506C447.746 622.318 447.229 622.225 446.732 622.225C446.075 622.225 445.585 622.339 445.262 622.567C444.954 622.795 444.799 623.097 444.799 623.473C444.799 624.064 445.182 624.426 445.947 624.56L447.961 624.943C448.833 625.104 449.491 625.399 449.934 625.829C450.39 626.258 450.618 626.835 450.618 627.56C450.618 628.54 450.236 629.312 449.471 629.876C448.706 630.426 447.685 630.701 446.41 630.701ZM453.282 618.54V616.083H456.101V618.54H453.282ZM453.443 630.5V620.654H455.96V630.5H453.443ZM463.971 634.326C463.058 634.326 462.199 634.218 461.394 634.003C460.602 633.802 459.904 633.487 459.3 633.057L460.025 631.305C460.588 631.681 461.193 631.956 461.837 632.131C462.481 632.319 463.125 632.413 463.77 632.413C465.569 632.413 466.468 631.547 466.468 629.815V628.466C466.186 629.017 465.75 629.453 465.159 629.775C464.582 630.097 463.938 630.258 463.226 630.258C462.34 630.258 461.568 630.057 460.911 629.654C460.253 629.238 459.743 628.661 459.38 627.923C459.018 627.184 458.837 626.325 458.837 625.345C458.837 624.366 459.018 623.513 459.38 622.788C459.743 622.05 460.253 621.48 460.911 621.077C461.568 620.661 462.34 620.453 463.226 620.453C463.964 620.453 464.622 620.62 465.199 620.956C465.777 621.278 466.199 621.714 466.468 622.265V620.654H468.924V629.513C468.924 631.111 468.502 632.312 467.656 633.118C466.81 633.923 465.582 634.326 463.971 634.326ZM463.911 628.346C464.689 628.346 465.307 628.077 465.763 627.54C466.22 627.003 466.448 626.272 466.448 625.345C466.448 624.419 466.22 623.694 465.763 623.171C465.307 622.634 464.689 622.365 463.911 622.365C463.132 622.365 462.515 622.634 462.058 623.171C461.602 623.694 461.374 624.419 461.374 625.345C461.374 626.272 461.602 627.003 462.058 627.54C462.515 628.077 463.132 628.346 463.911 628.346ZM472.338 630.5V620.654H474.794V622.184C475.13 621.62 475.579 621.191 476.143 620.896C476.72 620.6 477.365 620.453 478.076 620.453C480.398 620.453 481.559 621.802 481.559 624.5V630.5H479.043V624.621C479.043 623.855 478.895 623.298 478.6 622.949C478.318 622.6 477.875 622.426 477.271 622.426C476.532 622.426 475.942 622.661 475.499 623.131C475.069 623.587 474.854 624.198 474.854 624.963V630.5H472.338Z" fill="white"/>
<path d="M337.093 634.124V616.305H339.61V634.124H337.093Z" fill="#E65100"/>
<path d="M187.149 573.461H189.186V590H187.391V576.784L181.862 590H180.165L174.878 576.832V590H173.059V573.461H175.29L181.086 587.963L187.149 573.461ZM194.525 590V578.651H196.174V590H194.525ZM195.35 576.444C194.978 576.444 194.663 576.315 194.404 576.056C194.162 575.798 194.04 575.482 194.04 575.11C194.04 574.755 194.162 574.456 194.404 574.213C194.663 573.955 194.978 573.825 195.35 573.825C195.706 573.825 196.013 573.955 196.271 574.213C196.53 574.456 196.659 574.763 196.659 575.135C196.659 575.49 196.53 575.798 196.271 576.056C196.013 576.315 195.706 576.444 195.35 576.444ZM201.693 590V580.154H199.753V578.651H201.693V574.892H203.342V578.651H205.961V580.154H203.342V590H201.693ZM209.632 590V578.651H211.281V590H209.632ZM210.457 576.444C210.085 576.444 209.77 576.315 209.511 576.056C209.269 575.798 209.147 575.482 209.147 575.11C209.147 574.755 209.269 574.456 209.511 574.213C209.77 573.955 210.085 573.825 210.457 573.825C210.813 573.825 211.12 573.955 211.378 574.213C211.637 574.456 211.766 574.763 211.766 575.135C211.766 575.49 211.637 575.798 211.378 576.056C211.12 576.315 210.813 576.444 210.457 576.444ZM226.743 578.651V589.563C226.743 590.582 226.533 591.487 226.112 592.28C225.692 593.088 225.102 593.718 224.342 594.171C223.582 594.624 222.717 594.85 221.747 594.85H217.043V593.347H221.747C222.733 593.347 223.534 592.991 224.148 592.28C224.778 591.568 225.094 590.663 225.094 589.563V588.327C224.625 588.973 224.051 589.483 223.372 589.854C222.693 590.21 221.949 590.388 221.141 590.388C220.058 590.388 219.088 590.129 218.231 589.612C217.374 589.095 216.703 588.375 216.218 587.454C215.733 586.532 215.491 585.481 215.491 584.301C215.491 583.137 215.725 582.103 216.194 581.197C216.679 580.276 217.342 579.556 218.182 579.039C219.039 578.522 220.009 578.263 221.092 578.263C221.917 578.263 222.669 578.449 223.348 578.821C224.043 579.176 224.625 579.686 225.094 580.348V578.651H226.743ZM221.092 588.884C221.868 588.884 222.556 588.69 223.154 588.302C223.768 587.914 224.245 587.373 224.584 586.678C224.924 585.983 225.094 585.198 225.094 584.325C225.094 583.452 224.924 582.668 224.584 581.973C224.245 581.278 223.768 580.736 223.154 580.348C222.556 579.96 221.868 579.766 221.092 579.766C220.333 579.766 219.654 579.96 219.055 580.348C218.457 580.736 217.988 581.278 217.649 581.973C217.309 582.652 217.14 583.428 217.14 584.301C217.14 585.19 217.309 585.983 217.649 586.678C217.988 587.373 218.457 587.914 219.055 588.302C219.654 588.69 220.333 588.884 221.092 588.884ZM241.306 578.651V590H239.657V588.327C239.188 588.973 238.614 589.483 237.935 589.854C237.256 590.21 236.513 590.388 235.704 590.388C234.621 590.388 233.651 590.129 232.794 589.612C231.937 589.095 231.266 588.375 230.781 587.454C230.296 586.532 230.054 585.481 230.054 584.301C230.054 583.137 230.288 582.103 230.757 581.197C231.242 580.276 231.905 579.556 232.746 579.039C233.603 578.522 234.573 578.263 235.656 578.263C236.48 578.263 237.232 578.449 237.911 578.821C238.606 579.176 239.188 579.686 239.657 580.348V578.651H241.306ZM235.656 588.884C236.432 588.884 237.119 588.69 237.717 588.302C238.331 587.914 238.808 587.373 239.148 586.678C239.487 585.983 239.657 585.198 239.657 584.325C239.657 583.452 239.487 582.668 239.148 581.973C238.808 581.278 238.331 580.736 237.717 580.348C237.119 579.96 236.432 579.766 235.656 579.766C234.896 579.766 234.217 579.96 233.619 580.348C233.021 580.736 232.552 581.278 232.212 581.973C231.873 582.652 231.703 583.428 231.703 584.301C231.703 585.19 231.873 585.983 232.212 586.678C232.552 587.373 233.021 587.914 233.619 588.302C234.217 588.69 234.896 588.884 235.656 588.884ZM245.927 590V580.154H243.987V578.651H245.927V574.892H247.576V578.651H250.195V580.154H247.576V590H245.927ZM253.866 590V578.651H255.515V590H253.866ZM254.69 576.444C254.319 576.444 254.003 576.315 253.745 576.056C253.502 575.798 253.381 575.482 253.381 575.11C253.381 574.755 253.502 574.456 253.745 574.213C254.003 573.955 254.319 573.825 254.69 573.825C255.046 573.825 255.353 573.955 255.612 574.213C255.871 574.456 256 574.763 256 575.135C256 575.49 255.871 575.798 255.612 576.056C255.353 576.315 255.046 576.444 254.69 576.444ZM265.835 578.263C266.627 578.263 267.355 578.425 268.018 578.748C268.697 579.071 269.23 579.548 269.618 580.179C270.022 580.809 270.225 581.553 270.225 582.41V590H268.576V583.137C268.576 580.89 267.573 579.766 265.569 579.766C264.405 579.766 263.532 580.179 262.95 581.003C262.368 581.828 262.077 582.935 262.077 584.325V590H260.427V578.651H262.077V580.542C262.465 579.815 262.974 579.257 263.604 578.869C264.251 578.465 264.995 578.263 265.835 578.263ZM284.971 578.651V589.563C284.971 590.582 284.761 591.487 284.341 592.28C283.92 593.088 283.33 593.718 282.57 594.171C281.811 594.624 280.946 594.85 279.976 594.85H275.271V593.347H279.976C280.962 593.347 281.762 592.991 282.376 592.28C283.007 591.568 283.322 590.663 283.322 589.563V588.327C282.853 588.973 282.279 589.483 281.6 589.854C280.921 590.21 280.178 590.388 279.369 590.388C278.286 590.388 277.316 590.129 276.459 589.612C275.603 589.095 274.932 588.375 274.447 587.454C273.962 586.532 273.719 585.481 273.719 584.301C273.719 583.137 273.954 582.103 274.422 581.197C274.907 580.276 275.57 579.556 276.411 579.039C277.268 578.522 278.238 578.263 279.321 578.263C280.145 578.263 280.897 578.449 281.576 578.821C282.271 579.176 282.853 579.686 283.322 580.348V578.651H284.971ZM279.321 588.884C280.097 588.884 280.784 588.69 281.382 588.302C281.996 587.914 282.473 587.373 282.813 586.678C283.152 585.983 283.322 585.198 283.322 584.325C283.322 583.452 283.152 582.668 282.813 581.973C282.473 581.278 281.996 580.736 281.382 580.348C280.784 579.96 280.097 579.766 279.321 579.766C278.561 579.766 277.882 579.96 277.284 580.348C276.686 580.736 276.217 581.278 275.877 581.973C275.538 582.652 275.368 583.428 275.368 584.301C275.368 585.19 275.538 585.983 275.877 586.678C276.217 587.373 276.686 587.914 277.284 588.302C277.882 588.69 278.561 588.884 279.321 588.884ZM295.961 590V580.154H294.021V578.651H295.961V574.892H297.61V578.651H300.229V580.154H297.61V590H295.961ZM308.411 578.263C309.203 578.263 309.931 578.425 310.594 578.748C311.273 579.071 311.806 579.548 312.194 580.179C312.598 580.809 312.8 581.553 312.8 582.41V590H311.151V583.137C311.151 580.89 310.149 579.766 308.144 579.766C306.98 579.766 306.107 580.179 305.525 581.003C304.943 581.828 304.652 582.935 304.652 584.325V590H303.003V572.394H304.652V580.542C305.04 579.815 305.55 579.257 306.18 578.869C306.827 578.465 307.57 578.263 308.411 578.263ZM321.826 578.263C322.844 578.263 323.766 578.514 324.59 579.015C325.415 579.516 326.061 580.203 326.53 581.076C326.999 581.933 327.233 582.895 327.233 583.962C327.233 584.269 327.225 584.503 327.209 584.665H317.873C317.938 585.829 318.317 586.823 319.013 587.648C319.708 588.472 320.654 588.884 321.85 588.884C322.82 588.884 323.62 588.707 324.251 588.351C324.897 587.979 325.415 587.47 325.803 586.823L327.112 587.696C326.579 588.537 325.875 589.2 325.002 589.685C324.129 590.154 323.095 590.388 321.898 590.388C320.799 590.388 319.821 590.129 318.964 589.612C318.107 589.095 317.436 588.375 316.951 587.454C316.466 586.532 316.224 585.489 316.224 584.325C316.224 583.161 316.458 582.119 316.927 581.197C317.412 580.276 318.075 579.556 318.916 579.039C319.772 578.522 320.742 578.263 321.826 578.263ZM325.584 583.307C325.423 582.127 325.027 581.246 324.396 580.664C323.766 580.066 322.909 579.766 321.826 579.766C320.775 579.766 319.91 580.106 319.231 580.785C318.568 581.448 318.148 582.288 317.97 583.307H325.584ZM341.009 590.388C339.909 590.388 338.939 590.154 338.099 589.685C337.274 589.216 336.644 588.553 336.207 587.696L337.686 586.969C338.284 588.246 339.457 588.884 341.203 588.884C342.043 588.884 342.738 588.731 343.288 588.424C343.838 588.117 344.113 587.64 344.113 586.993C344.113 586.33 343.886 585.837 343.434 585.514C342.997 585.19 342.221 584.98 341.106 584.883C339.554 584.754 338.438 584.406 337.759 583.84C337.096 583.275 336.765 582.523 336.765 581.585C336.765 580.534 337.145 579.718 337.905 579.136C338.664 578.554 339.707 578.263 341.033 578.263C343.28 578.263 344.808 579.152 345.616 580.93L344.137 581.658C343.862 581.011 343.458 580.534 342.924 580.227C342.407 579.92 341.736 579.766 340.912 579.766C340.071 579.766 339.424 579.92 338.972 580.227C338.535 580.534 338.317 580.971 338.317 581.537C338.317 582.07 338.551 582.507 339.02 582.846C339.505 583.17 340.33 583.38 341.494 583.477C342.932 583.606 343.999 583.962 344.695 584.544C345.406 585.11 345.762 585.861 345.762 586.799C345.762 587.559 345.543 588.214 345.107 588.763C344.67 589.297 344.088 589.701 343.361 589.976C342.633 590.251 341.849 590.388 341.009 590.388ZM349.832 590V580.154H347.892V578.651H349.832V574.892H351.481V578.651H354.1V580.154H351.481V590H349.832ZM362.452 578.263C362.84 578.263 363.212 578.32 363.567 578.433V579.936C363.228 579.775 362.856 579.694 362.452 579.694C361.757 579.694 361.11 579.888 360.512 580.276C359.914 580.664 359.429 581.23 359.057 581.973C358.701 582.701 358.523 583.566 358.523 584.568V590H356.874V578.651H358.523V580.93C358.96 580.09 359.509 579.435 360.172 578.966C360.851 578.497 361.611 578.263 362.452 578.263ZM370.724 578.263C371.742 578.263 372.664 578.514 373.488 579.015C374.313 579.516 374.959 580.203 375.428 581.076C375.897 581.933 376.131 582.895 376.131 583.962C376.131 584.269 376.123 584.503 376.107 584.665H366.771C366.835 585.829 367.215 586.823 367.911 587.648C368.606 588.472 369.551 588.884 370.748 588.884C371.718 588.884 372.518 588.707 373.149 588.351C373.795 587.979 374.313 587.47 374.701 586.823L376.01 587.696C375.477 588.537 374.773 589.2 373.9 589.685C373.027 590.154 371.993 590.388 370.796 590.388C369.697 590.388 368.719 590.129 367.862 589.612C367.005 589.095 366.334 588.375 365.849 587.454C365.364 586.532 365.122 585.489 365.122 584.325C365.122 583.161 365.356 582.119 365.825 581.197C366.31 580.276 366.973 579.556 367.814 579.039C368.67 578.522 369.64 578.263 370.724 578.263ZM374.482 583.307C374.321 582.127 373.925 581.246 373.294 580.664C372.664 580.066 371.807 579.766 370.724 579.766C369.673 579.766 368.808 580.106 368.129 580.785C367.466 581.448 367.046 582.288 366.868 583.307H374.482ZM383.537 590.388C382.438 590.388 381.468 590.154 380.627 589.685C379.802 589.216 379.172 588.553 378.735 587.696L380.215 586.969C380.813 588.246 381.985 588.884 383.731 588.884C384.572 588.884 385.267 588.731 385.816 588.424C386.366 588.117 386.641 587.64 386.641 586.993C386.641 586.33 386.415 585.837 385.962 585.514C385.525 585.19 384.749 584.98 383.634 584.883C382.082 584.754 380.966 584.406 380.287 583.84C379.625 583.275 379.293 582.523 379.293 581.585C379.293 580.534 379.673 579.718 380.433 579.136C381.193 578.554 382.236 578.263 383.561 578.263C385.808 578.263 387.336 579.152 388.144 580.93L386.665 581.658C386.39 581.011 385.986 580.534 385.453 580.227C384.935 579.92 384.264 579.766 383.44 579.766C382.599 579.766 381.953 579.92 381.5 580.227C381.063 580.534 380.845 580.971 380.845 581.537C380.845 582.07 381.08 582.507 381.548 582.846C382.033 583.17 382.858 583.38 384.022 583.477C385.461 583.606 386.528 583.962 387.223 584.544C387.934 585.11 388.29 585.861 388.29 586.799C388.29 587.559 388.072 588.214 387.635 588.763C387.199 589.297 386.617 589.701 385.889 589.976C385.162 590.251 384.378 590.388 383.537 590.388ZM395.756 590.388C394.656 590.388 393.686 590.154 392.846 589.685C392.021 589.216 391.391 588.553 390.954 587.696L392.434 586.969C393.032 588.246 394.204 588.884 395.95 588.884C396.79 588.884 397.486 588.731 398.035 588.424C398.585 588.117 398.86 587.64 398.86 586.993C398.86 586.33 398.633 585.837 398.181 585.514C397.744 585.19 396.968 584.98 395.853 584.883C394.301 584.754 393.185 584.406 392.506 583.84C391.843 583.275 391.512 582.523 391.512 581.585C391.512 580.534 391.892 579.718 392.652 579.136C393.412 578.554 394.454 578.263 395.78 578.263C398.027 578.263 399.555 579.152 400.363 580.93L398.884 581.658C398.609 581.011 398.205 580.534 397.672 580.227C397.154 579.92 396.483 579.766 395.659 579.766C394.818 579.766 394.171 579.92 393.719 580.227C393.282 580.534 393.064 580.971 393.064 581.537C393.064 582.07 393.298 582.507 393.767 582.846C394.252 583.17 395.077 583.38 396.241 583.477C397.68 583.606 398.747 583.962 399.442 584.544C400.153 585.11 400.509 585.861 400.509 586.799C400.509 587.559 400.291 588.214 399.854 588.763C399.418 589.297 398.836 589.701 398.108 589.976C397.381 590.251 396.596 590.388 395.756 590.388ZM415.29 590.388C414.207 590.388 413.237 590.129 412.38 589.612C411.523 589.095 410.852 588.375 410.367 587.454C409.882 586.516 409.639 585.465 409.639 584.301C409.639 583.137 409.874 582.103 410.343 581.197C410.828 580.276 411.491 579.556 412.331 579.039C413.188 578.522 414.158 578.263 415.241 578.263C416.324 578.263 417.294 578.522 418.151 579.039C419.008 579.556 419.679 580.276 420.164 581.197C420.649 582.119 420.891 583.161 420.891 584.325C420.891 585.489 420.649 586.532 420.164 587.454C419.695 588.375 419.032 589.095 418.175 589.612C417.335 590.129 416.373 590.388 415.29 590.388ZM415.241 588.884C416.017 588.884 416.704 588.69 417.302 588.302C417.917 587.914 418.394 587.373 418.733 586.678C419.073 585.983 419.242 585.198 419.242 584.325C419.242 583.452 419.073 582.668 418.733 581.973C418.394 581.278 417.917 580.736 417.302 580.348C416.704 579.96 416.017 579.766 415.241 579.766C414.481 579.766 413.802 579.96 413.204 580.348C412.606 580.736 412.137 581.278 411.798 581.973C411.458 582.652 411.288 583.428 411.288 584.301C411.288 585.19 411.458 585.983 411.798 586.678C412.137 587.373 412.606 587.914 413.204 588.302C413.802 588.69 414.481 588.884 415.241 588.884ZM428.391 573.486C427.825 573.486 427.356 573.68 426.984 574.068C426.629 574.456 426.451 574.957 426.451 575.571V578.651H429.07V580.154H426.451V590H424.802V580.154H423.347V578.651H424.802V575.571C424.802 574.52 425.133 573.664 425.796 573.001C426.475 572.322 427.34 571.982 428.391 571.982H429.07V573.486H428.391ZM443.791 578.263C444.179 578.263 444.551 578.32 444.906 578.433V579.936C444.567 579.775 444.195 579.694 443.791 579.694C443.096 579.694 442.449 579.888 441.851 580.276C441.253 580.664 440.768 581.23 440.396 581.973C440.04 582.701 439.862 583.566 439.862 584.568V590H438.213V578.651H439.862V580.93C440.299 580.09 440.848 579.435 441.511 578.966C442.19 578.497 442.95 578.263 443.791 578.263ZM452.062 578.263C453.081 578.263 454.002 578.514 454.827 579.015C455.651 579.516 456.298 580.203 456.767 581.076C457.236 581.933 457.47 582.895 457.47 583.962C457.47 584.269 457.462 584.503 457.446 584.665H448.11C448.174 585.829 448.554 586.823 449.249 587.648C449.945 588.472 450.89 588.884 452.087 588.884C453.057 588.884 453.857 588.707 454.487 588.351C455.134 587.979 455.651 587.47 456.039 586.823L457.349 587.696C456.815 588.537 456.112 589.2 455.239 589.685C454.366 590.154 453.331 590.388 452.135 590.388C451.036 590.388 450.058 590.129 449.201 589.612C448.344 589.095 447.673 588.375 447.188 587.454C446.703 586.532 446.461 585.489 446.461 584.325C446.461 583.161 446.695 582.119 447.164 581.197C447.649 580.276 448.312 579.556 449.152 579.039C450.009 578.522 450.979 578.263 452.062 578.263ZM455.821 583.307C455.659 582.127 455.263 581.246 454.633 580.664C454.002 580.066 453.146 579.766 452.062 579.766C451.012 579.766 450.147 580.106 449.468 580.785C448.805 581.448 448.384 582.288 448.207 583.307H455.821ZM460.996 590V572.394H462.645V590H460.996ZM471.717 590.388C470.634 590.388 469.664 590.129 468.807 589.612C467.951 589.095 467.28 588.375 466.795 587.454C466.31 586.516 466.067 585.465 466.067 584.301C466.067 583.137 466.302 582.103 466.77 581.197C467.255 580.276 467.918 579.556 468.759 579.039C469.616 578.522 470.586 578.263 471.669 578.263C472.752 578.263 473.722 578.522 474.579 579.039C475.436 579.556 476.107 580.276 476.592 581.197C477.077 582.119 477.319 583.161 477.319 584.325C477.319 585.489 477.077 586.532 476.592 587.454C476.123 588.375 475.46 589.095 474.603 589.612C473.762 590.129 472.801 590.388 471.717 590.388ZM471.669 588.884C472.445 588.884 473.132 588.69 473.73 588.302C474.344 587.914 474.821 587.373 475.161 586.678C475.5 585.983 475.67 585.198 475.67 584.325C475.67 583.452 475.5 582.668 475.161 581.973C474.821 581.278 474.344 580.736 473.73 580.348C473.132 579.96 472.445 579.766 471.669 579.766C470.909 579.766 470.23 579.96 469.632 580.348C469.034 580.736 468.565 581.278 468.225 581.973C467.886 582.652 467.716 583.428 467.716 584.301C467.716 585.19 467.886 585.983 468.225 586.678C468.565 587.373 469.034 587.914 469.632 588.302C470.23 588.69 470.909 588.884 471.669 588.884ZM485.546 590.388C484.447 590.388 483.469 590.129 482.612 589.612C481.755 589.095 481.084 588.375 480.599 587.454C480.114 586.532 479.871 585.489 479.871 584.325C479.871 583.161 480.106 582.119 480.575 581.197C481.06 580.276 481.731 579.556 482.587 579.039C483.444 578.522 484.414 578.263 485.497 578.263C486.419 578.263 487.219 578.465 487.898 578.869C488.593 579.257 489.224 579.815 489.79 580.542L488.577 581.488C487.785 580.34 486.758 579.766 485.497 579.766C484.738 579.766 484.051 579.96 483.436 580.348C482.838 580.736 482.369 581.278 482.03 581.973C481.69 582.668 481.52 583.452 481.52 584.325C481.52 585.198 481.69 585.983 482.03 586.678C482.369 587.373 482.838 587.914 483.436 588.302C484.051 588.69 484.738 588.884 485.497 588.884C486.273 588.884 486.912 588.755 487.413 588.496C487.914 588.222 488.367 587.826 488.771 587.308L490.056 588.205C489.523 588.868 488.86 589.402 488.068 589.806C487.292 590.194 486.451 590.388 485.546 590.388ZM503.699 578.651V590H502.05V588.327C501.581 588.973 501.007 589.483 500.328 589.854C499.649 590.21 498.905 590.388 498.097 590.388C497.014 590.388 496.044 590.129 495.187 589.612C494.33 589.095 493.659 588.375 493.174 587.454C492.689 586.532 492.447 585.481 492.447 584.301C492.447 583.137 492.681 582.103 493.15 581.197C493.635 580.276 494.298 579.556 495.138 579.039C495.995 578.522 496.965 578.263 498.048 578.263C498.873 578.263 499.625 578.449 500.304 578.821C500.999 579.176 501.581 579.686 502.05 580.348V578.651H503.699ZM498.048 588.884C498.824 588.884 499.511 588.69 500.11 588.302C500.724 587.914 501.201 587.373 501.54 586.678C501.88 585.983 502.05 585.198 502.05 584.325C502.05 583.452 501.88 582.668 501.54 581.973C501.201 581.278 500.724 580.736 500.11 580.348C499.511 579.96 498.824 579.766 498.048 579.766C497.289 579.766 496.61 579.96 496.011 580.348C495.413 580.736 494.944 581.278 494.605 581.973C494.265 582.652 494.096 583.428 494.096 584.301C494.096 585.19 494.265 585.983 494.605 586.678C494.944 587.373 495.413 587.914 496.011 588.302C496.61 588.69 497.289 588.884 498.048 588.884ZM508.319 590V580.154H506.379V578.651H508.319V574.892H509.968V578.651H512.587V580.154H509.968V590H508.319ZM516.259 590V578.651H517.908V590H516.259ZM517.083 576.444C516.711 576.444 516.396 576.315 516.137 576.056C515.895 575.798 515.774 575.482 515.774 575.11C515.774 574.755 515.895 574.456 516.137 574.213C516.396 573.955 516.711 573.825 517.083 573.825C517.439 573.825 517.746 573.955 518.005 574.213C518.263 574.456 518.393 574.763 518.393 575.135C518.393 575.49 518.263 575.798 518.005 576.056C517.746 576.315 517.439 576.444 517.083 576.444ZM528.228 578.263C529.02 578.263 529.748 578.425 530.41 578.748C531.089 579.071 531.623 579.548 532.011 580.179C532.415 580.809 532.617 581.553 532.617 582.41V590H530.968V583.137C530.968 580.89 529.966 579.766 527.961 579.766C526.797 579.766 525.924 580.179 525.342 581.003C524.76 581.828 524.469 582.935 524.469 584.325V590H522.82V578.651H524.469V580.542C524.857 579.815 525.366 579.257 525.997 578.869C526.644 578.465 527.387 578.263 528.228 578.263ZM547.364 578.651V589.563C547.364 590.582 547.154 591.487 546.733 592.28C546.313 593.088 545.723 593.718 544.963 594.171C544.203 594.624 543.338 594.85 542.368 594.85H537.664V593.347H542.368C543.354 593.347 544.155 592.991 544.769 592.28C545.4 591.568 545.715 590.663 545.715 589.563V588.327C545.246 588.973 544.672 589.483 543.993 589.854C543.314 590.21 542.57 590.388 541.762 590.388C540.679 590.388 539.709 590.129 538.852 589.612C537.995 589.095 537.324 588.375 536.839 587.454C536.354 586.532 536.112 585.481 536.112 584.301C536.112 583.137 536.346 582.103 536.815 581.197C537.3 580.276 537.963 579.556 538.804 579.039C539.66 578.522 540.63 578.263 541.714 578.263C542.538 578.263 543.29 578.449 543.969 578.821C544.664 579.176 545.246 579.686 545.715 580.348V578.651H547.364ZM541.714 588.884C542.49 588.884 543.177 588.69 543.775 588.302C544.389 587.914 544.866 587.373 545.206 586.678C545.545 585.983 545.715 585.198 545.715 584.325C545.715 583.452 545.545 582.668 545.206 581.973C544.866 581.278 544.389 580.736 543.775 580.348C543.177 579.96 542.49 579.766 541.714 579.766C540.954 579.766 540.275 579.96 539.677 580.348C539.078 580.736 538.61 581.278 538.27 581.973C537.931 582.652 537.761 583.428 537.761 584.301C537.761 585.19 537.931 585.983 538.27 586.678C538.61 587.373 539.078 587.914 539.677 588.302C540.275 588.69 540.954 588.884 541.714 588.884Z" fill="white"/>
</svg>
