<svg width="1080" height="240" viewBox="0 0 1080 240" fill="none" xmlns="http://www.w3.org/2000/svg">
<rect width="1080" height="240" fill="white"/>
<circle cx="220" cy="97" r="60" fill="#2196F3"/>
<circle cx="540" cy="93" r="60" fill="#E65100"/>
<circle cx="860" cy="93" r="60" fill="#202020"/>
<path d="M176.576 200.26L175.848 206.14H179.824V207.68H175.652L175.008 213H173.496L174.14 207.68H168.4L167.728 213H166.216L166.86 207.68H162.884V206.14H167.056L167.784 200.26H163.78V198.72H167.98L168.624 193.4H170.164L169.492 198.72H175.26L175.904 193.4H177.416L176.772 198.72H180.72V200.26H176.576ZM175.064 200.26H169.324L168.568 206.14H174.336L175.064 200.26ZM196.688 211.208V213H182.94V211.572L191.088 203.592C192.115 202.584 192.806 201.716 193.16 200.988C193.534 200.241 193.72 199.495 193.72 198.748C193.72 197.591 193.319 196.695 192.516 196.06C191.732 195.407 190.603 195.08 189.128 195.08C186.832 195.08 185.05 195.808 183.78 197.264L182.352 196.032C183.118 195.136 184.088 194.445 185.264 193.96C186.459 193.475 187.803 193.232 189.296 193.232C191.294 193.232 192.871 193.708 194.028 194.66C195.204 195.593 195.792 196.881 195.792 198.524C195.792 199.532 195.568 200.503 195.12 201.436C194.672 202.369 193.823 203.443 192.572 204.656L185.908 211.208H196.688ZM204.93 193.4V213H202.914V195.192H198.294V193.4H204.93ZM215.999 193.232C218.594 193.232 220.582 194.091 221.963 195.808C223.345 197.507 224.035 199.915 224.035 203.032C224.035 205.216 223.662 207.064 222.915 208.576C222.169 210.088 221.123 211.236 219.779 212.02C218.435 212.785 216.867 213.168 215.075 213.168C213.134 213.168 211.585 212.813 210.427 212.104L211.239 210.48C212.173 211.096 213.442 211.404 215.047 211.404C217.213 211.404 218.911 210.723 220.143 209.36C221.375 207.979 221.991 205.981 221.991 203.368C221.991 202.883 221.963 202.351 221.907 201.772C221.422 202.836 220.647 203.667 219.583 204.264C218.519 204.843 217.297 205.132 215.915 205.132C214.627 205.132 213.479 204.889 212.471 204.404C211.482 203.919 210.707 203.237 210.147 202.36C209.587 201.464 209.307 200.428 209.307 199.252C209.307 198.057 209.597 197.003 210.175 196.088C210.754 195.173 211.547 194.473 212.555 193.988C213.582 193.484 214.73 193.232 215.999 193.232ZM216.223 203.424C217.213 203.424 218.081 203.237 218.827 202.864C219.593 202.491 220.19 201.977 220.619 201.324C221.049 200.671 221.263 199.943 221.263 199.14C221.263 198.393 221.058 197.703 220.647 197.068C220.255 196.433 219.667 195.92 218.883 195.528C218.099 195.136 217.166 194.94 216.083 194.94C214.665 194.94 213.507 195.332 212.611 196.116C211.734 196.881 211.295 197.908 211.295 199.196C211.295 200.484 211.734 201.511 212.611 202.276C213.507 203.041 214.711 203.424 216.223 203.424ZM235.358 201.268C236.646 201.268 237.785 201.511 238.774 201.996C239.782 202.481 240.566 203.172 241.126 204.068C241.686 204.945 241.966 205.972 241.966 207.148C241.966 208.343 241.677 209.397 241.098 210.312C240.519 211.227 239.717 211.936 238.69 212.44C237.682 212.925 236.543 213.168 235.274 213.168C232.679 213.168 230.691 212.319 229.31 210.62C227.929 208.903 227.238 206.485 227.238 203.368C227.238 201.184 227.611 199.336 228.358 197.824C229.105 196.312 230.15 195.173 231.494 194.408C232.838 193.624 234.406 193.232 236.198 193.232C238.139 193.232 239.689 193.587 240.846 194.296L240.034 195.92C239.101 195.304 237.831 194.996 236.226 194.996C234.061 194.996 232.362 195.687 231.13 197.068C229.898 198.431 229.282 200.419 229.282 203.032C229.282 203.499 229.31 204.031 229.366 204.628C229.851 203.564 230.626 202.743 231.69 202.164C232.754 201.567 233.977 201.268 235.358 201.268ZM235.19 211.46C236.609 211.46 237.757 211.077 238.634 210.312C239.53 209.528 239.978 208.492 239.978 207.204C239.978 205.916 239.53 204.889 238.634 204.124C237.757 203.359 236.562 202.976 235.05 202.976C234.061 202.976 233.183 203.163 232.418 203.536C231.671 203.909 231.083 204.423 230.654 205.076C230.225 205.729 230.01 206.457 230.01 207.26C230.01 208.007 230.206 208.697 230.598 209.332C231.009 209.967 231.606 210.48 232.39 210.872C233.174 211.264 234.107 211.46 235.19 211.46ZM248.388 195.192V202.892H258.524V204.684H248.388V213H246.316V193.4H259.756V195.192H248.388ZM269.243 201.8C271.297 201.912 272.855 202.472 273.919 203.48C275.002 204.469 275.543 205.767 275.543 207.372C275.543 208.492 275.273 209.491 274.731 210.368C274.19 211.227 273.387 211.908 272.323 212.412C271.259 212.916 269.962 213.168 268.431 213.168C267.013 213.168 265.669 212.944 264.399 212.496C263.149 212.029 262.141 211.413 261.375 210.648L262.355 209.052C263.009 209.724 263.877 210.275 264.959 210.704C266.042 211.115 267.199 211.32 268.431 211.32C270.037 211.32 271.278 210.975 272.155 210.284C273.033 209.575 273.471 208.604 273.471 207.372C273.471 206.159 273.033 205.207 272.155 204.516C271.278 203.825 269.953 203.48 268.179 203.48H266.779V201.996L272.211 195.192H262.187V193.4H274.787V194.828L269.243 201.8Z" fill="#1A1A1A"/>
<path d="M494.711 200.26L493.983 206.14H497.959V207.68H493.787L493.143 213H491.631L492.275 207.68H486.535L485.863 213H484.351L484.995 207.68H481.019V206.14H485.191L485.919 200.26H481.915V198.72H486.115L486.759 193.4H488.299L487.627 198.72H493.395L494.039 193.4H495.551L494.907 198.72H498.855V200.26H494.711ZM493.199 200.26H487.459L486.703 206.14H492.471L493.199 200.26ZM517.035 211.208V213H503.175V193.4H516.615V195.192H505.247V202.164H515.383V203.928H505.247V211.208H517.035ZM528.132 201.268C529.42 201.268 530.559 201.511 531.548 201.996C532.556 202.481 533.34 203.172 533.9 204.068C534.46 204.945 534.74 205.972 534.74 207.148C534.74 208.343 534.451 209.397 533.872 210.312C533.293 211.227 532.491 211.936 531.464 212.44C530.456 212.925 529.317 213.168 528.048 213.168C525.453 213.168 523.465 212.319 522.084 210.62C520.703 208.903 520.012 206.485 520.012 203.368C520.012 201.184 520.385 199.336 521.132 197.824C521.879 196.312 522.924 195.173 524.268 194.408C525.612 193.624 527.18 193.232 528.972 193.232C530.913 193.232 532.463 193.587 533.62 194.296L532.808 195.92C531.875 195.304 530.605 194.996 529 194.996C526.835 194.996 525.136 195.687 523.904 197.068C522.672 198.431 522.056 200.419 522.056 203.032C522.056 203.499 522.084 204.031 522.14 204.628C522.625 203.564 523.4 202.743 524.464 202.164C525.528 201.567 526.751 201.268 528.132 201.268ZM527.964 211.46C529.383 211.46 530.531 211.077 531.408 210.312C532.304 209.528 532.752 208.492 532.752 207.204C532.752 205.916 532.304 204.889 531.408 204.124C530.531 203.359 529.336 202.976 527.824 202.976C526.835 202.976 525.957 203.163 525.192 203.536C524.445 203.909 523.857 204.423 523.428 205.076C522.999 205.729 522.784 206.457 522.784 207.26C522.784 208.007 522.98 208.697 523.372 209.332C523.783 209.967 524.38 210.48 525.164 210.872C525.948 211.264 526.881 211.46 527.964 211.46ZM542.506 201.436C545.344 201.436 547.406 201.949 548.694 202.976C550.001 203.984 550.654 205.403 550.654 207.232C550.654 208.371 550.384 209.388 549.842 210.284C549.32 211.18 548.526 211.889 547.462 212.412C546.398 212.916 545.092 213.168 543.542 213.168C542.142 213.168 540.808 212.944 539.538 212.496C538.288 212.029 537.28 211.413 536.514 210.648L537.494 209.052C538.148 209.724 539.006 210.275 540.07 210.704C541.134 211.115 542.282 211.32 543.514 211.32C545.138 211.32 546.389 210.956 547.266 210.228C548.162 209.5 548.61 208.529 548.61 207.316C548.61 205.972 548.106 204.955 547.098 204.264C546.109 203.573 544.429 203.228 542.058 203.228H537.886L538.894 193.4H549.618V195.192H540.658L539.986 201.436H542.506ZM558.926 193.4V213H556.91V195.192H552.29V193.4H558.926ZM571.703 213.168C570.191 213.168 568.838 212.767 567.643 211.964C566.467 211.161 565.543 210.013 564.871 208.52C564.218 207.008 563.891 205.235 563.891 203.2C563.891 201.165 564.218 199.401 564.871 197.908C565.543 196.396 566.467 195.239 567.643 194.436C568.838 193.633 570.191 193.232 571.703 193.232C573.215 193.232 574.559 193.633 575.735 194.436C576.93 195.239 577.863 196.396 578.535 197.908C579.207 199.401 579.543 201.165 579.543 203.2C579.543 205.235 579.207 207.008 578.535 208.52C577.863 210.013 576.93 211.161 575.735 211.964C574.559 212.767 573.215 213.168 571.703 213.168ZM571.703 211.32C572.842 211.32 573.84 211.003 574.699 210.368C575.576 209.733 576.258 208.809 576.743 207.596C577.228 206.383 577.471 204.917 577.471 203.2C577.471 201.483 577.228 200.017 576.743 198.804C576.258 197.591 575.576 196.667 574.699 196.032C573.84 195.397 572.842 195.08 571.703 195.08C570.564 195.08 569.556 195.397 568.679 196.032C567.82 196.667 567.148 197.591 566.663 198.804C566.178 200.017 565.935 201.483 565.935 203.2C565.935 204.917 566.178 206.383 566.663 207.596C567.148 208.809 567.82 209.733 568.679 210.368C569.556 211.003 570.564 211.32 571.703 211.32ZM590.522 213.168C589.01 213.168 587.657 212.767 586.462 211.964C585.286 211.161 584.362 210.013 583.69 208.52C583.037 207.008 582.71 205.235 582.71 203.2C582.71 201.165 583.037 199.401 583.69 197.908C584.362 196.396 585.286 195.239 586.462 194.436C587.657 193.633 589.01 193.232 590.522 193.232C592.034 193.232 593.378 193.633 594.554 194.436C595.749 195.239 596.682 196.396 597.354 197.908C598.026 199.401 598.362 201.165 598.362 203.2C598.362 205.235 598.026 207.008 597.354 208.52C596.682 210.013 595.749 211.161 594.554 211.964C593.378 212.767 592.034 213.168 590.522 213.168ZM590.522 211.32C591.661 211.32 592.659 211.003 593.518 210.368C594.395 209.733 595.077 208.809 595.562 207.596C596.047 206.383 596.29 204.917 596.29 203.2C596.29 201.483 596.047 200.017 595.562 198.804C595.077 197.591 594.395 196.667 593.518 196.032C592.659 195.397 591.661 195.08 590.522 195.08C589.383 195.08 588.375 195.397 587.498 196.032C586.639 196.667 585.967 197.591 585.482 198.804C584.997 200.017 584.754 201.483 584.754 203.2C584.754 204.917 584.997 206.383 585.482 207.596C585.967 208.809 586.639 209.733 587.498 210.368C588.375 211.003 589.383 211.32 590.522 211.32Z" fill="#1A1A1A"/>
<path d="M812.955 200.26L812.227 206.14H816.203V207.68H812.031L811.387 213H809.875L810.519 207.68H804.779L804.107 213H802.595L803.239 207.68H799.263V206.14H803.435L804.163 200.26H800.159V198.72H804.359L805.003 193.4H806.543L805.871 198.72H811.639L812.283 193.4H813.795L813.151 198.72H817.099V200.26H812.955ZM811.443 200.26H805.703L804.947 206.14H810.715L811.443 200.26ZM833.067 211.208V213H819.319V211.572L827.467 203.592C828.494 202.584 829.184 201.716 829.539 200.988C829.912 200.241 830.099 199.495 830.099 198.748C830.099 197.591 829.698 196.695 828.895 196.06C828.111 195.407 826.982 195.08 825.507 195.08C823.211 195.08 821.428 195.808 820.159 197.264L818.731 196.032C819.496 195.136 820.467 194.445 821.643 193.96C822.838 193.475 824.182 193.232 825.675 193.232C827.672 193.232 829.25 193.708 830.407 194.66C831.583 195.593 832.171 196.881 832.171 198.524C832.171 199.532 831.947 200.503 831.499 201.436C831.051 202.369 830.202 203.443 828.951 204.656L822.287 211.208H833.067ZM843.58 213.168C842.068 213.168 840.714 212.767 839.52 211.964C838.344 211.161 837.42 210.013 836.748 208.52C836.094 207.008 835.768 205.235 835.768 203.2C835.768 201.165 836.094 199.401 836.748 197.908C837.42 196.396 838.344 195.239 839.52 194.436C840.714 193.633 842.068 193.232 843.58 193.232C845.092 193.232 846.436 193.633 847.612 194.436C848.806 195.239 849.74 196.396 850.412 197.908C851.084 199.401 851.42 201.165 851.42 203.2C851.42 205.235 851.084 207.008 850.412 208.52C849.74 210.013 848.806 211.161 847.612 211.964C846.436 212.767 845.092 213.168 843.58 213.168ZM843.58 211.32C844.718 211.32 845.717 211.003 846.576 210.368C847.453 209.733 848.134 208.809 848.62 207.596C849.105 206.383 849.348 204.917 849.348 203.2C849.348 201.483 849.105 200.017 848.62 198.804C848.134 197.591 847.453 196.667 846.576 196.032C845.717 195.397 844.718 195.08 843.58 195.08C842.441 195.08 841.433 195.397 840.556 196.032C839.697 196.667 839.025 197.591 838.54 198.804C838.054 200.017 837.812 201.483 837.812 203.2C837.812 204.917 838.054 206.383 838.54 207.596C839.025 208.809 839.697 209.733 840.556 210.368C841.433 211.003 842.441 211.32 843.58 211.32ZM867.916 211.208V213H854.168V211.572L862.316 203.592C863.343 202.584 864.034 201.716 864.388 200.988C864.762 200.241 864.948 199.495 864.948 198.748C864.948 197.591 864.547 196.695 863.744 196.06C862.96 195.407 861.831 195.08 860.356 195.08C858.06 195.08 856.278 195.808 855.008 197.264L853.58 196.032C854.346 195.136 855.316 194.445 856.492 193.96C857.687 193.475 859.031 193.232 860.524 193.232C862.522 193.232 864.099 193.708 865.256 194.66C866.432 195.593 867.02 196.881 867.02 198.524C867.02 199.532 866.796 200.503 866.348 201.436C865.9 202.369 865.051 203.443 863.8 204.656L857.136 211.208H867.916ZM878.429 213.168C876.917 213.168 875.564 212.767 874.369 211.964C873.193 211.161 872.269 210.013 871.597 208.52C870.944 207.008 870.617 205.235 870.617 203.2C870.617 201.165 870.944 199.401 871.597 197.908C872.269 196.396 873.193 195.239 874.369 194.436C875.564 193.633 876.917 193.232 878.429 193.232C879.941 193.232 881.285 193.633 882.461 194.436C883.656 195.239 884.589 196.396 885.261 197.908C885.933 199.401 886.269 201.165 886.269 203.2C886.269 205.235 885.933 207.008 885.261 208.52C884.589 210.013 883.656 211.161 882.461 211.964C881.285 212.767 879.941 213.168 878.429 213.168ZM878.429 211.32C879.568 211.32 880.566 211.003 881.425 210.368C882.302 209.733 882.984 208.809 883.469 207.596C883.954 206.383 884.197 204.917 884.197 203.2C884.197 201.483 883.954 200.017 883.469 198.804C882.984 197.591 882.302 196.667 881.425 196.032C880.566 195.397 879.568 195.08 878.429 195.08C877.29 195.08 876.282 195.397 875.405 196.032C874.546 196.667 873.874 197.591 873.389 198.804C872.904 200.017 872.661 201.483 872.661 203.2C872.661 204.917 872.904 206.383 873.389 207.596C873.874 208.809 874.546 209.733 875.405 210.368C876.282 211.003 877.29 211.32 878.429 211.32ZM902.765 211.208V213H889.017V211.572L897.165 203.592C898.192 202.584 898.883 201.716 899.237 200.988C899.611 200.241 899.797 199.495 899.797 198.748C899.797 197.591 899.396 196.695 898.593 196.06C897.809 195.407 896.68 195.08 895.205 195.08C892.909 195.08 891.127 195.808 889.857 197.264L888.429 196.032C889.195 195.136 890.165 194.445 891.341 193.96C892.536 193.475 893.88 193.232 895.373 193.232C897.371 193.232 898.948 193.708 900.105 194.66C901.281 195.593 901.869 196.881 901.869 198.524C901.869 199.532 901.645 200.503 901.197 201.436C900.749 202.369 899.9 203.443 898.649 204.656L891.985 211.208H902.765ZM913.278 213.168C911.766 213.168 910.413 212.767 909.218 211.964C908.042 211.161 907.118 210.013 906.446 208.52C905.793 207.008 905.466 205.235 905.466 203.2C905.466 201.165 905.793 199.401 906.446 197.908C907.118 196.396 908.042 195.239 909.218 194.436C910.413 193.633 911.766 193.232 913.278 193.232C914.79 193.232 916.134 193.633 917.31 194.436C918.505 195.239 919.438 196.396 920.11 197.908C920.782 199.401 921.118 201.165 921.118 203.2C921.118 205.235 920.782 207.008 920.11 208.52C919.438 210.013 918.505 211.161 917.31 211.964C916.134 212.767 914.79 213.168 913.278 213.168ZM913.278 211.32C914.417 211.32 915.415 211.003 916.274 210.368C917.151 209.733 917.833 208.809 918.318 207.596C918.803 206.383 919.046 204.917 919.046 203.2C919.046 201.483 918.803 200.017 918.318 198.804C917.833 197.591 917.151 196.667 916.274 196.032C915.415 195.397 914.417 195.08 913.278 195.08C912.139 195.08 911.131 195.397 910.254 196.032C909.395 196.667 908.723 197.591 908.238 198.804C907.753 200.017 907.51 201.483 907.51 203.2C907.51 204.917 907.753 206.383 908.238 207.596C908.723 208.809 909.395 209.733 910.254 210.368C911.131 211.003 912.139 211.32 913.278 211.32Z" fill="#1A1A1A"/>
</svg>
