<svg width="1080" height="445" viewBox="0 0 1080 445" fill="none" xmlns="http://www.w3.org/2000/svg">
<rect width="1080" height="445" fill="#F4F4F4"/>
<path d="M741.97 325V346H739.78V336.31H726.64V346H724.42V325H726.64V334.36H739.78V325H741.97ZM758.304 346.18C756.224 346.18 754.334 345.72 752.634 344.8C750.954 343.86 749.634 342.58 748.674 340.96C747.734 339.34 747.264 337.52 747.264 335.5C747.264 333.48 747.734 331.66 748.674 330.04C749.634 328.42 750.954 327.15 752.634 326.23C754.334 325.29 756.224 324.82 758.304 324.82C760.384 324.82 762.254 325.28 763.914 326.2C765.594 327.12 766.914 328.4 767.874 330.04C768.834 331.66 769.314 333.48 769.314 335.5C769.314 337.52 768.834 339.35 767.874 340.99C766.914 342.61 765.594 343.88 763.914 344.8C762.254 345.72 760.384 346.18 758.304 346.18ZM758.304 344.2C759.964 344.2 761.464 343.83 762.804 343.09C764.144 342.33 765.194 341.29 765.954 339.97C766.714 338.63 767.094 337.14 767.094 335.5C767.094 333.86 766.714 332.38 765.954 331.06C765.194 329.72 764.144 328.68 762.804 327.94C761.464 327.18 759.964 326.8 758.304 326.8C756.644 326.8 755.134 327.18 753.774 327.94C752.434 328.68 751.374 329.72 750.594 331.06C749.834 332.38 749.454 333.86 749.454 335.5C749.454 337.14 749.834 338.63 750.594 339.97C751.374 341.29 752.434 342.33 753.774 343.09C755.134 343.83 756.644 344.2 758.304 344.2ZM783.05 346.18C780.33 346.18 778.21 345.4 776.69 343.84C775.17 342.28 774.41 340.01 774.41 337.03V325H776.63V336.94C776.63 339.38 777.18 341.2 778.28 342.4C779.38 343.6 780.97 344.2 783.05 344.2C785.15 344.2 786.75 343.6 787.85 342.4C788.95 341.2 789.5 339.38 789.5 336.94V325H791.66V337.03C791.66 340.01 790.9 342.28 789.38 343.84C787.88 345.4 785.77 346.18 783.05 346.18ZM804.44 346.18C802.88 346.18 801.38 345.93 799.94 345.43C798.52 344.93 797.42 344.27 796.64 343.45L797.51 341.74C798.27 342.5 799.28 343.12 800.54 343.6C801.8 344.06 803.1 344.29 804.44 344.29C806.32 344.29 807.73 343.95 808.67 343.27C809.61 342.57 810.08 341.67 810.08 340.57C810.08 339.73 809.82 339.06 809.3 338.56C808.8 338.06 808.18 337.68 807.44 337.42C806.7 337.14 805.67 336.84 804.35 336.52C802.77 336.12 801.51 335.74 800.57 335.38C799.63 335 798.82 334.43 798.14 333.67C797.48 332.91 797.15 331.88 797.15 330.58C797.15 329.52 797.43 328.56 797.99 327.7C798.55 326.82 799.41 326.12 800.57 325.6C801.73 325.08 803.17 324.82 804.89 324.82C806.09 324.82 807.26 324.99 808.4 325.33C809.56 325.65 810.56 326.1 811.4 326.68L810.65 328.45C809.77 327.87 808.83 327.44 807.83 327.16C806.83 326.86 805.85 326.71 804.89 326.71C803.05 326.71 801.66 327.07 800.72 327.79C799.8 328.49 799.34 329.4 799.34 330.52C799.34 331.36 799.59 332.04 800.09 332.56C800.61 333.06 801.25 333.45 802.01 333.73C802.79 333.99 803.83 334.28 805.13 334.6C806.67 334.98 807.91 335.36 808.85 335.74C809.81 336.1 810.62 336.66 811.28 337.42C811.94 338.16 812.27 339.17 812.27 340.45C812.27 341.51 811.98 342.48 811.4 343.36C810.84 344.22 809.97 344.91 808.79 345.43C807.61 345.93 806.16 346.18 804.44 346.18ZM817.407 325H819.627V346H817.407V325ZM844.31 325V346H842.48L828.98 328.96V346H826.76V325H828.59L842.12 342.04V325H844.31ZM866.254 335.5H868.384V343.51C867.404 344.37 866.244 345.03 864.904 345.49C863.564 345.95 862.154 346.18 860.674 346.18C858.574 346.18 856.684 345.72 855.004 344.8C853.324 343.88 852.004 342.61 851.044 340.99C850.084 339.35 849.604 337.52 849.604 335.5C849.604 333.48 850.084 331.66 851.044 330.04C852.004 328.4 853.324 327.12 855.004 326.2C856.684 325.28 858.584 324.82 860.704 324.82C862.304 324.82 863.774 325.08 865.114 325.6C866.454 326.1 867.584 326.85 868.504 327.85L867.124 329.26C865.464 327.62 863.354 326.8 860.794 326.8C859.094 326.8 857.554 327.18 856.174 327.94C854.814 328.68 853.744 329.72 852.964 331.06C852.184 332.38 851.794 333.86 851.794 335.5C851.794 337.14 852.184 338.62 852.964 339.94C853.744 341.26 854.814 342.3 856.174 343.06C857.534 343.82 859.064 344.2 860.764 344.2C862.924 344.2 864.754 343.66 866.254 342.58V335.5Z" fill="#1A1A1A"/>
<path d="M245.133 112V133H243.003V116.2L234.753 130.33H233.703L225.453 116.29V133H223.323V112H225.153L234.273 127.57L243.303 112H245.133ZM265.445 127.39H253.745L251.225 133H248.915L258.515 112H260.705L270.305 133H267.965L265.445 127.39ZM264.635 125.59L259.595 114.31L254.555 125.59H264.635ZM281.939 112C284.619 112 286.719 112.64 288.239 113.92C289.759 115.2 290.519 116.96 290.519 119.2C290.519 121.44 289.759 123.2 288.239 124.48C286.719 125.74 284.619 126.37 281.939 126.37H276.299V133H274.079V112H281.939ZM281.879 124.42C283.959 124.42 285.549 123.97 286.649 123.07C287.749 122.15 288.299 120.86 288.299 119.2C288.299 117.5 287.749 116.2 286.649 115.3C285.549 114.38 283.959 113.92 281.879 113.92H276.299V124.42H281.879ZM303.48 112C306.16 112 308.26 112.64 309.78 113.92C311.3 115.2 312.06 116.96 312.06 119.2C312.06 121.44 311.3 123.2 309.78 124.48C308.26 125.74 306.16 126.37 303.48 126.37H297.84V133H295.62V112H303.48ZM303.42 124.42C305.5 124.42 307.09 123.97 308.19 123.07C309.29 122.15 309.84 120.86 309.84 119.2C309.84 117.5 309.29 116.2 308.19 115.3C307.09 114.38 305.5 113.92 303.42 113.92H297.84V124.42H303.42ZM317.16 112H319.38V133H317.16V112ZM344.063 112V133H342.233L328.733 115.96V133H326.513V112H328.343L341.873 129.04V112H344.063ZM366.007 122.5H368.137V130.51C367.157 131.37 365.997 132.03 364.657 132.49C363.317 132.95 361.907 133.18 360.427 133.18C358.327 133.18 356.437 132.72 354.757 131.8C353.077 130.88 351.757 129.61 350.797 127.99C349.837 126.35 349.357 124.52 349.357 122.5C349.357 120.48 349.837 118.66 350.797 117.04C351.757 115.4 353.077 114.12 354.757 113.2C356.437 112.28 358.337 111.82 360.457 111.82C362.057 111.82 363.527 112.08 364.867 112.6C366.207 113.1 367.337 113.85 368.257 114.85L366.877 116.26C365.217 114.62 363.107 113.8 360.547 113.8C358.847 113.8 357.307 114.18 355.927 114.94C354.567 115.68 353.497 116.72 352.717 118.06C351.937 119.38 351.547 120.86 351.547 122.5C351.547 124.14 351.937 125.62 352.717 126.94C353.497 128.26 354.567 129.3 355.927 130.06C357.287 130.82 358.817 131.2 360.517 131.2C362.677 131.2 364.507 130.66 366.007 129.58V122.5Z" fill="#1A1A1A"/>
<rect x="624" y="336" width="91" height="1" fill="#1A1A1A"/>
<circle cx="624.5" cy="336.5" r="1.5" fill="#1A1A1A"/>
<circle cx="464.5" cy="123.5" r="1.5" fill="#1A1A1A"/>
<rect x="380" y="123" width="85" height="1" fill="#1A1A1A"/>
<path d="M534.406 244.241V400.796H615V338.961L534.406 244.241Z" fill="#A7A7A7"/>
<path d="M555.613 346.502H589.37L572.491 326.665L555.613 306.828V346.502Z" fill="#F4F4F4"/>
<rect x="555.611" y="373.189" width="17.5277" height="28.4202" fill="#F4F4F4"/>
<circle cx="529.852" cy="102.903" r="57.9032" fill="#A7A7A7"/>
<path d="M534.484 240.713L477.702 128.095C471.876 116.542 480.274 102.904 493.213 102.904H534.484V240.713Z" fill="#A7A7A7"/>
<circle cx="529.852" cy="102.903" r="31.2677" fill="#F4F4F4"/>
</svg>
