<svg width="1491" height="746" viewBox="0 0 1491 746" fill="none" xmlns="http://www.w3.org/2000/svg">
<rect width="1491" height="746" fill="white"/>
<path d="M696 118L696 115.5L696 118ZM746 168L743.5 168L746 168ZM744.232 227.268C745.209 228.244 746.791 228.244 747.768 227.268L763.678 211.358C764.654 210.382 764.654 208.799 763.678 207.822C762.701 206.846 761.118 206.846 760.142 207.822L746 221.964L731.858 207.822C730.882 206.846 729.299 206.846 728.322 207.822C727.346 208.799 727.346 210.382 728.322 211.358L744.232 227.268ZM554 120.5L696 120.5L696 115.5L554 115.5L554 120.5ZM743.5 168L743.5 225.5L748.5 225.5L748.5 168L743.5 168ZM696 120.5C722.234 120.5 743.5 141.766 743.5 168L748.5 168C748.5 139.005 724.995 115.5 696 115.5L696 120.5Z" fill="#1A1A1A"/>
<path d="M1041 287.537L1041 285.036L1041 287.537ZM1091 337.537L1093.5 337.537L1091 337.537ZM1089.23 397.268C1090.21 398.244 1091.79 398.244 1092.77 397.268L1108.68 381.358C1109.65 380.382 1109.65 378.799 1108.68 377.822C1107.7 376.846 1106.12 376.846 1105.14 377.822L1091 391.964L1076.86 377.822C1075.88 376.846 1074.3 376.846 1073.32 377.822C1072.35 378.799 1072.35 380.382 1073.32 381.358L1089.23 397.268ZM910 290.036L1041 290.037L1041 285.036L910 285.036L910 290.036ZM1088.5 337.537L1088.5 395.5L1093.5 395.5L1093.5 337.537L1088.5 337.537ZM1041 290.037C1067.23 290.037 1088.5 311.303 1088.5 337.537L1093.5 337.537C1093.5 308.542 1069.99 285.037 1041 285.036L1041 290.037Z" fill="#1A1A1A"/>
<path d="M1091 578L1093.5 578L1091 578ZM1041 628L1041 625.5L1041 628ZM926.732 626.232C925.756 627.209 925.756 628.791 926.732 629.768L942.642 645.678C943.618 646.654 945.201 646.654 946.178 645.678C947.154 644.701 947.154 643.118 946.178 642.142L932.035 628L946.178 613.858C947.154 612.882 947.154 611.299 946.178 610.322C945.201 609.346 943.618 609.346 942.642 610.322L926.732 626.232ZM1088.5 503L1088.5 578L1093.5 578L1093.5 503L1088.5 503ZM1041 625.5L928.5 625.5L928.5 630.5L1041 630.5L1041 625.5ZM1088.5 578C1088.5 604.233 1067.23 625.5 1041 625.5L1041 630.5C1069.99 630.5 1093.5 606.995 1093.5 578L1088.5 578Z" fill="black"/>
<path d="M461 628L461 625.5L461 628ZM411 578L413.5 578L411 578ZM412.768 518.732C411.791 517.756 410.208 517.756 409.232 518.732L393.322 534.642C392.346 535.618 392.346 537.201 393.322 538.178C394.299 539.154 395.881 539.154 396.858 538.178L411 524.036L425.142 538.178C426.118 539.154 427.701 539.154 428.678 538.178C429.654 537.201 429.654 535.618 428.678 534.642L412.768 518.732ZM592.5 625.5L461 625.5L461 630.5L592.5 630.5L592.5 625.5ZM413.5 578L413.5 520.5L408.5 520.5L408.5 578L413.5 578ZM461 625.5C434.766 625.5 413.5 604.234 413.5 578L408.5 578C408.5 606.995 432.005 630.5 461 630.5L461 625.5Z" fill="black"/>
<path d="M410.707 339.945L408.207 339.956L410.707 339.945ZM459.94 289.742L459.901 287.242L459.94 289.742ZM575.295 289.74C576.256 288.749 576.232 287.167 575.24 286.205L559.088 270.541C558.097 269.58 556.515 269.604 555.553 270.596C554.592 271.587 554.616 273.169 555.608 274.131L569.965 288.054L556.041 302.412C555.08 303.403 555.104 304.985 556.096 305.947C557.087 306.908 558.669 306.884 559.631 305.892L575.295 289.74ZM413.5 409.99L413.207 339.935L408.207 339.956L408.5 410.01L413.5 409.99ZM459.978 292.241L573.538 290.5L573.462 285.5L459.901 287.242L459.978 292.241ZM413.207 339.935C413.098 313.908 433.954 292.641 459.978 292.241L459.901 287.242C431.138 287.683 408.086 311.189 408.207 339.956L413.207 339.935Z" fill="black"/>
<rect x="226" y="58" width="350" height="120" rx="40" fill="#1172C1"/>
<path d="M312.438 131.54C310.734 131.54 309.27 131.3 308.046 130.82C306.822 130.316 305.802 129.62 304.986 128.732C304.194 127.844 303.606 126.8 303.222 125.6C302.838 124.4 302.646 123.08 302.646 121.64V106.052H307.218V121.208C307.218 122.336 307.338 123.308 307.578 124.124C307.842 124.916 308.202 125.564 308.658 126.068C309.138 126.572 309.69 126.944 310.314 127.184C310.962 127.424 311.682 127.544 312.474 127.544C313.266 127.544 313.986 127.424 314.634 127.184C315.282 126.944 315.834 126.572 316.29 126.068C316.77 125.564 317.13 124.916 317.37 124.124C317.634 123.308 317.766 122.336 317.766 121.208V106.052H322.338V121.64C322.338 123.08 322.134 124.4 321.726 125.6C321.342 126.8 320.742 127.844 319.926 128.732C319.134 129.62 318.114 130.316 316.866 130.82C315.618 131.3 314.142 131.54 312.438 131.54ZM332.638 127.868C333.79 127.868 334.63 127.736 335.158 127.472C335.686 127.184 335.95 126.704 335.95 126.032C335.95 125.408 335.662 124.892 335.086 124.484C334.534 124.076 333.61 123.632 332.314 123.152C331.522 122.864 330.79 122.564 330.118 122.252C329.47 121.916 328.906 121.532 328.426 121.1C327.946 120.668 327.562 120.152 327.274 119.552C327.01 118.928 326.878 118.172 326.878 117.284C326.878 115.556 327.514 114.2 328.786 113.216C330.058 112.208 331.786 111.704 333.97 111.704C335.074 111.704 336.13 111.812 337.138 112.028C338.146 112.22 338.902 112.412 339.406 112.604L338.614 116.132C338.134 115.916 337.522 115.724 336.778 115.556C336.034 115.364 335.17 115.268 334.186 115.268C333.298 115.268 332.578 115.424 332.026 115.736C331.474 116.024 331.198 116.48 331.198 117.104C331.198 117.416 331.246 117.692 331.342 117.932C331.462 118.172 331.654 118.4 331.918 118.616C332.182 118.808 332.53 119.012 332.962 119.228C333.394 119.42 333.922 119.624 334.546 119.84C335.578 120.224 336.454 120.608 337.174 120.992C337.894 121.352 338.482 121.772 338.938 122.252C339.418 122.708 339.766 123.236 339.982 123.836C340.198 124.436 340.306 125.156 340.306 125.996C340.306 127.796 339.634 129.164 338.29 130.1C336.97 131.012 335.074 131.468 332.602 131.468C330.946 131.468 329.614 131.324 328.606 131.036C327.598 130.772 326.89 130.556 326.482 130.388L327.238 126.752C327.886 127.016 328.654 127.268 329.542 127.508C330.454 127.748 331.486 127.868 332.638 127.868ZM343.332 121.676C343.332 120.02 343.572 118.568 344.052 117.32C344.556 116.072 345.216 115.04 346.032 114.224C346.848 113.384 347.784 112.76 348.84 112.352C349.896 111.92 350.976 111.704 352.08 111.704C354.672 111.704 356.688 112.508 358.128 114.116C359.592 115.724 360.324 118.124 360.324 121.316C360.324 121.556 360.312 121.832 360.288 122.144C360.288 122.432 360.276 122.696 360.252 122.936H347.832C347.952 124.448 348.48 125.624 349.416 126.464C350.376 127.28 351.756 127.688 353.556 127.688C354.612 127.688 355.572 127.592 356.436 127.4C357.324 127.208 358.02 127.004 358.524 126.788L359.1 130.352C358.86 130.472 358.524 130.604 358.092 130.748C357.684 130.868 357.204 130.976 356.652 131.072C356.124 131.192 355.548 131.288 354.924 131.36C354.3 131.432 353.664 131.468 353.016 131.468C351.36 131.468 349.92 131.228 348.696 130.748C347.472 130.244 346.464 129.56 345.672 128.696C344.88 127.808 344.292 126.776 343.908 125.6C343.524 124.4 343.332 123.092 343.332 121.676ZM355.968 119.732C355.968 119.132 355.884 118.568 355.716 118.04C355.548 117.488 355.296 117.02 354.96 116.636C354.648 116.228 354.252 115.916 353.772 115.7C353.316 115.46 352.764 115.34 352.116 115.34C351.444 115.34 350.856 115.472 350.352 115.736C349.848 115.976 349.416 116.3 349.056 116.708C348.72 117.116 348.456 117.584 348.264 118.112C348.072 118.64 347.94 119.18 347.868 119.732H355.968ZM375.67 116.096C375.31 115.976 374.806 115.856 374.158 115.736C373.534 115.592 372.802 115.52 371.962 115.52C371.482 115.52 370.966 115.568 370.414 115.664C369.886 115.76 369.514 115.844 369.298 115.916V131H364.942V113.072C365.782 112.76 366.826 112.472 368.074 112.208C369.346 111.92 370.75 111.776 372.286 111.776C372.574 111.776 372.91 111.8 373.294 111.848C373.678 111.872 374.062 111.92 374.446 111.992C374.83 112.04 375.202 112.112 375.562 112.208C375.922 112.28 376.21 112.352 376.426 112.424L375.67 116.096ZM394.128 127.616C395.76 127.616 396.948 127.34 397.692 126.788C398.436 126.236 398.808 125.456 398.808 124.448C398.808 123.848 398.676 123.332 398.412 122.9C398.172 122.468 397.812 122.084 397.332 121.748C396.876 121.388 396.312 121.064 395.64 120.776C394.968 120.464 394.2 120.164 393.336 119.876C392.472 119.564 391.632 119.228 390.816 118.868C390.024 118.484 389.316 118.016 388.692 117.464C388.092 116.912 387.6 116.252 387.216 115.484C386.856 114.716 386.676 113.792 386.676 112.712C386.676 110.456 387.456 108.692 389.016 107.42C390.576 106.124 392.7 105.476 395.388 105.476C396.948 105.476 398.328 105.656 399.528 106.016C400.752 106.352 401.712 106.724 402.408 107.132L401.004 110.804C400.188 110.348 399.288 110 398.304 109.76C397.344 109.52 396.348 109.4 395.316 109.4C394.092 109.4 393.132 109.652 392.436 110.156C391.764 110.66 391.428 111.368 391.428 112.28C391.428 112.832 391.536 113.312 391.752 113.72C391.992 114.104 392.316 114.452 392.724 114.764C393.156 115.076 393.648 115.364 394.2 115.628C394.776 115.892 395.4 116.144 396.072 116.384C397.248 116.816 398.292 117.26 399.204 117.716C400.14 118.148 400.92 118.676 401.544 119.3C402.192 119.9 402.684 120.62 403.02 121.46C403.356 122.276 403.524 123.272 403.524 124.448C403.524 126.704 402.72 128.456 401.112 129.704C399.528 130.928 397.2 131.54 394.128 131.54C393.096 131.54 392.148 131.468 391.284 131.324C390.444 131.204 389.688 131.048 389.016 130.856C388.368 130.664 387.804 130.472 387.324 130.28C386.844 130.064 386.46 129.872 386.172 129.704L387.504 125.996C388.152 126.356 389.028 126.716 390.132 127.076C391.236 127.436 392.568 127.616 394.128 127.616ZM407.089 107.204L411.445 106.484V112.172H418.141V115.808H411.445V123.476C411.445 124.988 411.685 126.068 412.165 126.716C412.645 127.364 413.461 127.688 414.613 127.688C415.405 127.688 416.101 127.604 416.701 127.436C417.325 127.268 417.817 127.112 418.177 126.968L418.897 130.424C418.393 130.64 417.733 130.856 416.917 131.072C416.101 131.312 415.141 131.432 414.037 131.432C412.693 131.432 411.565 131.252 410.653 130.892C409.765 130.532 409.057 130.016 408.529 129.344C408.001 128.648 407.629 127.82 407.413 126.86C407.197 125.876 407.089 124.76 407.089 123.512V107.204ZM438.958 121.568C438.958 123.056 438.742 124.412 438.31 125.636C437.878 126.86 437.266 127.904 436.474 128.768C435.682 129.632 434.722 130.304 433.594 130.784C432.49 131.264 431.266 131.504 429.922 131.504C428.578 131.504 427.354 131.264 426.25 130.784C425.146 130.304 424.198 129.632 423.406 128.768C422.614 127.904 421.99 126.86 421.534 125.636C421.102 124.412 420.886 123.056 420.886 121.568C420.886 120.08 421.102 118.736 421.534 117.536C421.99 116.312 422.614 115.268 423.406 114.404C424.222 113.54 425.182 112.88 426.286 112.424C427.39 111.944 428.602 111.704 429.922 111.704C431.242 111.704 432.454 111.944 433.558 112.424C434.686 112.88 435.646 113.54 436.438 114.404C437.23 115.268 437.842 116.312 438.274 117.536C438.73 118.736 438.958 120.08 438.958 121.568ZM434.494 121.568C434.494 119.696 434.086 118.22 433.27 117.14C432.478 116.036 431.362 115.484 429.922 115.484C428.482 115.484 427.354 116.036 426.538 117.14C425.746 118.22 425.35 119.696 425.35 121.568C425.35 123.464 425.746 124.964 426.538 126.068C427.354 127.172 428.482 127.724 429.922 127.724C431.362 127.724 432.478 127.172 433.27 126.068C434.086 124.964 434.494 123.464 434.494 121.568ZM454.174 116.096C453.814 115.976 453.31 115.856 452.662 115.736C452.038 115.592 451.306 115.52 450.466 115.52C449.986 115.52 449.47 115.568 448.918 115.664C448.39 115.76 448.018 115.844 447.802 115.916V131H443.446V113.072C444.286 112.76 445.33 112.472 446.578 112.208C447.85 111.92 449.254 111.776 450.79 111.776C451.078 111.776 451.414 111.8 451.798 111.848C452.182 111.872 452.566 111.92 452.95 111.992C453.334 112.04 453.706 112.112 454.066 112.208C454.426 112.28 454.714 112.352 454.93 112.424L454.174 116.096ZM462.357 131H458.001V112.172H462.357V131ZM462.825 106.664C462.825 107.48 462.561 108.128 462.033 108.608C461.505 109.088 460.881 109.328 460.161 109.328C459.417 109.328 458.781 109.088 458.253 108.608C457.725 108.128 457.461 107.48 457.461 106.664C457.461 105.824 457.725 105.164 458.253 104.684C458.781 104.204 459.417 103.964 460.161 103.964C460.881 103.964 461.505 104.204 462.033 104.684C462.561 105.164 462.825 105.824 462.825 106.664ZM466.871 121.676C466.871 120.02 467.111 118.568 467.591 117.32C468.095 116.072 468.755 115.04 469.571 114.224C470.387 113.384 471.323 112.76 472.379 112.352C473.435 111.92 474.515 111.704 475.619 111.704C478.211 111.704 480.227 112.508 481.667 114.116C483.131 115.724 483.863 118.124 483.863 121.316C483.863 121.556 483.851 121.832 483.827 122.144C483.827 122.432 483.815 122.696 483.791 122.936H471.371C471.491 124.448 472.019 125.624 472.955 126.464C473.915 127.28 475.295 127.688 477.095 127.688C478.151 127.688 479.111 127.592 479.975 127.4C480.863 127.208 481.559 127.004 482.063 126.788L482.639 130.352C482.399 130.472 482.063 130.604 481.631 130.748C481.223 130.868 480.743 130.976 480.191 131.072C479.663 131.192 479.087 131.288 478.463 131.36C477.839 131.432 477.203 131.468 476.555 131.468C474.899 131.468 473.459 131.228 472.235 130.748C471.011 130.244 470.003 129.56 469.211 128.696C468.419 127.808 467.831 126.776 467.447 125.6C467.063 124.4 466.871 123.092 466.871 121.676ZM479.507 119.732C479.507 119.132 479.423 118.568 479.255 118.04C479.087 117.488 478.835 117.02 478.499 116.636C478.187 116.228 477.791 115.916 477.311 115.7C476.855 115.46 476.303 115.34 475.655 115.34C474.983 115.34 474.395 115.472 473.891 115.736C473.387 115.976 472.955 116.3 472.595 116.708C472.259 117.116 471.995 117.584 471.803 118.112C471.611 118.64 471.479 119.18 471.407 119.732H479.507ZM493.197 127.868C494.349 127.868 495.189 127.736 495.717 127.472C496.245 127.184 496.509 126.704 496.509 126.032C496.509 125.408 496.221 124.892 495.645 124.484C495.093 124.076 494.169 123.632 492.873 123.152C492.081 122.864 491.349 122.564 490.677 122.252C490.029 121.916 489.465 121.532 488.985 121.1C488.505 120.668 488.121 120.152 487.833 119.552C487.569 118.928 487.437 118.172 487.437 117.284C487.437 115.556 488.073 114.2 489.345 113.216C490.617 112.208 492.345 111.704 494.529 111.704C495.633 111.704 496.689 111.812 497.697 112.028C498.705 112.22 499.461 112.412 499.965 112.604L499.173 116.132C498.693 115.916 498.081 115.724 497.337 115.556C496.593 115.364 495.729 115.268 494.745 115.268C493.857 115.268 493.137 115.424 492.585 115.736C492.033 116.024 491.757 116.48 491.757 117.104C491.757 117.416 491.805 117.692 491.901 117.932C492.021 118.172 492.213 118.4 492.477 118.616C492.741 118.808 493.089 119.012 493.521 119.228C493.953 119.42 494.481 119.624 495.105 119.84C496.137 120.224 497.013 120.608 497.733 120.992C498.453 121.352 499.041 121.772 499.497 122.252C499.977 122.708 500.325 123.236 500.541 123.836C500.757 124.436 500.865 125.156 500.865 125.996C500.865 127.796 500.193 129.164 498.849 130.1C497.529 131.012 495.633 131.468 493.161 131.468C491.505 131.468 490.173 131.324 489.165 131.036C488.157 130.772 487.449 130.556 487.041 130.388L487.797 126.752C488.445 127.016 489.213 127.268 490.101 127.508C491.013 127.748 492.045 127.868 493.197 127.868Z" fill="white"/>
<rect x="576" y="228" width="350" height="120" rx="40" fill="#0D5692"/>
<path d="M684.326 276.052H688.862V301H684.326V276.052ZM698.042 291.532C698.042 293.452 698.498 294.964 699.41 296.068C700.322 297.148 701.582 297.688 703.19 297.688C703.886 297.688 704.474 297.664 704.954 297.616C705.458 297.544 705.866 297.472 706.178 297.4V286.6C705.794 286.336 705.278 286.096 704.63 285.88C704.006 285.64 703.334 285.52 702.614 285.52C701.03 285.52 699.866 286.06 699.122 287.14C698.402 288.22 698.042 289.684 698.042 291.532ZM710.534 300.424C709.67 300.688 708.578 300.928 707.258 301.144C705.962 301.36 704.594 301.468 703.154 301.468C701.666 301.468 700.334 301.24 699.158 300.784C697.982 300.328 696.974 299.68 696.134 298.84C695.318 297.976 694.682 296.944 694.226 295.744C693.794 294.52 693.578 293.152 693.578 291.64C693.578 290.152 693.758 288.808 694.118 287.608C694.502 286.384 695.054 285.34 695.774 284.476C696.494 283.612 697.37 282.952 698.402 282.496C699.434 282.016 700.622 281.776 701.966 281.776C702.878 281.776 703.682 281.884 704.378 282.1C705.074 282.316 705.674 282.556 706.178 282.82V273.784L710.534 273.064V300.424ZM715.023 291.676C715.023 290.02 715.263 288.568 715.743 287.32C716.247 286.072 716.907 285.04 717.723 284.224C718.539 283.384 719.475 282.76 720.531 282.352C721.587 281.92 722.667 281.704 723.771 281.704C726.363 281.704 728.379 282.508 729.819 284.116C731.283 285.724 732.015 288.124 732.015 291.316C732.015 291.556 732.003 291.832 731.979 292.144C731.979 292.432 731.967 292.696 731.943 292.936H719.523C719.643 294.448 720.171 295.624 721.107 296.464C722.067 297.28 723.447 297.688 725.247 297.688C726.303 297.688 727.263 297.592 728.127 297.4C729.015 297.208 729.711 297.004 730.215 296.788L730.791 300.352C730.551 300.472 730.215 300.604 729.783 300.748C729.375 300.868 728.895 300.976 728.343 301.072C727.815 301.192 727.239 301.288 726.615 301.36C725.991 301.432 725.355 301.468 724.707 301.468C723.051 301.468 721.611 301.228 720.387 300.748C719.163 300.244 718.155 299.56 717.363 298.696C716.571 297.808 715.983 296.776 715.599 295.6C715.215 294.4 715.023 293.092 715.023 291.676ZM727.659 289.732C727.659 289.132 727.575 288.568 727.407 288.04C727.239 287.488 726.987 287.02 726.651 286.636C726.339 286.228 725.943 285.916 725.463 285.7C725.007 285.46 724.455 285.34 723.807 285.34C723.135 285.34 722.547 285.472 722.043 285.736C721.539 285.976 721.107 286.3 720.747 286.708C720.411 287.116 720.147 287.584 719.955 288.112C719.763 288.64 719.631 289.18 719.559 289.732H727.659ZM743.257 297.94C744.601 297.94 745.621 297.868 746.317 297.724V292.9C746.077 292.828 745.729 292.756 745.273 292.684C744.817 292.612 744.313 292.576 743.761 292.576C743.281 292.576 742.789 292.612 742.285 292.684C741.805 292.756 741.361 292.888 740.953 293.08C740.569 293.272 740.257 293.548 740.017 293.908C739.777 294.244 739.657 294.676 739.657 295.204C739.657 296.236 739.981 296.956 740.629 297.364C741.277 297.748 742.153 297.94 743.257 297.94ZM742.897 281.704C744.337 281.704 745.549 281.884 746.533 282.244C747.517 282.604 748.297 283.108 748.873 283.756C749.473 284.404 749.893 285.196 750.133 286.132C750.397 287.044 750.529 288.052 750.529 289.156V300.568C749.857 300.712 748.837 300.88 747.469 301.072C746.125 301.288 744.601 301.396 742.897 301.396C741.769 301.396 740.737 301.288 739.801 301.072C738.865 300.856 738.061 300.508 737.389 300.028C736.741 299.548 736.225 298.924 735.841 298.156C735.481 297.388 735.301 296.44 735.301 295.312C735.301 294.232 735.505 293.32 735.913 292.576C736.345 291.832 736.921 291.232 737.641 290.776C738.361 290.296 739.189 289.96 740.125 289.768C741.085 289.552 742.081 289.444 743.113 289.444C743.593 289.444 744.097 289.48 744.625 289.552C745.153 289.6 745.717 289.696 746.317 289.84V289.12C746.317 288.616 746.257 288.136 746.137 287.68C746.017 287.224 745.801 286.828 745.489 286.492C745.201 286.132 744.805 285.856 744.301 285.664C743.821 285.472 743.209 285.376 742.465 285.376C741.457 285.376 740.533 285.448 739.693 285.592C738.853 285.736 738.169 285.904 737.641 286.096L737.101 282.568C737.653 282.376 738.457 282.184 739.513 281.992C740.569 281.8 741.697 281.704 742.897 281.704ZM755.648 277.204L760.004 276.484V282.172H766.7V285.808H760.004V293.476C760.004 294.988 760.244 296.068 760.724 296.716C761.204 297.364 762.02 297.688 763.172 297.688C763.964 297.688 764.66 297.604 765.26 297.436C765.884 297.268 766.376 297.112 766.736 296.968L767.456 300.424C766.952 300.64 766.292 300.856 765.476 301.072C764.66 301.312 763.7 301.432 762.596 301.432C761.252 301.432 760.124 301.252 759.212 300.892C758.324 300.532 757.616 300.016 757.088 299.344C756.56 298.648 756.188 297.82 755.972 296.86C755.756 295.876 755.648 294.76 755.648 293.512V277.204ZM775.303 301H770.947V282.172H775.303V301ZM775.771 276.664C775.771 277.48 775.507 278.128 774.979 278.608C774.451 279.088 773.827 279.328 773.107 279.328C772.363 279.328 771.727 279.088 771.199 278.608C770.671 278.128 770.407 277.48 770.407 276.664C770.407 275.824 770.671 275.164 771.199 274.684C771.727 274.204 772.363 273.964 773.107 273.964C773.827 273.964 774.451 274.204 774.979 274.684C775.507 275.164 775.771 275.824 775.771 276.664ZM797.888 291.568C797.888 293.056 797.672 294.412 797.24 295.636C796.808 296.86 796.196 297.904 795.404 298.768C794.612 299.632 793.652 300.304 792.524 300.784C791.42 301.264 790.196 301.504 788.852 301.504C787.508 301.504 786.284 301.264 785.18 300.784C784.076 300.304 783.128 299.632 782.336 298.768C781.544 297.904 780.92 296.86 780.464 295.636C780.032 294.412 779.816 293.056 779.816 291.568C779.816 290.08 780.032 288.736 780.464 287.536C780.92 286.312 781.544 285.268 782.336 284.404C783.152 283.54 784.112 282.88 785.216 282.424C786.32 281.944 787.532 281.704 788.852 281.704C790.172 281.704 791.384 281.944 792.488 282.424C793.616 282.88 794.576 283.54 795.368 284.404C796.16 285.268 796.772 286.312 797.204 287.536C797.66 288.736 797.888 290.08 797.888 291.568ZM793.424 291.568C793.424 289.696 793.016 288.22 792.2 287.14C791.408 286.036 790.292 285.484 788.852 285.484C787.412 285.484 786.284 286.036 785.468 287.14C784.676 288.22 784.28 289.696 784.28 291.568C784.28 293.464 784.676 294.964 785.468 296.068C786.284 297.172 787.412 297.724 788.852 297.724C790.292 297.724 791.408 297.172 792.2 296.068C793.016 294.964 793.424 293.464 793.424 291.568ZM802.376 282.784C803.216 282.544 804.308 282.316 805.652 282.1C806.996 281.884 808.484 281.776 810.116 281.776C811.652 281.776 812.936 281.992 813.968 282.424C815 282.832 815.816 283.42 816.416 284.188C817.04 284.932 817.472 285.844 817.712 286.924C817.976 287.98 818.108 289.144 818.108 290.416V301H813.752V291.1C813.752 290.092 813.68 289.24 813.536 288.544C813.416 287.824 813.2 287.248 812.888 286.816C812.6 286.36 812.192 286.036 811.664 285.844C811.16 285.628 810.536 285.52 809.792 285.52C809.24 285.52 808.664 285.556 808.064 285.628C807.464 285.7 807.02 285.76 806.732 285.808V301H802.376V282.784Z" fill="white"/>
<rect x="916" y="398" width="350" height="120" rx="40" fill="#0D5692"/>
<path d="M1000.11 445.8C1003.73 445.8 1006.51 446.46 1008.43 447.78C1010.37 449.1 1011.34 451.164 1011.34 453.972C1011.34 455.436 1011.08 456.696 1010.55 457.752C1010.05 458.784 1009.3 459.636 1008.32 460.308C1007.33 460.956 1006.13 461.436 1004.72 461.748C1003.3 462.06 1001.68 462.216 999.858 462.216H997.59V471H993.054V446.412C994.11 446.172 995.274 446.016 996.546 445.944C997.842 445.848 999.03 445.8 1000.11 445.8ZM1000.43 449.724C999.282 449.724 998.334 449.76 997.59 449.832V458.328H999.786C1001.97 458.328 1003.65 458.028 1004.83 457.428C1006 456.804 1006.59 455.64 1006.59 453.936C1006.59 453.12 1006.43 452.436 1006.12 451.884C1005.81 451.332 1005.38 450.9 1004.83 450.588C1004.27 450.276 1003.61 450.06 1002.85 449.94C1002.1 449.796 1001.3 449.724 1000.43 449.724ZM1026 456.096C1025.64 455.976 1025.13 455.856 1024.48 455.736C1023.86 455.592 1023.13 455.52 1022.29 455.52C1021.81 455.52 1021.29 455.568 1020.74 455.664C1020.21 455.76 1019.84 455.844 1019.62 455.916V471H1015.27V453.072C1016.11 452.76 1017.15 452.472 1018.4 452.208C1019.67 451.92 1021.08 451.776 1022.61 451.776C1022.9 451.776 1023.24 451.8 1023.62 451.848C1024 451.872 1024.39 451.92 1024.77 451.992C1025.16 452.04 1025.53 452.112 1025.89 452.208C1026.25 452.28 1026.54 452.352 1026.75 452.424L1026 456.096ZM1046.82 461.568C1046.82 463.056 1046.6 464.412 1046.17 465.636C1045.74 466.86 1045.12 467.904 1044.33 468.768C1043.54 469.632 1042.58 470.304 1041.45 470.784C1040.35 471.264 1039.12 471.504 1037.78 471.504C1036.44 471.504 1035.21 471.264 1034.11 470.784C1033 470.304 1032.06 469.632 1031.26 468.768C1030.47 467.904 1029.85 466.86 1029.39 465.636C1028.96 464.412 1028.74 463.056 1028.74 461.568C1028.74 460.08 1028.96 458.736 1029.39 457.536C1029.85 456.312 1030.47 455.268 1031.26 454.404C1032.08 453.54 1033.04 452.88 1034.14 452.424C1035.25 451.944 1036.46 451.704 1037.78 451.704C1039.1 451.704 1040.31 451.944 1041.42 452.424C1042.54 452.88 1043.5 453.54 1044.3 454.404C1045.09 455.268 1045.7 456.312 1046.13 457.536C1046.59 458.736 1046.82 460.08 1046.82 461.568ZM1042.35 461.568C1042.35 459.696 1041.94 458.22 1041.13 457.14C1040.34 456.036 1039.22 455.484 1037.78 455.484C1036.34 455.484 1035.21 456.036 1034.4 457.14C1033.6 458.22 1033.21 459.696 1033.21 461.568C1033.21 463.464 1033.6 464.964 1034.4 466.068C1035.21 467.172 1036.34 467.724 1037.78 467.724C1039.22 467.724 1040.34 467.172 1041.13 466.068C1041.94 464.964 1042.35 463.464 1042.35 461.568ZM1051.09 447.204L1055.44 446.484V452.172H1062.14V455.808H1055.44V463.476C1055.44 464.988 1055.68 466.068 1056.16 466.716C1056.64 467.364 1057.46 467.688 1058.61 467.688C1059.4 467.688 1060.1 467.604 1060.7 467.436C1061.32 467.268 1061.82 467.112 1062.18 466.968L1062.9 470.424C1062.39 470.64 1061.73 470.856 1060.92 471.072C1060.1 471.312 1059.14 471.432 1058.04 471.432C1056.69 471.432 1055.56 471.252 1054.65 470.892C1053.76 470.532 1053.06 470.016 1052.53 469.344C1052 468.648 1051.63 467.82 1051.41 466.86C1051.2 465.876 1051.09 464.76 1051.09 463.512V447.204ZM1082.96 461.568C1082.96 463.056 1082.74 464.412 1082.31 465.636C1081.88 466.86 1081.26 467.904 1080.47 468.768C1079.68 469.632 1078.72 470.304 1077.59 470.784C1076.49 471.264 1075.26 471.504 1073.92 471.504C1072.58 471.504 1071.35 471.264 1070.25 470.784C1069.14 470.304 1068.2 469.632 1067.4 468.768C1066.61 467.904 1065.99 466.86 1065.53 465.636C1065.1 464.412 1064.88 463.056 1064.88 461.568C1064.88 460.08 1065.1 458.736 1065.53 457.536C1065.99 456.312 1066.61 455.268 1067.4 454.404C1068.22 453.54 1069.18 452.88 1070.28 452.424C1071.39 451.944 1072.6 451.704 1073.92 451.704C1075.24 451.704 1076.45 451.944 1077.56 452.424C1078.68 452.88 1079.64 453.54 1080.44 454.404C1081.23 455.268 1081.84 456.312 1082.27 457.536C1082.73 458.736 1082.96 460.08 1082.96 461.568ZM1078.49 461.568C1078.49 459.696 1078.08 458.22 1077.27 457.14C1076.48 456.036 1075.36 455.484 1073.92 455.484C1072.48 455.484 1071.35 456.036 1070.54 457.14C1069.74 458.22 1069.35 459.696 1069.35 461.568C1069.35 463.464 1069.74 464.964 1070.54 466.068C1071.35 467.172 1072.48 467.724 1073.92 467.724C1075.36 467.724 1076.48 467.172 1077.27 466.068C1078.08 464.964 1078.49 463.464 1078.49 461.568ZM1087.23 447.204L1091.58 446.484V452.172H1098.28V455.808H1091.58V463.476C1091.58 464.988 1091.82 466.068 1092.3 466.716C1092.78 467.364 1093.6 467.688 1094.75 467.688C1095.54 467.688 1096.24 467.604 1096.84 467.436C1097.46 467.268 1097.96 467.112 1098.32 466.968L1099.04 470.424C1098.53 470.64 1097.87 470.856 1097.06 471.072C1096.24 471.312 1095.28 471.432 1094.18 471.432C1092.83 471.432 1091.7 471.252 1090.79 470.892C1089.9 470.532 1089.2 470.016 1088.67 469.344C1088.14 468.648 1087.77 467.82 1087.55 466.86C1087.34 465.876 1087.23 464.76 1087.23 463.512V447.204ZM1117.86 452.172C1115.92 459.324 1113.66 465.804 1111.09 471.612C1110.61 472.692 1110.12 473.616 1109.62 474.384C1109.11 475.152 1108.55 475.788 1107.93 476.292C1107.3 476.796 1106.61 477.156 1105.84 477.372C1105.07 477.612 1104.18 477.732 1103.17 477.732C1102.5 477.732 1101.83 477.66 1101.16 477.516C1100.51 477.372 1100.02 477.216 1099.68 477.048L1100.47 473.556C1101.34 473.892 1102.19 474.06 1103.03 474.06C1104.16 474.06 1105.03 473.784 1105.66 473.232C1106.31 472.704 1106.87 471.876 1107.35 470.748C1105.98 468.108 1104.66 465.228 1103.39 462.108C1102.14 458.988 1101.03 455.676 1100.04 452.172H1104.69C1104.93 453.18 1105.21 454.272 1105.55 455.448C1105.91 456.624 1106.29 457.824 1106.7 459.048C1107.11 460.248 1107.54 461.448 1108 462.648C1108.45 463.848 1108.91 464.964 1109.37 465.996C1110.13 463.86 1110.85 461.592 1111.53 459.192C1112.2 456.768 1112.81 454.428 1113.36 452.172H1117.86ZM1133.65 461.676C1133.65 459.732 1133.21 458.22 1132.32 457.14C1131.45 456.06 1130.05 455.52 1128.11 455.52C1127.7 455.52 1127.27 455.544 1126.81 455.592C1126.38 455.616 1125.95 455.688 1125.51 455.808V466.572C1125.9 466.836 1126.4 467.088 1127.03 467.328C1127.67 467.544 1128.36 467.652 1129.08 467.652C1130.66 467.652 1131.81 467.112 1132.53 466.032C1133.28 464.952 1133.65 463.5 1133.65 461.676ZM1138.11 461.604C1138.11 463.044 1137.92 464.364 1137.54 465.564C1137.18 466.764 1136.65 467.796 1135.95 468.66C1135.26 469.524 1134.38 470.196 1133.33 470.676C1132.29 471.156 1131.12 471.396 1129.8 471.396C1128.91 471.396 1128.09 471.288 1127.35 471.072C1126.61 470.856 1125.99 470.616 1125.51 470.352V477.66H1121.16V452.784C1122.05 452.544 1123.14 452.316 1124.43 452.1C1125.73 451.884 1127.1 451.776 1128.54 451.776C1130.03 451.776 1131.36 452.004 1132.53 452.46C1133.71 452.916 1134.71 453.576 1135.52 454.44C1136.36 455.28 1137 456.312 1137.43 457.536C1137.89 458.736 1138.11 460.092 1138.11 461.604ZM1147 471H1142.64V452.172H1147V471ZM1147.46 446.664C1147.46 447.48 1147.2 448.128 1146.67 448.608C1146.14 449.088 1145.52 449.328 1144.8 449.328C1144.06 449.328 1143.42 449.088 1142.89 448.608C1142.36 448.128 1142.1 447.48 1142.1 446.664C1142.1 445.824 1142.36 445.164 1142.89 444.684C1143.42 444.204 1144.06 443.964 1144.8 443.964C1145.52 443.964 1146.14 444.204 1146.67 444.684C1147.2 445.164 1147.46 445.824 1147.46 446.664ZM1152.55 452.784C1153.39 452.544 1154.49 452.316 1155.83 452.1C1157.17 451.884 1158.66 451.776 1160.29 451.776C1161.83 451.776 1163.11 451.992 1164.15 452.424C1165.18 452.832 1165.99 453.42 1166.59 454.188C1167.22 454.932 1167.65 455.844 1167.89 456.924C1168.15 457.98 1168.29 459.144 1168.29 460.416V471H1163.93V461.1C1163.93 460.092 1163.86 459.24 1163.71 458.544C1163.59 457.824 1163.38 457.248 1163.07 456.816C1162.78 456.36 1162.37 456.036 1161.84 455.844C1161.34 455.628 1160.71 455.52 1159.97 455.52C1159.42 455.52 1158.84 455.556 1158.24 455.628C1157.64 455.7 1157.2 455.76 1156.91 455.808V471H1152.55V452.784ZM1177.03 461.1C1177.03 462.948 1177.43 464.304 1178.22 465.168C1179.04 466.008 1180.08 466.428 1181.35 466.428C1182.05 466.428 1182.7 466.332 1183.3 466.14C1183.92 465.948 1184.42 465.72 1184.81 465.456V455.7C1184.5 455.628 1184.11 455.568 1183.66 455.52C1183.2 455.448 1182.62 455.412 1181.93 455.412C1180.34 455.412 1179.13 455.94 1178.29 456.996C1177.45 458.028 1177.03 459.396 1177.03 461.1ZM1189.16 469.092C1189.16 472.092 1188.4 474.288 1186.86 475.68C1185.35 477.072 1183.02 477.768 1179.88 477.768C1178.72 477.768 1177.6 477.672 1176.49 477.48C1175.41 477.288 1174.43 477.036 1173.54 476.724L1174.33 473.016C1175.08 473.328 1175.92 473.58 1176.85 473.772C1177.81 473.964 1178.84 474.06 1179.95 474.06C1181.7 474.06 1182.95 473.7 1183.69 472.98C1184.44 472.26 1184.81 471.192 1184.81 469.776V469.056C1184.38 469.272 1183.8 469.488 1183.08 469.704C1182.38 469.92 1181.58 470.028 1180.67 470.028C1179.47 470.028 1178.36 469.836 1177.36 469.452C1176.37 469.068 1175.52 468.504 1174.8 467.76C1174.1 467.016 1173.55 466.092 1173.14 464.988C1172.76 463.86 1172.57 462.564 1172.57 461.1C1172.57 459.732 1172.77 458.472 1173.18 457.32C1173.61 456.168 1174.22 455.184 1175.02 454.368C1175.83 453.552 1176.82 452.916 1177.97 452.46C1179.12 452.004 1180.43 451.776 1181.89 451.776C1183.31 451.776 1184.65 451.884 1185.92 452.1C1187.2 452.316 1188.28 452.544 1189.16 452.784V469.092Z" fill="white"/>
<rect x="576" y="568" width="350" height="120" rx="40" fill="#0D5692"/>
<path d="M652.323 615.8C655.947 615.8 658.719 616.46 660.639 617.78C662.583 619.1 663.555 621.164 663.555 623.972C663.555 625.436 663.291 626.696 662.763 627.752C662.259 628.784 661.515 629.636 660.531 630.308C659.547 630.956 658.347 631.436 656.931 631.748C655.515 632.06 653.895 632.216 652.071 632.216H649.803V641H645.267V616.412C646.323 616.172 647.487 616.016 648.759 615.944C650.055 615.848 651.243 615.8 652.323 615.8ZM652.647 619.724C651.495 619.724 650.547 619.76 649.803 619.832V628.328H651.999C654.183 628.328 655.863 628.028 657.039 627.428C658.215 626.804 658.803 625.64 658.803 623.936C658.803 623.12 658.647 622.436 658.335 621.884C658.023 621.332 657.591 620.9 657.039 620.588C656.487 620.276 655.827 620.06 655.059 619.94C654.315 619.796 653.511 619.724 652.647 619.724ZM678.209 626.096C677.849 625.976 677.345 625.856 676.697 625.736C676.073 625.592 675.341 625.52 674.501 625.52C674.021 625.52 673.505 625.568 672.953 625.664C672.425 625.76 672.053 625.844 671.837 625.916V641H667.481V623.072C668.321 622.76 669.365 622.472 670.613 622.208C671.885 621.92 673.289 621.776 674.825 621.776C675.113 621.776 675.449 621.8 675.833 621.848C676.217 621.872 676.601 621.92 676.985 621.992C677.369 622.04 677.741 622.112 678.101 622.208C678.461 622.28 678.749 622.352 678.965 622.424L678.209 626.096ZM680.957 631.676C680.957 630.02 681.197 628.568 681.677 627.32C682.181 626.072 682.841 625.04 683.657 624.224C684.473 623.384 685.409 622.76 686.465 622.352C687.521 621.92 688.601 621.704 689.705 621.704C692.297 621.704 694.313 622.508 695.753 624.116C697.217 625.724 697.949 628.124 697.949 631.316C697.949 631.556 697.937 631.832 697.913 632.144C697.913 632.432 697.901 632.696 697.877 632.936H685.457C685.577 634.448 686.105 635.624 687.041 636.464C688.001 637.28 689.381 637.688 691.181 637.688C692.237 637.688 693.197 637.592 694.061 637.4C694.949 637.208 695.645 637.004 696.149 636.788L696.725 640.352C696.485 640.472 696.149 640.604 695.717 640.748C695.309 640.868 694.829 640.976 694.277 641.072C693.749 641.192 693.173 641.288 692.549 641.36C691.925 641.432 691.289 641.468 690.641 641.468C688.985 641.468 687.545 641.228 686.321 640.748C685.097 640.244 684.089 639.56 683.297 638.696C682.505 637.808 681.917 636.776 681.533 635.6C681.149 634.4 680.957 633.092 680.957 631.676ZM693.593 629.732C693.593 629.132 693.509 628.568 693.341 628.04C693.173 627.488 692.921 627.02 692.585 626.636C692.273 626.228 691.877 625.916 691.397 625.7C690.941 625.46 690.389 625.34 689.741 625.34C689.069 625.34 688.481 625.472 687.977 625.736C687.473 625.976 687.041 626.3 686.681 626.708C686.345 627.116 686.081 627.584 685.889 628.112C685.697 628.64 685.565 629.18 685.493 629.732H693.593ZM707.283 637.868C708.435 637.868 709.275 637.736 709.803 637.472C710.331 637.184 710.595 636.704 710.595 636.032C710.595 635.408 710.307 634.892 709.731 634.484C709.179 634.076 708.255 633.632 706.959 633.152C706.167 632.864 705.435 632.564 704.763 632.252C704.115 631.916 703.551 631.532 703.071 631.1C702.591 630.668 702.207 630.152 701.919 629.552C701.655 628.928 701.523 628.172 701.523 627.284C701.523 625.556 702.159 624.2 703.431 623.216C704.703 622.208 706.431 621.704 708.615 621.704C709.719 621.704 710.775 621.812 711.783 622.028C712.791 622.22 713.547 622.412 714.051 622.604L713.259 626.132C712.779 625.916 712.167 625.724 711.423 625.556C710.679 625.364 709.815 625.268 708.831 625.268C707.943 625.268 707.223 625.424 706.671 625.736C706.119 626.024 705.843 626.48 705.843 627.104C705.843 627.416 705.891 627.692 705.987 627.932C706.107 628.172 706.299 628.4 706.563 628.616C706.827 628.808 707.175 629.012 707.607 629.228C708.039 629.42 708.567 629.624 709.191 629.84C710.223 630.224 711.099 630.608 711.819 630.992C712.539 631.352 713.127 631.772 713.583 632.252C714.063 632.708 714.411 633.236 714.627 633.836C714.843 634.436 714.951 635.156 714.951 635.996C714.951 637.796 714.279 639.164 712.935 640.1C711.615 641.012 709.719 641.468 707.247 641.468C705.591 641.468 704.259 641.324 703.251 641.036C702.243 640.772 701.535 640.556 701.127 640.388L701.883 636.752C702.531 637.016 703.299 637.268 704.187 637.508C705.099 637.748 706.131 637.868 707.283 637.868ZM717.976 631.676C717.976 630.02 718.216 628.568 718.696 627.32C719.2 626.072 719.86 625.04 720.676 624.224C721.492 623.384 722.428 622.76 723.484 622.352C724.54 621.92 725.62 621.704 726.724 621.704C729.316 621.704 731.332 622.508 732.772 624.116C734.236 625.724 734.968 628.124 734.968 631.316C734.968 631.556 734.956 631.832 734.932 632.144C734.932 632.432 734.92 632.696 734.896 632.936H722.476C722.596 634.448 723.124 635.624 724.06 636.464C725.02 637.28 726.4 637.688 728.2 637.688C729.256 637.688 730.216 637.592 731.08 637.4C731.968 637.208 732.664 637.004 733.168 636.788L733.744 640.352C733.504 640.472 733.168 640.604 732.736 640.748C732.328 640.868 731.848 640.976 731.296 641.072C730.768 641.192 730.192 641.288 729.568 641.36C728.944 641.432 728.308 641.468 727.66 641.468C726.004 641.468 724.564 641.228 723.34 640.748C722.116 640.244 721.108 639.56 720.316 638.696C719.524 637.808 718.936 636.776 718.552 635.6C718.168 634.4 717.976 633.092 717.976 631.676ZM730.612 629.732C730.612 629.132 730.528 628.568 730.36 628.04C730.192 627.488 729.94 627.02 729.604 626.636C729.292 626.228 728.896 625.916 728.416 625.7C727.96 625.46 727.408 625.34 726.76 625.34C726.088 625.34 725.5 625.472 724.996 625.736C724.492 625.976 724.06 626.3 723.7 626.708C723.364 627.116 723.1 627.584 722.908 628.112C722.716 628.64 722.584 629.18 722.512 629.732H730.612ZM739.586 622.784C740.426 622.544 741.518 622.316 742.862 622.1C744.206 621.884 745.694 621.776 747.326 621.776C748.862 621.776 750.146 621.992 751.178 622.424C752.21 622.832 753.026 623.42 753.626 624.188C754.25 624.932 754.682 625.844 754.922 626.924C755.186 627.98 755.318 629.144 755.318 630.416V641H750.962V631.1C750.962 630.092 750.89 629.24 750.746 628.544C750.626 627.824 750.41 627.248 750.098 626.816C749.81 626.36 749.402 626.036 748.874 625.844C748.37 625.628 747.746 625.52 747.002 625.52C746.45 625.52 745.874 625.556 745.274 625.628C744.674 625.7 744.23 625.76 743.942 625.808V641H739.586V622.784ZM760.429 617.204L764.785 616.484V622.172H771.481V625.808H764.785V633.476C764.785 634.988 765.025 636.068 765.505 636.716C765.985 637.364 766.801 637.688 767.953 637.688C768.745 637.688 769.441 637.604 770.041 637.436C770.665 637.268 771.157 637.112 771.517 636.968L772.237 640.424C771.733 640.64 771.073 640.856 770.257 641.072C769.441 641.312 768.481 641.432 767.377 641.432C766.033 641.432 764.905 641.252 763.993 640.892C763.105 640.532 762.397 640.016 761.869 639.344C761.341 638.648 760.969 637.82 760.753 636.86C760.537 635.876 760.429 634.76 760.429 633.512V617.204ZM782.316 637.94C783.66 637.94 784.68 637.868 785.376 637.724V632.9C785.136 632.828 784.788 632.756 784.332 632.684C783.876 632.612 783.372 632.576 782.82 632.576C782.34 632.576 781.848 632.612 781.344 632.684C780.864 632.756 780.42 632.888 780.012 633.08C779.628 633.272 779.316 633.548 779.076 633.908C778.836 634.244 778.716 634.676 778.716 635.204C778.716 636.236 779.04 636.956 779.688 637.364C780.336 637.748 781.212 637.94 782.316 637.94ZM781.956 621.704C783.396 621.704 784.608 621.884 785.592 622.244C786.576 622.604 787.356 623.108 787.932 623.756C788.532 624.404 788.952 625.196 789.192 626.132C789.456 627.044 789.588 628.052 789.588 629.156V640.568C788.916 640.712 787.896 640.88 786.528 641.072C785.184 641.288 783.66 641.396 781.956 641.396C780.828 641.396 779.796 641.288 778.86 641.072C777.924 640.856 777.12 640.508 776.448 640.028C775.8 639.548 775.284 638.924 774.9 638.156C774.54 637.388 774.36 636.44 774.36 635.312C774.36 634.232 774.564 633.32 774.972 632.576C775.404 631.832 775.98 631.232 776.7 630.776C777.42 630.296 778.248 629.96 779.184 629.768C780.144 629.552 781.14 629.444 782.172 629.444C782.652 629.444 783.156 629.48 783.684 629.552C784.212 629.6 784.776 629.696 785.376 629.84V629.12C785.376 628.616 785.316 628.136 785.196 627.68C785.076 627.224 784.86 626.828 784.548 626.492C784.26 626.132 783.864 625.856 783.36 625.664C782.88 625.472 782.268 625.376 781.524 625.376C780.516 625.376 779.592 625.448 778.752 625.592C777.912 625.736 777.228 625.904 776.7 626.096L776.16 622.568C776.712 622.376 777.516 622.184 778.572 621.992C779.628 621.8 780.756 621.704 781.956 621.704ZM794.706 617.204L799.062 616.484V622.172H805.758V625.808H799.062V633.476C799.062 634.988 799.302 636.068 799.782 636.716C800.262 637.364 801.078 637.688 802.23 637.688C803.022 637.688 803.718 637.604 804.318 637.436C804.942 637.268 805.434 637.112 805.794 636.968L806.514 640.424C806.01 640.64 805.35 640.856 804.534 641.072C803.718 641.312 802.758 641.432 801.654 641.432C800.31 641.432 799.182 641.252 798.27 640.892C797.382 640.532 796.674 640.016 796.146 639.344C795.618 638.648 795.246 637.82 795.03 636.86C794.814 635.876 794.706 634.76 794.706 633.512V617.204ZM814.361 641H810.005V622.172H814.361V641ZM814.829 616.664C814.829 617.48 814.565 618.128 814.037 618.608C813.509 619.088 812.885 619.328 812.165 619.328C811.421 619.328 810.785 619.088 810.257 618.608C809.729 618.128 809.465 617.48 809.465 616.664C809.465 615.824 809.729 615.164 810.257 614.684C810.785 614.204 811.421 613.964 812.165 613.964C812.885 613.964 813.509 614.204 814.037 614.684C814.565 615.164 814.829 615.824 814.829 616.664ZM836.946 631.568C836.946 633.056 836.73 634.412 836.298 635.636C835.866 636.86 835.254 637.904 834.462 638.768C833.67 639.632 832.71 640.304 831.582 640.784C830.478 641.264 829.254 641.504 827.91 641.504C826.566 641.504 825.342 641.264 824.238 640.784C823.134 640.304 822.186 639.632 821.394 638.768C820.602 637.904 819.978 636.86 819.522 635.636C819.09 634.412 818.874 633.056 818.874 631.568C818.874 630.08 819.09 628.736 819.522 627.536C819.978 626.312 820.602 625.268 821.394 624.404C822.21 623.54 823.17 622.88 824.274 622.424C825.378 621.944 826.59 621.704 827.91 621.704C829.23 621.704 830.442 621.944 831.546 622.424C832.674 622.88 833.634 623.54 834.426 624.404C835.218 625.268 835.83 626.312 836.262 627.536C836.718 628.736 836.946 630.08 836.946 631.568ZM832.482 631.568C832.482 629.696 832.074 628.22 831.258 627.14C830.466 626.036 829.35 625.484 827.91 625.484C826.47 625.484 825.342 626.036 824.526 627.14C823.734 628.22 823.338 629.696 823.338 631.568C823.338 633.464 823.734 634.964 824.526 636.068C825.342 637.172 826.47 637.724 827.91 637.724C829.35 637.724 830.466 637.172 831.258 636.068C832.074 634.964 832.482 633.464 832.482 631.568ZM841.434 622.784C842.274 622.544 843.366 622.316 844.71 622.1C846.054 621.884 847.542 621.776 849.174 621.776C850.71 621.776 851.994 621.992 853.026 622.424C854.058 622.832 854.874 623.42 855.474 624.188C856.098 624.932 856.53 625.844 856.77 626.924C857.034 627.98 857.166 629.144 857.166 630.416V641H852.81V631.1C852.81 630.092 852.738 629.24 852.594 628.544C852.474 627.824 852.258 627.248 851.946 626.816C851.658 626.36 851.25 626.036 850.722 625.844C850.218 625.628 849.594 625.52 848.85 625.52C848.298 625.52 847.722 625.556 847.122 625.628C846.522 625.7 846.078 625.76 845.79 625.808V641H841.434V622.784Z" fill="white"/>
<rect x="236" y="398" width="350" height="120" rx="40" fill="#0D5692"/>
<path d="M334.254 471V446.052H350.022V449.904H338.79V456.276H348.762V460.128H338.79V471H334.254ZM352.4 461.676C352.4 460.02 352.64 458.568 353.12 457.32C353.624 456.072 354.284 455.04 355.1 454.224C355.916 453.384 356.852 452.76 357.908 452.352C358.964 451.92 360.044 451.704 361.148 451.704C363.74 451.704 365.756 452.508 367.196 454.116C368.66 455.724 369.392 458.124 369.392 461.316C369.392 461.556 369.38 461.832 369.356 462.144C369.356 462.432 369.344 462.696 369.32 462.936H356.9C357.02 464.448 357.548 465.624 358.484 466.464C359.444 467.28 360.824 467.688 362.624 467.688C363.68 467.688 364.64 467.592 365.504 467.4C366.392 467.208 367.088 467.004 367.592 466.788L368.168 470.352C367.928 470.472 367.592 470.604 367.16 470.748C366.752 470.868 366.272 470.976 365.72 471.072C365.192 471.192 364.616 471.288 363.992 471.36C363.368 471.432 362.732 471.468 362.084 471.468C360.428 471.468 358.988 471.228 357.764 470.748C356.54 470.244 355.532 469.56 354.74 468.696C353.948 467.808 353.36 466.776 352.976 465.6C352.592 464.4 352.4 463.092 352.4 461.676ZM365.036 459.732C365.036 459.132 364.952 458.568 364.784 458.04C364.616 457.488 364.364 457.02 364.028 456.636C363.716 456.228 363.32 455.916 362.84 455.7C362.384 455.46 361.832 455.34 361.184 455.34C360.512 455.34 359.924 455.472 359.42 455.736C358.916 455.976 358.484 456.3 358.124 456.708C357.788 457.116 357.524 457.584 357.332 458.112C357.14 458.64 357.008 459.18 356.936 459.732H365.036ZM372.966 461.676C372.966 460.02 373.206 458.568 373.686 457.32C374.19 456.072 374.85 455.04 375.666 454.224C376.482 453.384 377.418 452.76 378.474 452.352C379.53 451.92 380.61 451.704 381.714 451.704C384.306 451.704 386.322 452.508 387.762 454.116C389.226 455.724 389.958 458.124 389.958 461.316C389.958 461.556 389.946 461.832 389.922 462.144C389.922 462.432 389.91 462.696 389.886 462.936H377.466C377.586 464.448 378.114 465.624 379.05 466.464C380.01 467.28 381.39 467.688 383.19 467.688C384.246 467.688 385.206 467.592 386.07 467.4C386.958 467.208 387.654 467.004 388.158 466.788L388.734 470.352C388.494 470.472 388.158 470.604 387.726 470.748C387.318 470.868 386.838 470.976 386.286 471.072C385.758 471.192 385.182 471.288 384.558 471.36C383.934 471.432 383.298 471.468 382.65 471.468C380.994 471.468 379.554 471.228 378.33 470.748C377.106 470.244 376.098 469.56 375.306 468.696C374.514 467.808 373.926 466.776 373.542 465.6C373.158 464.4 372.966 463.092 372.966 461.676ZM385.602 459.732C385.602 459.132 385.518 458.568 385.35 458.04C385.182 457.488 384.93 457.02 384.594 456.636C384.282 456.228 383.886 455.916 383.406 455.7C382.95 455.46 382.398 455.34 381.75 455.34C381.078 455.34 380.49 455.472 379.986 455.736C379.482 455.976 379.05 456.3 378.69 456.708C378.354 457.116 378.09 457.584 377.898 458.112C377.706 458.64 377.574 459.18 377.502 459.732H385.602ZM397.997 461.532C397.997 463.452 398.453 464.964 399.365 466.068C400.277 467.148 401.537 467.688 403.145 467.688C403.841 467.688 404.429 467.664 404.909 467.616C405.413 467.544 405.821 467.472 406.133 467.4V456.6C405.749 456.336 405.233 456.096 404.585 455.88C403.961 455.64 403.289 455.52 402.569 455.52C400.985 455.52 399.821 456.06 399.077 457.14C398.357 458.22 397.997 459.684 397.997 461.532ZM410.489 470.424C409.625 470.688 408.533 470.928 407.213 471.144C405.917 471.36 404.549 471.468 403.109 471.468C401.621 471.468 400.289 471.24 399.113 470.784C397.937 470.328 396.929 469.68 396.089 468.84C395.273 467.976 394.637 466.944 394.181 465.744C393.749 464.52 393.533 463.152 393.533 461.64C393.533 460.152 393.713 458.808 394.073 457.608C394.457 456.384 395.009 455.34 395.729 454.476C396.449 453.612 397.325 452.952 398.357 452.496C399.389 452.016 400.577 451.776 401.921 451.776C402.833 451.776 403.637 451.884 404.333 452.1C405.029 452.316 405.629 452.556 406.133 452.82V443.784L410.489 443.064V470.424ZM428.514 461.532C428.514 459.684 428.142 458.22 427.398 457.14C426.678 456.06 425.526 455.52 423.942 455.52C423.222 455.52 422.538 455.628 421.89 455.844C421.266 456.06 420.762 456.3 420.378 456.564V467.4C420.69 467.472 421.086 467.544 421.566 467.616C422.07 467.664 422.67 467.688 423.366 467.688C424.974 467.688 426.234 467.148 427.146 466.068C428.058 464.964 428.514 463.452 428.514 461.532ZM432.978 461.604C432.978 463.116 432.75 464.484 432.294 465.708C431.862 466.908 431.226 467.94 430.386 468.804C429.57 469.668 428.574 470.328 427.398 470.784C426.222 471.24 424.89 471.468 423.402 471.468C421.962 471.468 420.582 471.36 419.262 471.144C417.966 470.928 416.886 470.688 416.022 470.424V443.784L420.378 443.064V452.82C420.882 452.556 421.494 452.316 422.214 452.1C422.958 451.884 423.774 451.776 424.662 451.776C425.982 451.776 427.158 452.016 428.19 452.496C429.246 452.952 430.122 453.612 430.818 454.476C431.514 455.34 432.042 456.384 432.402 457.608C432.786 458.808 432.978 460.14 432.978 461.604ZM444.091 467.94C445.435 467.94 446.455 467.868 447.151 467.724V462.9C446.911 462.828 446.563 462.756 446.107 462.684C445.651 462.612 445.147 462.576 444.595 462.576C444.115 462.576 443.623 462.612 443.119 462.684C442.639 462.756 442.195 462.888 441.787 463.08C441.403 463.272 441.091 463.548 440.851 463.908C440.611 464.244 440.491 464.676 440.491 465.204C440.491 466.236 440.815 466.956 441.463 467.364C442.111 467.748 442.987 467.94 444.091 467.94ZM443.731 451.704C445.171 451.704 446.383 451.884 447.367 452.244C448.351 452.604 449.131 453.108 449.707 453.756C450.307 454.404 450.727 455.196 450.967 456.132C451.231 457.044 451.363 458.052 451.363 459.156V470.568C450.691 470.712 449.671 470.88 448.303 471.072C446.959 471.288 445.435 471.396 443.731 471.396C442.603 471.396 441.571 471.288 440.635 471.072C439.699 470.856 438.895 470.508 438.223 470.028C437.575 469.548 437.059 468.924 436.675 468.156C436.315 467.388 436.135 466.44 436.135 465.312C436.135 464.232 436.339 463.32 436.747 462.576C437.179 461.832 437.755 461.232 438.475 460.776C439.195 460.296 440.023 459.96 440.959 459.768C441.919 459.552 442.915 459.444 443.947 459.444C444.427 459.444 444.931 459.48 445.459 459.552C445.987 459.6 446.551 459.696 447.151 459.84V459.12C447.151 458.616 447.091 458.136 446.971 457.68C446.851 457.224 446.635 456.828 446.323 456.492C446.035 456.132 445.639 455.856 445.135 455.664C444.655 455.472 444.043 455.376 443.299 455.376C442.291 455.376 441.367 455.448 440.527 455.592C439.687 455.736 439.003 455.904 438.475 456.096L437.935 452.568C438.487 452.376 439.291 452.184 440.347 451.992C441.403 451.8 442.531 451.704 443.731 451.704ZM455.654 461.604C455.654 460.212 455.87 458.916 456.302 457.716C456.734 456.492 457.346 455.436 458.138 454.548C458.954 453.66 459.938 452.964 461.09 452.46C462.242 451.956 463.538 451.704 464.978 451.704C466.754 451.704 468.434 452.028 470.018 452.676L469.082 456.24C468.578 456.024 468.002 455.844 467.354 455.7C466.73 455.556 466.058 455.484 465.338 455.484C463.634 455.484 462.338 456.024 461.45 457.104C460.562 458.16 460.118 459.66 460.118 461.604C460.118 463.476 460.538 464.964 461.378 466.068C462.218 467.148 463.634 467.688 465.626 467.688C466.37 467.688 467.102 467.616 467.822 467.472C468.542 467.328 469.166 467.148 469.694 466.932L470.306 470.532C469.826 470.772 469.094 470.988 468.11 471.18C467.15 471.372 466.154 471.468 465.122 471.468C463.514 471.468 462.11 471.228 460.91 470.748C459.734 470.244 458.75 469.56 457.958 468.696C457.19 467.808 456.614 466.764 456.23 465.564C455.846 464.34 455.654 463.02 455.654 461.604ZM478.034 459.516C478.586 458.94 479.174 458.328 479.798 457.68C480.422 457.008 481.034 456.348 481.634 455.7C482.234 455.028 482.798 454.392 483.326 453.792C483.878 453.168 484.346 452.628 484.73 452.172H489.878C488.678 453.516 487.406 454.908 486.062 456.348C484.742 457.788 483.41 459.192 482.066 460.56C482.786 461.16 483.542 461.892 484.334 462.756C485.126 463.596 485.894 464.496 486.638 465.456C487.382 466.416 488.078 467.376 488.726 468.336C489.374 469.296 489.914 470.184 490.346 471H485.306C484.874 470.256 484.37 469.476 483.794 468.66C483.242 467.844 482.642 467.052 481.994 466.284C481.346 465.516 480.686 464.796 480.014 464.124C479.342 463.428 478.682 462.84 478.034 462.36V471H473.678V443.784L478.034 443.064V459.516Z" fill="white"/>
</svg>
