<svg width="1700" height="302" viewBox="0 0 1700 302" fill="none" xmlns="http://www.w3.org/2000/svg">
<path d="M432.865 63.5V48.38H434.425L440.065 60.5L445.705 48.38H447.265V63.5H445.345V53.3L440.665 63.5H439.465L434.785 53.3V63.5H432.865ZM455.06 63.62C452.3 63.62 450.02 61.34 450.02 58.1C450.02 54.86 452.3 52.58 455.06 52.58C457.82 52.58 460.1 54.86 460.1 58.1C460.1 61.34 457.82 63.62 455.06 63.62ZM455.06 61.94C456.74 61.94 458.3 60.38 458.3 58.1C458.3 55.82 456.74 54.26 455.06 54.26C453.38 54.26 451.82 55.82 451.82 58.1C451.82 60.38 453.38 61.94 455.06 61.94ZM462.505 63.5V52.7H463.825L464.305 53.9C464.305 53.9 465.385 52.58 467.425 52.58C469.705 52.58 471.625 54.5 471.625 57.26V63.5H469.825V57.26C469.825 55.46 468.625 54.26 467.185 54.26C465.505 54.26 464.305 55.46 464.305 57.26V63.5H462.505ZM478.583 63.62C476.903 63.62 475.463 62.18 475.463 60.02V54.38H473.543V52.7H474.383C475.223 52.7 475.703 52.22 475.703 51.38V49.82H477.263V52.7H479.663V54.38H477.263V60.02C477.263 61.22 477.983 61.94 479.062 61.94C479.423 61.94 479.663 61.82 479.663 61.82V63.38C479.663 63.38 479.303 63.62 478.583 63.62ZM482.43 63.5V48.38H484.23V54.02C484.23 54.02 485.31 52.58 487.35 52.58C489.63 52.58 491.55 54.5 491.55 57.26V63.5H489.75V57.26C489.75 55.46 488.55 54.26 487.11 54.26C485.43 54.26 484.23 55.46 484.23 57.26V63.5H482.43ZM494.664 63.5V48.38H496.464V63.5H494.664ZM500.901 67.46C500.541 67.46 500.181 67.34 500.181 67.34V65.9C501.261 65.9 501.717 65.42 502.101 64.46L502.581 63.26L498.381 52.7H500.301L503.541 60.98L506.781 52.7H508.701L504.021 64.46C503.157 66.62 502.317 67.46 500.901 67.46ZM515.662 67.34V52.7H516.982L517.462 53.9C517.462 53.9 518.542 52.58 520.702 52.58C523.462 52.58 525.742 54.86 525.742 58.1C525.742 61.34 523.462 63.62 520.702 63.62C518.542 63.62 517.462 62.18 517.462 62.18V67.34H515.662ZM520.582 61.94C522.382 61.94 523.942 60.38 523.942 58.1C523.942 55.82 522.382 54.26 520.582 54.26C518.782 54.26 517.222 55.82 517.222 58.1C517.222 60.38 518.782 61.94 520.582 61.94ZM528.25 63.5V48.38H530.05V63.5H528.25ZM536.407 63.62C534.247 63.62 532.807 62.18 532.807 60.38C532.807 58.34 534.247 56.9 539.647 56.9V56.3C539.647 55.22 538.687 54.26 537.367 54.26C536.047 54.26 535.447 54.86 535.207 55.82H533.287C533.527 54.02 534.967 52.58 537.367 52.58C539.767 52.58 541.447 54.26 541.447 56.3V63.5H540.127L539.647 62.3C539.647 62.3 538.567 63.62 536.407 63.62ZM536.407 61.94C538.327 61.94 539.647 60.62 539.647 59.42V58.58C535.327 58.58 534.607 59.3 534.607 60.5C534.607 61.22 535.327 61.94 536.407 61.94ZM544.443 63.5V52.7H545.763L546.243 53.9C546.243 53.9 547.323 52.58 549.363 52.58C551.643 52.58 553.563 54.5 553.563 57.26V63.5H551.763V57.26C551.763 55.46 550.563 54.26 549.123 54.26C547.443 54.26 546.243 55.46 546.243 57.26V63.5H544.443Z" fill="#363636"/>
<rect x="563" y="56.5" width="84" height="1" fill="#727272"/>
<path d="M442.969 245.5L448.729 230.38H450.409L456.169 245.5H454.129L452.689 241.78H446.449L445.009 245.5H442.969ZM447.049 240.1H452.089L449.569 233.5L447.049 240.1ZM457.724 245.5V234.7H459.044L459.524 235.9C459.524 235.9 460.604 234.58 462.644 234.58C464.924 234.58 466.844 236.5 466.844 239.26V245.5H465.044V239.26C465.044 237.46 463.844 236.26 462.404 236.26C460.724 236.26 459.524 237.46 459.524 239.26V245.5H457.724ZM469.841 245.5V234.7H471.161L471.641 235.9C471.641 235.9 472.721 234.58 474.761 234.58C477.041 234.58 478.961 236.5 478.961 239.26V245.5H477.161V239.26C477.161 237.46 475.961 236.26 474.521 236.26C472.841 236.26 471.641 237.46 471.641 239.26V245.5H469.841ZM486.158 245.62C483.878 245.62 481.958 243.7 481.958 240.94V234.7H483.758V240.94C483.758 242.74 484.958 243.94 486.398 243.94C488.078 243.94 489.278 242.74 489.278 240.94V234.7H491.078V245.5H489.758L489.278 244.3C489.278 244.3 488.198 245.62 486.158 245.62ZM497.313 245.62C495.153 245.62 493.713 244.18 493.713 242.38C493.713 240.34 495.153 238.9 500.553 238.9V238.3C500.553 237.22 499.593 236.26 498.273 236.26C496.953 236.26 496.353 236.86 496.113 237.82H494.193C494.433 236.02 495.873 234.58 498.273 234.58C500.673 234.58 502.353 236.26 502.353 238.3V245.5H501.033L500.553 244.3C500.553 244.3 499.473 245.62 497.313 245.62ZM497.313 243.94C499.233 243.94 500.553 242.62 500.553 241.42V240.58C496.233 240.58 495.513 241.3 495.513 242.5C495.513 243.22 496.233 243.94 497.313 243.94ZM505.469 245.5V230.38H507.269V245.5H505.469ZM515.662 249.34V234.7H516.982L517.462 235.9C517.462 235.9 518.542 234.58 520.702 234.58C523.462 234.58 525.742 236.86 525.742 240.1C525.742 243.34 523.462 245.62 520.702 245.62C518.542 245.62 517.462 244.18 517.462 244.18V249.34H515.662ZM520.582 243.94C522.382 243.94 523.942 242.38 523.942 240.1C523.942 237.82 522.382 236.26 520.582 236.26C518.782 236.26 517.222 237.82 517.222 240.1C517.222 242.38 518.782 243.94 520.582 243.94ZM528.25 245.5V230.38H530.05V245.5H528.25ZM536.407 245.62C534.247 245.62 532.807 244.18 532.807 242.38C532.807 240.34 534.247 238.9 539.647 238.9V238.3C539.647 237.22 538.687 236.26 537.367 236.26C536.047 236.26 535.447 236.86 535.207 237.82H533.287C533.527 236.02 534.967 234.58 537.367 234.58C539.767 234.58 541.447 236.26 541.447 238.3V245.5H540.127L539.647 244.3C539.647 244.3 538.567 245.62 536.407 245.62ZM536.407 243.94C538.327 243.94 539.647 242.62 539.647 241.42V240.58C535.327 240.58 534.607 241.3 534.607 242.5C534.607 243.22 535.327 243.94 536.407 243.94ZM544.443 245.5V234.7H545.763L546.243 235.9C546.243 235.9 547.323 234.58 549.363 234.58C551.643 234.58 553.563 236.5 553.563 239.26V245.5H551.763V239.26C551.763 237.46 550.563 236.26 549.123 236.26C547.443 236.26 546.243 237.46 546.243 239.26V245.5H544.443Z" fill="#363636"/>
<rect x="563" y="238.5" width="84" height="1" fill="#727272"/>
<mask id="path-5-inside-1_2575_28510" fill="white">
<path d="M655 1H1045V121H655V1Z"/>
</mask>
<path d="M655 1H1045V121H655V1Z" fill="white"/>
<path d="M655 1V2H1045V1V0H655V1Z" fill="#E5E7EB" mask="url(#path-5-inside-1_2575_28510)"/>
<path d="M812.352 30.4545V15.9091H813.284V30.4545H812.352ZM814.824 20.7102C814.778 20.2519 814.583 19.8958 814.239 19.642C813.894 19.3883 813.426 19.2614 812.835 19.2614C812.434 19.2614 812.095 19.3182 811.818 19.4318C811.542 19.5417 811.33 19.6951 811.182 19.892C811.038 20.089 810.966 20.3125 810.966 20.5625C810.958 20.7708 811.002 20.9527 811.097 21.108C811.195 21.2633 811.33 21.3977 811.5 21.5114C811.67 21.6212 811.867 21.7178 812.091 21.8011C812.314 21.8807 812.553 21.9489 812.807 22.0057L813.852 22.2557C814.36 22.3693 814.826 22.5208 815.25 22.7102C815.674 22.8996 816.042 23.1326 816.352 23.4091C816.663 23.6856 816.903 24.0114 817.074 24.3864C817.248 24.7614 817.337 25.1913 817.341 25.6761C817.337 26.3883 817.155 27.0057 816.795 27.5284C816.439 28.0473 815.924 28.4508 815.25 28.7386C814.58 29.0227 813.771 29.1648 812.824 29.1648C811.884 29.1648 811.066 29.0208 810.369 28.733C809.676 28.4451 809.134 28.0189 808.744 27.4545C808.358 26.8864 808.155 26.1837 808.136 25.3466H810.517C810.544 25.7367 810.655 26.0625 810.852 26.3239C811.053 26.5814 811.32 26.7765 811.653 26.9091C811.991 27.0379 812.371 27.1023 812.795 27.1023C813.212 27.1023 813.574 27.0417 813.881 26.9205C814.191 26.7992 814.432 26.6307 814.602 26.4148C814.773 26.1989 814.858 25.9508 814.858 25.6705C814.858 25.4091 814.78 25.1894 814.625 25.0114C814.473 24.8333 814.25 24.6818 813.955 24.5568C813.663 24.4318 813.305 24.3182 812.881 24.2159L811.614 23.8977C810.633 23.6591 809.858 23.286 809.29 22.7784C808.722 22.2708 808.439 21.5871 808.443 20.7273C808.439 20.0227 808.627 19.4072 809.006 18.8807C809.388 18.3542 809.913 17.9432 810.58 17.6477C811.246 17.3523 812.004 17.2045 812.852 17.2045C813.716 17.2045 814.47 17.3523 815.114 17.6477C815.761 17.9432 816.265 18.3542 816.625 18.8807C816.985 19.4072 817.17 20.017 817.182 20.7102H814.824ZM823.99 17.3636V29H821.53V19.6989H821.462L818.797 21.3693V19.1875L821.678 17.3636H823.99ZM831.057 29.1591C830.208 29.1591 829.453 29.0133 828.79 28.7216C828.131 28.4261 827.61 28.0208 827.227 27.5057C826.848 26.9867 826.653 26.3883 826.642 25.7102H829.119C829.134 25.9943 829.227 26.2443 829.398 26.4602C829.572 26.6723 829.803 26.8371 830.091 26.9545C830.379 27.072 830.703 27.1307 831.062 27.1307C831.438 27.1307 831.769 27.0644 832.057 26.9318C832.345 26.7992 832.57 26.6155 832.733 26.3807C832.896 26.1458 832.977 25.875 832.977 25.5682C832.977 25.2576 832.89 24.983 832.716 24.7443C832.545 24.5019 832.299 24.3125 831.977 24.1761C831.659 24.0398 831.28 23.9716 830.841 23.9716H829.756V22.1648H830.841C831.212 22.1648 831.54 22.1004 831.824 21.9716C832.112 21.8428 832.335 21.6648 832.494 21.4375C832.653 21.2064 832.733 20.9375 832.733 20.6307C832.733 20.339 832.663 20.0833 832.523 19.8636C832.386 19.6402 832.193 19.4659 831.943 19.3409C831.697 19.2159 831.409 19.1534 831.08 19.1534C830.746 19.1534 830.441 19.214 830.165 19.3352C829.888 19.4527 829.667 19.6212 829.5 19.8409C829.333 20.0606 829.244 20.3182 829.233 20.6136H826.875C826.886 19.9432 827.078 19.3523 827.449 18.8409C827.82 18.3295 828.32 17.9299 828.949 17.642C829.581 17.3504 830.295 17.2045 831.091 17.2045C831.894 17.2045 832.597 17.3504 833.199 17.642C833.801 17.9337 834.269 18.3277 834.602 18.8239C834.939 19.3163 835.106 19.8693 835.102 20.483C835.106 21.1345 834.903 21.678 834.494 22.1136C834.089 22.5492 833.561 22.8258 832.909 22.9432V23.0341C833.765 23.1439 834.417 23.4413 834.864 23.9261C835.314 24.4072 835.538 25.0095 835.534 25.733C835.538 26.3958 835.347 26.9848 834.96 27.5C834.578 28.0152 834.049 28.4205 833.375 28.7159C832.701 29.0114 831.928 29.1591 831.057 29.1591ZM838.412 29.1477C838.037 29.1477 837.715 29.0152 837.446 28.75C837.181 28.4811 837.048 28.1591 837.048 27.7841C837.048 27.4129 837.181 27.0947 837.446 26.8295C837.715 26.5644 838.037 26.4318 838.412 26.4318C838.776 26.4318 839.094 26.5644 839.366 26.8295C839.639 27.0947 839.776 27.4129 839.776 27.7841C839.776 28.0341 839.711 28.2633 839.582 28.4716C839.457 28.6761 839.293 28.8409 839.088 28.9659C838.884 29.0871 838.658 29.1477 838.412 29.1477ZM841.564 26.9545V25.017L846.422 17.3636H848.092V20.0455H847.104L844.041 24.892V24.983H850.945V26.9545H841.564ZM847.149 29V26.3636L847.195 25.5057V17.3636H849.501V29H847.149ZM856.794 17.2045C857.393 17.2045 857.968 17.3049 858.521 17.5057C859.078 17.7064 859.574 18.0265 860.01 18.4659C860.449 18.9053 860.796 19.4886 861.05 20.2159C861.307 20.9394 861.438 21.8277 861.442 22.8807C861.442 23.8693 861.33 24.7519 861.107 25.5284C860.887 26.3011 860.571 26.9583 860.158 27.5C859.745 28.0417 859.247 28.4545 858.663 28.7386C858.08 29.0189 857.429 29.1591 856.709 29.1591C855.932 29.1591 855.247 29.0095 854.652 28.7102C854.057 28.4072 853.578 27.9962 853.214 27.4773C852.855 26.9545 852.637 26.3674 852.561 25.7159H854.987C855.082 26.1402 855.281 26.4697 855.584 26.7045C855.887 26.9356 856.262 27.0511 856.709 27.0511C857.466 27.0511 858.042 26.7216 858.436 26.0625C858.83 25.3996 859.029 24.4924 859.033 23.3409H858.953C858.779 23.6818 858.544 23.9754 858.249 24.2216C857.953 24.464 857.614 24.6515 857.232 24.7841C856.853 24.9167 856.449 24.983 856.021 24.983C855.336 24.983 854.724 24.822 854.186 24.5C853.648 24.178 853.224 23.7348 852.913 23.1705C852.603 22.6061 852.447 21.9621 852.447 21.2386C852.444 20.4583 852.624 19.7633 852.987 19.1534C853.351 18.5436 853.858 18.0663 854.51 17.7216C855.165 17.3731 855.927 17.2008 856.794 17.2045ZM856.811 19.1364C856.429 19.1364 856.088 19.2273 855.788 19.4091C855.493 19.5909 855.258 19.8352 855.084 20.142C854.913 20.4489 854.83 20.7917 854.834 21.1705C854.834 21.553 854.917 21.8977 855.084 22.2045C855.254 22.5076 855.485 22.75 855.777 22.9318C856.072 23.1098 856.41 23.1989 856.788 23.1989C857.072 23.1989 857.336 23.1458 857.578 23.0398C857.821 22.9337 858.031 22.7879 858.209 22.6023C858.391 22.4129 858.533 22.1951 858.635 21.9489C858.737 21.7027 858.788 21.4413 858.788 21.1648C858.785 20.7973 858.697 20.4602 858.527 20.1534C858.357 19.8466 858.122 19.6004 857.822 19.4148C857.523 19.2292 857.186 19.1364 856.811 19.1364Z" fill="#111827"/>
<path d="M867.777 16.8182L864.027 30.75H862.51L866.26 16.8182H867.777ZM869.22 29V20.2727H870.851V21.6932H870.959C871.141 21.2121 871.438 20.8371 871.851 20.5682C872.264 20.2955 872.758 20.1591 873.334 20.1591C873.917 20.1591 874.406 20.2955 874.8 20.5682C875.197 20.8409 875.491 21.2159 875.68 21.6932H875.771C875.98 21.2273 876.311 20.8561 876.766 20.5795C877.22 20.2992 877.762 20.1591 878.391 20.1591C879.182 20.1591 879.828 20.4072 880.328 20.9034C880.832 21.3996 881.084 22.1477 881.084 23.1477V29H879.385V23.3068C879.385 22.7159 879.224 22.2879 878.902 22.0227C878.58 21.7576 878.196 21.625 877.749 21.625C877.196 21.625 876.766 21.7955 876.459 22.1364C876.152 22.4735 875.999 22.9072 875.999 23.4375V29H874.305V23.1989C874.305 22.7254 874.158 22.3447 873.862 22.0568C873.567 21.7689 873.182 21.625 872.709 21.625C872.387 21.625 872.089 21.7102 871.817 21.8807C871.548 22.0473 871.33 22.2803 871.163 22.5795C871 22.8788 870.919 23.2254 870.919 23.6193V29H869.22ZM887.037 29.1761C886.219 29.1761 885.505 28.9886 884.895 28.6136C884.285 28.2386 883.812 27.714 883.474 27.0398C883.137 26.3655 882.969 25.5777 882.969 24.6761C882.969 23.7708 883.137 22.9792 883.474 22.3011C883.812 21.6231 884.285 21.0966 884.895 20.7216C885.505 20.3466 886.219 20.1591 887.037 20.1591C887.855 20.1591 888.569 20.3466 889.179 20.7216C889.789 21.0966 890.262 21.6231 890.599 22.3011C890.937 22.9792 891.105 23.7708 891.105 24.6761C891.105 25.5777 890.937 26.3655 890.599 27.0398C890.262 27.714 889.789 28.2386 889.179 28.6136C888.569 28.9886 887.855 29.1761 887.037 29.1761ZM887.043 27.75C887.573 27.75 888.012 27.6098 888.361 27.3295C888.709 27.0492 888.967 26.6761 889.134 26.2102C889.304 25.7443 889.389 25.2311 889.389 24.6705C889.389 24.1136 889.304 23.6023 889.134 23.1364C888.967 22.6667 888.709 22.2898 888.361 22.0057C888.012 21.7216 887.573 21.5795 887.043 21.5795C886.509 21.5795 886.065 21.7216 885.713 22.0057C885.365 22.2898 885.105 22.6667 884.935 23.1364C884.768 23.6023 884.685 24.1136 884.685 24.6705C884.685 25.2311 884.768 25.7443 884.935 26.2102C885.105 26.6761 885.365 27.0492 885.713 27.3295C886.065 27.6098 886.509 27.75 887.043 27.75Z" fill="#6B7280"/>
<rect x="680" y="45" width="340" height="61" rx="8" fill="#455EDE"/>
<path d="M816.648 69V57.3636H821.102C821.943 57.3636 822.642 57.4962 823.199 57.7614C823.759 58.0227 824.178 58.3807 824.455 58.8352C824.735 59.2898 824.875 59.8049 824.875 60.3807C824.875 60.8542 824.784 61.2595 824.602 61.5966C824.42 61.9299 824.176 62.2008 823.869 62.4091C823.562 62.6174 823.22 62.767 822.841 62.858V62.9716C823.254 62.9943 823.65 63.1212 824.028 63.3523C824.411 63.5795 824.723 63.9015 824.966 64.3182C825.208 64.7348 825.33 65.2386 825.33 65.8295C825.33 66.4318 825.184 66.9735 824.892 67.4545C824.6 67.9318 824.161 68.3087 823.574 68.5852C822.987 68.8617 822.248 69 821.358 69H816.648ZM818.756 67.2386H821.023C821.788 67.2386 822.339 67.0928 822.676 66.8011C823.017 66.5057 823.188 66.1269 823.188 65.6648C823.188 65.3201 823.102 65.0095 822.932 64.733C822.761 64.4527 822.519 64.233 822.205 64.0739C821.89 63.911 821.515 63.8295 821.08 63.8295H818.756V67.2386ZM818.756 62.3125H820.841C821.205 62.3125 821.532 62.2462 821.824 62.1136C822.116 61.9773 822.345 61.786 822.511 61.5398C822.682 61.2898 822.767 60.9943 822.767 60.6534C822.767 60.2027 822.608 59.8314 822.29 59.5398C821.975 59.2481 821.508 59.1023 820.886 59.1023H818.756V62.3125ZM832.635 65.3295V60.2727H834.692V69H832.697V67.4489H832.607C832.41 67.9375 832.086 68.3371 831.635 68.6477C831.188 68.9583 830.637 69.1136 829.982 69.1136C829.41 69.1136 828.904 68.9867 828.464 68.733C828.029 68.4754 827.688 68.1023 827.442 67.6136C827.196 67.1212 827.072 66.5265 827.072 65.8295V60.2727H829.129V65.5114C829.129 66.0644 829.281 66.5038 829.584 66.8295C829.887 67.1553 830.285 67.3182 830.777 67.3182C831.08 67.3182 831.374 67.2443 831.658 67.0966C831.942 66.9489 832.175 66.7292 832.357 66.4375C832.542 66.142 832.635 65.7727 832.635 65.3295ZM838.085 72.2727C837.805 72.2727 837.545 72.25 837.307 72.2045C837.072 72.1629 836.884 72.1136 836.744 72.0568L837.222 70.4545C837.521 70.5417 837.788 70.5833 838.023 70.5795C838.258 70.5758 838.464 70.5019 838.642 70.358C838.824 70.2178 838.977 69.983 839.102 69.6534L839.278 69.1818L836.114 60.2727H838.295L840.307 66.8636H840.398L842.415 60.2727H844.602L841.108 70.0568C840.945 70.5189 840.729 70.9148 840.46 71.2443C840.191 71.5777 839.862 71.8314 839.472 72.0057C839.085 72.1837 838.623 72.2727 838.085 72.2727ZM859.648 57.3636V69H857.773L852.29 61.0739H852.193V69H850.085V57.3636H851.972L857.449 65.2955H857.551V57.3636H859.648ZM865.661 69.1705C864.808 69.1705 864.07 68.983 863.445 68.608C862.82 68.233 862.335 67.7083 861.99 67.0341C861.649 66.3598 861.479 65.572 861.479 64.6705C861.479 63.7689 861.649 62.9792 861.99 62.3011C862.335 61.6231 862.82 61.0966 863.445 60.7216C864.07 60.3466 864.808 60.1591 865.661 60.1591C866.513 60.1591 867.251 60.3466 867.876 60.7216C868.501 61.0966 868.984 61.6231 869.325 62.3011C869.67 62.9792 869.842 63.7689 869.842 64.6705C869.842 65.572 869.67 66.3598 869.325 67.0341C868.984 67.7083 868.501 68.233 867.876 68.608C867.251 68.983 866.513 69.1705 865.661 69.1705ZM865.672 67.5227C866.134 67.5227 866.52 67.3958 866.831 67.142C867.142 66.8845 867.373 66.5398 867.524 66.108C867.679 65.6761 867.757 65.1951 867.757 64.6648C867.757 64.1307 867.679 63.6477 867.524 63.2159C867.373 62.7803 867.142 62.4337 866.831 62.1761C866.52 61.9186 866.134 61.7898 865.672 61.7898C865.198 61.7898 864.804 61.9186 864.49 62.1761C864.179 62.4337 863.946 62.7803 863.791 63.2159C863.64 63.6477 863.564 64.1307 863.564 64.6648C863.564 65.1951 863.64 65.6761 863.791 66.108C863.946 66.5398 864.179 66.8845 864.49 67.142C864.804 67.3958 865.198 67.5227 865.672 67.5227ZM873.139 69L870.673 60.2727H872.77L874.304 66.4091H874.384L875.952 60.2727H878.026L879.594 66.375H879.679L881.19 60.2727H883.293L880.821 69H878.679L877.043 63.1023H876.923L875.287 69H873.139Z" fill="white"/>
<path d="M791.119 93V82.8182H794.748C795.54 82.8182 796.196 82.9624 796.717 83.2507C797.237 83.5391 797.626 83.9335 797.885 84.4339C798.143 84.9311 798.273 85.4912 798.273 86.1143C798.273 86.7408 798.142 87.3042 797.88 87.8047C797.621 88.3018 797.23 88.6963 796.707 88.9879C796.186 89.2763 795.532 89.4205 794.743 89.4205H792.247V88.1179H794.604C795.104 88.1179 795.51 88.0317 795.822 87.8594C796.133 87.6837 796.362 87.4451 796.508 87.1435C796.654 86.8419 796.727 86.4988 796.727 86.1143C796.727 85.7299 796.654 85.3885 796.508 85.0902C796.362 84.7919 796.132 84.5582 795.817 84.3892C795.505 84.2202 795.094 84.1357 794.584 84.1357H792.655V93H791.119ZM801.441 82.8182V93H799.954V82.8182H801.441ZM808.278 89.8331V85.3636H809.77V93H808.308V91.6776H808.228C808.053 92.0852 807.771 92.425 807.383 92.6967C806.999 92.9652 806.52 93.0994 805.946 93.0994C805.456 93.0994 805.022 92.9917 804.644 92.7763C804.269 92.5575 803.974 92.2344 803.759 91.8068C803.547 91.3793 803.441 90.8506 803.441 90.2209V85.3636H804.927V90.0419C804.927 90.5623 805.071 90.9766 805.36 91.2848C805.648 91.593 806.023 91.7472 806.483 91.7472C806.762 91.7472 807.038 91.6776 807.314 91.5384C807.592 91.3991 807.822 91.1887 808.005 90.907C808.19 90.6252 808.281 90.2673 808.278 89.8331ZM817.489 87.228L816.142 87.4666C816.086 87.2943 815.996 87.1302 815.873 86.9744C815.754 86.8187 815.592 86.6911 815.386 86.5916C815.181 86.4922 814.924 86.4425 814.616 86.4425C814.195 86.4425 813.843 86.5369 813.562 86.7259C813.28 86.9115 813.139 87.1518 813.139 87.4467C813.139 87.7019 813.233 87.9074 813.422 88.0632C813.611 88.219 813.916 88.3466 814.337 88.446L815.55 88.7244C816.253 88.8868 816.777 89.1371 817.121 89.4751C817.466 89.8132 817.638 90.2524 817.638 90.7926C817.638 91.25 817.506 91.6577 817.241 92.0156C816.979 92.3703 816.613 92.6487 816.142 92.8509C815.675 93.053 815.133 93.1541 814.516 93.1541C813.661 93.1541 812.963 92.9718 812.423 92.6072C811.883 92.2393 811.551 91.7173 811.429 91.0412L812.866 90.8224C812.955 91.197 813.139 91.4804 813.417 91.6726C813.696 91.8615 814.059 91.956 814.506 91.956C814.993 91.956 815.383 91.8549 815.675 91.6527C815.966 91.4472 816.112 91.197 816.112 90.902C816.112 90.6634 816.023 90.4628 815.844 90.3004C815.668 90.138 815.398 90.0154 815.033 89.9325L813.741 89.6491C813.028 89.4867 812.501 89.2282 812.16 88.8736C811.822 88.5189 811.653 88.0698 811.653 87.5263C811.653 87.0755 811.778 86.6811 812.03 86.343C812.282 86.005 812.63 85.7415 813.074 85.5526C813.519 85.3603 814.027 85.2642 814.601 85.2642C815.426 85.2642 816.076 85.4432 816.55 85.8011C817.023 86.1558 817.337 86.6314 817.489 87.228ZM823.097 82.8182H824.961L828.203 90.733H828.322L831.564 82.8182H833.428V93H831.966V85.6321H831.872L828.869 92.9851H827.656L824.653 85.6271H824.559V93H823.097V82.8182ZM838.759 93.1541C838.043 93.1541 837.418 92.9901 836.885 92.6619C836.351 92.3338 835.937 91.8748 835.642 91.2848C835.347 90.6948 835.199 90.0054 835.199 89.2166C835.199 88.4245 835.347 87.7318 835.642 87.1385C835.937 86.5452 836.351 86.0845 836.885 85.7564C837.418 85.4283 838.043 85.2642 838.759 85.2642C839.475 85.2642 840.1 85.4283 840.633 85.7564C841.167 86.0845 841.581 86.5452 841.876 87.1385C842.171 87.7318 842.319 88.4245 842.319 89.2166C842.319 90.0054 842.171 90.6948 841.876 91.2848C841.581 91.8748 841.167 92.3338 840.633 92.6619C840.1 92.9901 839.475 93.1541 838.759 93.1541ZM838.764 91.9062C839.228 91.9062 839.612 91.7836 839.917 91.5384C840.222 91.2931 840.448 90.9666 840.593 90.5589C840.743 90.1513 840.817 89.7022 840.817 89.2116C840.817 88.7244 840.743 88.277 840.593 87.8693C840.448 87.4583 840.222 87.1286 839.917 86.88C839.612 86.6314 839.228 86.5071 838.764 86.5071C838.297 86.5071 837.909 86.6314 837.6 86.88C837.296 87.1286 837.069 87.4583 836.919 87.8693C836.774 88.277 836.701 88.7244 836.701 89.2116C836.701 89.7022 836.774 90.1513 836.919 90.5589C837.069 90.9666 837.296 91.2931 837.6 91.5384C837.909 91.7836 838.297 91.9062 838.764 91.9062ZM845.464 88.4659V93H843.978V85.3636H845.405V86.6065H845.499C845.675 86.2022 845.95 85.8774 846.324 85.6321C846.702 85.3868 847.178 85.2642 847.751 85.2642C848.272 85.2642 848.727 85.3736 849.118 85.5923C849.51 85.8078 849.813 86.1293 850.028 86.5568C850.244 86.9844 850.351 87.513 850.351 88.1428V93H848.865V88.3217C848.865 87.7682 848.721 87.3357 848.432 87.0241C848.144 86.7093 847.748 86.5518 847.244 86.5518C846.899 86.5518 846.593 86.6264 846.324 86.7756C846.059 86.9247 845.849 87.1435 845.693 87.4318C845.541 87.7169 845.464 88.0616 845.464 88.4659ZM855.91 85.3636V86.5568H851.738V85.3636H855.91ZM852.857 83.5341H854.344V90.7578C854.344 91.0462 854.387 91.2633 854.473 91.4091C854.559 91.5516 854.67 91.6494 854.806 91.7024C854.945 91.7521 855.096 91.777 855.258 91.777C855.378 91.777 855.482 91.7687 855.572 91.7521C855.661 91.7356 855.731 91.7223 855.78 91.7124L856.049 92.9403C855.963 92.9735 855.84 93.0066 855.681 93.0398C855.522 93.0762 855.323 93.0961 855.084 93.0994C854.693 93.1061 854.329 93.0365 853.991 92.8906C853.653 92.7448 853.379 92.5194 853.17 92.2145C852.961 91.9096 852.857 91.5268 852.857 91.0661V83.5341ZM859.205 88.4659V93H857.718V82.8182H859.185V86.6065H859.279C859.458 86.1955 859.732 85.8691 860.099 85.6271C860.467 85.3852 860.948 85.2642 861.541 85.2642C862.065 85.2642 862.522 85.3719 862.913 85.5874C863.308 85.8028 863.613 86.1243 863.828 86.5518C864.047 86.9761 864.156 87.5064 864.156 88.1428V93H862.67V88.3217C862.67 87.7616 862.526 87.3274 862.237 87.0192C861.949 86.7076 861.548 86.5518 861.034 86.5518C860.683 86.5518 860.368 86.6264 860.089 86.7756C859.814 86.9247 859.597 87.1435 859.438 87.4318C859.282 87.7169 859.205 88.0616 859.205 88.4659ZM867.626 82.8182V93H866.14V82.8182H867.626ZM870.566 95.8636C870.344 95.8636 870.142 95.8454 869.959 95.8089C869.777 95.7758 869.641 95.7393 869.552 95.6996L869.91 94.4815C870.181 94.5545 870.423 94.5859 870.635 94.576C870.848 94.5661 871.035 94.4865 871.197 94.3374C871.363 94.1882 871.509 93.9446 871.635 93.6065L871.819 93.0994L869.025 85.3636H870.616L872.55 91.2898H872.629L874.563 85.3636H876.159L873.012 94.0192C872.866 94.4169 872.68 94.7533 872.455 95.0284C872.23 95.3068 871.961 95.5156 871.65 95.6548C871.338 95.794 870.977 95.8636 870.566 95.8636ZM881.38 93V82.8182H885.01C885.802 82.8182 886.458 82.9624 886.978 83.2507C887.499 83.5391 887.888 83.9335 888.147 84.4339C888.405 84.9311 888.534 85.4912 888.534 86.1143C888.534 86.7408 888.404 87.3042 888.142 87.8047C887.883 88.3018 887.492 88.6963 886.968 88.9879C886.448 89.2763 885.793 89.4205 885.005 89.4205H882.509V88.1179H884.865C885.366 88.1179 885.772 88.0317 886.083 87.8594C886.395 87.6837 886.624 87.4451 886.77 87.1435C886.915 86.8419 886.988 86.4988 886.988 86.1143C886.988 85.7299 886.915 85.3885 886.77 85.0902C886.624 84.7919 886.393 84.5582 886.078 84.3892C885.767 84.2202 885.356 84.1357 884.846 84.1357H882.917V93H881.38ZM891.703 82.8182V93H890.216V82.8182H891.703ZM895.925 93.169C895.441 93.169 895.003 93.0795 894.612 92.9006C894.221 92.7183 893.911 92.4548 893.683 92.1101C893.457 91.7654 893.344 91.3428 893.344 90.8423C893.344 90.4115 893.427 90.0568 893.593 89.7784C893.759 89.5 893.982 89.2796 894.264 89.1172C894.546 88.9548 894.861 88.8321 895.209 88.7493C895.557 88.6664 895.911 88.6035 896.273 88.5604C896.73 88.5073 897.101 88.4643 897.386 88.4311C897.671 88.3946 897.879 88.3366 898.008 88.2571C898.137 88.1776 898.202 88.0483 898.202 87.8693V87.8345C898.202 87.4003 898.079 87.0639 897.834 86.8253C897.592 86.5866 897.231 86.4673 896.75 86.4673C896.25 86.4673 895.855 86.5784 895.567 86.8004C895.282 87.0192 895.085 87.2628 894.975 87.5312L893.578 87.2131C893.744 86.7491 893.986 86.3745 894.304 86.0895C894.625 85.8011 894.995 85.5923 895.413 85.4631C895.83 85.3305 896.269 85.2642 896.73 85.2642C897.035 85.2642 897.358 85.3007 897.7 85.3736C898.044 85.4432 898.366 85.5724 898.664 85.7614C898.966 85.9503 899.213 86.2204 899.405 86.5717C899.597 86.9197 899.693 87.3722 899.693 87.929V93H898.241V91.956H898.182C898.086 92.1482 897.942 92.3371 897.749 92.5227C897.557 92.7083 897.31 92.8625 897.009 92.9851C896.707 93.1077 896.346 93.169 895.925 93.169ZM896.248 91.9759C896.659 91.9759 897.01 91.8946 897.302 91.7322C897.597 91.5698 897.821 91.3577 897.973 91.0959C898.129 90.8307 898.207 90.5473 898.207 90.2457V89.2614C898.154 89.3144 898.051 89.3641 897.898 89.4105C897.749 89.4536 897.579 89.4917 897.386 89.5249C897.194 89.5547 897.007 89.5829 896.825 89.6094C896.642 89.6326 896.49 89.6525 896.367 89.669C896.079 89.7055 895.815 89.7668 895.577 89.853C895.341 89.9392 895.152 90.0634 895.01 90.2259C894.871 90.3849 894.801 90.5971 894.801 90.8622C894.801 91.2301 894.937 91.5085 895.209 91.6974C895.481 91.883 895.827 91.9759 896.248 91.9759ZM903.16 88.4659V93H901.673V85.3636H903.1V86.6065H903.194C903.37 86.2022 903.645 85.8774 904.02 85.6321C904.398 85.3868 904.873 85.2642 905.447 85.2642C905.967 85.2642 906.423 85.3736 906.814 85.5923C907.205 85.8078 907.508 86.1293 907.724 86.5568C907.939 86.9844 908.047 87.513 908.047 88.1428V93H906.56V88.3217C906.56 87.7682 906.416 87.3357 906.128 87.0241C905.839 86.7093 905.443 86.5518 904.939 86.5518C904.595 86.5518 904.288 86.6264 904.02 86.7756C903.755 86.9247 903.544 87.1435 903.388 87.4318C903.236 87.7169 903.16 88.0616 903.16 88.4659Z" fill="white"/>
<mask id="path-11-inside-2_2575_28510" fill="white">
<path d="M655 181H1045V301H655V181Z"/>
</mask>
<path d="M655 181H1045V301H655V181Z" fill="white"/>
<path d="M655 181V182H1045V181V180H655V181Z" fill="#E5E7EB" mask="url(#path-11-inside-2_2575_28510)"/>
<path d="M732.71 210.455V195.909H733.642V210.455H732.71ZM735.625 200.42C735.564 199.883 735.314 199.466 734.875 199.17C734.436 198.871 733.883 198.722 733.216 198.722C732.739 198.722 732.326 198.797 731.977 198.949C731.629 199.097 731.358 199.301 731.165 199.562C730.975 199.82 730.881 200.114 730.881 200.443C730.881 200.72 730.945 200.958 731.074 201.159C731.206 201.36 731.379 201.528 731.591 201.665C731.807 201.797 732.038 201.909 732.284 202C732.53 202.087 732.767 202.159 732.994 202.216L734.131 202.511C734.502 202.602 734.883 202.725 735.273 202.881C735.663 203.036 736.025 203.241 736.358 203.494C736.691 203.748 736.96 204.062 737.165 204.438C737.373 204.812 737.477 205.261 737.477 205.784C737.477 206.443 737.307 207.028 736.966 207.54C736.629 208.051 736.138 208.455 735.494 208.75C734.854 209.045 734.08 209.193 733.17 209.193C732.299 209.193 731.545 209.055 730.909 208.778C730.273 208.502 729.775 208.11 729.415 207.602C729.055 207.091 728.856 206.485 728.818 205.784H730.58C730.614 206.205 730.75 206.555 730.989 206.835C731.231 207.112 731.54 207.318 731.915 207.455C732.294 207.587 732.708 207.653 733.159 207.653C733.655 207.653 734.097 207.576 734.483 207.42C734.873 207.261 735.18 207.042 735.403 206.761C735.627 206.477 735.739 206.146 735.739 205.767C735.739 205.422 735.64 205.14 735.443 204.92C735.25 204.701 734.987 204.519 734.653 204.375C734.324 204.231 733.951 204.104 733.534 203.994L732.159 203.619C731.227 203.366 730.489 202.992 729.943 202.5C729.402 202.008 729.131 201.356 729.131 200.545C729.131 199.875 729.313 199.29 729.676 198.79C730.04 198.29 730.532 197.902 731.153 197.625C731.775 197.345 732.475 197.205 733.256 197.205C734.044 197.205 734.739 197.343 735.341 197.619C735.947 197.896 736.424 198.277 736.773 198.761C737.121 199.242 737.303 199.795 737.318 200.42H735.625ZM743.831 197.364V209H742.07V199.125H742.001L739.217 200.943V199.261L742.121 197.364H743.831ZM751.041 209.159C750.522 209.152 750.011 209.057 749.507 208.875C749.007 208.693 748.553 208.39 748.143 207.966C747.734 207.542 747.407 206.972 747.161 206.256C746.918 205.54 746.797 204.646 746.797 203.574C746.797 202.559 746.897 201.657 747.098 200.869C747.303 200.081 747.596 199.417 747.979 198.875C748.361 198.33 748.823 197.915 749.365 197.631C749.907 197.347 750.515 197.205 751.189 197.205C751.882 197.205 752.498 197.341 753.036 197.614C753.573 197.886 754.009 198.263 754.342 198.744C754.679 199.225 754.893 199.773 754.984 200.386H753.251C753.134 199.902 752.901 199.506 752.553 199.199C752.204 198.892 751.75 198.739 751.189 198.739C750.337 198.739 749.672 199.11 749.195 199.852C748.721 200.595 748.482 201.627 748.479 202.949H748.564C748.765 202.619 749.011 202.339 749.303 202.108C749.598 201.873 749.928 201.693 750.291 201.568C750.659 201.439 751.045 201.375 751.45 201.375C752.125 201.375 752.734 201.54 753.28 201.869C753.829 202.195 754.267 202.646 754.592 203.222C754.918 203.797 755.081 204.456 755.081 205.199C755.081 205.941 754.912 206.614 754.575 207.216C754.242 207.818 753.772 208.295 753.166 208.648C752.56 208.996 751.852 209.167 751.041 209.159ZM751.036 207.682C751.482 207.682 751.882 207.572 752.234 207.352C752.587 207.133 752.865 206.837 753.07 206.466C753.274 206.095 753.376 205.68 753.376 205.222C753.376 204.775 753.276 204.367 753.075 204C752.878 203.633 752.606 203.341 752.257 203.125C751.912 202.909 751.518 202.801 751.075 202.801C750.738 202.801 750.426 202.866 750.138 202.994C749.854 203.123 749.604 203.301 749.388 203.528C749.172 203.756 749.001 204.017 748.876 204.312C748.755 204.604 748.695 204.913 748.695 205.239C748.695 205.674 748.795 206.078 748.996 206.449C749.2 206.82 749.479 207.119 749.831 207.347C750.187 207.57 750.589 207.682 751.036 207.682ZM761.565 197.364V209H759.804V199.125H759.736L756.952 200.943V199.261L759.855 197.364H761.565ZM765.183 209.108C764.873 209.108 764.606 208.998 764.382 208.778C764.159 208.555 764.047 208.286 764.047 207.972C764.047 207.661 764.159 207.396 764.382 207.176C764.606 206.953 764.873 206.841 765.183 206.841C765.494 206.841 765.761 206.953 765.984 207.176C766.208 207.396 766.32 207.661 766.32 207.972C766.32 208.18 766.267 208.371 766.161 208.545C766.058 208.716 765.922 208.852 765.751 208.955C765.581 209.057 765.392 209.108 765.183 209.108ZM772.114 209.159C771.299 209.159 770.58 209.019 769.955 208.739C769.333 208.458 768.847 208.072 768.494 207.58C768.142 207.087 767.968 206.527 767.972 205.898C767.968 205.405 768.068 204.953 768.273 204.54C768.481 204.123 768.763 203.777 769.119 203.5C769.475 203.22 769.873 203.042 770.312 202.966V202.898C769.733 202.758 769.269 202.447 768.92 201.966C768.572 201.485 768.4 200.932 768.403 200.307C768.4 199.712 768.557 199.182 768.875 198.716C769.197 198.246 769.638 197.877 770.199 197.608C770.759 197.339 771.398 197.205 772.114 197.205C772.822 197.205 773.455 197.341 774.011 197.614C774.572 197.883 775.013 198.252 775.335 198.722C775.657 199.187 775.82 199.716 775.824 200.307C775.82 200.932 775.642 201.485 775.29 201.966C774.938 202.447 774.479 202.758 773.915 202.898V202.966C774.35 203.042 774.742 203.22 775.091 203.5C775.443 203.777 775.723 204.123 775.932 204.54C776.144 204.953 776.252 205.405 776.256 205.898C776.252 206.527 776.074 207.087 775.722 207.58C775.369 208.072 774.881 208.458 774.256 208.739C773.634 209.019 772.92 209.159 772.114 209.159ZM772.114 207.722C772.595 207.722 773.011 207.642 773.364 207.483C773.716 207.32 773.989 207.095 774.182 206.807C774.375 206.515 774.473 206.174 774.477 205.784C774.473 205.379 774.367 205.021 774.159 204.71C773.955 204.4 773.676 204.155 773.324 203.977C772.972 203.799 772.568 203.71 772.114 203.71C771.655 203.71 771.248 203.799 770.892 203.977C770.536 204.155 770.256 204.4 770.051 204.71C769.847 205.021 769.746 205.379 769.75 205.784C769.746 206.174 769.839 206.515 770.028 206.807C770.222 207.095 770.496 207.32 770.852 207.483C771.208 207.642 771.629 207.722 772.114 207.722ZM772.114 202.307C772.5 202.307 772.843 202.229 773.142 202.074C773.441 201.919 773.676 201.703 773.847 201.426C774.021 201.15 774.11 200.826 774.114 200.455C774.11 200.091 774.023 199.773 773.852 199.5C773.686 199.227 773.453 199.017 773.153 198.869C772.854 198.718 772.508 198.642 772.114 198.642C771.712 198.642 771.36 198.718 771.057 198.869C770.758 199.017 770.525 199.227 770.358 199.5C770.191 199.773 770.11 200.091 770.114 200.455C770.11 200.826 770.193 201.15 770.364 201.426C770.534 201.703 770.769 201.919 771.068 202.074C771.371 202.229 771.72 202.307 772.114 202.307ZM782.223 209.159C781.409 209.159 780.689 209.019 780.064 208.739C779.443 208.458 778.956 208.072 778.604 207.58C778.251 207.087 778.077 206.527 778.081 205.898C778.077 205.405 778.178 204.953 778.382 204.54C778.59 204.123 778.873 203.777 779.229 203.5C779.585 203.22 779.982 203.042 780.422 202.966V202.898C779.842 202.758 779.378 202.447 779.03 201.966C778.681 201.485 778.509 200.932 778.513 200.307C778.509 199.712 778.666 199.182 778.984 198.716C779.306 198.246 779.748 197.877 780.308 197.608C780.869 197.339 781.507 197.205 782.223 197.205C782.931 197.205 783.564 197.341 784.121 197.614C784.681 197.883 785.123 198.252 785.445 198.722C785.767 199.187 785.929 199.716 785.933 200.307C785.929 200.932 785.751 201.485 785.399 201.966C785.047 202.447 784.589 202.758 784.024 202.898V202.966C784.46 203.042 784.852 203.22 785.2 203.5C785.553 203.777 785.833 204.123 786.041 204.54C786.253 204.953 786.361 205.405 786.365 205.898C786.361 206.527 786.183 207.087 785.831 207.58C785.479 208.072 784.99 208.458 784.365 208.739C783.744 209.019 783.03 209.159 782.223 209.159ZM782.223 207.722C782.704 207.722 783.121 207.642 783.473 207.483C783.825 207.32 784.098 207.095 784.291 206.807C784.484 206.515 784.583 206.174 784.587 205.784C784.583 205.379 784.477 205.021 784.268 204.71C784.064 204.4 783.786 204.155 783.433 203.977C783.081 203.799 782.678 203.71 782.223 203.71C781.765 203.71 781.357 203.799 781.001 203.977C780.645 204.155 780.365 204.4 780.161 204.71C779.956 205.021 779.856 205.379 779.859 205.784C779.856 206.174 779.948 206.515 780.138 206.807C780.331 207.095 780.606 207.32 780.962 207.483C781.318 207.642 781.738 207.722 782.223 207.722ZM782.223 202.307C782.609 202.307 782.952 202.229 783.251 202.074C783.551 201.919 783.786 201.703 783.956 201.426C784.13 201.15 784.219 200.826 784.223 200.455C784.219 200.091 784.132 199.773 783.962 199.5C783.795 199.227 783.562 199.017 783.263 198.869C782.964 198.718 782.617 198.642 782.223 198.642C781.821 198.642 781.469 198.718 781.166 198.869C780.867 199.017 780.634 199.227 780.467 199.5C780.301 199.773 780.219 200.091 780.223 200.455C780.219 200.826 780.303 201.15 780.473 201.426C780.643 201.703 780.878 201.919 781.178 202.074C781.481 202.229 781.829 202.307 782.223 202.307Z" fill="#4B5563"/>
<path d="M728 203.761H787.274V204.852H728V203.761Z" fill="#4B5563"/>
<path d="M800.852 210.455V195.909H801.784V210.455H800.852ZM803.324 200.71C803.278 200.252 803.083 199.896 802.739 199.642C802.394 199.388 801.926 199.261 801.335 199.261C800.934 199.261 800.595 199.318 800.318 199.432C800.042 199.542 799.83 199.695 799.682 199.892C799.538 200.089 799.466 200.312 799.466 200.562C799.458 200.771 799.502 200.953 799.597 201.108C799.695 201.263 799.83 201.398 800 201.511C800.17 201.621 800.367 201.718 800.591 201.801C800.814 201.881 801.053 201.949 801.307 202.006L802.352 202.256C802.86 202.369 803.326 202.521 803.75 202.71C804.174 202.9 804.542 203.133 804.852 203.409C805.163 203.686 805.403 204.011 805.574 204.386C805.748 204.761 805.837 205.191 805.841 205.676C805.837 206.388 805.655 207.006 805.295 207.528C804.939 208.047 804.424 208.451 803.75 208.739C803.08 209.023 802.271 209.165 801.324 209.165C800.384 209.165 799.566 209.021 798.869 208.733C798.176 208.445 797.634 208.019 797.244 207.455C796.858 206.886 796.655 206.184 796.636 205.347H799.017C799.044 205.737 799.155 206.062 799.352 206.324C799.553 206.581 799.82 206.777 800.153 206.909C800.491 207.038 800.871 207.102 801.295 207.102C801.712 207.102 802.074 207.042 802.381 206.92C802.691 206.799 802.932 206.631 803.102 206.415C803.273 206.199 803.358 205.951 803.358 205.67C803.358 205.409 803.28 205.189 803.125 205.011C802.973 204.833 802.75 204.682 802.455 204.557C802.163 204.432 801.805 204.318 801.381 204.216L800.114 203.898C799.133 203.659 798.358 203.286 797.79 202.778C797.222 202.271 796.939 201.587 796.943 200.727C796.939 200.023 797.127 199.407 797.506 198.881C797.888 198.354 798.413 197.943 799.08 197.648C799.746 197.352 800.504 197.205 801.352 197.205C802.216 197.205 802.97 197.352 803.614 197.648C804.261 197.943 804.765 198.354 805.125 198.881C805.485 199.407 805.67 200.017 805.682 200.71H803.324ZM812.49 197.364V209H810.03V199.699H809.962L807.297 201.369V199.188L810.178 197.364H812.49ZM819.557 209.159C818.708 209.159 817.953 209.013 817.29 208.722C816.631 208.426 816.11 208.021 815.727 207.506C815.348 206.987 815.153 206.388 815.142 205.71H817.619C817.634 205.994 817.727 206.244 817.898 206.46C818.072 206.672 818.303 206.837 818.591 206.955C818.879 207.072 819.203 207.131 819.562 207.131C819.938 207.131 820.269 207.064 820.557 206.932C820.845 206.799 821.07 206.616 821.233 206.381C821.396 206.146 821.477 205.875 821.477 205.568C821.477 205.258 821.39 204.983 821.216 204.744C821.045 204.502 820.799 204.312 820.477 204.176C820.159 204.04 819.78 203.972 819.341 203.972H818.256V202.165H819.341C819.712 202.165 820.04 202.1 820.324 201.972C820.612 201.843 820.835 201.665 820.994 201.438C821.153 201.206 821.233 200.938 821.233 200.631C821.233 200.339 821.163 200.083 821.023 199.864C820.886 199.64 820.693 199.466 820.443 199.341C820.197 199.216 819.909 199.153 819.58 199.153C819.246 199.153 818.941 199.214 818.665 199.335C818.388 199.453 818.167 199.621 818 199.841C817.833 200.061 817.744 200.318 817.733 200.614H815.375C815.386 199.943 815.578 199.352 815.949 198.841C816.32 198.33 816.82 197.93 817.449 197.642C818.081 197.35 818.795 197.205 819.591 197.205C820.394 197.205 821.097 197.35 821.699 197.642C822.301 197.934 822.769 198.328 823.102 198.824C823.439 199.316 823.606 199.869 823.602 200.483C823.606 201.134 823.403 201.678 822.994 202.114C822.589 202.549 822.061 202.826 821.409 202.943V203.034C822.265 203.144 822.917 203.441 823.364 203.926C823.814 204.407 824.038 205.009 824.034 205.733C824.038 206.396 823.847 206.985 823.46 207.5C823.078 208.015 822.549 208.42 821.875 208.716C821.201 209.011 820.428 209.159 819.557 209.159ZM830.053 209.159C829.25 209.159 828.534 209.011 827.905 208.716C827.28 208.42 826.784 208.013 826.416 207.494C826.049 206.975 825.857 206.381 825.842 205.71H828.229C828.255 206.161 828.445 206.527 828.797 206.807C829.149 207.087 829.568 207.227 830.053 207.227C830.439 207.227 830.78 207.142 831.075 206.972C831.375 206.797 831.607 206.557 831.774 206.25C831.945 205.939 832.03 205.583 832.03 205.182C832.03 204.773 831.943 204.413 831.768 204.102C831.598 203.792 831.361 203.549 831.058 203.375C830.755 203.201 830.409 203.112 830.018 203.108C829.678 203.108 829.346 203.178 829.024 203.318C828.706 203.458 828.458 203.65 828.28 203.892L826.092 203.5L826.643 197.364H833.757V199.375H828.672L828.371 202.29H828.439C828.643 202.002 828.952 201.763 829.365 201.574C829.778 201.384 830.24 201.29 830.751 201.29C831.452 201.29 832.077 201.455 832.626 201.784C833.176 202.114 833.609 202.566 833.928 203.142C834.246 203.714 834.403 204.373 834.399 205.119C834.403 205.903 834.221 206.6 833.854 207.21C833.49 207.816 832.981 208.294 832.325 208.642C831.674 208.987 830.916 209.159 830.053 209.159ZM837.178 209.148C836.803 209.148 836.481 209.015 836.212 208.75C835.946 208.481 835.814 208.159 835.814 207.784C835.814 207.413 835.946 207.095 836.212 206.83C836.481 206.564 836.803 206.432 837.178 206.432C837.541 206.432 837.859 206.564 838.132 206.83C838.405 207.095 838.541 207.413 838.541 207.784C838.541 208.034 838.477 208.263 838.348 208.472C838.223 208.676 838.058 208.841 837.854 208.966C837.649 209.087 837.424 209.148 837.178 209.148ZM844.497 197.205C845.096 197.205 845.671 197.305 846.224 197.506C846.781 197.706 847.277 198.027 847.713 198.466C848.152 198.905 848.499 199.489 848.753 200.216C849.01 200.939 849.141 201.828 849.145 202.881C849.145 203.869 849.033 204.752 848.81 205.528C848.59 206.301 848.274 206.958 847.861 207.5C847.448 208.042 846.95 208.455 846.366 208.739C845.783 209.019 845.132 209.159 844.412 209.159C843.635 209.159 842.95 209.009 842.355 208.71C841.76 208.407 841.281 207.996 840.918 207.477C840.558 206.955 840.34 206.367 840.264 205.716H842.69C842.785 206.14 842.984 206.47 843.287 206.705C843.59 206.936 843.965 207.051 844.412 207.051C845.17 207.051 845.745 206.722 846.139 206.062C846.533 205.4 846.732 204.492 846.736 203.341H846.656C846.482 203.682 846.247 203.975 845.952 204.222C845.656 204.464 845.317 204.652 844.935 204.784C844.556 204.917 844.152 204.983 843.724 204.983C843.039 204.983 842.427 204.822 841.889 204.5C841.351 204.178 840.927 203.735 840.616 203.17C840.306 202.606 840.151 201.962 840.151 201.239C840.147 200.458 840.327 199.763 840.69 199.153C841.054 198.544 841.562 198.066 842.213 197.722C842.868 197.373 843.63 197.201 844.497 197.205ZM844.514 199.136C844.132 199.136 843.791 199.227 843.491 199.409C843.196 199.591 842.961 199.835 842.787 200.142C842.616 200.449 842.533 200.792 842.537 201.17C842.537 201.553 842.62 201.898 842.787 202.205C842.957 202.508 843.188 202.75 843.48 202.932C843.776 203.11 844.113 203.199 844.491 203.199C844.776 203.199 845.039 203.146 845.281 203.04C845.524 202.934 845.734 202.788 845.912 202.602C846.094 202.413 846.236 202.195 846.338 201.949C846.44 201.703 846.491 201.441 846.491 201.165C846.488 200.797 846.401 200.46 846.23 200.153C846.06 199.847 845.825 199.6 845.526 199.415C845.226 199.229 844.889 199.136 844.514 199.136ZM855.19 209.159C854.315 209.159 853.537 209.017 852.855 208.733C852.177 208.445 851.645 208.053 851.259 207.557C850.872 207.061 850.679 206.498 850.679 205.869C850.679 205.384 850.789 204.939 851.009 204.534C851.232 204.125 851.535 203.786 851.918 203.517C852.3 203.244 852.728 203.07 853.202 202.994V202.915C852.58 202.79 852.077 202.489 851.69 202.011C851.304 201.53 851.111 200.972 851.111 200.335C851.111 199.733 851.287 199.197 851.639 198.727C851.991 198.254 852.474 197.883 853.088 197.614C853.705 197.341 854.406 197.205 855.19 197.205C855.974 197.205 856.673 197.341 857.287 197.614C857.904 197.886 858.389 198.259 858.741 198.733C859.094 199.203 859.272 199.737 859.276 200.335C859.272 200.975 859.075 201.534 858.685 202.011C858.295 202.489 857.795 202.79 857.185 202.915V202.994C857.651 203.07 858.073 203.244 858.452 203.517C858.834 203.786 859.137 204.125 859.361 204.534C859.588 204.939 859.704 205.384 859.707 205.869C859.704 206.498 859.509 207.061 859.122 207.557C858.736 208.053 858.202 208.445 857.52 208.733C856.842 209.017 856.065 209.159 855.19 209.159ZM855.19 207.352C855.58 207.352 855.921 207.282 856.213 207.142C856.505 206.998 856.732 206.801 856.895 206.551C857.062 206.297 857.145 206.006 857.145 205.676C857.145 205.339 857.06 205.042 856.889 204.784C856.719 204.523 856.488 204.318 856.196 204.17C855.904 204.019 855.569 203.943 855.19 203.943C854.815 203.943 854.48 204.019 854.185 204.17C853.889 204.318 853.656 204.523 853.486 204.784C853.319 205.042 853.236 205.339 853.236 205.676C853.236 206.006 853.317 206.297 853.48 206.551C853.643 206.801 853.872 206.998 854.168 207.142C854.463 207.282 854.804 207.352 855.19 207.352ZM855.19 202.153C855.516 202.153 855.806 202.087 856.06 201.955C856.313 201.822 856.512 201.638 856.656 201.403C856.8 201.169 856.872 200.898 856.872 200.591C856.872 200.288 856.8 200.023 856.656 199.795C856.512 199.564 856.315 199.384 856.065 199.256C855.815 199.123 855.524 199.057 855.19 199.057C854.861 199.057 854.569 199.123 854.315 199.256C854.062 199.384 853.863 199.564 853.719 199.795C853.579 200.023 853.509 200.288 853.509 200.591C853.509 200.898 853.58 201.169 853.724 201.403C853.868 201.638 854.067 201.822 854.321 201.955C854.575 202.087 854.865 202.153 855.19 202.153Z" fill="#111827"/>
<path d="M866.058 196.818L862.308 210.75H860.791L864.541 196.818H866.058ZM868.575 212.273C868.321 212.273 868.09 212.252 867.882 212.21C867.674 212.172 867.518 212.131 867.416 212.085L867.825 210.693C868.136 210.777 868.412 210.813 868.655 210.801C868.897 210.79 869.111 210.699 869.297 210.528C869.486 210.358 869.653 210.08 869.797 209.693L870.007 209.114L866.814 200.273H868.632L870.842 207.045H870.933L873.143 200.273H874.967L871.371 210.165C871.204 210.619 870.992 211.004 870.734 211.318C870.477 211.636 870.17 211.875 869.814 212.034C869.458 212.193 869.045 212.273 868.575 212.273ZM876.564 209V200.273H878.206V201.659H878.297C878.456 201.189 878.736 200.82 879.138 200.551C879.543 200.278 880.001 200.142 880.513 200.142C880.619 200.142 880.744 200.146 880.888 200.153C881.036 200.161 881.151 200.17 881.234 200.182V201.807C881.166 201.788 881.045 201.767 880.871 201.744C880.696 201.718 880.522 201.705 880.348 201.705C879.946 201.705 879.589 201.79 879.274 201.96C878.964 202.127 878.717 202.36 878.536 202.659C878.354 202.955 878.263 203.292 878.263 203.67V209H876.564Z" fill="#6B7280"/>
<path d="M887.568 203.182C887.568 201.761 887.756 200.456 888.131 199.267C888.509 198.074 889.072 196.972 889.818 195.96H891.756C891.468 196.335 891.199 196.795 890.949 197.341C890.699 197.883 890.481 198.477 890.295 199.125C890.114 199.769 889.97 200.437 889.864 201.131C889.761 201.824 889.71 202.508 889.71 203.182C889.71 204.08 889.799 204.989 889.977 205.909C890.159 206.83 890.403 207.684 890.71 208.472C891.021 209.256 891.369 209.898 891.756 210.398H889.818C889.072 209.386 888.509 208.286 888.131 207.097C887.756 205.903 887.568 204.598 887.568 203.182ZM899.768 200.562C899.715 200.066 899.492 199.68 899.098 199.403C898.708 199.127 898.2 198.989 897.575 198.989C897.136 198.989 896.759 199.055 896.445 199.188C896.13 199.32 895.89 199.5 895.723 199.727C895.556 199.955 895.471 200.214 895.467 200.506C895.467 200.748 895.522 200.958 895.632 201.136C895.746 201.314 895.899 201.466 896.092 201.591C896.286 201.712 896.5 201.814 896.734 201.898C896.969 201.981 897.206 202.051 897.445 202.108L898.536 202.381C898.975 202.483 899.397 202.621 899.803 202.795C900.212 202.97 900.577 203.189 900.899 203.455C901.225 203.72 901.482 204.04 901.672 204.415C901.861 204.79 901.956 205.229 901.956 205.733C901.956 206.415 901.782 207.015 901.433 207.534C901.085 208.049 900.581 208.453 899.922 208.744C899.267 209.032 898.473 209.176 897.541 209.176C896.636 209.176 895.85 209.036 895.183 208.756C894.52 208.475 894.001 208.066 893.626 207.528C893.255 206.991 893.054 206.335 893.024 205.562H895.098C895.128 205.968 895.253 206.305 895.473 206.574C895.693 206.843 895.979 207.044 896.331 207.176C896.687 207.309 897.085 207.375 897.524 207.375C897.982 207.375 898.384 207.307 898.729 207.17C899.077 207.03 899.35 206.837 899.547 206.591C899.744 206.341 899.844 206.049 899.848 205.716C899.844 205.413 899.755 205.163 899.581 204.966C899.407 204.765 899.162 204.598 898.848 204.466C898.537 204.33 898.174 204.208 897.757 204.102L896.433 203.761C895.475 203.515 894.717 203.142 894.161 202.642C893.607 202.138 893.331 201.47 893.331 200.636C893.331 199.951 893.517 199.35 893.888 198.835C894.263 198.32 894.772 197.92 895.416 197.636C896.06 197.348 896.789 197.205 897.604 197.205C898.429 197.205 899.153 197.348 899.774 197.636C900.399 197.92 900.89 198.316 901.246 198.824C901.602 199.328 901.786 199.907 901.797 200.562H899.768ZM906.256 209.176C905.703 209.176 905.205 209.078 904.761 208.881C904.322 208.68 903.973 208.384 903.716 207.994C903.462 207.604 903.335 207.123 903.335 206.551C903.335 206.059 903.426 205.652 903.608 205.33C903.79 205.008 904.038 204.75 904.352 204.557C904.667 204.364 905.021 204.218 905.415 204.119C905.813 204.017 906.223 203.943 906.648 203.898C907.159 203.845 907.574 203.797 907.892 203.756C908.21 203.71 908.441 203.642 908.585 203.551C908.733 203.456 908.807 203.311 908.807 203.114V203.08C908.807 202.652 908.68 202.32 908.426 202.085C908.172 201.85 907.807 201.733 907.33 201.733C906.826 201.733 906.426 201.843 906.131 202.062C905.839 202.282 905.642 202.542 905.54 202.841L903.619 202.568C903.771 202.038 904.021 201.595 904.369 201.239C904.718 200.879 905.144 200.61 905.648 200.432C906.152 200.25 906.708 200.159 907.318 200.159C907.739 200.159 908.157 200.208 908.574 200.307C908.991 200.405 909.371 200.568 909.716 200.795C910.061 201.019 910.337 201.324 910.545 201.71C910.758 202.097 910.864 202.58 910.864 203.159V209H908.886V207.801H908.818C908.693 208.044 908.517 208.271 908.29 208.483C908.066 208.691 907.784 208.86 907.443 208.989C907.106 209.114 906.71 209.176 906.256 209.176ZM906.79 207.665C907.203 207.665 907.561 207.583 907.864 207.42C908.167 207.254 908.4 207.034 908.562 206.761C908.729 206.489 908.812 206.191 908.812 205.869V204.841C908.748 204.894 908.638 204.943 908.483 204.989C908.331 205.034 908.161 205.074 907.972 205.108C907.782 205.142 907.595 205.172 907.409 205.199C907.223 205.225 907.063 205.248 906.926 205.267C906.619 205.309 906.345 205.377 906.102 205.472C905.86 205.566 905.669 205.699 905.528 205.869C905.388 206.036 905.318 206.252 905.318 206.517C905.318 206.896 905.456 207.182 905.733 207.375C906.009 207.568 906.362 207.665 906.79 207.665ZM920.415 200.273L917.307 209H915.034L911.926 200.273H914.119L916.125 206.756H916.216L918.227 200.273H920.415ZM925.405 209.17C924.53 209.17 923.774 208.989 923.138 208.625C922.505 208.258 922.018 207.739 921.678 207.068C921.337 206.394 921.166 205.6 921.166 204.688C921.166 203.79 921.337 203.002 921.678 202.324C922.022 201.642 922.503 201.112 923.121 200.733C923.738 200.35 924.464 200.159 925.297 200.159C925.835 200.159 926.342 200.246 926.82 200.42C927.301 200.591 927.725 200.856 928.092 201.216C928.464 201.576 928.755 202.034 928.967 202.591C929.179 203.144 929.286 203.803 929.286 204.568V205.199H922.132V203.812H927.314C927.31 203.419 927.225 203.068 927.058 202.761C926.892 202.451 926.659 202.206 926.359 202.028C926.064 201.85 925.719 201.761 925.325 201.761C924.905 201.761 924.536 201.864 924.217 202.068C923.899 202.269 923.651 202.534 923.473 202.864C923.299 203.189 923.21 203.547 923.206 203.938V205.148C923.206 205.655 923.299 206.091 923.484 206.455C923.67 206.814 923.929 207.091 924.263 207.284C924.596 207.473 924.986 207.568 925.433 207.568C925.732 207.568 926.003 207.527 926.246 207.443C926.488 207.356 926.698 207.229 926.876 207.062C927.054 206.896 927.189 206.689 927.28 206.443L929.2 206.659C929.079 207.167 928.848 207.61 928.507 207.989C928.17 208.364 927.738 208.655 927.212 208.864C926.685 209.068 926.083 209.17 925.405 209.17ZM939.705 197.364V209H937.597V199.415H937.528L934.807 201.153V199.222L937.699 197.364H939.705ZM946.92 209.159C946.364 209.155 945.82 209.059 945.29 208.869C944.759 208.676 944.282 208.364 943.858 207.932C943.434 207.496 943.097 206.919 942.847 206.199C942.597 205.475 942.473 204.58 942.477 203.511C942.477 202.515 942.583 201.627 942.795 200.847C943.008 200.066 943.312 199.407 943.71 198.869C944.108 198.328 944.587 197.915 945.148 197.631C945.712 197.347 946.343 197.205 947.04 197.205C947.771 197.205 948.419 197.348 948.983 197.636C949.551 197.924 950.009 198.318 950.358 198.818C950.706 199.314 950.922 199.875 951.006 200.5H948.932C948.826 200.053 948.608 199.697 948.278 199.432C947.953 199.163 947.54 199.028 947.04 199.028C946.233 199.028 945.612 199.379 945.176 200.08C944.744 200.78 944.527 201.742 944.523 202.966H944.602C944.788 202.633 945.028 202.347 945.324 202.108C945.619 201.869 945.953 201.686 946.324 201.557C946.699 201.424 947.095 201.358 947.511 201.358C948.193 201.358 948.805 201.521 949.347 201.847C949.892 202.172 950.324 202.621 950.642 203.193C950.96 203.761 951.117 204.413 951.114 205.148C951.117 205.913 950.943 206.6 950.591 207.21C950.239 207.816 949.748 208.294 949.119 208.642C948.491 208.991 947.758 209.163 946.92 209.159ZM946.909 207.455C947.322 207.455 947.691 207.354 948.017 207.153C948.343 206.953 948.6 206.682 948.79 206.341C948.979 206 949.072 205.617 949.068 205.193C949.072 204.777 948.981 204.4 948.795 204.062C948.614 203.725 948.362 203.458 948.04 203.261C947.718 203.064 947.35 202.966 946.938 202.966C946.631 202.966 946.345 203.025 946.08 203.142C945.814 203.259 945.583 203.422 945.386 203.631C945.189 203.835 945.034 204.074 944.92 204.347C944.811 204.616 944.754 204.903 944.75 205.21C944.754 205.616 944.848 205.989 945.034 206.33C945.22 206.67 945.475 206.943 945.801 207.148C946.127 207.352 946.496 207.455 946.909 207.455ZM959.256 206.818V206.205C959.256 205.754 959.35 205.339 959.54 204.96C959.733 204.581 960.013 204.277 960.381 204.045C960.748 203.814 961.193 203.699 961.716 203.699C962.254 203.699 962.705 203.814 963.068 204.045C963.432 204.273 963.706 204.576 963.892 204.955C964.081 205.333 964.176 205.75 964.176 206.205V206.818C964.176 207.269 964.081 207.684 963.892 208.062C963.703 208.441 963.424 208.746 963.057 208.977C962.693 209.208 962.246 209.324 961.716 209.324C961.186 209.324 960.737 209.208 960.369 208.977C960.002 208.746 959.723 208.441 959.534 208.062C959.348 207.684 959.256 207.269 959.256 206.818ZM960.739 206.205V206.818C960.739 207.117 960.811 207.392 960.955 207.642C961.098 207.892 961.352 208.017 961.716 208.017C962.083 208.017 962.335 207.894 962.472 207.648C962.612 207.398 962.682 207.121 962.682 206.818V206.205C962.682 205.902 962.616 205.625 962.483 205.375C962.35 205.121 962.095 204.994 961.716 204.994C961.36 204.994 961.108 205.121 960.96 205.375C960.813 205.625 960.739 205.902 960.739 206.205ZM953.341 200.159V199.545C953.341 199.091 953.438 198.674 953.631 198.295C953.824 197.917 954.104 197.614 954.472 197.386C954.839 197.155 955.284 197.04 955.807 197.04C956.341 197.04 956.79 197.155 957.153 197.386C957.521 197.614 957.797 197.917 957.983 198.295C958.169 198.674 958.261 199.091 958.261 199.545V200.159C958.261 200.614 958.167 201.03 957.977 201.409C957.792 201.784 957.515 202.085 957.148 202.312C956.78 202.54 956.333 202.653 955.807 202.653C955.273 202.653 954.822 202.54 954.455 202.312C954.091 202.085 953.814 201.782 953.625 201.403C953.436 201.025 953.341 200.61 953.341 200.159ZM954.835 199.545V200.159C954.835 200.462 954.905 200.739 955.045 200.989C955.189 201.235 955.443 201.358 955.807 201.358C956.17 201.358 956.42 201.235 956.557 200.989C956.697 200.739 956.767 200.462 956.767 200.159V199.545C956.767 199.242 956.701 198.966 956.568 198.716C956.436 198.462 956.182 198.335 955.807 198.335C955.447 198.335 955.195 198.462 955.051 198.716C954.907 198.97 954.835 199.246 954.835 199.545ZM953.989 209L961.989 197.364H963.409L955.409 209H953.989ZM970.227 203.182C970.227 204.598 970.038 205.903 969.659 207.097C969.284 208.286 968.723 209.386 967.977 210.398H966.04C966.331 210.023 966.6 209.564 966.847 209.023C967.097 208.481 967.313 207.886 967.494 207.239C967.68 206.591 967.824 205.92 967.926 205.227C968.032 204.534 968.085 203.852 968.085 203.182C968.085 202.284 967.994 201.375 967.812 200.455C967.634 199.534 967.39 198.68 967.08 197.892C966.773 197.104 966.426 196.46 966.04 195.96H967.977C968.723 196.972 969.284 198.074 969.659 199.267C970.038 200.456 970.227 201.761 970.227 203.182Z" fill="#15803D"/>
<rect x="680" y="225" width="340" height="61" rx="8" fill="#455EDE"/>
<path d="M816.648 249V237.364H821.102C821.943 237.364 822.642 237.496 823.199 237.761C823.759 238.023 824.178 238.381 824.455 238.835C824.735 239.29 824.875 239.805 824.875 240.381C824.875 240.854 824.784 241.259 824.602 241.597C824.42 241.93 824.176 242.201 823.869 242.409C823.562 242.617 823.22 242.767 822.841 242.858V242.972C823.254 242.994 823.65 243.121 824.028 243.352C824.411 243.58 824.723 243.902 824.966 244.318C825.208 244.735 825.33 245.239 825.33 245.83C825.33 246.432 825.184 246.973 824.892 247.455C824.6 247.932 824.161 248.309 823.574 248.585C822.987 248.862 822.248 249 821.358 249H816.648ZM818.756 247.239H821.023C821.788 247.239 822.339 247.093 822.676 246.801C823.017 246.506 823.188 246.127 823.188 245.665C823.188 245.32 823.102 245.009 822.932 244.733C822.761 244.453 822.519 244.233 822.205 244.074C821.89 243.911 821.515 243.83 821.08 243.83H818.756V247.239ZM818.756 242.312H820.841C821.205 242.312 821.532 242.246 821.824 242.114C822.116 241.977 822.345 241.786 822.511 241.54C822.682 241.29 822.767 240.994 822.767 240.653C822.767 240.203 822.608 239.831 822.29 239.54C821.975 239.248 821.508 239.102 820.886 239.102H818.756V242.312ZM832.635 245.33V240.273H834.692V249H832.697V247.449H832.607C832.41 247.937 832.086 248.337 831.635 248.648C831.188 248.958 830.637 249.114 829.982 249.114C829.41 249.114 828.904 248.987 828.464 248.733C828.029 248.475 827.688 248.102 827.442 247.614C827.196 247.121 827.072 246.527 827.072 245.83V240.273H829.129V245.511C829.129 246.064 829.281 246.504 829.584 246.83C829.887 247.155 830.285 247.318 830.777 247.318C831.08 247.318 831.374 247.244 831.658 247.097C831.942 246.949 832.175 246.729 832.357 246.438C832.542 246.142 832.635 245.773 832.635 245.33ZM838.085 252.273C837.805 252.273 837.545 252.25 837.307 252.205C837.072 252.163 836.884 252.114 836.744 252.057L837.222 250.455C837.521 250.542 837.788 250.583 838.023 250.58C838.258 250.576 838.464 250.502 838.642 250.358C838.824 250.218 838.977 249.983 839.102 249.653L839.278 249.182L836.114 240.273H838.295L840.307 246.864H840.398L842.415 240.273H844.602L841.108 250.057C840.945 250.519 840.729 250.915 840.46 251.244C840.191 251.578 839.862 251.831 839.472 252.006C839.085 252.184 838.623 252.273 838.085 252.273ZM859.648 237.364V249H857.773L852.29 241.074H852.193V249H850.085V237.364H851.972L857.449 245.295H857.551V237.364H859.648ZM865.661 249.17C864.808 249.17 864.07 248.983 863.445 248.608C862.82 248.233 862.335 247.708 861.99 247.034C861.649 246.36 861.479 245.572 861.479 244.67C861.479 243.769 861.649 242.979 861.99 242.301C862.335 241.623 862.82 241.097 863.445 240.722C864.07 240.347 864.808 240.159 865.661 240.159C866.513 240.159 867.251 240.347 867.876 240.722C868.501 241.097 868.984 241.623 869.325 242.301C869.67 242.979 869.842 243.769 869.842 244.67C869.842 245.572 869.67 246.36 869.325 247.034C868.984 247.708 868.501 248.233 867.876 248.608C867.251 248.983 866.513 249.17 865.661 249.17ZM865.672 247.523C866.134 247.523 866.52 247.396 866.831 247.142C867.142 246.884 867.373 246.54 867.524 246.108C867.679 245.676 867.757 245.195 867.757 244.665C867.757 244.131 867.679 243.648 867.524 243.216C867.373 242.78 867.142 242.434 866.831 242.176C866.52 241.919 866.134 241.79 865.672 241.79C865.198 241.79 864.804 241.919 864.49 242.176C864.179 242.434 863.946 242.78 863.791 243.216C863.64 243.648 863.564 244.131 863.564 244.665C863.564 245.195 863.64 245.676 863.791 246.108C863.946 246.54 864.179 246.884 864.49 247.142C864.804 247.396 865.198 247.523 865.672 247.523ZM873.139 249L870.673 240.273H872.77L874.304 246.409H874.384L875.952 240.273H878.026L879.594 246.375H879.679L881.19 240.273H883.293L880.821 249H878.679L877.043 243.102H876.923L875.287 249H873.139Z" fill="white"/>
<path d="M795.619 273V262.818H799.248C800.04 262.818 800.696 262.962 801.217 263.251C801.737 263.539 802.126 263.933 802.385 264.434C802.643 264.931 802.773 265.491 802.773 266.114C802.773 266.741 802.642 267.304 802.38 267.805C802.121 268.302 801.73 268.696 801.207 268.988C800.686 269.276 800.032 269.42 799.243 269.42H796.747V268.118H799.104C799.604 268.118 800.01 268.032 800.322 267.859C800.633 267.684 800.862 267.445 801.008 267.143C801.154 266.842 801.227 266.499 801.227 266.114C801.227 265.73 801.154 265.388 801.008 265.09C800.862 264.792 800.632 264.558 800.317 264.389C800.005 264.22 799.594 264.136 799.084 264.136H797.155V273H795.619ZM805.941 262.818V273H804.454V262.818H805.941ZM812.778 269.833V265.364H814.27V273H812.808V271.678H812.728C812.553 272.085 812.271 272.425 811.883 272.697C811.499 272.965 811.02 273.099 810.446 273.099C809.956 273.099 809.522 272.992 809.144 272.776C808.769 272.558 808.474 272.234 808.259 271.807C808.047 271.379 807.941 270.851 807.941 270.221V265.364H809.427V270.042C809.427 270.562 809.571 270.977 809.86 271.285C810.148 271.593 810.523 271.747 810.983 271.747C811.262 271.747 811.538 271.678 811.814 271.538C812.092 271.399 812.322 271.189 812.505 270.907C812.69 270.625 812.781 270.267 812.778 269.833ZM821.989 267.228L820.642 267.467C820.586 267.294 820.496 267.13 820.373 266.974C820.254 266.819 820.092 266.691 819.886 266.592C819.681 266.492 819.424 266.442 819.116 266.442C818.695 266.442 818.343 266.537 818.062 266.726C817.78 266.911 817.639 267.152 817.639 267.447C817.639 267.702 817.733 267.907 817.922 268.063C818.111 268.219 818.416 268.347 818.837 268.446L820.05 268.724C820.753 268.887 821.277 269.137 821.621 269.475C821.966 269.813 822.138 270.252 822.138 270.793C822.138 271.25 822.006 271.658 821.741 272.016C821.479 272.37 821.113 272.649 820.642 272.851C820.175 273.053 819.633 273.154 819.016 273.154C818.161 273.154 817.463 272.972 816.923 272.607C816.383 272.239 816.051 271.717 815.929 271.041L817.366 270.822C817.455 271.197 817.639 271.48 817.917 271.673C818.196 271.862 818.559 271.956 819.006 271.956C819.493 271.956 819.883 271.855 820.175 271.653C820.466 271.447 820.612 271.197 820.612 270.902C820.612 270.663 820.523 270.463 820.344 270.3C820.168 270.138 819.898 270.015 819.533 269.933L818.241 269.649C817.528 269.487 817.001 269.228 816.66 268.874C816.322 268.519 816.153 268.07 816.153 267.526C816.153 267.076 816.278 266.681 816.53 266.343C816.782 266.005 817.13 265.741 817.574 265.553C818.019 265.36 818.527 265.264 819.101 265.264C819.926 265.264 820.576 265.443 821.05 265.801C821.523 266.156 821.837 266.631 821.989 267.228ZM828.457 273H826.827L830.491 262.818H832.265L835.93 273H834.299L831.42 264.668H831.341L828.457 273ZM828.731 269.013H834.02V270.305H828.731V269.013ZM838.767 268.466V273H837.281V265.364H838.707V266.607H838.802C838.978 266.202 839.253 265.877 839.627 265.632C840.005 265.387 840.481 265.264 841.054 265.264C841.574 265.264 842.03 265.374 842.421 265.592C842.812 265.808 843.116 266.129 843.331 266.557C843.546 266.984 843.654 267.513 843.654 268.143V273H842.168V268.322C842.168 267.768 842.023 267.336 841.735 267.024C841.447 266.709 841.051 266.552 840.547 266.552C840.202 266.552 839.896 266.626 839.627 266.776C839.362 266.925 839.152 267.143 838.996 267.432C838.843 267.717 838.767 268.062 838.767 268.466ZM847.134 268.466V273H845.648V265.364H847.075V266.607H847.169C847.345 266.202 847.62 265.877 847.994 265.632C848.372 265.387 848.848 265.264 849.421 265.264C849.942 265.264 850.397 265.374 850.788 265.592C851.179 265.808 851.483 266.129 851.698 266.557C851.914 266.984 852.021 267.513 852.021 268.143V273H850.535V268.322C850.535 267.768 850.391 267.336 850.102 267.024C849.814 266.709 849.418 266.552 848.914 266.552C848.569 266.552 848.263 266.626 847.994 266.776C847.729 266.925 847.519 267.143 847.363 267.432C847.21 267.717 847.134 268.062 847.134 268.466ZM858.852 269.833V265.364H860.344V273H858.882V271.678H858.803C858.627 272.085 858.345 272.425 857.957 272.697C857.573 272.965 857.094 273.099 856.521 273.099C856.03 273.099 855.596 272.992 855.218 272.776C854.844 272.558 854.549 272.234 854.333 271.807C854.121 271.379 854.015 270.851 854.015 270.221V265.364H855.501V270.042C855.501 270.562 855.646 270.977 855.934 271.285C856.222 271.593 856.597 271.747 857.058 271.747C857.336 271.747 857.613 271.678 857.888 271.538C858.166 271.399 858.397 271.189 858.579 270.907C858.764 270.625 858.856 270.267 858.852 269.833ZM864.563 273.169C864.079 273.169 863.642 273.08 863.251 272.901C862.86 272.718 862.55 272.455 862.321 272.11C862.096 271.765 861.983 271.343 861.983 270.842C861.983 270.411 862.066 270.057 862.232 269.778C862.397 269.5 862.621 269.28 862.903 269.117C863.185 268.955 863.499 268.832 863.847 268.749C864.195 268.666 864.55 268.603 864.911 268.56C865.369 268.507 865.74 268.464 866.025 268.431C866.31 268.395 866.517 268.337 866.646 268.257C866.776 268.178 866.84 268.048 866.84 267.869V267.835C866.84 267.4 866.718 267.064 866.472 266.825C866.231 266.587 865.869 266.467 865.389 266.467C864.888 266.467 864.494 266.578 864.205 266.8C863.92 267.019 863.723 267.263 863.614 267.531L862.217 267.213C862.383 266.749 862.624 266.375 862.943 266.089C863.264 265.801 863.634 265.592 864.051 265.463C864.469 265.33 864.908 265.264 865.369 265.264C865.674 265.264 865.997 265.301 866.338 265.374C866.683 265.443 867.004 265.572 867.303 265.761C867.604 265.95 867.851 266.22 868.044 266.572C868.236 266.92 868.332 267.372 868.332 267.929V273H866.88V271.956H866.82C866.724 272.148 866.58 272.337 866.388 272.523C866.196 272.708 865.949 272.862 865.647 272.985C865.346 273.108 864.984 273.169 864.563 273.169ZM864.887 271.976C865.298 271.976 865.649 271.895 865.941 271.732C866.235 271.57 866.459 271.358 866.612 271.096C866.767 270.831 866.845 270.547 866.845 270.246V269.261C866.792 269.314 866.69 269.364 866.537 269.411C866.388 269.454 866.217 269.492 866.025 269.525C865.833 269.555 865.646 269.583 865.463 269.609C865.281 269.633 865.128 269.652 865.006 269.669C864.718 269.705 864.454 269.767 864.215 269.853C863.98 269.939 863.791 270.063 863.649 270.226C863.509 270.385 863.44 270.597 863.44 270.862C863.44 271.23 863.576 271.509 863.847 271.697C864.119 271.883 864.466 271.976 864.887 271.976ZM871.798 262.818V273H870.312V262.818H871.798ZM877.623 273V262.818H881.252C882.044 262.818 882.7 262.962 883.221 263.251C883.741 263.539 884.13 263.933 884.389 264.434C884.647 264.931 884.777 265.491 884.777 266.114C884.777 266.741 884.646 267.304 884.384 267.805C884.125 268.302 883.734 268.696 883.211 268.988C882.69 269.276 882.036 269.42 881.247 269.42H878.751V268.118H881.108C881.608 268.118 882.014 268.032 882.326 267.859C882.637 267.684 882.866 267.445 883.012 267.143C883.158 266.842 883.23 266.499 883.23 266.114C883.23 265.73 883.158 265.388 883.012 265.09C882.866 264.792 882.636 264.558 882.321 264.389C882.009 264.22 881.598 264.136 881.088 264.136H879.159V273H877.623ZM887.945 262.818V273H886.458V262.818H887.945ZM892.167 273.169C891.683 273.169 891.246 273.08 890.854 272.901C890.463 272.718 890.153 272.455 889.925 272.11C889.699 271.765 889.587 271.343 889.587 270.842C889.587 270.411 889.67 270.057 889.835 269.778C890.001 269.5 890.225 269.28 890.506 269.117C890.788 268.955 891.103 268.832 891.451 268.749C891.799 268.666 892.154 268.603 892.515 268.56C892.972 268.507 893.344 268.464 893.629 268.431C893.914 268.395 894.121 268.337 894.25 268.257C894.379 268.178 894.444 268.048 894.444 267.869V267.835C894.444 267.4 894.321 267.064 894.076 266.825C893.834 266.587 893.473 266.467 892.992 266.467C892.492 266.467 892.097 266.578 891.809 266.8C891.524 267.019 891.327 267.263 891.217 267.531L889.82 267.213C889.986 266.749 890.228 266.375 890.546 266.089C890.868 265.801 891.237 265.592 891.655 265.463C892.072 265.33 892.512 265.264 892.972 265.264C893.277 265.264 893.6 265.301 893.942 265.374C894.286 265.443 894.608 265.572 894.906 265.761C895.208 265.95 895.455 266.22 895.647 266.572C895.839 266.92 895.935 267.372 895.935 267.929V273H894.484V271.956H894.424C894.328 272.148 894.184 272.337 893.991 272.523C893.799 272.708 893.552 272.862 893.251 272.985C892.949 273.108 892.588 273.169 892.167 273.169ZM892.49 271.976C892.901 271.976 893.252 271.895 893.544 271.732C893.839 271.57 894.063 271.358 894.215 271.096C894.371 270.831 894.449 270.547 894.449 270.246V269.261C894.396 269.314 894.293 269.364 894.141 269.411C893.991 269.454 893.821 269.492 893.629 269.525C893.436 269.555 893.249 269.583 893.067 269.609C892.884 269.633 892.732 269.652 892.609 269.669C892.321 269.705 892.058 269.767 891.819 269.853C891.584 269.939 891.395 270.063 891.252 270.226C891.113 270.385 891.043 270.597 891.043 270.862C891.043 271.23 891.179 271.509 891.451 271.697C891.723 271.883 892.069 271.976 892.49 271.976ZM899.402 268.466V273H897.915V265.364H899.342V266.607H899.437C899.612 266.202 899.887 265.877 900.262 265.632C900.64 265.387 901.115 265.264 901.689 265.264C902.209 265.264 902.665 265.374 903.056 265.592C903.447 265.808 903.75 266.129 903.966 266.557C904.181 266.984 904.289 267.513 904.289 268.143V273H902.802V268.322C902.802 267.768 902.658 267.336 902.37 267.024C902.081 266.709 901.685 266.552 901.182 266.552C900.837 266.552 900.53 266.626 900.262 266.776C899.997 266.925 899.786 267.143 899.631 267.432C899.478 267.717 899.402 268.062 899.402 268.466Z" fill="white"/>
<rect x="899" y="24" width="235" height="1" fill="#727272"/>
<path d="M1143.98 31V15.88H1149.14C1151.78 15.88 1153.94 18.04 1153.94 20.56C1153.94 23.08 1151.78 25.24 1149.14 25.24H1145.9V31H1143.98ZM1145.9 23.56H1149.14C1150.7 23.56 1152.02 22.24 1152.02 20.56C1152.02 18.88 1150.7 17.56 1149.14 17.56H1145.9V23.56ZM1156.46 31V20.2H1157.78L1158.26 21.4C1158.26 21.4 1159.34 20.08 1161.38 20.08H1161.62V21.88H1161.14C1159.46 21.88 1158.26 23.08 1158.26 24.88V31H1156.46ZM1163.66 31V20.2H1165.46V31H1163.66ZM1164.55 18.28C1163.9 18.28 1163.42 17.8 1163.42 17.152C1163.42 16.48 1163.9 16 1164.55 16C1165.22 16 1165.7 16.48 1165.7 17.152C1165.7 17.8 1165.22 18.28 1164.55 18.28ZM1172.9 31.12C1170.14 31.12 1167.86 28.84 1167.86 25.6C1167.86 22.36 1170.14 20.08 1172.9 20.08C1175.3 20.08 1177.1 21.88 1177.58 24.04H1175.78C1175.42 22.84 1174.34 21.76 1172.9 21.76C1171.22 21.76 1169.66 23.32 1169.66 25.6C1169.66 27.88 1171.22 29.44 1172.9 29.44C1174.34 29.44 1175.42 28.36 1175.78 27.16H1177.58C1177.1 29.32 1175.3 31.12 1172.9 31.12ZM1184.29 31.12C1181.41 31.12 1179.13 28.84 1179.13 25.6C1179.13 22.36 1181.53 20.08 1184.17 20.08C1186.81 20.08 1189.09 22.24 1189.09 25.48C1189.09 26.08 1188.97 26.44 1188.97 26.44H1181.05C1181.17 28 1182.61 29.44 1184.29 29.44C1185.73 29.44 1186.57 28.6 1186.93 28.12H1188.85C1188.13 29.68 1186.69 31.12 1184.29 31.12ZM1181.05 24.88H1187.29C1187.05 23.08 1185.73 21.76 1184.17 21.76C1182.61 21.76 1181.29 23.08 1181.05 24.88Z" fill="#363636"/>
<rect x="980" y="203" width="154" height="1" fill="#727272"/>
<path d="M1143.92 210V194.88H1148.12C1152.08 194.88 1155.32 198.12 1155.32 202.44C1155.32 206.76 1152.08 210 1148.12 210H1143.92ZM1145.84 208.32H1148.12C1150.88 208.32 1153.4 205.8 1153.4 202.44C1153.4 199.08 1150.88 196.56 1148.12 196.56H1145.84V208.32ZM1157.83 210V199.2H1159.63V210H1157.83ZM1158.72 197.28C1158.07 197.28 1157.59 196.8 1157.59 196.152C1157.59 195.48 1158.07 195 1158.72 195C1159.39 195 1159.87 195.48 1159.87 196.152C1159.87 196.8 1159.39 197.28 1158.72 197.28ZM1166 210.12C1163.6 210.12 1162.16 208.68 1162.04 206.76H1163.84C1163.96 207.72 1164.68 208.44 1166 208.44C1167.2 208.44 1167.92 207.72 1167.92 206.88C1167.92 204.48 1162.28 206.28 1162.28 202.2C1162.28 200.52 1163.72 199.08 1165.88 199.08C1168.16 199.08 1169.48 200.4 1169.6 202.32H1167.8C1167.68 201.36 1167.08 200.76 1165.88 200.76C1164.8 200.76 1164.08 201.48 1164.08 202.2C1164.08 204.6 1169.72 202.8 1169.72 206.88C1169.72 208.68 1168.28 210.12 1166 210.12ZM1176.54 210.12C1173.78 210.12 1171.5 207.84 1171.5 204.6C1171.5 201.36 1173.78 199.08 1176.54 199.08C1178.94 199.08 1180.74 200.88 1181.22 203.04H1179.42C1179.06 201.84 1177.98 200.76 1176.54 200.76C1174.86 200.76 1173.3 202.32 1173.3 204.6C1173.3 206.88 1174.86 208.44 1176.54 208.44C1177.98 208.44 1179.06 207.36 1179.42 206.16H1181.22C1180.74 208.32 1178.94 210.12 1176.54 210.12ZM1187.82 210.12C1185.06 210.12 1182.78 207.84 1182.78 204.6C1182.78 201.36 1185.06 199.08 1187.82 199.08C1190.58 199.08 1192.86 201.36 1192.86 204.6C1192.86 207.84 1190.58 210.12 1187.82 210.12ZM1187.82 208.44C1189.5 208.44 1191.06 206.88 1191.06 204.6C1191.06 202.32 1189.5 200.76 1187.82 200.76C1186.14 200.76 1184.58 202.32 1184.58 204.6C1184.58 206.88 1186.14 208.44 1187.82 208.44ZM1199.46 210.12C1197.18 210.12 1195.26 208.2 1195.26 205.44V199.2H1197.06V205.44C1197.06 207.24 1198.26 208.44 1199.7 208.44C1201.38 208.44 1202.58 207.24 1202.58 205.44V199.2H1204.38V210H1203.06L1202.58 208.8C1202.58 208.8 1201.5 210.12 1199.46 210.12ZM1207.5 210V199.2H1208.82L1209.3 200.4C1209.3 200.4 1210.38 199.08 1212.42 199.08C1214.7 199.08 1216.62 201 1216.62 203.76V210H1214.82V203.76C1214.82 201.96 1213.62 200.76 1212.18 200.76C1210.5 200.76 1209.3 201.96 1209.3 203.76V210H1207.5ZM1223.57 210.12C1221.89 210.12 1220.45 208.68 1220.45 206.52V200.88H1218.53V199.2H1219.37C1220.21 199.2 1220.69 198.72 1220.69 197.88V196.32H1222.25V199.2H1224.65V200.88H1222.25V206.52C1222.25 207.72 1222.97 208.44 1224.05 208.44C1224.41 208.44 1224.65 208.32 1224.65 208.32V209.88C1224.65 209.88 1224.29 210.12 1223.57 210.12Z" fill="#363636"/>
</svg>
