<svg width="1100" height="319" viewBox="0 0 1100 319" fill="none" xmlns="http://www.w3.org/2000/svg">
<g clip-path="url(#clip0_4375_35933)">
<path d="M204.865 68.5V53.38H206.425L212.065 65.5L217.705 53.38H219.265V68.5H217.345V58.3L212.665 68.5H211.465L206.785 58.3V68.5H204.865ZM227.06 68.62C224.3 68.62 222.02 66.34 222.02 63.1C222.02 59.86 224.3 57.58 227.06 57.58C229.82 57.58 232.1 59.86 232.1 63.1C232.1 66.34 229.82 68.62 227.06 68.62ZM227.06 66.94C228.74 66.94 230.3 65.38 230.3 63.1C230.3 60.82 228.74 59.26 227.06 59.26C225.38 59.26 223.82 60.82 223.82 63.1C223.82 65.38 225.38 66.94 227.06 66.94ZM234.505 68.5V57.7H235.825L236.305 58.9C236.305 58.9 237.385 57.58 239.425 57.58C241.705 57.58 243.625 59.5 243.625 62.26V68.5H241.825V62.26C241.825 60.46 240.625 59.26 239.185 59.26C237.505 59.26 236.305 60.46 236.305 62.26V68.5H234.505ZM250.583 68.62C248.903 68.62 247.463 67.18 247.463 65.02V59.38H245.543V57.7H246.383C247.223 57.7 247.703 57.22 247.703 56.38V54.82H249.263V57.7H251.663V59.38H249.263V65.02C249.263 66.22 249.983 66.94 251.062 66.94C251.423 66.94 251.663 66.82 251.663 66.82V68.38C251.663 68.38 251.303 68.62 250.583 68.62ZM254.43 68.5V53.38H256.23V59.02C256.23 59.02 257.31 57.58 259.35 57.58C261.63 57.58 263.55 59.5 263.55 62.26V68.5H261.75V62.26C261.75 60.46 260.55 59.26 259.11 59.26C257.43 59.26 256.23 60.46 256.23 62.26V68.5H254.43ZM266.664 68.5V53.38H268.464V68.5H266.664ZM272.901 72.46C272.541 72.46 272.181 72.34 272.181 72.34V70.9C273.261 70.9 273.717 70.42 274.101 69.46L274.581 68.26L270.381 57.7H272.301L275.541 65.98L278.781 57.7H280.701L276.021 69.46C275.157 71.62 274.317 72.46 272.901 72.46ZM287.662 72.34V57.7H288.982L289.462 58.9C289.462 58.9 290.542 57.58 292.702 57.58C295.462 57.58 297.742 59.86 297.742 63.1C297.742 66.34 295.462 68.62 292.702 68.62C290.542 68.62 289.462 67.18 289.462 67.18V72.34H287.662ZM292.582 66.94C294.382 66.94 295.942 65.38 295.942 63.1C295.942 60.82 294.382 59.26 292.582 59.26C290.782 59.26 289.222 60.82 289.222 63.1C289.222 65.38 290.782 66.94 292.582 66.94ZM300.25 68.5V53.38H302.05V68.5H300.25ZM308.407 68.62C306.247 68.62 304.807 67.18 304.807 65.38C304.807 63.34 306.247 61.9 311.647 61.9V61.3C311.647 60.22 310.687 59.26 309.367 59.26C308.047 59.26 307.447 59.86 307.207 60.82H305.287C305.527 59.02 306.967 57.58 309.367 57.58C311.767 57.58 313.447 59.26 313.447 61.3V68.5H312.127L311.647 67.3C311.647 67.3 310.567 68.62 308.407 68.62ZM308.407 66.94C310.327 66.94 311.647 65.62 311.647 64.42V63.58C307.327 63.58 306.607 64.3 306.607 65.5C306.607 66.22 307.327 66.94 308.407 66.94ZM316.443 68.5V57.7H317.763L318.243 58.9C318.243 58.9 319.323 57.58 321.363 57.58C323.643 57.58 325.563 59.5 325.563 62.26V68.5H323.763V62.26C323.763 60.46 322.563 59.26 321.123 59.26C319.443 59.26 318.243 60.46 318.243 62.26V68.5H316.443Z" fill="#363636"/>
<path d="M214.969 256.5L220.729 241.38H222.409L228.169 256.5H226.129L224.689 252.78H218.449L217.009 256.5H214.969ZM219.049 251.1H224.089L221.569 244.5L219.049 251.1ZM229.724 256.5V245.7H231.044L231.524 246.9C231.524 246.9 232.604 245.58 234.644 245.58C236.924 245.58 238.844 247.5 238.844 250.26V256.5H237.044V250.26C237.044 248.46 235.844 247.26 234.404 247.26C232.724 247.26 231.524 248.46 231.524 250.26V256.5H229.724ZM241.841 256.5V245.7H243.161L243.641 246.9C243.641 246.9 244.721 245.58 246.761 245.58C249.041 245.58 250.961 247.5 250.961 250.26V256.5H249.161V250.26C249.161 248.46 247.961 247.26 246.521 247.26C244.841 247.26 243.641 248.46 243.641 250.26V256.5H241.841ZM258.158 256.62C255.878 256.62 253.958 254.7 253.958 251.94V245.7H255.758V251.94C255.758 253.74 256.958 254.94 258.398 254.94C260.078 254.94 261.278 253.74 261.278 251.94V245.7H263.078V256.5H261.758L261.278 255.3C261.278 255.3 260.198 256.62 258.158 256.62ZM269.313 256.62C267.153 256.62 265.713 255.18 265.713 253.38C265.713 251.34 267.153 249.9 272.553 249.9V249.3C272.553 248.22 271.593 247.26 270.273 247.26C268.953 247.26 268.353 247.86 268.113 248.82H266.193C266.433 247.02 267.873 245.58 270.273 245.58C272.673 245.58 274.353 247.26 274.353 249.3V256.5H273.033L272.553 255.3C272.553 255.3 271.473 256.62 269.313 256.62ZM269.313 254.94C271.233 254.94 272.553 253.62 272.553 252.42V251.58C268.233 251.58 267.513 252.3 267.513 253.5C267.513 254.22 268.233 254.94 269.313 254.94ZM277.469 256.5V241.38H279.269V256.5H277.469ZM287.662 260.34V245.7H288.982L289.462 246.9C289.462 246.9 290.542 245.58 292.702 245.58C295.462 245.58 297.742 247.86 297.742 251.1C297.742 254.34 295.462 256.62 292.702 256.62C290.542 256.62 289.462 255.18 289.462 255.18V260.34H287.662ZM292.582 254.94C294.382 254.94 295.942 253.38 295.942 251.1C295.942 248.82 294.382 247.26 292.582 247.26C290.782 247.26 289.222 248.82 289.222 251.1C289.222 253.38 290.782 254.94 292.582 254.94ZM300.25 256.5V241.38H302.05V256.5H300.25ZM308.407 256.62C306.247 256.62 304.807 255.18 304.807 253.38C304.807 251.34 306.247 249.9 311.647 249.9V249.3C311.647 248.22 310.687 247.26 309.367 247.26C308.047 247.26 307.447 247.86 307.207 248.82H305.287C305.527 247.02 306.967 245.58 309.367 245.58C311.767 245.58 313.447 247.26 313.447 249.3V256.5H312.127L311.647 255.3C311.647 255.3 310.567 256.62 308.407 256.62ZM308.407 254.94C310.327 254.94 311.647 253.62 311.647 252.42V251.58C307.327 251.58 306.607 252.3 306.607 253.5C306.607 254.22 307.327 254.94 308.407 254.94ZM316.443 256.5V245.7H317.763L318.243 246.9C318.243 246.9 319.323 245.58 321.363 245.58C323.643 245.58 325.563 247.5 325.563 250.26V256.5H323.763V250.26C323.763 248.46 322.563 247.26 321.123 247.26C319.443 247.26 318.243 248.46 318.243 250.26V256.5H316.443Z" fill="#363636"/>
</g>
<g filter="url(#filter0_d_4375_35933)">
<g clip-path="url(#clip1_4375_35933)">
<mask id="path-4-inside-1_4375_35933" fill="white">
<path d="M355 1H745V126H355V1Z"/>
</mask>
<path d="M355 1H745V126H355V1Z" fill="white"/>
<path d="M355 1V2H745V1V0H355V1Z" fill="#E5E7EB" mask="url(#path-4-inside-1_4375_35933)"/>
<path d="M512.352 30.4545V15.9091H513.284V30.4545H512.352ZM514.824 20.7102C514.778 20.2519 514.583 19.8958 514.239 19.642C513.894 19.3883 513.426 19.2614 512.835 19.2614C512.434 19.2614 512.095 19.3182 511.818 19.4318C511.542 19.5417 511.33 19.6951 511.182 19.892C511.038 20.089 510.966 20.3125 510.966 20.5625C510.958 20.7708 511.002 20.9527 511.097 21.108C511.195 21.2633 511.33 21.3977 511.5 21.5114C511.67 21.6212 511.867 21.7178 512.091 21.8011C512.314 21.8807 512.553 21.9489 512.807 22.0057L513.852 22.2557C514.36 22.3693 514.826 22.5208 515.25 22.7102C515.674 22.8996 516.042 23.1326 516.352 23.4091C516.663 23.6856 516.903 24.0114 517.074 24.3864C517.248 24.7614 517.337 25.1913 517.341 25.6761C517.337 26.3883 517.155 27.0057 516.795 27.5284C516.439 28.0473 515.924 28.4508 515.25 28.7386C514.58 29.0227 513.771 29.1648 512.824 29.1648C511.884 29.1648 511.066 29.0208 510.369 28.733C509.676 28.4451 509.134 28.0189 508.744 27.4545C508.358 26.8864 508.155 26.1837 508.136 25.3466H510.517C510.544 25.7367 510.655 26.0625 510.852 26.3239C511.053 26.5814 511.32 26.7765 511.653 26.9091C511.991 27.0379 512.371 27.1023 512.795 27.1023C513.212 27.1023 513.574 27.0417 513.881 26.9205C514.191 26.7992 514.432 26.6307 514.602 26.4148C514.773 26.1989 514.858 25.9508 514.858 25.6705C514.858 25.4091 514.78 25.1894 514.625 25.0114C514.473 24.8333 514.25 24.6818 513.955 24.5568C513.663 24.4318 513.305 24.3182 512.881 24.2159L511.614 23.8977C510.633 23.6591 509.858 23.286 509.29 22.7784C508.722 22.2708 508.439 21.5871 508.443 20.7273C508.439 20.0227 508.627 19.4072 509.006 18.8807C509.388 18.3542 509.913 17.9432 510.58 17.6477C511.246 17.3523 512.004 17.2045 512.852 17.2045C513.716 17.2045 514.47 17.3523 515.114 17.6477C515.761 17.9432 516.265 18.3542 516.625 18.8807C516.985 19.4072 517.17 20.017 517.182 20.7102H514.824ZM523.99 17.3636V29H521.53V19.6989H521.462L518.797 21.3693V19.1875L521.678 17.3636H523.99ZM531.057 29.1591C530.208 29.1591 529.453 29.0133 528.79 28.7216C528.131 28.4261 527.61 28.0208 527.227 27.5057C526.848 26.9867 526.653 26.3883 526.642 25.7102H529.119C529.134 25.9943 529.227 26.2443 529.398 26.4602C529.572 26.6723 529.803 26.8371 530.091 26.9545C530.379 27.072 530.703 27.1307 531.062 27.1307C531.438 27.1307 531.769 27.0644 532.057 26.9318C532.345 26.7992 532.57 26.6155 532.733 26.3807C532.896 26.1458 532.977 25.875 532.977 25.5682C532.977 25.2576 532.89 24.983 532.716 24.7443C532.545 24.5019 532.299 24.3125 531.977 24.1761C531.659 24.0398 531.28 23.9716 530.841 23.9716H529.756V22.1648H530.841C531.212 22.1648 531.54 22.1004 531.824 21.9716C532.112 21.8428 532.335 21.6648 532.494 21.4375C532.653 21.2064 532.733 20.9375 532.733 20.6307C532.733 20.339 532.663 20.0833 532.523 19.8636C532.386 19.6402 532.193 19.4659 531.943 19.3409C531.697 19.2159 531.409 19.1534 531.08 19.1534C530.746 19.1534 530.441 19.214 530.165 19.3352C529.888 19.4527 529.667 19.6212 529.5 19.8409C529.333 20.0606 529.244 20.3182 529.233 20.6136H526.875C526.886 19.9432 527.078 19.3523 527.449 18.8409C527.82 18.3295 528.32 17.9299 528.949 17.642C529.581 17.3504 530.295 17.2045 531.091 17.2045C531.894 17.2045 532.597 17.3504 533.199 17.642C533.801 17.9337 534.269 18.3277 534.602 18.8239C534.939 19.3163 535.106 19.8693 535.102 20.483C535.106 21.1345 534.903 21.678 534.494 22.1136C534.089 22.5492 533.561 22.8258 532.909 22.9432V23.0341C533.765 23.1439 534.417 23.4413 534.864 23.9261C535.314 24.4072 535.538 25.0095 535.534 25.733C535.538 26.3958 535.347 26.9848 534.96 27.5C534.578 28.0152 534.049 28.4205 533.375 28.7159C532.701 29.0114 531.928 29.1591 531.057 29.1591ZM538.412 29.1477C538.037 29.1477 537.715 29.0152 537.446 28.75C537.181 28.4811 537.048 28.1591 537.048 27.7841C537.048 27.4129 537.181 27.0947 537.446 26.8295C537.715 26.5644 538.037 26.4318 538.412 26.4318C538.776 26.4318 539.094 26.5644 539.366 26.8295C539.639 27.0947 539.776 27.4129 539.776 27.7841C539.776 28.0341 539.711 28.2633 539.582 28.4716C539.457 28.6761 539.293 28.8409 539.088 28.9659C538.884 29.0871 538.658 29.1477 538.412 29.1477ZM541.564 26.9545V25.017L546.422 17.3636H548.092V20.0455H547.104L544.041 24.892V24.983H550.945V26.9545H541.564ZM547.149 29V26.3636L547.195 25.5057V17.3636H549.501V29H547.149ZM556.794 17.2045C557.393 17.2045 557.968 17.3049 558.521 17.5057C559.078 17.7064 559.574 18.0265 560.01 18.4659C560.449 18.9053 560.796 19.4886 561.05 20.2159C561.307 20.9394 561.438 21.8277 561.442 22.8807C561.442 23.8693 561.33 24.7519 561.107 25.5284C560.887 26.3011 560.571 26.9583 560.158 27.5C559.745 28.0417 559.247 28.4545 558.663 28.7386C558.08 29.0189 557.429 29.1591 556.709 29.1591C555.932 29.1591 555.247 29.0095 554.652 28.7102C554.057 28.4072 553.578 27.9962 553.214 27.4773C552.855 26.9545 552.637 26.3674 552.561 25.7159H554.987C555.082 26.1402 555.281 26.4697 555.584 26.7045C555.887 26.9356 556.262 27.0511 556.709 27.0511C557.466 27.0511 558.042 26.7216 558.436 26.0625C558.83 25.3996 559.029 24.4924 559.033 23.3409H558.953C558.779 23.6818 558.544 23.9754 558.249 24.2216C557.953 24.464 557.614 24.6515 557.232 24.7841C556.853 24.9167 556.449 24.983 556.021 24.983C555.336 24.983 554.724 24.822 554.186 24.5C553.648 24.178 553.224 23.7348 552.913 23.1705C552.603 22.6061 552.447 21.9621 552.447 21.2386C552.444 20.4583 552.624 19.7633 552.987 19.1534C553.351 18.5436 553.858 18.0663 554.51 17.7216C555.165 17.3731 555.927 17.2008 556.794 17.2045ZM556.811 19.1364C556.429 19.1364 556.088 19.2273 555.788 19.4091C555.493 19.5909 555.258 19.8352 555.084 20.142C554.913 20.4489 554.83 20.7917 554.834 21.1705C554.834 21.553 554.917 21.8977 555.084 22.2045C555.254 22.5076 555.485 22.75 555.777 22.9318C556.072 23.1098 556.41 23.1989 556.788 23.1989C557.072 23.1989 557.336 23.1458 557.578 23.0398C557.821 22.9337 558.031 22.7879 558.209 22.6023C558.391 22.4129 558.533 22.1951 558.635 21.9489C558.737 21.7027 558.788 21.4413 558.788 21.1648C558.785 20.7973 558.697 20.4602 558.527 20.1534C558.357 19.8466 558.122 19.6004 557.822 19.4148C557.523 19.2292 557.186 19.1364 556.811 19.1364Z" fill="#111827"/>
<path d="M567.777 16.8182L564.027 30.75H562.51L566.26 16.8182H567.777ZM569.22 29V20.2727H570.851V21.6932H570.959C571.141 21.2121 571.438 20.8371 571.851 20.5682C572.264 20.2955 572.758 20.1591 573.334 20.1591C573.917 20.1591 574.406 20.2955 574.8 20.5682C575.197 20.8409 575.491 21.2159 575.68 21.6932H575.771C575.98 21.2273 576.311 20.8561 576.766 20.5795C577.22 20.2992 577.762 20.1591 578.391 20.1591C579.182 20.1591 579.828 20.4072 580.328 20.9034C580.832 21.3996 581.084 22.1477 581.084 23.1477V29H579.385V23.3068C579.385 22.7159 579.224 22.2879 578.902 22.0227C578.58 21.7576 578.196 21.625 577.749 21.625C577.196 21.625 576.766 21.7955 576.459 22.1364C576.152 22.4735 575.999 22.9072 575.999 23.4375V29H574.305V23.1989C574.305 22.7254 574.158 22.3447 573.862 22.0568C573.567 21.7689 573.182 21.625 572.709 21.625C572.387 21.625 572.089 21.7102 571.817 21.8807C571.548 22.0473 571.33 22.2803 571.163 22.5795C571 22.8788 570.919 23.2254 570.919 23.6193V29H569.22ZM587.037 29.1761C586.219 29.1761 585.505 28.9886 584.895 28.6136C584.285 28.2386 583.812 27.714 583.474 27.0398C583.137 26.3655 582.969 25.5777 582.969 24.6761C582.969 23.7708 583.137 22.9792 583.474 22.3011C583.812 21.6231 584.285 21.0966 584.895 20.7216C585.505 20.3466 586.219 20.1591 587.037 20.1591C587.855 20.1591 588.569 20.3466 589.179 20.7216C589.789 21.0966 590.262 21.6231 590.599 22.3011C590.937 22.9792 591.105 23.7708 591.105 24.6761C591.105 25.5777 590.937 26.3655 590.599 27.0398C590.262 27.714 589.789 28.2386 589.179 28.6136C588.569 28.9886 587.855 29.1761 587.037 29.1761ZM587.043 27.75C587.573 27.75 588.012 27.6098 588.361 27.3295C588.709 27.0492 588.967 26.6761 589.134 26.2102C589.304 25.7443 589.389 25.2311 589.389 24.6705C589.389 24.1136 589.304 23.6023 589.134 23.1364C588.967 22.6667 588.709 22.2898 588.361 22.0057C588.012 21.7216 587.573 21.5795 587.043 21.5795C586.509 21.5795 586.065 21.7216 585.713 22.0057C585.365 22.2898 585.105 22.6667 584.935 23.1364C584.768 23.6023 584.685 24.1136 584.685 24.6705C584.685 25.2311 584.768 25.7443 584.935 26.2102C585.105 26.6761 585.365 27.0492 585.713 27.3295C586.065 27.6098 586.509 27.75 587.043 27.75Z" fill="#6B7280"/>
<rect x="380" y="45" width="340" height="61" rx="8" fill="#455EDE"/>
<path d="M516.648 69V57.3636H521.102C521.943 57.3636 522.642 57.4962 523.199 57.7614C523.759 58.0227 524.178 58.3807 524.455 58.8352C524.735 59.2898 524.875 59.8049 524.875 60.3807C524.875 60.8542 524.784 61.2595 524.602 61.5966C524.42 61.9299 524.176 62.2008 523.869 62.4091C523.562 62.6174 523.22 62.767 522.841 62.858V62.9716C523.254 62.9943 523.65 63.1212 524.028 63.3523C524.411 63.5795 524.723 63.9015 524.966 64.3182C525.208 64.7348 525.33 65.2386 525.33 65.8295C525.33 66.4318 525.184 66.9735 524.892 67.4545C524.6 67.9318 524.161 68.3087 523.574 68.5852C522.987 68.8617 522.248 69 521.358 69H516.648ZM518.756 67.2386H521.023C521.788 67.2386 522.339 67.0928 522.676 66.8011C523.017 66.5057 523.188 66.1269 523.188 65.6648C523.188 65.3201 523.102 65.0095 522.932 64.733C522.761 64.4527 522.519 64.233 522.205 64.0739C521.89 63.911 521.515 63.8295 521.08 63.8295H518.756V67.2386ZM518.756 62.3125H520.841C521.205 62.3125 521.532 62.2462 521.824 62.1136C522.116 61.9773 522.345 61.786 522.511 61.5398C522.682 61.2898 522.767 60.9943 522.767 60.6534C522.767 60.2027 522.608 59.8314 522.29 59.5398C521.975 59.2481 521.508 59.1023 520.886 59.1023H518.756V62.3125ZM532.635 65.3295V60.2727H534.692V69H532.697V67.4489H532.607C532.41 67.9375 532.086 68.3371 531.635 68.6477C531.188 68.9583 530.637 69.1136 529.982 69.1136C529.41 69.1136 528.904 68.9867 528.464 68.733C528.029 68.4754 527.688 68.1023 527.442 67.6136C527.196 67.1212 527.072 66.5265 527.072 65.8295V60.2727H529.129V65.5114C529.129 66.0644 529.281 66.5038 529.584 66.8295C529.887 67.1553 530.285 67.3182 530.777 67.3182C531.08 67.3182 531.374 67.2443 531.658 67.0966C531.942 66.9489 532.175 66.7292 532.357 66.4375C532.542 66.142 532.635 65.7727 532.635 65.3295ZM538.085 72.2727C537.805 72.2727 537.545 72.25 537.307 72.2045C537.072 72.1629 536.884 72.1136 536.744 72.0568L537.222 70.4545C537.521 70.5417 537.788 70.5833 538.023 70.5795C538.258 70.5758 538.464 70.5019 538.642 70.358C538.824 70.2178 538.977 69.983 539.102 69.6534L539.278 69.1818L536.114 60.2727H538.295L540.307 66.8636H540.398L542.415 60.2727H544.602L541.108 70.0568C540.945 70.5189 540.729 70.9148 540.46 71.2443C540.191 71.5777 539.862 71.8314 539.472 72.0057C539.085 72.1837 538.623 72.2727 538.085 72.2727ZM559.648 57.3636V69H557.773L552.29 61.0739H552.193V69H550.085V57.3636H551.972L557.449 65.2955H557.551V57.3636H559.648ZM565.661 69.1705C564.808 69.1705 564.07 68.983 563.445 68.608C562.82 68.233 562.335 67.7083 561.99 67.0341C561.649 66.3598 561.479 65.572 561.479 64.6705C561.479 63.7689 561.649 62.9792 561.99 62.3011C562.335 61.6231 562.82 61.0966 563.445 60.7216C564.07 60.3466 564.808 60.1591 565.661 60.1591C566.513 60.1591 567.251 60.3466 567.876 60.7216C568.501 61.0966 568.984 61.6231 569.325 62.3011C569.67 62.9792 569.842 63.7689 569.842 64.6705C569.842 65.572 569.67 66.3598 569.325 67.0341C568.984 67.7083 568.501 68.233 567.876 68.608C567.251 68.983 566.513 69.1705 565.661 69.1705ZM565.672 67.5227C566.134 67.5227 566.52 67.3958 566.831 67.142C567.142 66.8845 567.373 66.5398 567.524 66.108C567.679 65.6761 567.757 65.1951 567.757 64.6648C567.757 64.1307 567.679 63.6477 567.524 63.2159C567.373 62.7803 567.142 62.4337 566.831 62.1761C566.52 61.9186 566.134 61.7898 565.672 61.7898C565.198 61.7898 564.804 61.9186 564.49 62.1761C564.179 62.4337 563.946 62.7803 563.791 63.2159C563.64 63.6477 563.564 64.1307 563.564 64.6648C563.564 65.1951 563.64 65.6761 563.791 66.108C563.946 66.5398 564.179 66.8845 564.49 67.142C564.804 67.3958 565.198 67.5227 565.672 67.5227ZM573.139 69L570.673 60.2727H572.77L574.304 66.4091H574.384L575.952 60.2727H578.026L579.594 66.375H579.679L581.19 60.2727H583.293L580.821 69H578.679L577.043 63.1023H576.923L575.287 69H573.139Z" fill="white"/>
<path d="M491.119 93V82.8182H494.748C495.54 82.8182 496.196 82.9624 496.717 83.2507C497.237 83.5391 497.626 83.9335 497.885 84.4339C498.143 84.9311 498.273 85.4912 498.273 86.1143C498.273 86.7408 498.142 87.3042 497.88 87.8047C497.621 88.3018 497.23 88.6963 496.707 88.9879C496.186 89.2763 495.532 89.4205 494.743 89.4205H492.247V88.1179H494.604C495.104 88.1179 495.51 88.0317 495.822 87.8594C496.133 87.6837 496.362 87.4451 496.508 87.1435C496.654 86.8419 496.727 86.4988 496.727 86.1143C496.727 85.7299 496.654 85.3885 496.508 85.0902C496.362 84.7919 496.132 84.5582 495.817 84.3892C495.505 84.2202 495.094 84.1357 494.584 84.1357H492.655V93H491.119ZM501.441 82.8182V93H499.954V82.8182H501.441ZM508.278 89.8331V85.3636H509.77V93H508.308V91.6776H508.228C508.053 92.0852 507.771 92.425 507.383 92.6967C506.999 92.9652 506.52 93.0994 505.946 93.0994C505.456 93.0994 505.022 92.9917 504.644 92.7763C504.269 92.5575 503.974 92.2344 503.759 91.8068C503.547 91.3793 503.441 90.8506 503.441 90.2209V85.3636H504.927V90.0419C504.927 90.5623 505.071 90.9766 505.36 91.2848C505.648 91.593 506.023 91.7472 506.483 91.7472C506.762 91.7472 507.038 91.6776 507.314 91.5384C507.592 91.3991 507.822 91.1887 508.005 90.907C508.19 90.6252 508.281 90.2673 508.278 89.8331ZM517.489 87.228L516.142 87.4666C516.086 87.2943 515.996 87.1302 515.873 86.9744C515.754 86.8187 515.592 86.6911 515.386 86.5916C515.181 86.4922 514.924 86.4425 514.616 86.4425C514.195 86.4425 513.843 86.5369 513.562 86.7259C513.28 86.9115 513.139 87.1518 513.139 87.4467C513.139 87.7019 513.233 87.9074 513.422 88.0632C513.611 88.219 513.916 88.3466 514.337 88.446L515.55 88.7244C516.253 88.8868 516.777 89.1371 517.121 89.4751C517.466 89.8132 517.638 90.2524 517.638 90.7926C517.638 91.25 517.506 91.6577 517.241 92.0156C516.979 92.3703 516.613 92.6487 516.142 92.8509C515.675 93.053 515.133 93.1541 514.516 93.1541C513.661 93.1541 512.963 92.9718 512.423 92.6072C511.883 92.2393 511.551 91.7173 511.429 91.0412L512.866 90.8224C512.955 91.197 513.139 91.4804 513.417 91.6726C513.696 91.8615 514.059 91.956 514.506 91.956C514.993 91.956 515.383 91.8549 515.675 91.6527C515.966 91.4472 516.112 91.197 516.112 90.902C516.112 90.6634 516.023 90.4628 515.844 90.3004C515.668 90.138 515.398 90.0154 515.033 89.9325L513.741 89.6491C513.028 89.4867 512.501 89.2282 512.16 88.8736C511.822 88.5189 511.653 88.0698 511.653 87.5263C511.653 87.0755 511.778 86.6811 512.03 86.343C512.282 86.005 512.63 85.7415 513.074 85.5526C513.519 85.3603 514.027 85.2642 514.601 85.2642C515.426 85.2642 516.076 85.4432 516.55 85.8011C517.023 86.1558 517.337 86.6314 517.489 87.228ZM523.097 82.8182H524.961L528.203 90.733H528.322L531.564 82.8182H533.428V93H531.966V85.6321H531.872L528.869 92.9851H527.656L524.653 85.6271H524.559V93H523.097V82.8182ZM538.759 93.1541C538.043 93.1541 537.418 92.9901 536.885 92.6619C536.351 92.3338 535.937 91.8748 535.642 91.2848C535.347 90.6948 535.199 90.0054 535.199 89.2166C535.199 88.4245 535.347 87.7318 535.642 87.1385C535.937 86.5452 536.351 86.0845 536.885 85.7564C537.418 85.4283 538.043 85.2642 538.759 85.2642C539.475 85.2642 540.1 85.4283 540.633 85.7564C541.167 86.0845 541.581 86.5452 541.876 87.1385C542.171 87.7318 542.319 88.4245 542.319 89.2166C542.319 90.0054 542.171 90.6948 541.876 91.2848C541.581 91.8748 541.167 92.3338 540.633 92.6619C540.1 92.9901 539.475 93.1541 538.759 93.1541ZM538.764 91.9062C539.228 91.9062 539.612 91.7836 539.917 91.5384C540.222 91.2931 540.448 90.9666 540.593 90.5589C540.743 90.1513 540.817 89.7022 540.817 89.2116C540.817 88.7244 540.743 88.277 540.593 87.8693C540.448 87.4583 540.222 87.1286 539.917 86.88C539.612 86.6314 539.228 86.5071 538.764 86.5071C538.297 86.5071 537.909 86.6314 537.6 86.88C537.296 87.1286 537.069 87.4583 536.919 87.8693C536.774 88.277 536.701 88.7244 536.701 89.2116C536.701 89.7022 536.774 90.1513 536.919 90.5589C537.069 90.9666 537.296 91.2931 537.6 91.5384C537.909 91.7836 538.297 91.9062 538.764 91.9062ZM545.464 88.4659V93H543.978V85.3636H545.405V86.6065H545.499C545.675 86.2022 545.95 85.8774 546.324 85.6321C546.702 85.3868 547.178 85.2642 547.751 85.2642C548.272 85.2642 548.727 85.3736 549.118 85.5923C549.51 85.8078 549.813 86.1293 550.028 86.5568C550.244 86.9844 550.351 87.513 550.351 88.1428V93H548.865V88.3217C548.865 87.7682 548.721 87.3357 548.432 87.0241C548.144 86.7093 547.748 86.5518 547.244 86.5518C546.899 86.5518 546.593 86.6264 546.324 86.7756C546.059 86.9247 545.849 87.1435 545.693 87.4318C545.541 87.7169 545.464 88.0616 545.464 88.4659ZM555.91 85.3636V86.5568H551.738V85.3636H555.91ZM552.857 83.5341H554.344V90.7578C554.344 91.0462 554.387 91.2633 554.473 91.4091C554.559 91.5516 554.67 91.6494 554.806 91.7024C554.945 91.7521 555.096 91.777 555.258 91.777C555.378 91.777 555.482 91.7687 555.572 91.7521C555.661 91.7356 555.731 91.7223 555.78 91.7124L556.049 92.9403C555.963 92.9735 555.84 93.0066 555.681 93.0398C555.522 93.0762 555.323 93.0961 555.084 93.0994C554.693 93.1061 554.329 93.0365 553.991 92.8906C553.653 92.7448 553.379 92.5194 553.17 92.2145C552.961 91.9096 552.857 91.5268 552.857 91.0661V83.5341ZM559.205 88.4659V93H557.718V82.8182H559.185V86.6065H559.279C559.458 86.1955 559.732 85.8691 560.099 85.6271C560.467 85.3852 560.948 85.2642 561.541 85.2642C562.065 85.2642 562.522 85.3719 562.913 85.5874C563.308 85.8028 563.613 86.1243 563.828 86.5518C564.047 86.9761 564.156 87.5064 564.156 88.1428V93H562.67V88.3217C562.67 87.7616 562.526 87.3274 562.237 87.0192C561.949 86.7076 561.548 86.5518 561.034 86.5518C560.683 86.5518 560.368 86.6264 560.089 86.7756C559.814 86.9247 559.597 87.1435 559.438 87.4318C559.282 87.7169 559.205 88.0616 559.205 88.4659ZM567.626 82.8182V93H566.14V82.8182H567.626ZM570.566 95.8636C570.344 95.8636 570.142 95.8454 569.959 95.8089C569.777 95.7758 569.641 95.7393 569.552 95.6996L569.91 94.4815C570.181 94.5545 570.423 94.5859 570.635 94.576C570.848 94.5661 571.035 94.4865 571.197 94.3374C571.363 94.1882 571.509 93.9446 571.635 93.6065L571.819 93.0994L569.025 85.3636H570.616L572.55 91.2898H572.629L574.563 85.3636H576.159L573.012 94.0192C572.866 94.4169 572.68 94.7533 572.455 95.0284C572.23 95.3068 571.961 95.5156 571.65 95.6548C571.338 95.794 570.977 95.8636 570.566 95.8636ZM581.38 93V82.8182H585.01C585.802 82.8182 586.458 82.9624 586.978 83.2507C587.499 83.5391 587.888 83.9335 588.147 84.4339C588.405 84.9311 588.534 85.4912 588.534 86.1143C588.534 86.7408 588.404 87.3042 588.142 87.8047C587.883 88.3018 587.492 88.6963 586.968 88.9879C586.448 89.2763 585.793 89.4205 585.005 89.4205H582.509V88.1179H584.865C585.366 88.1179 585.772 88.0317 586.083 87.8594C586.395 87.6837 586.624 87.4451 586.77 87.1435C586.915 86.8419 586.988 86.4988 586.988 86.1143C586.988 85.7299 586.915 85.3885 586.77 85.0902C586.624 84.7919 586.393 84.5582 586.078 84.3892C585.767 84.2202 585.356 84.1357 584.846 84.1357H582.917V93H581.38ZM591.703 82.8182V93H590.216V82.8182H591.703ZM595.925 93.169C595.441 93.169 595.003 93.0795 594.612 92.9006C594.221 92.7183 593.911 92.4548 593.683 92.1101C593.457 91.7654 593.344 91.3428 593.344 90.8423C593.344 90.4115 593.427 90.0568 593.593 89.7784C593.759 89.5 593.982 89.2796 594.264 89.1172C594.546 88.9548 594.861 88.8321 595.209 88.7493C595.557 88.6664 595.911 88.6035 596.273 88.5604C596.73 88.5073 597.101 88.4643 597.386 88.4311C597.671 88.3946 597.879 88.3366 598.008 88.2571C598.137 88.1776 598.202 88.0483 598.202 87.8693V87.8345C598.202 87.4003 598.079 87.0639 597.834 86.8253C597.592 86.5866 597.231 86.4673 596.75 86.4673C596.25 86.4673 595.855 86.5784 595.567 86.8004C595.282 87.0192 595.085 87.2628 594.975 87.5312L593.578 87.2131C593.744 86.7491 593.986 86.3745 594.304 86.0895C594.625 85.8011 594.995 85.5923 595.413 85.4631C595.83 85.3305 596.269 85.2642 596.73 85.2642C597.035 85.2642 597.358 85.3007 597.7 85.3736C598.044 85.4432 598.366 85.5724 598.664 85.7614C598.966 85.9503 599.213 86.2204 599.405 86.5717C599.597 86.9197 599.693 87.3722 599.693 87.929V93H598.241V91.956H598.182C598.086 92.1482 597.942 92.3371 597.749 92.5227C597.557 92.7083 597.31 92.8625 597.009 92.9851C596.707 93.1077 596.346 93.169 595.925 93.169ZM596.248 91.9759C596.659 91.9759 597.01 91.8946 597.302 91.7322C597.597 91.5698 597.821 91.3577 597.973 91.0959C598.129 90.8307 598.207 90.5473 598.207 90.2457V89.2614C598.154 89.3144 598.051 89.3641 597.898 89.4105C597.749 89.4536 597.579 89.4917 597.386 89.5249C597.194 89.5547 597.007 89.5829 596.825 89.6094C596.642 89.6326 596.49 89.6525 596.367 89.669C596.079 89.7055 595.815 89.7668 595.577 89.853C595.341 89.9392 595.152 90.0634 595.01 90.2259C594.871 90.3849 594.801 90.5971 594.801 90.8622C594.801 91.2301 594.937 91.5085 595.209 91.6974C595.481 91.883 595.827 91.9759 596.248 91.9759ZM603.16 88.4659V93H601.673V85.3636H603.1V86.6065H603.194C603.37 86.2022 603.645 85.8774 604.02 85.6321C604.398 85.3868 604.873 85.2642 605.447 85.2642C605.967 85.2642 606.423 85.3736 606.814 85.5923C607.205 85.8078 607.508 86.1293 607.724 86.5568C607.939 86.9844 608.047 87.513 608.047 88.1428V93H606.56V88.3217C606.56 87.7682 606.416 87.3357 606.128 87.0241C605.839 86.7093 605.443 86.5518 604.939 86.5518C604.595 86.5518 604.288 86.6264 604.02 86.7756C603.755 86.9247 603.544 87.1435 603.388 87.4318C603.236 87.7169 603.16 88.0616 603.16 88.4659Z" fill="white"/>
</g>
</g>
<g filter="url(#filter1_d_4375_35933)">
<g clip-path="url(#clip2_4375_35933)">
<mask id="path-11-inside-2_4375_35933" fill="white">
<path d="M355 186H745V311H355V186Z"/>
</mask>
<path d="M355 186H745V311H355V186Z" fill="white"/>
<path d="M355 186V187H745V186V185H355V186Z" fill="#E5E7EB" mask="url(#path-11-inside-2_4375_35933)"/>
<path d="M432.71 215.455V200.909H433.642V215.455H432.71ZM435.625 205.42C435.564 204.883 435.314 204.466 434.875 204.17C434.436 203.871 433.883 203.722 433.216 203.722C432.739 203.722 432.326 203.797 431.977 203.949C431.629 204.097 431.358 204.301 431.165 204.562C430.975 204.82 430.881 205.114 430.881 205.443C430.881 205.72 430.945 205.958 431.074 206.159C431.206 206.36 431.379 206.528 431.591 206.665C431.807 206.797 432.038 206.909 432.284 207C432.53 207.087 432.767 207.159 432.994 207.216L434.131 207.511C434.502 207.602 434.883 207.725 435.273 207.881C435.663 208.036 436.025 208.241 436.358 208.494C436.691 208.748 436.96 209.062 437.165 209.438C437.373 209.812 437.477 210.261 437.477 210.784C437.477 211.443 437.307 212.028 436.966 212.54C436.629 213.051 436.138 213.455 435.494 213.75C434.854 214.045 434.08 214.193 433.17 214.193C432.299 214.193 431.545 214.055 430.909 213.778C430.273 213.502 429.775 213.11 429.415 212.602C429.055 212.091 428.856 211.485 428.818 210.784H430.58C430.614 211.205 430.75 211.555 430.989 211.835C431.231 212.112 431.54 212.318 431.915 212.455C432.294 212.587 432.708 212.653 433.159 212.653C433.655 212.653 434.097 212.576 434.483 212.42C434.873 212.261 435.18 212.042 435.403 211.761C435.627 211.477 435.739 211.146 435.739 210.767C435.739 210.422 435.64 210.14 435.443 209.92C435.25 209.701 434.987 209.519 434.653 209.375C434.324 209.231 433.951 209.104 433.534 208.994L432.159 208.619C431.227 208.366 430.489 207.992 429.943 207.5C429.402 207.008 429.131 206.356 429.131 205.545C429.131 204.875 429.313 204.29 429.676 203.79C430.04 203.29 430.532 202.902 431.153 202.625C431.775 202.345 432.475 202.205 433.256 202.205C434.044 202.205 434.739 202.343 435.341 202.619C435.947 202.896 436.424 203.277 436.773 203.761C437.121 204.242 437.303 204.795 437.318 205.42H435.625ZM443.831 202.364V214H442.07V204.125H442.001L439.217 205.943V204.261L442.121 202.364H443.831ZM451.041 214.159C450.522 214.152 450.011 214.057 449.507 213.875C449.007 213.693 448.553 213.39 448.143 212.966C447.734 212.542 447.407 211.972 447.161 211.256C446.918 210.54 446.797 209.646 446.797 208.574C446.797 207.559 446.897 206.657 447.098 205.869C447.303 205.081 447.596 204.417 447.979 203.875C448.361 203.33 448.823 202.915 449.365 202.631C449.907 202.347 450.515 202.205 451.189 202.205C451.882 202.205 452.498 202.341 453.036 202.614C453.573 202.886 454.009 203.263 454.342 203.744C454.679 204.225 454.893 204.773 454.984 205.386H453.251C453.134 204.902 452.901 204.506 452.553 204.199C452.204 203.892 451.75 203.739 451.189 203.739C450.337 203.739 449.672 204.11 449.195 204.852C448.721 205.595 448.482 206.627 448.479 207.949H448.564C448.765 207.619 449.011 207.339 449.303 207.108C449.598 206.873 449.928 206.693 450.291 206.568C450.659 206.439 451.045 206.375 451.45 206.375C452.125 206.375 452.734 206.54 453.28 206.869C453.829 207.195 454.267 207.646 454.592 208.222C454.918 208.797 455.081 209.456 455.081 210.199C455.081 210.941 454.912 211.614 454.575 212.216C454.242 212.818 453.772 213.295 453.166 213.648C452.56 213.996 451.852 214.167 451.041 214.159ZM451.036 212.682C451.482 212.682 451.882 212.572 452.234 212.352C452.587 212.133 452.865 211.837 453.07 211.466C453.274 211.095 453.376 210.68 453.376 210.222C453.376 209.775 453.276 209.367 453.075 209C452.878 208.633 452.606 208.341 452.257 208.125C451.912 207.909 451.518 207.801 451.075 207.801C450.738 207.801 450.426 207.866 450.138 207.994C449.854 208.123 449.604 208.301 449.388 208.528C449.172 208.756 449.001 209.017 448.876 209.312C448.755 209.604 448.695 209.913 448.695 210.239C448.695 210.674 448.795 211.078 448.996 211.449C449.2 211.82 449.479 212.119 449.831 212.347C450.187 212.57 450.589 212.682 451.036 212.682ZM461.565 202.364V214H459.804V204.125H459.736L456.952 205.943V204.261L459.855 202.364H461.565ZM465.183 214.108C464.873 214.108 464.606 213.998 464.382 213.778C464.159 213.555 464.047 213.286 464.047 212.972C464.047 212.661 464.159 212.396 464.382 212.176C464.606 211.953 464.873 211.841 465.183 211.841C465.494 211.841 465.761 211.953 465.984 212.176C466.208 212.396 466.32 212.661 466.32 212.972C466.32 213.18 466.267 213.371 466.161 213.545C466.058 213.716 465.922 213.852 465.751 213.955C465.581 214.057 465.392 214.108 465.183 214.108ZM472.114 214.159C471.299 214.159 470.58 214.019 469.955 213.739C469.333 213.458 468.847 213.072 468.494 212.58C468.142 212.087 467.968 211.527 467.972 210.898C467.968 210.405 468.068 209.953 468.273 209.54C468.481 209.123 468.763 208.777 469.119 208.5C469.475 208.22 469.873 208.042 470.312 207.966V207.898C469.733 207.758 469.269 207.447 468.92 206.966C468.572 206.485 468.4 205.932 468.403 205.307C468.4 204.712 468.557 204.182 468.875 203.716C469.197 203.246 469.638 202.877 470.199 202.608C470.759 202.339 471.398 202.205 472.114 202.205C472.822 202.205 473.455 202.341 474.011 202.614C474.572 202.883 475.013 203.252 475.335 203.722C475.657 204.187 475.82 204.716 475.824 205.307C475.82 205.932 475.642 206.485 475.29 206.966C474.938 207.447 474.479 207.758 473.915 207.898V207.966C474.35 208.042 474.742 208.22 475.091 208.5C475.443 208.777 475.723 209.123 475.932 209.54C476.144 209.953 476.252 210.405 476.256 210.898C476.252 211.527 476.074 212.087 475.722 212.58C475.369 213.072 474.881 213.458 474.256 213.739C473.634 214.019 472.92 214.159 472.114 214.159ZM472.114 212.722C472.595 212.722 473.011 212.642 473.364 212.483C473.716 212.32 473.989 212.095 474.182 211.807C474.375 211.515 474.473 211.174 474.477 210.784C474.473 210.379 474.367 210.021 474.159 209.71C473.955 209.4 473.676 209.155 473.324 208.977C472.972 208.799 472.568 208.71 472.114 208.71C471.655 208.71 471.248 208.799 470.892 208.977C470.536 209.155 470.256 209.4 470.051 209.71C469.847 210.021 469.746 210.379 469.75 210.784C469.746 211.174 469.839 211.515 470.028 211.807C470.222 212.095 470.496 212.32 470.852 212.483C471.208 212.642 471.629 212.722 472.114 212.722ZM472.114 207.307C472.5 207.307 472.843 207.229 473.142 207.074C473.441 206.919 473.676 206.703 473.847 206.426C474.021 206.15 474.11 205.826 474.114 205.455C474.11 205.091 474.023 204.773 473.852 204.5C473.686 204.227 473.453 204.017 473.153 203.869C472.854 203.718 472.508 203.642 472.114 203.642C471.712 203.642 471.36 203.718 471.057 203.869C470.758 204.017 470.525 204.227 470.358 204.5C470.191 204.773 470.11 205.091 470.114 205.455C470.11 205.826 470.193 206.15 470.364 206.426C470.534 206.703 470.769 206.919 471.068 207.074C471.371 207.229 471.72 207.307 472.114 207.307ZM482.223 214.159C481.409 214.159 480.689 214.019 480.064 213.739C479.443 213.458 478.956 213.072 478.604 212.58C478.251 212.087 478.077 211.527 478.081 210.898C478.077 210.405 478.178 209.953 478.382 209.54C478.59 209.123 478.873 208.777 479.229 208.5C479.585 208.22 479.982 208.042 480.422 207.966V207.898C479.842 207.758 479.378 207.447 479.03 206.966C478.681 206.485 478.509 205.932 478.513 205.307C478.509 204.712 478.666 204.182 478.984 203.716C479.306 203.246 479.748 202.877 480.308 202.608C480.869 202.339 481.507 202.205 482.223 202.205C482.931 202.205 483.564 202.341 484.121 202.614C484.681 202.883 485.123 203.252 485.445 203.722C485.767 204.187 485.929 204.716 485.933 205.307C485.929 205.932 485.751 206.485 485.399 206.966C485.047 207.447 484.589 207.758 484.024 207.898V207.966C484.46 208.042 484.852 208.22 485.2 208.5C485.553 208.777 485.833 209.123 486.041 209.54C486.253 209.953 486.361 210.405 486.365 210.898C486.361 211.527 486.183 212.087 485.831 212.58C485.479 213.072 484.99 213.458 484.365 213.739C483.744 214.019 483.03 214.159 482.223 214.159ZM482.223 212.722C482.704 212.722 483.121 212.642 483.473 212.483C483.825 212.32 484.098 212.095 484.291 211.807C484.484 211.515 484.583 211.174 484.587 210.784C484.583 210.379 484.477 210.021 484.268 209.71C484.064 209.4 483.786 209.155 483.433 208.977C483.081 208.799 482.678 208.71 482.223 208.71C481.765 208.71 481.357 208.799 481.001 208.977C480.645 209.155 480.365 209.4 480.161 209.71C479.956 210.021 479.856 210.379 479.859 210.784C479.856 211.174 479.948 211.515 480.138 211.807C480.331 212.095 480.606 212.32 480.962 212.483C481.318 212.642 481.738 212.722 482.223 212.722ZM482.223 207.307C482.609 207.307 482.952 207.229 483.251 207.074C483.551 206.919 483.786 206.703 483.956 206.426C484.13 206.15 484.219 205.826 484.223 205.455C484.219 205.091 484.132 204.773 483.962 204.5C483.795 204.227 483.562 204.017 483.263 203.869C482.964 203.718 482.617 203.642 482.223 203.642C481.821 203.642 481.469 203.718 481.166 203.869C480.867 204.017 480.634 204.227 480.467 204.5C480.301 204.773 480.219 205.091 480.223 205.455C480.219 205.826 480.303 206.15 480.473 206.426C480.643 206.703 480.878 206.919 481.178 207.074C481.481 207.229 481.829 207.307 482.223 207.307Z" fill="#4B5563"/>
<path d="M428 208.761H487.274V209.852H428V208.761Z" fill="#4B5563"/>
<path d="M500.852 215.455V200.909H501.784V215.455H500.852ZM503.324 205.71C503.278 205.252 503.083 204.896 502.739 204.642C502.394 204.388 501.926 204.261 501.335 204.261C500.934 204.261 500.595 204.318 500.318 204.432C500.042 204.542 499.83 204.695 499.682 204.892C499.538 205.089 499.466 205.312 499.466 205.562C499.458 205.771 499.502 205.953 499.597 206.108C499.695 206.263 499.83 206.398 500 206.511C500.17 206.621 500.367 206.718 500.591 206.801C500.814 206.881 501.053 206.949 501.307 207.006L502.352 207.256C502.86 207.369 503.326 207.521 503.75 207.71C504.174 207.9 504.542 208.133 504.852 208.409C505.163 208.686 505.403 209.011 505.574 209.386C505.748 209.761 505.837 210.191 505.841 210.676C505.837 211.388 505.655 212.006 505.295 212.528C504.939 213.047 504.424 213.451 503.75 213.739C503.08 214.023 502.271 214.165 501.324 214.165C500.384 214.165 499.566 214.021 498.869 213.733C498.176 213.445 497.634 213.019 497.244 212.455C496.858 211.886 496.655 211.184 496.636 210.347H499.017C499.044 210.737 499.155 211.062 499.352 211.324C499.553 211.581 499.82 211.777 500.153 211.909C500.491 212.038 500.871 212.102 501.295 212.102C501.712 212.102 502.074 212.042 502.381 211.92C502.691 211.799 502.932 211.631 503.102 211.415C503.273 211.199 503.358 210.951 503.358 210.67C503.358 210.409 503.28 210.189 503.125 210.011C502.973 209.833 502.75 209.682 502.455 209.557C502.163 209.432 501.805 209.318 501.381 209.216L500.114 208.898C499.133 208.659 498.358 208.286 497.79 207.778C497.222 207.271 496.939 206.587 496.943 205.727C496.939 205.023 497.127 204.407 497.506 203.881C497.888 203.354 498.413 202.943 499.08 202.648C499.746 202.352 500.504 202.205 501.352 202.205C502.216 202.205 502.97 202.352 503.614 202.648C504.261 202.943 504.765 203.354 505.125 203.881C505.485 204.407 505.67 205.017 505.682 205.71H503.324ZM512.49 202.364V214H510.03V204.699H509.962L507.297 206.369V204.188L510.178 202.364H512.49ZM519.557 214.159C518.708 214.159 517.953 214.013 517.29 213.722C516.631 213.426 516.11 213.021 515.727 212.506C515.348 211.987 515.153 211.388 515.142 210.71H517.619C517.634 210.994 517.727 211.244 517.898 211.46C518.072 211.672 518.303 211.837 518.591 211.955C518.879 212.072 519.203 212.131 519.562 212.131C519.938 212.131 520.269 212.064 520.557 211.932C520.845 211.799 521.07 211.616 521.233 211.381C521.396 211.146 521.477 210.875 521.477 210.568C521.477 210.258 521.39 209.983 521.216 209.744C521.045 209.502 520.799 209.312 520.477 209.176C520.159 209.04 519.78 208.972 519.341 208.972H518.256V207.165H519.341C519.712 207.165 520.04 207.1 520.324 206.972C520.612 206.843 520.835 206.665 520.994 206.438C521.153 206.206 521.233 205.938 521.233 205.631C521.233 205.339 521.163 205.083 521.023 204.864C520.886 204.64 520.693 204.466 520.443 204.341C520.197 204.216 519.909 204.153 519.58 204.153C519.246 204.153 518.941 204.214 518.665 204.335C518.388 204.453 518.167 204.621 518 204.841C517.833 205.061 517.744 205.318 517.733 205.614H515.375C515.386 204.943 515.578 204.352 515.949 203.841C516.32 203.33 516.82 202.93 517.449 202.642C518.081 202.35 518.795 202.205 519.591 202.205C520.394 202.205 521.097 202.35 521.699 202.642C522.301 202.934 522.769 203.328 523.102 203.824C523.439 204.316 523.606 204.869 523.602 205.483C523.606 206.134 523.403 206.678 522.994 207.114C522.589 207.549 522.061 207.826 521.409 207.943V208.034C522.265 208.144 522.917 208.441 523.364 208.926C523.814 209.407 524.038 210.009 524.034 210.733C524.038 211.396 523.847 211.985 523.46 212.5C523.078 213.015 522.549 213.42 521.875 213.716C521.201 214.011 520.428 214.159 519.557 214.159ZM530.053 214.159C529.25 214.159 528.534 214.011 527.905 213.716C527.28 213.42 526.784 213.013 526.416 212.494C526.049 211.975 525.857 211.381 525.842 210.71H528.229C528.255 211.161 528.445 211.527 528.797 211.807C529.149 212.087 529.568 212.227 530.053 212.227C530.439 212.227 530.78 212.142 531.075 211.972C531.375 211.797 531.607 211.557 531.774 211.25C531.945 210.939 532.03 210.583 532.03 210.182C532.03 209.773 531.943 209.413 531.768 209.102C531.598 208.792 531.361 208.549 531.058 208.375C530.755 208.201 530.409 208.112 530.018 208.108C529.678 208.108 529.346 208.178 529.024 208.318C528.706 208.458 528.458 208.65 528.28 208.892L526.092 208.5L526.643 202.364H533.757V204.375H528.672L528.371 207.29H528.439C528.643 207.002 528.952 206.763 529.365 206.574C529.778 206.384 530.24 206.29 530.751 206.29C531.452 206.29 532.077 206.455 532.626 206.784C533.176 207.114 533.609 207.566 533.928 208.142C534.246 208.714 534.403 209.373 534.399 210.119C534.403 210.903 534.221 211.6 533.854 212.21C533.49 212.816 532.981 213.294 532.325 213.642C531.674 213.987 530.916 214.159 530.053 214.159ZM537.178 214.148C536.803 214.148 536.481 214.015 536.212 213.75C535.946 213.481 535.814 213.159 535.814 212.784C535.814 212.413 535.946 212.095 536.212 211.83C536.481 211.564 536.803 211.432 537.178 211.432C537.541 211.432 537.859 211.564 538.132 211.83C538.405 212.095 538.541 212.413 538.541 212.784C538.541 213.034 538.477 213.263 538.348 213.472C538.223 213.676 538.058 213.841 537.854 213.966C537.649 214.087 537.424 214.148 537.178 214.148ZM544.497 202.205C545.096 202.205 545.671 202.305 546.224 202.506C546.781 202.706 547.277 203.027 547.713 203.466C548.152 203.905 548.499 204.489 548.753 205.216C549.01 205.939 549.141 206.828 549.145 207.881C549.145 208.869 549.033 209.752 548.81 210.528C548.59 211.301 548.274 211.958 547.861 212.5C547.448 213.042 546.95 213.455 546.366 213.739C545.783 214.019 545.132 214.159 544.412 214.159C543.635 214.159 542.95 214.009 542.355 213.71C541.76 213.407 541.281 212.996 540.918 212.477C540.558 211.955 540.34 211.367 540.264 210.716H542.69C542.785 211.14 542.984 211.47 543.287 211.705C543.59 211.936 543.965 212.051 544.412 212.051C545.17 212.051 545.745 211.722 546.139 211.062C546.533 210.4 546.732 209.492 546.736 208.341H546.656C546.482 208.682 546.247 208.975 545.952 209.222C545.656 209.464 545.317 209.652 544.935 209.784C544.556 209.917 544.152 209.983 543.724 209.983C543.039 209.983 542.427 209.822 541.889 209.5C541.351 209.178 540.927 208.735 540.616 208.17C540.306 207.606 540.151 206.962 540.151 206.239C540.147 205.458 540.327 204.763 540.69 204.153C541.054 203.544 541.562 203.066 542.213 202.722C542.868 202.373 543.63 202.201 544.497 202.205ZM544.514 204.136C544.132 204.136 543.791 204.227 543.491 204.409C543.196 204.591 542.961 204.835 542.787 205.142C542.616 205.449 542.533 205.792 542.537 206.17C542.537 206.553 542.62 206.898 542.787 207.205C542.957 207.508 543.188 207.75 543.48 207.932C543.776 208.11 544.113 208.199 544.491 208.199C544.776 208.199 545.039 208.146 545.281 208.04C545.524 207.934 545.734 207.788 545.912 207.602C546.094 207.413 546.236 207.195 546.338 206.949C546.44 206.703 546.491 206.441 546.491 206.165C546.488 205.797 546.401 205.46 546.23 205.153C546.06 204.847 545.825 204.6 545.526 204.415C545.226 204.229 544.889 204.136 544.514 204.136ZM555.19 214.159C554.315 214.159 553.537 214.017 552.855 213.733C552.177 213.445 551.645 213.053 551.259 212.557C550.872 212.061 550.679 211.498 550.679 210.869C550.679 210.384 550.789 209.939 551.009 209.534C551.232 209.125 551.535 208.786 551.918 208.517C552.3 208.244 552.728 208.07 553.202 207.994V207.915C552.58 207.79 552.077 207.489 551.69 207.011C551.304 206.53 551.111 205.972 551.111 205.335C551.111 204.733 551.287 204.197 551.639 203.727C551.991 203.254 552.474 202.883 553.088 202.614C553.705 202.341 554.406 202.205 555.19 202.205C555.974 202.205 556.673 202.341 557.287 202.614C557.904 202.886 558.389 203.259 558.741 203.733C559.094 204.203 559.272 204.737 559.276 205.335C559.272 205.975 559.075 206.534 558.685 207.011C558.295 207.489 557.795 207.79 557.185 207.915V207.994C557.651 208.07 558.073 208.244 558.452 208.517C558.834 208.786 559.137 209.125 559.361 209.534C559.588 209.939 559.704 210.384 559.707 210.869C559.704 211.498 559.509 212.061 559.122 212.557C558.736 213.053 558.202 213.445 557.52 213.733C556.842 214.017 556.065 214.159 555.19 214.159ZM555.19 212.352C555.58 212.352 555.921 212.282 556.213 212.142C556.505 211.998 556.732 211.801 556.895 211.551C557.062 211.297 557.145 211.006 557.145 210.676C557.145 210.339 557.06 210.042 556.889 209.784C556.719 209.523 556.488 209.318 556.196 209.17C555.904 209.019 555.569 208.943 555.19 208.943C554.815 208.943 554.48 209.019 554.185 209.17C553.889 209.318 553.656 209.523 553.486 209.784C553.319 210.042 553.236 210.339 553.236 210.676C553.236 211.006 553.317 211.297 553.48 211.551C553.643 211.801 553.872 211.998 554.168 212.142C554.463 212.282 554.804 212.352 555.19 212.352ZM555.19 207.153C555.516 207.153 555.806 207.087 556.06 206.955C556.313 206.822 556.512 206.638 556.656 206.403C556.8 206.169 556.872 205.898 556.872 205.591C556.872 205.288 556.8 205.023 556.656 204.795C556.512 204.564 556.315 204.384 556.065 204.256C555.815 204.123 555.524 204.057 555.19 204.057C554.861 204.057 554.569 204.123 554.315 204.256C554.062 204.384 553.863 204.564 553.719 204.795C553.579 205.023 553.509 205.288 553.509 205.591C553.509 205.898 553.58 206.169 553.724 206.403C553.868 206.638 554.067 206.822 554.321 206.955C554.575 207.087 554.865 207.153 555.19 207.153Z" fill="#111827"/>
<path d="M566.058 201.818L562.308 215.75H560.791L564.541 201.818H566.058ZM568.575 217.273C568.321 217.273 568.09 217.252 567.882 217.21C567.674 217.172 567.518 217.131 567.416 217.085L567.825 215.693C568.136 215.777 568.412 215.813 568.655 215.801C568.897 215.79 569.111 215.699 569.297 215.528C569.486 215.358 569.653 215.08 569.797 214.693L570.007 214.114L566.814 205.273H568.632L570.842 212.045H570.933L573.143 205.273H574.967L571.371 215.165C571.204 215.619 570.992 216.004 570.734 216.318C570.477 216.636 570.17 216.875 569.814 217.034C569.458 217.193 569.045 217.273 568.575 217.273ZM576.564 214V205.273H578.206V206.659H578.297C578.456 206.189 578.736 205.82 579.138 205.551C579.543 205.278 580.001 205.142 580.513 205.142C580.619 205.142 580.744 205.146 580.888 205.153C581.036 205.161 581.151 205.17 581.234 205.182V206.807C581.166 206.788 581.045 206.767 580.871 206.744C580.696 206.718 580.522 206.705 580.348 206.705C579.946 206.705 579.589 206.79 579.274 206.96C578.964 207.127 578.717 207.36 578.536 207.659C578.354 207.955 578.263 208.292 578.263 208.67V214H576.564Z" fill="#6B7280"/>
<path d="M587.568 208.182C587.568 206.761 587.756 205.456 588.131 204.267C588.509 203.074 589.072 201.972 589.818 200.96H591.756C591.468 201.335 591.199 201.795 590.949 202.341C590.699 202.883 590.481 203.477 590.295 204.125C590.114 204.769 589.97 205.437 589.864 206.131C589.761 206.824 589.71 207.508 589.71 208.182C589.71 209.08 589.799 209.989 589.977 210.909C590.159 211.83 590.403 212.684 590.71 213.472C591.021 214.256 591.369 214.898 591.756 215.398H589.818C589.072 214.386 588.509 213.286 588.131 212.097C587.756 210.903 587.568 209.598 587.568 208.182ZM599.768 205.562C599.715 205.066 599.492 204.68 599.098 204.403C598.708 204.127 598.2 203.989 597.575 203.989C597.136 203.989 596.759 204.055 596.445 204.188C596.13 204.32 595.89 204.5 595.723 204.727C595.556 204.955 595.471 205.214 595.467 205.506C595.467 205.748 595.522 205.958 595.632 206.136C595.746 206.314 595.899 206.466 596.092 206.591C596.286 206.712 596.5 206.814 596.734 206.898C596.969 206.981 597.206 207.051 597.445 207.108L598.536 207.381C598.975 207.483 599.397 207.621 599.803 207.795C600.212 207.97 600.577 208.189 600.899 208.455C601.225 208.72 601.482 209.04 601.672 209.415C601.861 209.79 601.956 210.229 601.956 210.733C601.956 211.415 601.782 212.015 601.433 212.534C601.085 213.049 600.581 213.453 599.922 213.744C599.267 214.032 598.473 214.176 597.541 214.176C596.636 214.176 595.85 214.036 595.183 213.756C594.52 213.475 594.001 213.066 593.626 212.528C593.255 211.991 593.054 211.335 593.024 210.562H595.098C595.128 210.968 595.253 211.305 595.473 211.574C595.693 211.843 595.979 212.044 596.331 212.176C596.687 212.309 597.085 212.375 597.524 212.375C597.982 212.375 598.384 212.307 598.729 212.17C599.077 212.03 599.35 211.837 599.547 211.591C599.744 211.341 599.844 211.049 599.848 210.716C599.844 210.413 599.755 210.163 599.581 209.966C599.407 209.765 599.162 209.598 598.848 209.466C598.537 209.33 598.174 209.208 597.757 209.102L596.433 208.761C595.475 208.515 594.717 208.142 594.161 207.642C593.607 207.138 593.331 206.47 593.331 205.636C593.331 204.951 593.517 204.35 593.888 203.835C594.263 203.32 594.772 202.92 595.416 202.636C596.06 202.348 596.789 202.205 597.604 202.205C598.429 202.205 599.153 202.348 599.774 202.636C600.399 202.92 600.89 203.316 601.246 203.824C601.602 204.328 601.786 204.907 601.797 205.562H599.768ZM606.256 214.176C605.703 214.176 605.205 214.078 604.761 213.881C604.322 213.68 603.973 213.384 603.716 212.994C603.462 212.604 603.335 212.123 603.335 211.551C603.335 211.059 603.426 210.652 603.608 210.33C603.79 210.008 604.038 209.75 604.352 209.557C604.667 209.364 605.021 209.218 605.415 209.119C605.813 209.017 606.223 208.943 606.648 208.898C607.159 208.845 607.574 208.797 607.892 208.756C608.21 208.71 608.441 208.642 608.585 208.551C608.733 208.456 608.807 208.311 608.807 208.114V208.08C608.807 207.652 608.68 207.32 608.426 207.085C608.172 206.85 607.807 206.733 607.33 206.733C606.826 206.733 606.426 206.843 606.131 207.062C605.839 207.282 605.642 207.542 605.54 207.841L603.619 207.568C603.771 207.038 604.021 206.595 604.369 206.239C604.718 205.879 605.144 205.61 605.648 205.432C606.152 205.25 606.708 205.159 607.318 205.159C607.739 205.159 608.157 205.208 608.574 205.307C608.991 205.405 609.371 205.568 609.716 205.795C610.061 206.019 610.337 206.324 610.545 206.71C610.758 207.097 610.864 207.58 610.864 208.159V214H608.886V212.801H608.818C608.693 213.044 608.517 213.271 608.29 213.483C608.066 213.691 607.784 213.86 607.443 213.989C607.106 214.114 606.71 214.176 606.256 214.176ZM606.79 212.665C607.203 212.665 607.561 212.583 607.864 212.42C608.167 212.254 608.4 212.034 608.562 211.761C608.729 211.489 608.812 211.191 608.812 210.869V209.841C608.748 209.894 608.638 209.943 608.483 209.989C608.331 210.034 608.161 210.074 607.972 210.108C607.782 210.142 607.595 210.172 607.409 210.199C607.223 210.225 607.063 210.248 606.926 210.267C606.619 210.309 606.345 210.377 606.102 210.472C605.86 210.566 605.669 210.699 605.528 210.869C605.388 211.036 605.318 211.252 605.318 211.517C605.318 211.896 605.456 212.182 605.733 212.375C606.009 212.568 606.362 212.665 606.79 212.665ZM620.415 205.273L617.307 214H615.034L611.926 205.273H614.119L616.125 211.756H616.216L618.227 205.273H620.415ZM625.405 214.17C624.53 214.17 623.774 213.989 623.138 213.625C622.505 213.258 622.018 212.739 621.678 212.068C621.337 211.394 621.166 210.6 621.166 209.688C621.166 208.79 621.337 208.002 621.678 207.324C622.022 206.642 622.503 206.112 623.121 205.733C623.738 205.35 624.464 205.159 625.297 205.159C625.835 205.159 626.342 205.246 626.82 205.42C627.301 205.591 627.725 205.856 628.092 206.216C628.464 206.576 628.755 207.034 628.967 207.591C629.179 208.144 629.286 208.803 629.286 209.568V210.199H622.132V208.812H627.314C627.31 208.419 627.225 208.068 627.058 207.761C626.892 207.451 626.659 207.206 626.359 207.028C626.064 206.85 625.719 206.761 625.325 206.761C624.905 206.761 624.536 206.864 624.217 207.068C623.899 207.269 623.651 207.534 623.473 207.864C623.299 208.189 623.21 208.547 623.206 208.938V210.148C623.206 210.655 623.299 211.091 623.484 211.455C623.67 211.814 623.929 212.091 624.263 212.284C624.596 212.473 624.986 212.568 625.433 212.568C625.732 212.568 626.003 212.527 626.246 212.443C626.488 212.356 626.698 212.229 626.876 212.062C627.054 211.896 627.189 211.689 627.28 211.443L629.2 211.659C629.079 212.167 628.848 212.61 628.507 212.989C628.17 213.364 627.738 213.655 627.212 213.864C626.685 214.068 626.083 214.17 625.405 214.17ZM639.705 202.364V214H637.597V204.415H637.528L634.807 206.153V204.222L637.699 202.364H639.705ZM646.92 214.159C646.364 214.155 645.82 214.059 645.29 213.869C644.759 213.676 644.282 213.364 643.858 212.932C643.434 212.496 643.097 211.919 642.847 211.199C642.597 210.475 642.473 209.58 642.477 208.511C642.477 207.515 642.583 206.627 642.795 205.847C643.008 205.066 643.312 204.407 643.71 203.869C644.108 203.328 644.587 202.915 645.148 202.631C645.712 202.347 646.343 202.205 647.04 202.205C647.771 202.205 648.419 202.348 648.983 202.636C649.551 202.924 650.009 203.318 650.358 203.818C650.706 204.314 650.922 204.875 651.006 205.5H648.932C648.826 205.053 648.608 204.697 648.278 204.432C647.953 204.163 647.54 204.028 647.04 204.028C646.233 204.028 645.612 204.379 645.176 205.08C644.744 205.78 644.527 206.742 644.523 207.966H644.602C644.788 207.633 645.028 207.347 645.324 207.108C645.619 206.869 645.953 206.686 646.324 206.557C646.699 206.424 647.095 206.358 647.511 206.358C648.193 206.358 648.805 206.521 649.347 206.847C649.892 207.172 650.324 207.621 650.642 208.193C650.96 208.761 651.117 209.413 651.114 210.148C651.117 210.913 650.943 211.6 650.591 212.21C650.239 212.816 649.748 213.294 649.119 213.642C648.491 213.991 647.758 214.163 646.92 214.159ZM646.909 212.455C647.322 212.455 647.691 212.354 648.017 212.153C648.343 211.953 648.6 211.682 648.79 211.341C648.979 211 649.072 210.617 649.068 210.193C649.072 209.777 648.981 209.4 648.795 209.062C648.614 208.725 648.362 208.458 648.04 208.261C647.718 208.064 647.35 207.966 646.938 207.966C646.631 207.966 646.345 208.025 646.08 208.142C645.814 208.259 645.583 208.422 645.386 208.631C645.189 208.835 645.034 209.074 644.92 209.347C644.811 209.616 644.754 209.903 644.75 210.21C644.754 210.616 644.848 210.989 645.034 211.33C645.22 211.67 645.475 211.943 645.801 212.148C646.127 212.352 646.496 212.455 646.909 212.455ZM659.256 211.818V211.205C659.256 210.754 659.35 210.339 659.54 209.96C659.733 209.581 660.013 209.277 660.381 209.045C660.748 208.814 661.193 208.699 661.716 208.699C662.254 208.699 662.705 208.814 663.068 209.045C663.432 209.273 663.706 209.576 663.892 209.955C664.081 210.333 664.176 210.75 664.176 211.205V211.818C664.176 212.269 664.081 212.684 663.892 213.062C663.703 213.441 663.424 213.746 663.057 213.977C662.693 214.208 662.246 214.324 661.716 214.324C661.186 214.324 660.737 214.208 660.369 213.977C660.002 213.746 659.723 213.441 659.534 213.062C659.348 212.684 659.256 212.269 659.256 211.818ZM660.739 211.205V211.818C660.739 212.117 660.811 212.392 660.955 212.642C661.098 212.892 661.352 213.017 661.716 213.017C662.083 213.017 662.335 212.894 662.472 212.648C662.612 212.398 662.682 212.121 662.682 211.818V211.205C662.682 210.902 662.616 210.625 662.483 210.375C662.35 210.121 662.095 209.994 661.716 209.994C661.36 209.994 661.108 210.121 660.96 210.375C660.813 210.625 660.739 210.902 660.739 211.205ZM653.341 205.159V204.545C653.341 204.091 653.438 203.674 653.631 203.295C653.824 202.917 654.104 202.614 654.472 202.386C654.839 202.155 655.284 202.04 655.807 202.04C656.341 202.04 656.79 202.155 657.153 202.386C657.521 202.614 657.797 202.917 657.983 203.295C658.169 203.674 658.261 204.091 658.261 204.545V205.159C658.261 205.614 658.167 206.03 657.977 206.409C657.792 206.784 657.515 207.085 657.148 207.312C656.78 207.54 656.333 207.653 655.807 207.653C655.273 207.653 654.822 207.54 654.455 207.312C654.091 207.085 653.814 206.782 653.625 206.403C653.436 206.025 653.341 205.61 653.341 205.159ZM654.835 204.545V205.159C654.835 205.462 654.905 205.739 655.045 205.989C655.189 206.235 655.443 206.358 655.807 206.358C656.17 206.358 656.42 206.235 656.557 205.989C656.697 205.739 656.767 205.462 656.767 205.159V204.545C656.767 204.242 656.701 203.966 656.568 203.716C656.436 203.462 656.182 203.335 655.807 203.335C655.447 203.335 655.195 203.462 655.051 203.716C654.907 203.97 654.835 204.246 654.835 204.545ZM653.989 214L661.989 202.364H663.409L655.409 214H653.989ZM670.227 208.182C670.227 209.598 670.038 210.903 669.659 212.097C669.284 213.286 668.723 214.386 667.977 215.398H666.04C666.331 215.023 666.6 214.564 666.847 214.023C667.097 213.481 667.313 212.886 667.494 212.239C667.68 211.591 667.824 210.92 667.926 210.227C668.032 209.534 668.085 208.852 668.085 208.182C668.085 207.284 667.994 206.375 667.812 205.455C667.634 204.534 667.39 203.68 667.08 202.892C666.773 202.104 666.426 201.46 666.04 200.96H667.977C668.723 201.972 669.284 203.074 669.659 204.267C670.038 205.456 670.227 206.761 670.227 208.182Z" fill="#15803D"/>
<rect x="380" y="230" width="340" height="61" rx="8" fill="#455EDE"/>
<path d="M516.648 254V242.364H521.102C521.943 242.364 522.642 242.496 523.199 242.761C523.759 243.023 524.178 243.381 524.455 243.835C524.735 244.29 524.875 244.805 524.875 245.381C524.875 245.854 524.784 246.259 524.602 246.597C524.42 246.93 524.176 247.201 523.869 247.409C523.562 247.617 523.22 247.767 522.841 247.858V247.972C523.254 247.994 523.65 248.121 524.028 248.352C524.411 248.58 524.723 248.902 524.966 249.318C525.208 249.735 525.33 250.239 525.33 250.83C525.33 251.432 525.184 251.973 524.892 252.455C524.6 252.932 524.161 253.309 523.574 253.585C522.987 253.862 522.248 254 521.358 254H516.648ZM518.756 252.239H521.023C521.788 252.239 522.339 252.093 522.676 251.801C523.017 251.506 523.188 251.127 523.188 250.665C523.188 250.32 523.102 250.009 522.932 249.733C522.761 249.453 522.519 249.233 522.205 249.074C521.89 248.911 521.515 248.83 521.08 248.83H518.756V252.239ZM518.756 247.312H520.841C521.205 247.312 521.532 247.246 521.824 247.114C522.116 246.977 522.345 246.786 522.511 246.54C522.682 246.29 522.767 245.994 522.767 245.653C522.767 245.203 522.608 244.831 522.29 244.54C521.975 244.248 521.508 244.102 520.886 244.102H518.756V247.312ZM532.635 250.33V245.273H534.692V254H532.697V252.449H532.607C532.41 252.937 532.086 253.337 531.635 253.648C531.188 253.958 530.637 254.114 529.982 254.114C529.41 254.114 528.904 253.987 528.464 253.733C528.029 253.475 527.688 253.102 527.442 252.614C527.196 252.121 527.072 251.527 527.072 250.83V245.273H529.129V250.511C529.129 251.064 529.281 251.504 529.584 251.83C529.887 252.155 530.285 252.318 530.777 252.318C531.08 252.318 531.374 252.244 531.658 252.097C531.942 251.949 532.175 251.729 532.357 251.438C532.542 251.142 532.635 250.773 532.635 250.33ZM538.085 257.273C537.805 257.273 537.545 257.25 537.307 257.205C537.072 257.163 536.884 257.114 536.744 257.057L537.222 255.455C537.521 255.542 537.788 255.583 538.023 255.58C538.258 255.576 538.464 255.502 538.642 255.358C538.824 255.218 538.977 254.983 539.102 254.653L539.278 254.182L536.114 245.273H538.295L540.307 251.864H540.398L542.415 245.273H544.602L541.108 255.057C540.945 255.519 540.729 255.915 540.46 256.244C540.191 256.578 539.862 256.831 539.472 257.006C539.085 257.184 538.623 257.273 538.085 257.273ZM559.648 242.364V254H557.773L552.29 246.074H552.193V254H550.085V242.364H551.972L557.449 250.295H557.551V242.364H559.648ZM565.661 254.17C564.808 254.17 564.07 253.983 563.445 253.608C562.82 253.233 562.335 252.708 561.99 252.034C561.649 251.36 561.479 250.572 561.479 249.67C561.479 248.769 561.649 247.979 561.99 247.301C562.335 246.623 562.82 246.097 563.445 245.722C564.07 245.347 564.808 245.159 565.661 245.159C566.513 245.159 567.251 245.347 567.876 245.722C568.501 246.097 568.984 246.623 569.325 247.301C569.67 247.979 569.842 248.769 569.842 249.67C569.842 250.572 569.67 251.36 569.325 252.034C568.984 252.708 568.501 253.233 567.876 253.608C567.251 253.983 566.513 254.17 565.661 254.17ZM565.672 252.523C566.134 252.523 566.52 252.396 566.831 252.142C567.142 251.884 567.373 251.54 567.524 251.108C567.679 250.676 567.757 250.195 567.757 249.665C567.757 249.131 567.679 248.648 567.524 248.216C567.373 247.78 567.142 247.434 566.831 247.176C566.52 246.919 566.134 246.79 565.672 246.79C565.198 246.79 564.804 246.919 564.49 247.176C564.179 247.434 563.946 247.78 563.791 248.216C563.64 248.648 563.564 249.131 563.564 249.665C563.564 250.195 563.64 250.676 563.791 251.108C563.946 251.54 564.179 251.884 564.49 252.142C564.804 252.396 565.198 252.523 565.672 252.523ZM573.139 254L570.673 245.273H572.77L574.304 251.409H574.384L575.952 245.273H578.026L579.594 251.375H579.679L581.19 245.273H583.293L580.821 254H578.679L577.043 248.102H576.923L575.287 254H573.139Z" fill="white"/>
<path d="M495.619 278V267.818H499.248C500.04 267.818 500.696 267.962 501.217 268.251C501.737 268.539 502.126 268.933 502.385 269.434C502.643 269.931 502.773 270.491 502.773 271.114C502.773 271.741 502.642 272.304 502.38 272.805C502.121 273.302 501.73 273.696 501.207 273.988C500.686 274.276 500.032 274.42 499.243 274.42H496.747V273.118H499.104C499.604 273.118 500.01 273.032 500.322 272.859C500.633 272.684 500.862 272.445 501.008 272.143C501.154 271.842 501.227 271.499 501.227 271.114C501.227 270.73 501.154 270.388 501.008 270.09C500.862 269.792 500.632 269.558 500.317 269.389C500.005 269.22 499.594 269.136 499.084 269.136H497.155V278H495.619ZM505.941 267.818V278H504.454V267.818H505.941ZM512.778 274.833V270.364H514.27V278H512.808V276.678H512.728C512.553 277.085 512.271 277.425 511.883 277.697C511.499 277.965 511.02 278.099 510.446 278.099C509.956 278.099 509.522 277.992 509.144 277.776C508.769 277.558 508.474 277.234 508.259 276.807C508.047 276.379 507.941 275.851 507.941 275.221V270.364H509.427V275.042C509.427 275.562 509.571 275.977 509.86 276.285C510.148 276.593 510.523 276.747 510.983 276.747C511.262 276.747 511.538 276.678 511.814 276.538C512.092 276.399 512.322 276.189 512.505 275.907C512.69 275.625 512.781 275.267 512.778 274.833ZM521.989 272.228L520.642 272.467C520.586 272.294 520.496 272.13 520.373 271.974C520.254 271.819 520.092 271.691 519.886 271.592C519.681 271.492 519.424 271.442 519.116 271.442C518.695 271.442 518.343 271.537 518.062 271.726C517.78 271.911 517.639 272.152 517.639 272.447C517.639 272.702 517.733 272.907 517.922 273.063C518.111 273.219 518.416 273.347 518.837 273.446L520.05 273.724C520.753 273.887 521.277 274.137 521.621 274.475C521.966 274.813 522.138 275.252 522.138 275.793C522.138 276.25 522.006 276.658 521.741 277.016C521.479 277.37 521.113 277.649 520.642 277.851C520.175 278.053 519.633 278.154 519.016 278.154C518.161 278.154 517.463 277.972 516.923 277.607C516.383 277.239 516.051 276.717 515.929 276.041L517.366 275.822C517.455 276.197 517.639 276.48 517.917 276.673C518.196 276.862 518.559 276.956 519.006 276.956C519.493 276.956 519.883 276.855 520.175 276.653C520.466 276.447 520.612 276.197 520.612 275.902C520.612 275.663 520.523 275.463 520.344 275.3C520.168 275.138 519.898 275.015 519.533 274.933L518.241 274.649C517.528 274.487 517.001 274.228 516.66 273.874C516.322 273.519 516.153 273.07 516.153 272.526C516.153 272.076 516.278 271.681 516.53 271.343C516.782 271.005 517.13 270.741 517.574 270.553C518.019 270.36 518.527 270.264 519.101 270.264C519.926 270.264 520.576 270.443 521.05 270.801C521.523 271.156 521.837 271.631 521.989 272.228ZM528.457 278H526.827L530.491 267.818H532.265L535.93 278H534.299L531.42 269.668H531.341L528.457 278ZM528.731 274.013H534.02V275.305H528.731V274.013ZM538.767 273.466V278H537.281V270.364H538.707V271.607H538.802C538.978 271.202 539.253 270.877 539.627 270.632C540.005 270.387 540.481 270.264 541.054 270.264C541.574 270.264 542.03 270.374 542.421 270.592C542.812 270.808 543.116 271.129 543.331 271.557C543.546 271.984 543.654 272.513 543.654 273.143V278H542.168V273.322C542.168 272.768 542.023 272.336 541.735 272.024C541.447 271.709 541.051 271.552 540.547 271.552C540.202 271.552 539.896 271.626 539.627 271.776C539.362 271.925 539.152 272.143 538.996 272.432C538.843 272.717 538.767 273.062 538.767 273.466ZM547.134 273.466V278H545.648V270.364H547.075V271.607H547.169C547.345 271.202 547.62 270.877 547.994 270.632C548.372 270.387 548.848 270.264 549.421 270.264C549.942 270.264 550.397 270.374 550.788 270.592C551.179 270.808 551.483 271.129 551.698 271.557C551.914 271.984 552.021 272.513 552.021 273.143V278H550.535V273.322C550.535 272.768 550.391 272.336 550.102 272.024C549.814 271.709 549.418 271.552 548.914 271.552C548.569 271.552 548.263 271.626 547.994 271.776C547.729 271.925 547.519 272.143 547.363 272.432C547.21 272.717 547.134 273.062 547.134 273.466ZM558.852 274.833V270.364H560.344V278H558.882V276.678H558.803C558.627 277.085 558.345 277.425 557.957 277.697C557.573 277.965 557.094 278.099 556.521 278.099C556.03 278.099 555.596 277.992 555.218 277.776C554.844 277.558 554.549 277.234 554.333 276.807C554.121 276.379 554.015 275.851 554.015 275.221V270.364H555.501V275.042C555.501 275.562 555.646 275.977 555.934 276.285C556.222 276.593 556.597 276.747 557.058 276.747C557.336 276.747 557.613 276.678 557.888 276.538C558.166 276.399 558.397 276.189 558.579 275.907C558.764 275.625 558.856 275.267 558.852 274.833ZM564.563 278.169C564.079 278.169 563.642 278.08 563.251 277.901C562.86 277.718 562.55 277.455 562.321 277.11C562.096 276.765 561.983 276.343 561.983 275.842C561.983 275.411 562.066 275.057 562.232 274.778C562.397 274.5 562.621 274.28 562.903 274.117C563.185 273.955 563.499 273.832 563.847 273.749C564.195 273.666 564.55 273.603 564.911 273.56C565.369 273.507 565.74 273.464 566.025 273.431C566.31 273.395 566.517 273.337 566.646 273.257C566.776 273.178 566.84 273.048 566.84 272.869V272.835C566.84 272.4 566.718 272.064 566.472 271.825C566.231 271.587 565.869 271.467 565.389 271.467C564.888 271.467 564.494 271.578 564.205 271.8C563.92 272.019 563.723 272.263 563.614 272.531L562.217 272.213C562.383 271.749 562.624 271.375 562.943 271.089C563.264 270.801 563.634 270.592 564.051 270.463C564.469 270.33 564.908 270.264 565.369 270.264C565.674 270.264 565.997 270.301 566.338 270.374C566.683 270.443 567.004 270.572 567.303 270.761C567.604 270.95 567.851 271.22 568.044 271.572C568.236 271.92 568.332 272.372 568.332 272.929V278H566.88V276.956H566.82C566.724 277.148 566.58 277.337 566.388 277.523C566.196 277.708 565.949 277.862 565.647 277.985C565.346 278.108 564.984 278.169 564.563 278.169ZM564.887 276.976C565.298 276.976 565.649 276.895 565.941 276.732C566.235 276.57 566.459 276.358 566.612 276.096C566.767 275.831 566.845 275.547 566.845 275.246V274.261C566.792 274.314 566.69 274.364 566.537 274.411C566.388 274.454 566.217 274.492 566.025 274.525C565.833 274.555 565.646 274.583 565.463 274.609C565.281 274.633 565.128 274.652 565.006 274.669C564.718 274.705 564.454 274.767 564.215 274.853C563.98 274.939 563.791 275.063 563.649 275.226C563.509 275.385 563.44 275.597 563.44 275.862C563.44 276.23 563.576 276.509 563.847 276.697C564.119 276.883 564.466 276.976 564.887 276.976ZM571.798 267.818V278H570.312V267.818H571.798ZM577.623 278V267.818H581.252C582.044 267.818 582.7 267.962 583.221 268.251C583.741 268.539 584.13 268.933 584.389 269.434C584.647 269.931 584.777 270.491 584.777 271.114C584.777 271.741 584.646 272.304 584.384 272.805C584.125 273.302 583.734 273.696 583.211 273.988C582.69 274.276 582.036 274.42 581.247 274.42H578.751V273.118H581.108C581.608 273.118 582.014 273.032 582.326 272.859C582.637 272.684 582.866 272.445 583.012 272.143C583.158 271.842 583.23 271.499 583.23 271.114C583.23 270.73 583.158 270.388 583.012 270.09C582.866 269.792 582.636 269.558 582.321 269.389C582.009 269.22 581.598 269.136 581.088 269.136H579.159V278H577.623ZM587.945 267.818V278H586.458V267.818H587.945ZM592.167 278.169C591.683 278.169 591.246 278.08 590.854 277.901C590.463 277.718 590.153 277.455 589.925 277.11C589.699 276.765 589.587 276.343 589.587 275.842C589.587 275.411 589.67 275.057 589.835 274.778C590.001 274.5 590.225 274.28 590.506 274.117C590.788 273.955 591.103 273.832 591.451 273.749C591.799 273.666 592.154 273.603 592.515 273.56C592.972 273.507 593.344 273.464 593.629 273.431C593.914 273.395 594.121 273.337 594.25 273.257C594.379 273.178 594.444 273.048 594.444 272.869V272.835C594.444 272.4 594.321 272.064 594.076 271.825C593.834 271.587 593.473 271.467 592.992 271.467C592.492 271.467 592.097 271.578 591.809 271.8C591.524 272.019 591.327 272.263 591.217 272.531L589.82 272.213C589.986 271.749 590.228 271.375 590.546 271.089C590.868 270.801 591.237 270.592 591.655 270.463C592.072 270.33 592.512 270.264 592.972 270.264C593.277 270.264 593.6 270.301 593.942 270.374C594.286 270.443 594.608 270.572 594.906 270.761C595.208 270.95 595.455 271.22 595.647 271.572C595.839 271.92 595.935 272.372 595.935 272.929V278H594.484V276.956H594.424C594.328 277.148 594.184 277.337 593.991 277.523C593.799 277.708 593.552 277.862 593.251 277.985C592.949 278.108 592.588 278.169 592.167 278.169ZM592.49 276.976C592.901 276.976 593.252 276.895 593.544 276.732C593.839 276.57 594.063 276.358 594.215 276.096C594.371 275.831 594.449 275.547 594.449 275.246V274.261C594.396 274.314 594.293 274.364 594.141 274.411C593.991 274.454 593.821 274.492 593.629 274.525C593.436 274.555 593.249 274.583 593.067 274.609C592.884 274.633 592.732 274.652 592.609 274.669C592.321 274.705 592.058 274.767 591.819 274.853C591.584 274.939 591.395 275.063 591.252 275.226C591.113 275.385 591.043 275.597 591.043 275.862C591.043 276.23 591.179 276.509 591.451 276.697C591.723 276.883 592.069 276.976 592.49 276.976ZM599.402 273.466V278H597.915V270.364H599.342V271.607H599.437C599.612 271.202 599.887 270.877 600.262 270.632C600.64 270.387 601.115 270.264 601.689 270.264C602.209 270.264 602.665 270.374 603.056 270.592C603.447 270.808 603.75 271.129 603.966 271.557C604.181 271.984 604.289 272.513 604.289 273.143V278H602.802V273.322C602.802 272.768 602.658 272.336 602.37 272.024C602.081 271.709 601.685 271.552 601.182 271.552C600.837 271.552 600.53 271.626 600.262 271.776C599.997 271.925 599.786 272.143 599.631 272.432C599.478 272.717 599.402 273.062 599.402 273.466Z" fill="white"/>
</g>
</g>
<rect x="599" y="24" width="235" height="1" fill="#727272"/>
<path d="M843.979 31V15.88H849.139C851.779 15.88 853.939 18.04 853.939 20.56C853.939 23.08 851.779 25.24 849.139 25.24H845.899V31H843.979ZM845.899 23.56H849.139C850.699 23.56 852.019 22.24 852.019 20.56C852.019 18.88 850.699 17.56 849.139 17.56H845.899V23.56ZM856.462 31V20.2H857.782L858.262 21.4C858.262 21.4 859.342 20.08 861.382 20.08H861.622V21.88H861.142C859.462 21.88 858.262 23.08 858.262 24.88V31H856.462ZM863.658 31V20.2H865.458V31H863.658ZM864.546 18.28C863.898 18.28 863.418 17.8 863.418 17.152C863.418 16.48 863.898 16 864.546 16C865.218 16 865.698 16.48 865.698 17.152C865.698 17.8 865.218 18.28 864.546 18.28ZM872.9 31.12C870.14 31.12 867.86 28.84 867.86 25.6C867.86 22.36 870.14 20.08 872.9 20.08C875.3 20.08 877.1 21.88 877.58 24.04H875.78C875.42 22.84 874.34 21.76 872.9 21.76C871.22 21.76 869.66 23.32 869.66 25.6C869.66 27.88 871.22 29.44 872.9 29.44C874.34 29.44 875.42 28.36 875.78 27.16H877.58C877.1 29.32 875.3 31.12 872.9 31.12ZM884.293 31.12C881.413 31.12 879.133 28.84 879.133 25.6C879.133 22.36 881.533 20.08 884.173 20.08C886.813 20.08 889.093 22.24 889.093 25.48C889.093 26.08 888.973 26.44 888.973 26.44H881.053C881.173 28 882.613 29.44 884.293 29.44C885.733 29.44 886.573 28.6 886.933 28.12H888.853C888.133 29.68 886.693 31.12 884.293 31.12ZM881.053 24.88H887.293C887.053 23.08 885.733 21.76 884.173 21.76C882.613 21.76 881.293 23.08 881.053 24.88Z" fill="#363636"/>
<rect x="691" y="208" width="154" height="1" fill="#727272"/>
<path d="M859 215.12C855.88 215.12 853.96 213.2 853.96 210.56H855.88C855.88 212.36 856.96 213.44 859 213.44C861.04 213.44 862.12 212.36 862.12 211.04C862.12 207.32 854.08 209.24 854.08 203.84C854.08 201.8 856.12 199.76 859 199.76C861.64 199.76 863.68 201.8 863.68 204.32H861.76C861.76 202.64 860.56 201.44 859 201.44C857.2 201.44 856 202.64 856 203.84C856 207.56 864.04 205.64 864.04 211.04C864.04 213.2 862.12 215.12 859 215.12ZM869.563 215.12C867.403 215.12 865.963 213.68 865.963 211.88C865.963 209.84 867.403 208.4 872.803 208.4V207.8C872.803 206.72 871.843 205.76 870.523 205.76C869.203 205.76 868.603 206.36 868.363 207.32H866.443C866.683 205.52 868.123 204.08 870.523 204.08C872.923 204.08 874.603 205.76 874.603 207.8V215H873.283L872.803 213.8C872.803 213.8 871.723 215.12 869.563 215.12ZM869.563 213.44C871.483 213.44 872.803 212.12 872.803 210.92V210.08C868.483 210.08 867.763 210.8 867.763 212C867.763 212.72 868.483 213.44 869.563 213.44ZM880.365 215L876.045 204.2H877.965L881.205 212.48L884.445 204.2H886.365L882.045 215H880.365ZM888.169 215V204.2H889.969V215H888.169ZM889.057 202.28C888.409 202.28 887.929 201.8 887.929 201.152C887.929 200.48 888.409 200 889.057 200C889.729 200 890.209 200.48 890.209 201.152C890.209 201.8 889.729 202.28 889.057 202.28ZM893.091 215V204.2H894.411L894.891 205.4C894.891 205.4 895.971 204.08 898.011 204.08C900.291 204.08 902.211 206 902.211 208.76V215H900.411V208.76C900.411 206.96 899.211 205.76 897.771 205.76C896.091 205.76 894.891 206.96 894.891 208.76V215H893.091ZM909.528 219.08C907.008 219.08 905.568 217.64 905.088 215.84H906.888C907.248 216.68 907.968 217.4 909.528 217.4C911.328 217.4 912.528 216.2 912.528 214.64V213.2C912.528 213.2 911.568 214.64 909.408 214.64C906.648 214.64 904.488 212.48 904.488 209.36C904.488 206.24 906.648 204.08 909.408 204.08C911.568 204.08 912.528 205.4 912.528 205.4L913.008 204.2H914.328V214.64C914.328 217.16 912.408 219.08 909.528 219.08ZM909.528 212.96C911.328 212.96 912.768 211.52 912.768 209.36C912.768 207.2 911.328 205.76 909.528 205.76C907.728 205.76 906.288 207.2 906.288 209.36C906.288 211.52 907.728 212.96 909.528 212.96ZM920.683 215.12C918.283 215.12 916.843 213.68 916.723 211.76H918.523C918.643 212.72 919.363 213.44 920.683 213.44C921.883 213.44 922.603 212.72 922.603 211.88C922.603 209.48 916.963 211.28 916.963 207.2C916.963 205.52 918.403 204.08 920.563 204.08C922.843 204.08 924.163 205.4 924.283 207.32H922.483C922.363 206.36 921.763 205.76 920.563 205.76C919.483 205.76 918.763 206.48 918.763 207.2C918.763 209.6 924.403 207.8 924.403 211.88C924.403 213.68 922.963 215.12 920.683 215.12Z" fill="#363636"/>
<defs>
<filter id="filter0_d_4375_35933" x="351" y="1" width="398" height="133" filterUnits="userSpaceOnUse" color-interpolation-filters="sRGB">
<feFlood flood-opacity="0" result="BackgroundImageFix"/>
<feColorMatrix in="SourceAlpha" type="matrix" values="0 0 0 0 0 0 0 0 0 0 0 0 0 0 0 0 0 0 127 0" result="hardAlpha"/>
<feOffset dy="4"/>
<feGaussianBlur stdDeviation="2"/>
<feComposite in2="hardAlpha" operator="out"/>
<feColorMatrix type="matrix" values="0 0 0 0 0 0 0 0 0 0 0 0 0 0 0 0 0 0 0.15 0"/>
<feBlend mode="normal" in2="BackgroundImageFix" result="effect1_dropShadow_4375_35933"/>
<feBlend mode="normal" in="SourceGraphic" in2="effect1_dropShadow_4375_35933" result="shape"/>
</filter>
<filter id="filter1_d_4375_35933" x="351" y="186" width="398" height="133" filterUnits="userSpaceOnUse" color-interpolation-filters="sRGB">
<feFlood flood-opacity="0" result="BackgroundImageFix"/>
<feColorMatrix in="SourceAlpha" type="matrix" values="0 0 0 0 0 0 0 0 0 0 0 0 0 0 0 0 0 0 127 0" result="hardAlpha"/>
<feOffset dy="4"/>
<feGaussianBlur stdDeviation="2"/>
<feComposite in2="hardAlpha" operator="out"/>
<feColorMatrix type="matrix" values="0 0 0 0 0 0 0 0 0 0 0 0 0 0 0 0 0 0 0.15 0"/>
<feBlend mode="normal" in2="BackgroundImageFix" result="effect1_dropShadow_4375_35933"/>
<feBlend mode="normal" in="SourceGraphic" in2="effect1_dropShadow_4375_35933" result="shape"/>
</filter>
<clipPath id="clip0_4375_35933">
<rect width="235" height="305" fill="white" transform="translate(120 6)"/>
</clipPath>
<clipPath id="clip1_4375_35933">
<rect x="355" y="1" width="390" height="125" rx="10" fill="white"/>
</clipPath>
<clipPath id="clip2_4375_35933">
<rect x="355" y="186" width="390" height="125" rx="10" fill="white"/>
</clipPath>
</defs>
</svg>
