<svg width="720" height="500" viewBox="0 0 720 500" fill="none" xmlns="http://www.w3.org/2000/svg">
<g clip-path="url(#clip0_497:573)">
<rect width="720" height="500" fill="#FDB913"/>
<path d="M124.917 56H394.081C401.22 56 408.067 58.8361 413.116 63.8843C418.164 68.9325 421 75.7793 421 82.9186V352.083C421 359.222 418.164 366.068 413.116 371.116C408.068 376.164 401.222 379 394.083 379H124.913C117.775 379 110.93 376.165 105.883 371.117C100.835 366.07 98 359.225 98 352.087V82.9167C98 79.3819 98.6962 75.8818 100.049 72.6161C101.402 69.3504 103.384 66.3831 105.884 63.8837C108.383 61.3843 111.351 59.4016 114.616 58.0489C117.882 56.6962 121.382 56 124.917 56Z" fill="#FDB913"/>
<path d="M278.349 220.987L278.322 163.156L293.417 159.574V167.155C293.417 167.155 297.328 157.185 306.402 154.871C307.757 154.434 309.199 154.338 310.6 154.589V169.344C307.883 169.38 305.197 169.939 302.691 170.991C297.113 173.194 294.306 178 294.306 185.338L294.315 217.27L278.349 220.987Z" fill="#231F20"/>
<path d="M198.773 239.792C198.773 239.792 196.319 236.111 196.319 223.1V194.305L188.551 196.153V184.291L196.336 182.453V169.522L212.387 165.731V178.661L223.729 175.967V187.816L212.387 190.508C212.387 190.508 212.369 214.099 212.387 219.829C212.387 233.16 215.925 235.72 215.925 235.72L198.773 239.792Z" fill="#231F20"/>
<path d="M225.406 205.388C225.406 195.107 226.871 187.607 230.014 181.85C233.753 175.02 239.886 170.568 248.82 168.534C266.429 164.53 272.784 174.952 272.538 188.929C272.444 193.927 272.467 196.362 272.467 196.362L241.444 203.654V204.154C241.444 213.919 243.491 218.553 249.679 217.24C255.025 216.112 256.512 212.764 256.934 208.623C257.003 207.955 257.036 206.257 257.036 206.257L271.569 202.775C271.569 202.775 271.604 203.964 271.583 205.3C271.456 210.849 269.842 224.614 249.643 229.39C230.509 233.932 225.406 222.247 225.406 205.388ZM249.464 179.306C244.324 180.473 241.628 185.515 241.511 193.87L257.117 190.153C257.144 189.775 257.147 188.942 257.144 187.637C257.117 181.33 255.167 178.001 249.464 179.306Z" fill="#231F20"/>
<path d="M364.927 171.57C364.326 153.957 368.895 139.979 388.545 135.527C401.069 132.682 405.826 135.94 408.234 139.089C410.55 142.093 411.444 146.146 411.444 151.822L411.458 152.864L396.084 156.517C396.084 156.517 396.073 154.445 396.073 154.377C396.084 147.646 394.213 145.087 389.324 146.311C383.51 147.771 381.162 153.289 381.162 164.261C381.162 168.156 381.179 168.855 381.179 169.38C381.179 180.53 382.703 185.634 389.403 184.232C395.215 183.031 396.011 177.927 396.105 173.452C396.117 172.75 396.146 170.501 396.146 170.501L411.496 166.874C411.496 166.874 411.511 168.008 411.511 169.269C411.473 183.89 403.767 193.104 389.33 196.464C369.44 201.127 365.545 189.633 364.927 171.57Z" fill="#231F20"/>
<path d="M311.782 196.228C311.782 182.831 319.63 178.594 331.443 173.707C342.065 169.313 342.295 167.132 342.339 163.313C342.399 160.099 340.908 157.35 335.62 158.699C333.856 159.054 332.265 159.994 331.103 161.368C329.941 162.741 329.277 164.466 329.219 166.264C329.132 167.251 329.099 168.242 329.119 169.233L314.225 172.75C314.125 169.782 314.472 166.815 315.254 163.95C317.635 155.939 324.7 150.549 336.896 147.727C352.741 144.076 358.024 151.029 358.043 161.845V187.459C358.043 199.847 360.342 201.662 360.342 201.662L345.72 205.122C344.914 203.432 344.258 201.675 343.761 199.87C343.761 199.87 340.559 207.936 329.518 210.531C317.923 213.265 311.782 206.079 311.782 196.228ZM342.238 177.934C339.773 179.662 337.172 181.186 334.459 182.49C329.585 184.871 327.382 187.808 327.382 192.333C327.382 196.251 329.81 198.824 334.221 197.734C338.953 196.541 342.238 192.126 342.238 185.991V177.934Z" fill="#231F20"/>
<path d="M114.848 280.331C113.179 280.329 111.542 279.877 110.108 279.023C108.675 278.168 107.498 276.943 106.702 275.477C105.906 274.01 105.52 272.356 105.585 270.688C105.65 269.021 106.163 267.402 107.071 266.001L107.174 265.867L107.349 265.821L129.181 260.667V277.247L128.842 277.326C123.889 278.518 117.97 279.874 116.751 280.133C116.125 280.266 115.487 280.332 114.848 280.331Z" fill="#231F20"/>
<path d="M114.848 301.541C112.391 301.541 110.035 300.567 108.296 298.831C106.558 297.094 105.58 294.739 105.578 292.283C105.573 290.493 106.092 288.741 107.071 287.242L107.174 287.087L107.349 287.042L129.181 281.891V298.471L128.842 298.559C123.889 299.747 117.97 301.119 116.751 301.362C116.124 301.484 115.487 301.543 114.848 301.541Z" fill="#231F20"/>
<path d="M114.848 322.792C112.39 322.79 110.034 321.814 108.296 320.077C106.558 318.339 105.581 315.983 105.578 313.526C105.571 311.736 106.09 309.983 107.071 308.485L107.175 308.318L129.181 303.132V319.712L128.842 319.8C123.611 321.059 117.803 322.372 116.751 322.604C116.125 322.729 115.487 322.792 114.848 322.792Z" fill="#231F20"/>
<path d="M112.272 260.014L112.266 167.243L129.18 163.246V256.015L112.272 260.014Z" fill="#231F20"/>
<path d="M154.401 252.122C154.401 249.354 153.302 246.7 151.345 244.743C149.388 242.786 146.733 241.686 143.966 241.686C141.198 241.686 138.544 242.786 136.587 244.743C134.63 246.7 133.53 249.354 133.53 252.122L133.547 338.829C133.557 346.317 136.534 353.496 141.827 358.792C147.12 364.089 154.297 367.071 161.785 367.085C169.684 367.085 191.325 367.047 191.325 367.047L191.334 330.874C191.34 311.111 191.344 290.994 191.344 290.536C191.346 288.287 190.794 286.072 189.735 284.088C188.676 282.104 187.144 280.413 185.275 279.163L158.947 261.282C158.947 261.282 158.941 300.103 158.941 301.887C158.941 302.482 158.704 303.053 158.283 303.474C157.862 303.895 157.291 304.132 156.696 304.132C156.1 304.132 155.529 303.895 155.108 303.474C154.687 303.053 154.451 302.482 154.451 301.887C154.451 301.451 154.401 257.485 154.401 252.122Z" fill="#231F20"/>
<path d="M168.495 187.429C165.295 188.171 162.294 189.596 159.696 191.604C157.098 193.613 154.964 196.159 153.44 199.068V192.548L138.21 196.152L138.227 237.789C140.899 236.733 143.811 236.436 146.64 236.93C149.47 237.425 152.108 238.693 154.263 240.593V213.709C154.263 207.269 157.467 202.125 162.046 201.116C165.49 200.36 168.366 201.592 168.366 207.726L168.378 246.95L184.419 243.189V201.695C184.419 191.635 180.545 184.603 168.495 187.429Z" fill="#231F20"/>
<path d="M401.564 128.054C399.602 128.055 397.684 127.475 396.052 126.386C394.42 125.298 393.148 123.749 392.396 121.938C391.645 120.126 391.447 118.131 391.829 116.207C392.211 114.283 393.156 112.516 394.542 111.128C395.929 109.741 397.696 108.796 399.62 108.413C401.544 108.031 403.539 108.227 405.351 108.978C407.163 109.729 408.712 111.001 409.801 112.632C410.891 114.264 411.471 116.181 411.471 118.143C411.468 120.77 410.424 123.289 408.566 125.147C406.709 127.005 404.191 128.05 401.564 128.054ZM401.564 109.47C399.849 109.47 398.172 109.978 396.746 110.93C395.32 111.883 394.208 113.237 393.552 114.821C392.895 116.405 392.723 118.149 393.057 119.831C393.391 121.513 394.217 123.058 395.429 124.271C396.641 125.484 398.186 126.31 399.868 126.645C401.55 126.98 403.294 126.809 404.878 126.153C406.463 125.497 407.817 124.386 408.77 122.96C409.724 121.534 410.233 119.858 410.233 118.143C410.231 115.844 409.317 113.64 407.692 112.014C406.067 110.388 403.863 109.473 401.564 109.47Z" fill="#231F20"/>
<path d="M397.953 112.234H402.227C402.644 112.19 403.067 112.24 403.462 112.381C403.858 112.522 404.217 112.75 404.512 113.049C404.807 113.348 405.031 113.71 405.168 114.107C405.304 114.505 405.348 114.928 405.299 115.345C405.299 116.914 404.602 118.121 403.282 118.327V118.35C404.483 118.472 405.114 119.134 405.176 120.836C405.199 121.604 405.21 122.556 405.247 123.296C405.247 123.505 405.3 123.71 405.4 123.892C405.501 124.075 405.645 124.23 405.82 124.342H403.637C403.429 124.022 403.315 123.649 403.311 123.267C403.244 122.544 403.261 121.861 403.228 120.982C403.196 119.662 402.791 119.085 401.465 119.085H399.884V124.342H397.953V112.234ZM401.43 117.626C401.693 117.65 401.957 117.616 402.205 117.525C402.452 117.435 402.676 117.29 402.861 117.102C403.046 116.915 403.187 116.688 403.274 116.439C403.36 116.19 403.391 115.925 403.362 115.663C403.362 114.372 402.804 113.693 401.532 113.693H399.884V117.626H401.43Z" fill="#231F20"/>
<path fill-rule="evenodd" clip-rule="evenodd" d="M466.652 252.68C467.188 253.713 467.626 254.234 468.392 254.748C470.513 256.171 472.339 256.185 474.898 254.797C477.869 253.185 482.964 250.768 485.63 249.704C509.509 240.177 536.325 241.14 559.251 252.348C561.034 253.22 563.209 254.322 564.085 254.797C566.644 256.185 568.47 256.171 570.591 254.748C571.352 254.237 571.793 253.715 572.31 252.715C573.143 251.1 573.213 249.857 572.568 248.132C571.929 246.425 570.718 245.46 566.507 243.303C554.427 237.114 542.752 233.719 528.517 232.255C525.197 231.914 513.545 231.915 510.36 232.258C495.89 233.814 484.255 237.219 472.274 243.403C467.323 245.959 466.228 247.103 466.032 249.92C465.945 251.171 466.003 251.429 466.652 252.68ZM476.879 272.015C477.94 275.855 481.723 277.323 485.42 275.328C496.637 269.278 506.046 266.657 517.703 266.336C529.491 266.011 540.657 268.575 550.92 273.963C552.496 274.791 554.073 275.616 554.423 275.796C555.421 276.31 557.308 276.364 558.559 275.914C559.991 275.399 560.892 274.621 561.633 273.26C562.144 272.32 562.245 271.889 562.243 270.636C562.239 267.403 560.974 266.208 554.006 262.853C543.075 257.589 531.724 255.013 519.492 255.018C510.425 255.023 502.164 256.377 493.794 259.23C487.543 261.36 479.776 265.124 478.227 266.773C476.91 268.174 476.384 270.222 476.879 272.015ZM487.584 292.923C488.117 294.416 488.942 295.408 490.239 296.116C491.794 296.964 493.848 296.994 495.39 296.189C501.261 293.126 502.573 292.529 505.54 291.571C512.631 289.281 519.826 288.744 527.03 289.966C532.572 290.906 536.078 292.222 543.593 296.184C544.456 296.638 544.934 296.742 546.142 296.734C548.779 296.717 550.728 295.225 551.477 292.648C552.104 290.491 551.228 288.029 549.327 286.604C547.914 285.546 543.123 283.114 540.09 281.915C526.933 276.716 511.402 276.79 498.386 282.114C495.361 283.352 491.019 285.585 489.656 286.605C487.702 288.067 486.815 290.771 487.584 292.923ZM497.593 312.352C498.399 314.81 500.517 316.376 503.034 316.376C504.462 316.376 505.467 315.996 507.082 314.846C509.284 313.277 513.096 311.736 515.817 311.314C517.742 311.015 521.573 311.008 523.222 311.3C526.093 311.808 529.572 313.239 532.085 314.944C533.785 316.097 534.569 316.386 535.995 316.384C537.615 316.381 539.1 315.683 540.238 314.391C542.194 312.168 541.962 308.57 539.737 306.616C536.838 304.07 531.068 301.413 526.074 300.323C523.468 299.754 515.517 299.753 512.909 300.322C508.926 301.19 504.663 302.935 501.435 305.017C498.453 306.941 497.603 308.108 497.487 310.44C497.449 311.199 497.497 312.06 497.593 312.352Z" fill="#231F20"/>
<rect x="416.242" y="358.242" width="206.517" height="459.159" rx="28.3043" fill="#1A1A1A"/>
<path d="M461 355H578V361.227C578 370.49 570.49 378 561.227 378H477.773C468.51 378 461 370.49 461 361.227V355Z" fill="#4F4F4F"/>
<rect x="416.242" y="358.242" width="206.517" height="459.159" rx="28.3043" stroke="#4F4F4F" stroke-width="10.4831"/>
</g>
<defs>
<clipPath id="clip0_497:573">
<rect width="720" height="500" fill="white"/>
</clipPath>
</defs>
</svg>
