<svg width="1920" height="1080" viewBox="0 0 1920 1080" fill="none" xmlns="http://www.w3.org/2000/svg">
<g clip-path="url(#clip0_518:524)">
<rect width="1920" height="1080" fill="#FDB913"/>
<path fill-rule="evenodd" clip-rule="evenodd" d="M641.778 434.927C640.851 437.852 640.698 439.643 641.167 442.03C642.468 448.64 645.849 452.073 653.21 454.256C661.76 456.793 675.772 461.786 682.727 464.774C745.039 491.546 793.262 543.362 815.119 607.03C816.819 611.982 818.821 618.095 819.569 620.615C821.752 627.977 825.185 631.357 831.796 632.658C834.169 633.125 835.963 632.975 838.793 632.071C843.36 630.613 845.809 628.426 847.823 624.004C849.815 619.63 849.356 615.57 845.525 603.692C834.536 569.616 819.093 541.508 795.27 512.223C789.716 505.394 767.978 483.664 761.399 478.362C731.505 454.273 703.453 438.922 669.567 428.109C655.567 423.642 651.39 423.732 645.77 428.621C643.274 430.792 642.9 431.382 641.778 434.927ZM624.791 490.068C619.607 499.21 623.926 509.004 634.541 512.18C666.748 521.817 689.187 534.479 711.531 555.624C734.124 577.005 750.169 602.614 759.262 631.806C760.659 636.291 762.061 640.771 762.378 641.762C763.279 644.581 766.698 648.201 769.872 649.696C773.504 651.406 776.634 651.636 780.556 650.479C783.263 649.68 784.255 649.062 786.588 646.723C792.611 640.686 792.482 636.096 785.743 616.841C775.172 586.633 758.805 560.655 735.977 537.849C719.056 520.945 701.123 508.062 680.189 497.77C664.555 490.085 643.048 482.617 637.081 482.803C632.013 482.962 627.212 485.799 624.791 490.068ZM605.758 549.033C603.968 552.813 603.656 556.202 604.756 559.943C606.074 564.426 609.85 568.312 614.226 569.686C630.891 574.924 634.453 576.258 641.775 580.005C659.271 588.961 673.694 601.379 684.851 617.096C693.434 629.187 697.519 638.182 704.149 659.589C704.91 662.045 705.609 663.131 707.876 665.369C712.826 670.257 719.246 671.108 725.448 667.7C730.641 664.846 733.601 658.619 732.711 652.416C732.05 647.806 727.651 634.333 724.228 626.439C709.386 592.201 680.276 563.369 646.068 549.022C638.116 545.687 625.853 541.755 621.408 541.115C615.036 540.198 608.337 543.587 605.758 549.033ZM588.186 603.944C585.105 610.034 586.134 616.904 590.83 621.6C593.494 624.264 596.078 625.43 601.236 626.296C608.27 627.478 618.254 631.712 624.116 635.999C628.264 639.034 635.423 646.166 637.954 649.787C642.361 656.09 646.183 665.249 647.69 673.115C648.709 678.438 649.633 680.439 652.298 683.094C655.324 686.111 659.396 687.58 663.928 687.291C671.723 686.795 678.003 679.65 677.496 671.855C676.837 661.699 671.032 645.979 663.751 634.632C659.951 628.71 645.121 613.878 639.195 610.073C630.147 604.264 618.942 599.567 609.036 597.429C599.886 595.455 596.122 596.048 591.556 600.18C590.07 601.525 588.553 603.219 588.186 603.944Z" fill="#231F20"/>
<g clip-path="url(#clip1_518:524)">
<rect x="399.219" y="559.083" width="446.297" height="992.275" rx="61.17" transform="rotate(45 399.219 559.083)" fill="#1A1A1A" stroke="#4F4F4F" stroke-width="22.66"/>
<path d="M472.57 622.515L651.362 801.307L641.846 810.823C627.691 824.978 604.74 824.978 590.584 810.823L463.055 683.293C448.899 669.138 448.899 646.186 463.055 632.031L472.57 622.515Z" fill="#4F4F4F"/>
</g>
<path fill-rule="evenodd" clip-rule="evenodd" d="M1277.51 640.547C1278.44 637.622 1278.59 635.832 1278.12 633.445C1276.82 626.834 1273.44 623.402 1266.08 621.218C1257.53 618.682 1243.52 613.689 1236.56 610.7C1174.25 583.929 1126.03 532.113 1104.17 468.445C1102.47 463.493 1100.47 457.379 1099.72 454.859C1097.54 447.498 1094.1 444.117 1087.49 442.817C1085.12 442.35 1083.33 442.5 1080.5 443.403C1075.93 444.861 1073.48 447.048 1071.47 451.471C1069.47 455.845 1069.93 459.905 1073.76 471.782C1084.75 505.858 1100.2 533.967 1124.02 563.252C1129.57 570.08 1151.31 591.811 1157.89 597.113C1187.78 621.201 1215.84 636.552 1249.72 647.365C1263.72 651.832 1267.9 651.742 1273.52 646.853C1276.02 644.682 1276.39 644.092 1277.51 640.547ZM1294.5 585.406C1299.68 576.265 1295.36 566.47 1284.75 563.294C1252.54 553.658 1230.1 540.995 1207.76 519.851C1185.17 498.469 1169.12 472.86 1160.03 443.668C1158.63 439.183 1157.23 434.703 1156.91 433.713C1156.01 430.893 1152.59 427.274 1149.42 425.779C1145.79 424.068 1142.66 423.838 1138.73 424.996C1136.03 425.795 1135.03 426.412 1132.7 428.751C1126.68 434.788 1126.81 439.379 1133.55 458.634C1144.12 488.842 1160.48 514.819 1183.31 537.626C1200.23 554.529 1218.17 567.413 1239.1 577.704C1254.74 585.39 1276.24 592.857 1282.21 592.671C1287.28 592.513 1292.08 589.675 1294.5 585.406ZM1313.53 526.441C1315.32 522.661 1315.63 519.272 1314.53 515.532C1313.22 511.048 1309.44 507.163 1305.06 505.788C1288.4 500.551 1284.84 499.217 1277.52 495.469C1260.02 486.514 1245.6 474.095 1234.44 458.378C1225.86 446.287 1221.77 437.292 1215.14 415.885C1214.38 413.429 1213.68 412.344 1211.41 410.106C1206.46 405.218 1200.04 404.366 1193.84 407.774C1188.65 410.628 1185.69 416.856 1186.58 423.058C1187.24 427.668 1191.64 441.142 1195.06 449.036C1209.9 483.274 1239.01 512.106 1273.22 526.452C1281.17 529.787 1293.44 533.719 1297.88 534.359C1304.25 535.276 1310.95 531.887 1313.53 526.441ZM1331.1 471.53C1334.18 465.441 1333.16 458.57 1328.46 453.874C1325.8 451.211 1323.21 450.045 1318.05 449.178C1311.02 447.997 1301.04 443.763 1295.17 439.475C1291.03 436.441 1283.87 429.309 1281.34 425.688C1276.93 419.384 1273.11 410.226 1271.6 402.36C1270.58 397.036 1269.66 395.035 1266.99 392.38C1263.97 389.364 1259.89 387.894 1255.36 388.183C1247.57 388.68 1241.29 395.824 1241.79 403.619C1242.45 413.776 1248.26 429.495 1255.54 440.843C1259.34 446.765 1274.17 461.597 1280.1 465.401C1289.14 471.21 1300.35 475.908 1310.25 478.045C1319.4 480.019 1323.17 479.426 1327.73 475.295C1329.22 473.949 1330.74 472.255 1331.1 471.53Z" fill="#231F20"/>
<g clip-path="url(#clip2_518:524)">
<rect x="1906.22" y="-500.917" width="446.297" height="992.275" rx="61.17" transform="rotate(45 1906.22 -500.917)" fill="#1A1A1A" stroke="#4F4F4F" stroke-width="22.66"/>
<path d="M1267.52 274.805L1446.31 453.597L1454.3 445.609C1468.46 431.453 1468.46 408.502 1454.3 394.346L1326.77 266.817C1312.61 252.661 1289.66 252.661 1275.51 266.817L1267.52 274.805Z" fill="#4F4F4F"/>
</g>
</g>
<defs>
<clipPath id="clip0_518:524">
<rect width="1920" height="1080" fill="white"/>
</clipPath>
<clipPath id="clip1_518:524">
<rect x="399.22" y="543.052" width="468.961" height="1014.95" rx="72.4964" transform="rotate(45 399.22 543.052)" fill="white"/>
</clipPath>
<clipPath id="clip2_518:524">
<rect width="468.961" height="1014.95" rx="72.4964" transform="matrix(0.707107 0.707107 0.707107 -0.707107 1188.6 200.908)" fill="white"/>
</clipPath>
</defs>
</svg>
